<?xml version="1.0" encoding="UTF-8"?><svg xmlns="http://www.w3.org/2000/svg" xmlns:xlink="http://www.w3.org/1999/xlink" stroke-dasharray="none" shape-rendering="auto" font-family="'Dialog'" width="721" text-rendering="auto" fill-opacity="1" contentScriptType="text/ecmascript" color-interpolation="auto" color-rendering="auto" preserveAspectRatio="xMidYMid meet" font-size="12px" fill="black" stroke="black" image-rendering="auto" stroke-miterlimit="10" zoomAndPan="magnify" version="1.0" stroke-linecap="square" stroke-linejoin="miter" contentStyleType="text/css" font-style="normal" height="401" stroke-width="1" stroke-dashoffset="0" font-weight="normal" stroke-opacity="1"><!--Generated by the Batik Graphics2D SVG Generator--><defs id="genericDefs"/><g><defs id="defs1"><clipPath clipPathUnits="userSpaceOnUse" id="clipPath1"><path d="M0 80 L80 80 L80 160 L0 160 L0 80 Z"/></clipPath><clipPath clipPathUnits="userSpaceOnUse" id="clipPath2"><path d="M80 160 L160 160 L160 240 L80 240 L80 160 Z"/></clipPath><clipPath clipPathUnits="userSpaceOnUse" id="clipPath3"><path d="M80 80 L160 80 L160 160 L80 160 L80 80 Z"/></clipPath><clipPath clipPathUnits="userSpaceOnUse" id="clipPath4"><path d="M160 160 L240 160 L240 240 L160 240 L160 160 Z"/></clipPath><clipPath clipPathUnits="userSpaceOnUse" id="clipPath5"><path d="M160 80 L240 80 L240 160 L160 160 L160 80 Z"/></clipPath><clipPath clipPathUnits="userSpaceOnUse" id="clipPath6"><path d="M80 0 L160 0 L160 80 L80 80 L80 0 Z"/></clipPath><clipPath clipPathUnits="userSpaceOnUse" id="clipPath7"><path d="M240 160 L320 160 L320 240 L240 240 L240 160 Z"/></clipPath><clipPath clipPathUnits="userSpaceOnUse" id="clipPath8"><path d="M240 80 L320 80 L320 160 L240 160 L240 80 Z"/></clipPath><clipPath clipPathUnits="userSpaceOnUse" id="clipPath9"><path d="M160 0 L240 0 L240 80 L160 80 L160 0 Z"/></clipPath><clipPath clipPathUnits="userSpaceOnUse" id="clipPath10"><path d="M320 80 L400 80 L400 160 L320 160 L320 80 Z"/></clipPath><clipPath clipPathUnits="userSpaceOnUse" id="clipPath11"><path d="M240 0 L320 0 L320 80 L240 80 L240 0 Z"/></clipPath><clipPath clipPathUnits="userSpaceOnUse" id="clipPath12"><path d="M240 240 L320 240 L320 320 L240 320 L240 240 Z"/></clipPath><clipPath clipPathUnits="userSpaceOnUse" id="clipPath13"><path d="M320 320 L400 320 L400 400 L320 400 L320 320 Z"/></clipPath><clipPath clipPathUnits="userSpaceOnUse" id="clipPath14"><path d="M320 240 L400 240 L400 320 L320 320 L320 240 Z"/></clipPath><clipPath clipPathUnits="userSpaceOnUse" id="clipPath15"><path d="M400 240 L480 240 L480 320 L400 320 L400 240 Z"/></clipPath><clipPath clipPathUnits="userSpaceOnUse" id="clipPath16"><path d="M320 160 L400 160 L400 240 L320 240 L320 160 Z"/></clipPath><clipPath clipPathUnits="userSpaceOnUse" id="clipPath17"><path d="M400 80 L480 80 L480 160 L400 160 L400 80 Z"/></clipPath><clipPath clipPathUnits="userSpaceOnUse" id="clipPath18"><path d="M320 0 L400 0 L400 80 L320 80 L320 0 Z"/></clipPath><clipPath clipPathUnits="userSpaceOnUse" id="clipPath19"><path d="M400 160 L480 160 L480 240 L400 240 L400 160 Z"/></clipPath><clipPath clipPathUnits="userSpaceOnUse" id="clipPath20"><path d="M480 160 L560 160 L560 240 L480 240 L480 160 Z"/></clipPath><clipPath clipPathUnits="userSpaceOnUse" id="clipPath21"><path d="M480 80 L560 80 L560 160 L480 160 L480 80 Z"/></clipPath><clipPath clipPathUnits="userSpaceOnUse" id="clipPath22"><path d="M400 0 L480 0 L480 80 L400 80 L400 0 Z"/></clipPath><clipPath clipPathUnits="userSpaceOnUse" id="clipPath23"><path d="M560 160 L640 160 L640 240 L560 240 L560 160 Z"/></clipPath><clipPath clipPathUnits="userSpaceOnUse" id="clipPath24"><path d="M560 80 L640 80 L640 160 L560 160 L560 80 Z"/></clipPath><clipPath clipPathUnits="userSpaceOnUse" id="clipPath25"><path d="M480 0 L560 0 L560 80 L480 80 L480 0 Z"/></clipPath><clipPath clipPathUnits="userSpaceOnUse" id="clipPath26"><path d="M640 80 L720 80 L720 160 L640 160 L640 80 Z"/></clipPath><clipPath clipPathUnits="userSpaceOnUse" id="clipPath27"><path d="M560 0 L640 0 L640 80 L560 80 L560 0 Z"/></clipPath><clipPath clipPathUnits="userSpaceOnUse" id="clipPath28"><path d="M160 240 L240 240 L240 320 L160 320 L160 240 Z"/></clipPath><clipPath clipPathUnits="userSpaceOnUse" id="clipPath29"><path d="M240 320 L320 320 L320 400 L240 400 L240 320 Z"/></clipPath><clipPath clipPathUnits="userSpaceOnUse" id="clipPath30"><path d="M0 240 L80 240 L80 320 L0 320 L0 240 Z"/></clipPath><clipPath clipPathUnits="userSpaceOnUse" id="clipPath31"><path d="M80 320 L160 320 L160 400 L80 400 L80 320 Z"/></clipPath><clipPath clipPathUnits="userSpaceOnUse" id="clipPath32"><path d="M80 240 L160 240 L160 320 L80 320 L80 240 Z"/></clipPath><clipPath clipPathUnits="userSpaceOnUse" id="clipPath33"><path d="M160 320 L240 320 L240 400 L160 400 L160 320 Z"/></clipPath><clipPath clipPathUnits="userSpaceOnUse" id="clipPath34"><path d="M400 320 L480 320 L480 400 L400 400 L400 320 Z"/></clipPath><clipPath clipPathUnits="userSpaceOnUse" id="clipPath35"><path d="M480 320 L560 320 L560 400 L480 400 L480 320 Z"/></clipPath><clipPath clipPathUnits="userSpaceOnUse" id="clipPath36"><path d="M480 240 L560 240 L560 320 L480 320 L480 240 Z"/></clipPath><clipPath clipPathUnits="userSpaceOnUse" id="clipPath37"><path d="M560 320 L640 320 L640 400 L560 400 L560 320 Z"/></clipPath><clipPath clipPathUnits="userSpaceOnUse" id="clipPath38"><path d="M560 240 L640 240 L640 320 L560 320 L560 240 Z"/></clipPath><clipPath clipPathUnits="userSpaceOnUse" id="clipPath39"><path d="M640 240 L720 240 L720 320 L640 320 L640 240 Z"/></clipPath><clipPath clipPathUnits="userSpaceOnUse" id="clipPath40"><path d="M99 99 L141 99 L141 141 L99 141 L99 99 Z"/></clipPath><clipPath clipPathUnits="userSpaceOnUse" id="clipPath41"><path d="M140 120 C140 131.0457 131.0457 140 120 140 C108.9543 140 100 131.0457 100 120 C100 108.9543 108.9543 100 120 100 C131.0457 100 140 108.9543 140 120 Z"/></clipPath><clipPath clipPathUnits="userSpaceOnUse" id="clipPath42"><path d="M579 259 L621 259 L621 301 L579 301 L579 259 Z"/></clipPath><clipPath clipPathUnits="userSpaceOnUse" id="clipPath43"><path d="M620 280 C620 291.0457 611.0457 300 600 300 C588.9543 300 580 291.0457 580 280 C580 268.9543 588.9543 260 600 260 C611.0457 260 620 268.9543 620 280 Z"/></clipPath><clipPath clipPathUnits="userSpaceOnUse" id="clipPath44"><path d="M179 99 L221 99 L221 141 L179 141 L179 99 Z"/></clipPath><clipPath clipPathUnits="userSpaceOnUse" id="clipPath45"><path d="M220 120 C220 131.0457 211.0457 140 200 140 C188.9543 140 180 131.0457 180 120 C180 108.9543 188.9543 100 200 100 C211.0457 100 220 108.9543 220 120 Z"/></clipPath><clipPath clipPathUnits="userSpaceOnUse" id="clipPath46"><path d="M499 259 L541 259 L541 301 L499 301 L499 259 Z"/></clipPath><clipPath clipPathUnits="userSpaceOnUse" id="clipPath47"><path d="M540 280 C540 291.0457 531.0457 300 520 300 C508.9543 300 500 291.0457 500 280 C500 268.9543 508.9543 260 520 260 C531.0457 260 540 268.9543 540 280 Z"/></clipPath><clipPath clipPathUnits="userSpaceOnUse" id="clipPath48"><path d="M259 99 L301 99 L301 141 L259 141 L259 99 Z"/></clipPath><clipPath clipPathUnits="userSpaceOnUse" id="clipPath49"><path d="M300 120 C300 131.0457 291.0457 140 280 140 C268.9543 140 260 131.0457 260 120 C260 108.9543 268.9543 100 280 100 C291.0457 100 300 108.9543 300 120 Z"/></clipPath><clipPath clipPathUnits="userSpaceOnUse" id="clipPath50"><path d="M419 259 L461 259 L461 301 L419 301 L419 259 Z"/></clipPath><clipPath clipPathUnits="userSpaceOnUse" id="clipPath51"><path d="M460 280 C460 291.0457 451.0457 300 440 300 C428.9543 300 420 291.0457 420 280 C420 268.9543 428.9543 260 440 260 C451.0457 260 460 268.9543 460 280 Z"/></clipPath><clipPath clipPathUnits="userSpaceOnUse" id="clipPath52"><path d="M339 99 L381 99 L381 141 L339 141 L339 99 Z"/></clipPath><clipPath clipPathUnits="userSpaceOnUse" id="clipPath53"><path d="M380 120 C380 131.0457 371.0457 140 360 140 C348.9543 140 340 131.0457 340 120 C340 108.9543 348.9543 100 360 100 C371.0457 100 380 108.9543 380 120 Z"/></clipPath><clipPath clipPathUnits="userSpaceOnUse" id="clipPath54"><path d="M339 259 L381 259 L381 301 L339 301 L339 259 Z"/></clipPath><clipPath clipPathUnits="userSpaceOnUse" id="clipPath55"><path d="M380 280 C380 291.0457 371.0457 300 360 300 C348.9543 300 340 291.0457 340 280 C340 268.9543 348.9543 260 360 260 C371.0457 260 380 268.9543 380 280 Z"/></clipPath><clipPath clipPathUnits="userSpaceOnUse" id="clipPath56"><path d="M419 99 L461 99 L461 141 L419 141 L419 99 Z"/></clipPath><clipPath clipPathUnits="userSpaceOnUse" id="clipPath57"><path d="M460 120 C460 131.0457 451.0457 140 440 140 C428.9543 140 420 131.0457 420 120 C420 108.9543 428.9543 100 440 100 C451.0457 100 460 108.9543 460 120 Z"/></clipPath><clipPath clipPathUnits="userSpaceOnUse" id="clipPath58"><path d="M259 259 L301 259 L301 301 L259 301 L259 259 Z"/></clipPath><clipPath clipPathUnits="userSpaceOnUse" id="clipPath59"><path d="M300 280 C300 291.0457 291.0457 300 280 300 C268.9543 300 260 291.0457 260 280 C260 268.9543 268.9543 260 280 260 C291.0457 260 300 268.9543 300 280 Z"/></clipPath><clipPath clipPathUnits="userSpaceOnUse" id="clipPath60"><path d="M499 99 L541 99 L541 141 L499 141 L499 99 Z"/></clipPath><clipPath clipPathUnits="userSpaceOnUse" id="clipPath61"><path d="M540 120 C540 131.0457 531.0457 140 520 140 C508.9543 140 500 131.0457 500 120 C500 108.9543 508.9543 100 520 100 C531.0457 100 540 108.9543 540 120 Z"/></clipPath><clipPath clipPathUnits="userSpaceOnUse" id="clipPath62"><path d="M179 259 L221 259 L221 301 L179 301 L179 259 Z"/></clipPath><clipPath clipPathUnits="userSpaceOnUse" id="clipPath63"><path d="M220 280 C220 291.0457 211.0457 300 200 300 C188.9543 300 180 291.0457 180 280 C180 268.9543 188.9543 260 200 260 C211.0457 260 220 268.9543 220 280 Z"/></clipPath><clipPath clipPathUnits="userSpaceOnUse" id="clipPath64"><path d="M579 99 L621 99 L621 141 L579 141 L579 99 Z"/></clipPath><clipPath clipPathUnits="userSpaceOnUse" id="clipPath65"><path d="M620 120 C620 131.0457 611.0457 140 600 140 C588.9543 140 580 131.0457 580 120 C580 108.9543 588.9543 100 600 100 C611.0457 100 620 108.9543 620 120 Z"/></clipPath><clipPath clipPathUnits="userSpaceOnUse" id="clipPath66"><path d="M99 259 L141 259 L141 301 L99 301 L99 259 Z"/></clipPath><clipPath clipPathUnits="userSpaceOnUse" id="clipPath67"><path d="M140 280 C140 291.0457 131.0457 300 120 300 C108.9543 300 100 291.0457 100 280 C100 268.9543 108.9543 260 120 260 C131.0457 260 140 268.9543 140 280 Z"/></clipPath></defs><g><line y2="0" fill="none" x1="0" x2="720" y1="0"/><line y2="80" fill="none" x1="0" x2="720" y1="80"/><line y2="160" fill="none" x1="0" x2="720" y1="160"/><line y2="240" fill="none" x1="0" x2="720" y1="240"/><line y2="320" fill="none" x1="0" x2="720" y1="320"/><line y2="400" fill="none" x1="0" x2="720" y1="400"/><line y2="400" fill="none" x1="0" x2="0" y1="0"/><line y2="400" fill="none" x1="80" x2="80" y1="0"/><line y2="400" fill="none" x1="160" x2="160" y1="0"/><line y2="400" fill="none" x1="240" x2="240" y1="0"/><line y2="400" fill="none" x1="320" x2="320" y1="0"/><line y2="400" fill="none" x1="400" x2="400" y1="0"/><line y2="400" fill="none" x1="480" x2="480" y1="0"/><line y2="400" fill="none" x1="560" x2="560" y1="0"/><line y2="400" fill="none" x1="640" x2="640" y1="0"/><line y2="400" fill="none" x1="720" x2="720" y1="0"/></g><g fill="gray" stroke-dasharray="10" stroke-linecap="butt" stroke="gray"><line y2="80" fill="none" x1="0" clip-path="url(#clipPath1)" x2="13.3333" y1="93.3333"/><line y2="80" fill="none" x1="0" clip-path="url(#clipPath1)" x2="26.6667" y1="106.6667"/><line y2="80" fill="none" x1="0" clip-path="url(#clipPath1)" x2="40" y1="120"/><line y2="80" fill="none" x1="0" clip-path="url(#clipPath1)" x2="53.3333" y1="133.3333"/><line y2="80" fill="none" x1="0" clip-path="url(#clipPath1)" x2="66.6667" y1="146.6667"/><line y2="80" fill="none" x1="0" clip-path="url(#clipPath1)" x2="80" y1="160"/><line y2="93.3333" fill="none" x1="13.3333" clip-path="url(#clipPath1)" x2="80" y1="160"/><line y2="106.6667" fill="none" x1="26.6667" clip-path="url(#clipPath1)" x2="80" y1="160"/><line y2="120" fill="none" x1="40" clip-path="url(#clipPath1)" x2="80" y1="160"/><line y2="133.3333" fill="none" x1="53.3333" clip-path="url(#clipPath1)" x2="80" y1="160"/><line y2="146.6667" fill="none" x1="66.6667" clip-path="url(#clipPath1)" x2="80" y1="160"/><line y2="160" fill="none" x1="80" clip-path="url(#clipPath1)" x2="80" y1="160"/><line y2="160" fill="none" x1="80" clip-path="url(#clipPath2)" x2="93.3333" y1="173.3333"/><line y2="160" fill="none" x1="80" clip-path="url(#clipPath2)" x2="106.6667" y1="186.6667"/><line y2="160" fill="none" x1="80" clip-path="url(#clipPath2)" x2="120" y1="200"/><line y2="160" fill="none" x1="80" clip-path="url(#clipPath2)" x2="133.3333" y1="213.3333"/><line y2="160" fill="none" x1="80" clip-path="url(#clipPath2)" x2="146.6667" y1="226.6667"/><line y2="160" fill="none" x1="80" clip-path="url(#clipPath2)" x2="160" y1="240"/><line y2="173.3333" fill="none" x1="93.3333" clip-path="url(#clipPath2)" x2="160" y1="240"/><line y2="186.6667" fill="none" x1="106.6667" clip-path="url(#clipPath2)" x2="160" y1="240"/><line y2="200" fill="none" x1="120" clip-path="url(#clipPath2)" x2="160" y1="240"/><line y2="213.3333" fill="none" x1="133.3333" clip-path="url(#clipPath2)" x2="160" y1="240"/><line y2="226.6667" fill="none" x1="146.6667" clip-path="url(#clipPath2)" x2="160" y1="240"/><line y2="240" fill="none" x1="160" clip-path="url(#clipPath2)" x2="160" y1="240"/><line y2="80" fill="none" x1="80" clip-path="url(#clipPath3)" x2="93.3333" y1="93.3333"/><line y2="80" fill="none" x1="80" clip-path="url(#clipPath3)" x2="106.6667" y1="106.6667"/><line y2="80" fill="none" x1="80" clip-path="url(#clipPath3)" x2="120" y1="120"/><line y2="80" fill="none" x1="80" clip-path="url(#clipPath3)" x2="133.3333" y1="133.3333"/><line y2="80" fill="none" x1="80" clip-path="url(#clipPath3)" x2="146.6667" y1="146.6667"/><line y2="80" fill="none" x1="80" clip-path="url(#clipPath3)" x2="160" y1="160"/><line y2="93.3333" fill="none" x1="93.3333" clip-path="url(#clipPath3)" x2="160" y1="160"/><line y2="106.6667" fill="none" x1="106.6667" clip-path="url(#clipPath3)" x2="160" y1="160"/><line y2="120" fill="none" x1="120" clip-path="url(#clipPath3)" x2="160" y1="160"/><line y2="133.3333" fill="none" x1="133.3333" clip-path="url(#clipPath3)" x2="160" y1="160"/><line y2="146.6667" fill="none" x1="146.6667" clip-path="url(#clipPath3)" x2="160" y1="160"/><line y2="160" fill="none" x1="160" clip-path="url(#clipPath3)" x2="160" y1="160"/><line y2="160" fill="none" x1="160" clip-path="url(#clipPath4)" x2="173.3333" y1="173.3333"/><line y2="160" fill="none" x1="160" clip-path="url(#clipPath4)" x2="186.6667" y1="186.6667"/><line y2="160" fill="none" x1="160" clip-path="url(#clipPath4)" x2="200" y1="200"/><line y2="160" fill="none" x1="160" clip-path="url(#clipPath4)" x2="213.3333" y1="213.3333"/><line y2="160" fill="none" x1="160" clip-path="url(#clipPath4)" x2="226.6667" y1="226.6667"/><line y2="160" fill="none" x1="160" clip-path="url(#clipPath4)" x2="240" y1="240"/><line y2="173.3333" fill="none" x1="173.3333" clip-path="url(#clipPath4)" x2="240" y1="240"/><line y2="186.6667" fill="none" x1="186.6667" clip-path="url(#clipPath4)" x2="240" y1="240"/><line y2="200" fill="none" x1="200" clip-path="url(#clipPath4)" x2="240" y1="240"/><line y2="213.3333" fill="none" x1="213.3333" clip-path="url(#clipPath4)" x2="240" y1="240"/><line y2="226.6667" fill="none" x1="226.6667" clip-path="url(#clipPath4)" x2="240" y1="240"/><line y2="240" fill="none" x1="240" clip-path="url(#clipPath4)" x2="240" y1="240"/><line y2="80" fill="none" x1="160" clip-path="url(#clipPath5)" x2="173.3333" y1="93.3333"/><line y2="80" fill="none" x1="160" clip-path="url(#clipPath5)" x2="186.6667" y1="106.6667"/><line y2="80" fill="none" x1="160" clip-path="url(#clipPath5)" x2="200" y1="120"/><line y2="80" fill="none" x1="160" clip-path="url(#clipPath5)" x2="213.3333" y1="133.3333"/><line y2="80" fill="none" x1="160" clip-path="url(#clipPath5)" x2="226.6667" y1="146.6667"/><line y2="80" fill="none" x1="160" clip-path="url(#clipPath5)" x2="240" y1="160"/><line y2="93.3333" fill="none" x1="173.3333" clip-path="url(#clipPath5)" x2="240" y1="160"/><line y2="106.6667" fill="none" x1="186.6667" clip-path="url(#clipPath5)" x2="240" y1="160"/><line y2="120" fill="none" x1="200" clip-path="url(#clipPath5)" x2="240" y1="160"/><line y2="133.3333" fill="none" x1="213.3333" clip-path="url(#clipPath5)" x2="240" y1="160"/><line y2="146.6667" fill="none" x1="226.6667" clip-path="url(#clipPath5)" x2="240" y1="160"/><line y2="160" fill="none" x1="240" clip-path="url(#clipPath5)" x2="240" y1="160"/><line y2="0" fill="none" x1="80" clip-path="url(#clipPath6)" x2="93.3333" y1="13.3333"/><line y2="0" fill="none" x1="80" clip-path="url(#clipPath6)" x2="106.6667" y1="26.6667"/><line y2="0" fill="none" x1="80" clip-path="url(#clipPath6)" x2="120" y1="40"/><line y2="0" fill="none" x1="80" clip-path="url(#clipPath6)" x2="133.3333" y1="53.3333"/><line y2="0" fill="none" x1="80" clip-path="url(#clipPath6)" x2="146.6667" y1="66.6667"/><line y2="0" fill="none" x1="80" clip-path="url(#clipPath6)" x2="160" y1="80"/><line y2="13.3333" fill="none" x1="93.3333" clip-path="url(#clipPath6)" x2="160" y1="80"/><line y2="26.6667" fill="none" x1="106.6667" clip-path="url(#clipPath6)" x2="160" y1="80"/><line y2="40" fill="none" x1="120" clip-path="url(#clipPath6)" x2="160" y1="80"/><line y2="53.3333" fill="none" x1="133.3333" clip-path="url(#clipPath6)" x2="160" y1="80"/><line y2="66.6667" fill="none" x1="146.6667" clip-path="url(#clipPath6)" x2="160" y1="80"/><line y2="80" fill="none" x1="160" clip-path="url(#clipPath6)" x2="160" y1="80"/><line y2="160" fill="none" x1="240" clip-path="url(#clipPath7)" x2="253.3333" y1="173.3333"/><line y2="160" fill="none" x1="240" clip-path="url(#clipPath7)" x2="266.6667" y1="186.6667"/><line y2="160" fill="none" x1="240" clip-path="url(#clipPath7)" x2="280" y1="200"/><line y2="160" fill="none" x1="240" clip-path="url(#clipPath7)" x2="293.3333" y1="213.3333"/><line y2="160" fill="none" x1="240" clip-path="url(#clipPath7)" x2="306.6667" y1="226.6667"/><line y2="160" fill="none" x1="240" clip-path="url(#clipPath7)" x2="320" y1="240"/><line y2="173.3333" fill="none" x1="253.3333" clip-path="url(#clipPath7)" x2="320" y1="240"/><line y2="186.6667" fill="none" x1="266.6667" clip-path="url(#clipPath7)" x2="320" y1="240"/><line y2="200" fill="none" x1="280" clip-path="url(#clipPath7)" x2="320" y1="240"/><line y2="213.3333" fill="none" x1="293.3333" clip-path="url(#clipPath7)" x2="320" y1="240"/><line y2="226.6667" fill="none" x1="306.6667" clip-path="url(#clipPath7)" x2="320" y1="240"/><line y2="240" fill="none" x1="320" clip-path="url(#clipPath7)" x2="320" y1="240"/><line y2="80" fill="none" x1="240" clip-path="url(#clipPath8)" x2="253.3333" y1="93.3333"/><line y2="80" fill="none" x1="240" clip-path="url(#clipPath8)" x2="266.6667" y1="106.6667"/><line y2="80" fill="none" x1="240" clip-path="url(#clipPath8)" x2="280" y1="120"/><line y2="80" fill="none" x1="240" clip-path="url(#clipPath8)" x2="293.3333" y1="133.3333"/><line y2="80" fill="none" x1="240" clip-path="url(#clipPath8)" x2="306.6667" y1="146.6667"/><line y2="80" fill="none" x1="240" clip-path="url(#clipPath8)" x2="320" y1="160"/><line y2="93.3333" fill="none" x1="253.3333" clip-path="url(#clipPath8)" x2="320" y1="160"/><line y2="106.6667" fill="none" x1="266.6667" clip-path="url(#clipPath8)" x2="320" y1="160"/><line y2="120" fill="none" x1="280" clip-path="url(#clipPath8)" x2="320" y1="160"/><line y2="133.3333" fill="none" x1="293.3333" clip-path="url(#clipPath8)" x2="320" y1="160"/><line y2="146.6667" fill="none" x1="306.6667" clip-path="url(#clipPath8)" x2="320" y1="160"/><line y2="160" fill="none" x1="320" clip-path="url(#clipPath8)" x2="320" y1="160"/><line y2="0" fill="none" x1="160" clip-path="url(#clipPath9)" x2="173.3333" y1="13.3333"/><line y2="0" fill="none" x1="160" clip-path="url(#clipPath9)" x2="186.6667" y1="26.6667"/><line y2="0" fill="none" x1="160" clip-path="url(#clipPath9)" x2="200" y1="40"/><line y2="0" fill="none" x1="160" clip-path="url(#clipPath9)" x2="213.3333" y1="53.3333"/><line y2="0" fill="none" x1="160" clip-path="url(#clipPath9)" x2="226.6667" y1="66.6667"/><line y2="0" fill="none" x1="160" clip-path="url(#clipPath9)" x2="240" y1="80"/><line y2="13.3333" fill="none" x1="173.3333" clip-path="url(#clipPath9)" x2="240" y1="80"/><line y2="26.6667" fill="none" x1="186.6667" clip-path="url(#clipPath9)" x2="240" y1="80"/><line y2="40" fill="none" x1="200" clip-path="url(#clipPath9)" x2="240" y1="80"/><line y2="53.3333" fill="none" x1="213.3333" clip-path="url(#clipPath9)" x2="240" y1="80"/><line y2="66.6667" fill="none" x1="226.6667" clip-path="url(#clipPath9)" x2="240" y1="80"/><line y2="80" fill="none" x1="240" clip-path="url(#clipPath9)" x2="240" y1="80"/><line y2="80" fill="none" x1="320" clip-path="url(#clipPath10)" x2="333.3333" y1="93.3333"/><line y2="80" fill="none" x1="320" clip-path="url(#clipPath10)" x2="346.6667" y1="106.6667"/><line y2="80" fill="none" x1="320" clip-path="url(#clipPath10)" x2="360" y1="120"/><line y2="80" fill="none" x1="320" clip-path="url(#clipPath10)" x2="373.3333" y1="133.3333"/><line y2="80" fill="none" x1="320" clip-path="url(#clipPath10)" x2="386.6667" y1="146.6667"/><line y2="80" fill="none" x1="320" clip-path="url(#clipPath10)" x2="400" y1="160"/><line y2="93.3333" fill="none" x1="333.3333" clip-path="url(#clipPath10)" x2="400" y1="160"/><line y2="106.6667" fill="none" x1="346.6667" clip-path="url(#clipPath10)" x2="400" y1="160"/><line y2="120" fill="none" x1="360" clip-path="url(#clipPath10)" x2="400" y1="160"/><line y2="133.3333" fill="none" x1="373.3333" clip-path="url(#clipPath10)" x2="400" y1="160"/><line y2="146.6667" fill="none" x1="386.6667" clip-path="url(#clipPath10)" x2="400" y1="160"/><line y2="160" fill="none" x1="400" clip-path="url(#clipPath10)" x2="400" y1="160"/><line y2="0" fill="none" x1="240" clip-path="url(#clipPath11)" x2="253.3333" y1="13.3333"/><line y2="0" fill="none" x1="240" clip-path="url(#clipPath11)" x2="266.6667" y1="26.6667"/><line y2="0" fill="none" x1="240" clip-path="url(#clipPath11)" x2="280" y1="40"/><line y2="0" fill="none" x1="240" clip-path="url(#clipPath11)" x2="293.3333" y1="53.3333"/><line y2="0" fill="none" x1="240" clip-path="url(#clipPath11)" x2="306.6667" y1="66.6667"/><line y2="0" fill="none" x1="240" clip-path="url(#clipPath11)" x2="320" y1="80"/><line y2="13.3333" fill="none" x1="253.3333" clip-path="url(#clipPath11)" x2="320" y1="80"/><line y2="26.6667" fill="none" x1="266.6667" clip-path="url(#clipPath11)" x2="320" y1="80"/><line y2="40" fill="none" x1="280" clip-path="url(#clipPath11)" x2="320" y1="80"/><line y2="53.3333" fill="none" x1="293.3333" clip-path="url(#clipPath11)" x2="320" y1="80"/><line y2="66.6667" fill="none" x1="306.6667" clip-path="url(#clipPath11)" x2="320" y1="80"/><line y2="80" fill="none" x1="320" clip-path="url(#clipPath11)" x2="320" y1="80"/></g><g fill="rgb(4,0,255)" stroke-miterlimit="5" stroke-dasharray="5" stroke-linecap="butt" stroke="rgb(4,0,255)"><line y2="320" fill="none" x1="240" clip-path="url(#clipPath12)" x2="306.6667" y1="253.3333"/><line y2="320" fill="none" x1="240" clip-path="url(#clipPath12)" x2="293.3333" y1="266.6667"/><line y2="320" fill="none" x1="240" clip-path="url(#clipPath12)" x2="280" y1="280"/><line y2="320" fill="none" x1="240" clip-path="url(#clipPath12)" x2="266.6667" y1="293.3333"/><line y2="320" fill="none" x1="240" clip-path="url(#clipPath12)" x2="253.3333" y1="306.6667"/><line y2="320" fill="none" x1="240" clip-path="url(#clipPath12)" x2="240" y1="320"/><line y2="320" fill="none" x1="240" clip-path="url(#clipPath12)" x2="320" y1="240"/><line y2="306.6667" fill="none" x1="253.3333" clip-path="url(#clipPath12)" x2="320" y1="240"/><line y2="293.3333" fill="none" x1="266.6667" clip-path="url(#clipPath12)" x2="320" y1="240"/><line y2="280" fill="none" x1="280" clip-path="url(#clipPath12)" x2="320" y1="240"/><line y2="266.6667" fill="none" x1="293.3333" clip-path="url(#clipPath12)" x2="320" y1="240"/><line y2="253.3333" fill="none" x1="306.6667" clip-path="url(#clipPath12)" x2="320" y1="240"/><line y2="240" fill="none" x1="320" clip-path="url(#clipPath12)" x2="320" y1="240"/><line y2="400" fill="none" x1="320" clip-path="url(#clipPath13)" x2="386.6667" y1="333.3333"/><line y2="400" fill="none" x1="320" clip-path="url(#clipPath13)" x2="373.3333" y1="346.6667"/><line y2="400" fill="none" x1="320" clip-path="url(#clipPath13)" x2="360" y1="360"/><line y2="400" fill="none" x1="320" clip-path="url(#clipPath13)" x2="346.6667" y1="373.3333"/><line y2="400" fill="none" x1="320" clip-path="url(#clipPath13)" x2="333.3333" y1="386.6667"/><line y2="400" fill="none" x1="320" clip-path="url(#clipPath13)" x2="320" y1="400"/><line y2="400" fill="none" x1="320" clip-path="url(#clipPath13)" x2="400" y1="320"/><line y2="386.6667" fill="none" x1="333.3333" clip-path="url(#clipPath13)" x2="400" y1="320"/><line y2="373.3333" fill="none" x1="346.6667" clip-path="url(#clipPath13)" x2="400" y1="320"/><line y2="360" fill="none" x1="360" clip-path="url(#clipPath13)" x2="400" y1="320"/><line y2="346.6667" fill="none" x1="373.3333" clip-path="url(#clipPath13)" x2="400" y1="320"/><line y2="333.3333" fill="none" x1="386.6667" clip-path="url(#clipPath13)" x2="400" y1="320"/><line y2="320" fill="none" x1="400" clip-path="url(#clipPath13)" x2="400" y1="320"/><line y2="320" fill="none" x1="320" clip-path="url(#clipPath14)" x2="386.6667" y1="253.3333"/><line y2="320" fill="none" x1="320" clip-path="url(#clipPath14)" x2="373.3333" y1="266.6667"/><line y2="320" fill="none" x1="320" clip-path="url(#clipPath14)" x2="360" y1="280"/><line y2="320" fill="none" x1="320" clip-path="url(#clipPath14)" x2="346.6667" y1="293.3333"/><line y2="320" fill="none" x1="320" clip-path="url(#clipPath14)" x2="333.3333" y1="306.6667"/><line y2="320" fill="none" x1="320" clip-path="url(#clipPath14)" x2="320" y1="320"/><line y2="320" fill="none" x1="320" clip-path="url(#clipPath14)" x2="400" y1="240"/><line y2="306.6667" fill="none" x1="333.3333" clip-path="url(#clipPath14)" x2="400" y1="240"/><line y2="293.3333" fill="none" x1="346.6667" clip-path="url(#clipPath14)" x2="400" y1="240"/><line y2="280" fill="none" x1="360" clip-path="url(#clipPath14)" x2="400" y1="240"/><line y2="266.6667" fill="none" x1="373.3333" clip-path="url(#clipPath14)" x2="400" y1="240"/><line y2="253.3333" fill="none" x1="386.6667" clip-path="url(#clipPath14)" x2="400" y1="240"/><line y2="240" fill="none" x1="400" clip-path="url(#clipPath14)" x2="400" y1="240"/><line y2="320" fill="none" x1="400" clip-path="url(#clipPath15)" x2="466.6667" y1="253.3333"/><line y2="320" fill="none" x1="400" clip-path="url(#clipPath15)" x2="453.3333" y1="266.6667"/><line y2="320" fill="none" x1="400" clip-path="url(#clipPath15)" x2="440" y1="280"/><line y2="320" fill="none" x1="400" clip-path="url(#clipPath15)" x2="426.6667" y1="293.3333"/><line y2="320" fill="none" x1="400" clip-path="url(#clipPath15)" x2="413.3333" y1="306.6667"/><line y2="320" fill="none" x1="400" clip-path="url(#clipPath15)" x2="400" y1="320"/><line y2="320" fill="none" x1="400" clip-path="url(#clipPath15)" x2="480" y1="240"/><line y2="306.6667" fill="none" x1="413.3333" clip-path="url(#clipPath15)" x2="480" y1="240"/><line y2="293.3333" fill="none" x1="426.6667" clip-path="url(#clipPath15)" x2="480" y1="240"/><line y2="280" fill="none" x1="440" clip-path="url(#clipPath15)" x2="480" y1="240"/><line y2="266.6667" fill="none" x1="453.3333" clip-path="url(#clipPath15)" x2="480" y1="240"/><line y2="253.3333" fill="none" x1="466.6667" clip-path="url(#clipPath15)" x2="480" y1="240"/><line y2="240" fill="none" x1="480" clip-path="url(#clipPath15)" x2="480" y1="240"/><line y2="240" fill="none" x1="320" clip-path="url(#clipPath16)" x2="386.6667" y1="173.3333"/><line y2="240" fill="none" x1="320" clip-path="url(#clipPath16)" x2="373.3333" y1="186.6667"/><line y2="240" fill="none" x1="320" clip-path="url(#clipPath16)" x2="360" y1="200"/><line y2="240" fill="none" x1="320" clip-path="url(#clipPath16)" x2="346.6667" y1="213.3333"/><line y2="240" fill="none" x1="320" clip-path="url(#clipPath16)" x2="333.3333" y1="226.6667"/><line y2="240" fill="none" x1="320" clip-path="url(#clipPath16)" x2="320" y1="240"/><line y2="240" fill="none" x1="320" clip-path="url(#clipPath16)" x2="400" y1="160"/><line y2="226.6667" fill="none" x1="333.3333" clip-path="url(#clipPath16)" x2="400" y1="160"/><line y2="213.3333" fill="none" x1="346.6667" clip-path="url(#clipPath16)" x2="400" y1="160"/><line y2="200" fill="none" x1="360" clip-path="url(#clipPath16)" x2="400" y1="160"/><line y2="186.6667" fill="none" x1="373.3333" clip-path="url(#clipPath16)" x2="400" y1="160"/><line y2="173.3333" fill="none" x1="386.6667" clip-path="url(#clipPath16)" x2="400" y1="160"/><line y2="160" fill="none" x1="400" clip-path="url(#clipPath16)" x2="400" y1="160"/><line y2="160" fill="none" x1="240" clip-path="url(#clipPath8)" x2="306.6667" y1="93.3333"/><line y2="160" fill="none" x1="240" clip-path="url(#clipPath8)" x2="293.3333" y1="106.6667"/><line y2="160" fill="none" x1="240" clip-path="url(#clipPath8)" x2="280" y1="120"/><line y2="160" fill="none" x1="240" clip-path="url(#clipPath8)" x2="266.6667" y1="133.3333"/><line y2="160" fill="none" x1="240" clip-path="url(#clipPath8)" x2="253.3333" y1="146.6667"/><line y2="160" fill="none" x1="240" clip-path="url(#clipPath8)" x2="240" y1="160"/><line y2="160" fill="none" x1="240" clip-path="url(#clipPath8)" x2="320" y1="80"/><line y2="146.6667" fill="none" x1="253.3333" clip-path="url(#clipPath8)" x2="320" y1="80"/><line y2="133.3333" fill="none" x1="266.6667" clip-path="url(#clipPath8)" x2="320" y1="80"/><line y2="120" fill="none" x1="280" clip-path="url(#clipPath8)" x2="320" y1="80"/><line y2="106.6667" fill="none" x1="293.3333" clip-path="url(#clipPath8)" x2="320" y1="80"/><line y2="93.3333" fill="none" x1="306.6667" clip-path="url(#clipPath8)" x2="320" y1="80"/><line y2="80" fill="none" x1="320" clip-path="url(#clipPath8)" x2="320" y1="80"/><line y2="160" fill="none" x1="320" clip-path="url(#clipPath10)" x2="386.6667" y1="93.3333"/><line y2="160" fill="none" x1="320" clip-path="url(#clipPath10)" x2="373.3333" y1="106.6667"/><line y2="160" fill="none" x1="320" clip-path="url(#clipPath10)" x2="360" y1="120"/><line y2="160" fill="none" x1="320" clip-path="url(#clipPath10)" x2="346.6667" y1="133.3333"/><line y2="160" fill="none" x1="320" clip-path="url(#clipPath10)" x2="333.3333" y1="146.6667"/><line y2="160" fill="none" x1="320" clip-path="url(#clipPath10)" x2="320" y1="160"/><line y2="160" fill="none" x1="320" clip-path="url(#clipPath10)" x2="400" y1="80"/><line y2="146.6667" fill="none" x1="333.3333" clip-path="url(#clipPath10)" x2="400" y1="80"/><line y2="133.3333" fill="none" x1="346.6667" clip-path="url(#clipPath10)" x2="400" y1="80"/><line y2="120" fill="none" x1="360" clip-path="url(#clipPath10)" x2="400" y1="80"/><line y2="106.6667" fill="none" x1="373.3333" clip-path="url(#clipPath10)" x2="400" y1="80"/><line y2="93.3333" fill="none" x1="386.6667" clip-path="url(#clipPath10)" x2="400" y1="80"/><line y2="80" fill="none" x1="400" clip-path="url(#clipPath10)" x2="400" y1="80"/><line y2="160" fill="none" x1="400" clip-path="url(#clipPath17)" x2="466.6667" y1="93.3333"/><line y2="160" fill="none" x1="400" clip-path="url(#clipPath17)" x2="453.3333" y1="106.6667"/><line y2="160" fill="none" x1="400" clip-path="url(#clipPath17)" x2="440" y1="120"/><line y2="160" fill="none" x1="400" clip-path="url(#clipPath17)" x2="426.6667" y1="133.3333"/><line y2="160" fill="none" x1="400" clip-path="url(#clipPath17)" x2="413.3333" y1="146.6667"/><line y2="160" fill="none" x1="400" clip-path="url(#clipPath17)" x2="400" y1="160"/><line y2="160" fill="none" x1="400" clip-path="url(#clipPath17)" x2="480" y1="80"/><line y2="146.6667" fill="none" x1="413.3333" clip-path="url(#clipPath17)" x2="480" y1="80"/><line y2="133.3333" fill="none" x1="426.6667" clip-path="url(#clipPath17)" x2="480" y1="80"/><line y2="120" fill="none" x1="440" clip-path="url(#clipPath17)" x2="480" y1="80"/><line y2="106.6667" fill="none" x1="453.3333" clip-path="url(#clipPath17)" x2="480" y1="80"/><line y2="93.3333" fill="none" x1="466.6667" clip-path="url(#clipPath17)" x2="480" y1="80"/><line y2="80" fill="none" x1="480" clip-path="url(#clipPath17)" x2="480" y1="80"/><line y2="80" fill="none" x1="320" clip-path="url(#clipPath18)" x2="386.6667" y1="13.3333"/><line y2="80" fill="none" x1="320" clip-path="url(#clipPath18)" x2="373.3333" y1="26.6667"/><line y2="80" fill="none" x1="320" clip-path="url(#clipPath18)" x2="360" y1="40"/><line y2="80" fill="none" x1="320" clip-path="url(#clipPath18)" x2="346.6667" y1="53.3333"/><line y2="80" fill="none" x1="320" clip-path="url(#clipPath18)" x2="333.3333" y1="66.6667"/><line y2="80" fill="none" x1="320" clip-path="url(#clipPath18)" x2="320" y1="80"/><line y2="80" fill="none" x1="320" clip-path="url(#clipPath18)" x2="400" y1="0"/><line y2="66.6667" fill="none" x1="333.3333" clip-path="url(#clipPath18)" x2="400" y1="0"/><line y2="53.3333" fill="none" x1="346.6667" clip-path="url(#clipPath18)" x2="400" y1="0"/><line y2="40" fill="none" x1="360" clip-path="url(#clipPath18)" x2="400" y1="0"/><line y2="26.6667" fill="none" x1="373.3333" clip-path="url(#clipPath18)" x2="400" y1="0"/><line y2="13.3333" fill="none" x1="386.6667" clip-path="url(#clipPath18)" x2="400" y1="0"/><line y2="0" fill="none" x1="400" clip-path="url(#clipPath18)" x2="400" y1="0"/></g><g fill="rgb(255,169,0)" stroke="rgb(255,169,0)"><line y2="160" fill="none" x1="330" clip-path="url(#clipPath10)" x2="330" y1="80"/><line y2="160" fill="none" x1="340" clip-path="url(#clipPath10)" x2="340" y1="80"/><line y2="160" fill="none" x1="350" clip-path="url(#clipPath10)" x2="350" y1="80"/><line y2="160" fill="none" x1="360" clip-path="url(#clipPath10)" x2="360" y1="80"/><line y2="160" fill="none" x1="370" clip-path="url(#clipPath10)" x2="370" y1="80"/><line y2="160" fill="none" x1="380" clip-path="url(#clipPath10)" x2="380" y1="80"/><line y2="160" fill="none" x1="390" clip-path="url(#clipPath10)" x2="390" y1="80"/><line y2="240" fill="none" x1="410" clip-path="url(#clipPath19)" x2="410" y1="160"/><line y2="240" fill="none" x1="420" clip-path="url(#clipPath19)" x2="420" y1="160"/><line y2="240" fill="none" x1="430" clip-path="url(#clipPath19)" x2="430" y1="160"/><line y2="240" fill="none" x1="440" clip-path="url(#clipPath19)" x2="440" y1="160"/><line y2="240" fill="none" x1="450" clip-path="url(#clipPath19)" x2="450" y1="160"/><line y2="240" fill="none" x1="460" clip-path="url(#clipPath19)" x2="460" y1="160"/><line y2="240" fill="none" x1="470" clip-path="url(#clipPath19)" x2="470" y1="160"/><line y2="160" fill="none" x1="410" clip-path="url(#clipPath17)" x2="410" y1="80"/><line y2="160" fill="none" x1="420" clip-path="url(#clipPath17)" x2="420" y1="80"/><line y2="160" fill="none" x1="430" clip-path="url(#clipPath17)" x2="430" y1="80"/><line y2="160" fill="none" x1="440" clip-path="url(#clipPath17)" x2="440" y1="80"/><line y2="160" fill="none" x1="450" clip-path="url(#clipPath17)" x2="450" y1="80"/><line y2="160" fill="none" x1="460" clip-path="url(#clipPath17)" x2="460" y1="80"/><line y2="160" fill="none" x1="470" clip-path="url(#clipPath17)" x2="470" y1="80"/><line y2="240" fill="none" x1="490" clip-path="url(#clipPath20)" x2="490" y1="160"/><line y2="240" fill="none" x1="500" clip-path="url(#clipPath20)" x2="500" y1="160"/><line y2="240" fill="none" x1="510" clip-path="url(#clipPath20)" x2="510" y1="160"/><line y2="240" fill="none" x1="520" clip-path="url(#clipPath20)" x2="520" y1="160"/><line y2="240" fill="none" x1="530" clip-path="url(#clipPath20)" x2="530" y1="160"/><line y2="240" fill="none" x1="540" clip-path="url(#clipPath20)" x2="540" y1="160"/><line y2="240" fill="none" x1="550" clip-path="url(#clipPath20)" x2="550" y1="160"/><line y2="160" fill="none" x1="490" clip-path="url(#clipPath21)" x2="490" y1="80"/><line y2="160" fill="none" x1="500" clip-path="url(#clipPath21)" x2="500" y1="80"/><line y2="160" fill="none" x1="510" clip-path="url(#clipPath21)" x2="510" y1="80"/><line y2="160" fill="none" x1="520" clip-path="url(#clipPath21)" x2="520" y1="80"/><line y2="160" fill="none" x1="530" clip-path="url(#clipPath21)" x2="530" y1="80"/><line y2="160" fill="none" x1="540" clip-path="url(#clipPath21)" x2="540" y1="80"/><line y2="160" fill="none" x1="550" clip-path="url(#clipPath21)" x2="550" y1="80"/><line y2="80" fill="none" x1="410" clip-path="url(#clipPath22)" x2="410" y1="0"/><line y2="80" fill="none" x1="420" clip-path="url(#clipPath22)" x2="420" y1="0"/><line y2="80" fill="none" x1="430" clip-path="url(#clipPath22)" x2="430" y1="0"/><line y2="80" fill="none" x1="440" clip-path="url(#clipPath22)" x2="440" y1="0"/><line y2="80" fill="none" x1="450" clip-path="url(#clipPath22)" x2="450" y1="0"/><line y2="80" fill="none" x1="460" clip-path="url(#clipPath22)" x2="460" y1="0"/><line y2="80" fill="none" x1="470" clip-path="url(#clipPath22)" x2="470" y1="0"/><line y2="240" fill="none" x1="570" clip-path="url(#clipPath23)" x2="570" y1="160"/><line y2="240" fill="none" x1="580" clip-path="url(#clipPath23)" x2="580" y1="160"/><line y2="240" fill="none" x1="590" clip-path="url(#clipPath23)" x2="590" y1="160"/><line y2="240" fill="none" x1="600" clip-path="url(#clipPath23)" x2="600" y1="160"/><line y2="240" fill="none" x1="610" clip-path="url(#clipPath23)" x2="610" y1="160"/><line y2="240" fill="none" x1="620" clip-path="url(#clipPath23)" x2="620" y1="160"/><line y2="240" fill="none" x1="630" clip-path="url(#clipPath23)" x2="630" y1="160"/><line y2="160" fill="none" x1="570" clip-path="url(#clipPath24)" x2="570" y1="80"/><line y2="160" fill="none" x1="580" clip-path="url(#clipPath24)" x2="580" y1="80"/><line y2="160" fill="none" x1="590" clip-path="url(#clipPath24)" x2="590" y1="80"/><line y2="160" fill="none" x1="600" clip-path="url(#clipPath24)" x2="600" y1="80"/><line y2="160" fill="none" x1="610" clip-path="url(#clipPath24)" x2="610" y1="80"/><line y2="160" fill="none" x1="620" clip-path="url(#clipPath24)" x2="620" y1="80"/><line y2="160" fill="none" x1="630" clip-path="url(#clipPath24)" x2="630" y1="80"/><line y2="80" fill="none" x1="490" clip-path="url(#clipPath25)" x2="490" y1="0"/><line y2="80" fill="none" x1="500" clip-path="url(#clipPath25)" x2="500" y1="0"/><line y2="80" fill="none" x1="510" clip-path="url(#clipPath25)" x2="510" y1="0"/><line y2="80" fill="none" x1="520" clip-path="url(#clipPath25)" x2="520" y1="0"/><line y2="80" fill="none" x1="530" clip-path="url(#clipPath25)" x2="530" y1="0"/><line y2="80" fill="none" x1="540" clip-path="url(#clipPath25)" x2="540" y1="0"/><line y2="80" fill="none" x1="550" clip-path="url(#clipPath25)" x2="550" y1="0"/><line y2="160" fill="none" x1="650" clip-path="url(#clipPath26)" x2="650" y1="80"/><line y2="160" fill="none" x1="660" clip-path="url(#clipPath26)" x2="660" y1="80"/><line y2="160" fill="none" x1="670" clip-path="url(#clipPath26)" x2="670" y1="80"/><line y2="160" fill="none" x1="680" clip-path="url(#clipPath26)" x2="680" y1="80"/><line y2="160" fill="none" x1="690" clip-path="url(#clipPath26)" x2="690" y1="80"/><line y2="160" fill="none" x1="700" clip-path="url(#clipPath26)" x2="700" y1="80"/><line y2="160" fill="none" x1="710" clip-path="url(#clipPath26)" x2="710" y1="80"/><line y2="80" fill="none" x1="570" clip-path="url(#clipPath27)" x2="570" y1="0"/><line y2="80" fill="none" x1="580" clip-path="url(#clipPath27)" x2="580" y1="0"/><line y2="80" fill="none" x1="590" clip-path="url(#clipPath27)" x2="590" y1="0"/><line y2="80" fill="none" x1="600" clip-path="url(#clipPath27)" x2="600" y1="0"/><line y2="80" fill="none" x1="610" clip-path="url(#clipPath27)" x2="610" y1="0"/><line y2="80" fill="none" x1="620" clip-path="url(#clipPath27)" x2="620" y1="0"/><line y2="80" fill="none" x1="630" clip-path="url(#clipPath27)" x2="630" y1="0"/><line clip-path="url(#clipPath28)" fill="none" x1="160" x2="240" y1="250" y2="250" stroke="rgb(255,4,0)"/><line clip-path="url(#clipPath28)" fill="none" x1="160" x2="240" y1="260" y2="260" stroke="rgb(255,4,0)"/><line clip-path="url(#clipPath28)" fill="none" x1="160" x2="240" y1="270" y2="270" stroke="rgb(255,4,0)"/><line clip-path="url(#clipPath28)" fill="none" x1="160" x2="240" y1="280" y2="280" stroke="rgb(255,4,0)"/><line clip-path="url(#clipPath28)" fill="none" x1="160" x2="240" y1="290" y2="290" stroke="rgb(255,4,0)"/><line clip-path="url(#clipPath28)" fill="none" x1="160" x2="240" y1="300" y2="300" stroke="rgb(255,4,0)"/><line clip-path="url(#clipPath28)" fill="none" x1="160" x2="240" y1="310" y2="310" stroke="rgb(255,4,0)"/><line clip-path="url(#clipPath29)" fill="none" x1="240" x2="320" y1="330" y2="330" stroke="rgb(255,4,0)"/><line clip-path="url(#clipPath29)" fill="none" x1="240" x2="320" y1="340" y2="340" stroke="rgb(255,4,0)"/><line clip-path="url(#clipPath29)" fill="none" x1="240" x2="320" y1="350" y2="350" stroke="rgb(255,4,0)"/><line clip-path="url(#clipPath29)" fill="none" x1="240" x2="320" y1="360" y2="360" stroke="rgb(255,4,0)"/><line clip-path="url(#clipPath29)" fill="none" x1="240" x2="320" y1="370" y2="370" stroke="rgb(255,4,0)"/><line clip-path="url(#clipPath29)" fill="none" x1="240" x2="320" y1="380" y2="380" stroke="rgb(255,4,0)"/><line clip-path="url(#clipPath29)" fill="none" x1="240" x2="320" y1="390" y2="390" stroke="rgb(255,4,0)"/><line clip-path="url(#clipPath2)" fill="none" x1="80" x2="160" y1="170" y2="170" stroke="rgb(255,4,0)"/><line clip-path="url(#clipPath2)" fill="none" x1="80" x2="160" y1="180" y2="180" stroke="rgb(255,4,0)"/><line clip-path="url(#clipPath2)" fill="none" x1="80" x2="160" y1="190" y2="190" stroke="rgb(255,4,0)"/><line clip-path="url(#clipPath2)" fill="none" x1="80" x2="160" y1="200" y2="200" stroke="rgb(255,4,0)"/><line clip-path="url(#clipPath2)" fill="none" x1="80" x2="160" y1="210" y2="210" stroke="rgb(255,4,0)"/><line clip-path="url(#clipPath2)" fill="none" x1="80" x2="160" y1="220" y2="220" stroke="rgb(255,4,0)"/><line clip-path="url(#clipPath2)" fill="none" x1="80" x2="160" y1="230" y2="230" stroke="rgb(255,4,0)"/><line clip-path="url(#clipPath12)" fill="none" x1="240" x2="320" y1="250" y2="250" stroke="rgb(255,4,0)"/><line clip-path="url(#clipPath12)" fill="none" x1="240" x2="320" y1="260" y2="260" stroke="rgb(255,4,0)"/><line clip-path="url(#clipPath12)" fill="none" x1="240" x2="320" y1="270" y2="270" stroke="rgb(255,4,0)"/><line clip-path="url(#clipPath12)" fill="none" x1="240" x2="320" y1="280" y2="280" stroke="rgb(255,4,0)"/><line clip-path="url(#clipPath12)" fill="none" x1="240" x2="320" y1="290" y2="290" stroke="rgb(255,4,0)"/><line clip-path="url(#clipPath12)" fill="none" x1="240" x2="320" y1="300" y2="300" stroke="rgb(255,4,0)"/><line clip-path="url(#clipPath12)" fill="none" x1="240" x2="320" y1="310" y2="310" stroke="rgb(255,4,0)"/><line clip-path="url(#clipPath4)" fill="none" x1="160" x2="240" y1="170" y2="170" stroke="rgb(255,4,0)"/><line clip-path="url(#clipPath4)" fill="none" x1="160" x2="240" y1="180" y2="180" stroke="rgb(255,4,0)"/><line clip-path="url(#clipPath4)" fill="none" x1="160" x2="240" y1="190" y2="190" stroke="rgb(255,4,0)"/><line clip-path="url(#clipPath4)" fill="none" x1="160" x2="240" y1="200" y2="200" stroke="rgb(255,4,0)"/><line clip-path="url(#clipPath4)" fill="none" x1="160" x2="240" y1="210" y2="210" stroke="rgb(255,4,0)"/><line clip-path="url(#clipPath4)" fill="none" x1="160" x2="240" y1="220" y2="220" stroke="rgb(255,4,0)"/><line clip-path="url(#clipPath4)" fill="none" x1="160" x2="240" y1="230" y2="230" stroke="rgb(255,4,0)"/><line clip-path="url(#clipPath14)" fill="none" x1="320" x2="400" y1="250" y2="250" stroke="rgb(255,4,0)"/><line clip-path="url(#clipPath14)" fill="none" x1="320" x2="400" y1="260" y2="260" stroke="rgb(255,4,0)"/><line clip-path="url(#clipPath14)" fill="none" x1="320" x2="400" y1="270" y2="270" stroke="rgb(255,4,0)"/><line clip-path="url(#clipPath14)" fill="none" x1="320" x2="400" y1="280" y2="280" stroke="rgb(255,4,0)"/><line clip-path="url(#clipPath14)" fill="none" x1="320" x2="400" y1="290" y2="290" stroke="rgb(255,4,0)"/><line clip-path="url(#clipPath14)" fill="none" x1="320" x2="400" y1="300" y2="300" stroke="rgb(255,4,0)"/><line clip-path="url(#clipPath14)" fill="none" x1="320" x2="400" y1="310" y2="310" stroke="rgb(255,4,0)"/><line clip-path="url(#clipPath7)" fill="none" x1="240" x2="320" y1="170" y2="170" stroke="rgb(255,4,0)"/><line clip-path="url(#clipPath7)" fill="none" x1="240" x2="320" y1="180" y2="180" stroke="rgb(255,4,0)"/><line clip-path="url(#clipPath7)" fill="none" x1="240" x2="320" y1="190" y2="190" stroke="rgb(255,4,0)"/><line clip-path="url(#clipPath7)" fill="none" x1="240" x2="320" y1="200" y2="200" stroke="rgb(255,4,0)"/><line clip-path="url(#clipPath7)" fill="none" x1="240" x2="320" y1="210" y2="210" stroke="rgb(255,4,0)"/><line clip-path="url(#clipPath7)" fill="none" x1="240" x2="320" y1="220" y2="220" stroke="rgb(255,4,0)"/><line clip-path="url(#clipPath7)" fill="none" x1="240" x2="320" y1="230" y2="230" stroke="rgb(255,4,0)"/><line clip-path="url(#clipPath30)" fill="none" x1="0" x2="80" y1="250" y2="250" stroke="rgb(255,4,0)"/><line clip-path="url(#clipPath30)" fill="none" x1="0" x2="80" y1="260" y2="260" stroke="rgb(255,4,0)"/><line clip-path="url(#clipPath30)" fill="none" x1="0" x2="80" y1="270" y2="270" stroke="rgb(255,4,0)"/><line clip-path="url(#clipPath30)" fill="none" x1="0" x2="80" y1="280" y2="280" stroke="rgb(255,4,0)"/><line clip-path="url(#clipPath30)" fill="none" x1="0" x2="80" y1="290" y2="290" stroke="rgb(255,4,0)"/><line clip-path="url(#clipPath30)" fill="none" x1="0" x2="80" y1="300" y2="300" stroke="rgb(255,4,0)"/><line clip-path="url(#clipPath30)" fill="none" x1="0" x2="80" y1="310" y2="310" stroke="rgb(255,4,0)"/><line clip-path="url(#clipPath31)" fill="none" x1="80" x2="160" y1="330" y2="330" stroke="rgb(255,4,0)"/><line clip-path="url(#clipPath31)" fill="none" x1="80" x2="160" y1="340" y2="340" stroke="rgb(255,4,0)"/><line clip-path="url(#clipPath31)" fill="none" x1="80" x2="160" y1="350" y2="350" stroke="rgb(255,4,0)"/><line clip-path="url(#clipPath31)" fill="none" x1="80" x2="160" y1="360" y2="360" stroke="rgb(255,4,0)"/><line clip-path="url(#clipPath31)" fill="none" x1="80" x2="160" y1="370" y2="370" stroke="rgb(255,4,0)"/><line clip-path="url(#clipPath31)" fill="none" x1="80" x2="160" y1="380" y2="380" stroke="rgb(255,4,0)"/><line clip-path="url(#clipPath31)" fill="none" x1="80" x2="160" y1="390" y2="390" stroke="rgb(255,4,0)"/><line clip-path="url(#clipPath32)" fill="none" x1="80" x2="160" y1="250" y2="250" stroke="rgb(255,4,0)"/><line clip-path="url(#clipPath32)" fill="none" x1="80" x2="160" y1="260" y2="260" stroke="rgb(255,4,0)"/><line clip-path="url(#clipPath32)" fill="none" x1="80" x2="160" y1="270" y2="270" stroke="rgb(255,4,0)"/><line clip-path="url(#clipPath32)" fill="none" x1="80" x2="160" y1="280" y2="280" stroke="rgb(255,4,0)"/><line clip-path="url(#clipPath32)" fill="none" x1="80" x2="160" y1="290" y2="290" stroke="rgb(255,4,0)"/><line clip-path="url(#clipPath32)" fill="none" x1="80" x2="160" y1="300" y2="300" stroke="rgb(255,4,0)"/><line clip-path="url(#clipPath32)" fill="none" x1="80" x2="160" y1="310" y2="310" stroke="rgb(255,4,0)"/><line clip-path="url(#clipPath33)" fill="none" x1="160" x2="240" y1="330" y2="330" stroke="rgb(255,4,0)"/><line clip-path="url(#clipPath33)" fill="none" x1="160" x2="240" y1="340" y2="340" stroke="rgb(255,4,0)"/><line clip-path="url(#clipPath33)" fill="none" x1="160" x2="240" y1="350" y2="350" stroke="rgb(255,4,0)"/><line clip-path="url(#clipPath33)" fill="none" x1="160" x2="240" y1="360" y2="360" stroke="rgb(255,4,0)"/><line clip-path="url(#clipPath33)" fill="none" x1="160" x2="240" y1="370" y2="370" stroke="rgb(255,4,0)"/><line clip-path="url(#clipPath33)" fill="none" x1="160" x2="240" y1="380" y2="380" stroke="rgb(255,4,0)"/><line clip-path="url(#clipPath33)" fill="none" x1="160" x2="240" y1="390" y2="390" stroke="rgb(255,4,0)"/></g><g fill="rgb(238,130,236)" stroke-dasharray="10" stroke-linecap="butt" stroke="rgb(238,130,236)"><line y2="240" fill="none" x1="320" clip-path="url(#clipPath14)" x2="333.3333" y1="253.3333"/><line y2="240" fill="none" x1="320" clip-path="url(#clipPath14)" x2="346.6667" y1="266.6667"/><line y2="240" fill="none" x1="320" clip-path="url(#clipPath14)" x2="360" y1="280"/><line y2="240" fill="none" x1="320" clip-path="url(#clipPath14)" x2="373.3333" y1="293.3333"/><line y2="240" fill="none" x1="320" clip-path="url(#clipPath14)" x2="386.6667" y1="306.6667"/><line y2="240" fill="none" x1="320" clip-path="url(#clipPath14)" x2="400" y1="320"/><line y2="253.3333" fill="none" x1="333.3333" clip-path="url(#clipPath14)" x2="400" y1="320"/><line y2="266.6667" fill="none" x1="346.6667" clip-path="url(#clipPath14)" x2="400" y1="320"/><line y2="280" fill="none" x1="360" clip-path="url(#clipPath14)" x2="400" y1="320"/><line y2="293.3333" fill="none" x1="373.3333" clip-path="url(#clipPath14)" x2="400" y1="320"/><line y2="306.6667" fill="none" x1="386.6667" clip-path="url(#clipPath14)" x2="400" y1="320"/><line y2="320" fill="none" x1="400" clip-path="url(#clipPath14)" x2="400" y1="320"/><line y2="320" fill="none" x1="400" clip-path="url(#clipPath34)" x2="413.3333" y1="333.3333"/><line y2="320" fill="none" x1="400" clip-path="url(#clipPath34)" x2="426.6667" y1="346.6667"/><line y2="320" fill="none" x1="400" clip-path="url(#clipPath34)" x2="440" y1="360"/><line y2="320" fill="none" x1="400" clip-path="url(#clipPath34)" x2="453.3333" y1="373.3333"/><line y2="320" fill="none" x1="400" clip-path="url(#clipPath34)" x2="466.6667" y1="386.6667"/><line y2="320" fill="none" x1="400" clip-path="url(#clipPath34)" x2="480" y1="400"/><line y2="333.3333" fill="none" x1="413.3333" clip-path="url(#clipPath34)" x2="480" y1="400"/><line y2="346.6667" fill="none" x1="426.6667" clip-path="url(#clipPath34)" x2="480" y1="400"/><line y2="360" fill="none" x1="440" clip-path="url(#clipPath34)" x2="480" y1="400"/><line y2="373.3333" fill="none" x1="453.3333" clip-path="url(#clipPath34)" x2="480" y1="400"/><line y2="386.6667" fill="none" x1="466.6667" clip-path="url(#clipPath34)" x2="480" y1="400"/><line y2="400" fill="none" x1="480" clip-path="url(#clipPath34)" x2="480" y1="400"/><line y2="240" fill="none" x1="400" clip-path="url(#clipPath15)" x2="413.3333" y1="253.3333"/><line y2="240" fill="none" x1="400" clip-path="url(#clipPath15)" x2="426.6667" y1="266.6667"/><line y2="240" fill="none" x1="400" clip-path="url(#clipPath15)" x2="440" y1="280"/><line y2="240" fill="none" x1="400" clip-path="url(#clipPath15)" x2="453.3333" y1="293.3333"/><line y2="240" fill="none" x1="400" clip-path="url(#clipPath15)" x2="466.6667" y1="306.6667"/><line y2="240" fill="none" x1="400" clip-path="url(#clipPath15)" x2="480" y1="320"/><line y2="253.3333" fill="none" x1="413.3333" clip-path="url(#clipPath15)" x2="480" y1="320"/><line y2="266.6667" fill="none" x1="426.6667" clip-path="url(#clipPath15)" x2="480" y1="320"/><line y2="280" fill="none" x1="440" clip-path="url(#clipPath15)" x2="480" y1="320"/><line y2="293.3333" fill="none" x1="453.3333" clip-path="url(#clipPath15)" x2="480" y1="320"/><line y2="306.6667" fill="none" x1="466.6667" clip-path="url(#clipPath15)" x2="480" y1="320"/><line y2="320" fill="none" x1="480" clip-path="url(#clipPath15)" x2="480" y1="320"/><line y2="320" fill="none" x1="480" clip-path="url(#clipPath35)" x2="493.3333" y1="333.3333"/><line y2="320" fill="none" x1="480" clip-path="url(#clipPath35)" x2="506.6667" y1="346.6667"/><line y2="320" fill="none" x1="480" clip-path="url(#clipPath35)" x2="520" y1="360"/><line y2="320" fill="none" x1="480" clip-path="url(#clipPath35)" x2="533.3333" y1="373.3333"/><line y2="320" fill="none" x1="480" clip-path="url(#clipPath35)" x2="546.6667" y1="386.6667"/><line y2="320" fill="none" x1="480" clip-path="url(#clipPath35)" x2="560" y1="400"/><line y2="333.3333" fill="none" x1="493.3333" clip-path="url(#clipPath35)" x2="560" y1="400"/><line y2="346.6667" fill="none" x1="506.6667" clip-path="url(#clipPath35)" x2="560" y1="400"/><line y2="360" fill="none" x1="520" clip-path="url(#clipPath35)" x2="560" y1="400"/><line y2="373.3333" fill="none" x1="533.3333" clip-path="url(#clipPath35)" x2="560" y1="400"/><line y2="386.6667" fill="none" x1="546.6667" clip-path="url(#clipPath35)" x2="560" y1="400"/><line y2="400" fill="none" x1="560" clip-path="url(#clipPath35)" x2="560" y1="400"/><line y2="240" fill="none" x1="480" clip-path="url(#clipPath36)" x2="493.3333" y1="253.3333"/><line y2="240" fill="none" x1="480" clip-path="url(#clipPath36)" x2="506.6667" y1="266.6667"/><line y2="240" fill="none" x1="480" clip-path="url(#clipPath36)" x2="520" y1="280"/><line y2="240" fill="none" x1="480" clip-path="url(#clipPath36)" x2="533.3333" y1="293.3333"/><line y2="240" fill="none" x1="480" clip-path="url(#clipPath36)" x2="546.6667" y1="306.6667"/><line y2="240" fill="none" x1="480" clip-path="url(#clipPath36)" x2="560" y1="320"/><line y2="253.3333" fill="none" x1="493.3333" clip-path="url(#clipPath36)" x2="560" y1="320"/><line y2="266.6667" fill="none" x1="506.6667" clip-path="url(#clipPath36)" x2="560" y1="320"/><line y2="280" fill="none" x1="520" clip-path="url(#clipPath36)" x2="560" y1="320"/><line y2="293.3333" fill="none" x1="533.3333" clip-path="url(#clipPath36)" x2="560" y1="320"/><line y2="306.6667" fill="none" x1="546.6667" clip-path="url(#clipPath36)" x2="560" y1="320"/><line y2="320" fill="none" x1="560" clip-path="url(#clipPath36)" x2="560" y1="320"/><line y2="160" fill="none" x1="400" clip-path="url(#clipPath19)" x2="413.3333" y1="173.3333"/><line y2="160" fill="none" x1="400" clip-path="url(#clipPath19)" x2="426.6667" y1="186.6667"/><line y2="160" fill="none" x1="400" clip-path="url(#clipPath19)" x2="440" y1="200"/><line y2="160" fill="none" x1="400" clip-path="url(#clipPath19)" x2="453.3333" y1="213.3333"/><line y2="160" fill="none" x1="400" clip-path="url(#clipPath19)" x2="466.6667" y1="226.6667"/><line y2="160" fill="none" x1="400" clip-path="url(#clipPath19)" x2="480" y1="240"/><line y2="173.3333" fill="none" x1="413.3333" clip-path="url(#clipPath19)" x2="480" y1="240"/><line y2="186.6667" fill="none" x1="426.6667" clip-path="url(#clipPath19)" x2="480" y1="240"/><line y2="200" fill="none" x1="440" clip-path="url(#clipPath19)" x2="480" y1="240"/><line y2="213.3333" fill="none" x1="453.3333" clip-path="url(#clipPath19)" x2="480" y1="240"/><line y2="226.6667" fill="none" x1="466.6667" clip-path="url(#clipPath19)" x2="480" y1="240"/><line y2="240" fill="none" x1="480" clip-path="url(#clipPath19)" x2="480" y1="240"/><line y2="320" fill="none" x1="560" clip-path="url(#clipPath37)" x2="573.3333" y1="333.3333"/><line y2="320" fill="none" x1="560" clip-path="url(#clipPath37)" x2="586.6667" y1="346.6667"/><line y2="320" fill="none" x1="560" clip-path="url(#clipPath37)" x2="600" y1="360"/><line y2="320" fill="none" x1="560" clip-path="url(#clipPath37)" x2="613.3333" y1="373.3333"/><line y2="320" fill="none" x1="560" clip-path="url(#clipPath37)" x2="626.6667" y1="386.6667"/><line y2="320" fill="none" x1="560" clip-path="url(#clipPath37)" x2="640" y1="400"/><line y2="333.3333" fill="none" x1="573.3333" clip-path="url(#clipPath37)" x2="640" y1="400"/><line y2="346.6667" fill="none" x1="586.6667" clip-path="url(#clipPath37)" x2="640" y1="400"/><line y2="360" fill="none" x1="600" clip-path="url(#clipPath37)" x2="640" y1="400"/><line y2="373.3333" fill="none" x1="613.3333" clip-path="url(#clipPath37)" x2="640" y1="400"/><line y2="386.6667" fill="none" x1="626.6667" clip-path="url(#clipPath37)" x2="640" y1="400"/><line y2="400" fill="none" x1="640" clip-path="url(#clipPath37)" x2="640" y1="400"/><line y2="240" fill="none" x1="560" clip-path="url(#clipPath38)" x2="573.3333" y1="253.3333"/><line y2="240" fill="none" x1="560" clip-path="url(#clipPath38)" x2="586.6667" y1="266.6667"/><line y2="240" fill="none" x1="560" clip-path="url(#clipPath38)" x2="600" y1="280"/><line y2="240" fill="none" x1="560" clip-path="url(#clipPath38)" x2="613.3333" y1="293.3333"/><line y2="240" fill="none" x1="560" clip-path="url(#clipPath38)" x2="626.6667" y1="306.6667"/><line y2="240" fill="none" x1="560" clip-path="url(#clipPath38)" x2="640" y1="320"/><line y2="253.3333" fill="none" x1="573.3333" clip-path="url(#clipPath38)" x2="640" y1="320"/><line y2="266.6667" fill="none" x1="586.6667" clip-path="url(#clipPath38)" x2="640" y1="320"/><line y2="280" fill="none" x1="600" clip-path="url(#clipPath38)" x2="640" y1="320"/><line y2="293.3333" fill="none" x1="613.3333" clip-path="url(#clipPath38)" x2="640" y1="320"/><line y2="306.6667" fill="none" x1="626.6667" clip-path="url(#clipPath38)" x2="640" y1="320"/><line y2="320" fill="none" x1="640" clip-path="url(#clipPath38)" x2="640" y1="320"/><line y2="160" fill="none" x1="480" clip-path="url(#clipPath20)" x2="493.3333" y1="173.3333"/><line y2="160" fill="none" x1="480" clip-path="url(#clipPath20)" x2="506.6667" y1="186.6667"/><line y2="160" fill="none" x1="480" clip-path="url(#clipPath20)" x2="520" y1="200"/><line y2="160" fill="none" x1="480" clip-path="url(#clipPath20)" x2="533.3333" y1="213.3333"/><line y2="160" fill="none" x1="480" clip-path="url(#clipPath20)" x2="546.6667" y1="226.6667"/><line y2="160" fill="none" x1="480" clip-path="url(#clipPath20)" x2="560" y1="240"/><line y2="173.3333" fill="none" x1="493.3333" clip-path="url(#clipPath20)" x2="560" y1="240"/><line y2="186.6667" fill="none" x1="506.6667" clip-path="url(#clipPath20)" x2="560" y1="240"/><line y2="200" fill="none" x1="520" clip-path="url(#clipPath20)" x2="560" y1="240"/><line y2="213.3333" fill="none" x1="533.3333" clip-path="url(#clipPath20)" x2="560" y1="240"/><line y2="226.6667" fill="none" x1="546.6667" clip-path="url(#clipPath20)" x2="560" y1="240"/><line y2="240" fill="none" x1="560" clip-path="url(#clipPath20)" x2="560" y1="240"/><line y2="240" fill="none" x1="640" clip-path="url(#clipPath39)" x2="653.3333" y1="253.3333"/><line y2="240" fill="none" x1="640" clip-path="url(#clipPath39)" x2="666.6667" y1="266.6667"/><line y2="240" fill="none" x1="640" clip-path="url(#clipPath39)" x2="680" y1="280"/><line y2="240" fill="none" x1="640" clip-path="url(#clipPath39)" x2="693.3333" y1="293.3333"/><line y2="240" fill="none" x1="640" clip-path="url(#clipPath39)" x2="706.6667" y1="306.6667"/><line y2="240" fill="none" x1="640" clip-path="url(#clipPath39)" x2="720" y1="320"/><line y2="253.3333" fill="none" x1="653.3333" clip-path="url(#clipPath39)" x2="720" y1="320"/><line y2="266.6667" fill="none" x1="666.6667" clip-path="url(#clipPath39)" x2="720" y1="320"/><line y2="280" fill="none" x1="680" clip-path="url(#clipPath39)" x2="720" y1="320"/><line y2="293.3333" fill="none" x1="693.3333" clip-path="url(#clipPath39)" x2="720" y1="320"/><line y2="306.6667" fill="none" x1="706.6667" clip-path="url(#clipPath39)" x2="720" y1="320"/><line y2="320" fill="none" x1="720" clip-path="url(#clipPath39)" x2="720" y1="320"/><line y2="160" fill="none" x1="560" clip-path="url(#clipPath23)" x2="573.3333" y1="173.3333"/><line y2="160" fill="none" x1="560" clip-path="url(#clipPath23)" x2="586.6667" y1="186.6667"/><line y2="160" fill="none" x1="560" clip-path="url(#clipPath23)" x2="600" y1="200"/><line y2="160" fill="none" x1="560" clip-path="url(#clipPath23)" x2="613.3333" y1="213.3333"/><line y2="160" fill="none" x1="560" clip-path="url(#clipPath23)" x2="626.6667" y1="226.6667"/><line y2="160" fill="none" x1="560" clip-path="url(#clipPath23)" x2="640" y1="240"/><line y2="173.3333" fill="none" x1="573.3333" clip-path="url(#clipPath23)" x2="640" y1="240"/><line y2="186.6667" fill="none" x1="586.6667" clip-path="url(#clipPath23)" x2="640" y1="240"/><line y2="200" fill="none" x1="600" clip-path="url(#clipPath23)" x2="640" y1="240"/><line y2="213.3333" fill="none" x1="613.3333" clip-path="url(#clipPath23)" x2="640" y1="240"/><line y2="226.6667" fill="none" x1="626.6667" clip-path="url(#clipPath23)" x2="640" y1="240"/><line y2="240" fill="none" x1="640" clip-path="url(#clipPath23)" x2="640" y1="240"/></g><g fill="rgb(30,144,255)" stroke="rgb(30,144,255)"><circle r="20" clip-path="url(#clipPath40)" cx="120" cy="120" stroke="none"/><circle fill="none" r="20" clip-path="url(#clipPath40)" cx="120" cy="120" stroke="black"/></g><g font-family="'Arial'" font-size="31px"><path d="M100.9531 131 L109.4844 108.8125 L112.6406 108.8125 L121.7188 131 L118.375 131 L115.7812 124.2812 L106.5156 124.2812 L104.0781 131 L100.9531 131 ZM107.3594 121.8906 L114.875 121.8906 L112.5625 115.7344 Q111.5 112.9375 110.9844 111.1406 Q110.5625 113.2812 109.7969 115.375 L107.3594 121.8906 ZM133.2236 131 L130.5049 131 L130.5049 113.6406 Q129.5205 114.5781 127.9189 115.5156 Q126.3174 116.4531 125.0518 116.9219 L125.0518 114.2812 Q127.333 113.2188 129.0439 111.6875 Q130.7549 110.1562 131.4736 108.7188 L133.2236 108.7188 L133.2236 131 Z" stroke="none" clip-path="url(#clipPath41)"/><circle fill="rgb(144,238,144)" r="20" clip-path="url(#clipPath42)" cx="600" cy="280" stroke="none"/><circle fill="none" r="20" clip-path="url(#clipPath42)" cx="600" cy="280"/><path d="M585.125 290 L585.125 269.2344 L592.9062 269.2344 Q595.2969 269.2344 596.7344 269.8672 Q598.1719 270.5 598.9844 271.8125 Q599.7969 273.125 599.7969 274.5469 Q599.7969 275.875 599.0703 277.0547 Q598.3438 278.2344 596.8906 278.9531 Q598.7812 279.5 599.7891 280.8359 Q600.7969 282.1719 600.7969 283.9844 Q600.7969 285.4375 600.1797 286.6953 Q599.5625 287.9531 598.6562 288.6328 Q597.75 289.3125 596.3828 289.6562 Q595.0156 290 593.0469 290 L585.125 290 ZM587.875 277.9688 L592.3594 277.9688 Q594.1875 277.9688 594.9844 277.7188 Q596.0312 277.4062 596.5625 276.6875 Q597.0938 275.9688 597.0938 274.875 Q597.0938 273.8438 596.5938 273.0547 Q596.0938 272.2656 595.1719 271.9766 Q594.25 271.6875 592.0156 271.6875 L587.875 271.6875 L587.875 277.9688 ZM587.875 287.5469 L593.0469 287.5469 Q594.375 287.5469 594.9062 287.4531 Q595.8594 287.2812 596.4922 286.8828 Q597.125 286.4844 597.5391 285.7266 Q597.9531 284.9688 597.9531 283.9844 Q597.9531 282.8281 597.3594 281.9688 Q596.7656 281.1094 595.7109 280.7578 Q594.6562 280.4062 592.6719 280.4062 L587.875 280.4062 L587.875 287.5469 ZM613.1396 290 L610.5928 290 L610.5928 273.7656 Q609.6709 274.6406 608.1787 275.5156 Q606.6865 276.3906 605.499 276.8281 L605.499 274.3594 Q607.6396 273.3594 609.2412 271.9297 Q610.8428 270.5 611.499 269.1562 L613.1396 269.1562 L613.1396 290 Z" clip-path="url(#clipPath43)" stroke="none"/><circle fill="rgb(30,144,255)" r="20" clip-path="url(#clipPath44)" cx="200" cy="120" stroke="none"/><circle fill="none" r="20" clip-path="url(#clipPath44)" cx="200" cy="120"/><path d="M180.9531 131 L189.4844 108.8125 L192.6406 108.8125 L201.7188 131 L198.375 131 L195.7812 124.2812 L186.5156 124.2812 L184.0781 131 L180.9531 131 ZM187.3594 121.8906 L194.875 121.8906 L192.5625 115.7344 Q191.5 112.9375 190.9844 111.1406 Q190.5625 113.2812 189.7969 115.375 L187.3594 121.8906 ZM217.2861 128.375 L217.2861 131 L202.6143 131 Q202.583 130.0156 202.9268 129.1094 Q203.4893 127.6094 204.7236 126.1562 Q205.958 124.7031 208.2861 122.7969 Q211.9111 119.8281 213.1846 118.0938 Q214.458 116.3594 214.458 114.8125 Q214.458 113.2031 213.2939 112.0859 Q212.1299 110.9688 210.2705 110.9688 Q208.3018 110.9688 207.1221 112.1484 Q205.9424 113.3281 205.9268 115.4219 L203.1299 115.1406 Q203.4111 112 205.2939 110.3594 Q207.1768 108.7188 210.333 108.7188 Q213.5361 108.7188 215.3955 110.4922 Q217.2549 112.2656 217.2549 114.875 Q217.2549 116.2188 216.708 117.5 Q216.1611 118.7812 214.8955 120.2031 Q213.6299 121.625 210.6924 124.1094 Q208.2393 126.1719 207.5439 126.9062 Q206.8486 127.6406 206.3955 128.375 L217.2861 128.375 Z" clip-path="url(#clipPath45)" stroke="none"/><circle fill="rgb(144,238,144)" r="20" clip-path="url(#clipPath46)" cx="520" cy="280" stroke="none"/><circle fill="none" r="20" clip-path="url(#clipPath46)" cx="520" cy="280"/><path d="M505.125 290 L505.125 269.2344 L512.9062 269.2344 Q515.2969 269.2344 516.7344 269.8672 Q518.1719 270.5 518.9844 271.8125 Q519.7969 273.125 519.7969 274.5469 Q519.7969 275.875 519.0703 277.0547 Q518.3438 278.2344 516.8906 278.9531 Q518.7812 279.5 519.7891 280.8359 Q520.7969 282.1719 520.7969 283.9844 Q520.7969 285.4375 520.1797 286.6953 Q519.5625 287.9531 518.6562 288.6328 Q517.75 289.3125 516.3828 289.6562 Q515.0156 290 513.0469 290 L505.125 290 ZM507.875 277.9688 L512.3594 277.9688 Q514.1875 277.9688 514.9844 277.7188 Q516.0312 277.4062 516.5625 276.6875 Q517.0938 275.9688 517.0938 274.875 Q517.0938 273.8438 516.5938 273.0547 Q516.0938 272.2656 515.1719 271.9766 Q514.25 271.6875 512.0156 271.6875 L507.875 271.6875 L507.875 277.9688 ZM507.875 287.5469 L513.0469 287.5469 Q514.375 287.5469 514.9062 287.4531 Q515.8594 287.2812 516.4922 286.8828 Q517.125 286.4844 517.5391 285.7266 Q517.9531 284.9688 517.9531 283.9844 Q517.9531 282.8281 517.3594 281.9688 Q516.7656 281.1094 515.7109 280.7578 Q514.6562 280.4062 512.6719 280.4062 L507.875 280.4062 L507.875 287.5469 ZM536.9365 287.5469 L536.9365 290 L523.2178 290 Q523.1865 289.0781 523.5146 288.2344 Q524.0459 286.8281 525.1943 285.4688 Q526.3428 284.1094 528.5303 282.3281 Q531.9209 279.5469 533.1084 277.9297 Q534.2959 276.3125 534.2959 274.8594 Q534.2959 273.3438 533.21 272.3047 Q532.124 271.2656 530.3896 271.2656 Q528.5459 271.2656 527.4443 272.3672 Q526.3428 273.4688 526.3271 275.4219 L523.7021 275.1562 Q523.9678 272.2344 525.7256 270.6953 Q527.4834 269.1562 530.4365 269.1562 Q533.4365 269.1562 535.1787 270.8125 Q536.9209 272.4688 536.9209 274.9219 Q536.9209 276.1719 536.4053 277.375 Q535.8896 278.5781 534.71 279.9062 Q533.5303 281.2344 530.7803 283.5625 Q528.4834 285.4844 527.835 286.1719 Q527.1865 286.8594 526.7646 287.5469 L536.9365 287.5469 Z" clip-path="url(#clipPath47)" stroke="none"/><circle fill="rgb(30,144,255)" r="20" clip-path="url(#clipPath48)" cx="280" cy="120" stroke="none"/><circle fill="none" r="20" clip-path="url(#clipPath48)" cx="280" cy="120"/><path d="M260.9531 131 L269.4844 108.8125 L272.6406 108.8125 L281.7188 131 L278.375 131 L275.7812 124.2812 L266.5156 124.2812 L264.0781 131 L260.9531 131 ZM267.3594 121.8906 L274.875 121.8906 L272.5625 115.7344 Q271.5 112.9375 270.9844 111.1406 Q270.5625 113.2812 269.7969 115.375 L267.3594 121.8906 ZM282.9736 125.1406 L285.708 124.7812 Q286.1768 127.0938 287.3018 128.1172 Q288.4268 129.1406 290.0518 129.1406 Q291.9736 129.1406 293.2939 127.8047 Q294.6143 126.4688 294.6143 124.5 Q294.6143 122.625 293.3877 121.4062 Q292.1611 120.1875 290.2705 120.1875 Q289.5049 120.1875 288.3486 120.5 L288.6611 118.1094 Q288.9268 118.1406 289.0986 118.1406 Q290.833 118.1406 292.2236 117.2266 Q293.6143 116.3125 293.6143 114.4219 Q293.6143 112.9219 292.6064 111.9375 Q291.5986 110.9531 289.9893 110.9531 Q288.3955 110.9531 287.3408 111.9531 Q286.2861 112.9531 285.9736 114.9531 L283.2549 114.4688 Q283.7549 111.7344 285.5205 110.2266 Q287.2861 108.7188 289.9268 108.7188 Q291.7393 108.7188 293.2705 109.5 Q294.8018 110.2812 295.6143 111.625 Q296.4268 112.9688 296.4268 114.4844 Q296.4268 115.9219 295.6533 117.1016 Q294.8799 118.2812 293.3643 118.9844 Q295.333 119.4375 296.4189 120.8672 Q297.5049 122.2969 297.5049 124.4531 Q297.5049 127.3594 295.3877 129.375 Q293.2705 131.3906 290.0361 131.3906 Q287.1143 131.3906 285.1846 129.6484 Q283.2549 127.9062 282.9736 125.1406 Z" clip-path="url(#clipPath49)" stroke="none"/><circle fill="rgb(144,238,144)" r="20" clip-path="url(#clipPath50)" cx="440" cy="280" stroke="none"/><circle fill="none" r="20" clip-path="url(#clipPath50)" cx="440" cy="280"/><path d="M425.125 290 L425.125 269.2344 L432.9062 269.2344 Q435.2969 269.2344 436.7344 269.8672 Q438.1719 270.5 438.9844 271.8125 Q439.7969 273.125 439.7969 274.5469 Q439.7969 275.875 439.0703 277.0547 Q438.3438 278.2344 436.8906 278.9531 Q438.7812 279.5 439.7891 280.8359 Q440.7969 282.1719 440.7969 283.9844 Q440.7969 285.4375 440.1797 286.6953 Q439.5625 287.9531 438.6562 288.6328 Q437.75 289.3125 436.3828 289.6562 Q435.0156 290 433.0469 290 L425.125 290 ZM427.875 277.9688 L432.3594 277.9688 Q434.1875 277.9688 434.9844 277.7188 Q436.0312 277.4062 436.5625 276.6875 Q437.0938 275.9688 437.0938 274.875 Q437.0938 273.8438 436.5938 273.0547 Q436.0938 272.2656 435.1719 271.9766 Q434.25 271.6875 432.0156 271.6875 L427.875 271.6875 L427.875 277.9688 ZM427.875 287.5469 L433.0469 287.5469 Q434.375 287.5469 434.9062 287.4531 Q435.8594 287.2812 436.4922 286.8828 Q437.125 286.4844 437.5391 285.7266 Q437.9531 284.9688 437.9531 283.9844 Q437.9531 282.8281 437.3594 281.9688 Q436.7656 281.1094 435.7109 280.7578 Q434.6562 280.4062 432.6719 280.4062 L427.875 280.4062 L427.875 287.5469 ZM443.5615 284.5156 L446.1084 284.1875 Q446.5459 286.3438 447.6006 287.3047 Q448.6553 288.2656 450.1709 288.2656 Q451.9678 288.2656 453.21 287.0156 Q454.4521 285.7656 454.4521 283.9219 Q454.4521 282.1719 453.3037 281.0312 Q452.1553 279.8906 450.3896 279.8906 Q449.6709 279.8906 448.5928 280.1719 L448.874 277.9375 Q449.124 277.9688 449.2803 277.9688 Q450.9053 277.9688 452.21 277.1172 Q453.5146 276.2656 453.5146 274.5 Q453.5146 273.0938 452.5693 272.1719 Q451.624 271.25 450.124 271.25 Q448.624 271.25 447.6396 272.1875 Q446.6553 273.125 446.3584 274.9844 L443.8115 274.5312 Q444.2803 271.9688 445.9365 270.5625 Q447.5928 269.1562 450.0615 269.1562 Q451.7646 269.1562 453.1943 269.8828 Q454.624 270.6094 455.3818 271.875 Q456.1396 273.1406 456.1396 274.5469 Q456.1396 275.8906 455.4131 277 Q454.6865 278.1094 453.2803 278.75 Q455.1084 279.1875 456.1318 280.5234 Q457.1553 281.8594 457.1553 283.875 Q457.1553 286.5938 455.1709 288.4844 Q453.1865 290.375 450.1553 290.375 Q447.4209 290.375 445.6162 288.7422 Q443.8115 287.1094 443.5615 284.5156 Z" clip-path="url(#clipPath51)" stroke="none"/><circle fill="rgb(30,144,255)" r="20" clip-path="url(#clipPath52)" cx="360" cy="120" stroke="none"/><circle fill="none" r="20" clip-path="url(#clipPath52)" cx="360" cy="120"/><path d="M340.9531 131 L349.4844 108.8125 L352.6406 108.8125 L361.7188 131 L358.375 131 L355.7812 124.2812 L346.5156 124.2812 L344.0781 131 L340.9531 131 ZM347.3594 121.8906 L354.875 121.8906 L352.5625 115.7344 Q351.5 112.9375 350.9844 111.1406 Q350.5625 113.2812 349.7969 115.375 L347.3594 121.8906 ZM371.6924 131 L371.6924 125.6875 L362.0674 125.6875 L362.0674 123.1875 L372.1924 108.8125 L374.4268 108.8125 L374.4268 123.1875 L377.4268 123.1875 L377.4268 125.6875 L374.4268 125.6875 L374.4268 131 L371.6924 131 ZM371.6924 123.1875 L371.6924 113.1875 L364.7549 123.1875 L371.6924 123.1875 Z" clip-path="url(#clipPath53)" stroke="none"/><circle fill="rgb(144,238,144)" r="20" clip-path="url(#clipPath54)" cx="360" cy="280" stroke="none"/><circle fill="none" r="20" clip-path="url(#clipPath54)" cx="360" cy="280"/><path d="M345.125 290 L345.125 269.2344 L352.9062 269.2344 Q355.2969 269.2344 356.7344 269.8672 Q358.1719 270.5 358.9844 271.8125 Q359.7969 273.125 359.7969 274.5469 Q359.7969 275.875 359.0703 277.0547 Q358.3438 278.2344 356.8906 278.9531 Q358.7812 279.5 359.7891 280.8359 Q360.7969 282.1719 360.7969 283.9844 Q360.7969 285.4375 360.1797 286.6953 Q359.5625 287.9531 358.6562 288.6328 Q357.75 289.3125 356.3828 289.6562 Q355.0156 290 353.0469 290 L345.125 290 ZM347.875 277.9688 L352.3594 277.9688 Q354.1875 277.9688 354.9844 277.7188 Q356.0312 277.4062 356.5625 276.6875 Q357.0938 275.9688 357.0938 274.875 Q357.0938 273.8438 356.5938 273.0547 Q356.0938 272.2656 355.1719 271.9766 Q354.25 271.6875 352.0156 271.6875 L347.875 271.6875 L347.875 277.9688 ZM347.875 287.5469 L353.0469 287.5469 Q354.375 287.5469 354.9062 287.4531 Q355.8594 287.2812 356.4922 286.8828 Q357.125 286.4844 357.5391 285.7266 Q357.9531 284.9688 357.9531 283.9844 Q357.9531 282.8281 357.3594 281.9688 Q356.7656 281.1094 355.7109 280.7578 Q354.6562 280.4062 352.6719 280.4062 L347.875 280.4062 L347.875 287.5469 ZM371.7178 290 L371.7178 285.0312 L362.7178 285.0312 L362.7178 282.6875 L372.1865 269.2344 L374.2646 269.2344 L374.2646 282.6875 L377.0771 282.6875 L377.0771 285.0312 L374.2646 285.0312 L374.2646 290 L371.7178 290 ZM371.7178 282.6875 L371.7178 273.3281 L365.2178 282.6875 L371.7178 282.6875 Z" clip-path="url(#clipPath55)" stroke="none"/><circle fill="rgb(30,144,255)" r="20" clip-path="url(#clipPath56)" cx="440" cy="120" stroke="none"/><circle fill="none" r="20" clip-path="url(#clipPath56)" cx="440" cy="120"/><path d="M420.9531 131 L429.4844 108.8125 L432.6406 108.8125 L441.7188 131 L438.375 131 L435.7812 124.2812 L426.5156 124.2812 L424.0781 131 L420.9531 131 ZM427.3594 121.8906 L434.875 121.8906 L432.5625 115.7344 Q431.5 112.9375 430.9844 111.1406 Q430.5625 113.2812 429.7969 115.375 L427.3594 121.8906 ZM442.958 125.1875 L445.8174 124.9375 Q446.1455 127.0312 447.3018 128.0859 Q448.458 129.1406 450.0986 129.1406 Q452.0674 129.1406 453.4268 127.6562 Q454.7861 126.1719 454.7861 123.7188 Q454.7861 121.3906 453.4736 120.0391 Q452.1611 118.6875 450.0518 118.6875 Q448.7236 118.6875 447.6689 119.2891 Q446.6143 119.8906 446.0049 120.8438 L443.4424 120.5156 L445.5986 109.1094 L456.6299 109.1094 L456.6299 111.7188 L447.7705 111.7188 L446.583 117.6719 Q448.583 116.2812 450.7705 116.2812 Q453.6768 116.2812 455.6768 118.2969 Q457.6768 120.3125 457.6768 123.4844 Q457.6768 126.4844 455.9268 128.6875 Q453.7861 131.375 450.0986 131.375 Q447.0674 131.375 445.1533 129.6797 Q443.2393 127.9844 442.958 125.1875 Z" clip-path="url(#clipPath57)" stroke="none"/><circle fill="rgb(144,238,144)" r="20" clip-path="url(#clipPath58)" cx="280" cy="280" stroke="none"/><circle fill="none" r="20" clip-path="url(#clipPath58)" cx="280" cy="280"/><path d="M265.125 290 L265.125 269.2344 L272.9062 269.2344 Q275.2969 269.2344 276.7344 269.8672 Q278.1719 270.5 278.9844 271.8125 Q279.7969 273.125 279.7969 274.5469 Q279.7969 275.875 279.0703 277.0547 Q278.3438 278.2344 276.8906 278.9531 Q278.7812 279.5 279.7891 280.8359 Q280.7969 282.1719 280.7969 283.9844 Q280.7969 285.4375 280.1797 286.6953 Q279.5625 287.9531 278.6562 288.6328 Q277.75 289.3125 276.3828 289.6562 Q275.0156 290 273.0469 290 L265.125 290 ZM267.875 277.9688 L272.3594 277.9688 Q274.1875 277.9688 274.9844 277.7188 Q276.0312 277.4062 276.5625 276.6875 Q277.0938 275.9688 277.0938 274.875 Q277.0938 273.8438 276.5938 273.0547 Q276.0938 272.2656 275.1719 271.9766 Q274.25 271.6875 272.0156 271.6875 L267.875 271.6875 L267.875 277.9688 ZM267.875 287.5469 L273.0469 287.5469 Q274.375 287.5469 274.9062 287.4531 Q275.8594 287.2812 276.4922 286.8828 Q277.125 286.4844 277.5391 285.7266 Q277.9531 284.9688 277.9531 283.9844 Q277.9531 282.8281 277.3594 281.9688 Q276.7656 281.1094 275.7109 280.7578 Q274.6562 280.4062 272.6719 280.4062 L267.875 280.4062 L267.875 287.5469 ZM283.5459 284.5625 L286.2178 284.3281 Q286.5146 286.2969 287.6006 287.2812 Q288.6865 288.2656 290.2178 288.2656 Q292.0615 288.2656 293.335 286.875 Q294.6084 285.4844 294.6084 283.1875 Q294.6084 281.0156 293.3818 279.75 Q292.1553 278.4844 290.1709 278.4844 Q288.9365 278.4844 287.9443 279.0469 Q286.9521 279.6094 286.3896 280.5 L283.999 280.1875 L286.0146 269.5312 L296.3271 269.5312 L296.3271 271.9531 L288.0459 271.9531 L286.9365 277.5312 Q288.7959 276.2344 290.8584 276.2344 Q293.5771 276.2344 295.4443 278.1172 Q297.3115 280 297.3115 282.9688 Q297.3115 285.7812 295.6709 287.8281 Q293.6709 290.3594 290.2178 290.3594 Q287.3896 290.3594 285.5928 288.7734 Q283.7959 287.1875 283.5459 284.5625 Z" clip-path="url(#clipPath59)" stroke="none"/><circle fill="rgb(30,144,255)" r="20" clip-path="url(#clipPath60)" cx="520" cy="120" stroke="none"/><circle fill="none" r="20" clip-path="url(#clipPath60)" cx="520" cy="120"/><path d="M500.9531 131 L509.4844 108.8125 L512.6406 108.8125 L521.7188 131 L518.375 131 L515.7812 124.2812 L506.5156 124.2812 L504.0781 131 L500.9531 131 ZM507.3594 121.8906 L514.875 121.8906 L512.5625 115.7344 Q511.5 112.9375 510.9844 111.1406 Q510.5625 113.2812 509.7969 115.375 L507.3594 121.8906 ZM537.0986 114.25 L534.3955 114.4531 Q534.0361 112.8438 533.3643 112.125 Q532.2549 110.9531 530.6455 110.9531 Q529.333 110.9531 528.3486 111.6875 Q527.0674 112.625 526.3252 114.4219 Q525.583 116.2188 525.5518 119.5625 Q526.5361 118.0625 527.958 117.3359 Q529.3799 116.6094 530.9424 116.6094 Q533.6611 116.6094 535.5752 118.6094 Q537.4893 120.6094 537.4893 123.7969 Q537.4893 125.8906 536.5908 127.6797 Q535.6924 129.4688 534.1221 130.4219 Q532.5518 131.375 530.5518 131.375 Q527.1455 131.375 524.9971 128.875 Q522.8486 126.375 522.8486 120.6094 Q522.8486 114.1875 525.2236 111.2656 Q527.2861 108.7188 530.8018 108.7188 Q533.4268 108.7188 535.0986 110.1875 Q536.7705 111.6562 537.0986 114.25 ZM525.9736 123.8125 Q525.9736 125.2188 526.5752 126.5078 Q527.1768 127.7969 528.2471 128.4688 Q529.3174 129.1406 530.5049 129.1406 Q532.2236 129.1406 533.4658 127.75 Q534.708 126.3594 534.708 123.9688 Q534.708 121.6562 533.4814 120.3359 Q532.2549 119.0156 530.3955 119.0156 Q528.5518 119.0156 527.2627 120.3359 Q525.9736 121.6562 525.9736 123.8125 Z" clip-path="url(#clipPath61)" stroke="none"/><circle fill="rgb(144,238,144)" r="20" clip-path="url(#clipPath62)" cx="200" cy="280" stroke="none"/><circle fill="none" r="20" clip-path="url(#clipPath62)" cx="200" cy="280"/><path d="M185.125 290 L185.125 269.2344 L192.9062 269.2344 Q195.2969 269.2344 196.7344 269.8672 Q198.1719 270.5 198.9844 271.8125 Q199.7969 273.125 199.7969 274.5469 Q199.7969 275.875 199.0703 277.0547 Q198.3438 278.2344 196.8906 278.9531 Q198.7812 279.5 199.7891 280.8359 Q200.7969 282.1719 200.7969 283.9844 Q200.7969 285.4375 200.1797 286.6953 Q199.5625 287.9531 198.6562 288.6328 Q197.75 289.3125 196.3828 289.6562 Q195.0156 290 193.0469 290 L185.125 290 ZM187.875 277.9688 L192.3594 277.9688 Q194.1875 277.9688 194.9844 277.7188 Q196.0312 277.4062 196.5625 276.6875 Q197.0938 275.9688 197.0938 274.875 Q197.0938 273.8438 196.5938 273.0547 Q196.0938 272.2656 195.1719 271.9766 Q194.25 271.6875 192.0156 271.6875 L187.875 271.6875 L187.875 277.9688 ZM187.875 287.5469 L193.0469 287.5469 Q194.375 287.5469 194.9062 287.4531 Q195.8594 287.2812 196.4922 286.8828 Q197.125 286.4844 197.5391 285.7266 Q197.9531 284.9688 197.9531 283.9844 Q197.9531 282.8281 197.3594 281.9688 Q196.7656 281.1094 195.7109 280.7578 Q194.6562 280.4062 192.6719 280.4062 L187.875 280.4062 L187.875 287.5469 ZM216.7646 274.3281 L214.2334 274.5156 Q213.9053 273.0156 213.2803 272.3438 Q212.2334 271.25 210.7334 271.25 Q209.5146 271.25 208.5928 271.9375 Q207.3896 272.8125 206.6943 274.4922 Q205.999 276.1719 205.9678 279.2969 Q206.8896 277.8906 208.2178 277.2109 Q209.5459 276.5312 211.0146 276.5312 Q213.5615 276.5312 215.3506 278.4062 Q217.1396 280.2812 217.1396 283.2656 Q217.1396 285.2188 216.2959 286.8906 Q215.4521 288.5625 213.9834 289.4609 Q212.5146 290.3594 210.6396 290.3594 Q207.4521 290.3594 205.4443 288.0156 Q203.4365 285.6719 203.4365 280.2812 Q203.4365 274.2656 205.6553 271.5312 Q207.5928 269.1562 210.874 269.1562 Q213.3271 269.1562 214.8975 270.5312 Q216.4678 271.9062 216.7646 274.3281 ZM206.3584 283.2812 Q206.3584 284.5938 206.9209 285.7969 Q207.4834 287 208.4912 287.6328 Q209.499 288.2656 210.5928 288.2656 Q212.2178 288.2656 213.374 286.9609 Q214.5303 285.6562 214.5303 283.4219 Q214.5303 281.2656 213.3818 280.0234 Q212.2334 278.7812 210.499 278.7812 Q208.7646 278.7812 207.5615 280.0234 Q206.3584 281.2656 206.3584 283.2812 Z" clip-path="url(#clipPath63)" stroke="none"/><circle fill="rgb(30,144,255)" r="20" clip-path="url(#clipPath64)" cx="600" cy="120" stroke="none"/><circle fill="none" r="20" clip-path="url(#clipPath64)" cx="600" cy="120"/><path d="M580.9531 131 L589.4844 108.8125 L592.6406 108.8125 L601.7188 131 L598.375 131 L595.7812 124.2812 L586.5156 124.2812 L584.0781 131 L580.9531 131 ZM587.3594 121.8906 L594.875 121.8906 L592.5625 115.7344 Q591.5 112.9375 590.9844 111.1406 Q590.5625 113.2812 589.7969 115.375 L587.3594 121.8906 ZM603.1455 111.7188 L603.1455 109.0938 L617.5049 109.0938 L617.5049 111.2188 Q615.3955 113.4688 613.3096 117.2109 Q611.2236 120.9531 610.0986 124.9062 Q609.2705 127.6875 609.0518 131 L606.2549 131 Q606.2861 128.375 607.2705 124.6719 Q608.2549 120.9688 610.0986 117.5234 Q611.9424 114.0781 614.0205 111.7188 L603.1455 111.7188 Z" clip-path="url(#clipPath65)" stroke="none"/><circle fill="rgb(144,238,144)" r="20" clip-path="url(#clipPath66)" cx="120" cy="280" stroke="none"/><circle fill="none" r="20" clip-path="url(#clipPath66)" cx="120" cy="280"/><path d="M105.125 290 L105.125 269.2344 L112.9062 269.2344 Q115.2969 269.2344 116.7344 269.8672 Q118.1719 270.5 118.9844 271.8125 Q119.7969 273.125 119.7969 274.5469 Q119.7969 275.875 119.0703 277.0547 Q118.3438 278.2344 116.8906 278.9531 Q118.7812 279.5 119.7891 280.8359 Q120.7969 282.1719 120.7969 283.9844 Q120.7969 285.4375 120.1797 286.6953 Q119.5625 287.9531 118.6562 288.6328 Q117.75 289.3125 116.3828 289.6562 Q115.0156 290 113.0469 290 L105.125 290 ZM107.875 277.9688 L112.3594 277.9688 Q114.1875 277.9688 114.9844 277.7188 Q116.0312 277.4062 116.5625 276.6875 Q117.0938 275.9688 117.0938 274.875 Q117.0938 273.8438 116.5938 273.0547 Q116.0938 272.2656 115.1719 271.9766 Q114.25 271.6875 112.0156 271.6875 L107.875 271.6875 L107.875 277.9688 ZM107.875 287.5469 L113.0469 287.5469 Q114.375 287.5469 114.9062 287.4531 Q115.8594 287.2812 116.4922 286.8828 Q117.125 286.4844 117.5391 285.7266 Q117.9531 284.9688 117.9531 283.9844 Q117.9531 282.8281 117.3594 281.9688 Q116.7656 281.1094 115.7109 280.7578 Q114.6562 280.4062 112.6719 280.4062 L107.875 280.4062 L107.875 287.5469 ZM123.7178 271.9531 L123.7178 269.5156 L137.1553 269.5156 L137.1553 271.5 Q135.1709 273.6094 133.2256 277.1016 Q131.2803 280.5938 130.2178 284.2969 Q129.4521 286.9062 129.2334 290 L126.624 290 Q126.6553 287.5469 127.5771 284.0781 Q128.499 280.6094 130.2178 277.3906 Q131.9365 274.1719 133.8896 271.9531 L123.7178 271.9531 Z" clip-path="url(#clipPath67)" stroke="none"/></g></g></svg>