<?xml version="1.0" encoding="UTF-8"?><svg xmlns="http://www.w3.org/2000/svg" xmlns:xlink="http://www.w3.org/1999/xlink" stroke-dasharray="none" shape-rendering="auto" font-family="'Dialog'" width="561" text-rendering="auto" fill-opacity="1" contentScriptType="text/ecmascript" color-interpolation="auto" color-rendering="auto" preserveAspectRatio="xMidYMid meet" font-size="12px" fill="black" stroke="black" image-rendering="auto" stroke-miterlimit="10" zoomAndPan="magnify" version="1.0" stroke-linecap="square" stroke-linejoin="miter" contentStyleType="text/css" font-style="normal" height="561" stroke-width="1" stroke-dashoffset="0" font-weight="normal" stroke-opacity="1"><!--Generated by the Batik Graphics2D SVG Generator--><defs id="genericDefs"/><g><defs id="defs1"><clipPath clipPathUnits="userSpaceOnUse" id="clipPath1"><path d="M3 3 L45 3 L45 45 L3 45 L3 3 Z"/></clipPath><clipPath clipPathUnits="userSpaceOnUse" id="clipPath2"><path d="M44 24 C44 35.0457 35.0457 44 24 44 C12.9543 44 4 35.0457 4 24 C4 12.9543 12.9543 4 24 4 C35.0457 4 44 12.9543 44 24 Z"/></clipPath><clipPath clipPathUnits="userSpaceOnUse" id="clipPath3"><path d="M483 483 L525 483 L525 525 L483 525 L483 483 Z"/></clipPath><clipPath clipPathUnits="userSpaceOnUse" id="clipPath4"><path d="M524 504 C524 515.0457 515.0457 524 504 524 C492.9543 524 484 515.0457 484 504 C484 492.9543 492.9543 484 504 484 C515.0457 484 524 492.9543 524 504 Z"/></clipPath><clipPath clipPathUnits="userSpaceOnUse" id="clipPath5"><path d="M483 3 L525 3 L525 45 L483 45 L483 3 Z"/></clipPath><clipPath clipPathUnits="userSpaceOnUse" id="clipPath6"><path d="M524 24 C524 35.0457 515.0457 44 504 44 C492.9543 44 484 35.0457 484 24 C484 12.9543 492.9543 4 504 4 C515.0457 4 524 12.9543 524 24 Z"/></clipPath><clipPath clipPathUnits="userSpaceOnUse" id="clipPath7"><path d="M3 483 L45 483 L45 525 L3 525 L3 483 Z"/></clipPath><clipPath clipPathUnits="userSpaceOnUse" id="clipPath8"><path d="M44 504 C44 515.0457 35.0457 524 24 524 C12.9543 524 4 515.0457 4 504 C4 492.9543 12.9543 484 24 484 C35.0457 484 44 492.9543 44 504 Z"/></clipPath><clipPath clipPathUnits="userSpaceOnUse" id="clipPath9"><path d="M3 243 L45 243 L45 285 L3 285 L3 243 Z"/></clipPath><clipPath clipPathUnits="userSpaceOnUse" id="clipPath10"><path d="M44 264 C44 275.0457 35.0457 284 24 284 C12.9543 284 4 275.0457 4 264 C4 252.9543 12.9543 244 24 244 C35.0457 244 44 252.9543 44 264 Z"/></clipPath><clipPath clipPathUnits="userSpaceOnUse" id="clipPath11"><path d="M483 243 L525 243 L525 285 L483 285 L483 243 Z"/></clipPath><clipPath clipPathUnits="userSpaceOnUse" id="clipPath12"><path d="M524 264 C524 275.0457 515.0457 284 504 284 C492.9543 284 484 275.0457 484 264 C484 252.9543 492.9543 244 504 244 C515.0457 244 524 252.9543 524 264 Z"/></clipPath><clipPath clipPathUnits="userSpaceOnUse" id="clipPath13"><path d="M259 19 L301 19 L301 61 L259 61 L259 19 Z"/></clipPath><clipPath clipPathUnits="userSpaceOnUse" id="clipPath14"><path d="M300 40 C300 51.0457 291.0457 60 280 60 C268.9543 60 260 51.0457 260 40 C260 28.9543 268.9543 20 280 20 C291.0457 20 300 28.9543 300 40 Z"/></clipPath><clipPath clipPathUnits="userSpaceOnUse" id="clipPath15"><path d="M515 515 L557 515 L557 557 L515 557 L515 515 Z"/></clipPath><clipPath clipPathUnits="userSpaceOnUse" id="clipPath16"><path d="M556 536 C556 547.0457 547.0457 556 536 556 C524.9543 556 516 547.0457 516 536 C516 524.9543 524.9543 516 536 516 C547.0457 516 556 524.9543 556 536 Z"/></clipPath><clipPath clipPathUnits="userSpaceOnUse" id="clipPath17"><path d="M35 35 L77 35 L77 77 L35 77 L35 35 Z"/></clipPath><clipPath clipPathUnits="userSpaceOnUse" id="clipPath18"><path d="M76 56 C76 67.0457 67.0457 76 56 76 C44.9543 76 36 67.0457 36 56 C36 44.9543 44.9543 36 56 36 C67.0457 36 76 44.9543 76 56 Z"/></clipPath><clipPath clipPathUnits="userSpaceOnUse" id="clipPath19"><path d="M35 515 L77 515 L77 557 L35 557 L35 515 Z"/></clipPath><clipPath clipPathUnits="userSpaceOnUse" id="clipPath20"><path d="M76 536 C76 547.0457 67.0457 556 56 556 C44.9543 556 36 547.0457 36 536 C36 524.9543 44.9543 516 56 516 C67.0457 516 76 524.9543 76 536 Z"/></clipPath><clipPath clipPathUnits="userSpaceOnUse" id="clipPath21"><path d="M515 35 L557 35 L557 77 L515 77 L515 35 Z"/></clipPath><clipPath clipPathUnits="userSpaceOnUse" id="clipPath22"><path d="M556 56 C556 67.0457 547.0457 76 536 76 C524.9543 76 516 67.0457 516 56 C516 44.9543 524.9543 36 536 36 C547.0457 36 556 44.9543 556 56 Z"/></clipPath><clipPath clipPathUnits="userSpaceOnUse" id="clipPath23"><path d="M515 275 L557 275 L557 317 L515 317 L515 275 Z"/></clipPath><clipPath clipPathUnits="userSpaceOnUse" id="clipPath24"><path d="M556 296 C556 307.0457 547.0457 316 536 316 C524.9543 316 516 307.0457 516 296 C516 284.9543 524.9543 276 536 276 C547.0457 276 556 284.9543 556 296 Z"/></clipPath><clipPath clipPathUnits="userSpaceOnUse" id="clipPath25"><path d="M35 275 L77 275 L77 317 L35 317 L35 275 Z"/></clipPath><clipPath clipPathUnits="userSpaceOnUse" id="clipPath26"><path d="M76 296 C76 307.0457 67.0457 316 56 316 C44.9543 316 36 307.0457 36 296 C36 284.9543 44.9543 276 56 276 C67.0457 276 76 284.9543 76 296 Z"/></clipPath><clipPath clipPathUnits="userSpaceOnUse" id="clipPath27"><path d="M259 499 L301 499 L301 541 L259 541 L259 499 Z"/></clipPath><clipPath clipPathUnits="userSpaceOnUse" id="clipPath28"><path d="M300 520 C300 531.0457 291.0457 540 280 540 C268.9543 540 260 531.0457 260 520 C260 508.9543 268.9543 500 280 500 C291.0457 500 300 508.9543 300 520 Z"/></clipPath></defs><g><line y2="0" fill="none" x1="0" x2="560" y1="0"/><line y2="80" fill="none" x1="0" x2="560" y1="80"/><line y2="160" fill="none" x1="0" x2="560" y1="160"/><line y2="240" fill="none" x1="0" x2="560" y1="240"/><line y2="320" fill="none" x1="0" x2="560" y1="320"/><line y2="400" fill="none" x1="0" x2="560" y1="400"/><line y2="480" fill="none" x1="0" x2="560" y1="480"/><line y2="560" fill="none" x1="0" x2="560" y1="560"/><line y2="560" fill="none" x1="0" x2="0" y1="0"/><line y2="560" fill="none" x1="80" x2="80" y1="0"/><line y2="560" fill="none" x1="160" x2="160" y1="0"/><line y2="560" fill="none" x1="240" x2="240" y1="0"/><line y2="560" fill="none" x1="320" x2="320" y1="0"/><line y2="560" fill="none" x1="400" x2="400" y1="0"/><line y2="560" fill="none" x1="480" x2="480" y1="0"/><line y2="560" fill="none" x1="560" x2="560" y1="0"/><circle fill="rgb(30,144,255)" r="20" clip-path="url(#clipPath1)" cx="24" cy="24" stroke="none"/><circle fill="none" r="20" clip-path="url(#clipPath1)" cx="24" cy="24"/><path d="M4.9531 35 L13.4844 12.8125 L16.6406 12.8125 L25.7188 35 L22.375 35 L19.7812 28.2812 L10.5156 28.2812 L8.0781 35 L4.9531 35 ZM11.3594 25.8906 L18.875 25.8906 L16.5625 19.7344 Q15.5 16.9375 14.9844 15.1406 Q14.5625 17.2812 13.7969 19.375 L11.3594 25.8906 ZM37.2236 35 L34.5049 35 L34.5049 17.6406 Q33.5205 18.5781 31.9189 19.5156 Q30.3174 20.4531 29.0518 20.9219 L29.0518 18.2812 Q31.333 17.2188 33.0439 15.6875 Q34.7549 14.1562 35.4736 12.7188 L37.2236 12.7188 L37.2236 35 Z" stroke="none" clip-path="url(#clipPath2)"/></g><g fill="rgb(144,238,144)" font-size="31px" font-family="'Arial'" stroke="rgb(144,238,144)"><circle r="20" clip-path="url(#clipPath3)" cx="504" cy="504" stroke="none"/><circle fill="none" r="20" clip-path="url(#clipPath3)" cx="504" cy="504" stroke="black"/><path fill="black" d="M489.125 514 L489.125 493.2344 L496.9062 493.2344 Q499.2969 493.2344 500.7344 493.8672 Q502.1719 494.5 502.9844 495.8125 Q503.7969 497.125 503.7969 498.5469 Q503.7969 499.875 503.0703 501.0547 Q502.3438 502.2344 500.8906 502.9531 Q502.7812 503.5 503.7891 504.8359 Q504.7969 506.1719 504.7969 507.9844 Q504.7969 509.4375 504.1797 510.6953 Q503.5625 511.9531 502.6562 512.6328 Q501.75 513.3125 500.3828 513.6562 Q499.0156 514 497.0469 514 L489.125 514 ZM491.875 501.9688 L496.3594 501.9688 Q498.1875 501.9688 498.9844 501.7188 Q500.0312 501.4062 500.5625 500.6875 Q501.0938 499.9688 501.0938 498.875 Q501.0938 497.8438 500.5938 497.0547 Q500.0938 496.2656 499.1719 495.9766 Q498.25 495.6875 496.0156 495.6875 L491.875 495.6875 L491.875 501.9688 ZM491.875 511.5469 L497.0469 511.5469 Q498.375 511.5469 498.9062 511.4531 Q499.8594 511.2812 500.4922 510.8828 Q501.125 510.4844 501.5391 509.7266 Q501.9531 508.9688 501.9531 507.9844 Q501.9531 506.8281 501.3594 505.9688 Q500.7656 505.1094 499.7109 504.7578 Q498.6562 504.4062 496.6719 504.4062 L491.875 504.4062 L491.875 511.5469 ZM517.1396 514 L514.5928 514 L514.5928 497.7656 Q513.6709 498.6406 512.1787 499.5156 Q510.6865 500.3906 509.499 500.8281 L509.499 498.3594 Q511.6396 497.3594 513.2412 495.9297 Q514.8428 494.5 515.499 493.1562 L517.1396 493.1562 L517.1396 514 Z" clip-path="url(#clipPath4)" stroke="none"/><circle fill="rgb(250,128,114)" r="20" clip-path="url(#clipPath5)" cx="504" cy="24" stroke="none"/><circle fill="none" r="20" clip-path="url(#clipPath5)" cx="504" cy="24" stroke="black"/><path fill="black" d="M503.0469 26.7188 L505.7969 27.4219 Q504.9375 30.7969 502.6875 32.5781 Q500.4375 34.3594 497.2031 34.3594 Q493.8438 34.3594 491.7422 32.9922 Q489.6406 31.625 488.5391 29.0312 Q487.4375 26.4375 487.4375 23.4688 Q487.4375 20.2188 488.6797 17.8047 Q489.9219 15.3906 492.2109 14.1406 Q494.5 12.8906 497.25 12.8906 Q500.3594 12.8906 502.4844 14.4766 Q504.6094 16.0625 505.4375 18.9375 L502.7344 19.5781 Q502.0156 17.3125 500.6406 16.2734 Q499.2656 15.2344 497.1875 15.2344 Q494.7969 15.2344 493.1875 16.3828 Q491.5781 17.5312 490.9297 19.4609 Q490.2812 21.3906 490.2812 23.4531 Q490.2812 26.0938 491.0469 28.0703 Q491.8125 30.0469 493.4453 31.0234 Q495.0781 32 496.9688 32 Q499.2812 32 500.8828 30.6719 Q502.4844 29.3438 503.0469 26.7188 ZM517.7397 34 L515.1929 34 L515.1929 17.7656 Q514.271 18.6406 512.7788 19.5156 Q511.2866 20.3906 510.0991 20.8281 L510.0991 18.3594 Q512.2397 17.3594 513.8413 15.9297 Q515.4429 14.5 516.0991 13.1562 L517.7397 13.1562 L517.7397 34 Z" clip-path="url(#clipPath6)" stroke="none"/><circle fill="rgb(165,42,42)" r="20" clip-path="url(#clipPath7)" cx="24" cy="504" stroke="none"/><circle fill="none" r="20" clip-path="url(#clipPath7)" cx="24" cy="504" stroke="black"/><path fill="black" d="M8.2344 514 L8.2344 493.2344 L15.3906 493.2344 Q17.8125 493.2344 19.0781 493.5312 Q20.875 493.9531 22.125 495.0312 Q23.7656 496.4062 24.5859 498.5703 Q25.4062 500.7344 25.4062 503.5 Q25.4062 505.875 24.8516 507.7031 Q24.2969 509.5312 23.4297 510.7266 Q22.5625 511.9219 21.5391 512.6094 Q20.5156 513.2969 19.0625 513.6484 Q17.6094 514 15.7344 514 L8.2344 514 ZM10.9844 511.5469 L15.4219 511.5469 Q17.4688 511.5469 18.6406 511.1641 Q19.8125 510.7812 20.5 510.0938 Q21.4844 509.1094 22.0234 507.4609 Q22.5625 505.8125 22.5625 503.4688 Q22.5625 500.2031 21.4922 498.4531 Q20.4219 496.7031 18.9062 496.1094 Q17.7969 495.6875 15.3438 495.6875 L10.9844 495.6875 L10.9844 511.5469 ZM37.7397 514 L35.1929 514 L35.1929 497.7656 Q34.271 498.6406 32.7788 499.5156 Q31.2866 500.3906 30.0991 500.8281 L30.0991 498.3594 Q32.2397 497.3594 33.8413 495.9297 Q35.4429 494.5 36.0991 493.1562 L37.7397 493.1562 L37.7397 514 Z" clip-path="url(#clipPath8)" stroke="none"/><circle fill="yellow" r="20" clip-path="url(#clipPath9)" cx="24" cy="264" stroke="none"/><circle fill="none" r="20" clip-path="url(#clipPath9)" cx="24" cy="264" stroke="black"/><path fill="black" d="M9.2969 274 L9.2969 253.2344 L24.2969 253.2344 L24.2969 255.6875 L12.0469 255.6875 L12.0469 262.0469 L23.5312 262.0469 L23.5312 264.4844 L12.0469 264.4844 L12.0469 271.5469 L24.7812 271.5469 L24.7812 274 L9.2969 274 ZM37.1396 274 L34.5928 274 L34.5928 257.7656 Q33.6709 258.6406 32.1787 259.5156 Q30.6865 260.3906 29.499 260.8281 L29.499 258.3594 Q31.6396 257.3594 33.2412 255.9297 Q34.8428 254.5 35.499 253.1562 L37.1396 253.1562 L37.1396 274 Z" clip-path="url(#clipPath10)" stroke="none"/><circle fill="rgb(238,130,238)" r="20" clip-path="url(#clipPath11)" cx="504" cy="264" stroke="none"/><circle fill="none" r="20" clip-path="url(#clipPath11)" cx="504" cy="264" stroke="black"/><path fill="black" d="M488.5469 275 L488.5469 252.8125 L503.5156 252.8125 L503.5156 255.4219 L491.4844 255.4219 L491.4844 262.2969 L501.8906 262.2969 L501.8906 264.9219 L491.4844 264.9219 L491.4844 275 L488.5469 275 ZM516.4829 275 L513.7642 275 L513.7642 257.6406 Q512.7798 258.5781 511.1782 259.5156 Q509.5767 260.4531 508.311 260.9219 L508.311 258.2812 Q510.5923 257.2188 512.3032 255.6875 Q514.0142 254.1562 514.7329 252.7188 L516.4829 252.7188 L516.4829 275 Z" clip-path="url(#clipPath12)" stroke="none"/><circle fill="purple" r="20" clip-path="url(#clipPath13)" cx="280" cy="40" stroke="none"/><circle fill="none" r="20" clip-path="url(#clipPath13)" cx="280" cy="40" stroke="black"/><path fill="black" d="M273.125 41.4219 L273.125 39.1562 L281.3125 39.1406 L281.3125 46.3125 Q279.4219 47.8125 277.4219 48.5703 Q275.4219 49.3281 273.3125 49.3281 Q270.4688 49.3281 268.1406 48.1094 Q265.8125 46.8906 264.625 44.5859 Q263.4375 42.2812 263.4375 39.4219 Q263.4375 36.6094 264.6172 34.1641 Q265.7969 31.7188 268.0156 30.5312 Q270.2344 29.3438 273.1094 29.3438 Q275.2031 29.3438 276.8984 30.0234 Q278.5938 30.7031 279.5547 31.9141 Q280.5156 33.125 281.0312 35.0781 L278.7188 35.7031 Q278.2812 34.2344 277.6328 33.3906 Q276.9844 32.5469 275.7891 32.0391 Q274.5938 31.5312 273.125 31.5312 Q271.375 31.5312 270.0938 32.0625 Q268.8125 32.5938 268.0312 33.4688 Q267.25 34.3438 266.8125 35.375 Q266.0781 37.1719 266.0781 39.2656 Q266.0781 41.8594 266.9688 43.5938 Q267.8594 45.3281 269.5547 46.1719 Q271.25 47.0156 273.1719 47.0156 Q274.8281 47.0156 276.4062 46.3828 Q277.9844 45.75 278.8125 45.0156 L278.8125 41.4219 L273.125 41.4219 ZM293.064 49 L290.689 49 L290.689 33.875 Q289.8296 34.7031 288.439 35.5156 Q287.0483 36.3281 285.939 36.7344 L285.939 34.4375 Q287.939 33.5156 289.4233 32.1797 Q290.9077 30.8438 291.5327 29.5938 L293.064 29.5938 L293.064 49 Z" clip-path="url(#clipPath14)" stroke="none"/><circle fill="rgb(30,144,255)" r="20" clip-path="url(#clipPath15)" cx="536" cy="536" stroke="none"/><circle fill="none" r="20" clip-path="url(#clipPath15)" cx="536" cy="536" stroke="black"/><path fill="black" d="M516.9531 547 L525.4844 524.8125 L528.6406 524.8125 L537.7188 547 L534.375 547 L531.7812 540.2812 L522.5156 540.2812 L520.0781 547 L516.9531 547 ZM523.3594 537.8906 L530.875 537.8906 L528.5625 531.7344 Q527.5 528.9375 526.9844 527.1406 Q526.5625 529.2812 525.7969 531.375 L523.3594 537.8906 ZM553.2861 544.375 L553.2861 547 L538.6143 547 Q538.583 546.0156 538.9268 545.1094 Q539.4893 543.6094 540.7236 542.1562 Q541.958 540.7031 544.2861 538.7969 Q547.9111 535.8281 549.1846 534.0938 Q550.458 532.3594 550.458 530.8125 Q550.458 529.2031 549.2939 528.0859 Q548.1299 526.9688 546.2705 526.9688 Q544.3018 526.9688 543.1221 528.1484 Q541.9424 529.3281 541.9268 531.4219 L539.1299 531.1406 Q539.4111 528 541.2939 526.3594 Q543.1768 524.7188 546.333 524.7188 Q549.5361 524.7188 551.3955 526.4922 Q553.2549 528.2656 553.2549 530.875 Q553.2549 532.2188 552.708 533.5 Q552.1611 534.7812 550.8955 536.2031 Q549.6299 537.625 546.6924 540.1094 Q544.2393 542.1719 543.5439 542.9062 Q542.8486 543.6406 542.3955 544.375 L553.2861 544.375 Z" clip-path="url(#clipPath16)" stroke="none"/><circle r="20" clip-path="url(#clipPath17)" cx="56" cy="56" stroke="none"/><circle fill="none" r="20" clip-path="url(#clipPath17)" cx="56" cy="56" stroke="black"/><path fill="black" d="M41.125 66 L41.125 45.2344 L48.9062 45.2344 Q51.2969 45.2344 52.7344 45.8672 Q54.1719 46.5 54.9844 47.8125 Q55.7969 49.125 55.7969 50.5469 Q55.7969 51.875 55.0703 53.0547 Q54.3438 54.2344 52.8906 54.9531 Q54.7812 55.5 55.7891 56.8359 Q56.7969 58.1719 56.7969 59.9844 Q56.7969 61.4375 56.1797 62.6953 Q55.5625 63.9531 54.6562 64.6328 Q53.75 65.3125 52.3828 65.6562 Q51.0156 66 49.0469 66 L41.125 66 ZM43.875 53.9688 L48.3594 53.9688 Q50.1875 53.9688 50.9844 53.7188 Q52.0312 53.4062 52.5625 52.6875 Q53.0938 51.9688 53.0938 50.875 Q53.0938 49.8438 52.5938 49.0547 Q52.0938 48.2656 51.1719 47.9766 Q50.25 47.6875 48.0156 47.6875 L43.875 47.6875 L43.875 53.9688 ZM43.875 63.5469 L49.0469 63.5469 Q50.375 63.5469 50.9062 63.4531 Q51.8594 63.2812 52.4922 62.8828 Q53.125 62.4844 53.5391 61.7266 Q53.9531 60.9688 53.9531 59.9844 Q53.9531 58.8281 53.3594 57.9688 Q52.7656 57.1094 51.7109 56.7578 Q50.6562 56.4062 48.6719 56.4062 L43.875 56.4062 L43.875 63.5469 ZM72.9365 63.5469 L72.9365 66 L59.2178 66 Q59.1865 65.0781 59.5146 64.2344 Q60.0459 62.8281 61.1943 61.4688 Q62.3428 60.1094 64.5303 58.3281 Q67.9209 55.5469 69.1084 53.9297 Q70.2959 52.3125 70.2959 50.8594 Q70.2959 49.3438 69.21 48.3047 Q68.124 47.2656 66.3896 47.2656 Q64.5459 47.2656 63.4443 48.3672 Q62.3428 49.4688 62.3271 51.4219 L59.7021 51.1562 Q59.9678 48.2344 61.7256 46.6953 Q63.4834 45.1562 66.4365 45.1562 Q69.4365 45.1562 71.1787 46.8125 Q72.9209 48.4688 72.9209 50.9219 Q72.9209 52.1719 72.4053 53.375 Q71.8896 54.5781 70.71 55.9062 Q69.5303 57.2344 66.7803 59.5625 Q64.4834 61.4844 63.835 62.1719 Q63.1865 62.8594 62.7646 63.5469 L72.9365 63.5469 Z" clip-path="url(#clipPath18)" stroke="none"/><circle fill="rgb(250,128,114)" r="20" clip-path="url(#clipPath19)" cx="56" cy="536" stroke="none"/><circle fill="none" r="20" clip-path="url(#clipPath19)" cx="56" cy="536" stroke="black"/><path fill="black" d="M55.0469 538.7188 L57.7969 539.4219 Q56.9375 542.7969 54.6875 544.5781 Q52.4375 546.3594 49.2031 546.3594 Q45.8438 546.3594 43.7422 544.9922 Q41.6406 543.625 40.5391 541.0312 Q39.4375 538.4375 39.4375 535.4688 Q39.4375 532.2188 40.6797 529.8047 Q41.9219 527.3906 44.2109 526.1406 Q46.5 524.8906 49.25 524.8906 Q52.3594 524.8906 54.4844 526.4766 Q56.6094 528.0625 57.4375 530.9375 L54.7344 531.5781 Q54.0156 529.3125 52.6406 528.2734 Q51.2656 527.2344 49.1875 527.2344 Q46.7969 527.2344 45.1875 528.3828 Q43.5781 529.5312 42.9297 531.4609 Q42.2812 533.3906 42.2812 535.4531 Q42.2812 538.0938 43.0469 540.0703 Q43.8125 542.0469 45.4453 543.0234 Q47.0781 544 48.9688 544 Q51.2812 544 52.8828 542.6719 Q54.4844 541.3438 55.0469 538.7188 ZM73.5366 543.5469 L73.5366 546 L59.8179 546 Q59.7866 545.0781 60.1147 544.2344 Q60.646 542.8281 61.7944 541.4688 Q62.9429 540.1094 65.1304 538.3281 Q68.521 535.5469 69.7085 533.9297 Q70.896 532.3125 70.896 530.8594 Q70.896 529.3438 69.8101 528.3047 Q68.7241 527.2656 66.9897 527.2656 Q65.146 527.2656 64.0444 528.3672 Q62.9429 529.4688 62.9272 531.4219 L60.3022 531.1562 Q60.5679 528.2344 62.3257 526.6953 Q64.0835 525.1562 67.0366 525.1562 Q70.0366 525.1562 71.7788 526.8125 Q73.521 528.4688 73.521 530.9219 Q73.521 532.1719 73.0054 533.375 Q72.4897 534.5781 71.3101 535.9062 Q70.1304 537.2344 67.3804 539.5625 Q65.0835 541.4844 64.4351 542.1719 Q63.7866 542.8594 63.3647 543.5469 L73.5366 543.5469 Z" clip-path="url(#clipPath20)" stroke="none"/><circle fill="rgb(165,42,42)" r="20" clip-path="url(#clipPath21)" cx="536" cy="56" stroke="none"/><circle fill="none" r="20" clip-path="url(#clipPath21)" cx="536" cy="56" stroke="black"/><path fill="black" d="M520.2344 66 L520.2344 45.2344 L527.3906 45.2344 Q529.8125 45.2344 531.0781 45.5312 Q532.875 45.9531 534.125 47.0312 Q535.7656 48.4062 536.5859 50.5703 Q537.4062 52.7344 537.4062 55.5 Q537.4062 57.875 536.8516 59.7031 Q536.2969 61.5312 535.4297 62.7266 Q534.5625 63.9219 533.5391 64.6094 Q532.5156 65.2969 531.0625 65.6484 Q529.6094 66 527.7344 66 L520.2344 66 ZM522.9844 63.5469 L527.4219 63.5469 Q529.4688 63.5469 530.6406 63.1641 Q531.8125 62.7812 532.5 62.0938 Q533.4844 61.1094 534.0234 59.4609 Q534.5625 57.8125 534.5625 55.4688 Q534.5625 52.2031 533.4922 50.4531 Q532.4219 48.7031 530.9062 48.1094 Q529.7969 47.6875 527.3438 47.6875 L522.9844 47.6875 L522.9844 63.5469 ZM553.5366 63.5469 L553.5366 66 L539.8179 66 Q539.7866 65.0781 540.1147 64.2344 Q540.646 62.8281 541.7944 61.4688 Q542.9429 60.1094 545.1304 58.3281 Q548.521 55.5469 549.7085 53.9297 Q550.896 52.3125 550.896 50.8594 Q550.896 49.3438 549.8101 48.3047 Q548.7241 47.2656 546.9897 47.2656 Q545.146 47.2656 544.0444 48.3672 Q542.9429 49.4688 542.9272 51.4219 L540.3022 51.1562 Q540.5679 48.2344 542.3257 46.6953 Q544.0835 45.1562 547.0366 45.1562 Q550.0366 45.1562 551.7788 46.8125 Q553.521 48.4688 553.521 50.9219 Q553.521 52.1719 553.0054 53.375 Q552.4897 54.5781 551.3101 55.9062 Q550.1304 57.2344 547.3804 59.5625 Q545.0835 61.4844 544.4351 62.1719 Q543.7866 62.8594 543.3647 63.5469 L553.5366 63.5469 Z" clip-path="url(#clipPath22)" stroke="none"/><circle fill="yellow" r="20" clip-path="url(#clipPath23)" cx="536" cy="296" stroke="none"/><circle fill="none" r="20" clip-path="url(#clipPath23)" cx="536" cy="296" stroke="black"/><path fill="black" d="M521.2969 306 L521.2969 285.2344 L536.2969 285.2344 L536.2969 287.6875 L524.0469 287.6875 L524.0469 294.0469 L535.5312 294.0469 L535.5312 296.4844 L524.0469 296.4844 L524.0469 303.5469 L536.7812 303.5469 L536.7812 306 L521.2969 306 ZM552.9365 303.5469 L552.9365 306 L539.2178 306 Q539.1865 305.0781 539.5146 304.2344 Q540.0459 302.8281 541.1943 301.4688 Q542.3428 300.1094 544.5303 298.3281 Q547.9209 295.5469 549.1084 293.9297 Q550.2959 292.3125 550.2959 290.8594 Q550.2959 289.3438 549.21 288.3047 Q548.124 287.2656 546.3896 287.2656 Q544.5459 287.2656 543.4443 288.3672 Q542.3428 289.4688 542.3271 291.4219 L539.7021 291.1562 Q539.9678 288.2344 541.7256 286.6953 Q543.4834 285.1562 546.4365 285.1562 Q549.4365 285.1562 551.1787 286.8125 Q552.9209 288.4688 552.9209 290.9219 Q552.9209 292.1719 552.4053 293.375 Q551.8896 294.5781 550.71 295.9062 Q549.5303 297.2344 546.7803 299.5625 Q544.4834 301.4844 543.835 302.1719 Q543.1865 302.8594 542.7646 303.5469 L552.9365 303.5469 Z" clip-path="url(#clipPath24)" stroke="none"/><circle fill="rgb(238,130,238)" r="20" clip-path="url(#clipPath25)" cx="56" cy="296" stroke="none"/><circle fill="none" r="20" clip-path="url(#clipPath25)" cx="56" cy="296" stroke="black"/><path fill="black" d="M40.5469 307 L40.5469 284.8125 L55.5156 284.8125 L55.5156 287.4219 L43.4844 287.4219 L43.4844 294.2969 L53.8906 294.2969 L53.8906 296.9219 L43.4844 296.9219 L43.4844 307 L40.5469 307 ZM72.5454 304.375 L72.5454 307 L57.8735 307 Q57.8423 306.0156 58.186 305.1094 Q58.7485 303.6094 59.9829 302.1562 Q61.2173 300.7031 63.5454 298.7969 Q67.1704 295.8281 68.4438 294.0938 Q69.7173 292.3594 69.7173 290.8125 Q69.7173 289.2031 68.5532 288.0859 Q67.3892 286.9688 65.5298 286.9688 Q63.561 286.9688 62.3813 288.1484 Q61.2017 289.3281 61.186 291.4219 L58.3892 291.1406 Q58.6704 288 60.5532 286.3594 Q62.436 284.7188 65.5923 284.7188 Q68.7954 284.7188 70.6548 286.4922 Q72.5142 288.2656 72.5142 290.875 Q72.5142 292.2188 71.9673 293.5 Q71.4204 294.7812 70.1548 296.2031 Q68.8892 297.625 65.9517 300.1094 Q63.4985 302.1719 62.8032 302.9062 Q62.1079 303.6406 61.6548 304.375 L72.5454 304.375 Z" clip-path="url(#clipPath26)" stroke="none"/><circle fill="purple" r="20" clip-path="url(#clipPath27)" cx="280" cy="520" stroke="none"/><circle fill="none" r="20" clip-path="url(#clipPath27)" cx="280" cy="520" stroke="black"/><path fill="black" d="M273.125 521.4219 L273.125 519.1562 L281.3125 519.1406 L281.3125 526.3125 Q279.4219 527.8125 277.4219 528.5703 Q275.4219 529.3281 273.3125 529.3281 Q270.4688 529.3281 268.1406 528.1094 Q265.8125 526.8906 264.625 524.5859 Q263.4375 522.2812 263.4375 519.4219 Q263.4375 516.6094 264.6172 514.1641 Q265.7969 511.7188 268.0156 510.5312 Q270.2344 509.3438 273.1094 509.3438 Q275.2031 509.3438 276.8984 510.0234 Q278.5938 510.7031 279.5547 511.9141 Q280.5156 513.125 281.0312 515.0781 L278.7188 515.7031 Q278.2812 514.2344 277.6328 513.3906 Q276.9844 512.5469 275.7891 512.0391 Q274.5938 511.5312 273.125 511.5312 Q271.375 511.5312 270.0938 512.0625 Q268.8125 512.5938 268.0312 513.4688 Q267.25 514.3438 266.8125 515.375 Q266.0781 517.1719 266.0781 519.2656 Q266.0781 521.8594 266.9688 523.5938 Q267.8594 525.3281 269.5547 526.1719 Q271.25 527.0156 273.1719 527.0156 Q274.8281 527.0156 276.4062 526.3828 Q277.9844 525.75 278.8125 525.0156 L278.8125 521.4219 L273.125 521.4219 ZM296.5952 526.7188 L296.5952 529 L283.814 529 Q283.7983 528.1406 284.0952 527.3594 Q284.5796 526.0469 285.6577 524.7812 Q286.7358 523.5156 288.7671 521.8594 Q291.9077 519.2656 293.0171 517.7578 Q294.1265 516.25 294.1265 514.9062 Q294.1265 513.5 293.1187 512.5312 Q292.1108 511.5625 290.4858 511.5625 Q288.7827 511.5625 287.7515 512.5859 Q286.7202 513.6094 286.7046 515.4375 L284.2671 515.1875 Q284.5171 512.4531 286.1499 511.0234 Q287.7827 509.5938 290.5483 509.5938 Q293.3296 509.5938 294.9468 511.1328 Q296.564 512.6719 296.564 514.9531 Q296.564 516.125 296.0874 517.2422 Q295.6108 518.3594 294.5171 519.6016 Q293.4233 520.8438 290.8608 523 Q288.7202 524.7969 288.1187 525.4375 Q287.5171 526.0781 287.1108 526.7188 L296.5952 526.7188 Z" clip-path="url(#clipPath28)" stroke="none"/></g></g></svg>