<?xml version="1.0" encoding="UTF-8"?><svg xmlns="http://www.w3.org/2000/svg" xmlns:xlink="http://www.w3.org/1999/xlink" stroke-dasharray="none" shape-rendering="auto" font-family="'Dialog'" width="561" text-rendering="auto" fill-opacity="1" contentScriptType="text/ecmascript" color-interpolation="auto" color-rendering="auto" preserveAspectRatio="xMidYMid meet" font-size="12px" fill="black" stroke="black" image-rendering="auto" stroke-miterlimit="10" zoomAndPan="magnify" version="1.0" stroke-linecap="square" stroke-linejoin="miter" contentStyleType="text/css" font-style="normal" height="561" stroke-width="1" stroke-dashoffset="0" font-weight="normal" stroke-opacity="1"><!--Generated by the Batik Graphics2D SVG Generator--><defs id="genericDefs"/><g><g><line y2="0" fill="none" x1="0" x2="560" y1="0"/><line y2="80" fill="none" x1="0" x2="560" y1="80"/><line y2="160" fill="none" x1="0" x2="560" y1="160"/><line y2="240" fill="none" x1="0" x2="560" y1="240"/><line y2="320" fill="none" x1="0" x2="560" y1="320"/><line y2="400" fill="none" x1="0" x2="560" y1="400"/><line y2="480" fill="none" x1="0" x2="560" y1="480"/><line y2="560" fill="none" x1="0" x2="560" y1="560"/><line y2="560" fill="none" x1="0" x2="0" y1="0"/><line y2="560" fill="none" x1="80" x2="80" y1="0"/><line y2="560" fill="none" x1="160" x2="160" y1="0"/><line y2="560" fill="none" x1="240" x2="240" y1="0"/><line y2="560" fill="none" x1="320" x2="320" y1="0"/><line y2="560" fill="none" x1="400" x2="400" y1="0"/><line y2="560" fill="none" x1="480" x2="480" y1="0"/><line y2="560" fill="none" x1="560" x2="560" y1="0"/></g></g></svg>