<?xml version="1.0" encoding="UTF-8"?><svg xmlns="http://www.w3.org/2000/svg" xmlns:xlink="http://www.w3.org/1999/xlink" stroke-dasharray="none" shape-rendering="auto" font-family="'Dialog'" width="591" text-rendering="auto" fill-opacity="1" contentScriptType="text/ecmascript" color-interpolation="auto" color-rendering="auto" preserveAspectRatio="xMidYMid meet" font-size="12px" fill="black" stroke="black" image-rendering="auto" stroke-miterlimit="10" zoomAndPan="magnify" version="1.0" stroke-linecap="square" stroke-linejoin="miter" contentStyleType="text/css" font-style="normal" height="431" stroke-width="1" stroke-dashoffset="0" font-weight="normal" stroke-opacity="1"><!--Generated by the Batik Graphics2D SVG Generator--><defs id="genericDefs"/><g><defs id="defs1"><clipPath clipPathUnits="userSpaceOnUse" id="clipPath1"><path d="M53 133 L87 133 L87 167 L53 167 L53 133 Z"/></clipPath><clipPath clipPathUnits="userSpaceOnUse" id="clipPath2"><path d="M86 150 C86 158.8366 78.8366 166 70 166 C61.1634 166 54 158.8366 54 150 C54 141.1634 61.1634 134 70 134 C78.8366 134 86 141.1634 86 150 Z"/></clipPath><clipPath clipPathUnits="userSpaceOnUse" id="clipPath3"><path d="M53 293 L87 293 L87 327 L53 327 L53 293 Z"/></clipPath><clipPath clipPathUnits="userSpaceOnUse" id="clipPath4"><path d="M86 310 C86 318.8365 78.8366 326 70 326 C61.1634 326 54 318.8365 54 310 C54 301.1635 61.1634 294 70 294 C78.8366 294 86 301.1635 86 310 Z"/></clipPath><clipPath clipPathUnits="userSpaceOnUse" id="clipPath5"><path d="M533 133 L567 133 L567 167 L533 167 L533 133 Z"/></clipPath><clipPath clipPathUnits="userSpaceOnUse" id="clipPath6"><path d="M566 150 C566 158.8366 558.8365 166 550 166 C541.1635 166 534 158.8366 534 150 C534 141.1634 541.1635 134 550 134 C558.8365 134 566 141.1634 566 150 Z"/></clipPath><clipPath clipPathUnits="userSpaceOnUse" id="clipPath7"><path d="M533 293 L567 293 L567 327 L533 327 L533 293 Z"/></clipPath><clipPath clipPathUnits="userSpaceOnUse" id="clipPath8"><path d="M566 310 C566 318.8365 558.8365 326 550 326 C541.1635 326 534 318.8365 534 310 C534 301.1635 541.1635 294 550 294 C558.8365 294 566 301.1635 566 310 Z"/></clipPath></defs><g stroke-width="1.5"><line y2="30" fill="none" x1="30" x2="590" y1="30"/><line y2="110" fill="none" x1="30" x2="590" y1="110"/><line y2="190" fill="none" x1="30" x2="590" y1="190"/><line y2="270" fill="none" x1="30" x2="590" y1="270"/><line y2="350" fill="none" x1="30" x2="590" y1="350"/><line y2="430" fill="none" x1="30" x2="590" y1="430"/><line y2="430" fill="none" x1="30" x2="30" y1="30"/><line y2="430" fill="none" x1="110" x2="110" y1="30"/><line y2="430" fill="none" x1="190" x2="190" y1="30"/><line y2="430" fill="none" x1="270" x2="270" y1="30"/><line y2="430" fill="none" x1="350" x2="350" y1="30"/><line y2="430" fill="none" x1="430" x2="430" y1="30"/><line y2="430" fill="none" x1="510" x2="510" y1="30"/><line y2="430" fill="none" x1="590" x2="590" y1="30"/><path d="M17.9375 79 L15.8281 79 L15.8281 65.5625 Q15.0781 66.2812 13.8359 67.0078 Q12.5938 67.7344 11.6094 68.0938 L11.6094 66.0625 Q13.3906 65.2344 14.7109 64.0469 Q16.0312 62.8594 16.5781 61.75 L17.9375 61.75 L17.9375 79 Z" stroke="none"/><path d="M21.0781 156.9688 L21.0781 159 L9.7344 159 Q9.7031 158.2344 9.9688 157.5312 Q10.4062 156.375 11.3594 155.25 Q12.3125 154.125 14.125 152.6406 Q16.9219 150.3438 17.9062 149.0078 Q18.8906 147.6719 18.8906 146.4688 Q18.8906 145.2188 17.9922 144.3594 Q17.0938 143.5 15.6562 143.5 Q14.1406 143.5 13.2266 144.4141 Q12.3125 145.3281 12.2969 146.9375 L10.125 146.7188 Q10.3438 144.2969 11.7969 143.0234 Q13.25 141.75 15.7031 141.75 Q18.1719 141.75 19.6172 143.1172 Q21.0625 144.4844 21.0625 146.5156 Q21.0625 147.5469 20.6406 148.5469 Q20.2188 149.5469 19.2422 150.6484 Q18.2656 151.75 15.9844 153.6719 Q14.0938 155.2656 13.5547 155.8281 Q13.0156 156.3906 12.6562 156.9688 L21.0781 156.9688 Z" stroke="none"/><path d="M10.0156 234.4688 L12.125 234.1875 Q12.4844 235.9688 13.3594 236.7656 Q14.2344 237.5625 15.4844 237.5625 Q16.9688 237.5625 17.9922 236.5312 Q19.0156 235.5 19.0156 233.9688 Q19.0156 232.5156 18.0703 231.5703 Q17.125 230.625 15.6562 230.625 Q15.0625 230.625 14.1719 230.8594 L14.4062 229.0156 Q14.6094 229.0312 14.75 229.0312 Q16.0938 229.0312 17.1719 228.3281 Q18.25 227.625 18.25 226.1719 Q18.25 225 17.4609 224.2422 Q16.6719 223.4844 15.4375 223.4844 Q14.2031 223.4844 13.3828 224.2578 Q12.5625 225.0312 12.3281 226.5781 L10.2188 226.2031 Q10.6094 224.0781 11.9766 222.9141 Q13.3438 221.75 15.3906 221.75 Q16.7969 221.75 17.9766 222.3516 Q19.1562 222.9531 19.7891 224 Q20.4219 225.0469 20.4219 226.2188 Q20.4219 227.3281 19.8203 228.2422 Q19.2188 229.1562 18.0469 229.6875 Q19.5781 230.0469 20.4219 231.1562 Q21.2656 232.2656 21.2656 233.9219 Q21.2656 236.1719 19.625 237.7422 Q17.9844 239.3125 15.4688 239.3125 Q13.2031 239.3125 11.7109 237.9609 Q10.2188 236.6094 10.0156 234.4688 Z" stroke="none"/><path d="M16.7656 319 L16.7656 314.8906 L9.3125 314.8906 L9.3125 312.9531 L17.1406 301.8125 L18.875 301.8125 L18.875 312.9531 L21.1875 312.9531 L21.1875 314.8906 L18.875 314.8906 L18.875 319 L16.7656 319 ZM16.7656 312.9531 L16.7656 305.2031 L11.375 312.9531 L16.7656 312.9531 Z" stroke="none"/><path d="M10 394.5 L12.2188 394.3125 Q12.4531 395.9219 13.3516 396.7422 Q14.25 397.5625 15.5156 397.5625 Q17.0469 397.5625 18.1016 396.4141 Q19.1562 395.2656 19.1562 393.3594 Q19.1562 391.5625 18.1406 390.5156 Q17.125 389.4688 15.4844 389.4688 Q14.4688 389.4688 13.6484 389.9297 Q12.8281 390.3906 12.3594 391.1406 L10.375 390.875 L12.0312 382.0469 L20.5781 382.0469 L20.5781 384.0625 L13.7188 384.0625 L12.7969 388.6875 Q14.3438 387.6094 16.0469 387.6094 Q18.2969 387.6094 19.8438 389.1641 Q21.3906 390.7188 21.3906 393.1719 Q21.3906 395.5 20.0312 397.2031 Q18.375 399.2969 15.5156 399.2969 Q13.1719 399.2969 11.6875 397.9844 Q10.2031 396.6719 10 394.5 Z" stroke="none"/><path d="M72.9375 24 L70.8281 24 L70.8281 10.5625 Q70.0781 11.2812 68.8359 12.0078 Q67.5938 12.7344 66.6094 13.0938 L66.6094 11.0625 Q68.3906 10.2344 69.7109 9.0469 Q71.0312 7.8594 71.5781 6.75 L72.9375 6.75 L72.9375 24 Z" stroke="none"/><path d="M156.0781 21.9688 L156.0781 24 L144.7344 24 Q144.7031 23.2344 144.9688 22.5312 Q145.4062 21.375 146.3594 20.25 Q147.3125 19.125 149.125 17.6406 Q151.9219 15.3438 152.9062 14.0078 Q153.8906 12.6719 153.8906 11.4688 Q153.8906 10.2188 152.9922 9.3594 Q152.0938 8.5 150.6562 8.5 Q149.1406 8.5 148.2266 9.4141 Q147.3125 10.3281 147.2969 11.9375 L145.125 11.7188 Q145.3438 9.2969 146.7969 8.0234 Q148.25 6.75 150.7031 6.75 Q153.1719 6.75 154.6172 8.1172 Q156.0625 9.4844 156.0625 11.5156 Q156.0625 12.5469 155.6406 13.5469 Q155.2188 14.5469 154.2422 15.6484 Q153.2656 16.75 150.9844 18.6719 Q149.0938 20.2656 148.5547 20.8281 Q148.0156 21.3906 147.6562 21.9688 L156.0781 21.9688 Z" stroke="none"/><path d="M225.0156 19.4688 L227.125 19.1875 Q227.4844 20.9688 228.3594 21.7656 Q229.2344 22.5625 230.4844 22.5625 Q231.9688 22.5625 232.9922 21.5312 Q234.0156 20.5 234.0156 18.9688 Q234.0156 17.5156 233.0703 16.5703 Q232.125 15.625 230.6562 15.625 Q230.0625 15.625 229.1719 15.8594 L229.4062 14.0156 Q229.6094 14.0312 229.75 14.0312 Q231.0938 14.0312 232.1719 13.3281 Q233.25 12.625 233.25 11.1719 Q233.25 10 232.4609 9.2422 Q231.6719 8.4844 230.4375 8.4844 Q229.2031 8.4844 228.3828 9.2578 Q227.5625 10.0312 227.3281 11.5781 L225.2188 11.2031 Q225.6094 9.0781 226.9766 7.9141 Q228.3438 6.75 230.3906 6.75 Q231.7969 6.75 232.9766 7.3516 Q234.1562 7.9531 234.7891 9 Q235.4219 10.0469 235.4219 11.2188 Q235.4219 12.3281 234.8203 13.2422 Q234.2188 14.1562 233.0469 14.6875 Q234.5781 15.0469 235.4219 16.1562 Q236.2656 17.2656 236.2656 18.9219 Q236.2656 21.1719 234.625 22.7422 Q232.9844 24.3125 230.4688 24.3125 Q228.2031 24.3125 226.7109 22.9609 Q225.2188 21.6094 225.0156 19.4688 Z" stroke="none"/><path d="M311.7656 24 L311.7656 19.8906 L304.3125 19.8906 L304.3125 17.9531 L312.1406 6.8125 L313.875 6.8125 L313.875 17.9531 L316.1875 17.9531 L316.1875 19.8906 L313.875 19.8906 L313.875 24 L311.7656 24 ZM311.7656 17.9531 L311.7656 10.2031 L306.375 17.9531 L311.7656 17.9531 Z" stroke="none"/><path d="M385 19.5 L387.2188 19.3125 Q387.4531 20.9219 388.3516 21.7422 Q389.25 22.5625 390.5156 22.5625 Q392.0469 22.5625 393.1016 21.4141 Q394.1562 20.2656 394.1562 18.3594 Q394.1562 16.5625 393.1406 15.5156 Q392.125 14.4688 390.4844 14.4688 Q389.4688 14.4688 388.6484 14.9297 Q387.8281 15.3906 387.3594 16.1406 L385.375 15.875 L387.0312 7.0469 L395.5781 7.0469 L395.5781 9.0625 L388.7188 9.0625 L387.7969 13.6875 Q389.3438 12.6094 391.0469 12.6094 Q393.2969 12.6094 394.8438 14.1641 Q396.3906 15.7188 396.3906 18.1719 Q396.3906 20.5 395.0312 22.2031 Q393.375 24.2969 390.5156 24.2969 Q388.1719 24.2969 386.6875 22.9844 Q385.2031 21.6719 385 19.5 Z" stroke="none"/><path d="M475.9375 11.0312 L473.8438 11.1875 Q473.5625 9.9531 473.0469 9.3906 Q472.1875 8.4844 470.9375 8.4844 Q469.9375 8.4844 469.1719 9.0469 Q468.1719 9.7656 467.6016 11.1641 Q467.0312 12.5625 467 15.1406 Q467.7656 13.9844 468.8672 13.4219 Q469.9688 12.8594 471.1719 12.8594 Q473.2812 12.8594 474.7656 14.4062 Q476.25 15.9531 476.25 18.4219 Q476.25 20.0312 475.5547 21.4219 Q474.8594 22.8125 473.6406 23.5547 Q472.4219 24.2969 470.875 24.2969 Q468.2344 24.2969 466.5703 22.3516 Q464.9062 20.4062 464.9062 15.9531 Q464.9062 10.9844 466.75 8.7188 Q468.3438 6.75 471.0625 6.75 Q473.0938 6.75 474.3906 7.8828 Q475.6875 9.0156 475.9375 11.0312 ZM467.3281 18.4375 Q467.3281 19.5156 467.7891 20.5156 Q468.25 21.5156 469.0859 22.0391 Q469.9219 22.5625 470.8281 22.5625 Q472.1719 22.5625 473.1328 21.4844 Q474.0938 20.4062 474.0938 18.5469 Q474.0938 16.7656 473.1406 15.7422 Q472.1875 14.7188 470.75 14.7188 Q469.3281 14.7188 468.3281 15.7422 Q467.3281 16.7656 467.3281 18.4375 Z" stroke="none"/><path d="M545.1406 9.0625 L545.1406 7.0469 L556.2656 7.0469 L556.2656 8.6875 Q554.625 10.4219 553.0078 13.3203 Q551.3906 16.2188 550.5156 19.2812 Q549.8906 21.4375 549.7031 24 L547.5469 24 Q547.5781 21.9688 548.3359 19.1016 Q549.0938 16.2344 550.5234 13.5625 Q551.9531 10.8906 553.5469 9.0625 L545.1406 9.0625 Z" stroke="none"/></g><g fill="rgb(30,144,255)" font-size="24px" font-family="'Arial'" stroke="rgb(30,144,255)"><circle r="16" clip-path="url(#clipPath1)" cx="70" cy="150" stroke="none"/><circle fill="none" r="16" clip-path="url(#clipPath1)" cx="70" cy="150" stroke="black"/><path fill="black" d="M60.9531 159 L68.3906 139.6719 L71.1406 139.6719 L79.0469 159 L76.1406 159 L73.875 153.1406 L65.7969 153.1406 L63.6719 159 L60.9531 159 ZM66.5312 151.0625 L73.0938 151.0625 L71.0781 145.7031 Q70.1562 143.2656 69.7031 141.7031 Q69.3281 143.5625 68.6562 145.3906 L66.5312 151.0625 Z" clip-path="url(#clipPath2)" stroke="none"/><circle fill="rgb(144,238,144)" r="16" clip-path="url(#clipPath3)" cx="70" cy="310" stroke="none"/><circle fill="none" r="16" clip-path="url(#clipPath3)" cx="70" cy="310" stroke="black"/><path fill="black" d="M62.9844 319 L62.9844 299.6719 L70.2344 299.6719 Q72.4375 299.6719 73.7812 300.2578 Q75.125 300.8438 75.8828 302.0625 Q76.6406 303.2812 76.6406 304.6094 Q76.6406 305.8594 75.9688 306.9531 Q75.2969 308.0469 73.9375 308.7188 Q75.6875 309.2344 76.6328 310.4688 Q77.5781 311.7031 77.5781 313.3906 Q77.5781 314.75 77 315.9219 Q76.4219 317.0938 75.5781 317.7266 Q74.7344 318.3594 73.4609 318.6797 Q72.1875 319 70.3438 319 L62.9844 319 ZM65.5312 307.7969 L69.7188 307.7969 Q71.4219 307.7969 72.1562 307.5625 Q73.125 307.2812 73.625 306.6094 Q74.125 305.9375 74.125 304.9219 Q74.125 303.9531 73.6562 303.2266 Q73.1875 302.5 72.3359 302.2266 Q71.4844 301.9531 69.3906 301.9531 L65.5312 301.9531 L65.5312 307.7969 ZM65.5312 316.7188 L70.3438 316.7188 Q71.5938 316.7188 72.0938 316.625 Q72.9688 316.4688 73.5625 316.1016 Q74.1562 315.7344 74.5391 315.0234 Q74.9219 314.3125 74.9219 313.3906 Q74.9219 312.3125 74.3672 311.5156 Q73.8125 310.7188 72.8281 310.3984 Q71.8438 310.0781 70 310.0781 L65.5312 310.0781 L65.5312 316.7188 Z" clip-path="url(#clipPath4)" stroke="none"/><circle r="16" clip-path="url(#clipPath5)" cx="550" cy="150" stroke="none"/><circle fill="none" r="16" clip-path="url(#clipPath5)" cx="550" cy="150" stroke="black"/><path fill="black" d="M540.9531 159 L548.3906 139.6719 L551.1406 139.6719 L559.0469 159 L556.1406 159 L553.875 153.1406 L545.7969 153.1406 L543.6719 159 L540.9531 159 ZM546.5312 151.0625 L553.0938 151.0625 L551.0781 145.7031 Q550.1562 143.2656 549.7031 141.7031 Q549.3281 143.5625 548.6562 145.3906 L546.5312 151.0625 Z" clip-path="url(#clipPath6)" stroke="none"/><circle fill="rgb(144,238,144)" r="16" clip-path="url(#clipPath7)" cx="550" cy="310" stroke="none"/><circle fill="none" r="16" clip-path="url(#clipPath7)" cx="550" cy="310" stroke="black"/><path fill="black" d="M542.9844 319 L542.9844 299.6719 L550.2344 299.6719 Q552.4375 299.6719 553.7812 300.2578 Q555.125 300.8438 555.8828 302.0625 Q556.6406 303.2812 556.6406 304.6094 Q556.6406 305.8594 555.9688 306.9531 Q555.2969 308.0469 553.9375 308.7188 Q555.6875 309.2344 556.6328 310.4688 Q557.5781 311.7031 557.5781 313.3906 Q557.5781 314.75 557 315.9219 Q556.4219 317.0938 555.5781 317.7266 Q554.7344 318.3594 553.4609 318.6797 Q552.1875 319 550.3438 319 L542.9844 319 ZM545.5312 307.7969 L549.7188 307.7969 Q551.4219 307.7969 552.1562 307.5625 Q553.125 307.2812 553.625 306.6094 Q554.125 305.9375 554.125 304.9219 Q554.125 303.9531 553.6562 303.2266 Q553.1875 302.5 552.3359 302.2266 Q551.4844 301.9531 549.3906 301.9531 L545.5312 301.9531 L545.5312 307.7969 ZM545.5312 316.7188 L550.3438 316.7188 Q551.5938 316.7188 552.0938 316.625 Q552.9688 316.4688 553.5625 316.1016 Q554.1562 315.7344 554.5391 315.0234 Q554.9219 314.3125 554.9219 313.3906 Q554.9219 312.3125 554.3672 311.5156 Q553.8125 310.7188 552.8281 310.3984 Q551.8438 310.0781 550 310.0781 L545.5312 310.0781 L545.5312 316.7188 Z" clip-path="url(#clipPath8)" stroke="none"/></g></g></svg>