<?xml version="1.0" encoding="UTF-8"?><svg xmlns="http://www.w3.org/2000/svg" xmlns:xlink="http://www.w3.org/1999/xlink" stroke-dasharray="none" shape-rendering="auto" font-family="'Dialog'" width="591" text-rendering="auto" fill-opacity="1" contentScriptType="text/ecmascript" color-interpolation="auto" color-rendering="auto" preserveAspectRatio="xMidYMid meet" font-size="12px" fill="black" stroke="black" image-rendering="auto" stroke-miterlimit="10" zoomAndPan="magnify" version="1.0" stroke-linecap="square" stroke-linejoin="miter" contentStyleType="text/css" font-style="normal" height="591" stroke-width="1" stroke-dashoffset="0" font-weight="normal" stroke-opacity="1"><!--Generated by the Batik Graphics2D SVG Generator--><defs id="genericDefs"/><g><defs id="defs1"><clipPath clipPathUnits="userSpaceOnUse" id="clipPath1"><path d="M33 33 L75 33 L75 75 L33 75 L33 33 Z"/></clipPath><clipPath clipPathUnits="userSpaceOnUse" id="clipPath2"><path d="M74 54 C74 65.0457 65.0457 74 54 74 C42.9543 74 34 65.0457 34 54 C34 42.9543 42.9543 34 54 34 C65.0457 34 74 42.9543 74 54 Z"/></clipPath><clipPath clipPathUnits="userSpaceOnUse" id="clipPath3"><path d="M513 513 L555 513 L555 555 L513 555 L513 513 Z"/></clipPath><clipPath clipPathUnits="userSpaceOnUse" id="clipPath4"><path d="M554 534 C554 545.0457 545.0457 554 534 554 C522.9543 554 514 545.0457 514 534 C514 522.9543 522.9543 514 534 514 C545.0457 514 554 522.9543 554 534 Z"/></clipPath><clipPath clipPathUnits="userSpaceOnUse" id="clipPath5"><path d="M529 49 L571 49 L571 91 L529 91 L529 49 Z"/></clipPath><clipPath clipPathUnits="userSpaceOnUse" id="clipPath6"><path d="M570 70 C570 81.0457 561.0457 90 550 90 C538.9543 90 530 81.0457 530 70 C530 58.9543 538.9543 50 550 50 C561.0457 50 570 58.9543 570 70 Z"/></clipPath><clipPath clipPathUnits="userSpaceOnUse" id="clipPath7"><path d="M545 545 L587 545 L587 587 L545 587 L545 545 Z"/></clipPath><clipPath clipPathUnits="userSpaceOnUse" id="clipPath8"><path d="M586 566 C586 577.0457 577.0457 586 566 586 C554.9543 586 546 577.0457 546 566 C546 554.9543 554.9543 546 566 546 C577.0457 546 586 554.9543 586 566 Z"/></clipPath><clipPath clipPathUnits="userSpaceOnUse" id="clipPath9"><path d="M65 65 L107 65 L107 107 L65 107 L65 65 Z"/></clipPath><clipPath clipPathUnits="userSpaceOnUse" id="clipPath10"><path d="M106 86 C106 97.0457 97.0457 106 86 106 C74.9543 106 66 97.0457 66 86 C66 74.9543 74.9543 66 86 66 C97.0457 66 106 74.9543 106 86 Z"/></clipPath><clipPath clipPathUnits="userSpaceOnUse" id="clipPath11"><path d="M49 529 L91 529 L91 571 L49 571 L49 529 Z"/></clipPath><clipPath clipPathUnits="userSpaceOnUse" id="clipPath12"><path d="M90 550 C90 561.0457 81.0457 570 70 570 C58.9543 570 50 561.0457 50 550 C50 538.9543 58.9543 530 70 530 C81.0457 530 90 538.9543 90 550 Z"/></clipPath></defs><g><line y2="30" fill="none" x1="30" x2="590" y1="30"/><line y2="110" fill="none" x1="30" x2="590" y1="110"/><line y2="190" fill="none" x1="30" x2="590" y1="190"/><line y2="270" fill="none" x1="30" x2="590" y1="270"/><line y2="350" fill="none" x1="30" x2="590" y1="350"/><line y2="430" fill="none" x1="30" x2="590" y1="430"/><line y2="510" fill="none" x1="30" x2="590" y1="510"/><line y2="590" fill="none" x1="30" x2="590" y1="590"/><line y2="590" fill="none" x1="30" x2="30" y1="30"/><line y2="590" fill="none" x1="110" x2="110" y1="30"/><line y2="590" fill="none" x1="190" x2="190" y1="30"/><line y2="590" fill="none" x1="270" x2="270" y1="30"/><line y2="590" fill="none" x1="350" x2="350" y1="30"/><line y2="590" fill="none" x1="430" x2="430" y1="30"/><line y2="590" fill="none" x1="510" x2="510" y1="30"/><line y2="590" fill="none" x1="590" x2="590" y1="30"/><path d="M17.9375 79 L15.8281 79 L15.8281 65.5625 Q15.0781 66.2812 13.8359 67.0078 Q12.5938 67.7344 11.6094 68.0938 L11.6094 66.0625 Q13.3906 65.2344 14.7109 64.0469 Q16.0312 62.8594 16.5781 61.75 L17.9375 61.75 L17.9375 79 Z" stroke="none"/><path d="M21.0781 156.9688 L21.0781 159 L9.7344 159 Q9.7031 158.2344 9.9688 157.5312 Q10.4062 156.375 11.3594 155.25 Q12.3125 154.125 14.125 152.6406 Q16.9219 150.3438 17.9062 149.0078 Q18.8906 147.6719 18.8906 146.4688 Q18.8906 145.2188 17.9922 144.3594 Q17.0938 143.5 15.6562 143.5 Q14.1406 143.5 13.2266 144.4141 Q12.3125 145.3281 12.2969 146.9375 L10.125 146.7188 Q10.3438 144.2969 11.7969 143.0234 Q13.25 141.75 15.7031 141.75 Q18.1719 141.75 19.6172 143.1172 Q21.0625 144.4844 21.0625 146.5156 Q21.0625 147.5469 20.6406 148.5469 Q20.2188 149.5469 19.2422 150.6484 Q18.2656 151.75 15.9844 153.6719 Q14.0938 155.2656 13.5547 155.8281 Q13.0156 156.3906 12.6562 156.9688 L21.0781 156.9688 Z" stroke="none"/><path d="M10.0156 234.4688 L12.125 234.1875 Q12.4844 235.9688 13.3594 236.7656 Q14.2344 237.5625 15.4844 237.5625 Q16.9688 237.5625 17.9922 236.5312 Q19.0156 235.5 19.0156 233.9688 Q19.0156 232.5156 18.0703 231.5703 Q17.125 230.625 15.6562 230.625 Q15.0625 230.625 14.1719 230.8594 L14.4062 229.0156 Q14.6094 229.0312 14.75 229.0312 Q16.0938 229.0312 17.1719 228.3281 Q18.25 227.625 18.25 226.1719 Q18.25 225 17.4609 224.2422 Q16.6719 223.4844 15.4375 223.4844 Q14.2031 223.4844 13.3828 224.2578 Q12.5625 225.0312 12.3281 226.5781 L10.2188 226.2031 Q10.6094 224.0781 11.9766 222.9141 Q13.3438 221.75 15.3906 221.75 Q16.7969 221.75 17.9766 222.3516 Q19.1562 222.9531 19.7891 224 Q20.4219 225.0469 20.4219 226.2188 Q20.4219 227.3281 19.8203 228.2422 Q19.2188 229.1562 18.0469 229.6875 Q19.5781 230.0469 20.4219 231.1562 Q21.2656 232.2656 21.2656 233.9219 Q21.2656 236.1719 19.625 237.7422 Q17.9844 239.3125 15.4688 239.3125 Q13.2031 239.3125 11.7109 237.9609 Q10.2188 236.6094 10.0156 234.4688 Z" stroke="none"/><path d="M16.7656 319 L16.7656 314.8906 L9.3125 314.8906 L9.3125 312.9531 L17.1406 301.8125 L18.875 301.8125 L18.875 312.9531 L21.1875 312.9531 L21.1875 314.8906 L18.875 314.8906 L18.875 319 L16.7656 319 ZM16.7656 312.9531 L16.7656 305.2031 L11.375 312.9531 L16.7656 312.9531 Z" stroke="none"/><path d="M10 394.5 L12.2188 394.3125 Q12.4531 395.9219 13.3516 396.7422 Q14.25 397.5625 15.5156 397.5625 Q17.0469 397.5625 18.1016 396.4141 Q19.1562 395.2656 19.1562 393.3594 Q19.1562 391.5625 18.1406 390.5156 Q17.125 389.4688 15.4844 389.4688 Q14.4688 389.4688 13.6484 389.9297 Q12.8281 390.3906 12.3594 391.1406 L10.375 390.875 L12.0312 382.0469 L20.5781 382.0469 L20.5781 384.0625 L13.7188 384.0625 L12.7969 388.6875 Q14.3438 387.6094 16.0469 387.6094 Q18.2969 387.6094 19.8438 389.1641 Q21.3906 390.7188 21.3906 393.1719 Q21.3906 395.5 20.0312 397.2031 Q18.375 399.2969 15.5156 399.2969 Q13.1719 399.2969 11.6875 397.9844 Q10.2031 396.6719 10 394.5 Z" stroke="none"/><path d="M20.9375 466.0312 L18.8438 466.1875 Q18.5625 464.9531 18.0469 464.3906 Q17.1875 463.4844 15.9375 463.4844 Q14.9375 463.4844 14.1719 464.0469 Q13.1719 464.7656 12.6016 466.1641 Q12.0312 467.5625 12 470.1406 Q12.7656 468.9844 13.8672 468.4219 Q14.9688 467.8594 16.1719 467.8594 Q18.2812 467.8594 19.7656 469.4062 Q21.25 470.9531 21.25 473.4219 Q21.25 475.0312 20.5547 476.4219 Q19.8594 477.8125 18.6406 478.5547 Q17.4219 479.2969 15.875 479.2969 Q13.2344 479.2969 11.5703 477.3516 Q9.9062 475.4062 9.9062 470.9531 Q9.9062 465.9844 11.75 463.7188 Q13.3438 461.75 16.0625 461.75 Q18.0938 461.75 19.3906 462.8828 Q20.6875 464.0156 20.9375 466.0312 ZM12.3281 473.4375 Q12.3281 474.5156 12.7891 475.5156 Q13.25 476.5156 14.0859 477.0391 Q14.9219 477.5625 15.8281 477.5625 Q17.1719 477.5625 18.1328 476.4844 Q19.0938 475.4062 19.0938 473.5469 Q19.0938 471.7656 18.1406 470.7422 Q17.1875 469.7188 15.75 469.7188 Q14.3281 469.7188 13.3281 470.7422 Q12.3281 471.7656 12.3281 473.4375 Z" stroke="none"/><path d="M10.1406 544.0625 L10.1406 542.0469 L21.2656 542.0469 L21.2656 543.6875 Q19.625 545.4219 18.0078 548.3203 Q16.3906 551.2188 15.5156 554.2812 Q14.8906 556.4375 14.7031 559 L12.5469 559 Q12.5781 556.9688 13.3359 554.1016 Q14.0938 551.2344 15.5234 548.5625 Q16.9531 545.8906 18.5469 544.0625 L10.1406 544.0625 Z" stroke="none"/><path d="M72.9375 24 L70.8281 24 L70.8281 10.5625 Q70.0781 11.2812 68.8359 12.0078 Q67.5938 12.7344 66.6094 13.0938 L66.6094 11.0625 Q68.3906 10.2344 69.7109 9.0469 Q71.0312 7.8594 71.5781 6.75 L72.9375 6.75 L72.9375 24 Z" stroke="none"/><path d="M156.0781 21.9688 L156.0781 24 L144.7344 24 Q144.7031 23.2344 144.9688 22.5312 Q145.4062 21.375 146.3594 20.25 Q147.3125 19.125 149.125 17.6406 Q151.9219 15.3438 152.9062 14.0078 Q153.8906 12.6719 153.8906 11.4688 Q153.8906 10.2188 152.9922 9.3594 Q152.0938 8.5 150.6562 8.5 Q149.1406 8.5 148.2266 9.4141 Q147.3125 10.3281 147.2969 11.9375 L145.125 11.7188 Q145.3438 9.2969 146.7969 8.0234 Q148.25 6.75 150.7031 6.75 Q153.1719 6.75 154.6172 8.1172 Q156.0625 9.4844 156.0625 11.5156 Q156.0625 12.5469 155.6406 13.5469 Q155.2188 14.5469 154.2422 15.6484 Q153.2656 16.75 150.9844 18.6719 Q149.0938 20.2656 148.5547 20.8281 Q148.0156 21.3906 147.6562 21.9688 L156.0781 21.9688 Z" stroke="none"/><path d="M225.0156 19.4688 L227.125 19.1875 Q227.4844 20.9688 228.3594 21.7656 Q229.2344 22.5625 230.4844 22.5625 Q231.9688 22.5625 232.9922 21.5312 Q234.0156 20.5 234.0156 18.9688 Q234.0156 17.5156 233.0703 16.5703 Q232.125 15.625 230.6562 15.625 Q230.0625 15.625 229.1719 15.8594 L229.4062 14.0156 Q229.6094 14.0312 229.75 14.0312 Q231.0938 14.0312 232.1719 13.3281 Q233.25 12.625 233.25 11.1719 Q233.25 10 232.4609 9.2422 Q231.6719 8.4844 230.4375 8.4844 Q229.2031 8.4844 228.3828 9.2578 Q227.5625 10.0312 227.3281 11.5781 L225.2188 11.2031 Q225.6094 9.0781 226.9766 7.9141 Q228.3438 6.75 230.3906 6.75 Q231.7969 6.75 232.9766 7.3516 Q234.1562 7.9531 234.7891 9 Q235.4219 10.0469 235.4219 11.2188 Q235.4219 12.3281 234.8203 13.2422 Q234.2188 14.1562 233.0469 14.6875 Q234.5781 15.0469 235.4219 16.1562 Q236.2656 17.2656 236.2656 18.9219 Q236.2656 21.1719 234.625 22.7422 Q232.9844 24.3125 230.4688 24.3125 Q228.2031 24.3125 226.7109 22.9609 Q225.2188 21.6094 225.0156 19.4688 Z" stroke="none"/><path d="M311.7656 24 L311.7656 19.8906 L304.3125 19.8906 L304.3125 17.9531 L312.1406 6.8125 L313.875 6.8125 L313.875 17.9531 L316.1875 17.9531 L316.1875 19.8906 L313.875 19.8906 L313.875 24 L311.7656 24 ZM311.7656 17.9531 L311.7656 10.2031 L306.375 17.9531 L311.7656 17.9531 Z" stroke="none"/><path d="M385 19.5 L387.2188 19.3125 Q387.4531 20.9219 388.3516 21.7422 Q389.25 22.5625 390.5156 22.5625 Q392.0469 22.5625 393.1016 21.4141 Q394.1562 20.2656 394.1562 18.3594 Q394.1562 16.5625 393.1406 15.5156 Q392.125 14.4688 390.4844 14.4688 Q389.4688 14.4688 388.6484 14.9297 Q387.8281 15.3906 387.3594 16.1406 L385.375 15.875 L387.0312 7.0469 L395.5781 7.0469 L395.5781 9.0625 L388.7188 9.0625 L387.7969 13.6875 Q389.3438 12.6094 391.0469 12.6094 Q393.2969 12.6094 394.8438 14.1641 Q396.3906 15.7188 396.3906 18.1719 Q396.3906 20.5 395.0312 22.2031 Q393.375 24.2969 390.5156 24.2969 Q388.1719 24.2969 386.6875 22.9844 Q385.2031 21.6719 385 19.5 Z" stroke="none"/><path d="M475.9375 11.0312 L473.8438 11.1875 Q473.5625 9.9531 473.0469 9.3906 Q472.1875 8.4844 470.9375 8.4844 Q469.9375 8.4844 469.1719 9.0469 Q468.1719 9.7656 467.6016 11.1641 Q467.0312 12.5625 467 15.1406 Q467.7656 13.9844 468.8672 13.4219 Q469.9688 12.8594 471.1719 12.8594 Q473.2812 12.8594 474.7656 14.4062 Q476.25 15.9531 476.25 18.4219 Q476.25 20.0312 475.5547 21.4219 Q474.8594 22.8125 473.6406 23.5547 Q472.4219 24.2969 470.875 24.2969 Q468.2344 24.2969 466.5703 22.3516 Q464.9062 20.4062 464.9062 15.9531 Q464.9062 10.9844 466.75 8.7188 Q468.3438 6.75 471.0625 6.75 Q473.0938 6.75 474.3906 7.8828 Q475.6875 9.0156 475.9375 11.0312 ZM467.3281 18.4375 Q467.3281 19.5156 467.7891 20.5156 Q468.25 21.5156 469.0859 22.0391 Q469.9219 22.5625 470.8281 22.5625 Q472.1719 22.5625 473.1328 21.4844 Q474.0938 20.4062 474.0938 18.5469 Q474.0938 16.7656 473.1406 15.7422 Q472.1875 14.7188 470.75 14.7188 Q469.3281 14.7188 468.3281 15.7422 Q467.3281 16.7656 467.3281 18.4375 Z" stroke="none"/><path d="M545.1406 9.0625 L545.1406 7.0469 L556.2656 7.0469 L556.2656 8.6875 Q554.625 10.4219 553.0078 13.3203 Q551.3906 16.2188 550.5156 19.2812 Q549.8906 21.4375 549.7031 24 L547.5469 24 Q547.5781 21.9688 548.3359 19.1016 Q549.0938 16.2344 550.5234 13.5625 Q551.9531 10.8906 553.5469 9.0625 L545.1406 9.0625 Z" stroke="none"/></g><g fill="rgb(30,144,255)" font-size="24px" font-family="'Arial'" stroke="rgb(30,144,255)"><circle r="20" clip-path="url(#clipPath1)" cx="54" cy="54" stroke="none"/><circle fill="none" r="20" clip-path="url(#clipPath1)" cx="54" cy="54" stroke="black"/><path fill="black" d="M34.9531 65 L43.4844 42.8125 L46.6406 42.8125 L55.7188 65 L52.375 65 L49.7812 58.2812 L40.5156 58.2812 L38.0781 65 L34.9531 65 ZM41.3594 55.8906 L48.875 55.8906 L46.5625 49.7344 Q45.5 46.9375 44.9844 45.1406 Q44.5625 47.2812 43.7969 49.375 L41.3594 55.8906 ZM67.2236 65 L64.5049 65 L64.5049 47.6406 Q63.5205 48.5781 61.9189 49.5156 Q60.3174 50.4531 59.0518 50.9219 L59.0518 48.2812 Q61.333 47.2188 63.0439 45.6875 Q64.7549 44.1562 65.4736 42.7188 L67.2236 42.7188 L67.2236 65 Z" clip-path="url(#clipPath2)" stroke="none"/><circle fill="rgb(144,238,144)" r="20" clip-path="url(#clipPath3)" cx="534" cy="534" stroke="none"/><circle fill="none" r="20" clip-path="url(#clipPath3)" cx="534" cy="534" stroke="black"/><path fill="black" d="M519.125 544 L519.125 523.2344 L526.9062 523.2344 Q529.2969 523.2344 530.7344 523.8672 Q532.1719 524.5 532.9844 525.8125 Q533.7969 527.125 533.7969 528.5469 Q533.7969 529.875 533.0703 531.0547 Q532.3438 532.2344 530.8906 532.9531 Q532.7812 533.5 533.7891 534.8359 Q534.7969 536.1719 534.7969 537.9844 Q534.7969 539.4375 534.1797 540.6953 Q533.5625 541.9531 532.6562 542.6328 Q531.75 543.3125 530.3828 543.6562 Q529.0156 544 527.0469 544 L519.125 544 ZM521.875 531.9688 L526.3594 531.9688 Q528.1875 531.9688 528.9844 531.7188 Q530.0312 531.4062 530.5625 530.6875 Q531.0938 529.9688 531.0938 528.875 Q531.0938 527.8438 530.5938 527.0547 Q530.0938 526.2656 529.1719 525.9766 Q528.25 525.6875 526.0156 525.6875 L521.875 525.6875 L521.875 531.9688 ZM521.875 541.5469 L527.0469 541.5469 Q528.375 541.5469 528.9062 541.4531 Q529.8594 541.2812 530.4922 540.8828 Q531.125 540.4844 531.5391 539.7266 Q531.9531 538.9688 531.9531 537.9844 Q531.9531 536.8281 531.3594 535.9688 Q530.7656 535.1094 529.7109 534.7578 Q528.6562 534.4062 526.6719 534.4062 L521.875 534.4062 L521.875 541.5469 ZM547.1396 544 L544.5928 544 L544.5928 527.7656 Q543.6709 528.6406 542.1787 529.5156 Q540.6865 530.3906 539.499 530.8281 L539.499 528.3594 Q541.6396 527.3594 543.2412 525.9297 Q544.8428 524.5 545.499 523.1562 L547.1396 523.1562 L547.1396 544 Z" clip-path="url(#clipPath4)" stroke="none"/><circle fill="rgb(250,128,114)" r="20" clip-path="url(#clipPath5)" cx="550" cy="70" stroke="none"/><circle fill="none" r="20" clip-path="url(#clipPath5)" cx="550" cy="70" stroke="black"/><path fill="black" d="M549.0469 72.7188 L551.7969 73.4219 Q550.9375 76.7969 548.6875 78.5781 Q546.4375 80.3594 543.2031 80.3594 Q539.8438 80.3594 537.7422 78.9922 Q535.6406 77.625 534.5391 75.0312 Q533.4375 72.4375 533.4375 69.4688 Q533.4375 66.2188 534.6797 63.8047 Q535.9219 61.3906 538.2109 60.1406 Q540.5 58.8906 543.25 58.8906 Q546.3594 58.8906 548.4844 60.4766 Q550.6094 62.0625 551.4375 64.9375 L548.7344 65.5781 Q548.0156 63.3125 546.6406 62.2734 Q545.2656 61.2344 543.1875 61.2344 Q540.7969 61.2344 539.1875 62.3828 Q537.5781 63.5312 536.9297 65.4609 Q536.2812 67.3906 536.2812 69.4531 Q536.2812 72.0938 537.0469 74.0703 Q537.8125 76.0469 539.4453 77.0234 Q541.0781 78 542.9688 78 Q545.2812 78 546.8828 76.6719 Q548.4844 75.3438 549.0469 72.7188 ZM563.7397 80 L561.1929 80 L561.1929 63.7656 Q560.271 64.6406 558.7788 65.5156 Q557.2866 66.3906 556.0991 66.8281 L556.0991 64.3594 Q558.2397 63.3594 559.8413 61.9297 Q561.4429 60.5 562.0991 59.1562 L563.7397 59.1562 L563.7397 80 Z" clip-path="url(#clipPath6)" stroke="none"/><circle r="20" clip-path="url(#clipPath7)" cx="566" cy="566" stroke="none"/><circle fill="none" r="20" clip-path="url(#clipPath7)" cx="566" cy="566" stroke="black"/><path fill="black" d="M546.9531 577 L555.4844 554.8125 L558.6406 554.8125 L567.7188 577 L564.375 577 L561.7812 570.2812 L552.5156 570.2812 L550.0781 577 L546.9531 577 ZM553.3594 567.8906 L560.875 567.8906 L558.5625 561.7344 Q557.5 558.9375 556.9844 557.1406 Q556.5625 559.2812 555.7969 561.375 L553.3594 567.8906 ZM583.2861 574.375 L583.2861 577 L568.6143 577 Q568.583 576.0156 568.9268 575.1094 Q569.4893 573.6094 570.7236 572.1562 Q571.958 570.7031 574.2861 568.7969 Q577.9111 565.8281 579.1846 564.0938 Q580.458 562.3594 580.458 560.8125 Q580.458 559.2031 579.2939 558.0859 Q578.1299 556.9688 576.2705 556.9688 Q574.3018 556.9688 573.1221 558.1484 Q571.9424 559.3281 571.9268 561.4219 L569.1299 561.1406 Q569.4111 558 571.2939 556.3594 Q573.1768 554.7188 576.333 554.7188 Q579.5361 554.7188 581.3955 556.4922 Q583.2549 558.2656 583.2549 560.875 Q583.2549 562.2188 582.708 563.5 Q582.1611 564.7812 580.8955 566.2031 Q579.6299 567.625 576.6924 570.1094 Q574.2393 572.1719 573.5439 572.9062 Q572.8486 573.6406 572.3955 574.375 L583.2861 574.375 Z" clip-path="url(#clipPath8)" stroke="none"/><circle fill="rgb(144,238,144)" r="20" clip-path="url(#clipPath9)" cx="86" cy="86" stroke="none"/><circle fill="none" r="20" clip-path="url(#clipPath9)" cx="86" cy="86" stroke="black"/><path fill="black" d="M71.125 96 L71.125 75.2344 L78.9062 75.2344 Q81.2969 75.2344 82.7344 75.8672 Q84.1719 76.5 84.9844 77.8125 Q85.7969 79.125 85.7969 80.5469 Q85.7969 81.875 85.0703 83.0547 Q84.3438 84.2344 82.8906 84.9531 Q84.7812 85.5 85.7891 86.8359 Q86.7969 88.1719 86.7969 89.9844 Q86.7969 91.4375 86.1797 92.6953 Q85.5625 93.9531 84.6562 94.6328 Q83.75 95.3125 82.3828 95.6562 Q81.0156 96 79.0469 96 L71.125 96 ZM73.875 83.9688 L78.3594 83.9688 Q80.1875 83.9688 80.9844 83.7188 Q82.0312 83.4062 82.5625 82.6875 Q83.0938 81.9688 83.0938 80.875 Q83.0938 79.8438 82.5938 79.0547 Q82.0938 78.2656 81.1719 77.9766 Q80.25 77.6875 78.0156 77.6875 L73.875 77.6875 L73.875 83.9688 ZM73.875 93.5469 L79.0469 93.5469 Q80.375 93.5469 80.9062 93.4531 Q81.8594 93.2812 82.4922 92.8828 Q83.125 92.4844 83.5391 91.7266 Q83.9531 90.9688 83.9531 89.9844 Q83.9531 88.8281 83.3594 87.9688 Q82.7656 87.1094 81.7109 86.7578 Q80.6562 86.4062 78.6719 86.4062 L73.875 86.4062 L73.875 93.5469 ZM102.9365 93.5469 L102.9365 96 L89.2178 96 Q89.1865 95.0781 89.5146 94.2344 Q90.0459 92.8281 91.1943 91.4688 Q92.3428 90.1094 94.5303 88.3281 Q97.9209 85.5469 99.1084 83.9297 Q100.2959 82.3125 100.2959 80.8594 Q100.2959 79.3438 99.21 78.3047 Q98.124 77.2656 96.3896 77.2656 Q94.5459 77.2656 93.4443 78.3672 Q92.3428 79.4688 92.3271 81.4219 L89.7021 81.1562 Q89.9678 78.2344 91.7256 76.6953 Q93.4834 75.1562 96.4365 75.1562 Q99.4365 75.1562 101.1787 76.8125 Q102.9209 78.4688 102.9209 80.9219 Q102.9209 82.1719 102.4053 83.375 Q101.8896 84.5781 100.71 85.9062 Q99.5303 87.2344 96.7803 89.5625 Q94.4834 91.4844 93.835 92.1719 Q93.1865 92.8594 92.7646 93.5469 L102.9365 93.5469 Z" clip-path="url(#clipPath10)" stroke="none"/><circle fill="rgb(250,128,114)" r="20" clip-path="url(#clipPath11)" cx="70" cy="550" stroke="none"/><circle fill="none" r="20" clip-path="url(#clipPath11)" cx="70" cy="550" stroke="black"/><path fill="black" d="M69.0469 552.7188 L71.7969 553.4219 Q70.9375 556.7969 68.6875 558.5781 Q66.4375 560.3594 63.2031 560.3594 Q59.8438 560.3594 57.7422 558.9922 Q55.6406 557.625 54.5391 555.0312 Q53.4375 552.4375 53.4375 549.4688 Q53.4375 546.2188 54.6797 543.8047 Q55.9219 541.3906 58.2109 540.1406 Q60.5 538.8906 63.25 538.8906 Q66.3594 538.8906 68.4844 540.4766 Q70.6094 542.0625 71.4375 544.9375 L68.7344 545.5781 Q68.0156 543.3125 66.6406 542.2734 Q65.2656 541.2344 63.1875 541.2344 Q60.7969 541.2344 59.1875 542.3828 Q57.5781 543.5312 56.9297 545.4609 Q56.2812 547.3906 56.2812 549.4531 Q56.2812 552.0938 57.0469 554.0703 Q57.8125 556.0469 59.4453 557.0234 Q61.0781 558 62.9688 558 Q65.2812 558 66.8828 556.6719 Q68.4844 555.3438 69.0469 552.7188 ZM87.5366 557.5469 L87.5366 560 L73.8179 560 Q73.7866 559.0781 74.1147 558.2344 Q74.646 556.8281 75.7944 555.4688 Q76.9429 554.1094 79.1304 552.3281 Q82.521 549.5469 83.7085 547.9297 Q84.896 546.3125 84.896 544.8594 Q84.896 543.3438 83.8101 542.3047 Q82.7241 541.2656 80.9897 541.2656 Q79.146 541.2656 78.0444 542.3672 Q76.9429 543.4688 76.9272 545.4219 L74.3022 545.1562 Q74.5679 542.2344 76.3257 540.6953 Q78.0835 539.1562 81.0366 539.1562 Q84.0366 539.1562 85.7788 540.8125 Q87.521 542.4688 87.521 544.9219 Q87.521 546.1719 87.0054 547.375 Q86.4897 548.5781 85.3101 549.9062 Q84.1304 551.2344 81.3804 553.5625 Q79.0835 555.4844 78.4351 556.1719 Q77.7866 556.8594 77.3647 557.5469 L87.5366 557.5469 Z" clip-path="url(#clipPath12)" stroke="none"/></g></g></svg>