<?xml version="1.0" encoding="UTF-8"?><svg xmlns="http://www.w3.org/2000/svg" xmlns:xlink="http://www.w3.org/1999/xlink" stroke-dasharray="none" shape-rendering="auto" font-family="'Dialog'" width="591" text-rendering="auto" fill-opacity="1" contentScriptType="text/ecmascript" color-interpolation="auto" color-rendering="auto" preserveAspectRatio="xMidYMid meet" font-size="12px" fill="black" stroke="black" image-rendering="auto" stroke-miterlimit="10" zoomAndPan="magnify" version="1.0" stroke-linecap="square" stroke-linejoin="miter" contentStyleType="text/css" font-style="normal" height="591" stroke-width="1" stroke-dashoffset="0" font-weight="normal" stroke-opacity="1"><!--Generated by the Batik Graphics2D SVG Generator--><defs id="genericDefs"/><g><defs id="defs1"><clipPath clipPathUnits="userSpaceOnUse" id="clipPath1"><path d="M37 37 L71 37 L71 71 L37 71 L37 37 Z"/></clipPath><clipPath clipPathUnits="userSpaceOnUse" id="clipPath2"><path d="M70 54 C70 62.8366 62.8366 70 54 70 C45.1634 70 38 62.8366 38 54 C38 45.1634 45.1634 38 54 38 C62.8366 38 70 45.1634 70 54 Z"/></clipPath><clipPath clipPathUnits="userSpaceOnUse" id="clipPath3"><path d="M517 517 L551 517 L551 551 L517 551 L517 517 Z"/></clipPath><clipPath clipPathUnits="userSpaceOnUse" id="clipPath4"><path d="M550 534 C550 542.8365 542.8365 550 534 550 C525.1635 550 518 542.8365 518 534 C518 525.1635 525.1635 518 534 518 C542.8365 518 550 525.1635 550 534 Z"/></clipPath><clipPath clipPathUnits="userSpaceOnUse" id="clipPath5"><path d="M533 53 L567 53 L567 87 L533 87 L533 53 Z"/></clipPath><clipPath clipPathUnits="userSpaceOnUse" id="clipPath6"><path d="M566 70 C566 78.8366 558.8365 86 550 86 C541.1635 86 534 78.8366 534 70 C534 61.1634 541.1635 54 550 54 C558.8365 54 566 61.1634 566 70 Z"/></clipPath><clipPath clipPathUnits="userSpaceOnUse" id="clipPath7"><path d="M117 117 L151 117 L151 151 L117 151 L117 117 Z"/></clipPath><clipPath clipPathUnits="userSpaceOnUse" id="clipPath8"><path d="M150 134 C150 142.8366 142.8366 150 134 150 C125.1634 150 118 142.8366 118 134 C118 125.1634 125.1634 118 134 118 C142.8366 118 150 125.1634 150 134 Z"/></clipPath><clipPath clipPathUnits="userSpaceOnUse" id="clipPath9"><path d="M437 437 L471 437 L471 471 L437 471 L437 437 Z"/></clipPath><clipPath clipPathUnits="userSpaceOnUse" id="clipPath10"><path d="M470 454 C470 462.8365 462.8365 470 454 470 C445.1635 470 438 462.8365 438 454 C438 445.1635 445.1635 438 454 438 C462.8365 438 470 445.1635 470 454 Z"/></clipPath><clipPath clipPathUnits="userSpaceOnUse" id="clipPath11"><path d="M437 117 L471 117 L471 151 L437 151 L437 117 Z"/></clipPath><clipPath clipPathUnits="userSpaceOnUse" id="clipPath12"><path d="M470 134 C470 142.8366 462.8365 150 454 150 C445.1635 150 438 142.8366 438 134 C438 125.1634 445.1635 118 454 118 C462.8365 118 470 125.1634 470 134 Z"/></clipPath><clipPath clipPathUnits="userSpaceOnUse" id="clipPath13"><path d="M213 213 L247 213 L247 247 L213 247 L213 213 Z"/></clipPath><clipPath clipPathUnits="userSpaceOnUse" id="clipPath14"><path d="M246 230 C246 238.8366 238.8366 246 230 246 C221.1634 246 214 238.8366 214 230 C214 221.1634 221.1634 214 230 214 C238.8366 214 246 221.1634 246 230 Z"/></clipPath><clipPath clipPathUnits="userSpaceOnUse" id="clipPath15"><path d="M357 357 L391 357 L391 391 L357 391 L357 357 Z"/></clipPath><clipPath clipPathUnits="userSpaceOnUse" id="clipPath16"><path d="M390 374 C390 382.8365 382.8365 390 374 390 C365.1635 390 358 382.8365 358 374 C358 365.1635 365.1635 358 374 358 C382.8365 358 390 365.1635 390 374 Z"/></clipPath><clipPath clipPathUnits="userSpaceOnUse" id="clipPath17"><path d="M469 149 L503 149 L503 183 L469 183 L469 149 Z"/></clipPath><clipPath clipPathUnits="userSpaceOnUse" id="clipPath18"><path d="M502 166 C502 174.8366 494.8365 182 486 182 C477.1635 182 470 174.8366 470 166 C470 157.1634 477.1635 150 486 150 C494.8365 150 502 157.1634 502 166 Z"/></clipPath><clipPath clipPathUnits="userSpaceOnUse" id="clipPath19"><path d="M277 277 L311 277 L311 311 L277 311 L277 277 Z"/></clipPath><clipPath clipPathUnits="userSpaceOnUse" id="clipPath20"><path d="M310 294 C310 302.8365 302.8365 310 294 310 C285.1635 310 278 302.8365 278 294 C278 285.1635 285.1635 278 294 278 C302.8365 278 310 285.1635 310 294 Z"/></clipPath><clipPath clipPathUnits="userSpaceOnUse" id="clipPath21"><path d="M293 373 L327 373 L327 407 L293 407 L293 373 Z"/></clipPath><clipPath clipPathUnits="userSpaceOnUse" id="clipPath22"><path d="M326 390 C326 398.8365 318.8365 406 310 406 C301.1635 406 294 398.8365 294 390 C294 381.1635 301.1635 374 310 374 C318.8365 374 326 381.1635 326 390 Z"/></clipPath><clipPath clipPathUnits="userSpaceOnUse" id="clipPath23"><path d="M373 213 L407 213 L407 247 L373 247 L373 213 Z"/></clipPath><clipPath clipPathUnits="userSpaceOnUse" id="clipPath24"><path d="M406 230 C406 238.8366 398.8365 246 390 246 C381.1635 246 374 238.8366 374 230 C374 221.1634 381.1635 214 390 214 C398.8365 214 406 221.1634 406 230 Z"/></clipPath><clipPath clipPathUnits="userSpaceOnUse" id="clipPath25"><path d="M389 389 L423 389 L423 423 L389 423 L389 389 Z"/></clipPath><clipPath clipPathUnits="userSpaceOnUse" id="clipPath26"><path d="M422 406 C422 414.8365 414.8365 422 406 422 C397.1635 422 390 414.8365 390 406 C390 397.1635 397.1635 390 406 390 C414.8365 390 422 397.1635 422 406 Z"/></clipPath><clipPath clipPathUnits="userSpaceOnUse" id="clipPath27"><path d="M213 293 L247 293 L247 327 L213 327 L213 293 Z"/></clipPath><clipPath clipPathUnits="userSpaceOnUse" id="clipPath28"><path d="M246 310 C246 318.8365 238.8366 326 230 326 C221.1634 326 214 318.8365 214 310 C214 301.1635 221.1634 294 230 294 C238.8366 294 246 301.1635 246 310 Z"/></clipPath><clipPath clipPathUnits="userSpaceOnUse" id="clipPath29"><path d="M309 309 L343 309 L343 343 L309 343 L309 309 Z"/></clipPath><clipPath clipPathUnits="userSpaceOnUse" id="clipPath30"><path d="M342 326 C342 334.8365 334.8365 342 326 342 C317.1635 342 310 334.8365 310 326 C310 317.1635 317.1635 310 326 310 C334.8365 310 342 317.1635 342 326 Z"/></clipPath><clipPath clipPathUnits="userSpaceOnUse" id="clipPath31"><path d="M469 469 L503 469 L503 503 L469 503 L469 469 Z"/></clipPath><clipPath clipPathUnits="userSpaceOnUse" id="clipPath32"><path d="M502 486 C502 494.8365 494.8365 502 486 502 C477.1635 502 470 494.8365 470 486 C470 477.1635 477.1635 470 486 470 C494.8365 470 502 477.1635 502 486 Z"/></clipPath><clipPath clipPathUnits="userSpaceOnUse" id="clipPath33"><path d="M133 213 L167 213 L167 247 L133 247 L133 213 Z"/></clipPath><clipPath clipPathUnits="userSpaceOnUse" id="clipPath34"><path d="M166 230 C166 238.8366 158.8366 246 150 246 C141.1634 246 134 238.8366 134 230 C134 221.1634 141.1634 214 150 214 C158.8366 214 166 221.1634 166 230 Z"/></clipPath><clipPath clipPathUnits="userSpaceOnUse" id="clipPath35"><path d="M213 373 L247 373 L247 407 L213 407 L213 373 Z"/></clipPath><clipPath clipPathUnits="userSpaceOnUse" id="clipPath36"><path d="M246 390 C246 398.8365 238.8366 406 230 406 C221.1634 406 214 398.8365 214 390 C214 381.1635 221.1634 374 230 374 C238.8366 374 246 381.1635 246 390 Z"/></clipPath><clipPath clipPathUnits="userSpaceOnUse" id="clipPath37"><path d="M549 549 L583 549 L583 583 L549 583 L549 549 Z"/></clipPath><clipPath clipPathUnits="userSpaceOnUse" id="clipPath38"><path d="M582 566 C582 574.8365 574.8365 582 566 582 C557.1635 582 550 574.8365 550 566 C550 557.1635 557.1635 550 566 550 C574.8365 550 582 557.1635 582 566 Z"/></clipPath><clipPath clipPathUnits="userSpaceOnUse" id="clipPath39"><path d="M149 149 L183 149 L183 183 L149 183 L149 149 Z"/></clipPath><clipPath clipPathUnits="userSpaceOnUse" id="clipPath40"><path d="M182 166 C182 174.8366 174.8366 182 166 182 C157.1634 182 150 174.8366 150 166 C150 157.1634 157.1634 150 166 150 C174.8366 150 182 157.1634 182 166 Z"/></clipPath><clipPath clipPathUnits="userSpaceOnUse" id="clipPath41"><path d="M133 453 L167 453 L167 487 L133 487 L133 453 Z"/></clipPath><clipPath clipPathUnits="userSpaceOnUse" id="clipPath42"><path d="M166 470 C166 478.8365 158.8366 486 150 486 C141.1634 486 134 478.8365 134 470 C134 461.1635 141.1634 454 150 454 C158.8366 454 166 461.1635 166 470 Z"/></clipPath><clipPath clipPathUnits="userSpaceOnUse" id="clipPath43"><path d="M69 69 L103 69 L103 103 L69 103 L69 69 Z"/></clipPath><clipPath clipPathUnits="userSpaceOnUse" id="clipPath44"><path d="M102 86 C102 94.8366 94.8366 102 86 102 C77.1634 102 70 94.8366 70 86 C70 77.1634 77.1634 70 86 70 C94.8366 70 102 77.1634 102 86 Z"/></clipPath><clipPath clipPathUnits="userSpaceOnUse" id="clipPath45"><path d="M53 533 L87 533 L87 567 L53 567 L53 533 Z"/></clipPath><clipPath clipPathUnits="userSpaceOnUse" id="clipPath46"><path d="M86 550 C86 558.8365 78.8366 566 70 566 C61.1634 566 54 558.8365 54 550 C54 541.1635 61.1634 534 70 534 C78.8366 534 86 541.1635 86 550 Z"/></clipPath></defs><g><line y2="30" fill="none" x1="30" x2="590" y1="30"/><line y2="110" fill="none" x1="30" x2="590" y1="110"/><line y2="190" fill="none" x1="30" x2="590" y1="190"/><line y2="270" fill="none" x1="30" x2="590" y1="270"/><line y2="350" fill="none" x1="30" x2="590" y1="350"/><line y2="430" fill="none" x1="30" x2="590" y1="430"/><line y2="510" fill="none" x1="30" x2="590" y1="510"/><line y2="590" fill="none" x1="30" x2="590" y1="590"/><line y2="590" fill="none" x1="30" x2="30" y1="30"/><line y2="590" fill="none" x1="110" x2="110" y1="30"/><line y2="590" fill="none" x1="190" x2="190" y1="30"/><line y2="590" fill="none" x1="270" x2="270" y1="30"/><line y2="590" fill="none" x1="350" x2="350" y1="30"/><line y2="590" fill="none" x1="430" x2="430" y1="30"/><line y2="590" fill="none" x1="510" x2="510" y1="30"/><line y2="590" fill="none" x1="590" x2="590" y1="30"/><path d="M17.9375 79 L15.8281 79 L15.8281 65.5625 Q15.0781 66.2812 13.8359 67.0078 Q12.5938 67.7344 11.6094 68.0938 L11.6094 66.0625 Q13.3906 65.2344 14.7109 64.0469 Q16.0312 62.8594 16.5781 61.75 L17.9375 61.75 L17.9375 79 Z" stroke="none"/><path d="M21.0781 156.9688 L21.0781 159 L9.7344 159 Q9.7031 158.2344 9.9688 157.5312 Q10.4062 156.375 11.3594 155.25 Q12.3125 154.125 14.125 152.6406 Q16.9219 150.3438 17.9062 149.0078 Q18.8906 147.6719 18.8906 146.4688 Q18.8906 145.2188 17.9922 144.3594 Q17.0938 143.5 15.6562 143.5 Q14.1406 143.5 13.2266 144.4141 Q12.3125 145.3281 12.2969 146.9375 L10.125 146.7188 Q10.3438 144.2969 11.7969 143.0234 Q13.25 141.75 15.7031 141.75 Q18.1719 141.75 19.6172 143.1172 Q21.0625 144.4844 21.0625 146.5156 Q21.0625 147.5469 20.6406 148.5469 Q20.2188 149.5469 19.2422 150.6484 Q18.2656 151.75 15.9844 153.6719 Q14.0938 155.2656 13.5547 155.8281 Q13.0156 156.3906 12.6562 156.9688 L21.0781 156.9688 Z" stroke="none"/><path d="M10.0156 234.4688 L12.125 234.1875 Q12.4844 235.9688 13.3594 236.7656 Q14.2344 237.5625 15.4844 237.5625 Q16.9688 237.5625 17.9922 236.5312 Q19.0156 235.5 19.0156 233.9688 Q19.0156 232.5156 18.0703 231.5703 Q17.125 230.625 15.6562 230.625 Q15.0625 230.625 14.1719 230.8594 L14.4062 229.0156 Q14.6094 229.0312 14.75 229.0312 Q16.0938 229.0312 17.1719 228.3281 Q18.25 227.625 18.25 226.1719 Q18.25 225 17.4609 224.2422 Q16.6719 223.4844 15.4375 223.4844 Q14.2031 223.4844 13.3828 224.2578 Q12.5625 225.0312 12.3281 226.5781 L10.2188 226.2031 Q10.6094 224.0781 11.9766 222.9141 Q13.3438 221.75 15.3906 221.75 Q16.7969 221.75 17.9766 222.3516 Q19.1562 222.9531 19.7891 224 Q20.4219 225.0469 20.4219 226.2188 Q20.4219 227.3281 19.8203 228.2422 Q19.2188 229.1562 18.0469 229.6875 Q19.5781 230.0469 20.4219 231.1562 Q21.2656 232.2656 21.2656 233.9219 Q21.2656 236.1719 19.625 237.7422 Q17.9844 239.3125 15.4688 239.3125 Q13.2031 239.3125 11.7109 237.9609 Q10.2188 236.6094 10.0156 234.4688 Z" stroke="none"/><path d="M16.7656 319 L16.7656 314.8906 L9.3125 314.8906 L9.3125 312.9531 L17.1406 301.8125 L18.875 301.8125 L18.875 312.9531 L21.1875 312.9531 L21.1875 314.8906 L18.875 314.8906 L18.875 319 L16.7656 319 ZM16.7656 312.9531 L16.7656 305.2031 L11.375 312.9531 L16.7656 312.9531 Z" stroke="none"/><path d="M10 394.5 L12.2188 394.3125 Q12.4531 395.9219 13.3516 396.7422 Q14.25 397.5625 15.5156 397.5625 Q17.0469 397.5625 18.1016 396.4141 Q19.1562 395.2656 19.1562 393.3594 Q19.1562 391.5625 18.1406 390.5156 Q17.125 389.4688 15.4844 389.4688 Q14.4688 389.4688 13.6484 389.9297 Q12.8281 390.3906 12.3594 391.1406 L10.375 390.875 L12.0312 382.0469 L20.5781 382.0469 L20.5781 384.0625 L13.7188 384.0625 L12.7969 388.6875 Q14.3438 387.6094 16.0469 387.6094 Q18.2969 387.6094 19.8438 389.1641 Q21.3906 390.7188 21.3906 393.1719 Q21.3906 395.5 20.0312 397.2031 Q18.375 399.2969 15.5156 399.2969 Q13.1719 399.2969 11.6875 397.9844 Q10.2031 396.6719 10 394.5 Z" stroke="none"/><path d="M20.9375 466.0312 L18.8438 466.1875 Q18.5625 464.9531 18.0469 464.3906 Q17.1875 463.4844 15.9375 463.4844 Q14.9375 463.4844 14.1719 464.0469 Q13.1719 464.7656 12.6016 466.1641 Q12.0312 467.5625 12 470.1406 Q12.7656 468.9844 13.8672 468.4219 Q14.9688 467.8594 16.1719 467.8594 Q18.2812 467.8594 19.7656 469.4062 Q21.25 470.9531 21.25 473.4219 Q21.25 475.0312 20.5547 476.4219 Q19.8594 477.8125 18.6406 478.5547 Q17.4219 479.2969 15.875 479.2969 Q13.2344 479.2969 11.5703 477.3516 Q9.9062 475.4062 9.9062 470.9531 Q9.9062 465.9844 11.75 463.7188 Q13.3438 461.75 16.0625 461.75 Q18.0938 461.75 19.3906 462.8828 Q20.6875 464.0156 20.9375 466.0312 ZM12.3281 473.4375 Q12.3281 474.5156 12.7891 475.5156 Q13.25 476.5156 14.0859 477.0391 Q14.9219 477.5625 15.8281 477.5625 Q17.1719 477.5625 18.1328 476.4844 Q19.0938 475.4062 19.0938 473.5469 Q19.0938 471.7656 18.1406 470.7422 Q17.1875 469.7188 15.75 469.7188 Q14.3281 469.7188 13.3281 470.7422 Q12.3281 471.7656 12.3281 473.4375 Z" stroke="none"/><path d="M10.1406 544.0625 L10.1406 542.0469 L21.2656 542.0469 L21.2656 543.6875 Q19.625 545.4219 18.0078 548.3203 Q16.3906 551.2188 15.5156 554.2812 Q14.8906 556.4375 14.7031 559 L12.5469 559 Q12.5781 556.9688 13.3359 554.1016 Q14.0938 551.2344 15.5234 548.5625 Q16.9531 545.8906 18.5469 544.0625 L10.1406 544.0625 Z" stroke="none"/><path d="M72.9375 24 L70.8281 24 L70.8281 10.5625 Q70.0781 11.2812 68.8359 12.0078 Q67.5938 12.7344 66.6094 13.0938 L66.6094 11.0625 Q68.3906 10.2344 69.7109 9.0469 Q71.0312 7.8594 71.5781 6.75 L72.9375 6.75 L72.9375 24 Z" stroke="none"/><path d="M156.0781 21.9688 L156.0781 24 L144.7344 24 Q144.7031 23.2344 144.9688 22.5312 Q145.4062 21.375 146.3594 20.25 Q147.3125 19.125 149.125 17.6406 Q151.9219 15.3438 152.9062 14.0078 Q153.8906 12.6719 153.8906 11.4688 Q153.8906 10.2188 152.9922 9.3594 Q152.0938 8.5 150.6562 8.5 Q149.1406 8.5 148.2266 9.4141 Q147.3125 10.3281 147.2969 11.9375 L145.125 11.7188 Q145.3438 9.2969 146.7969 8.0234 Q148.25 6.75 150.7031 6.75 Q153.1719 6.75 154.6172 8.1172 Q156.0625 9.4844 156.0625 11.5156 Q156.0625 12.5469 155.6406 13.5469 Q155.2188 14.5469 154.2422 15.6484 Q153.2656 16.75 150.9844 18.6719 Q149.0938 20.2656 148.5547 20.8281 Q148.0156 21.3906 147.6562 21.9688 L156.0781 21.9688 Z" stroke="none"/><path d="M225.0156 19.4688 L227.125 19.1875 Q227.4844 20.9688 228.3594 21.7656 Q229.2344 22.5625 230.4844 22.5625 Q231.9688 22.5625 232.9922 21.5312 Q234.0156 20.5 234.0156 18.9688 Q234.0156 17.5156 233.0703 16.5703 Q232.125 15.625 230.6562 15.625 Q230.0625 15.625 229.1719 15.8594 L229.4062 14.0156 Q229.6094 14.0312 229.75 14.0312 Q231.0938 14.0312 232.1719 13.3281 Q233.25 12.625 233.25 11.1719 Q233.25 10 232.4609 9.2422 Q231.6719 8.4844 230.4375 8.4844 Q229.2031 8.4844 228.3828 9.2578 Q227.5625 10.0312 227.3281 11.5781 L225.2188 11.2031 Q225.6094 9.0781 226.9766 7.9141 Q228.3438 6.75 230.3906 6.75 Q231.7969 6.75 232.9766 7.3516 Q234.1562 7.9531 234.7891 9 Q235.4219 10.0469 235.4219 11.2188 Q235.4219 12.3281 234.8203 13.2422 Q234.2188 14.1562 233.0469 14.6875 Q234.5781 15.0469 235.4219 16.1562 Q236.2656 17.2656 236.2656 18.9219 Q236.2656 21.1719 234.625 22.7422 Q232.9844 24.3125 230.4688 24.3125 Q228.2031 24.3125 226.7109 22.9609 Q225.2188 21.6094 225.0156 19.4688 Z" stroke="none"/><path d="M311.7656 24 L311.7656 19.8906 L304.3125 19.8906 L304.3125 17.9531 L312.1406 6.8125 L313.875 6.8125 L313.875 17.9531 L316.1875 17.9531 L316.1875 19.8906 L313.875 19.8906 L313.875 24 L311.7656 24 ZM311.7656 17.9531 L311.7656 10.2031 L306.375 17.9531 L311.7656 17.9531 Z" stroke="none"/><path d="M385 19.5 L387.2188 19.3125 Q387.4531 20.9219 388.3516 21.7422 Q389.25 22.5625 390.5156 22.5625 Q392.0469 22.5625 393.1016 21.4141 Q394.1562 20.2656 394.1562 18.3594 Q394.1562 16.5625 393.1406 15.5156 Q392.125 14.4688 390.4844 14.4688 Q389.4688 14.4688 388.6484 14.9297 Q387.8281 15.3906 387.3594 16.1406 L385.375 15.875 L387.0312 7.0469 L395.5781 7.0469 L395.5781 9.0625 L388.7188 9.0625 L387.7969 13.6875 Q389.3438 12.6094 391.0469 12.6094 Q393.2969 12.6094 394.8438 14.1641 Q396.3906 15.7188 396.3906 18.1719 Q396.3906 20.5 395.0312 22.2031 Q393.375 24.2969 390.5156 24.2969 Q388.1719 24.2969 386.6875 22.9844 Q385.2031 21.6719 385 19.5 Z" stroke="none"/><path d="M475.9375 11.0312 L473.8438 11.1875 Q473.5625 9.9531 473.0469 9.3906 Q472.1875 8.4844 470.9375 8.4844 Q469.9375 8.4844 469.1719 9.0469 Q468.1719 9.7656 467.6016 11.1641 Q467.0312 12.5625 467 15.1406 Q467.7656 13.9844 468.8672 13.4219 Q469.9688 12.8594 471.1719 12.8594 Q473.2812 12.8594 474.7656 14.4062 Q476.25 15.9531 476.25 18.4219 Q476.25 20.0312 475.5547 21.4219 Q474.8594 22.8125 473.6406 23.5547 Q472.4219 24.2969 470.875 24.2969 Q468.2344 24.2969 466.5703 22.3516 Q464.9062 20.4062 464.9062 15.9531 Q464.9062 10.9844 466.75 8.7188 Q468.3438 6.75 471.0625 6.75 Q473.0938 6.75 474.3906 7.8828 Q475.6875 9.0156 475.9375 11.0312 ZM467.3281 18.4375 Q467.3281 19.5156 467.7891 20.5156 Q468.25 21.5156 469.0859 22.0391 Q469.9219 22.5625 470.8281 22.5625 Q472.1719 22.5625 473.1328 21.4844 Q474.0938 20.4062 474.0938 18.5469 Q474.0938 16.7656 473.1406 15.7422 Q472.1875 14.7188 470.75 14.7188 Q469.3281 14.7188 468.3281 15.7422 Q467.3281 16.7656 467.3281 18.4375 Z" stroke="none"/><path d="M545.1406 9.0625 L545.1406 7.0469 L556.2656 7.0469 L556.2656 8.6875 Q554.625 10.4219 553.0078 13.3203 Q551.3906 16.2188 550.5156 19.2812 Q549.8906 21.4375 549.7031 24 L547.5469 24 Q547.5781 21.9688 548.3359 19.1016 Q549.0938 16.2344 550.5234 13.5625 Q551.9531 10.8906 553.5469 9.0625 L545.1406 9.0625 Z" stroke="none"/></g><g fill="rgb(30,144,255)" font-size="24px" font-family="'Arial'" stroke="rgb(30,144,255)"><circle r="16" clip-path="url(#clipPath1)" cx="54" cy="54" stroke="none"/><circle fill="none" r="16" clip-path="url(#clipPath1)" cx="54" cy="54" stroke="black"/><path fill="black" d="M38.9688 63 L45.8438 45.1094 L48.3906 45.1094 L55.7188 63 L53.0156 63 L50.9219 57.5781 L43.4375 57.5781 L41.4844 63 L38.9688 63 ZM44.125 55.6562 L50.1875 55.6562 L48.3281 50.6875 Q47.4688 48.4375 47.0625 46.9844 Q46.7188 48.7031 46.0938 50.4062 L44.125 55.6562 ZM64.9873 63 L62.7842 63 L62.7842 49 Q62.0029 49.75 60.7139 50.5078 Q59.4248 51.2656 58.3936 51.6406 L58.3936 49.5156 Q60.2373 48.6562 61.6201 47.4219 Q63.0029 46.1875 63.5654 45.0312 L64.9873 45.0312 L64.9873 63 Z" clip-path="url(#clipPath2)" stroke="none"/><circle fill="rgb(144,238,144)" r="16" clip-path="url(#clipPath3)" cx="534" cy="534" stroke="none"/><circle fill="none" r="16" clip-path="url(#clipPath3)" cx="534" cy="534" stroke="black"/><path fill="black" d="M521.6875 542 L521.6875 525.5312 L527.8594 525.5312 Q529.75 525.5312 530.8906 526.0312 Q532.0312 526.5312 532.6719 527.5703 Q533.3125 528.6094 533.3125 529.75 Q533.3125 530.7969 532.7422 531.7344 Q532.1719 532.6719 531.0156 533.2344 Q532.5156 533.6719 533.3125 534.7344 Q534.1094 535.7969 534.1094 537.2344 Q534.1094 538.3906 533.625 539.3828 Q533.1406 540.375 532.4219 540.9141 Q531.7031 541.4531 530.6172 541.7266 Q529.5312 542 527.9688 542 L521.6875 542 ZM523.8594 532.4531 L527.4219 532.4531 Q528.875 532.4531 529.5 532.2656 Q530.3281 532.0156 530.75 531.4453 Q531.1719 530.875 531.1719 530 Q531.1719 529.1875 530.7812 528.5625 Q530.3906 527.9375 529.6562 527.7109 Q528.9219 527.4844 527.1562 527.4844 L523.8594 527.4844 L523.8594 532.4531 ZM523.8594 540.0625 L527.9688 540.0625 Q529.0156 540.0625 529.4375 539.9844 Q530.2031 539.8438 530.7031 539.5312 Q531.2031 539.2188 531.5312 538.6172 Q531.8594 538.0156 531.8594 537.2344 Q531.8594 536.3125 531.3906 535.6328 Q530.9219 534.9531 530.0859 534.6719 Q529.25 534.3906 527.6719 534.3906 L523.8594 534.3906 L523.8594 540.0625 ZM543.9033 542 L541.8877 542 L541.8877 529.125 Q541.1533 529.8125 539.9736 530.5078 Q538.7939 531.2031 537.8408 531.5625 L537.8408 529.5938 Q539.5439 528.7969 540.8096 527.6641 Q542.0752 526.5312 542.6064 525.4688 L543.9033 525.4688 L543.9033 542 Z" clip-path="url(#clipPath4)" stroke="none"/><circle fill="rgb(250,128,114)" r="16" clip-path="url(#clipPath5)" cx="550" cy="70" stroke="none"/><circle fill="none" r="16" clip-path="url(#clipPath5)" cx="550" cy="70" stroke="black"/><path fill="black" d="M548.5156 72.2344 L550.7031 72.7812 Q550.0156 75.4688 548.2344 76.875 Q546.4531 78.2812 543.8906 78.2812 Q541.2188 78.2812 539.5547 77.1953 Q537.8906 76.1094 537.0156 74.0547 Q536.1406 72 536.1406 69.6406 Q536.1406 67.0781 537.125 65.1641 Q538.1094 63.25 539.9219 62.25 Q541.7344 61.25 543.9219 61.25 Q546.3906 61.25 548.0703 62.5078 Q549.75 63.7656 550.4219 66.0469 L548.2812 66.5625 Q547.7031 64.7656 546.6094 63.9453 Q545.5156 63.125 543.875 63.125 Q541.9688 63.125 540.6953 64.0312 Q539.4219 64.9375 538.9062 66.4688 Q538.3906 68 538.3906 69.6406 Q538.3906 71.7344 539 73.2969 Q539.6094 74.8594 540.9062 75.6406 Q542.2031 76.4219 543.7031 76.4219 Q545.5312 76.4219 546.8047 75.3672 Q548.0781 74.3125 548.5156 72.2344 ZM560.1724 78 L558.1567 78 L558.1567 65.125 Q557.4224 65.8125 556.2427 66.5078 Q555.063 67.2031 554.1099 67.5625 L554.1099 65.5938 Q555.813 64.7969 557.0786 63.6641 Q558.3442 62.5312 558.8755 61.4688 L560.1724 61.4688 L560.1724 78 Z" clip-path="url(#clipPath6)" stroke="none"/><circle r="16" clip-path="url(#clipPath7)" cx="134" cy="134" stroke="none"/><circle fill="none" r="16" clip-path="url(#clipPath7)" cx="134" cy="134" stroke="black"/><path fill="black" d="M118.9688 143 L125.8438 125.1094 L128.3906 125.1094 L135.7188 143 L133.0156 143 L130.9219 137.5781 L123.4375 137.5781 L121.4844 143 L118.9688 143 ZM124.125 135.6562 L130.1875 135.6562 L128.3281 130.6875 Q127.4688 128.4375 127.0625 126.9844 Q126.7188 128.7031 126.0938 130.4062 L124.125 135.6562 ZM148.2529 140.8906 L148.2529 143 L136.4248 143 Q136.4092 142.2031 136.6904 141.4688 Q137.1436 140.2656 138.1357 139.0938 Q139.1279 137.9219 141.0029 136.3906 Q143.9248 133.9844 144.9482 132.5938 Q145.9717 131.2031 145.9717 129.9531 Q145.9717 128.6406 145.042 127.7422 Q144.1123 126.8438 142.6123 126.8438 Q141.0186 126.8438 140.0654 127.7969 Q139.1123 128.75 139.1123 130.4375 L136.8467 130.2031 Q137.0811 127.6875 138.5967 126.3594 Q140.1123 125.0312 142.6592 125.0312 Q145.2373 125.0312 146.7373 126.4609 Q148.2373 127.8906 148.2373 130 Q148.2373 131.0781 147.7998 132.1172 Q147.3623 133.1562 146.3389 134.2969 Q145.3154 135.4375 142.9561 137.4531 Q140.9717 139.1094 140.4092 139.7031 Q139.8467 140.2969 139.4873 140.8906 L148.2529 140.8906 Z" clip-path="url(#clipPath8)" stroke="none"/><circle fill="rgb(144,238,144)" r="16" clip-path="url(#clipPath9)" cx="454" cy="454" stroke="none"/><circle fill="none" r="16" clip-path="url(#clipPath9)" cx="454" cy="454" stroke="black"/><path fill="black" d="M441.6875 462 L441.6875 445.5312 L447.8594 445.5312 Q449.75 445.5312 450.8906 446.0312 Q452.0312 446.5312 452.6719 447.5703 Q453.3125 448.6094 453.3125 449.75 Q453.3125 450.7969 452.7422 451.7344 Q452.1719 452.6719 451.0156 453.2344 Q452.5156 453.6719 453.3125 454.7344 Q454.1094 455.7969 454.1094 457.2344 Q454.1094 458.3906 453.625 459.3828 Q453.1406 460.375 452.4219 460.9141 Q451.7031 461.4531 450.6172 461.7266 Q449.5312 462 447.9688 462 L441.6875 462 ZM443.8594 452.4531 L447.4219 452.4531 Q448.875 452.4531 449.5 452.2656 Q450.3281 452.0156 450.75 451.4453 Q451.1719 450.875 451.1719 450 Q451.1719 449.1875 450.7812 448.5625 Q450.3906 447.9375 449.6562 447.7109 Q448.9219 447.4844 447.1562 447.4844 L443.8594 447.4844 L443.8594 452.4531 ZM443.8594 460.0625 L447.9688 460.0625 Q449.0156 460.0625 449.4375 459.9844 Q450.2031 459.8438 450.7031 459.5312 Q451.2031 459.2188 451.5312 458.6172 Q451.8594 458.0156 451.8594 457.2344 Q451.8594 456.3125 451.3906 455.6328 Q450.9219 454.9531 450.0859 454.6719 Q449.25 454.3906 447.6719 454.3906 L443.8594 454.3906 L443.8594 460.0625 ZM466.9189 460.0625 L466.9189 462 L456.0439 462 Q456.0127 461.2656 456.2783 460.5938 Q456.6846 459.4844 457.5986 458.4062 Q458.5127 457.3281 460.2471 455.9062 Q462.9346 453.7188 463.8799 452.4297 Q464.8252 451.1406 464.8252 450 Q464.8252 448.7969 463.9658 447.9688 Q463.1064 447.1406 461.7158 447.1406 Q460.2627 447.1406 459.3877 448.0156 Q458.5127 448.8906 458.4971 450.4375 L456.4189 450.2344 Q456.6377 447.9062 458.0283 446.6875 Q459.4189 445.4688 461.7627 445.4688 Q464.1377 445.4688 465.5205 446.7812 Q466.9033 448.0938 466.9033 450.0469 Q466.9033 451.0312 466.4971 451.9844 Q466.0908 452.9375 465.1533 453.9922 Q464.2158 455.0469 462.0283 456.8906 Q460.2158 458.4219 459.7002 458.9609 Q459.1846 459.5 458.8408 460.0625 L466.9189 460.0625 Z" clip-path="url(#clipPath10)" stroke="none"/><circle fill="rgb(250,128,114)" r="16" clip-path="url(#clipPath11)" cx="454" cy="134" stroke="none"/><circle fill="none" r="16" clip-path="url(#clipPath11)" cx="454" cy="134" stroke="black"/><path fill="black" d="M452.5156 136.2344 L454.7031 136.7812 Q454.0156 139.4688 452.2344 140.875 Q450.4531 142.2812 447.8906 142.2812 Q445.2188 142.2812 443.5547 141.1953 Q441.8906 140.1094 441.0156 138.0547 Q440.1406 136 440.1406 133.6406 Q440.1406 131.0781 441.125 129.1641 Q442.1094 127.25 443.9219 126.25 Q445.7344 125.25 447.9219 125.25 Q450.3906 125.25 452.0703 126.5078 Q453.75 127.7656 454.4219 130.0469 L452.2812 130.5625 Q451.7031 128.7656 450.6094 127.9453 Q449.5156 127.125 447.875 127.125 Q445.9688 127.125 444.6953 128.0312 Q443.4219 128.9375 442.9062 130.4688 Q442.3906 132 442.3906 133.6406 Q442.3906 135.7344 443 137.2969 Q443.6094 138.8594 444.9062 139.6406 Q446.2031 140.4219 447.7031 140.4219 Q449.5312 140.4219 450.8047 139.3672 Q452.0781 138.3125 452.5156 136.2344 ZM467.188 140.0625 L467.188 142 L456.313 142 Q456.2817 141.2656 456.5474 140.5938 Q456.9536 139.4844 457.8677 138.4062 Q458.7817 137.3281 460.5161 135.9062 Q463.2036 133.7188 464.1489 132.4297 Q465.0942 131.1406 465.0942 130 Q465.0942 128.7969 464.2349 127.9688 Q463.3755 127.1406 461.9849 127.1406 Q460.5317 127.1406 459.6567 128.0156 Q458.7817 128.8906 458.7661 130.4375 L456.688 130.2344 Q456.9067 127.9062 458.2974 126.6875 Q459.688 125.4688 462.0317 125.4688 Q464.4067 125.4688 465.7896 126.7812 Q467.1724 128.0938 467.1724 130.0469 Q467.1724 131.0312 466.7661 131.9844 Q466.3599 132.9375 465.4224 133.9922 Q464.4849 135.0469 462.2974 136.8906 Q460.4849 138.4219 459.9692 138.9609 Q459.4536 139.5 459.1099 140.0625 L467.188 140.0625 Z" clip-path="url(#clipPath12)" stroke="none"/><circle r="16" clip-path="url(#clipPath13)" cx="230" cy="230" stroke="none"/><circle fill="none" r="16" clip-path="url(#clipPath13)" cx="230" cy="230" stroke="black"/><path fill="black" d="M214.9688 239 L221.8438 221.1094 L224.3906 221.1094 L231.7188 239 L229.0156 239 L226.9219 233.5781 L219.4375 233.5781 L217.4844 239 L214.9688 239 ZM220.125 231.6562 L226.1875 231.6562 L224.3281 226.6875 Q223.4688 224.4375 223.0625 222.9844 Q222.7188 224.7031 222.0938 226.4062 L220.125 231.6562 ZM232.7217 234.2812 L234.9248 233.9844 Q235.2998 235.8438 236.2061 236.6719 Q237.1123 237.5 238.4248 237.5 Q239.9717 237.5 241.042 236.4219 Q242.1123 235.3438 242.1123 233.7656 Q242.1123 232.25 241.1201 231.2656 Q240.1279 230.2812 238.6123 230.2812 Q237.9873 230.2812 237.0654 230.5312 L237.2998 228.5938 Q237.5186 228.625 237.6592 228.625 Q239.0654 228.625 240.1826 227.8906 Q241.2998 227.1562 241.2998 225.6406 Q241.2998 224.4219 240.4873 223.6328 Q239.6748 222.8438 238.3779 222.8438 Q237.0967 222.8438 236.2451 223.6484 Q235.3936 224.4531 235.1436 226.0625 L232.9404 225.6719 Q233.3467 223.4531 234.7764 222.2422 Q236.2061 221.0312 238.3311 221.0312 Q239.7998 221.0312 241.0264 221.6562 Q242.2529 222.2812 242.9092 223.375 Q243.5654 224.4688 243.5654 225.6875 Q243.5654 226.8438 242.9404 227.7969 Q242.3154 228.75 241.0967 229.3125 Q242.6904 229.6719 243.5654 230.8281 Q244.4404 231.9844 244.4404 233.7188 Q244.4404 236.0625 242.7295 237.6875 Q241.0186 239.3125 238.4092 239.3125 Q236.0498 239.3125 234.4951 237.9141 Q232.9404 236.5156 232.7217 234.2812 Z" clip-path="url(#clipPath14)" stroke="none"/><circle fill="rgb(144,238,144)" r="16" clip-path="url(#clipPath15)" cx="374" cy="374" stroke="none"/><circle fill="none" r="16" clip-path="url(#clipPath15)" cx="374" cy="374" stroke="black"/><path fill="black" d="M361.6875 382 L361.6875 365.5312 L367.8594 365.5312 Q369.75 365.5312 370.8906 366.0312 Q372.0312 366.5312 372.6719 367.5703 Q373.3125 368.6094 373.3125 369.75 Q373.3125 370.7969 372.7422 371.7344 Q372.1719 372.6719 371.0156 373.2344 Q372.5156 373.6719 373.3125 374.7344 Q374.1094 375.7969 374.1094 377.2344 Q374.1094 378.3906 373.625 379.3828 Q373.1406 380.375 372.4219 380.9141 Q371.7031 381.4531 370.6172 381.7266 Q369.5312 382 367.9688 382 L361.6875 382 ZM363.8594 372.4531 L367.4219 372.4531 Q368.875 372.4531 369.5 372.2656 Q370.3281 372.0156 370.75 371.4453 Q371.1719 370.875 371.1719 370 Q371.1719 369.1875 370.7812 368.5625 Q370.3906 367.9375 369.6562 367.7109 Q368.9219 367.4844 367.1562 367.4844 L363.8594 367.4844 L363.8594 372.4531 ZM363.8594 380.0625 L367.9688 380.0625 Q369.0156 380.0625 369.4375 379.9844 Q370.2031 379.8438 370.7031 379.5312 Q371.2031 379.2188 371.5312 378.6172 Q371.8594 378.0156 371.8594 377.2344 Q371.8594 376.3125 371.3906 375.6328 Q370.9219 374.9531 370.0859 374.6719 Q369.25 374.3906 367.6719 374.3906 L363.8594 374.3906 L363.8594 380.0625 ZM376.3096 377.6562 L378.3252 377.3906 Q378.6689 379.1094 379.5127 379.8672 Q380.3564 380.625 381.5439 380.625 Q382.9814 380.625 383.9658 379.6328 Q384.9502 378.6406 384.9502 377.1875 Q384.9502 375.7969 384.0361 374.8906 Q383.1221 373.9844 381.7158 373.9844 Q381.1533 373.9844 380.2939 374.2031 L380.5127 372.4375 Q380.7158 372.4531 380.8408 372.4531 Q382.1377 372.4531 383.1689 371.7812 Q384.2002 371.1094 384.2002 369.7031 Q384.2002 368.5938 383.4502 367.8594 Q382.7002 367.125 381.5127 367.125 Q380.3252 367.125 379.5439 367.8672 Q378.7627 368.6094 378.5283 370.0938 L376.5127 369.7344 Q376.8721 367.7031 378.1924 366.5859 Q379.5127 365.4688 381.4658 365.4688 Q382.8096 365.4688 383.9424 366.0469 Q385.0752 366.625 385.6768 367.625 Q386.2783 368.625 386.2783 369.75 Q386.2783 370.8125 385.708 371.6875 Q385.1377 372.5625 384.0127 373.0781 Q385.4658 373.4219 386.2783 374.4844 Q387.0908 375.5469 387.0908 377.1406 Q387.0908 379.2969 385.5205 380.7969 Q383.9502 382.2969 381.5439 382.2969 Q379.3721 382.2969 377.9424 381 Q376.5127 379.7031 376.3096 377.6562 Z" clip-path="url(#clipPath16)" stroke="none"/><circle fill="rgb(250,128,114)" r="16" clip-path="url(#clipPath17)" cx="486" cy="166" stroke="none"/><circle fill="none" r="16" clip-path="url(#clipPath17)" cx="486" cy="166" stroke="black"/><path fill="black" d="M484.5156 168.2344 L486.7031 168.7812 Q486.0156 171.4688 484.2344 172.875 Q482.4531 174.2812 479.8906 174.2812 Q477.2188 174.2812 475.5547 173.1953 Q473.8906 172.1094 473.0156 170.0547 Q472.1406 168 472.1406 165.6406 Q472.1406 163.0781 473.125 161.1641 Q474.1094 159.25 475.9219 158.25 Q477.7344 157.25 479.9219 157.25 Q482.3906 157.25 484.0703 158.5078 Q485.75 159.7656 486.4219 162.0469 L484.2812 162.5625 Q483.7031 160.7656 482.6094 159.9453 Q481.5156 159.125 479.875 159.125 Q477.9688 159.125 476.6953 160.0312 Q475.4219 160.9375 474.9062 162.4688 Q474.3906 164 474.3906 165.6406 Q474.3906 167.7344 475 169.2969 Q475.6094 170.8594 476.9062 171.6406 Q478.2031 172.4219 479.7031 172.4219 Q481.5312 172.4219 482.8047 171.3672 Q484.0781 170.3125 484.5156 168.2344 ZM488.5786 169.6562 L490.5942 169.3906 Q490.938 171.1094 491.7817 171.8672 Q492.6255 172.625 493.813 172.625 Q495.2505 172.625 496.2349 171.6328 Q497.2192 170.6406 497.2192 169.1875 Q497.2192 167.7969 496.3052 166.8906 Q495.3911 165.9844 493.9849 165.9844 Q493.4224 165.9844 492.563 166.2031 L492.7817 164.4375 Q492.9849 164.4531 493.1099 164.4531 Q494.4067 164.4531 495.438 163.7812 Q496.4692 163.1094 496.4692 161.7031 Q496.4692 160.5938 495.7192 159.8594 Q494.9692 159.125 493.7817 159.125 Q492.5942 159.125 491.813 159.8672 Q491.0317 160.6094 490.7974 162.0938 L488.7817 161.7344 Q489.1411 159.7031 490.4614 158.5859 Q491.7817 157.4688 493.7349 157.4688 Q495.0786 157.4688 496.2114 158.0469 Q497.3442 158.625 497.9458 159.625 Q498.5474 160.625 498.5474 161.75 Q498.5474 162.8125 497.9771 163.6875 Q497.4067 164.5625 496.2817 165.0781 Q497.7349 165.4219 498.5474 166.4844 Q499.3599 167.5469 499.3599 169.1406 Q499.3599 171.2969 497.7896 172.7969 Q496.2192 174.2969 493.813 174.2969 Q491.6411 174.2969 490.2114 173 Q488.7817 171.7031 488.5786 169.6562 Z" clip-path="url(#clipPath18)" stroke="none"/><circle r="16" clip-path="url(#clipPath19)" cx="294" cy="294" stroke="none"/><circle fill="none" r="16" clip-path="url(#clipPath19)" cx="294" cy="294" stroke="black"/><path fill="black" d="M278.9688 303 L285.8438 285.1094 L288.3906 285.1094 L295.7188 303 L293.0156 303 L290.9219 297.5781 L283.4375 297.5781 L281.4844 303 L278.9688 303 ZM284.125 295.6562 L290.1875 295.6562 L288.3281 290.6875 Q287.4688 288.4375 287.0625 286.9844 Q286.7188 288.7031 286.0938 290.4062 L284.125 295.6562 ZM303.7529 303 L303.7529 298.7188 L295.9873 298.7188 L295.9873 296.7031 L304.1592 285.1094 L305.9561 285.1094 L305.9561 296.7031 L308.3779 296.7031 L308.3779 298.7188 L305.9561 298.7188 L305.9561 303 L303.7529 303 ZM303.7529 296.7031 L303.7529 288.625 L298.1592 296.7031 L303.7529 296.7031 Z" clip-path="url(#clipPath20)" stroke="none"/><circle fill="rgb(144,238,144)" r="16" clip-path="url(#clipPath21)" cx="310" cy="390" stroke="none"/><circle fill="none" r="16" clip-path="url(#clipPath21)" cx="310" cy="390" stroke="black"/><path fill="black" d="M297.6875 398 L297.6875 381.5312 L303.8594 381.5312 Q305.75 381.5312 306.8906 382.0312 Q308.0312 382.5312 308.6719 383.5703 Q309.3125 384.6094 309.3125 385.75 Q309.3125 386.7969 308.7422 387.7344 Q308.1719 388.6719 307.0156 389.2344 Q308.5156 389.6719 309.3125 390.7344 Q310.1094 391.7969 310.1094 393.2344 Q310.1094 394.3906 309.625 395.3828 Q309.1406 396.375 308.4219 396.9141 Q307.7031 397.4531 306.6172 397.7266 Q305.5312 398 303.9688 398 L297.6875 398 ZM299.8594 388.4531 L303.4219 388.4531 Q304.875 388.4531 305.5 388.2656 Q306.3281 388.0156 306.75 387.4453 Q307.1719 386.875 307.1719 386 Q307.1719 385.1875 306.7812 384.5625 Q306.3906 383.9375 305.6562 383.7109 Q304.9219 383.4844 303.1562 383.4844 L299.8594 383.4844 L299.8594 388.4531 ZM299.8594 396.0625 L303.9688 396.0625 Q305.0156 396.0625 305.4375 395.9844 Q306.2031 395.8438 306.7031 395.5312 Q307.2031 395.2188 307.5312 394.6172 Q307.8594 394.0156 307.8594 393.2344 Q307.8594 392.3125 307.3906 391.6328 Q306.9219 390.9531 306.0859 390.6719 Q305.25 390.3906 303.6719 390.3906 L299.8594 390.3906 L299.8594 396.0625 ZM318.7783 398 L318.7783 394.0625 L311.6377 394.0625 L311.6377 392.2031 L319.1533 381.5312 L320.7939 381.5312 L320.7939 392.2031 L323.0283 392.2031 L323.0283 394.0625 L320.7939 394.0625 L320.7939 398 L318.7783 398 ZM318.7783 392.2031 L318.7783 384.7812 L313.6221 392.2031 L318.7783 392.2031 Z" clip-path="url(#clipPath22)" stroke="none"/><circle fill="rgb(250,128,114)" r="16" clip-path="url(#clipPath23)" cx="390" cy="230" stroke="none"/><circle fill="none" r="16" clip-path="url(#clipPath23)" cx="390" cy="230" stroke="black"/><path fill="black" d="M388.5156 232.2344 L390.7031 232.7812 Q390.0156 235.4688 388.2344 236.875 Q386.4531 238.2812 383.8906 238.2812 Q381.2188 238.2812 379.5547 237.1953 Q377.8906 236.1094 377.0156 234.0547 Q376.1406 232 376.1406 229.6406 Q376.1406 227.0781 377.125 225.1641 Q378.1094 223.25 379.9219 222.25 Q381.7344 221.25 383.9219 221.25 Q386.3906 221.25 388.0703 222.5078 Q389.75 223.7656 390.4219 226.0469 L388.2812 226.5625 Q387.7031 224.7656 386.6094 223.9453 Q385.5156 223.125 383.875 223.125 Q381.9688 223.125 380.6953 224.0312 Q379.4219 224.9375 378.9062 226.4688 Q378.3906 228 378.3906 229.6406 Q378.3906 231.7344 379 233.2969 Q379.6094 234.8594 380.9062 235.6406 Q382.2031 236.4219 383.7031 236.4219 Q385.5312 236.4219 386.8047 235.3672 Q388.0781 234.3125 388.5156 232.2344 ZM399.0474 238 L399.0474 234.0625 L391.9067 234.0625 L391.9067 232.2031 L399.4224 221.5312 L401.063 221.5312 L401.063 232.2031 L403.2974 232.2031 L403.2974 234.0625 L401.063 234.0625 L401.063 238 L399.0474 238 ZM399.0474 232.2031 L399.0474 224.7812 L393.8911 232.2031 L399.0474 232.2031 Z" clip-path="url(#clipPath24)" stroke="none"/><circle r="16" clip-path="url(#clipPath25)" cx="406" cy="406" stroke="none"/><circle fill="none" r="16" clip-path="url(#clipPath25)" cx="406" cy="406" stroke="black"/><path fill="black" d="M390.9688 415 L397.8438 397.1094 L400.3906 397.1094 L407.7188 415 L405.0156 415 L402.9219 409.5781 L395.4375 409.5781 L393.4844 415 L390.9688 415 ZM396.125 407.6562 L402.1875 407.6562 L400.3281 402.6875 Q399.4688 400.4375 399.0625 398.9844 Q398.7188 400.7031 398.0938 402.4062 L396.125 407.6562 ZM408.7061 410.3125 L411.0186 410.1094 Q411.2686 411.7969 412.2061 412.6484 Q413.1436 413.5 414.4561 413.5 Q416.0498 413.5 417.1514 412.3047 Q418.2529 411.1094 418.2529 409.125 Q418.2529 407.25 417.1904 406.1641 Q416.1279 405.0781 414.4248 405.0781 Q413.3623 405.0781 412.5107 405.5625 Q411.6592 406.0469 411.1592 406.8125 L409.0967 406.5469 L410.8311 397.3438 L419.7373 397.3438 L419.7373 399.4531 L412.5967 399.4531 L411.6279 404.25 Q413.2373 403.1406 415.0186 403.1406 Q417.3623 403.1406 418.9717 404.7578 Q420.5811 406.375 420.5811 408.9375 Q420.5811 411.3594 419.1592 413.125 Q417.4404 415.3125 414.4561 415.3125 Q412.0186 415.3125 410.4717 413.9453 Q408.9248 412.5781 408.7061 410.3125 Z" clip-path="url(#clipPath26)" stroke="none"/><circle fill="rgb(144,238,144)" r="16" clip-path="url(#clipPath27)" cx="230" cy="310" stroke="none"/><circle fill="none" r="16" clip-path="url(#clipPath27)" cx="230" cy="310" stroke="black"/><path fill="black" d="M217.6875 318 L217.6875 301.5312 L223.8594 301.5312 Q225.75 301.5312 226.8906 302.0312 Q228.0312 302.5312 228.6719 303.5703 Q229.3125 304.6094 229.3125 305.75 Q229.3125 306.7969 228.7422 307.7344 Q228.1719 308.6719 227.0156 309.2344 Q228.5156 309.6719 229.3125 310.7344 Q230.1094 311.7969 230.1094 313.2344 Q230.1094 314.3906 229.625 315.3828 Q229.1406 316.375 228.4219 316.9141 Q227.7031 317.4531 226.6172 317.7266 Q225.5312 318 223.9688 318 L217.6875 318 ZM219.8594 308.4531 L223.4219 308.4531 Q224.875 308.4531 225.5 308.2656 Q226.3281 308.0156 226.75 307.4453 Q227.1719 306.875 227.1719 306 Q227.1719 305.1875 226.7812 304.5625 Q226.3906 303.9375 225.6562 303.7109 Q224.9219 303.4844 223.1562 303.4844 L219.8594 303.4844 L219.8594 308.4531 ZM219.8594 316.0625 L223.9688 316.0625 Q225.0156 316.0625 225.4375 315.9844 Q226.2031 315.8438 226.7031 315.5312 Q227.2031 315.2188 227.5312 314.6172 Q227.8594 314.0156 227.8594 313.2344 Q227.8594 312.3125 227.3906 311.6328 Q226.9219 310.9531 226.0859 310.6719 Q225.25 310.3906 223.6719 310.3906 L219.8594 310.3906 L219.8594 316.0625 ZM232.2939 313.6875 L234.4189 313.5 Q234.6533 315.0625 235.5127 315.8438 Q236.3721 316.625 237.5908 316.625 Q239.0439 316.625 240.0518 315.5234 Q241.0596 314.4219 241.0596 312.5938 Q241.0596 310.875 240.0908 309.875 Q239.1221 308.875 237.5439 308.875 Q236.5752 308.875 235.7861 309.3125 Q234.9971 309.75 234.5596 310.4688 L232.6533 310.2188 L234.2471 301.7656 L242.4346 301.7656 L242.4346 303.6875 L235.8721 303.6875 L234.9814 308.1094 Q236.4658 307.0781 238.0908 307.0781 Q240.2471 307.0781 241.7314 308.5781 Q243.2158 310.0781 243.2158 312.4219 Q243.2158 314.6562 241.9033 316.2812 Q240.3252 318.2812 237.5908 318.2812 Q235.3408 318.2812 233.9189 317.0234 Q232.4971 315.7656 232.2939 313.6875 Z" clip-path="url(#clipPath28)" stroke="none"/><circle fill="rgb(250,128,114)" r="16" clip-path="url(#clipPath29)" cx="326" cy="326" stroke="none"/><circle fill="none" r="16" clip-path="url(#clipPath29)" cx="326" cy="326" stroke="black"/><path fill="black" d="M324.5156 328.2344 L326.7031 328.7812 Q326.0156 331.4688 324.2344 332.875 Q322.4531 334.2812 319.8906 334.2812 Q317.2188 334.2812 315.5547 333.1953 Q313.8906 332.1094 313.0156 330.0547 Q312.1406 328 312.1406 325.6406 Q312.1406 323.0781 313.125 321.1641 Q314.1094 319.25 315.9219 318.25 Q317.7344 317.25 319.9219 317.25 Q322.3906 317.25 324.0703 318.5078 Q325.75 319.7656 326.4219 322.0469 L324.2812 322.5625 Q323.7031 320.7656 322.6094 319.9453 Q321.5156 319.125 319.875 319.125 Q317.9688 319.125 316.6953 320.0312 Q315.4219 320.9375 314.9062 322.4688 Q314.3906 324 314.3906 325.6406 Q314.3906 327.7344 315 329.2969 Q315.6094 330.8594 316.9062 331.6406 Q318.2031 332.4219 319.7031 332.4219 Q321.5312 332.4219 322.8047 331.3672 Q324.0781 330.3125 324.5156 328.2344 ZM328.563 329.6875 L330.688 329.5 Q330.9224 331.0625 331.7817 331.8438 Q332.6411 332.625 333.8599 332.625 Q335.313 332.625 336.3208 331.5234 Q337.3286 330.4219 337.3286 328.5938 Q337.3286 326.875 336.3599 325.875 Q335.3911 324.875 333.813 324.875 Q332.8442 324.875 332.0552 325.3125 Q331.2661 325.75 330.8286 326.4688 L328.9224 326.2188 L330.5161 317.7656 L338.7036 317.7656 L338.7036 319.6875 L332.1411 319.6875 L331.2505 324.1094 Q332.7349 323.0781 334.3599 323.0781 Q336.5161 323.0781 338.0005 324.5781 Q339.4849 326.0781 339.4849 328.4219 Q339.4849 330.6562 338.1724 332.2812 Q336.5942 334.2812 333.8599 334.2812 Q331.6099 334.2812 330.188 333.0234 Q328.7661 331.7656 328.563 329.6875 Z" clip-path="url(#clipPath30)" stroke="none"/><circle r="16" clip-path="url(#clipPath31)" cx="486" cy="486" stroke="none"/><circle fill="none" r="16" clip-path="url(#clipPath31)" cx="486" cy="486" stroke="black"/><path fill="black" d="M470.9688 495 L477.8438 477.1094 L480.3906 477.1094 L487.7188 495 L485.0156 495 L482.9219 489.5781 L475.4375 489.5781 L473.4844 495 L470.9688 495 ZM476.125 487.6562 L482.1875 487.6562 L480.3281 482.6875 Q479.4688 480.4375 479.0625 478.9844 Q478.7188 480.7031 478.0938 482.4062 L476.125 487.6562 ZM500.1123 481.4844 L497.9248 481.6562 Q497.6436 480.3594 497.0967 479.7812 Q496.2061 478.8438 494.9092 478.8438 Q493.8467 478.8438 493.0654 479.4219 Q492.0186 480.1875 491.4248 481.6328 Q490.8311 483.0781 490.7998 485.7656 Q491.5967 484.5625 492.7451 483.9766 Q493.8936 483.3906 495.1436 483.3906 Q497.3467 483.3906 498.8857 485.0078 Q500.4248 486.625 500.4248 489.1875 Q500.4248 490.875 499.6982 492.3203 Q498.9717 493.7656 497.7061 494.5391 Q496.4404 495.3125 494.8311 495.3125 Q492.0811 495.3125 490.3467 493.2891 Q488.6123 491.2656 488.6123 486.625 Q488.6123 481.4375 490.5342 479.0781 Q492.2061 477.0312 495.0342 477.0312 Q497.1436 477.0312 498.4951 478.2188 Q499.8467 479.4062 500.1123 481.4844 ZM491.1436 489.2031 Q491.1436 490.3438 491.6279 491.375 Q492.1123 492.4062 492.9795 492.9531 Q493.8467 493.5 494.7842 493.5 Q496.1904 493.5 497.1904 492.375 Q498.1904 491.25 498.1904 489.3281 Q498.1904 487.4688 497.1982 486.3984 Q496.2061 485.3281 494.7061 485.3281 Q493.2217 485.3281 492.1826 486.3984 Q491.1436 487.4688 491.1436 489.2031 Z" clip-path="url(#clipPath32)" stroke="none"/><circle fill="rgb(144,238,144)" r="16" clip-path="url(#clipPath33)" cx="150" cy="230" stroke="none"/><circle fill="none" r="16" clip-path="url(#clipPath33)" cx="150" cy="230" stroke="black"/><path fill="black" d="M137.6875 238 L137.6875 221.5312 L143.8594 221.5312 Q145.75 221.5312 146.8906 222.0312 Q148.0312 222.5312 148.6719 223.5703 Q149.3125 224.6094 149.3125 225.75 Q149.3125 226.7969 148.7422 227.7344 Q148.1719 228.6719 147.0156 229.2344 Q148.5156 229.6719 149.3125 230.7344 Q150.1094 231.7969 150.1094 233.2344 Q150.1094 234.3906 149.625 235.3828 Q149.1406 236.375 148.4219 236.9141 Q147.7031 237.4531 146.6172 237.7266 Q145.5312 238 143.9688 238 L137.6875 238 ZM139.8594 228.4531 L143.4219 228.4531 Q144.875 228.4531 145.5 228.2656 Q146.3281 228.0156 146.75 227.4453 Q147.1719 226.875 147.1719 226 Q147.1719 225.1875 146.7812 224.5625 Q146.3906 223.9375 145.6562 223.7109 Q144.9219 223.4844 143.1562 223.4844 L139.8594 223.4844 L139.8594 228.4531 ZM139.8594 236.0625 L143.9688 236.0625 Q145.0156 236.0625 145.4375 235.9844 Q146.2031 235.8438 146.7031 235.5312 Q147.2031 235.2188 147.5312 234.6172 Q147.8594 234.0156 147.8594 233.2344 Q147.8594 232.3125 147.3906 231.6328 Q146.9219 230.9531 146.0859 230.6719 Q145.25 230.3906 143.6719 230.3906 L139.8594 230.3906 L139.8594 236.0625 ZM162.7783 225.5625 L160.7783 225.7188 Q160.5127 224.5312 160.0127 224 Q159.1846 223.125 157.9971 223.125 Q157.0283 223.125 156.2939 223.6719 Q155.3408 224.3594 154.7861 225.6953 Q154.2314 227.0312 154.2158 229.5156 Q154.9502 228.3906 156.0049 227.8516 Q157.0596 227.3125 158.2158 227.3125 Q160.2314 227.3125 161.6533 228.8047 Q163.0752 230.2969 163.0752 232.6562 Q163.0752 234.2031 162.4111 235.5312 Q161.7471 236.8594 160.5752 237.5703 Q159.4033 238.2812 157.9189 238.2812 Q155.3877 238.2812 153.7939 236.4219 Q152.2002 234.5625 152.2002 230.2969 Q152.2002 225.5156 153.9658 223.3594 Q155.5127 221.4688 158.1064 221.4688 Q160.0596 221.4688 161.3018 222.5547 Q162.5439 223.6406 162.7783 225.5625 ZM154.5283 232.6719 Q154.5283 233.7031 154.9736 234.6641 Q155.4189 235.625 156.2158 236.125 Q157.0127 236.625 157.8877 236.625 Q159.1689 236.625 160.0908 235.5859 Q161.0127 234.5469 161.0127 232.7812 Q161.0127 231.0781 160.0986 230.0938 Q159.1846 229.1094 157.8096 229.1094 Q156.4346 229.1094 155.4814 230.0938 Q154.5283 231.0781 154.5283 232.6719 Z" clip-path="url(#clipPath34)" stroke="none"/><circle fill="rgb(250,128,114)" r="16" clip-path="url(#clipPath35)" cx="230" cy="390" stroke="none"/><circle fill="none" r="16" clip-path="url(#clipPath35)" cx="230" cy="390" stroke="black"/><path fill="black" d="M228.5156 392.2344 L230.7031 392.7812 Q230.0156 395.4688 228.2344 396.875 Q226.4531 398.2812 223.8906 398.2812 Q221.2188 398.2812 219.5547 397.1953 Q217.8906 396.1094 217.0156 394.0547 Q216.1406 392 216.1406 389.6406 Q216.1406 387.0781 217.125 385.1641 Q218.1094 383.25 219.9219 382.25 Q221.7344 381.25 223.9219 381.25 Q226.3906 381.25 228.0703 382.5078 Q229.75 383.7656 230.4219 386.0469 L228.2812 386.5625 Q227.7031 384.7656 226.6094 383.9453 Q225.5156 383.125 223.875 383.125 Q221.9688 383.125 220.6953 384.0312 Q219.4219 384.9375 218.9062 386.4688 Q218.3906 388 218.3906 389.6406 Q218.3906 391.7344 219 393.2969 Q219.6094 394.8594 220.9062 395.6406 Q222.2031 396.4219 223.7031 396.4219 Q225.5312 396.4219 226.8047 395.3672 Q228.0781 394.3125 228.5156 392.2344 ZM243.0474 385.5625 L241.0474 385.7188 Q240.7817 384.5312 240.2817 384 Q239.4536 383.125 238.2661 383.125 Q237.2974 383.125 236.563 383.6719 Q235.6099 384.3594 235.0552 385.6953 Q234.5005 387.0312 234.4849 389.5156 Q235.2192 388.3906 236.2739 387.8516 Q237.3286 387.3125 238.4849 387.3125 Q240.5005 387.3125 241.9224 388.8047 Q243.3442 390.2969 243.3442 392.6562 Q243.3442 394.2031 242.6802 395.5312 Q242.0161 396.8594 240.8442 397.5703 Q239.6724 398.2812 238.188 398.2812 Q235.6567 398.2812 234.063 396.4219 Q232.4692 394.5625 232.4692 390.2969 Q232.4692 385.5156 234.2349 383.3594 Q235.7817 381.4688 238.3755 381.4688 Q240.3286 381.4688 241.5708 382.5547 Q242.813 383.6406 243.0474 385.5625 ZM234.7974 392.6719 Q234.7974 393.7031 235.2427 394.6641 Q235.688 395.625 236.4849 396.125 Q237.2817 396.625 238.1567 396.625 Q239.438 396.625 240.3599 395.5859 Q241.2817 394.5469 241.2817 392.7812 Q241.2817 391.0781 240.3677 390.0938 Q239.4536 389.1094 238.0786 389.1094 Q236.7036 389.1094 235.7505 390.0938 Q234.7974 391.0781 234.7974 392.6719 Z" clip-path="url(#clipPath36)" stroke="none"/><circle r="16" clip-path="url(#clipPath37)" cx="566" cy="566" stroke="none"/><circle fill="none" r="16" clip-path="url(#clipPath37)" cx="566" cy="566" stroke="black"/><path fill="black" d="M550.9688 575 L557.8438 557.1094 L560.3906 557.1094 L567.7188 575 L565.0156 575 L562.9219 569.5781 L555.4375 569.5781 L553.4844 575 L550.9688 575 ZM556.125 567.6562 L562.1875 567.6562 L560.3281 562.6875 Q559.4688 560.4375 559.0625 558.9844 Q558.7188 560.7031 558.0938 562.4062 L556.125 567.6562 ZM568.8623 559.4531 L568.8623 557.3438 L580.4404 557.3438 L580.4404 559.0469 Q578.7373 560.8594 577.0576 563.875 Q575.3779 566.8906 574.4561 570.0781 Q573.7998 572.3281 573.6123 575 L571.3623 575 Q571.3936 572.8906 572.1904 569.8984 Q572.9873 566.9062 574.4717 564.1328 Q575.9561 561.3594 577.6279 559.4531 L568.8623 559.4531 Z" clip-path="url(#clipPath38)" stroke="none"/><circle fill="rgb(144,238,144)" r="16" clip-path="url(#clipPath39)" cx="166" cy="166" stroke="none"/><circle fill="none" r="16" clip-path="url(#clipPath39)" cx="166" cy="166" stroke="black"/><path fill="black" d="M153.6875 174 L153.6875 157.5312 L159.8594 157.5312 Q161.75 157.5312 162.8906 158.0312 Q164.0312 158.5312 164.6719 159.5703 Q165.3125 160.6094 165.3125 161.75 Q165.3125 162.7969 164.7422 163.7344 Q164.1719 164.6719 163.0156 165.2344 Q164.5156 165.6719 165.3125 166.7344 Q166.1094 167.7969 166.1094 169.2344 Q166.1094 170.3906 165.625 171.3828 Q165.1406 172.375 164.4219 172.9141 Q163.7031 173.4531 162.6172 173.7266 Q161.5312 174 159.9688 174 L153.6875 174 ZM155.8594 164.4531 L159.4219 164.4531 Q160.875 164.4531 161.5 164.2656 Q162.3281 164.0156 162.75 163.4453 Q163.1719 162.875 163.1719 162 Q163.1719 161.1875 162.7812 160.5625 Q162.3906 159.9375 161.6562 159.7109 Q160.9219 159.4844 159.1562 159.4844 L155.8594 159.4844 L155.8594 164.4531 ZM155.8594 172.0625 L159.9688 172.0625 Q161.0156 172.0625 161.4375 171.9844 Q162.2031 171.8438 162.7031 171.5312 Q163.2031 171.2188 163.5312 170.6172 Q163.8594 170.0156 163.8594 169.2344 Q163.8594 168.3125 163.3906 167.6328 Q162.9219 166.9531 162.0859 166.6719 Q161.25 166.3906 159.6719 166.3906 L155.8594 166.3906 L155.8594 172.0625 ZM168.4346 159.6875 L168.4346 157.75 L179.0908 157.75 L179.0908 159.3281 Q177.5127 161 175.9736 163.7734 Q174.4346 166.5469 173.5908 169.4688 Q172.9814 171.5469 172.8096 174 L170.7314 174 Q170.7627 172.0625 171.4971 169.3047 Q172.2314 166.5469 173.5908 163.9922 Q174.9502 161.4375 176.4971 159.6875 L168.4346 159.6875 Z" clip-path="url(#clipPath40)" stroke="none"/><circle fill="rgb(250,128,114)" r="16" clip-path="url(#clipPath41)" cx="150" cy="470" stroke="none"/><circle fill="none" r="16" clip-path="url(#clipPath41)" cx="150" cy="470" stroke="black"/><path fill="black" d="M148.5156 472.2344 L150.7031 472.7812 Q150.0156 475.4688 148.2344 476.875 Q146.4531 478.2812 143.8906 478.2812 Q141.2188 478.2812 139.5547 477.1953 Q137.8906 476.1094 137.0156 474.0547 Q136.1406 472 136.1406 469.6406 Q136.1406 467.0781 137.125 465.1641 Q138.1094 463.25 139.9219 462.25 Q141.7344 461.25 143.9219 461.25 Q146.3906 461.25 148.0703 462.5078 Q149.75 463.7656 150.4219 466.0469 L148.2812 466.5625 Q147.7031 464.7656 146.6094 463.9453 Q145.5156 463.125 143.875 463.125 Q141.9688 463.125 140.6953 464.0312 Q139.4219 464.9375 138.9062 466.4688 Q138.3906 468 138.3906 469.6406 Q138.3906 471.7344 139 473.2969 Q139.6094 474.8594 140.9062 475.6406 Q142.2031 476.4219 143.7031 476.4219 Q145.5312 476.4219 146.8047 475.3672 Q148.0781 474.3125 148.5156 472.2344 ZM152.7036 463.6875 L152.7036 461.75 L163.3599 461.75 L163.3599 463.3281 Q161.7817 465 160.2427 467.7734 Q158.7036 470.5469 157.8599 473.4688 Q157.2505 475.5469 157.0786 478 L155.0005 478 Q155.0317 476.0625 155.7661 473.3047 Q156.5005 470.5469 157.8599 467.9922 Q159.2192 465.4375 160.7661 463.6875 L152.7036 463.6875 Z" clip-path="url(#clipPath42)" stroke="none"/><circle fill="rgb(144,238,144)" r="16" clip-path="url(#clipPath43)" cx="86" cy="86" stroke="none"/><circle fill="none" r="16" clip-path="url(#clipPath43)" cx="86" cy="86" stroke="black"/><path fill="black" d="M73.6875 94 L73.6875 77.5312 L79.8594 77.5312 Q81.75 77.5312 82.8906 78.0312 Q84.0312 78.5312 84.6719 79.5703 Q85.3125 80.6094 85.3125 81.75 Q85.3125 82.7969 84.7422 83.7344 Q84.1719 84.6719 83.0156 85.2344 Q84.5156 85.6719 85.3125 86.7344 Q86.1094 87.7969 86.1094 89.2344 Q86.1094 90.3906 85.625 91.3828 Q85.1406 92.375 84.4219 92.9141 Q83.7031 93.4531 82.6172 93.7266 Q81.5312 94 79.9688 94 L73.6875 94 ZM75.8594 84.4531 L79.4219 84.4531 Q80.875 84.4531 81.5 84.2656 Q82.3281 84.0156 82.75 83.4453 Q83.1719 82.875 83.1719 82 Q83.1719 81.1875 82.7812 80.5625 Q82.3906 79.9375 81.6562 79.7109 Q80.9219 79.4844 79.1562 79.4844 L75.8594 79.4844 L75.8594 84.4531 ZM75.8594 92.0625 L79.9688 92.0625 Q81.0156 92.0625 81.4375 91.9844 Q82.2031 91.8438 82.7031 91.5312 Q83.2031 91.2188 83.5312 90.6172 Q83.8594 90.0156 83.8594 89.2344 Q83.8594 88.3125 83.3906 87.6328 Q82.9219 86.9531 82.0859 86.6719 Q81.25 86.3906 79.6719 86.3906 L75.8594 86.3906 L75.8594 92.0625 ZM91.4033 85.0781 Q90.1533 84.6094 89.5439 83.7578 Q88.9346 82.9062 88.9346 81.7188 Q88.9346 79.9219 90.2236 78.6953 Q91.5127 77.4688 93.6689 77.4688 Q95.8252 77.4688 97.1377 78.7188 Q98.4502 79.9688 98.4502 81.7656 Q98.4502 82.9219 97.8486 83.7656 Q97.2471 84.6094 96.0283 85.0781 Q97.5439 85.5625 98.333 86.6641 Q99.1221 87.7656 99.1221 89.2969 Q99.1221 91.4062 97.6299 92.8438 Q96.1377 94.2812 93.7002 94.2812 Q91.2627 94.2812 89.7705 92.8359 Q88.2783 91.3906 88.2783 89.2344 Q88.2783 87.625 89.0908 86.5469 Q89.9033 85.4688 91.4033 85.0781 ZM90.9971 81.6406 Q90.9971 82.8125 91.7549 83.5547 Q92.5127 84.2969 93.7158 84.2969 Q94.8721 84.2969 95.6221 83.5625 Q96.3721 82.8281 96.3721 81.7656 Q96.3721 80.6406 95.5986 79.8828 Q94.8252 79.125 93.6846 79.125 Q92.5283 79.125 91.7627 79.8672 Q90.9971 80.6094 90.9971 81.6406 ZM90.3564 89.25 Q90.3564 90.1094 90.7627 90.9219 Q91.1689 91.7344 91.9814 92.1797 Q92.7939 92.625 93.7158 92.625 Q95.1689 92.625 96.1143 91.6875 Q97.0596 90.75 97.0596 89.3125 Q97.0596 87.8594 96.083 86.9062 Q95.1064 85.9531 93.6533 85.9531 Q92.2314 85.9531 91.2939 86.8906 Q90.3564 87.8281 90.3564 89.25 Z" clip-path="url(#clipPath44)" stroke="none"/><circle fill="rgb(250,128,114)" r="16" clip-path="url(#clipPath45)" cx="70" cy="550" stroke="none"/><circle fill="none" r="16" clip-path="url(#clipPath45)" cx="70" cy="550" stroke="black"/><path fill="black" d="M68.5156 552.2344 L70.7031 552.7812 Q70.0156 555.4688 68.2344 556.875 Q66.4531 558.2812 63.8906 558.2812 Q61.2188 558.2812 59.5547 557.1953 Q57.8906 556.1094 57.0156 554.0547 Q56.1406 552 56.1406 549.6406 Q56.1406 547.0781 57.125 545.1641 Q58.1094 543.25 59.9219 542.25 Q61.7344 541.25 63.9219 541.25 Q66.3906 541.25 68.0703 542.5078 Q69.75 543.7656 70.4219 546.0469 L68.2812 546.5625 Q67.7031 544.7656 66.6094 543.9453 Q65.5156 543.125 63.875 543.125 Q61.9688 543.125 60.6953 544.0312 Q59.4219 544.9375 58.9062 546.4688 Q58.3906 548 58.3906 549.6406 Q58.3906 551.7344 59 553.2969 Q59.6094 554.8594 60.9062 555.6406 Q62.2031 556.4219 63.7031 556.4219 Q65.5312 556.4219 66.8047 555.3672 Q68.0781 554.3125 68.5156 552.2344 ZM75.6724 549.0781 Q74.4224 548.6094 73.813 547.7578 Q73.2036 546.9062 73.2036 545.7188 Q73.2036 543.9219 74.4927 542.6953 Q75.7817 541.4688 77.938 541.4688 Q80.0942 541.4688 81.4067 542.7188 Q82.7192 543.9688 82.7192 545.7656 Q82.7192 546.9219 82.1177 547.7656 Q81.5161 548.6094 80.2974 549.0781 Q81.813 549.5625 82.6021 550.6641 Q83.3911 551.7656 83.3911 553.2969 Q83.3911 555.4062 81.8989 556.8438 Q80.4067 558.2812 77.9692 558.2812 Q75.5317 558.2812 74.0396 556.8359 Q72.5474 555.3906 72.5474 553.2344 Q72.5474 551.625 73.3599 550.5469 Q74.1724 549.4688 75.6724 549.0781 ZM75.2661 545.6406 Q75.2661 546.8125 76.0239 547.5547 Q76.7817 548.2969 77.9849 548.2969 Q79.1411 548.2969 79.8911 547.5625 Q80.6411 546.8281 80.6411 545.7656 Q80.6411 544.6406 79.8677 543.8828 Q79.0942 543.125 77.9536 543.125 Q76.7974 543.125 76.0317 543.8672 Q75.2661 544.6094 75.2661 545.6406 ZM74.6255 553.25 Q74.6255 554.1094 75.0317 554.9219 Q75.438 555.7344 76.2505 556.1797 Q77.063 556.625 77.9849 556.625 Q79.438 556.625 80.3833 555.6875 Q81.3286 554.75 81.3286 553.3125 Q81.3286 551.8594 80.3521 550.9062 Q79.3755 549.9531 77.9224 549.9531 Q76.5005 549.9531 75.563 550.8906 Q74.6255 551.8281 74.6255 553.25 Z" clip-path="url(#clipPath46)" stroke="none"/></g></g></svg>