<?xml version="1.0" encoding="UTF-8"?><svg xmlns="http://www.w3.org/2000/svg" xmlns:xlink="http://www.w3.org/1999/xlink" stroke-dasharray="none" shape-rendering="auto" font-family="'Dialog'" width="831" text-rendering="auto" fill-opacity="1" contentScriptType="text/ecmascript" color-interpolation="auto" color-rendering="auto" preserveAspectRatio="xMidYMid meet" font-size="12px" fill="black" stroke="black" image-rendering="auto" stroke-miterlimit="10" zoomAndPan="magnify" version="1.0" stroke-linecap="square" stroke-linejoin="miter" contentStyleType="text/css" font-style="normal" height="831" stroke-width="1" stroke-dashoffset="0" font-weight="normal" stroke-opacity="1"><!--Generated by the Batik Graphics2D SVG Generator--><defs id="genericDefs"/><g><defs id="defs1"><clipPath clipPathUnits="userSpaceOnUse" id="clipPath1"><path d="M350 430 L430 430 L430 510 L350 510 L350 430 Z"/></clipPath><clipPath clipPathUnits="userSpaceOnUse" id="clipPath2"><path d="M430 510 L510 510 L510 590 L430 590 L430 510 Z"/></clipPath><clipPath clipPathUnits="userSpaceOnUse" id="clipPath3"><path d="M270 350 L350 350 L350 430 L270 430 L270 350 Z"/></clipPath><clipPath clipPathUnits="userSpaceOnUse" id="clipPath4"><path d="M510 510 L590 510 L590 590 L510 590 L510 510 Z"/></clipPath><clipPath clipPathUnits="userSpaceOnUse" id="clipPath5"><path d="M270 270 L350 270 L350 350 L270 350 L270 270 Z"/></clipPath><clipPath clipPathUnits="userSpaceOnUse" id="clipPath6"><path d="M430 430 L510 430 L510 510 L430 510 L430 430 Z"/></clipPath><clipPath clipPathUnits="userSpaceOnUse" id="clipPath7"><path d="M350 350 L430 350 L430 430 L350 430 L350 350 Z"/></clipPath><clipPath clipPathUnits="userSpaceOnUse" id="clipPath8"><path d="M350 270 L430 270 L430 350 L350 350 L350 270 Z"/></clipPath><clipPath clipPathUnits="userSpaceOnUse" id="clipPath9"><path d="M430 350 L510 350 L510 430 L430 430 L430 350 Z"/></clipPath><clipPath clipPathUnits="userSpaceOnUse" id="clipPath10"><path d="M510 430 L590 430 L590 510 L510 510 L510 430 Z"/></clipPath><clipPath clipPathUnits="userSpaceOnUse" id="clipPath11"><path d="M510 350 L590 350 L590 430 L510 430 L510 350 Z"/></clipPath><clipPath clipPathUnits="userSpaceOnUse" id="clipPath12"><path d="M430 270 L510 270 L510 350 L430 350 L430 270 Z"/></clipPath><clipPath clipPathUnits="userSpaceOnUse" id="clipPath13"><path d="M270 590 L350 590 L350 670 L270 670 L270 590 Z"/></clipPath><clipPath clipPathUnits="userSpaceOnUse" id="clipPath14"><path d="M350 590 L430 590 L430 670 L350 670 L350 590 Z"/></clipPath><clipPath clipPathUnits="userSpaceOnUse" id="clipPath15"><path d="M270 510 L350 510 L350 590 L270 590 L270 510 Z"/></clipPath><clipPath clipPathUnits="userSpaceOnUse" id="clipPath16"><path d="M270 430 L350 430 L350 510 L270 510 L270 430 Z"/></clipPath><clipPath clipPathUnits="userSpaceOnUse" id="clipPath17"><path d="M350 510 L430 510 L430 590 L350 590 L350 510 Z"/></clipPath><clipPath clipPathUnits="userSpaceOnUse" id="clipPath18"><path d="M430 590 L510 590 L510 670 L430 670 L430 590 Z"/></clipPath><clipPath clipPathUnits="userSpaceOnUse" id="clipPath19"><path d="M53 53 L87 53 L87 87 L53 87 L53 53 Z"/></clipPath><clipPath clipPathUnits="userSpaceOnUse" id="clipPath20"><path d="M86 70 C86 78.8366 78.8366 86 70 86 C61.1634 86 54 78.8366 54 70 C54 61.1634 61.1634 54 70 54 C78.8366 54 86 61.1634 86 70 Z"/></clipPath><clipPath clipPathUnits="userSpaceOnUse" id="clipPath21"><path d="M53 213 L87 213 L87 247 L53 247 L53 213 Z"/></clipPath><clipPath clipPathUnits="userSpaceOnUse" id="clipPath22"><path d="M86 230 C86 238.8366 78.8366 246 70 246 C61.1634 246 54 238.8366 54 230 C54 221.1634 61.1634 214 70 214 C78.8366 214 86 221.1634 86 230 Z"/></clipPath><clipPath clipPathUnits="userSpaceOnUse" id="clipPath23"><path d="M773 453 L807 453 L807 487 L773 487 L773 453 Z"/></clipPath><clipPath clipPathUnits="userSpaceOnUse" id="clipPath24"><path d="M806 470 C806 478.8365 798.8365 486 790 486 C781.1635 486 774 478.8365 774 470 C774 461.1635 781.1635 454 790 454 C798.8365 454 806 461.1635 806 470 Z"/></clipPath><clipPath clipPathUnits="userSpaceOnUse" id="clipPath25"><path d="M133 133 L167 133 L167 167 L133 167 L133 133 Z"/></clipPath><clipPath clipPathUnits="userSpaceOnUse" id="clipPath26"><path d="M166 150 C166 158.8366 158.8366 166 150 166 C141.1634 166 134 158.8366 134 150 C134 141.1634 141.1634 134 150 134 C158.8366 134 166 141.1634 166 150 Z"/></clipPath><clipPath clipPathUnits="userSpaceOnUse" id="clipPath27"><path d="M133 293 L167 293 L167 327 L133 327 L133 293 Z"/></clipPath><clipPath clipPathUnits="userSpaceOnUse" id="clipPath28"><path d="M166 310 C166 318.8365 158.8366 326 150 326 C141.1634 326 134 318.8365 134 310 C134 301.1635 141.1634 294 150 294 C158.8366 294 166 301.1635 166 310 Z"/></clipPath><clipPath clipPathUnits="userSpaceOnUse" id="clipPath29"><path d="M693 453 L727 453 L727 487 L693 487 L693 453 Z"/></clipPath><clipPath clipPathUnits="userSpaceOnUse" id="clipPath30"><path d="M726 470 C726 478.8365 718.8365 486 710 486 C701.1635 486 694 478.8365 694 470 C694 461.1635 701.1635 454 710 454 C718.8365 454 726 461.1635 726 470 Z"/></clipPath><clipPath clipPathUnits="userSpaceOnUse" id="clipPath31"><path d="M213 213 L247 213 L247 247 L213 247 L213 213 Z"/></clipPath><clipPath clipPathUnits="userSpaceOnUse" id="clipPath32"><path d="M246 230 C246 238.8366 238.8366 246 230 246 C221.1634 246 214 238.8366 214 230 C214 221.1634 221.1634 214 230 214 C238.8366 214 246 221.1634 246 230 Z"/></clipPath><clipPath clipPathUnits="userSpaceOnUse" id="clipPath33"><path d="M213 373 L247 373 L247 407 L213 407 L213 373 Z"/></clipPath><clipPath clipPathUnits="userSpaceOnUse" id="clipPath34"><path d="M246 390 C246 398.8365 238.8366 406 230 406 C221.1634 406 214 398.8365 214 390 C214 381.1635 221.1634 374 230 374 C238.8366 374 246 381.1635 246 390 Z"/></clipPath><clipPath clipPathUnits="userSpaceOnUse" id="clipPath35"><path d="M613 453 L647 453 L647 487 L613 487 L613 453 Z"/></clipPath><clipPath clipPathUnits="userSpaceOnUse" id="clipPath36"><path d="M646 470 C646 478.8365 638.8365 486 630 486 C621.1635 486 614 478.8365 614 470 C614 461.1635 621.1635 454 630 454 C638.8365 454 646 461.1635 646 470 Z"/></clipPath><clipPath clipPathUnits="userSpaceOnUse" id="clipPath37"><path d="M293 293 L327 293 L327 327 L293 327 L293 293 Z"/></clipPath><clipPath clipPathUnits="userSpaceOnUse" id="clipPath38"><path d="M326 310 C326 318.8365 318.8365 326 310 326 C301.1635 326 294 318.8365 294 310 C294 301.1635 301.1635 294 310 294 C318.8365 294 326 301.1635 326 310 Z"/></clipPath><clipPath clipPathUnits="userSpaceOnUse" id="clipPath39"><path d="M277 437 L311 437 L311 471 L277 471 L277 437 Z"/></clipPath><clipPath clipPathUnits="userSpaceOnUse" id="clipPath40"><path d="M310 454 C310 462.8365 302.8365 470 294 470 C285.1635 470 278 462.8365 278 454 C278 445.1635 285.1635 438 294 438 C302.8365 438 310 445.1635 310 454 Z"/></clipPath><clipPath clipPathUnits="userSpaceOnUse" id="clipPath41"><path d="M533 453 L567 453 L567 487 L533 487 L533 453 Z"/></clipPath><clipPath clipPathUnits="userSpaceOnUse" id="clipPath42"><path d="M566 470 C566 478.8365 558.8365 486 550 486 C541.1635 486 534 478.8365 534 470 C534 461.1635 541.1635 454 550 454 C558.8365 454 566 461.1635 566 470 Z"/></clipPath><clipPath clipPathUnits="userSpaceOnUse" id="clipPath43"><path d="M373 373 L407 373 L407 407 L373 407 L373 373 Z"/></clipPath><clipPath clipPathUnits="userSpaceOnUse" id="clipPath44"><path d="M406 390 C406 398.8365 398.8365 406 390 406 C381.1635 406 374 398.8365 374 390 C374 381.1635 381.1635 374 390 374 C398.8365 374 406 381.1635 406 390 Z"/></clipPath><clipPath clipPathUnits="userSpaceOnUse" id="clipPath45"><path d="M373 533 L407 533 L407 567 L373 567 L373 533 Z"/></clipPath><clipPath clipPathUnits="userSpaceOnUse" id="clipPath46"><path d="M406 550 C406 558.8365 398.8365 566 390 566 C381.1635 566 374 558.8365 374 550 C374 541.1635 381.1635 534 390 534 C398.8365 534 406 541.1635 406 550 Z"/></clipPath><clipPath clipPathUnits="userSpaceOnUse" id="clipPath47"><path d="M437 437 L471 437 L471 471 L437 471 L437 437 Z"/></clipPath><clipPath clipPathUnits="userSpaceOnUse" id="clipPath48"><path d="M470 454 C470 462.8365 462.8365 470 454 470 C445.1635 470 438 462.8365 438 454 C438 445.1635 445.1635 438 454 438 C462.8365 438 470 445.1635 470 454 Z"/></clipPath><clipPath clipPathUnits="userSpaceOnUse" id="clipPath49"><path d="M469 469 L503 469 L503 503 L469 503 L469 469 Z"/></clipPath><clipPath clipPathUnits="userSpaceOnUse" id="clipPath50"><path d="M502 486 C502 494.8365 494.8365 502 486 502 C477.1635 502 470 494.8365 470 486 C470 477.1635 477.1635 470 486 470 C494.8365 470 502 477.1635 502 486 Z"/></clipPath><clipPath clipPathUnits="userSpaceOnUse" id="clipPath51"><path d="M453 613 L487 613 L487 647 L453 647 L453 613 Z"/></clipPath><clipPath clipPathUnits="userSpaceOnUse" id="clipPath52"><path d="M486 630 C486 638.8365 478.8365 646 470 646 C461.1635 646 454 638.8365 454 630 C454 621.1635 461.1635 614 470 614 C478.8365 614 486 621.1635 486 630 Z"/></clipPath><clipPath clipPathUnits="userSpaceOnUse" id="clipPath53"><path d="M373 453 L407 453 L407 487 L373 487 L373 453 Z"/></clipPath><clipPath clipPathUnits="userSpaceOnUse" id="clipPath54"><path d="M406 470 C406 478.8365 398.8365 486 390 486 C381.1635 486 374 478.8365 374 470 C374 461.1635 381.1635 454 390 454 C398.8365 454 406 461.1635 406 470 Z"/></clipPath><clipPath clipPathUnits="userSpaceOnUse" id="clipPath55"><path d="M533 533 L567 533 L567 567 L533 567 L533 533 Z"/></clipPath><clipPath clipPathUnits="userSpaceOnUse" id="clipPath56"><path d="M566 550 C566 558.8365 558.8365 566 550 566 C541.1635 566 534 558.8365 534 550 C534 541.1635 541.1635 534 550 534 C558.8365 534 566 541.1635 566 550 Z"/></clipPath><clipPath clipPathUnits="userSpaceOnUse" id="clipPath57"><path d="M533 693 L567 693 L567 727 L533 727 L533 693 Z"/></clipPath><clipPath clipPathUnits="userSpaceOnUse" id="clipPath58"><path d="M566 710 C566 718.8365 558.8365 726 550 726 C541.1635 726 534 718.8365 534 710 C534 701.1635 541.1635 694 550 694 C558.8365 694 566 701.1635 566 710 Z"/></clipPath><clipPath clipPathUnits="userSpaceOnUse" id="clipPath59"><path d="M309 469 L343 469 L343 503 L309 503 L309 469 Z"/></clipPath><clipPath clipPathUnits="userSpaceOnUse" id="clipPath60"><path d="M342 486 C342 494.8365 334.8365 502 326 502 C317.1635 502 310 494.8365 310 486 C310 477.1635 317.1635 470 326 470 C334.8365 470 342 477.1635 342 486 Z"/></clipPath><clipPath clipPathUnits="userSpaceOnUse" id="clipPath61"><path d="M613 613 L647 613 L647 647 L613 647 L613 613 Z"/></clipPath><clipPath clipPathUnits="userSpaceOnUse" id="clipPath62"><path d="M646 630 C646 638.8365 638.8365 646 630 646 C621.1635 646 614 638.8365 614 630 C614 621.1635 621.1635 614 630 614 C638.8365 614 646 621.1635 646 630 Z"/></clipPath><clipPath clipPathUnits="userSpaceOnUse" id="clipPath63"><path d="M613 773 L647 773 L647 807 L613 807 L613 773 Z"/></clipPath><clipPath clipPathUnits="userSpaceOnUse" id="clipPath64"><path d="M646 790 C646 798.8365 638.8365 806 630 806 C621.1635 806 614 798.8365 614 790 C614 781.1635 621.1635 774 630 774 C638.8365 774 646 781.1635 646 790 Z"/></clipPath><clipPath clipPathUnits="userSpaceOnUse" id="clipPath65"><path d="M213 453 L247 453 L247 487 L213 487 L213 453 Z"/></clipPath><clipPath clipPathUnits="userSpaceOnUse" id="clipPath66"><path d="M246 470 C246 478.8365 238.8366 486 230 486 C221.1634 486 214 478.8365 214 470 C214 461.1635 221.1634 454 230 454 C238.8366 454 246 461.1635 246 470 Z"/></clipPath><clipPath clipPathUnits="userSpaceOnUse" id="clipPath67"><path d="M693 613 L727 613 L727 647 L693 647 L693 613 Z"/></clipPath><clipPath clipPathUnits="userSpaceOnUse" id="clipPath68"><path d="M726 630 C726 638.8365 718.8365 646 710 646 C701.1635 646 694 638.8365 694 630 C694 621.1635 701.1635 614 710 614 C718.8365 614 726 621.1635 726 630 Z"/></clipPath><clipPath clipPathUnits="userSpaceOnUse" id="clipPath69"><path d="M693 773 L727 773 L727 807 L693 807 L693 773 Z"/></clipPath><clipPath clipPathUnits="userSpaceOnUse" id="clipPath70"><path d="M726 790 C726 798.8365 718.8365 806 710 806 C701.1635 806 694 798.8365 694 790 C694 781.1635 701.1635 774 710 774 C718.8365 774 726 781.1635 726 790 Z"/></clipPath><clipPath clipPathUnits="userSpaceOnUse" id="clipPath71"><path d="M133 453 L167 453 L167 487 L133 487 L133 453 Z"/></clipPath><clipPath clipPathUnits="userSpaceOnUse" id="clipPath72"><path d="M166 470 C166 478.8365 158.8366 486 150 486 C141.1634 486 134 478.8365 134 470 C134 461.1635 141.1634 454 150 454 C158.8366 454 166 461.1635 166 470 Z"/></clipPath><clipPath clipPathUnits="userSpaceOnUse" id="clipPath73"><path d="M773 613 L807 613 L807 647 L773 647 L773 613 Z"/></clipPath><clipPath clipPathUnits="userSpaceOnUse" id="clipPath74"><path d="M806 630 C806 638.8365 798.8365 646 790 646 C781.1635 646 774 638.8365 774 630 C774 621.1635 781.1635 614 790 614 C798.8365 614 806 621.1635 806 630 Z"/></clipPath><clipPath clipPathUnits="userSpaceOnUse" id="clipPath75"><path d="M773 773 L807 773 L807 807 L773 807 L773 773 Z"/></clipPath><clipPath clipPathUnits="userSpaceOnUse" id="clipPath76"><path d="M806 790 C806 798.8365 798.8365 806 790 806 C781.1635 806 774 798.8365 774 790 C774 781.1635 781.1635 774 790 774 C798.8365 774 806 781.1635 806 790 Z"/></clipPath><clipPath clipPathUnits="userSpaceOnUse" id="clipPath77"><path d="M53 453 L87 453 L87 487 L53 487 L53 453 Z"/></clipPath><clipPath clipPathUnits="userSpaceOnUse" id="clipPath78"><path d="M86 470 C86 478.8365 78.8366 486 70 486 C61.1634 486 54 478.8365 54 470 C54 461.1635 61.1634 454 70 454 C78.8366 454 86 461.1635 86 470 Z"/></clipPath></defs><g><line y2="30" fill="none" x1="30" x2="830" y1="30"/><line y2="110" fill="none" x1="30" x2="830" y1="110"/><line y2="190" fill="none" x1="30" x2="830" y1="190"/><line y2="270" fill="none" x1="30" x2="830" y1="270"/><line y2="350" fill="none" x1="30" x2="830" y1="350"/><line y2="430" fill="none" x1="30" x2="830" y1="430"/><line y2="510" fill="none" x1="30" x2="830" y1="510"/><line y2="590" fill="none" x1="30" x2="830" y1="590"/><line y2="670" fill="none" x1="30" x2="830" y1="670"/><line y2="750" fill="none" x1="30" x2="830" y1="750"/><line y2="830" fill="none" x1="30" x2="830" y1="830"/><line y2="830" fill="none" x1="30" x2="30" y1="30"/><line y2="830" fill="none" x1="110" x2="110" y1="30"/><line y2="830" fill="none" x1="190" x2="190" y1="30"/><line y2="830" fill="none" x1="270" x2="270" y1="30"/><line y2="830" fill="none" x1="350" x2="350" y1="30"/><line y2="830" fill="none" x1="430" x2="430" y1="30"/><line y2="830" fill="none" x1="510" x2="510" y1="30"/><line y2="830" fill="none" x1="590" x2="590" y1="30"/><line y2="830" fill="none" x1="670" x2="670" y1="30"/><line y2="830" fill="none" x1="750" x2="750" y1="30"/><line y2="830" fill="none" x1="830" x2="830" y1="30"/><path d="M17.9375 79 L15.8281 79 L15.8281 65.5625 Q15.0781 66.2812 13.8359 67.0078 Q12.5938 67.7344 11.6094 68.0938 L11.6094 66.0625 Q13.3906 65.2344 14.7109 64.0469 Q16.0312 62.8594 16.5781 61.75 L17.9375 61.75 L17.9375 79 Z" stroke="none"/><path d="M21.0781 156.9688 L21.0781 159 L9.7344 159 Q9.7031 158.2344 9.9688 157.5312 Q10.4062 156.375 11.3594 155.25 Q12.3125 154.125 14.125 152.6406 Q16.9219 150.3438 17.9062 149.0078 Q18.8906 147.6719 18.8906 146.4688 Q18.8906 145.2188 17.9922 144.3594 Q17.0938 143.5 15.6562 143.5 Q14.1406 143.5 13.2266 144.4141 Q12.3125 145.3281 12.2969 146.9375 L10.125 146.7188 Q10.3438 144.2969 11.7969 143.0234 Q13.25 141.75 15.7031 141.75 Q18.1719 141.75 19.6172 143.1172 Q21.0625 144.4844 21.0625 146.5156 Q21.0625 147.5469 20.6406 148.5469 Q20.2188 149.5469 19.2422 150.6484 Q18.2656 151.75 15.9844 153.6719 Q14.0938 155.2656 13.5547 155.8281 Q13.0156 156.3906 12.6562 156.9688 L21.0781 156.9688 Z" stroke="none"/><path d="M10.0156 234.4688 L12.125 234.1875 Q12.4844 235.9688 13.3594 236.7656 Q14.2344 237.5625 15.4844 237.5625 Q16.9688 237.5625 17.9922 236.5312 Q19.0156 235.5 19.0156 233.9688 Q19.0156 232.5156 18.0703 231.5703 Q17.125 230.625 15.6562 230.625 Q15.0625 230.625 14.1719 230.8594 L14.4062 229.0156 Q14.6094 229.0312 14.75 229.0312 Q16.0938 229.0312 17.1719 228.3281 Q18.25 227.625 18.25 226.1719 Q18.25 225 17.4609 224.2422 Q16.6719 223.4844 15.4375 223.4844 Q14.2031 223.4844 13.3828 224.2578 Q12.5625 225.0312 12.3281 226.5781 L10.2188 226.2031 Q10.6094 224.0781 11.9766 222.9141 Q13.3438 221.75 15.3906 221.75 Q16.7969 221.75 17.9766 222.3516 Q19.1562 222.9531 19.7891 224 Q20.4219 225.0469 20.4219 226.2188 Q20.4219 227.3281 19.8203 228.2422 Q19.2188 229.1562 18.0469 229.6875 Q19.5781 230.0469 20.4219 231.1562 Q21.2656 232.2656 21.2656 233.9219 Q21.2656 236.1719 19.625 237.7422 Q17.9844 239.3125 15.4688 239.3125 Q13.2031 239.3125 11.7109 237.9609 Q10.2188 236.6094 10.0156 234.4688 Z" stroke="none"/><path d="M16.7656 319 L16.7656 314.8906 L9.3125 314.8906 L9.3125 312.9531 L17.1406 301.8125 L18.875 301.8125 L18.875 312.9531 L21.1875 312.9531 L21.1875 314.8906 L18.875 314.8906 L18.875 319 L16.7656 319 ZM16.7656 312.9531 L16.7656 305.2031 L11.375 312.9531 L16.7656 312.9531 Z" stroke="none"/><path d="M10 394.5 L12.2188 394.3125 Q12.4531 395.9219 13.3516 396.7422 Q14.25 397.5625 15.5156 397.5625 Q17.0469 397.5625 18.1016 396.4141 Q19.1562 395.2656 19.1562 393.3594 Q19.1562 391.5625 18.1406 390.5156 Q17.125 389.4688 15.4844 389.4688 Q14.4688 389.4688 13.6484 389.9297 Q12.8281 390.3906 12.3594 391.1406 L10.375 390.875 L12.0312 382.0469 L20.5781 382.0469 L20.5781 384.0625 L13.7188 384.0625 L12.7969 388.6875 Q14.3438 387.6094 16.0469 387.6094 Q18.2969 387.6094 19.8438 389.1641 Q21.3906 390.7188 21.3906 393.1719 Q21.3906 395.5 20.0312 397.2031 Q18.375 399.2969 15.5156 399.2969 Q13.1719 399.2969 11.6875 397.9844 Q10.2031 396.6719 10 394.5 Z" stroke="none"/><path d="M20.9375 466.0312 L18.8438 466.1875 Q18.5625 464.9531 18.0469 464.3906 Q17.1875 463.4844 15.9375 463.4844 Q14.9375 463.4844 14.1719 464.0469 Q13.1719 464.7656 12.6016 466.1641 Q12.0312 467.5625 12 470.1406 Q12.7656 468.9844 13.8672 468.4219 Q14.9688 467.8594 16.1719 467.8594 Q18.2812 467.8594 19.7656 469.4062 Q21.25 470.9531 21.25 473.4219 Q21.25 475.0312 20.5547 476.4219 Q19.8594 477.8125 18.6406 478.5547 Q17.4219 479.2969 15.875 479.2969 Q13.2344 479.2969 11.5703 477.3516 Q9.9062 475.4062 9.9062 470.9531 Q9.9062 465.9844 11.75 463.7188 Q13.3438 461.75 16.0625 461.75 Q18.0938 461.75 19.3906 462.8828 Q20.6875 464.0156 20.9375 466.0312 ZM12.3281 473.4375 Q12.3281 474.5156 12.7891 475.5156 Q13.25 476.5156 14.0859 477.0391 Q14.9219 477.5625 15.8281 477.5625 Q17.1719 477.5625 18.1328 476.4844 Q19.0938 475.4062 19.0938 473.5469 Q19.0938 471.7656 18.1406 470.7422 Q17.1875 469.7188 15.75 469.7188 Q14.3281 469.7188 13.3281 470.7422 Q12.3281 471.7656 12.3281 473.4375 Z" stroke="none"/><path d="M10.1406 544.0625 L10.1406 542.0469 L21.2656 542.0469 L21.2656 543.6875 Q19.625 545.4219 18.0078 548.3203 Q16.3906 551.2188 15.5156 554.2812 Q14.8906 556.4375 14.7031 559 L12.5469 559 Q12.5781 556.9688 13.3359 554.1016 Q14.0938 551.2344 15.5234 548.5625 Q16.9531 545.8906 18.5469 544.0625 L10.1406 544.0625 Z" stroke="none"/><path d="M13.25 629.6875 Q11.9375 629.2031 11.3047 628.3125 Q10.6719 627.4219 10.6719 626.1719 Q10.6719 624.2969 12.0156 623.0234 Q13.3594 621.75 15.5938 621.75 Q17.8438 621.75 19.2188 623.0547 Q20.5938 624.3594 20.5938 626.2344 Q20.5938 627.4375 19.9688 628.3203 Q19.3438 629.2031 18.0625 629.6875 Q19.6406 630.2031 20.4688 631.3516 Q21.2969 632.5 21.2969 634.0938 Q21.2969 636.2969 19.7344 637.7969 Q18.1719 639.2969 15.6406 639.2969 Q13.0938 639.2969 11.5312 637.7891 Q9.9688 636.2812 9.9688 634.0312 Q9.9688 632.3594 10.8203 631.2266 Q11.6719 630.0938 13.25 629.6875 ZM12.8281 626.1094 Q12.8281 627.3281 13.6094 628.1016 Q14.3906 628.875 15.6406 628.875 Q16.8594 628.875 17.6406 628.1094 Q18.4219 627.3438 18.4219 626.2188 Q18.4219 625.0625 17.6172 624.2734 Q16.8125 623.4844 15.625 623.4844 Q14.4219 623.4844 13.625 624.2578 Q12.8281 625.0312 12.8281 626.1094 ZM12.1406 634.0469 Q12.1406 634.9375 12.5703 635.7812 Q13 636.625 13.8438 637.0938 Q14.6875 637.5625 15.6562 637.5625 Q17.1719 637.5625 18.1562 636.5859 Q19.1406 635.6094 19.1406 634.1094 Q19.1406 632.5938 18.125 631.5938 Q17.1094 630.5938 15.5938 630.5938 Q14.0938 630.5938 13.1172 631.5781 Q12.1406 632.5625 12.1406 634.0469 Z" stroke="none"/><path d="M10.3125 715.0312 L12.3438 714.8438 Q12.5938 716.2656 13.3203 716.9141 Q14.0469 717.5625 15.1875 717.5625 Q16.1562 717.5625 16.8906 717.1172 Q17.625 716.6719 18.0938 715.9219 Q18.5625 715.1719 18.8828 713.9062 Q19.2031 712.6406 19.2031 711.3281 Q19.2031 711.1875 19.1875 710.9062 Q18.5469 711.9219 17.4531 712.5469 Q16.3594 713.1719 15.0781 713.1719 Q12.9531 713.1719 11.4766 711.625 Q10 710.0781 10 707.5469 Q10 704.9375 11.5391 703.3438 Q13.0781 701.75 15.4062 701.75 Q17.0781 701.75 18.4688 702.6484 Q19.8594 703.5469 20.5781 705.2188 Q21.2969 706.8906 21.2969 710.0625 Q21.2969 713.3438 20.5781 715.2969 Q19.8594 717.25 18.4531 718.2734 Q17.0469 719.2969 15.1406 719.2969 Q13.125 719.2969 11.8516 718.1719 Q10.5781 717.0469 10.3125 715.0312 ZM18.9531 707.4375 Q18.9531 705.625 17.9844 704.5625 Q17.0156 703.5 15.6562 703.5 Q14.25 703.5 13.2109 704.6484 Q12.1719 705.7969 12.1719 707.625 Q12.1719 709.2656 13.1562 710.2891 Q14.1406 711.3125 15.5938 711.3125 Q17.0625 711.3125 18.0078 710.2891 Q18.9531 709.2656 18.9531 707.4375 Z" stroke="none"/><path d="M17.9375 799 L15.8281 799 L15.8281 785.5625 Q15.0781 786.2812 13.8359 787.0078 Q12.5938 787.7344 11.6094 788.0938 L11.6094 786.0625 Q13.3906 785.2344 14.7109 784.0469 Q16.0312 782.8594 16.5781 781.75 L17.9375 781.75 L17.9375 799 ZM23.3477 790.5312 Q23.3477 787.4844 23.9727 785.625 Q24.5977 783.7656 25.832 782.7578 Q27.0664 781.75 28.9414 781.75 Q30.332 781.75 31.3711 782.3047 Q32.4102 782.8594 33.0898 783.9062 Q33.7695 784.9531 34.1602 786.4609 Q34.5508 787.9688 34.5508 790.5312 Q34.5508 793.5469 33.9258 795.4062 Q33.3008 797.2656 32.0664 798.2812 Q30.832 799.2969 28.9414 799.2969 Q26.457 799.2969 25.0508 797.5156 Q23.3477 795.3594 23.3477 790.5312 ZM25.5195 790.5312 Q25.5195 794.75 26.5039 796.1562 Q27.4883 797.5625 28.9414 797.5625 Q30.3945 797.5625 31.3867 796.1562 Q32.3789 794.75 32.3789 790.5312 Q32.3789 786.2812 31.3867 784.8906 Q30.3945 783.5 28.9258 783.5 Q27.4727 783.5 26.5977 784.7188 Q25.5195 786.2969 25.5195 790.5312 Z" stroke="none"/><path d="M72.9375 24 L70.8281 24 L70.8281 10.5625 Q70.0781 11.2812 68.8359 12.0078 Q67.5938 12.7344 66.6094 13.0938 L66.6094 11.0625 Q68.3906 10.2344 69.7109 9.0469 Q71.0312 7.8594 71.5781 6.75 L72.9375 6.75 L72.9375 24 Z" stroke="none"/><path d="M156.0781 21.9688 L156.0781 24 L144.7344 24 Q144.7031 23.2344 144.9688 22.5312 Q145.4062 21.375 146.3594 20.25 Q147.3125 19.125 149.125 17.6406 Q151.9219 15.3438 152.9062 14.0078 Q153.8906 12.6719 153.8906 11.4688 Q153.8906 10.2188 152.9922 9.3594 Q152.0938 8.5 150.6562 8.5 Q149.1406 8.5 148.2266 9.4141 Q147.3125 10.3281 147.2969 11.9375 L145.125 11.7188 Q145.3438 9.2969 146.7969 8.0234 Q148.25 6.75 150.7031 6.75 Q153.1719 6.75 154.6172 8.1172 Q156.0625 9.4844 156.0625 11.5156 Q156.0625 12.5469 155.6406 13.5469 Q155.2188 14.5469 154.2422 15.6484 Q153.2656 16.75 150.9844 18.6719 Q149.0938 20.2656 148.5547 20.8281 Q148.0156 21.3906 147.6562 21.9688 L156.0781 21.9688 Z" stroke="none"/><path d="M225.0156 19.4688 L227.125 19.1875 Q227.4844 20.9688 228.3594 21.7656 Q229.2344 22.5625 230.4844 22.5625 Q231.9688 22.5625 232.9922 21.5312 Q234.0156 20.5 234.0156 18.9688 Q234.0156 17.5156 233.0703 16.5703 Q232.125 15.625 230.6562 15.625 Q230.0625 15.625 229.1719 15.8594 L229.4062 14.0156 Q229.6094 14.0312 229.75 14.0312 Q231.0938 14.0312 232.1719 13.3281 Q233.25 12.625 233.25 11.1719 Q233.25 10 232.4609 9.2422 Q231.6719 8.4844 230.4375 8.4844 Q229.2031 8.4844 228.3828 9.2578 Q227.5625 10.0312 227.3281 11.5781 L225.2188 11.2031 Q225.6094 9.0781 226.9766 7.9141 Q228.3438 6.75 230.3906 6.75 Q231.7969 6.75 232.9766 7.3516 Q234.1562 7.9531 234.7891 9 Q235.4219 10.0469 235.4219 11.2188 Q235.4219 12.3281 234.8203 13.2422 Q234.2188 14.1562 233.0469 14.6875 Q234.5781 15.0469 235.4219 16.1562 Q236.2656 17.2656 236.2656 18.9219 Q236.2656 21.1719 234.625 22.7422 Q232.9844 24.3125 230.4688 24.3125 Q228.2031 24.3125 226.7109 22.9609 Q225.2188 21.6094 225.0156 19.4688 Z" stroke="none"/><path d="M311.7656 24 L311.7656 19.8906 L304.3125 19.8906 L304.3125 17.9531 L312.1406 6.8125 L313.875 6.8125 L313.875 17.9531 L316.1875 17.9531 L316.1875 19.8906 L313.875 19.8906 L313.875 24 L311.7656 24 ZM311.7656 17.9531 L311.7656 10.2031 L306.375 17.9531 L311.7656 17.9531 Z" stroke="none"/><path d="M385 19.5 L387.2188 19.3125 Q387.4531 20.9219 388.3516 21.7422 Q389.25 22.5625 390.5156 22.5625 Q392.0469 22.5625 393.1016 21.4141 Q394.1562 20.2656 394.1562 18.3594 Q394.1562 16.5625 393.1406 15.5156 Q392.125 14.4688 390.4844 14.4688 Q389.4688 14.4688 388.6484 14.9297 Q387.8281 15.3906 387.3594 16.1406 L385.375 15.875 L387.0312 7.0469 L395.5781 7.0469 L395.5781 9.0625 L388.7188 9.0625 L387.7969 13.6875 Q389.3438 12.6094 391.0469 12.6094 Q393.2969 12.6094 394.8438 14.1641 Q396.3906 15.7188 396.3906 18.1719 Q396.3906 20.5 395.0312 22.2031 Q393.375 24.2969 390.5156 24.2969 Q388.1719 24.2969 386.6875 22.9844 Q385.2031 21.6719 385 19.5 Z" stroke="none"/><path d="M475.9375 11.0312 L473.8438 11.1875 Q473.5625 9.9531 473.0469 9.3906 Q472.1875 8.4844 470.9375 8.4844 Q469.9375 8.4844 469.1719 9.0469 Q468.1719 9.7656 467.6016 11.1641 Q467.0312 12.5625 467 15.1406 Q467.7656 13.9844 468.8672 13.4219 Q469.9688 12.8594 471.1719 12.8594 Q473.2812 12.8594 474.7656 14.4062 Q476.25 15.9531 476.25 18.4219 Q476.25 20.0312 475.5547 21.4219 Q474.8594 22.8125 473.6406 23.5547 Q472.4219 24.2969 470.875 24.2969 Q468.2344 24.2969 466.5703 22.3516 Q464.9062 20.4062 464.9062 15.9531 Q464.9062 10.9844 466.75 8.7188 Q468.3438 6.75 471.0625 6.75 Q473.0938 6.75 474.3906 7.8828 Q475.6875 9.0156 475.9375 11.0312 ZM467.3281 18.4375 Q467.3281 19.5156 467.7891 20.5156 Q468.25 21.5156 469.0859 22.0391 Q469.9219 22.5625 470.8281 22.5625 Q472.1719 22.5625 473.1328 21.4844 Q474.0938 20.4062 474.0938 18.5469 Q474.0938 16.7656 473.1406 15.7422 Q472.1875 14.7188 470.75 14.7188 Q469.3281 14.7188 468.3281 15.7422 Q467.3281 16.7656 467.3281 18.4375 Z" stroke="none"/><path d="M545.1406 9.0625 L545.1406 7.0469 L556.2656 7.0469 L556.2656 8.6875 Q554.625 10.4219 553.0078 13.3203 Q551.3906 16.2188 550.5156 19.2812 Q549.8906 21.4375 549.7031 24 L547.5469 24 Q547.5781 21.9688 548.3359 19.1016 Q549.0938 16.2344 550.5234 13.5625 Q551.9531 10.8906 553.5469 9.0625 L545.1406 9.0625 Z" stroke="none"/><path d="M628.25 14.6875 Q626.9375 14.2031 626.3047 13.3125 Q625.6719 12.4219 625.6719 11.1719 Q625.6719 9.2969 627.0156 8.0234 Q628.3594 6.75 630.5938 6.75 Q632.8438 6.75 634.2188 8.0547 Q635.5938 9.3594 635.5938 11.2344 Q635.5938 12.4375 634.9688 13.3203 Q634.3438 14.2031 633.0625 14.6875 Q634.6406 15.2031 635.4688 16.3516 Q636.2969 17.5 636.2969 19.0938 Q636.2969 21.2969 634.7344 22.7969 Q633.1719 24.2969 630.6406 24.2969 Q628.0938 24.2969 626.5312 22.7891 Q624.9688 21.2812 624.9688 19.0312 Q624.9688 17.3594 625.8203 16.2266 Q626.6719 15.0938 628.25 14.6875 ZM627.8281 11.1094 Q627.8281 12.3281 628.6094 13.1016 Q629.3906 13.875 630.6406 13.875 Q631.8594 13.875 632.6406 13.1094 Q633.4219 12.3438 633.4219 11.2188 Q633.4219 10.0625 632.6172 9.2734 Q631.8125 8.4844 630.625 8.4844 Q629.4219 8.4844 628.625 9.2578 Q627.8281 10.0312 627.8281 11.1094 ZM627.1406 19.0469 Q627.1406 19.9375 627.5703 20.7812 Q628 21.625 628.8438 22.0938 Q629.6875 22.5625 630.6562 22.5625 Q632.1719 22.5625 633.1562 21.5859 Q634.1406 20.6094 634.1406 19.1094 Q634.1406 17.5938 633.125 16.5938 Q632.1094 15.5938 630.5938 15.5938 Q629.0938 15.5938 628.1172 16.5781 Q627.1406 17.5625 627.1406 19.0469 Z" stroke="none"/><path d="M705.3125 20.0312 L707.3438 19.8438 Q707.5938 21.2656 708.3203 21.9141 Q709.0469 22.5625 710.1875 22.5625 Q711.1562 22.5625 711.8906 22.1172 Q712.625 21.6719 713.0938 20.9219 Q713.5625 20.1719 713.8828 18.9062 Q714.2031 17.6406 714.2031 16.3281 Q714.2031 16.1875 714.1875 15.9062 Q713.5469 16.9219 712.4531 17.5469 Q711.3594 18.1719 710.0781 18.1719 Q707.9531 18.1719 706.4766 16.625 Q705 15.0781 705 12.5469 Q705 9.9375 706.5391 8.3438 Q708.0781 6.75 710.4062 6.75 Q712.0781 6.75 713.4688 7.6484 Q714.8594 8.5469 715.5781 10.2188 Q716.2969 11.8906 716.2969 15.0625 Q716.2969 18.3438 715.5781 20.2969 Q714.8594 22.25 713.4531 23.2734 Q712.0469 24.2969 710.1406 24.2969 Q708.125 24.2969 706.8516 23.1719 Q705.5781 22.0469 705.3125 20.0312 ZM713.9531 12.4375 Q713.9531 10.625 712.9844 9.5625 Q712.0156 8.5 710.6562 8.5 Q709.25 8.5 708.2109 9.6484 Q707.1719 10.7969 707.1719 12.625 Q707.1719 14.2656 708.1562 15.2891 Q709.1406 16.3125 710.5938 16.3125 Q712.0625 16.3125 713.0078 15.2891 Q713.9531 14.2656 713.9531 12.4375 Z" stroke="none"/><path d="M792.9375 24 L790.8281 24 L790.8281 10.5625 Q790.0781 11.2812 788.8359 12.0078 Q787.5938 12.7344 786.6094 13.0938 L786.6094 11.0625 Q788.3906 10.2344 789.7109 9.0469 Q791.0312 7.8594 791.5781 6.75 L792.9375 6.75 L792.9375 24 ZM798.3477 15.5312 Q798.3477 12.4844 798.9727 10.625 Q799.5977 8.7656 800.832 7.7578 Q802.0664 6.75 803.9414 6.75 Q805.332 6.75 806.3711 7.3047 Q807.4102 7.8594 808.0898 8.9062 Q808.7695 9.9531 809.1602 11.4609 Q809.5508 12.9688 809.5508 15.5312 Q809.5508 18.5469 808.9258 20.4062 Q808.3008 22.2656 807.0664 23.2812 Q805.832 24.2969 803.9414 24.2969 Q801.457 24.2969 800.0508 22.5156 Q798.3477 20.3594 798.3477 15.5312 ZM800.5195 15.5312 Q800.5195 19.75 801.5039 21.1562 Q802.4883 22.5625 803.9414 22.5625 Q805.3945 22.5625 806.3867 21.1562 Q807.3789 19.75 807.3789 15.5312 Q807.3789 11.2812 806.3867 9.8906 Q805.3945 8.5 803.9258 8.5 Q802.4727 8.5 801.5977 9.7188 Q800.5195 11.2969 800.5195 15.5312 Z" stroke="none"/></g><g fill="gray" font-size="24px" stroke-dasharray="10" font-family="'Arial'" stroke-linecap="butt" stroke="gray"><line y2="430" fill="none" x1="350" clip-path="url(#clipPath1)" x2="370" y1="450"/><line y2="430" fill="none" x1="350" clip-path="url(#clipPath1)" x2="390" y1="470"/><line y2="430" fill="none" x1="350" clip-path="url(#clipPath1)" x2="410" y1="490"/><line y2="430" fill="none" x1="350" clip-path="url(#clipPath1)" x2="430" y1="510"/><line y2="450" fill="none" x1="370" clip-path="url(#clipPath1)" x2="430" y1="510"/><line y2="470" fill="none" x1="390" clip-path="url(#clipPath1)" x2="430" y1="510"/><line y2="490" fill="none" x1="410" clip-path="url(#clipPath1)" x2="430" y1="510"/><line y2="510" fill="none" x1="430" clip-path="url(#clipPath1)" x2="430" y1="510"/><line y2="510" fill="none" x1="430" clip-path="url(#clipPath2)" x2="450" y1="530"/><line y2="510" fill="none" x1="430" clip-path="url(#clipPath2)" x2="470" y1="550"/><line y2="510" fill="none" x1="430" clip-path="url(#clipPath2)" x2="490" y1="570"/><line y2="510" fill="none" x1="430" clip-path="url(#clipPath2)" x2="510" y1="590"/><line y2="530" fill="none" x1="450" clip-path="url(#clipPath2)" x2="510" y1="590"/><line y2="550" fill="none" x1="470" clip-path="url(#clipPath2)" x2="510" y1="590"/><line y2="570" fill="none" x1="490" clip-path="url(#clipPath2)" x2="510" y1="590"/><line y2="590" fill="none" x1="510" clip-path="url(#clipPath2)" x2="510" y1="590"/><line y2="350" fill="none" x1="270" clip-path="url(#clipPath3)" x2="290" y1="370"/><line y2="350" fill="none" x1="270" clip-path="url(#clipPath3)" x2="310" y1="390"/><line y2="350" fill="none" x1="270" clip-path="url(#clipPath3)" x2="330" y1="410"/><line y2="350" fill="none" x1="270" clip-path="url(#clipPath3)" x2="350" y1="430"/><line y2="370" fill="none" x1="290" clip-path="url(#clipPath3)" x2="350" y1="430"/><line y2="390" fill="none" x1="310" clip-path="url(#clipPath3)" x2="350" y1="430"/><line y2="410" fill="none" x1="330" clip-path="url(#clipPath3)" x2="350" y1="430"/><line y2="430" fill="none" x1="350" clip-path="url(#clipPath3)" x2="350" y1="430"/><line y2="510" fill="none" x1="510" clip-path="url(#clipPath4)" x2="530" y1="530"/><line y2="510" fill="none" x1="510" clip-path="url(#clipPath4)" x2="550" y1="550"/><line y2="510" fill="none" x1="510" clip-path="url(#clipPath4)" x2="570" y1="570"/><line y2="510" fill="none" x1="510" clip-path="url(#clipPath4)" x2="590" y1="590"/><line y2="530" fill="none" x1="530" clip-path="url(#clipPath4)" x2="590" y1="590"/><line y2="550" fill="none" x1="550" clip-path="url(#clipPath4)" x2="590" y1="590"/><line y2="570" fill="none" x1="570" clip-path="url(#clipPath4)" x2="590" y1="590"/><line y2="590" fill="none" x1="590" clip-path="url(#clipPath4)" x2="590" y1="590"/><line y2="270" fill="none" x1="270" clip-path="url(#clipPath5)" x2="290" y1="290"/><line y2="270" fill="none" x1="270" clip-path="url(#clipPath5)" x2="310" y1="310"/><line y2="270" fill="none" x1="270" clip-path="url(#clipPath5)" x2="330" y1="330"/><line y2="270" fill="none" x1="270" clip-path="url(#clipPath5)" x2="350" y1="350"/><line y2="290" fill="none" x1="290" clip-path="url(#clipPath5)" x2="350" y1="350"/><line y2="310" fill="none" x1="310" clip-path="url(#clipPath5)" x2="350" y1="350"/><line y2="330" fill="none" x1="330" clip-path="url(#clipPath5)" x2="350" y1="350"/><line y2="350" fill="none" x1="350" clip-path="url(#clipPath5)" x2="350" y1="350"/><line y2="430" fill="none" x1="430" clip-path="url(#clipPath6)" x2="450" y1="450"/><line y2="430" fill="none" x1="430" clip-path="url(#clipPath6)" x2="470" y1="470"/><line y2="430" fill="none" x1="430" clip-path="url(#clipPath6)" x2="490" y1="490"/><line y2="430" fill="none" x1="430" clip-path="url(#clipPath6)" x2="510" y1="510"/><line y2="450" fill="none" x1="450" clip-path="url(#clipPath6)" x2="510" y1="510"/><line y2="470" fill="none" x1="470" clip-path="url(#clipPath6)" x2="510" y1="510"/><line y2="490" fill="none" x1="490" clip-path="url(#clipPath6)" x2="510" y1="510"/><line y2="510" fill="none" x1="510" clip-path="url(#clipPath6)" x2="510" y1="510"/><line y2="350" fill="none" x1="350" clip-path="url(#clipPath7)" x2="370" y1="370"/><line y2="350" fill="none" x1="350" clip-path="url(#clipPath7)" x2="390" y1="390"/><line y2="350" fill="none" x1="350" clip-path="url(#clipPath7)" x2="410" y1="410"/><line y2="350" fill="none" x1="350" clip-path="url(#clipPath7)" x2="430" y1="430"/><line y2="370" fill="none" x1="370" clip-path="url(#clipPath7)" x2="430" y1="430"/><line y2="390" fill="none" x1="390" clip-path="url(#clipPath7)" x2="430" y1="430"/><line y2="410" fill="none" x1="410" clip-path="url(#clipPath7)" x2="430" y1="430"/><line y2="430" fill="none" x1="430" clip-path="url(#clipPath7)" x2="430" y1="430"/><line y2="270" fill="none" x1="350" clip-path="url(#clipPath8)" x2="370" y1="290"/><line y2="270" fill="none" x1="350" clip-path="url(#clipPath8)" x2="390" y1="310"/><line y2="270" fill="none" x1="350" clip-path="url(#clipPath8)" x2="410" y1="330"/><line y2="270" fill="none" x1="350" clip-path="url(#clipPath8)" x2="430" y1="350"/><line y2="290" fill="none" x1="370" clip-path="url(#clipPath8)" x2="430" y1="350"/><line y2="310" fill="none" x1="390" clip-path="url(#clipPath8)" x2="430" y1="350"/><line y2="330" fill="none" x1="410" clip-path="url(#clipPath8)" x2="430" y1="350"/><line y2="350" fill="none" x1="430" clip-path="url(#clipPath8)" x2="430" y1="350"/><line y2="350" fill="none" x1="430" clip-path="url(#clipPath9)" x2="450" y1="370"/><line y2="350" fill="none" x1="430" clip-path="url(#clipPath9)" x2="470" y1="390"/><line y2="350" fill="none" x1="430" clip-path="url(#clipPath9)" x2="490" y1="410"/><line y2="350" fill="none" x1="430" clip-path="url(#clipPath9)" x2="510" y1="430"/><line y2="370" fill="none" x1="450" clip-path="url(#clipPath9)" x2="510" y1="430"/><line y2="390" fill="none" x1="470" clip-path="url(#clipPath9)" x2="510" y1="430"/><line y2="410" fill="none" x1="490" clip-path="url(#clipPath9)" x2="510" y1="430"/><line y2="430" fill="none" x1="510" clip-path="url(#clipPath9)" x2="510" y1="430"/><line y2="430" fill="none" x1="510" clip-path="url(#clipPath10)" x2="530" y1="450"/><line y2="430" fill="none" x1="510" clip-path="url(#clipPath10)" x2="550" y1="470"/><line y2="430" fill="none" x1="510" clip-path="url(#clipPath10)" x2="570" y1="490"/><line y2="430" fill="none" x1="510" clip-path="url(#clipPath10)" x2="590" y1="510"/><line y2="450" fill="none" x1="530" clip-path="url(#clipPath10)" x2="590" y1="510"/><line y2="470" fill="none" x1="550" clip-path="url(#clipPath10)" x2="590" y1="510"/><line y2="490" fill="none" x1="570" clip-path="url(#clipPath10)" x2="590" y1="510"/><line y2="510" fill="none" x1="590" clip-path="url(#clipPath10)" x2="590" y1="510"/><line y2="350" fill="none" x1="510" clip-path="url(#clipPath11)" x2="530" y1="370"/><line y2="350" fill="none" x1="510" clip-path="url(#clipPath11)" x2="550" y1="390"/><line y2="350" fill="none" x1="510" clip-path="url(#clipPath11)" x2="570" y1="410"/><line y2="350" fill="none" x1="510" clip-path="url(#clipPath11)" x2="590" y1="430"/><line y2="370" fill="none" x1="530" clip-path="url(#clipPath11)" x2="590" y1="430"/><line y2="390" fill="none" x1="550" clip-path="url(#clipPath11)" x2="590" y1="430"/><line y2="410" fill="none" x1="570" clip-path="url(#clipPath11)" x2="590" y1="430"/><line y2="430" fill="none" x1="590" clip-path="url(#clipPath11)" x2="590" y1="430"/><line y2="270" fill="none" x1="430" clip-path="url(#clipPath12)" x2="450" y1="290"/><line y2="270" fill="none" x1="430" clip-path="url(#clipPath12)" x2="470" y1="310"/><line y2="270" fill="none" x1="430" clip-path="url(#clipPath12)" x2="490" y1="330"/><line y2="270" fill="none" x1="430" clip-path="url(#clipPath12)" x2="510" y1="350"/><line y2="290" fill="none" x1="450" clip-path="url(#clipPath12)" x2="510" y1="350"/><line y2="310" fill="none" x1="470" clip-path="url(#clipPath12)" x2="510" y1="350"/><line y2="330" fill="none" x1="490" clip-path="url(#clipPath12)" x2="510" y1="350"/><line y2="350" fill="none" x1="510" clip-path="url(#clipPath12)" x2="510" y1="350"/><line y2="590" fill="none" x1="270" clip-path="url(#clipPath13)" x2="290" y1="610"/><line y2="590" fill="none" x1="270" clip-path="url(#clipPath13)" x2="310" y1="630"/><line y2="590" fill="none" x1="270" clip-path="url(#clipPath13)" x2="330" y1="650"/><line y2="590" fill="none" x1="270" clip-path="url(#clipPath13)" x2="350" y1="670"/><line y2="610" fill="none" x1="290" clip-path="url(#clipPath13)" x2="350" y1="670"/><line y2="630" fill="none" x1="310" clip-path="url(#clipPath13)" x2="350" y1="670"/><line y2="650" fill="none" x1="330" clip-path="url(#clipPath13)" x2="350" y1="670"/><line y2="670" fill="none" x1="350" clip-path="url(#clipPath13)" x2="350" y1="670"/><line y2="590" fill="none" x1="350" clip-path="url(#clipPath14)" x2="370" y1="610"/><line y2="590" fill="none" x1="350" clip-path="url(#clipPath14)" x2="390" y1="630"/><line y2="590" fill="none" x1="350" clip-path="url(#clipPath14)" x2="410" y1="650"/><line y2="590" fill="none" x1="350" clip-path="url(#clipPath14)" x2="430" y1="670"/><line y2="610" fill="none" x1="370" clip-path="url(#clipPath14)" x2="430" y1="670"/><line y2="630" fill="none" x1="390" clip-path="url(#clipPath14)" x2="430" y1="670"/><line y2="650" fill="none" x1="410" clip-path="url(#clipPath14)" x2="430" y1="670"/><line y2="670" fill="none" x1="430" clip-path="url(#clipPath14)" x2="430" y1="670"/><line y2="510" fill="none" x1="270" clip-path="url(#clipPath15)" x2="290" y1="530"/><line y2="510" fill="none" x1="270" clip-path="url(#clipPath15)" x2="310" y1="550"/><line y2="510" fill="none" x1="270" clip-path="url(#clipPath15)" x2="330" y1="570"/><line y2="510" fill="none" x1="270" clip-path="url(#clipPath15)" x2="350" y1="590"/><line y2="530" fill="none" x1="290" clip-path="url(#clipPath15)" x2="350" y1="590"/><line y2="550" fill="none" x1="310" clip-path="url(#clipPath15)" x2="350" y1="590"/><line y2="570" fill="none" x1="330" clip-path="url(#clipPath15)" x2="350" y1="590"/><line y2="590" fill="none" x1="350" clip-path="url(#clipPath15)" x2="350" y1="590"/><line y2="430" fill="none" x1="270" clip-path="url(#clipPath16)" x2="290" y1="450"/><line y2="430" fill="none" x1="270" clip-path="url(#clipPath16)" x2="310" y1="470"/><line y2="430" fill="none" x1="270" clip-path="url(#clipPath16)" x2="330" y1="490"/><line y2="430" fill="none" x1="270" clip-path="url(#clipPath16)" x2="350" y1="510"/><line y2="450" fill="none" x1="290" clip-path="url(#clipPath16)" x2="350" y1="510"/><line y2="470" fill="none" x1="310" clip-path="url(#clipPath16)" x2="350" y1="510"/><line y2="490" fill="none" x1="330" clip-path="url(#clipPath16)" x2="350" y1="510"/><line y2="510" fill="none" x1="350" clip-path="url(#clipPath16)" x2="350" y1="510"/><line y2="510" fill="none" x1="350" clip-path="url(#clipPath17)" x2="370" y1="530"/><line y2="510" fill="none" x1="350" clip-path="url(#clipPath17)" x2="390" y1="550"/><line y2="510" fill="none" x1="350" clip-path="url(#clipPath17)" x2="410" y1="570"/><line y2="510" fill="none" x1="350" clip-path="url(#clipPath17)" x2="430" y1="590"/><line y2="530" fill="none" x1="370" clip-path="url(#clipPath17)" x2="430" y1="590"/><line y2="550" fill="none" x1="390" clip-path="url(#clipPath17)" x2="430" y1="590"/><line y2="570" fill="none" x1="410" clip-path="url(#clipPath17)" x2="430" y1="590"/><line y2="590" fill="none" x1="430" clip-path="url(#clipPath17)" x2="430" y1="590"/><line y2="590" fill="none" x1="430" clip-path="url(#clipPath18)" x2="450" y1="610"/><line y2="590" fill="none" x1="430" clip-path="url(#clipPath18)" x2="470" y1="630"/><line y2="590" fill="none" x1="430" clip-path="url(#clipPath18)" x2="490" y1="650"/><line y2="590" fill="none" x1="430" clip-path="url(#clipPath18)" x2="510" y1="670"/><line y2="610" fill="none" x1="450" clip-path="url(#clipPath18)" x2="510" y1="670"/><line y2="630" fill="none" x1="470" clip-path="url(#clipPath18)" x2="510" y1="670"/><line y2="650" fill="none" x1="490" clip-path="url(#clipPath18)" x2="510" y1="670"/><line y2="670" fill="none" x1="510" clip-path="url(#clipPath18)" x2="510" y1="670"/></g><g fill="rgb(30,144,255)" font-size="24px" font-family="'Arial'" stroke="rgb(30,144,255)"><circle r="16" clip-path="url(#clipPath19)" cx="70" cy="70" stroke="none"/><circle fill="none" r="16" clip-path="url(#clipPath19)" cx="70" cy="70" stroke="black"/><path fill="black" d="M54.9688 79 L61.8438 61.1094 L64.3906 61.1094 L71.7188 79 L69.0156 79 L66.9219 73.5781 L59.4375 73.5781 L57.4844 79 L54.9688 79 ZM60.125 71.6562 L66.1875 71.6562 L64.3281 66.6875 Q63.4688 64.4375 63.0625 62.9844 Q62.7188 64.7031 62.0938 66.4062 L60.125 71.6562 ZM80.9873 79 L78.7842 79 L78.7842 65 Q78.0029 65.75 76.7139 66.5078 Q75.4248 67.2656 74.3936 67.6406 L74.3936 65.5156 Q76.2373 64.6562 77.6201 63.4219 Q79.0029 62.1875 79.5654 61.0312 L80.9873 61.0312 L80.9873 79 Z" clip-path="url(#clipPath20)" stroke="none"/><circle fill="rgb(144,238,144)" r="16" clip-path="url(#clipPath21)" cx="70" cy="230" stroke="none"/><circle fill="none" r="16" clip-path="url(#clipPath21)" cx="70" cy="230" stroke="black"/><path fill="black" d="M57.6875 238 L57.6875 221.5312 L63.8594 221.5312 Q65.75 221.5312 66.8906 222.0312 Q68.0312 222.5312 68.6719 223.5703 Q69.3125 224.6094 69.3125 225.75 Q69.3125 226.7969 68.7422 227.7344 Q68.1719 228.6719 67.0156 229.2344 Q68.5156 229.6719 69.3125 230.7344 Q70.1094 231.7969 70.1094 233.2344 Q70.1094 234.3906 69.625 235.3828 Q69.1406 236.375 68.4219 236.9141 Q67.7031 237.4531 66.6172 237.7266 Q65.5312 238 63.9688 238 L57.6875 238 ZM59.8594 228.4531 L63.4219 228.4531 Q64.875 228.4531 65.5 228.2656 Q66.3281 228.0156 66.75 227.4453 Q67.1719 226.875 67.1719 226 Q67.1719 225.1875 66.7812 224.5625 Q66.3906 223.9375 65.6562 223.7109 Q64.9219 223.4844 63.1562 223.4844 L59.8594 223.4844 L59.8594 228.4531 ZM59.8594 236.0625 L63.9688 236.0625 Q65.0156 236.0625 65.4375 235.9844 Q66.2031 235.8438 66.7031 235.5312 Q67.2031 235.2188 67.5312 234.6172 Q67.8594 234.0156 67.8594 233.2344 Q67.8594 232.3125 67.3906 231.6328 Q66.9219 230.9531 66.0859 230.6719 Q65.25 230.3906 63.6719 230.3906 L59.8594 230.3906 L59.8594 236.0625 ZM79.9033 238 L77.8877 238 L77.8877 225.125 Q77.1533 225.8125 75.9736 226.5078 Q74.7939 227.2031 73.8408 227.5625 L73.8408 225.5938 Q75.5439 224.7969 76.8096 223.6641 Q78.0752 222.5312 78.6064 221.4688 L79.9033 221.4688 L79.9033 238 Z" clip-path="url(#clipPath22)" stroke="none"/><circle fill="rgb(250,128,114)" r="16" clip-path="url(#clipPath23)" cx="790" cy="470" stroke="none"/><circle fill="none" r="16" clip-path="url(#clipPath23)" cx="790" cy="470" stroke="black"/><path fill="black" d="M788.5156 472.2344 L790.7031 472.7812 Q790.0156 475.4688 788.2344 476.875 Q786.4531 478.2812 783.8906 478.2812 Q781.2188 478.2812 779.5547 477.1953 Q777.8906 476.1094 777.0156 474.0547 Q776.1406 472 776.1406 469.6406 Q776.1406 467.0781 777.125 465.1641 Q778.1094 463.25 779.9219 462.25 Q781.7344 461.25 783.9219 461.25 Q786.3906 461.25 788.0703 462.5078 Q789.75 463.7656 790.4219 466.0469 L788.2812 466.5625 Q787.7031 464.7656 786.6094 463.9453 Q785.5156 463.125 783.875 463.125 Q781.9688 463.125 780.6953 464.0312 Q779.4219 464.9375 778.9062 466.4688 Q778.3906 468 778.3906 469.6406 Q778.3906 471.7344 779 473.2969 Q779.6094 474.8594 780.9062 475.6406 Q782.2031 476.4219 783.7031 476.4219 Q785.5312 476.4219 786.8047 475.3672 Q788.0781 474.3125 788.5156 472.2344 ZM800.1724 478 L798.1567 478 L798.1567 465.125 Q797.4224 465.8125 796.2427 466.5078 Q795.063 467.2031 794.1099 467.5625 L794.1099 465.5938 Q795.813 464.7969 797.0786 463.6641 Q798.3442 462.5312 798.8755 461.4688 L800.1724 461.4688 L800.1724 478 Z" clip-path="url(#clipPath24)" stroke="none"/><circle r="16" clip-path="url(#clipPath25)" cx="150" cy="150" stroke="none"/><circle fill="none" r="16" clip-path="url(#clipPath25)" cx="150" cy="150" stroke="black"/><path fill="black" d="M134.9688 159 L141.8438 141.1094 L144.3906 141.1094 L151.7188 159 L149.0156 159 L146.9219 153.5781 L139.4375 153.5781 L137.4844 159 L134.9688 159 ZM140.125 151.6562 L146.1875 151.6562 L144.3281 146.6875 Q143.4688 144.4375 143.0625 142.9844 Q142.7188 144.7031 142.0938 146.4062 L140.125 151.6562 ZM164.2529 156.8906 L164.2529 159 L152.4248 159 Q152.4092 158.2031 152.6904 157.4688 Q153.1436 156.2656 154.1357 155.0938 Q155.1279 153.9219 157.0029 152.3906 Q159.9248 149.9844 160.9482 148.5938 Q161.9717 147.2031 161.9717 145.9531 Q161.9717 144.6406 161.042 143.7422 Q160.1123 142.8438 158.6123 142.8438 Q157.0186 142.8438 156.0654 143.7969 Q155.1123 144.75 155.1123 146.4375 L152.8467 146.2031 Q153.0811 143.6875 154.5967 142.3594 Q156.1123 141.0312 158.6592 141.0312 Q161.2373 141.0312 162.7373 142.4609 Q164.2373 143.8906 164.2373 146 Q164.2373 147.0781 163.7998 148.1172 Q163.3623 149.1562 162.3389 150.2969 Q161.3154 151.4375 158.9561 153.4531 Q156.9717 155.1094 156.4092 155.7031 Q155.8467 156.2969 155.4873 156.8906 L164.2529 156.8906 Z" clip-path="url(#clipPath26)" stroke="none"/><circle fill="rgb(144,238,144)" r="16" clip-path="url(#clipPath27)" cx="150" cy="310" stroke="none"/><circle fill="none" r="16" clip-path="url(#clipPath27)" cx="150" cy="310" stroke="black"/><path fill="black" d="M137.6875 318 L137.6875 301.5312 L143.8594 301.5312 Q145.75 301.5312 146.8906 302.0312 Q148.0312 302.5312 148.6719 303.5703 Q149.3125 304.6094 149.3125 305.75 Q149.3125 306.7969 148.7422 307.7344 Q148.1719 308.6719 147.0156 309.2344 Q148.5156 309.6719 149.3125 310.7344 Q150.1094 311.7969 150.1094 313.2344 Q150.1094 314.3906 149.625 315.3828 Q149.1406 316.375 148.4219 316.9141 Q147.7031 317.4531 146.6172 317.7266 Q145.5312 318 143.9688 318 L137.6875 318 ZM139.8594 308.4531 L143.4219 308.4531 Q144.875 308.4531 145.5 308.2656 Q146.3281 308.0156 146.75 307.4453 Q147.1719 306.875 147.1719 306 Q147.1719 305.1875 146.7812 304.5625 Q146.3906 303.9375 145.6562 303.7109 Q144.9219 303.4844 143.1562 303.4844 L139.8594 303.4844 L139.8594 308.4531 ZM139.8594 316.0625 L143.9688 316.0625 Q145.0156 316.0625 145.4375 315.9844 Q146.2031 315.8438 146.7031 315.5312 Q147.2031 315.2188 147.5312 314.6172 Q147.8594 314.0156 147.8594 313.2344 Q147.8594 312.3125 147.3906 311.6328 Q146.9219 310.9531 146.0859 310.6719 Q145.25 310.3906 143.6719 310.3906 L139.8594 310.3906 L139.8594 316.0625 ZM162.9189 316.0625 L162.9189 318 L152.0439 318 Q152.0127 317.2656 152.2783 316.5938 Q152.6846 315.4844 153.5986 314.4062 Q154.5127 313.3281 156.2471 311.9062 Q158.9346 309.7188 159.8799 308.4297 Q160.8252 307.1406 160.8252 306 Q160.8252 304.7969 159.9658 303.9688 Q159.1064 303.1406 157.7158 303.1406 Q156.2627 303.1406 155.3877 304.0156 Q154.5127 304.8906 154.4971 306.4375 L152.4189 306.2344 Q152.6377 303.9062 154.0283 302.6875 Q155.4189 301.4688 157.7627 301.4688 Q160.1377 301.4688 161.5205 302.7812 Q162.9033 304.0938 162.9033 306.0469 Q162.9033 307.0312 162.4971 307.9844 Q162.0908 308.9375 161.1533 309.9922 Q160.2158 311.0469 158.0283 312.8906 Q156.2158 314.4219 155.7002 314.9609 Q155.1846 315.5 154.8408 316.0625 L162.9189 316.0625 Z" clip-path="url(#clipPath28)" stroke="none"/><circle fill="rgb(250,128,114)" r="16" clip-path="url(#clipPath29)" cx="710" cy="470" stroke="none"/><circle fill="none" r="16" clip-path="url(#clipPath29)" cx="710" cy="470" stroke="black"/><path fill="black" d="M708.5156 472.2344 L710.7031 472.7812 Q710.0156 475.4688 708.2344 476.875 Q706.4531 478.2812 703.8906 478.2812 Q701.2188 478.2812 699.5547 477.1953 Q697.8906 476.1094 697.0156 474.0547 Q696.1406 472 696.1406 469.6406 Q696.1406 467.0781 697.125 465.1641 Q698.1094 463.25 699.9219 462.25 Q701.7344 461.25 703.9219 461.25 Q706.3906 461.25 708.0703 462.5078 Q709.75 463.7656 710.4219 466.0469 L708.2812 466.5625 Q707.7031 464.7656 706.6094 463.9453 Q705.5156 463.125 703.875 463.125 Q701.9688 463.125 700.6953 464.0312 Q699.4219 464.9375 698.9062 466.4688 Q698.3906 468 698.3906 469.6406 Q698.3906 471.7344 699 473.2969 Q699.6094 474.8594 700.9062 475.6406 Q702.2031 476.4219 703.7031 476.4219 Q705.5312 476.4219 706.8047 475.3672 Q708.0781 474.3125 708.5156 472.2344 ZM723.188 476.0625 L723.188 478 L712.313 478 Q712.2817 477.2656 712.5474 476.5938 Q712.9536 475.4844 713.8677 474.4062 Q714.7817 473.3281 716.5161 471.9062 Q719.2036 469.7188 720.1489 468.4297 Q721.0942 467.1406 721.0942 466 Q721.0942 464.7969 720.2349 463.9688 Q719.3755 463.1406 717.9849 463.1406 Q716.5317 463.1406 715.6567 464.0156 Q714.7817 464.8906 714.7661 466.4375 L712.688 466.2344 Q712.9067 463.9062 714.2974 462.6875 Q715.688 461.4688 718.0317 461.4688 Q720.4067 461.4688 721.7896 462.7812 Q723.1724 464.0938 723.1724 466.0469 Q723.1724 467.0312 722.7661 467.9844 Q722.3599 468.9375 721.4224 469.9922 Q720.4849 471.0469 718.2974 472.8906 Q716.4849 474.4219 715.9692 474.9609 Q715.4536 475.5 715.1099 476.0625 L723.188 476.0625 Z" clip-path="url(#clipPath30)" stroke="none"/><circle r="16" clip-path="url(#clipPath31)" cx="230" cy="230" stroke="none"/><circle fill="none" r="16" clip-path="url(#clipPath31)" cx="230" cy="230" stroke="black"/><path fill="black" d="M214.9688 239 L221.8438 221.1094 L224.3906 221.1094 L231.7188 239 L229.0156 239 L226.9219 233.5781 L219.4375 233.5781 L217.4844 239 L214.9688 239 ZM220.125 231.6562 L226.1875 231.6562 L224.3281 226.6875 Q223.4688 224.4375 223.0625 222.9844 Q222.7188 224.7031 222.0938 226.4062 L220.125 231.6562 ZM232.7217 234.2812 L234.9248 233.9844 Q235.2998 235.8438 236.2061 236.6719 Q237.1123 237.5 238.4248 237.5 Q239.9717 237.5 241.042 236.4219 Q242.1123 235.3438 242.1123 233.7656 Q242.1123 232.25 241.1201 231.2656 Q240.1279 230.2812 238.6123 230.2812 Q237.9873 230.2812 237.0654 230.5312 L237.2998 228.5938 Q237.5186 228.625 237.6592 228.625 Q239.0654 228.625 240.1826 227.8906 Q241.2998 227.1562 241.2998 225.6406 Q241.2998 224.4219 240.4873 223.6328 Q239.6748 222.8438 238.3779 222.8438 Q237.0967 222.8438 236.2451 223.6484 Q235.3936 224.4531 235.1436 226.0625 L232.9404 225.6719 Q233.3467 223.4531 234.7764 222.2422 Q236.2061 221.0312 238.3311 221.0312 Q239.7998 221.0312 241.0264 221.6562 Q242.2529 222.2812 242.9092 223.375 Q243.5654 224.4688 243.5654 225.6875 Q243.5654 226.8438 242.9404 227.7969 Q242.3154 228.75 241.0967 229.3125 Q242.6904 229.6719 243.5654 230.8281 Q244.4404 231.9844 244.4404 233.7188 Q244.4404 236.0625 242.7295 237.6875 Q241.0186 239.3125 238.4092 239.3125 Q236.0498 239.3125 234.4951 237.9141 Q232.9404 236.5156 232.7217 234.2812 Z" clip-path="url(#clipPath32)" stroke="none"/><circle fill="rgb(144,238,144)" r="16" clip-path="url(#clipPath33)" cx="230" cy="390" stroke="none"/><circle fill="none" r="16" clip-path="url(#clipPath33)" cx="230" cy="390" stroke="black"/><path fill="black" d="M217.6875 398 L217.6875 381.5312 L223.8594 381.5312 Q225.75 381.5312 226.8906 382.0312 Q228.0312 382.5312 228.6719 383.5703 Q229.3125 384.6094 229.3125 385.75 Q229.3125 386.7969 228.7422 387.7344 Q228.1719 388.6719 227.0156 389.2344 Q228.5156 389.6719 229.3125 390.7344 Q230.1094 391.7969 230.1094 393.2344 Q230.1094 394.3906 229.625 395.3828 Q229.1406 396.375 228.4219 396.9141 Q227.7031 397.4531 226.6172 397.7266 Q225.5312 398 223.9688 398 L217.6875 398 ZM219.8594 388.4531 L223.4219 388.4531 Q224.875 388.4531 225.5 388.2656 Q226.3281 388.0156 226.75 387.4453 Q227.1719 386.875 227.1719 386 Q227.1719 385.1875 226.7812 384.5625 Q226.3906 383.9375 225.6562 383.7109 Q224.9219 383.4844 223.1562 383.4844 L219.8594 383.4844 L219.8594 388.4531 ZM219.8594 396.0625 L223.9688 396.0625 Q225.0156 396.0625 225.4375 395.9844 Q226.2031 395.8438 226.7031 395.5312 Q227.2031 395.2188 227.5312 394.6172 Q227.8594 394.0156 227.8594 393.2344 Q227.8594 392.3125 227.3906 391.6328 Q226.9219 390.9531 226.0859 390.6719 Q225.25 390.3906 223.6719 390.3906 L219.8594 390.3906 L219.8594 396.0625 ZM232.3096 393.6562 L234.3252 393.3906 Q234.6689 395.1094 235.5127 395.8672 Q236.3564 396.625 237.5439 396.625 Q238.9814 396.625 239.9658 395.6328 Q240.9502 394.6406 240.9502 393.1875 Q240.9502 391.7969 240.0361 390.8906 Q239.1221 389.9844 237.7158 389.9844 Q237.1533 389.9844 236.2939 390.2031 L236.5127 388.4375 Q236.7158 388.4531 236.8408 388.4531 Q238.1377 388.4531 239.1689 387.7812 Q240.2002 387.1094 240.2002 385.7031 Q240.2002 384.5938 239.4502 383.8594 Q238.7002 383.125 237.5127 383.125 Q236.3252 383.125 235.5439 383.8672 Q234.7627 384.6094 234.5283 386.0938 L232.5127 385.7344 Q232.8721 383.7031 234.1924 382.5859 Q235.5127 381.4688 237.4658 381.4688 Q238.8096 381.4688 239.9424 382.0469 Q241.0752 382.625 241.6768 383.625 Q242.2783 384.625 242.2783 385.75 Q242.2783 386.8125 241.708 387.6875 Q241.1377 388.5625 240.0127 389.0781 Q241.4658 389.4219 242.2783 390.4844 Q243.0908 391.5469 243.0908 393.1406 Q243.0908 395.2969 241.5205 396.7969 Q239.9502 398.2969 237.5439 398.2969 Q235.3721 398.2969 233.9424 397 Q232.5127 395.7031 232.3096 393.6562 Z" clip-path="url(#clipPath34)" stroke="none"/><circle fill="rgb(250,128,114)" r="16" clip-path="url(#clipPath35)" cx="630" cy="470" stroke="none"/><circle fill="none" r="16" clip-path="url(#clipPath35)" cx="630" cy="470" stroke="black"/><path fill="black" d="M628.5156 472.2344 L630.7031 472.7812 Q630.0156 475.4688 628.2344 476.875 Q626.4531 478.2812 623.8906 478.2812 Q621.2188 478.2812 619.5547 477.1953 Q617.8906 476.1094 617.0156 474.0547 Q616.1406 472 616.1406 469.6406 Q616.1406 467.0781 617.125 465.1641 Q618.1094 463.25 619.9219 462.25 Q621.7344 461.25 623.9219 461.25 Q626.3906 461.25 628.0703 462.5078 Q629.75 463.7656 630.4219 466.0469 L628.2812 466.5625 Q627.7031 464.7656 626.6094 463.9453 Q625.5156 463.125 623.875 463.125 Q621.9688 463.125 620.6953 464.0312 Q619.4219 464.9375 618.9062 466.4688 Q618.3906 468 618.3906 469.6406 Q618.3906 471.7344 619 473.2969 Q619.6094 474.8594 620.9062 475.6406 Q622.2031 476.4219 623.7031 476.4219 Q625.5312 476.4219 626.8047 475.3672 Q628.0781 474.3125 628.5156 472.2344 ZM632.5786 473.6562 L634.5942 473.3906 Q634.938 475.1094 635.7817 475.8672 Q636.6255 476.625 637.813 476.625 Q639.2505 476.625 640.2349 475.6328 Q641.2192 474.6406 641.2192 473.1875 Q641.2192 471.7969 640.3052 470.8906 Q639.3911 469.9844 637.9849 469.9844 Q637.4224 469.9844 636.563 470.2031 L636.7817 468.4375 Q636.9849 468.4531 637.1099 468.4531 Q638.4067 468.4531 639.438 467.7812 Q640.4692 467.1094 640.4692 465.7031 Q640.4692 464.5938 639.7192 463.8594 Q638.9692 463.125 637.7817 463.125 Q636.5942 463.125 635.813 463.8672 Q635.0317 464.6094 634.7974 466.0938 L632.7817 465.7344 Q633.1411 463.7031 634.4614 462.5859 Q635.7817 461.4688 637.7349 461.4688 Q639.0786 461.4688 640.2114 462.0469 Q641.3442 462.625 641.9458 463.625 Q642.5474 464.625 642.5474 465.75 Q642.5474 466.8125 641.9771 467.6875 Q641.4067 468.5625 640.2817 469.0781 Q641.7349 469.4219 642.5474 470.4844 Q643.3599 471.5469 643.3599 473.1406 Q643.3599 475.2969 641.7896 476.7969 Q640.2192 478.2969 637.813 478.2969 Q635.6411 478.2969 634.2114 477 Q632.7817 475.7031 632.5786 473.6562 Z" clip-path="url(#clipPath36)" stroke="none"/><circle r="16" clip-path="url(#clipPath37)" cx="310" cy="310" stroke="none"/><circle fill="none" r="16" clip-path="url(#clipPath37)" cx="310" cy="310" stroke="black"/><path fill="black" d="M294.9688 319 L301.8438 301.1094 L304.3906 301.1094 L311.7188 319 L309.0156 319 L306.9219 313.5781 L299.4375 313.5781 L297.4844 319 L294.9688 319 ZM300.125 311.6562 L306.1875 311.6562 L304.3281 306.6875 Q303.4688 304.4375 303.0625 302.9844 Q302.7188 304.7031 302.0938 306.4062 L300.125 311.6562 ZM319.7529 319 L319.7529 314.7188 L311.9873 314.7188 L311.9873 312.7031 L320.1592 301.1094 L321.9561 301.1094 L321.9561 312.7031 L324.3779 312.7031 L324.3779 314.7188 L321.9561 314.7188 L321.9561 319 L319.7529 319 ZM319.7529 312.7031 L319.7529 304.625 L314.1592 312.7031 L319.7529 312.7031 Z" clip-path="url(#clipPath38)" stroke="none"/><circle fill="rgb(144,238,144)" r="16" clip-path="url(#clipPath39)" cx="294" cy="454" stroke="none"/><circle fill="none" r="16" clip-path="url(#clipPath39)" cx="294" cy="454" stroke="black"/><path fill="black" d="M281.6875 462 L281.6875 445.5312 L287.8594 445.5312 Q289.75 445.5312 290.8906 446.0312 Q292.0312 446.5312 292.6719 447.5703 Q293.3125 448.6094 293.3125 449.75 Q293.3125 450.7969 292.7422 451.7344 Q292.1719 452.6719 291.0156 453.2344 Q292.5156 453.6719 293.3125 454.7344 Q294.1094 455.7969 294.1094 457.2344 Q294.1094 458.3906 293.625 459.3828 Q293.1406 460.375 292.4219 460.9141 Q291.7031 461.4531 290.6172 461.7266 Q289.5312 462 287.9688 462 L281.6875 462 ZM283.8594 452.4531 L287.4219 452.4531 Q288.875 452.4531 289.5 452.2656 Q290.3281 452.0156 290.75 451.4453 Q291.1719 450.875 291.1719 450 Q291.1719 449.1875 290.7812 448.5625 Q290.3906 447.9375 289.6562 447.7109 Q288.9219 447.4844 287.1562 447.4844 L283.8594 447.4844 L283.8594 452.4531 ZM283.8594 460.0625 L287.9688 460.0625 Q289.0156 460.0625 289.4375 459.9844 Q290.2031 459.8438 290.7031 459.5312 Q291.2031 459.2188 291.5312 458.6172 Q291.8594 458.0156 291.8594 457.2344 Q291.8594 456.3125 291.3906 455.6328 Q290.9219 454.9531 290.0859 454.6719 Q289.25 454.3906 287.6719 454.3906 L283.8594 454.3906 L283.8594 460.0625 ZM302.7783 462 L302.7783 458.0625 L295.6377 458.0625 L295.6377 456.2031 L303.1533 445.5312 L304.7939 445.5312 L304.7939 456.2031 L307.0283 456.2031 L307.0283 458.0625 L304.7939 458.0625 L304.7939 462 L302.7783 462 ZM302.7783 456.2031 L302.7783 448.7812 L297.6221 456.2031 L302.7783 456.2031 Z" clip-path="url(#clipPath40)" stroke="none"/><circle fill="rgb(250,128,114)" r="16" clip-path="url(#clipPath41)" cx="550" cy="470" stroke="none"/><circle fill="none" r="16" clip-path="url(#clipPath41)" cx="550" cy="470" stroke="black"/><path fill="black" d="M548.5156 472.2344 L550.7031 472.7812 Q550.0156 475.4688 548.2344 476.875 Q546.4531 478.2812 543.8906 478.2812 Q541.2188 478.2812 539.5547 477.1953 Q537.8906 476.1094 537.0156 474.0547 Q536.1406 472 536.1406 469.6406 Q536.1406 467.0781 537.125 465.1641 Q538.1094 463.25 539.9219 462.25 Q541.7344 461.25 543.9219 461.25 Q546.3906 461.25 548.0703 462.5078 Q549.75 463.7656 550.4219 466.0469 L548.2812 466.5625 Q547.7031 464.7656 546.6094 463.9453 Q545.5156 463.125 543.875 463.125 Q541.9688 463.125 540.6953 464.0312 Q539.4219 464.9375 538.9062 466.4688 Q538.3906 468 538.3906 469.6406 Q538.3906 471.7344 539 473.2969 Q539.6094 474.8594 540.9062 475.6406 Q542.2031 476.4219 543.7031 476.4219 Q545.5312 476.4219 546.8047 475.3672 Q548.0781 474.3125 548.5156 472.2344 ZM559.0474 478 L559.0474 474.0625 L551.9067 474.0625 L551.9067 472.2031 L559.4224 461.5312 L561.063 461.5312 L561.063 472.2031 L563.2974 472.2031 L563.2974 474.0625 L561.063 474.0625 L561.063 478 L559.0474 478 ZM559.0474 472.2031 L559.0474 464.7812 L553.8911 472.2031 L559.0474 472.2031 Z" clip-path="url(#clipPath42)" stroke="none"/><circle r="16" clip-path="url(#clipPath43)" cx="390" cy="390" stroke="none"/><circle fill="none" r="16" clip-path="url(#clipPath43)" cx="390" cy="390" stroke="black"/><path fill="black" d="M374.9688 399 L381.8438 381.1094 L384.3906 381.1094 L391.7188 399 L389.0156 399 L386.9219 393.5781 L379.4375 393.5781 L377.4844 399 L374.9688 399 ZM380.125 391.6562 L386.1875 391.6562 L384.3281 386.6875 Q383.4688 384.4375 383.0625 382.9844 Q382.7188 384.7031 382.0938 386.4062 L380.125 391.6562 ZM392.7061 394.3125 L395.0186 394.1094 Q395.2686 395.7969 396.2061 396.6484 Q397.1436 397.5 398.4561 397.5 Q400.0498 397.5 401.1514 396.3047 Q402.2529 395.1094 402.2529 393.125 Q402.2529 391.25 401.1904 390.1641 Q400.1279 389.0781 398.4248 389.0781 Q397.3623 389.0781 396.5107 389.5625 Q395.6592 390.0469 395.1592 390.8125 L393.0967 390.5469 L394.8311 381.3438 L403.7373 381.3438 L403.7373 383.4531 L396.5967 383.4531 L395.6279 388.25 Q397.2373 387.1406 399.0186 387.1406 Q401.3623 387.1406 402.9717 388.7578 Q404.5811 390.375 404.5811 392.9375 Q404.5811 395.3594 403.1592 397.125 Q401.4404 399.3125 398.4561 399.3125 Q396.0186 399.3125 394.4717 397.9453 Q392.9248 396.5781 392.7061 394.3125 Z" clip-path="url(#clipPath44)" stroke="none"/><circle fill="rgb(144,238,144)" r="16" clip-path="url(#clipPath45)" cx="390" cy="550" stroke="none"/><circle fill="none" r="16" clip-path="url(#clipPath45)" cx="390" cy="550" stroke="black"/><path fill="black" d="M377.6875 558 L377.6875 541.5312 L383.8594 541.5312 Q385.75 541.5312 386.8906 542.0312 Q388.0312 542.5312 388.6719 543.5703 Q389.3125 544.6094 389.3125 545.75 Q389.3125 546.7969 388.7422 547.7344 Q388.1719 548.6719 387.0156 549.2344 Q388.5156 549.6719 389.3125 550.7344 Q390.1094 551.7969 390.1094 553.2344 Q390.1094 554.3906 389.625 555.3828 Q389.1406 556.375 388.4219 556.9141 Q387.7031 557.4531 386.6172 557.7266 Q385.5312 558 383.9688 558 L377.6875 558 ZM379.8594 548.4531 L383.4219 548.4531 Q384.875 548.4531 385.5 548.2656 Q386.3281 548.0156 386.75 547.4453 Q387.1719 546.875 387.1719 546 Q387.1719 545.1875 386.7812 544.5625 Q386.3906 543.9375 385.6562 543.7109 Q384.9219 543.4844 383.1562 543.4844 L379.8594 543.4844 L379.8594 548.4531 ZM379.8594 556.0625 L383.9688 556.0625 Q385.0156 556.0625 385.4375 555.9844 Q386.2031 555.8438 386.7031 555.5312 Q387.2031 555.2188 387.5312 554.6172 Q387.8594 554.0156 387.8594 553.2344 Q387.8594 552.3125 387.3906 551.6328 Q386.9219 550.9531 386.0859 550.6719 Q385.25 550.3906 383.6719 550.3906 L379.8594 550.3906 L379.8594 556.0625 ZM392.2939 553.6875 L394.4189 553.5 Q394.6533 555.0625 395.5127 555.8438 Q396.3721 556.625 397.5908 556.625 Q399.0439 556.625 400.0518 555.5234 Q401.0596 554.4219 401.0596 552.5938 Q401.0596 550.875 400.0908 549.875 Q399.1221 548.875 397.5439 548.875 Q396.5752 548.875 395.7861 549.3125 Q394.9971 549.75 394.5596 550.4688 L392.6533 550.2188 L394.2471 541.7656 L402.4346 541.7656 L402.4346 543.6875 L395.8721 543.6875 L394.9814 548.1094 Q396.4658 547.0781 398.0908 547.0781 Q400.2471 547.0781 401.7314 548.5781 Q403.2158 550.0781 403.2158 552.4219 Q403.2158 554.6562 401.9033 556.2812 Q400.3252 558.2812 397.5908 558.2812 Q395.3408 558.2812 393.9189 557.0234 Q392.4971 555.7656 392.2939 553.6875 Z" clip-path="url(#clipPath46)" stroke="none"/><circle fill="rgb(250,128,114)" r="16" clip-path="url(#clipPath47)" cx="454" cy="454" stroke="none"/><circle fill="none" r="16" clip-path="url(#clipPath47)" cx="454" cy="454" stroke="black"/><path fill="black" d="M452.5156 456.2344 L454.7031 456.7812 Q454.0156 459.4688 452.2344 460.875 Q450.4531 462.2812 447.8906 462.2812 Q445.2188 462.2812 443.5547 461.1953 Q441.8906 460.1094 441.0156 458.0547 Q440.1406 456 440.1406 453.6406 Q440.1406 451.0781 441.125 449.1641 Q442.1094 447.25 443.9219 446.25 Q445.7344 445.25 447.9219 445.25 Q450.3906 445.25 452.0703 446.5078 Q453.75 447.7656 454.4219 450.0469 L452.2812 450.5625 Q451.7031 448.7656 450.6094 447.9453 Q449.5156 447.125 447.875 447.125 Q445.9688 447.125 444.6953 448.0312 Q443.4219 448.9375 442.9062 450.4688 Q442.3906 452 442.3906 453.6406 Q442.3906 455.7344 443 457.2969 Q443.6094 458.8594 444.9062 459.6406 Q446.2031 460.4219 447.7031 460.4219 Q449.5312 460.4219 450.8047 459.3672 Q452.0781 458.3125 452.5156 456.2344 ZM456.563 457.6875 L458.688 457.5 Q458.9224 459.0625 459.7817 459.8438 Q460.6411 460.625 461.8599 460.625 Q463.313 460.625 464.3208 459.5234 Q465.3286 458.4219 465.3286 456.5938 Q465.3286 454.875 464.3599 453.875 Q463.3911 452.875 461.813 452.875 Q460.8442 452.875 460.0552 453.3125 Q459.2661 453.75 458.8286 454.4688 L456.9224 454.2188 L458.5161 445.7656 L466.7036 445.7656 L466.7036 447.6875 L460.1411 447.6875 L459.2505 452.1094 Q460.7349 451.0781 462.3599 451.0781 Q464.5161 451.0781 466.0005 452.5781 Q467.4849 454.0781 467.4849 456.4219 Q467.4849 458.6562 466.1724 460.2812 Q464.5942 462.2812 461.8599 462.2812 Q459.6099 462.2812 458.188 461.0234 Q456.7661 459.7656 456.563 457.6875 Z" clip-path="url(#clipPath48)" stroke="none"/><circle r="16" clip-path="url(#clipPath49)" cx="486" cy="486" stroke="none"/><circle fill="none" r="16" clip-path="url(#clipPath49)" cx="486" cy="486" stroke="black"/><path fill="black" d="M470.9688 495 L477.8438 477.1094 L480.3906 477.1094 L487.7188 495 L485.0156 495 L482.9219 489.5781 L475.4375 489.5781 L473.4844 495 L470.9688 495 ZM476.125 487.6562 L482.1875 487.6562 L480.3281 482.6875 Q479.4688 480.4375 479.0625 478.9844 Q478.7188 480.7031 478.0938 482.4062 L476.125 487.6562 ZM500.1123 481.4844 L497.9248 481.6562 Q497.6436 480.3594 497.0967 479.7812 Q496.2061 478.8438 494.9092 478.8438 Q493.8467 478.8438 493.0654 479.4219 Q492.0186 480.1875 491.4248 481.6328 Q490.8311 483.0781 490.7998 485.7656 Q491.5967 484.5625 492.7451 483.9766 Q493.8936 483.3906 495.1436 483.3906 Q497.3467 483.3906 498.8857 485.0078 Q500.4248 486.625 500.4248 489.1875 Q500.4248 490.875 499.6982 492.3203 Q498.9717 493.7656 497.7061 494.5391 Q496.4404 495.3125 494.8311 495.3125 Q492.0811 495.3125 490.3467 493.2891 Q488.6123 491.2656 488.6123 486.625 Q488.6123 481.4375 490.5342 479.0781 Q492.2061 477.0312 495.0342 477.0312 Q497.1436 477.0312 498.4951 478.2188 Q499.8467 479.4062 500.1123 481.4844 ZM491.1436 489.2031 Q491.1436 490.3438 491.6279 491.375 Q492.1123 492.4062 492.9795 492.9531 Q493.8467 493.5 494.7842 493.5 Q496.1904 493.5 497.1904 492.375 Q498.1904 491.25 498.1904 489.3281 Q498.1904 487.4688 497.1982 486.3984 Q496.2061 485.3281 494.7061 485.3281 Q493.2217 485.3281 492.1826 486.3984 Q491.1436 487.4688 491.1436 489.2031 Z" clip-path="url(#clipPath50)" stroke="none"/><circle fill="rgb(144,238,144)" r="16" clip-path="url(#clipPath51)" cx="470" cy="630" stroke="none"/><circle fill="none" r="16" clip-path="url(#clipPath51)" cx="470" cy="630" stroke="black"/><path fill="black" d="M457.6875 638 L457.6875 621.5312 L463.8594 621.5312 Q465.75 621.5312 466.8906 622.0312 Q468.0312 622.5312 468.6719 623.5703 Q469.3125 624.6094 469.3125 625.75 Q469.3125 626.7969 468.7422 627.7344 Q468.1719 628.6719 467.0156 629.2344 Q468.5156 629.6719 469.3125 630.7344 Q470.1094 631.7969 470.1094 633.2344 Q470.1094 634.3906 469.625 635.3828 Q469.1406 636.375 468.4219 636.9141 Q467.7031 637.4531 466.6172 637.7266 Q465.5312 638 463.9688 638 L457.6875 638 ZM459.8594 628.4531 L463.4219 628.4531 Q464.875 628.4531 465.5 628.2656 Q466.3281 628.0156 466.75 627.4453 Q467.1719 626.875 467.1719 626 Q467.1719 625.1875 466.7812 624.5625 Q466.3906 623.9375 465.6562 623.7109 Q464.9219 623.4844 463.1562 623.4844 L459.8594 623.4844 L459.8594 628.4531 ZM459.8594 636.0625 L463.9688 636.0625 Q465.0156 636.0625 465.4375 635.9844 Q466.2031 635.8438 466.7031 635.5312 Q467.2031 635.2188 467.5312 634.6172 Q467.8594 634.0156 467.8594 633.2344 Q467.8594 632.3125 467.3906 631.6328 Q466.9219 630.9531 466.0859 630.6719 Q465.25 630.3906 463.6719 630.3906 L459.8594 630.3906 L459.8594 636.0625 ZM482.7783 625.5625 L480.7783 625.7188 Q480.5127 624.5312 480.0127 624 Q479.1846 623.125 477.9971 623.125 Q477.0283 623.125 476.2939 623.6719 Q475.3408 624.3594 474.7861 625.6953 Q474.2314 627.0312 474.2158 629.5156 Q474.9502 628.3906 476.0049 627.8516 Q477.0596 627.3125 478.2158 627.3125 Q480.2314 627.3125 481.6533 628.8047 Q483.0752 630.2969 483.0752 632.6562 Q483.0752 634.2031 482.4111 635.5312 Q481.7471 636.8594 480.5752 637.5703 Q479.4033 638.2812 477.9189 638.2812 Q475.3877 638.2812 473.7939 636.4219 Q472.2002 634.5625 472.2002 630.2969 Q472.2002 625.5156 473.9658 623.3594 Q475.5127 621.4688 478.1064 621.4688 Q480.0596 621.4688 481.3018 622.5547 Q482.5439 623.6406 482.7783 625.5625 ZM474.5283 632.6719 Q474.5283 633.7031 474.9736 634.6641 Q475.4189 635.625 476.2158 636.125 Q477.0127 636.625 477.8877 636.625 Q479.1689 636.625 480.0908 635.5859 Q481.0127 634.5469 481.0127 632.7812 Q481.0127 631.0781 480.0986 630.0938 Q479.1846 629.1094 477.8096 629.1094 Q476.4346 629.1094 475.4814 630.0938 Q474.5283 631.0781 474.5283 632.6719 Z" clip-path="url(#clipPath52)" stroke="none"/><circle fill="rgb(250,128,114)" r="16" clip-path="url(#clipPath53)" cx="390" cy="470" stroke="none"/><circle fill="none" r="16" clip-path="url(#clipPath53)" cx="390" cy="470" stroke="black"/><path fill="black" d="M388.5156 472.2344 L390.7031 472.7812 Q390.0156 475.4688 388.2344 476.875 Q386.4531 478.2812 383.8906 478.2812 Q381.2188 478.2812 379.5547 477.1953 Q377.8906 476.1094 377.0156 474.0547 Q376.1406 472 376.1406 469.6406 Q376.1406 467.0781 377.125 465.1641 Q378.1094 463.25 379.9219 462.25 Q381.7344 461.25 383.9219 461.25 Q386.3906 461.25 388.0703 462.5078 Q389.75 463.7656 390.4219 466.0469 L388.2812 466.5625 Q387.7031 464.7656 386.6094 463.9453 Q385.5156 463.125 383.875 463.125 Q381.9688 463.125 380.6953 464.0312 Q379.4219 464.9375 378.9062 466.4688 Q378.3906 468 378.3906 469.6406 Q378.3906 471.7344 379 473.2969 Q379.6094 474.8594 380.9062 475.6406 Q382.2031 476.4219 383.7031 476.4219 Q385.5312 476.4219 386.8047 475.3672 Q388.0781 474.3125 388.5156 472.2344 ZM403.0474 465.5625 L401.0474 465.7188 Q400.7817 464.5312 400.2817 464 Q399.4536 463.125 398.2661 463.125 Q397.2974 463.125 396.563 463.6719 Q395.6099 464.3594 395.0552 465.6953 Q394.5005 467.0312 394.4849 469.5156 Q395.2192 468.3906 396.2739 467.8516 Q397.3286 467.3125 398.4849 467.3125 Q400.5005 467.3125 401.9224 468.8047 Q403.3442 470.2969 403.3442 472.6562 Q403.3442 474.2031 402.6802 475.5312 Q402.0161 476.8594 400.8442 477.5703 Q399.6724 478.2812 398.188 478.2812 Q395.6567 478.2812 394.063 476.4219 Q392.4692 474.5625 392.4692 470.2969 Q392.4692 465.5156 394.2349 463.3594 Q395.7817 461.4688 398.3755 461.4688 Q400.3286 461.4688 401.5708 462.5547 Q402.813 463.6406 403.0474 465.5625 ZM394.7974 472.6719 Q394.7974 473.7031 395.2427 474.6641 Q395.688 475.625 396.4849 476.125 Q397.2817 476.625 398.1567 476.625 Q399.438 476.625 400.3599 475.5859 Q401.2817 474.5469 401.2817 472.7812 Q401.2817 471.0781 400.3677 470.0938 Q399.4536 469.1094 398.0786 469.1094 Q396.7036 469.1094 395.7505 470.0938 Q394.7974 471.0781 394.7974 472.6719 Z" clip-path="url(#clipPath54)" stroke="none"/><circle r="16" clip-path="url(#clipPath55)" cx="550" cy="550" stroke="none"/><circle fill="none" r="16" clip-path="url(#clipPath55)" cx="550" cy="550" stroke="black"/><path fill="black" d="M534.9688 559 L541.8438 541.1094 L544.3906 541.1094 L551.7188 559 L549.0156 559 L546.9219 553.5781 L539.4375 553.5781 L537.4844 559 L534.9688 559 ZM540.125 551.6562 L546.1875 551.6562 L544.3281 546.6875 Q543.4688 544.4375 543.0625 542.9844 Q542.7188 544.7031 542.0938 546.4062 L540.125 551.6562 ZM552.8623 543.4531 L552.8623 541.3438 L564.4404 541.3438 L564.4404 543.0469 Q562.7373 544.8594 561.0576 547.875 Q559.3779 550.8906 558.4561 554.0781 Q557.7998 556.3281 557.6123 559 L555.3623 559 Q555.3936 556.8906 556.1904 553.8984 Q556.9873 550.9062 558.4717 548.1328 Q559.9561 545.3594 561.6279 543.4531 L552.8623 543.4531 Z" clip-path="url(#clipPath56)" stroke="none"/><circle fill="rgb(144,238,144)" r="16" clip-path="url(#clipPath57)" cx="550" cy="710" stroke="none"/><circle fill="none" r="16" clip-path="url(#clipPath57)" cx="550" cy="710" stroke="black"/><path fill="black" d="M537.6875 718 L537.6875 701.5312 L543.8594 701.5312 Q545.75 701.5312 546.8906 702.0312 Q548.0312 702.5312 548.6719 703.5703 Q549.3125 704.6094 549.3125 705.75 Q549.3125 706.7969 548.7422 707.7344 Q548.1719 708.6719 547.0156 709.2344 Q548.5156 709.6719 549.3125 710.7344 Q550.1094 711.7969 550.1094 713.2344 Q550.1094 714.3906 549.625 715.3828 Q549.1406 716.375 548.4219 716.9141 Q547.7031 717.4531 546.6172 717.7266 Q545.5312 718 543.9688 718 L537.6875 718 ZM539.8594 708.4531 L543.4219 708.4531 Q544.875 708.4531 545.5 708.2656 Q546.3281 708.0156 546.75 707.4453 Q547.1719 706.875 547.1719 706 Q547.1719 705.1875 546.7812 704.5625 Q546.3906 703.9375 545.6562 703.7109 Q544.9219 703.4844 543.1562 703.4844 L539.8594 703.4844 L539.8594 708.4531 ZM539.8594 716.0625 L543.9688 716.0625 Q545.0156 716.0625 545.4375 715.9844 Q546.2031 715.8438 546.7031 715.5312 Q547.2031 715.2188 547.5312 714.6172 Q547.8594 714.0156 547.8594 713.2344 Q547.8594 712.3125 547.3906 711.6328 Q546.9219 710.9531 546.0859 710.6719 Q545.25 710.3906 543.6719 710.3906 L539.8594 710.3906 L539.8594 716.0625 ZM552.4346 703.6875 L552.4346 701.75 L563.0908 701.75 L563.0908 703.3281 Q561.5127 705 559.9736 707.7734 Q558.4346 710.5469 557.5908 713.4688 Q556.9814 715.5469 556.8096 718 L554.7314 718 Q554.7627 716.0625 555.4971 713.3047 Q556.2314 710.5469 557.5908 707.9922 Q558.9502 705.4375 560.4971 703.6875 L552.4346 703.6875 Z" clip-path="url(#clipPath58)" stroke="none"/><circle fill="rgb(250,128,114)" r="16" clip-path="url(#clipPath59)" cx="326" cy="486" stroke="none"/><circle fill="none" r="16" clip-path="url(#clipPath59)" cx="326" cy="486" stroke="black"/><path fill="black" d="M324.5156 488.2344 L326.7031 488.7812 Q326.0156 491.4688 324.2344 492.875 Q322.4531 494.2812 319.8906 494.2812 Q317.2188 494.2812 315.5547 493.1953 Q313.8906 492.1094 313.0156 490.0547 Q312.1406 488 312.1406 485.6406 Q312.1406 483.0781 313.125 481.1641 Q314.1094 479.25 315.9219 478.25 Q317.7344 477.25 319.9219 477.25 Q322.3906 477.25 324.0703 478.5078 Q325.75 479.7656 326.4219 482.0469 L324.2812 482.5625 Q323.7031 480.7656 322.6094 479.9453 Q321.5156 479.125 319.875 479.125 Q317.9688 479.125 316.6953 480.0312 Q315.4219 480.9375 314.9062 482.4688 Q314.3906 484 314.3906 485.6406 Q314.3906 487.7344 315 489.2969 Q315.6094 490.8594 316.9062 491.6406 Q318.2031 492.4219 319.7031 492.4219 Q321.5312 492.4219 322.8047 491.3672 Q324.0781 490.3125 324.5156 488.2344 ZM328.7036 479.6875 L328.7036 477.75 L339.3599 477.75 L339.3599 479.3281 Q337.7817 481 336.2427 483.7734 Q334.7036 486.5469 333.8599 489.4688 Q333.2505 491.5469 333.0786 494 L331.0005 494 Q331.0317 492.0625 331.7661 489.3047 Q332.5005 486.5469 333.8599 483.9922 Q335.2192 481.4375 336.7661 479.6875 L328.7036 479.6875 Z" clip-path="url(#clipPath60)" stroke="none"/><circle r="16" clip-path="url(#clipPath61)" cx="630" cy="630" stroke="none"/><circle fill="none" r="16" clip-path="url(#clipPath61)" cx="630" cy="630" stroke="black"/><path fill="black" d="M614.9688 639 L621.8438 621.1094 L624.3906 621.1094 L631.7188 639 L629.0156 639 L626.9219 633.5781 L619.4375 633.5781 L617.4844 639 L614.9688 639 ZM620.125 631.6562 L626.1875 631.6562 L624.3281 626.6875 Q623.4688 624.4375 623.0625 622.9844 Q622.7188 624.7031 622.0938 626.4062 L620.125 631.6562 ZM636.0967 629.2969 Q634.7217 628.7969 634.0654 627.8672 Q633.4092 626.9375 633.4092 625.6406 Q633.4092 623.6875 634.8154 622.3594 Q636.2217 621.0312 638.5498 621.0312 Q640.8936 621.0312 642.3232 622.3906 Q643.7529 623.75 643.7529 625.7031 Q643.7529 626.9531 643.0967 627.875 Q642.4404 628.7969 641.1123 629.2969 Q642.7529 629.8281 643.6201 631.0234 Q644.4873 632.2188 644.4873 633.8906 Q644.4873 636.1875 642.8623 637.75 Q641.2373 639.3125 638.5811 639.3125 Q635.9404 639.3125 634.3154 637.7422 Q632.6904 636.1719 632.6904 633.8281 Q632.6904 632.0781 633.5732 630.8984 Q634.4561 629.7188 636.0967 629.2969 ZM635.6592 625.5781 Q635.6592 626.8438 636.4717 627.6484 Q637.2842 628.4531 638.5967 628.4531 Q639.8623 628.4531 640.6748 627.6562 Q641.4873 626.8594 641.4873 625.6875 Q641.4873 624.4844 640.6514 623.6641 Q639.8154 622.8438 638.5654 622.8438 Q637.3154 622.8438 636.4873 623.6484 Q635.6592 624.4531 635.6592 625.5781 ZM634.9404 633.8438 Q634.9404 634.7812 635.3857 635.6562 Q635.8311 636.5312 636.7139 637.0156 Q637.5967 637.5 638.6123 637.5 Q640.1904 637.5 641.2139 636.4844 Q642.2373 635.4688 642.2373 633.9062 Q642.2373 632.3281 641.1826 631.2891 Q640.1279 630.25 638.5342 630.25 Q636.9873 630.25 635.9639 631.2734 Q634.9404 632.2969 634.9404 633.8438 Z" clip-path="url(#clipPath62)" stroke="none"/><circle fill="rgb(144,238,144)" r="16" clip-path="url(#clipPath63)" cx="630" cy="790" stroke="none"/><circle fill="none" r="16" clip-path="url(#clipPath63)" cx="630" cy="790" stroke="black"/><path fill="black" d="M617.6875 798 L617.6875 781.5312 L623.8594 781.5312 Q625.75 781.5312 626.8906 782.0312 Q628.0312 782.5312 628.6719 783.5703 Q629.3125 784.6094 629.3125 785.75 Q629.3125 786.7969 628.7422 787.7344 Q628.1719 788.6719 627.0156 789.2344 Q628.5156 789.6719 629.3125 790.7344 Q630.1094 791.7969 630.1094 793.2344 Q630.1094 794.3906 629.625 795.3828 Q629.1406 796.375 628.4219 796.9141 Q627.7031 797.4531 626.6172 797.7266 Q625.5312 798 623.9688 798 L617.6875 798 ZM619.8594 788.4531 L623.4219 788.4531 Q624.875 788.4531 625.5 788.2656 Q626.3281 788.0156 626.75 787.4453 Q627.1719 786.875 627.1719 786 Q627.1719 785.1875 626.7812 784.5625 Q626.3906 783.9375 625.6562 783.7109 Q624.9219 783.4844 623.1562 783.4844 L619.8594 783.4844 L619.8594 788.4531 ZM619.8594 796.0625 L623.9688 796.0625 Q625.0156 796.0625 625.4375 795.9844 Q626.2031 795.8438 626.7031 795.5312 Q627.2031 795.2188 627.5312 794.6172 Q627.8594 794.0156 627.8594 793.2344 Q627.8594 792.3125 627.3906 791.6328 Q626.9219 790.9531 626.0859 790.6719 Q625.25 790.3906 623.6719 790.3906 L619.8594 790.3906 L619.8594 796.0625 ZM635.4033 789.0781 Q634.1533 788.6094 633.5439 787.7578 Q632.9346 786.9062 632.9346 785.7188 Q632.9346 783.9219 634.2236 782.6953 Q635.5127 781.4688 637.6689 781.4688 Q639.8252 781.4688 641.1377 782.7188 Q642.4502 783.9688 642.4502 785.7656 Q642.4502 786.9219 641.8486 787.7656 Q641.2471 788.6094 640.0283 789.0781 Q641.5439 789.5625 642.333 790.6641 Q643.1221 791.7656 643.1221 793.2969 Q643.1221 795.4062 641.6299 796.8438 Q640.1377 798.2812 637.7002 798.2812 Q635.2627 798.2812 633.7705 796.8359 Q632.2783 795.3906 632.2783 793.2344 Q632.2783 791.625 633.0908 790.5469 Q633.9033 789.4688 635.4033 789.0781 ZM634.9971 785.6406 Q634.9971 786.8125 635.7549 787.5547 Q636.5127 788.2969 637.7158 788.2969 Q638.8721 788.2969 639.6221 787.5625 Q640.3721 786.8281 640.3721 785.7656 Q640.3721 784.6406 639.5986 783.8828 Q638.8252 783.125 637.6846 783.125 Q636.5283 783.125 635.7627 783.8672 Q634.9971 784.6094 634.9971 785.6406 ZM634.3564 793.25 Q634.3564 794.1094 634.7627 794.9219 Q635.1689 795.7344 635.9814 796.1797 Q636.7939 796.625 637.7158 796.625 Q639.1689 796.625 640.1143 795.6875 Q641.0596 794.75 641.0596 793.3125 Q641.0596 791.8594 640.083 790.9062 Q639.1064 789.9531 637.6533 789.9531 Q636.2314 789.9531 635.2939 790.8906 Q634.3564 791.8281 634.3564 793.25 Z" clip-path="url(#clipPath64)" stroke="none"/><circle fill="rgb(250,128,114)" r="16" clip-path="url(#clipPath65)" cx="230" cy="470" stroke="none"/><circle fill="none" r="16" clip-path="url(#clipPath65)" cx="230" cy="470" stroke="black"/><path fill="black" d="M228.5156 472.2344 L230.7031 472.7812 Q230.0156 475.4688 228.2344 476.875 Q226.4531 478.2812 223.8906 478.2812 Q221.2188 478.2812 219.5547 477.1953 Q217.8906 476.1094 217.0156 474.0547 Q216.1406 472 216.1406 469.6406 Q216.1406 467.0781 217.125 465.1641 Q218.1094 463.25 219.9219 462.25 Q221.7344 461.25 223.9219 461.25 Q226.3906 461.25 228.0703 462.5078 Q229.75 463.7656 230.4219 466.0469 L228.2812 466.5625 Q227.7031 464.7656 226.6094 463.9453 Q225.5156 463.125 223.875 463.125 Q221.9688 463.125 220.6953 464.0312 Q219.4219 464.9375 218.9062 466.4688 Q218.3906 468 218.3906 469.6406 Q218.3906 471.7344 219 473.2969 Q219.6094 474.8594 220.9062 475.6406 Q222.2031 476.4219 223.7031 476.4219 Q225.5312 476.4219 226.8047 475.3672 Q228.0781 474.3125 228.5156 472.2344 ZM235.6724 469.0781 Q234.4224 468.6094 233.813 467.7578 Q233.2036 466.9062 233.2036 465.7188 Q233.2036 463.9219 234.4927 462.6953 Q235.7817 461.4688 237.938 461.4688 Q240.0942 461.4688 241.4067 462.7188 Q242.7192 463.9688 242.7192 465.7656 Q242.7192 466.9219 242.1177 467.7656 Q241.5161 468.6094 240.2974 469.0781 Q241.813 469.5625 242.6021 470.6641 Q243.3911 471.7656 243.3911 473.2969 Q243.3911 475.4062 241.8989 476.8438 Q240.4067 478.2812 237.9692 478.2812 Q235.5317 478.2812 234.0396 476.8359 Q232.5474 475.3906 232.5474 473.2344 Q232.5474 471.625 233.3599 470.5469 Q234.1724 469.4688 235.6724 469.0781 ZM235.2661 465.6406 Q235.2661 466.8125 236.0239 467.5547 Q236.7817 468.2969 237.9849 468.2969 Q239.1411 468.2969 239.8911 467.5625 Q240.6411 466.8281 240.6411 465.7656 Q240.6411 464.6406 239.8677 463.8828 Q239.0942 463.125 237.9536 463.125 Q236.7974 463.125 236.0317 463.8672 Q235.2661 464.6094 235.2661 465.6406 ZM234.6255 473.25 Q234.6255 474.1094 235.0317 474.9219 Q235.438 475.7344 236.2505 476.1797 Q237.063 476.625 237.9849 476.625 Q239.438 476.625 240.3833 475.6875 Q241.3286 474.75 241.3286 473.3125 Q241.3286 471.8594 240.3521 470.9062 Q239.3755 469.9531 237.9224 469.9531 Q236.5005 469.9531 235.563 470.8906 Q234.6255 471.8281 234.6255 473.25 Z" clip-path="url(#clipPath66)" stroke="none"/><circle r="16" clip-path="url(#clipPath67)" cx="710" cy="630" stroke="none"/><circle fill="none" r="16" clip-path="url(#clipPath67)" cx="710" cy="630" stroke="black"/><path fill="black" d="M694.9688 639 L701.8438 621.1094 L704.3906 621.1094 L711.7188 639 L709.0156 639 L706.9219 633.5781 L699.4375 633.5781 L697.4844 639 L694.9688 639 ZM700.125 631.6562 L706.1875 631.6562 L704.3281 626.6875 Q703.4688 624.4375 703.0625 622.9844 Q702.7188 624.7031 702.0938 626.4062 L700.125 631.6562 ZM713.0498 634.8594 L715.1592 634.6719 Q715.4248 636.1562 716.1826 636.8281 Q716.9404 637.5 718.1279 637.5 Q719.1279 637.5 719.8936 637.0391 Q720.6592 636.5781 721.1514 635.7969 Q721.6436 635.0156 721.9717 633.7031 Q722.2998 632.3906 722.2998 631.0156 Q722.2998 630.875 722.2842 630.5781 Q721.6279 631.625 720.4873 632.2812 Q719.3467 632.9375 718.0029 632.9375 Q715.7842 632.9375 714.2451 631.3203 Q712.7061 629.7031 712.7061 627.0781 Q712.7061 624.3438 714.3154 622.6875 Q715.9248 621.0312 718.3467 621.0312 Q720.0811 621.0312 721.5264 621.9688 Q722.9717 622.9062 723.7295 624.6484 Q724.4873 626.3906 724.4873 629.6875 Q724.4873 633.1094 723.7373 635.1484 Q722.9873 637.1875 721.5186 638.25 Q720.0498 639.3125 718.0654 639.3125 Q715.9717 639.3125 714.6436 638.1406 Q713.3154 636.9688 713.0498 634.8594 ZM722.0342 626.9688 Q722.0342 625.0781 721.0264 623.9609 Q720.0186 622.8438 718.6123 622.8438 Q717.1436 622.8438 716.0576 624.0469 Q714.9717 625.25 714.9717 627.1406 Q714.9717 628.8594 716.0029 629.9219 Q717.0342 630.9844 718.5498 630.9844 Q720.0811 630.9844 721.0576 629.9219 Q722.0342 628.8594 722.0342 626.9688 Z" clip-path="url(#clipPath68)" stroke="none"/><circle fill="rgb(144,238,144)" r="16" clip-path="url(#clipPath69)" cx="710" cy="790" stroke="none"/><circle fill="none" r="16" clip-path="url(#clipPath69)" cx="710" cy="790" stroke="black"/><path fill="black" d="M697.6875 798 L697.6875 781.5312 L703.8594 781.5312 Q705.75 781.5312 706.8906 782.0312 Q708.0312 782.5312 708.6719 783.5703 Q709.3125 784.6094 709.3125 785.75 Q709.3125 786.7969 708.7422 787.7344 Q708.1719 788.6719 707.0156 789.2344 Q708.5156 789.6719 709.3125 790.7344 Q710.1094 791.7969 710.1094 793.2344 Q710.1094 794.3906 709.625 795.3828 Q709.1406 796.375 708.4219 796.9141 Q707.7031 797.4531 706.6172 797.7266 Q705.5312 798 703.9688 798 L697.6875 798 ZM699.8594 788.4531 L703.4219 788.4531 Q704.875 788.4531 705.5 788.2656 Q706.3281 788.0156 706.75 787.4453 Q707.1719 786.875 707.1719 786 Q707.1719 785.1875 706.7812 784.5625 Q706.3906 783.9375 705.6562 783.7109 Q704.9219 783.4844 703.1562 783.4844 L699.8594 783.4844 L699.8594 788.4531 ZM699.8594 796.0625 L703.9688 796.0625 Q705.0156 796.0625 705.4375 795.9844 Q706.2031 795.8438 706.7031 795.5312 Q707.2031 795.2188 707.5312 794.6172 Q707.8594 794.0156 707.8594 793.2344 Q707.8594 792.3125 707.3906 791.6328 Q706.9219 790.9531 706.0859 790.6719 Q705.25 790.3906 703.6719 790.3906 L699.8594 790.3906 L699.8594 796.0625 ZM712.6064 794.1875 L714.5439 794.0156 Q714.7939 795.3906 715.4893 796.0078 Q716.1846 796.625 717.2783 796.625 Q718.2002 796.625 718.9033 796.1953 Q719.6064 795.7656 720.0596 795.0547 Q720.5127 794.3438 720.8096 793.125 Q721.1064 791.9062 721.1064 790.6562 Q721.1064 790.5156 721.1064 790.25 Q720.4971 791.2188 719.4424 791.8203 Q718.3877 792.4219 717.1689 792.4219 Q715.1221 792.4219 713.708 790.9375 Q712.2939 789.4531 712.2939 787.0312 Q712.2939 784.5156 713.7705 782.9922 Q715.2471 781.4688 717.4658 781.4688 Q719.0752 781.4688 720.4111 782.3359 Q721.7471 783.2031 722.4346 784.8047 Q723.1221 786.4062 723.1221 789.4375 Q723.1221 792.5938 722.4346 794.4609 Q721.7471 796.3281 720.3955 797.3047 Q719.0439 798.2812 717.2314 798.2812 Q715.2939 798.2812 714.0674 797.2109 Q712.8408 796.1406 712.6064 794.1875 ZM720.8721 786.9219 Q720.8721 785.1875 719.9502 784.1641 Q719.0283 783.1406 717.7158 783.1406 Q716.3721 783.1406 715.3721 784.2422 Q714.3721 785.3438 714.3721 787.0938 Q714.3721 788.6719 715.3252 789.6484 Q716.2783 790.625 717.6689 790.625 Q719.0752 790.625 719.9736 789.6484 Q720.8721 788.6719 720.8721 786.9219 Z" clip-path="url(#clipPath70)" stroke="none"/><circle fill="rgb(250,128,114)" r="16" clip-path="url(#clipPath71)" cx="150" cy="470" stroke="none"/><circle fill="none" r="16" clip-path="url(#clipPath71)" cx="150" cy="470" stroke="black"/><path fill="black" d="M148.5156 472.2344 L150.7031 472.7812 Q150.0156 475.4688 148.2344 476.875 Q146.4531 478.2812 143.8906 478.2812 Q141.2188 478.2812 139.5547 477.1953 Q137.8906 476.1094 137.0156 474.0547 Q136.1406 472 136.1406 469.6406 Q136.1406 467.0781 137.125 465.1641 Q138.1094 463.25 139.9219 462.25 Q141.7344 461.25 143.9219 461.25 Q146.3906 461.25 148.0703 462.5078 Q149.75 463.7656 150.4219 466.0469 L148.2812 466.5625 Q147.7031 464.7656 146.6094 463.9453 Q145.5156 463.125 143.875 463.125 Q141.9688 463.125 140.6953 464.0312 Q139.4219 464.9375 138.9062 466.4688 Q138.3906 468 138.3906 469.6406 Q138.3906 471.7344 139 473.2969 Q139.6094 474.8594 140.9062 475.6406 Q142.2031 476.4219 143.7031 476.4219 Q145.5312 476.4219 146.8047 475.3672 Q148.0781 474.3125 148.5156 472.2344 ZM152.8755 474.1875 L154.813 474.0156 Q155.063 475.3906 155.7583 476.0078 Q156.4536 476.625 157.5474 476.625 Q158.4692 476.625 159.1724 476.1953 Q159.8755 475.7656 160.3286 475.0547 Q160.7817 474.3438 161.0786 473.125 Q161.3755 471.9062 161.3755 470.6562 Q161.3755 470.5156 161.3755 470.25 Q160.7661 471.2188 159.7114 471.8203 Q158.6567 472.4219 157.438 472.4219 Q155.3911 472.4219 153.9771 470.9375 Q152.563 469.4531 152.563 467.0312 Q152.563 464.5156 154.0396 462.9922 Q155.5161 461.4688 157.7349 461.4688 Q159.3442 461.4688 160.6802 462.3359 Q162.0161 463.2031 162.7036 464.8047 Q163.3911 466.4062 163.3911 469.4375 Q163.3911 472.5938 162.7036 474.4609 Q162.0161 476.3281 160.6646 477.3047 Q159.313 478.2812 157.5005 478.2812 Q155.563 478.2812 154.3364 477.2109 Q153.1099 476.1406 152.8755 474.1875 ZM161.1411 466.9219 Q161.1411 465.1875 160.2192 464.1641 Q159.2974 463.1406 157.9849 463.1406 Q156.6411 463.1406 155.6411 464.2422 Q154.6411 465.3438 154.6411 467.0938 Q154.6411 468.6719 155.5942 469.6484 Q156.5474 470.625 157.938 470.625 Q159.3442 470.625 160.2427 469.6484 Q161.1411 468.6719 161.1411 466.9219 Z" clip-path="url(#clipPath72)" stroke="none"/><circle r="16" clip-path="url(#clipPath73)" cx="790" cy="630" stroke="none"/><circle fill="none" r="16" clip-path="url(#clipPath73)" cx="790" cy="630" stroke="black"/><path fill="black" d="M775.9688 636 L780.375 624.5469 L782.0156 624.5469 L786.7031 636 L784.9688 636 L783.6406 632.5312 L778.8438 632.5312 L777.5938 636 L775.9688 636 ZM779.2812 631.2969 L783.1719 631.2969 L781.9688 628.125 Q781.4219 626.6719 781.1562 625.75 Q780.9375 626.8438 780.5469 627.9375 L779.2812 631.2969 ZM792.6406 636 L791.2344 636 L791.2344 627.0312 Q790.7188 627.5156 789.8984 628 Q789.0781 628.4844 788.4219 628.7344 L788.4219 627.375 Q789.5938 626.8125 790.4766 626.0234 Q791.3594 625.2344 791.7344 624.5 L792.6406 624.5 L792.6406 636 ZM796.2422 630.3438 Q796.2422 628.3125 796.6562 627.0781 Q797.0703 625.8438 797.8984 625.1719 Q798.7266 624.5 799.9766 624.5 Q800.8984 624.5 801.5938 624.8672 Q802.2891 625.2344 802.7422 625.9375 Q803.1953 626.6406 803.4531 627.6406 Q803.7109 628.6406 803.7109 630.3438 Q803.7109 632.3594 803.2969 633.6016 Q802.8828 634.8438 802.0547 635.5234 Q801.2266 636.2031 799.9766 636.2031 Q798.3203 636.2031 797.3672 635 Q796.2422 633.5781 796.2422 630.3438 ZM797.6797 630.3438 Q797.6797 633.1719 798.3438 634.1016 Q799.0078 635.0312 799.9766 635.0312 Q800.9453 635.0312 801.6016 634.0938 Q802.2578 633.1562 802.2578 630.3438 Q802.2578 627.5156 801.6016 626.5859 Q800.9453 625.6562 799.9609 625.6562 Q798.9922 625.6562 798.4141 626.4844 Q797.6797 627.5312 797.6797 630.3438 Z" clip-path="url(#clipPath74)" stroke="none"/><circle fill="rgb(144,238,144)" r="16" clip-path="url(#clipPath75)" cx="790" cy="790" stroke="none"/><circle fill="none" r="16" clip-path="url(#clipPath75)" cx="790" cy="790" stroke="black"/><path fill="black" d="M777.1719 796 L777.1719 784.5469 L781.4688 784.5469 Q782.7812 784.5469 783.5781 784.8906 Q784.375 785.2344 784.8203 785.9609 Q785.2656 786.6875 785.2656 787.4688 Q785.2656 788.2031 784.8672 788.8516 Q784.4688 789.5 783.6719 789.9062 Q784.7031 790.2031 785.2656 790.9375 Q785.8281 791.6719 785.8281 792.6719 Q785.8281 793.4844 785.4844 794.1719 Q785.1406 794.8594 784.6406 795.2344 Q784.1406 795.6094 783.3906 795.8047 Q782.6406 796 781.5469 796 L777.1719 796 ZM778.6875 789.3594 L781.1719 789.3594 Q782.1719 789.3594 782.6094 789.2188 Q783.1875 789.0469 783.4844 788.6484 Q783.7812 788.25 783.7812 787.6562 Q783.7812 787.0781 783.5078 786.6484 Q783.2344 786.2188 782.7266 786.0547 Q782.2188 785.8906 780.9844 785.8906 L778.6875 785.8906 L778.6875 789.3594 ZM778.6875 794.6406 L781.5469 794.6406 Q782.2812 794.6406 782.5781 794.5938 Q783.0938 794.5 783.4453 794.2812 Q783.7969 794.0625 784.0234 793.6406 Q784.25 793.2188 784.25 792.6719 Q784.25 792.0312 783.9219 791.5625 Q783.5938 791.0938 783.0156 790.8984 Q782.4375 790.7031 781.3438 790.7031 L778.6875 790.7031 L778.6875 794.6406 ZM792.6406 796 L791.2344 796 L791.2344 787.0312 Q790.7188 787.5156 789.8984 788 Q789.0781 788.4844 788.4219 788.7344 L788.4219 787.375 Q789.5938 786.8125 790.4766 786.0234 Q791.3594 785.2344 791.7344 784.5 L792.6406 784.5 L792.6406 796 ZM796.2422 790.3438 Q796.2422 788.3125 796.6562 787.0781 Q797.0703 785.8438 797.8984 785.1719 Q798.7266 784.5 799.9766 784.5 Q800.8984 784.5 801.5938 784.8672 Q802.2891 785.2344 802.7422 785.9375 Q803.1953 786.6406 803.4531 787.6406 Q803.7109 788.6406 803.7109 790.3438 Q803.7109 792.3594 803.2969 793.6016 Q802.8828 794.8438 802.0547 795.5234 Q801.2266 796.2031 799.9766 796.2031 Q798.3203 796.2031 797.3672 795 Q796.2422 793.5781 796.2422 790.3438 ZM797.6797 790.3438 Q797.6797 793.1719 798.3438 794.1016 Q799.0078 795.0312 799.9766 795.0312 Q800.9453 795.0312 801.6016 794.0938 Q802.2578 793.1562 802.2578 790.3438 Q802.2578 787.5156 801.6016 786.5859 Q800.9453 785.6562 799.9609 785.6562 Q798.9922 785.6562 798.4141 786.4844 Q797.6797 787.5312 797.6797 790.3438 Z" clip-path="url(#clipPath76)" stroke="none"/><circle fill="rgb(250,128,114)" r="16" clip-path="url(#clipPath77)" cx="70" cy="470" stroke="none"/><circle fill="none" r="16" clip-path="url(#clipPath77)" cx="70" cy="470" stroke="black"/><path fill="black" d="M64.4062 471.9844 L65.9219 472.3594 Q65.4531 474.2344 64.2109 475.2188 Q62.9688 476.2031 61.1875 476.2031 Q59.3281 476.2031 58.1719 475.4453 Q57.0156 474.6875 56.4062 473.2578 Q55.7969 471.8281 55.7969 470.1875 Q55.7969 468.3906 56.4844 467.0625 Q57.1719 465.7344 58.4297 465.0391 Q59.6875 464.3438 61.2031 464.3438 Q62.9219 464.3438 64.0938 465.2188 Q65.2656 466.0938 65.7344 467.6875 L64.2344 468.0312 Q63.8438 466.7812 63.0859 466.2109 Q62.3281 465.6406 61.1719 465.6406 Q59.8594 465.6406 58.9688 466.2734 Q58.0781 466.9062 57.7188 467.9766 Q57.3594 469.0469 57.3594 470.1719 Q57.3594 471.6406 57.7891 472.7266 Q58.2188 473.8125 59.1172 474.3516 Q60.0156 474.8906 61.0625 474.8906 Q62.3281 474.8906 63.2109 474.1562 Q64.0938 473.4219 64.4062 471.9844 ZM72.5234 476 L71.1172 476 L71.1172 467.0312 Q70.6016 467.5156 69.7812 468 Q68.9609 468.4844 68.3047 468.7344 L68.3047 467.375 Q69.4766 466.8125 70.3594 466.0234 Q71.2422 465.2344 71.6172 464.5 L72.5234 464.5 L72.5234 476 ZM76.125 470.3438 Q76.125 468.3125 76.5391 467.0781 Q76.9531 465.8438 77.7812 465.1719 Q78.6094 464.5 79.8594 464.5 Q80.7812 464.5 81.4766 464.8672 Q82.1719 465.2344 82.625 465.9375 Q83.0781 466.6406 83.3359 467.6406 Q83.5938 468.6406 83.5938 470.3438 Q83.5938 472.3594 83.1797 473.6016 Q82.7656 474.8438 81.9375 475.5234 Q81.1094 476.2031 79.8594 476.2031 Q78.2031 476.2031 77.25 475 Q76.125 473.5781 76.125 470.3438 ZM77.5625 470.3438 Q77.5625 473.1719 78.2266 474.1016 Q78.8906 475.0312 79.8594 475.0312 Q80.8281 475.0312 81.4844 474.0938 Q82.1406 473.1562 82.1406 470.3438 Q82.1406 467.5156 81.4844 466.5859 Q80.8281 465.6562 79.8438 465.6562 Q78.875 465.6562 78.2969 466.4844 Q77.5625 467.5312 77.5625 470.3438 Z" clip-path="url(#clipPath78)" stroke="none"/></g></g></svg>