<?xml version="1.0" encoding="UTF-8"?><svg xmlns="http://www.w3.org/2000/svg" xmlns:xlink="http://www.w3.org/1999/xlink" stroke-dasharray="none" shape-rendering="auto" font-family="'Dialog'" width="591" text-rendering="auto" fill-opacity="1" contentScriptType="text/ecmascript" color-interpolation="auto" color-rendering="auto" preserveAspectRatio="xMidYMid meet" font-size="12px" fill="black" stroke="black" image-rendering="auto" stroke-miterlimit="10" zoomAndPan="magnify" version="1.0" stroke-linecap="square" stroke-linejoin="miter" contentStyleType="text/css" font-style="normal" height="591" stroke-width="1" stroke-dashoffset="0" font-weight="normal" stroke-opacity="1"><!--Generated by the Batik Graphics2D SVG Generator--><defs id="genericDefs"/><g><defs id="defs1"><clipPath clipPathUnits="userSpaceOnUse" id="clipPath1"><path d="M33 33 L75 33 L75 75 L33 75 L33 33 Z"/></clipPath><clipPath clipPathUnits="userSpaceOnUse" id="clipPath2"><path d="M74 54 C74 65.0457 65.0457 74 54 74 C42.9543 74 34 65.0457 34 54 C34 42.9543 42.9543 34 54 34 C65.0457 34 74 42.9543 74 54 Z"/></clipPath><clipPath clipPathUnits="userSpaceOnUse" id="clipPath3"><path d="M513 513 L555 513 L555 555 L513 555 L513 513 Z"/></clipPath><clipPath clipPathUnits="userSpaceOnUse" id="clipPath4"><path d="M554 534 C554 545.0457 545.0457 554 534 554 C522.9543 554 514 545.0457 514 534 C514 522.9543 522.9543 514 534 514 C545.0457 514 554 522.9543 554 534 Z"/></clipPath><clipPath clipPathUnits="userSpaceOnUse" id="clipPath5"><path d="M129 49 L171 49 L171 91 L129 91 L129 49 Z"/></clipPath><clipPath clipPathUnits="userSpaceOnUse" id="clipPath6"><path d="M170 70 C170 81.0457 161.0457 90 150 90 C138.9543 90 130 81.0457 130 70 C130 58.9543 138.9543 50 150 50 C161.0457 50 170 58.9543 170 70 Z"/></clipPath><clipPath clipPathUnits="userSpaceOnUse" id="clipPath7"><path d="M449 529 L491 529 L491 571 L449 571 L449 529 Z"/></clipPath><clipPath clipPathUnits="userSpaceOnUse" id="clipPath8"><path d="M490 550 C490 561.0457 481.0457 570 470 570 C458.9543 570 450 561.0457 450 550 C450 538.9543 458.9543 530 470 530 C481.0457 530 490 538.9543 490 550 Z"/></clipPath><clipPath clipPathUnits="userSpaceOnUse" id="clipPath9"><path d="M209 49 L251 49 L251 91 L209 91 L209 49 Z"/></clipPath><clipPath clipPathUnits="userSpaceOnUse" id="clipPath10"><path d="M250 70 C250 81.0457 241.0457 90 230 90 C218.9543 90 210 81.0457 210 70 C210 58.9543 218.9543 50 230 50 C241.0457 50 250 58.9543 250 70 Z"/></clipPath><clipPath clipPathUnits="userSpaceOnUse" id="clipPath11"><path d="M449 449 L491 449 L491 491 L449 491 L449 449 Z"/></clipPath><clipPath clipPathUnits="userSpaceOnUse" id="clipPath12"><path d="M490 470 C490 481.0457 481.0457 490 470 490 C458.9543 490 450 481.0457 450 470 C450 458.9543 458.9543 450 470 450 C481.0457 450 490 458.9543 490 470 Z"/></clipPath><clipPath clipPathUnits="userSpaceOnUse" id="clipPath13"><path d="M289 49 L331 49 L331 91 L289 91 L289 49 Z"/></clipPath><clipPath clipPathUnits="userSpaceOnUse" id="clipPath14"><path d="M330 70 C330 81.0457 321.0457 90 310 90 C298.9543 90 290 81.0457 290 70 C290 58.9543 298.9543 50 310 50 C321.0457 50 330 58.9543 330 70 Z"/></clipPath><clipPath clipPathUnits="userSpaceOnUse" id="clipPath15"><path d="M369 449 L411 449 L411 491 L369 491 L369 449 Z"/></clipPath><clipPath clipPathUnits="userSpaceOnUse" id="clipPath16"><path d="M410 470 C410 481.0457 401.0457 490 390 490 C378.9543 490 370 481.0457 370 470 C370 458.9543 378.9543 450 390 450 C401.0457 450 410 458.9543 410 470 Z"/></clipPath><clipPath clipPathUnits="userSpaceOnUse" id="clipPath17"><path d="M289 129 L331 129 L331 171 L289 171 L289 129 Z"/></clipPath><clipPath clipPathUnits="userSpaceOnUse" id="clipPath18"><path d="M330 150 C330 161.0457 321.0457 170 310 170 C298.9543 170 290 161.0457 290 150 C290 138.9543 298.9543 130 310 130 C321.0457 130 330 138.9543 330 150 Z"/></clipPath><clipPath clipPathUnits="userSpaceOnUse" id="clipPath19"><path d="M289 449 L331 449 L331 491 L289 491 L289 449 Z"/></clipPath><clipPath clipPathUnits="userSpaceOnUse" id="clipPath20"><path d="M330 470 C330 481.0457 321.0457 490 310 490 C298.9543 490 290 481.0457 290 470 C290 458.9543 298.9543 450 310 450 C321.0457 450 330 458.9543 330 470 Z"/></clipPath><clipPath clipPathUnits="userSpaceOnUse" id="clipPath21"><path d="M369 129 L411 129 L411 171 L369 171 L369 129 Z"/></clipPath><clipPath clipPathUnits="userSpaceOnUse" id="clipPath22"><path d="M410 150 C410 161.0457 401.0457 170 390 170 C378.9543 170 370 161.0457 370 150 C370 138.9543 378.9543 130 390 130 C401.0457 130 410 138.9543 410 150 Z"/></clipPath><clipPath clipPathUnits="userSpaceOnUse" id="clipPath23"><path d="M209 449 L251 449 L251 491 L209 491 L209 449 Z"/></clipPath><clipPath clipPathUnits="userSpaceOnUse" id="clipPath24"><path d="M250 470 C250 481.0457 241.0457 490 230 490 C218.9543 490 210 481.0457 210 470 C210 458.9543 218.9543 450 230 450 C241.0457 450 250 458.9543 250 470 Z"/></clipPath><clipPath clipPathUnits="userSpaceOnUse" id="clipPath25"><path d="M449 129 L491 129 L491 171 L449 171 L449 129 Z"/></clipPath><clipPath clipPathUnits="userSpaceOnUse" id="clipPath26"><path d="M490 150 C490 161.0457 481.0457 170 470 170 C458.9543 170 450 161.0457 450 150 C450 138.9543 458.9543 130 470 130 C481.0457 130 490 138.9543 490 150 Z"/></clipPath><clipPath clipPathUnits="userSpaceOnUse" id="clipPath27"><path d="M129 449 L171 449 L171 491 L129 491 L129 449 Z"/></clipPath><clipPath clipPathUnits="userSpaceOnUse" id="clipPath28"><path d="M170 470 C170 481.0457 161.0457 490 150 490 C138.9543 490 130 481.0457 130 470 C130 458.9543 138.9543 450 150 450 C161.0457 450 170 458.9543 170 470 Z"/></clipPath><clipPath clipPathUnits="userSpaceOnUse" id="clipPath29"><path d="M529 129 L571 129 L571 171 L529 171 L529 129 Z"/></clipPath><clipPath clipPathUnits="userSpaceOnUse" id="clipPath30"><path d="M570 150 C570 161.0457 561.0457 170 550 170 C538.9543 170 530 161.0457 530 150 C530 138.9543 538.9543 130 550 130 C561.0457 130 570 138.9543 570 150 Z"/></clipPath><clipPath clipPathUnits="userSpaceOnUse" id="clipPath31"><path d="M49 449 L91 449 L91 491 L49 491 L49 449 Z"/></clipPath><clipPath clipPathUnits="userSpaceOnUse" id="clipPath32"><path d="M90 470 C90 481.0457 81.0457 490 70 490 C58.9543 490 50 481.0457 50 470 C50 458.9543 58.9543 450 70 450 C81.0457 450 90 458.9543 90 470 Z"/></clipPath><clipPath clipPathUnits="userSpaceOnUse" id="clipPath33"><path d="M529 209 L571 209 L571 251 L529 251 L529 209 Z"/></clipPath><clipPath clipPathUnits="userSpaceOnUse" id="clipPath34"><path d="M570 230 C570 241.0457 561.0457 250 550 250 C538.9543 250 530 241.0457 530 230 C530 218.9543 538.9543 210 550 210 C561.0457 210 570 218.9543 570 230 Z"/></clipPath><clipPath clipPathUnits="userSpaceOnUse" id="clipPath35"><path d="M49 369 L91 369 L91 411 L49 411 L49 369 Z"/></clipPath><clipPath clipPathUnits="userSpaceOnUse" id="clipPath36"><path d="M90 390 C90 401.0457 81.0457 410 70 410 C58.9543 410 50 401.0457 50 390 C50 378.9543 58.9543 370 70 370 C81.0457 370 90 378.9543 90 390 Z"/></clipPath><clipPath clipPathUnits="userSpaceOnUse" id="clipPath37"><path d="M529 289 L571 289 L571 331 L529 331 L529 289 Z"/></clipPath><clipPath clipPathUnits="userSpaceOnUse" id="clipPath38"><path d="M570 310 C570 321.0457 561.0457 330 550 330 C538.9543 330 530 321.0457 530 310 C530 298.9543 538.9543 290 550 290 C561.0457 290 570 298.9543 570 310 Z"/></clipPath><clipPath clipPathUnits="userSpaceOnUse" id="clipPath39"><path d="M49 289 L91 289 L91 331 L49 331 L49 289 Z"/></clipPath><clipPath clipPathUnits="userSpaceOnUse" id="clipPath40"><path d="M90 310 C90 321.0457 81.0457 330 70 330 C58.9543 330 50 321.0457 50 310 C50 298.9543 58.9543 290 70 290 C81.0457 290 90 298.9543 90 310 Z"/></clipPath><clipPath clipPathUnits="userSpaceOnUse" id="clipPath41"><path d="M529 369 L571 369 L571 411 L529 411 L529 369 Z"/></clipPath><clipPath clipPathUnits="userSpaceOnUse" id="clipPath42"><path d="M570 390 C570 401.0457 561.0457 410 550 410 C538.9543 410 530 401.0457 530 390 C530 378.9543 538.9543 370 550 370 C561.0457 370 570 378.9543 570 390 Z"/></clipPath><clipPath clipPathUnits="userSpaceOnUse" id="clipPath43"><path d="M49 209 L91 209 L91 251 L49 251 L49 209 Z"/></clipPath><clipPath clipPathUnits="userSpaceOnUse" id="clipPath44"><path d="M90 230 C90 241.0457 81.0457 250 70 250 C58.9543 250 50 241.0457 50 230 C50 218.9543 58.9543 210 70 210 C81.0457 210 90 218.9543 90 230 Z"/></clipPath><clipPath clipPathUnits="userSpaceOnUse" id="clipPath45"><path d="M529 449 L571 449 L571 491 L529 491 L529 449 Z"/></clipPath><clipPath clipPathUnits="userSpaceOnUse" id="clipPath46"><path d="M570 470 C570 481.0457 561.0457 490 550 490 C538.9543 490 530 481.0457 530 470 C530 458.9543 538.9543 450 550 450 C561.0457 450 570 458.9543 570 470 Z"/></clipPath><clipPath clipPathUnits="userSpaceOnUse" id="clipPath47"><path d="M49 129 L91 129 L91 171 L49 171 L49 129 Z"/></clipPath><clipPath clipPathUnits="userSpaceOnUse" id="clipPath48"><path d="M90 150 C90 161.0457 81.0457 170 70 170 C58.9543 170 50 161.0457 50 150 C50 138.9543 58.9543 130 70 130 C81.0457 130 90 138.9543 90 150 Z"/></clipPath><clipPath clipPathUnits="userSpaceOnUse" id="clipPath49"><path d="M545 545 L587 545 L587 587 L545 587 L545 545 Z"/></clipPath><clipPath clipPathUnits="userSpaceOnUse" id="clipPath50"><path d="M586 566 C586 577.0457 577.0457 586 566 586 C554.9543 586 546 577.0457 546 566 C546 554.9543 554.9543 546 566 546 C577.0457 546 586 554.9543 586 566 Z"/></clipPath><clipPath clipPathUnits="userSpaceOnUse" id="clipPath51"><path d="M65 65 L107 65 L107 107 L65 107 L65 65 Z"/></clipPath><clipPath clipPathUnits="userSpaceOnUse" id="clipPath52"><path d="M106 86 C106 97.0457 97.0457 106 86 106 C74.9543 106 66 97.0457 66 86 C66 74.9543 74.9543 66 86 66 C97.0457 66 106 74.9543 106 86 Z"/></clipPath></defs><g><line y2="30" fill="none" x1="30" x2="590" y1="30"/><line y2="110" fill="none" x1="30" x2="590" y1="110"/><line y2="190" fill="none" x1="30" x2="590" y1="190"/><line y2="270" fill="none" x1="30" x2="590" y1="270"/><line y2="350" fill="none" x1="30" x2="590" y1="350"/><line y2="430" fill="none" x1="30" x2="590" y1="430"/><line y2="510" fill="none" x1="30" x2="590" y1="510"/><line y2="590" fill="none" x1="30" x2="590" y1="590"/><line y2="590" fill="none" x1="30" x2="30" y1="30"/><line y2="590" fill="none" x1="110" x2="110" y1="30"/><line y2="590" fill="none" x1="190" x2="190" y1="30"/><line y2="590" fill="none" x1="270" x2="270" y1="30"/><line y2="590" fill="none" x1="350" x2="350" y1="30"/><line y2="590" fill="none" x1="430" x2="430" y1="30"/><line y2="590" fill="none" x1="510" x2="510" y1="30"/><line y2="590" fill="none" x1="590" x2="590" y1="30"/><path d="M17.9375 79 L15.8281 79 L15.8281 65.5625 Q15.0781 66.2812 13.8359 67.0078 Q12.5938 67.7344 11.6094 68.0938 L11.6094 66.0625 Q13.3906 65.2344 14.7109 64.0469 Q16.0312 62.8594 16.5781 61.75 L17.9375 61.75 L17.9375 79 Z" stroke="none"/><path d="M21.0781 156.9688 L21.0781 159 L9.7344 159 Q9.7031 158.2344 9.9688 157.5312 Q10.4062 156.375 11.3594 155.25 Q12.3125 154.125 14.125 152.6406 Q16.9219 150.3438 17.9062 149.0078 Q18.8906 147.6719 18.8906 146.4688 Q18.8906 145.2188 17.9922 144.3594 Q17.0938 143.5 15.6562 143.5 Q14.1406 143.5 13.2266 144.4141 Q12.3125 145.3281 12.2969 146.9375 L10.125 146.7188 Q10.3438 144.2969 11.7969 143.0234 Q13.25 141.75 15.7031 141.75 Q18.1719 141.75 19.6172 143.1172 Q21.0625 144.4844 21.0625 146.5156 Q21.0625 147.5469 20.6406 148.5469 Q20.2188 149.5469 19.2422 150.6484 Q18.2656 151.75 15.9844 153.6719 Q14.0938 155.2656 13.5547 155.8281 Q13.0156 156.3906 12.6562 156.9688 L21.0781 156.9688 Z" stroke="none"/><path d="M10.0156 234.4688 L12.125 234.1875 Q12.4844 235.9688 13.3594 236.7656 Q14.2344 237.5625 15.4844 237.5625 Q16.9688 237.5625 17.9922 236.5312 Q19.0156 235.5 19.0156 233.9688 Q19.0156 232.5156 18.0703 231.5703 Q17.125 230.625 15.6562 230.625 Q15.0625 230.625 14.1719 230.8594 L14.4062 229.0156 Q14.6094 229.0312 14.75 229.0312 Q16.0938 229.0312 17.1719 228.3281 Q18.25 227.625 18.25 226.1719 Q18.25 225 17.4609 224.2422 Q16.6719 223.4844 15.4375 223.4844 Q14.2031 223.4844 13.3828 224.2578 Q12.5625 225.0312 12.3281 226.5781 L10.2188 226.2031 Q10.6094 224.0781 11.9766 222.9141 Q13.3438 221.75 15.3906 221.75 Q16.7969 221.75 17.9766 222.3516 Q19.1562 222.9531 19.7891 224 Q20.4219 225.0469 20.4219 226.2188 Q20.4219 227.3281 19.8203 228.2422 Q19.2188 229.1562 18.0469 229.6875 Q19.5781 230.0469 20.4219 231.1562 Q21.2656 232.2656 21.2656 233.9219 Q21.2656 236.1719 19.625 237.7422 Q17.9844 239.3125 15.4688 239.3125 Q13.2031 239.3125 11.7109 237.9609 Q10.2188 236.6094 10.0156 234.4688 Z" stroke="none"/><path d="M16.7656 319 L16.7656 314.8906 L9.3125 314.8906 L9.3125 312.9531 L17.1406 301.8125 L18.875 301.8125 L18.875 312.9531 L21.1875 312.9531 L21.1875 314.8906 L18.875 314.8906 L18.875 319 L16.7656 319 ZM16.7656 312.9531 L16.7656 305.2031 L11.375 312.9531 L16.7656 312.9531 Z" stroke="none"/><path d="M10 394.5 L12.2188 394.3125 Q12.4531 395.9219 13.3516 396.7422 Q14.25 397.5625 15.5156 397.5625 Q17.0469 397.5625 18.1016 396.4141 Q19.1562 395.2656 19.1562 393.3594 Q19.1562 391.5625 18.1406 390.5156 Q17.125 389.4688 15.4844 389.4688 Q14.4688 389.4688 13.6484 389.9297 Q12.8281 390.3906 12.3594 391.1406 L10.375 390.875 L12.0312 382.0469 L20.5781 382.0469 L20.5781 384.0625 L13.7188 384.0625 L12.7969 388.6875 Q14.3438 387.6094 16.0469 387.6094 Q18.2969 387.6094 19.8438 389.1641 Q21.3906 390.7188 21.3906 393.1719 Q21.3906 395.5 20.0312 397.2031 Q18.375 399.2969 15.5156 399.2969 Q13.1719 399.2969 11.6875 397.9844 Q10.2031 396.6719 10 394.5 Z" stroke="none"/><path d="M20.9375 466.0312 L18.8438 466.1875 Q18.5625 464.9531 18.0469 464.3906 Q17.1875 463.4844 15.9375 463.4844 Q14.9375 463.4844 14.1719 464.0469 Q13.1719 464.7656 12.6016 466.1641 Q12.0312 467.5625 12 470.1406 Q12.7656 468.9844 13.8672 468.4219 Q14.9688 467.8594 16.1719 467.8594 Q18.2812 467.8594 19.7656 469.4062 Q21.25 470.9531 21.25 473.4219 Q21.25 475.0312 20.5547 476.4219 Q19.8594 477.8125 18.6406 478.5547 Q17.4219 479.2969 15.875 479.2969 Q13.2344 479.2969 11.5703 477.3516 Q9.9062 475.4062 9.9062 470.9531 Q9.9062 465.9844 11.75 463.7188 Q13.3438 461.75 16.0625 461.75 Q18.0938 461.75 19.3906 462.8828 Q20.6875 464.0156 20.9375 466.0312 ZM12.3281 473.4375 Q12.3281 474.5156 12.7891 475.5156 Q13.25 476.5156 14.0859 477.0391 Q14.9219 477.5625 15.8281 477.5625 Q17.1719 477.5625 18.1328 476.4844 Q19.0938 475.4062 19.0938 473.5469 Q19.0938 471.7656 18.1406 470.7422 Q17.1875 469.7188 15.75 469.7188 Q14.3281 469.7188 13.3281 470.7422 Q12.3281 471.7656 12.3281 473.4375 Z" stroke="none"/><path d="M10.1406 544.0625 L10.1406 542.0469 L21.2656 542.0469 L21.2656 543.6875 Q19.625 545.4219 18.0078 548.3203 Q16.3906 551.2188 15.5156 554.2812 Q14.8906 556.4375 14.7031 559 L12.5469 559 Q12.5781 556.9688 13.3359 554.1016 Q14.0938 551.2344 15.5234 548.5625 Q16.9531 545.8906 18.5469 544.0625 L10.1406 544.0625 Z" stroke="none"/><path d="M72.9375 24 L70.8281 24 L70.8281 10.5625 Q70.0781 11.2812 68.8359 12.0078 Q67.5938 12.7344 66.6094 13.0938 L66.6094 11.0625 Q68.3906 10.2344 69.7109 9.0469 Q71.0312 7.8594 71.5781 6.75 L72.9375 6.75 L72.9375 24 Z" stroke="none"/><path d="M156.0781 21.9688 L156.0781 24 L144.7344 24 Q144.7031 23.2344 144.9688 22.5312 Q145.4062 21.375 146.3594 20.25 Q147.3125 19.125 149.125 17.6406 Q151.9219 15.3438 152.9062 14.0078 Q153.8906 12.6719 153.8906 11.4688 Q153.8906 10.2188 152.9922 9.3594 Q152.0938 8.5 150.6562 8.5 Q149.1406 8.5 148.2266 9.4141 Q147.3125 10.3281 147.2969 11.9375 L145.125 11.7188 Q145.3438 9.2969 146.7969 8.0234 Q148.25 6.75 150.7031 6.75 Q153.1719 6.75 154.6172 8.1172 Q156.0625 9.4844 156.0625 11.5156 Q156.0625 12.5469 155.6406 13.5469 Q155.2188 14.5469 154.2422 15.6484 Q153.2656 16.75 150.9844 18.6719 Q149.0938 20.2656 148.5547 20.8281 Q148.0156 21.3906 147.6562 21.9688 L156.0781 21.9688 Z" stroke="none"/><path d="M225.0156 19.4688 L227.125 19.1875 Q227.4844 20.9688 228.3594 21.7656 Q229.2344 22.5625 230.4844 22.5625 Q231.9688 22.5625 232.9922 21.5312 Q234.0156 20.5 234.0156 18.9688 Q234.0156 17.5156 233.0703 16.5703 Q232.125 15.625 230.6562 15.625 Q230.0625 15.625 229.1719 15.8594 L229.4062 14.0156 Q229.6094 14.0312 229.75 14.0312 Q231.0938 14.0312 232.1719 13.3281 Q233.25 12.625 233.25 11.1719 Q233.25 10 232.4609 9.2422 Q231.6719 8.4844 230.4375 8.4844 Q229.2031 8.4844 228.3828 9.2578 Q227.5625 10.0312 227.3281 11.5781 L225.2188 11.2031 Q225.6094 9.0781 226.9766 7.9141 Q228.3438 6.75 230.3906 6.75 Q231.7969 6.75 232.9766 7.3516 Q234.1562 7.9531 234.7891 9 Q235.4219 10.0469 235.4219 11.2188 Q235.4219 12.3281 234.8203 13.2422 Q234.2188 14.1562 233.0469 14.6875 Q234.5781 15.0469 235.4219 16.1562 Q236.2656 17.2656 236.2656 18.9219 Q236.2656 21.1719 234.625 22.7422 Q232.9844 24.3125 230.4688 24.3125 Q228.2031 24.3125 226.7109 22.9609 Q225.2188 21.6094 225.0156 19.4688 Z" stroke="none"/><path d="M311.7656 24 L311.7656 19.8906 L304.3125 19.8906 L304.3125 17.9531 L312.1406 6.8125 L313.875 6.8125 L313.875 17.9531 L316.1875 17.9531 L316.1875 19.8906 L313.875 19.8906 L313.875 24 L311.7656 24 ZM311.7656 17.9531 L311.7656 10.2031 L306.375 17.9531 L311.7656 17.9531 Z" stroke="none"/><path d="M385 19.5 L387.2188 19.3125 Q387.4531 20.9219 388.3516 21.7422 Q389.25 22.5625 390.5156 22.5625 Q392.0469 22.5625 393.1016 21.4141 Q394.1562 20.2656 394.1562 18.3594 Q394.1562 16.5625 393.1406 15.5156 Q392.125 14.4688 390.4844 14.4688 Q389.4688 14.4688 388.6484 14.9297 Q387.8281 15.3906 387.3594 16.1406 L385.375 15.875 L387.0312 7.0469 L395.5781 7.0469 L395.5781 9.0625 L388.7188 9.0625 L387.7969 13.6875 Q389.3438 12.6094 391.0469 12.6094 Q393.2969 12.6094 394.8438 14.1641 Q396.3906 15.7188 396.3906 18.1719 Q396.3906 20.5 395.0312 22.2031 Q393.375 24.2969 390.5156 24.2969 Q388.1719 24.2969 386.6875 22.9844 Q385.2031 21.6719 385 19.5 Z" stroke="none"/><path d="M475.9375 11.0312 L473.8438 11.1875 Q473.5625 9.9531 473.0469 9.3906 Q472.1875 8.4844 470.9375 8.4844 Q469.9375 8.4844 469.1719 9.0469 Q468.1719 9.7656 467.6016 11.1641 Q467.0312 12.5625 467 15.1406 Q467.7656 13.9844 468.8672 13.4219 Q469.9688 12.8594 471.1719 12.8594 Q473.2812 12.8594 474.7656 14.4062 Q476.25 15.9531 476.25 18.4219 Q476.25 20.0312 475.5547 21.4219 Q474.8594 22.8125 473.6406 23.5547 Q472.4219 24.2969 470.875 24.2969 Q468.2344 24.2969 466.5703 22.3516 Q464.9062 20.4062 464.9062 15.9531 Q464.9062 10.9844 466.75 8.7188 Q468.3438 6.75 471.0625 6.75 Q473.0938 6.75 474.3906 7.8828 Q475.6875 9.0156 475.9375 11.0312 ZM467.3281 18.4375 Q467.3281 19.5156 467.7891 20.5156 Q468.25 21.5156 469.0859 22.0391 Q469.9219 22.5625 470.8281 22.5625 Q472.1719 22.5625 473.1328 21.4844 Q474.0938 20.4062 474.0938 18.5469 Q474.0938 16.7656 473.1406 15.7422 Q472.1875 14.7188 470.75 14.7188 Q469.3281 14.7188 468.3281 15.7422 Q467.3281 16.7656 467.3281 18.4375 Z" stroke="none"/><path d="M545.1406 9.0625 L545.1406 7.0469 L556.2656 7.0469 L556.2656 8.6875 Q554.625 10.4219 553.0078 13.3203 Q551.3906 16.2188 550.5156 19.2812 Q549.8906 21.4375 549.7031 24 L547.5469 24 Q547.5781 21.9688 548.3359 19.1016 Q549.0938 16.2344 550.5234 13.5625 Q551.9531 10.8906 553.5469 9.0625 L545.1406 9.0625 Z" stroke="none"/></g><g fill="rgb(30,144,255)" font-size="24px" font-family="'Arial'" stroke="rgb(30,144,255)"><circle r="20" clip-path="url(#clipPath1)" cx="54" cy="54" stroke="none"/><circle fill="none" r="20" clip-path="url(#clipPath1)" cx="54" cy="54" stroke="black"/><path fill="black" d="M34.9531 65 L43.4844 42.8125 L46.6406 42.8125 L55.7188 65 L52.375 65 L49.7812 58.2812 L40.5156 58.2812 L38.0781 65 L34.9531 65 ZM41.3594 55.8906 L48.875 55.8906 L46.5625 49.7344 Q45.5 46.9375 44.9844 45.1406 Q44.5625 47.2812 43.7969 49.375 L41.3594 55.8906 ZM67.2236 65 L64.5049 65 L64.5049 47.6406 Q63.5205 48.5781 61.9189 49.5156 Q60.3174 50.4531 59.0518 50.9219 L59.0518 48.2812 Q61.333 47.2188 63.0439 45.6875 Q64.7549 44.1562 65.4736 42.7188 L67.2236 42.7188 L67.2236 65 Z" clip-path="url(#clipPath2)" stroke="none"/><circle fill="rgb(144,238,144)" r="20" clip-path="url(#clipPath3)" cx="534" cy="534" stroke="none"/><circle fill="none" r="20" clip-path="url(#clipPath3)" cx="534" cy="534" stroke="black"/><path fill="black" d="M519.125 544 L519.125 523.2344 L526.9062 523.2344 Q529.2969 523.2344 530.7344 523.8672 Q532.1719 524.5 532.9844 525.8125 Q533.7969 527.125 533.7969 528.5469 Q533.7969 529.875 533.0703 531.0547 Q532.3438 532.2344 530.8906 532.9531 Q532.7812 533.5 533.7891 534.8359 Q534.7969 536.1719 534.7969 537.9844 Q534.7969 539.4375 534.1797 540.6953 Q533.5625 541.9531 532.6562 542.6328 Q531.75 543.3125 530.3828 543.6562 Q529.0156 544 527.0469 544 L519.125 544 ZM521.875 531.9688 L526.3594 531.9688 Q528.1875 531.9688 528.9844 531.7188 Q530.0312 531.4062 530.5625 530.6875 Q531.0938 529.9688 531.0938 528.875 Q531.0938 527.8438 530.5938 527.0547 Q530.0938 526.2656 529.1719 525.9766 Q528.25 525.6875 526.0156 525.6875 L521.875 525.6875 L521.875 531.9688 ZM521.875 541.5469 L527.0469 541.5469 Q528.375 541.5469 528.9062 541.4531 Q529.8594 541.2812 530.4922 540.8828 Q531.125 540.4844 531.5391 539.7266 Q531.9531 538.9688 531.9531 537.9844 Q531.9531 536.8281 531.3594 535.9688 Q530.7656 535.1094 529.7109 534.7578 Q528.6562 534.4062 526.6719 534.4062 L521.875 534.4062 L521.875 541.5469 ZM547.1396 544 L544.5928 544 L544.5928 527.7656 Q543.6709 528.6406 542.1787 529.5156 Q540.6865 530.3906 539.499 530.8281 L539.499 528.3594 Q541.6396 527.3594 543.2412 525.9297 Q544.8428 524.5 545.499 523.1562 L547.1396 523.1562 L547.1396 544 Z" clip-path="url(#clipPath4)" stroke="none"/><circle r="20" clip-path="url(#clipPath5)" cx="150" cy="70" stroke="none"/><circle fill="none" r="20" clip-path="url(#clipPath5)" cx="150" cy="70" stroke="black"/><path fill="black" d="M130.9531 81 L139.4844 58.8125 L142.6406 58.8125 L151.7188 81 L148.375 81 L145.7812 74.2812 L136.5156 74.2812 L134.0781 81 L130.9531 81 ZM137.3594 71.8906 L144.875 71.8906 L142.5625 65.7344 Q141.5 62.9375 140.9844 61.1406 Q140.5625 63.2812 139.7969 65.375 L137.3594 71.8906 ZM167.2861 78.375 L167.2861 81 L152.6143 81 Q152.583 80.0156 152.9268 79.1094 Q153.4893 77.6094 154.7236 76.1562 Q155.958 74.7031 158.2861 72.7969 Q161.9111 69.8281 163.1846 68.0938 Q164.458 66.3594 164.458 64.8125 Q164.458 63.2031 163.2939 62.0859 Q162.1299 60.9688 160.2705 60.9688 Q158.3018 60.9688 157.1221 62.1484 Q155.9424 63.3281 155.9268 65.4219 L153.1299 65.1406 Q153.4111 62 155.2939 60.3594 Q157.1768 58.7188 160.333 58.7188 Q163.5361 58.7188 165.3955 60.4922 Q167.2549 62.2656 167.2549 64.875 Q167.2549 66.2188 166.708 67.5 Q166.1611 68.7812 164.8955 70.2031 Q163.6299 71.625 160.6924 74.1094 Q158.2393 76.1719 157.5439 76.9062 Q156.8486 77.6406 156.3955 78.375 L167.2861 78.375 Z" clip-path="url(#clipPath6)" stroke="none"/><circle fill="rgb(144,238,144)" r="20" clip-path="url(#clipPath7)" cx="470" cy="550" stroke="none"/><circle fill="none" r="20" clip-path="url(#clipPath7)" cx="470" cy="550" stroke="black"/><path fill="black" d="M455.125 560 L455.125 539.2344 L462.9062 539.2344 Q465.2969 539.2344 466.7344 539.8672 Q468.1719 540.5 468.9844 541.8125 Q469.7969 543.125 469.7969 544.5469 Q469.7969 545.875 469.0703 547.0547 Q468.3438 548.2344 466.8906 548.9531 Q468.7812 549.5 469.7891 550.8359 Q470.7969 552.1719 470.7969 553.9844 Q470.7969 555.4375 470.1797 556.6953 Q469.5625 557.9531 468.6562 558.6328 Q467.75 559.3125 466.3828 559.6562 Q465.0156 560 463.0469 560 L455.125 560 ZM457.875 547.9688 L462.3594 547.9688 Q464.1875 547.9688 464.9844 547.7188 Q466.0312 547.4062 466.5625 546.6875 Q467.0938 545.9688 467.0938 544.875 Q467.0938 543.8438 466.5938 543.0547 Q466.0938 542.2656 465.1719 541.9766 Q464.25 541.6875 462.0156 541.6875 L457.875 541.6875 L457.875 547.9688 ZM457.875 557.5469 L463.0469 557.5469 Q464.375 557.5469 464.9062 557.4531 Q465.8594 557.2812 466.4922 556.8828 Q467.125 556.4844 467.5391 555.7266 Q467.9531 554.9688 467.9531 553.9844 Q467.9531 552.8281 467.3594 551.9688 Q466.7656 551.1094 465.7109 550.7578 Q464.6562 550.4062 462.6719 550.4062 L457.875 550.4062 L457.875 557.5469 ZM486.9365 557.5469 L486.9365 560 L473.2178 560 Q473.1865 559.0781 473.5146 558.2344 Q474.0459 556.8281 475.1943 555.4688 Q476.3428 554.1094 478.5303 552.3281 Q481.9209 549.5469 483.1084 547.9297 Q484.2959 546.3125 484.2959 544.8594 Q484.2959 543.3438 483.21 542.3047 Q482.124 541.2656 480.3896 541.2656 Q478.5459 541.2656 477.4443 542.3672 Q476.3428 543.4688 476.3271 545.4219 L473.7021 545.1562 Q473.9678 542.2344 475.7256 540.6953 Q477.4834 539.1562 480.4365 539.1562 Q483.4365 539.1562 485.1787 540.8125 Q486.9209 542.4688 486.9209 544.9219 Q486.9209 546.1719 486.4053 547.375 Q485.8896 548.5781 484.71 549.9062 Q483.5303 551.2344 480.7803 553.5625 Q478.4834 555.4844 477.835 556.1719 Q477.1865 556.8594 476.7646 557.5469 L486.9365 557.5469 Z" clip-path="url(#clipPath8)" stroke="none"/><circle r="20" clip-path="url(#clipPath9)" cx="230" cy="70" stroke="none"/><circle fill="none" r="20" clip-path="url(#clipPath9)" cx="230" cy="70" stroke="black"/><path fill="black" d="M210.9531 81 L219.4844 58.8125 L222.6406 58.8125 L231.7188 81 L228.375 81 L225.7812 74.2812 L216.5156 74.2812 L214.0781 81 L210.9531 81 ZM217.3594 71.8906 L224.875 71.8906 L222.5625 65.7344 Q221.5 62.9375 220.9844 61.1406 Q220.5625 63.2812 219.7969 65.375 L217.3594 71.8906 ZM232.9736 75.1406 L235.708 74.7812 Q236.1768 77.0938 237.3018 78.1172 Q238.4268 79.1406 240.0518 79.1406 Q241.9736 79.1406 243.2939 77.8047 Q244.6143 76.4688 244.6143 74.5 Q244.6143 72.625 243.3877 71.4062 Q242.1611 70.1875 240.2705 70.1875 Q239.5049 70.1875 238.3486 70.5 L238.6611 68.1094 Q238.9268 68.1406 239.0986 68.1406 Q240.833 68.1406 242.2236 67.2266 Q243.6143 66.3125 243.6143 64.4219 Q243.6143 62.9219 242.6064 61.9375 Q241.5986 60.9531 239.9893 60.9531 Q238.3955 60.9531 237.3408 61.9531 Q236.2861 62.9531 235.9736 64.9531 L233.2549 64.4688 Q233.7549 61.7344 235.5205 60.2266 Q237.2861 58.7188 239.9268 58.7188 Q241.7393 58.7188 243.2705 59.5 Q244.8018 60.2812 245.6143 61.625 Q246.4268 62.9688 246.4268 64.4844 Q246.4268 65.9219 245.6533 67.1016 Q244.8799 68.2812 243.3643 68.9844 Q245.333 69.4375 246.4189 70.8672 Q247.5049 72.2969 247.5049 74.4531 Q247.5049 77.3594 245.3877 79.375 Q243.2705 81.3906 240.0361 81.3906 Q237.1143 81.3906 235.1846 79.6484 Q233.2549 77.9062 232.9736 75.1406 Z" clip-path="url(#clipPath10)" stroke="none"/><circle fill="rgb(144,238,144)" r="20" clip-path="url(#clipPath11)" cx="470" cy="470" stroke="none"/><circle fill="none" r="20" clip-path="url(#clipPath11)" cx="470" cy="470" stroke="black"/><path fill="black" d="M455.125 480 L455.125 459.2344 L462.9062 459.2344 Q465.2969 459.2344 466.7344 459.8672 Q468.1719 460.5 468.9844 461.8125 Q469.7969 463.125 469.7969 464.5469 Q469.7969 465.875 469.0703 467.0547 Q468.3438 468.2344 466.8906 468.9531 Q468.7812 469.5 469.7891 470.8359 Q470.7969 472.1719 470.7969 473.9844 Q470.7969 475.4375 470.1797 476.6953 Q469.5625 477.9531 468.6562 478.6328 Q467.75 479.3125 466.3828 479.6562 Q465.0156 480 463.0469 480 L455.125 480 ZM457.875 467.9688 L462.3594 467.9688 Q464.1875 467.9688 464.9844 467.7188 Q466.0312 467.4062 466.5625 466.6875 Q467.0938 465.9688 467.0938 464.875 Q467.0938 463.8438 466.5938 463.0547 Q466.0938 462.2656 465.1719 461.9766 Q464.25 461.6875 462.0156 461.6875 L457.875 461.6875 L457.875 467.9688 ZM457.875 477.5469 L463.0469 477.5469 Q464.375 477.5469 464.9062 477.4531 Q465.8594 477.2812 466.4922 476.8828 Q467.125 476.4844 467.5391 475.7266 Q467.9531 474.9688 467.9531 473.9844 Q467.9531 472.8281 467.3594 471.9688 Q466.7656 471.1094 465.7109 470.7578 Q464.6562 470.4062 462.6719 470.4062 L457.875 470.4062 L457.875 477.5469 ZM473.5615 474.5156 L476.1084 474.1875 Q476.5459 476.3438 477.6006 477.3047 Q478.6553 478.2656 480.1709 478.2656 Q481.9678 478.2656 483.21 477.0156 Q484.4521 475.7656 484.4521 473.9219 Q484.4521 472.1719 483.3037 471.0312 Q482.1553 469.8906 480.3896 469.8906 Q479.6709 469.8906 478.5928 470.1719 L478.874 467.9375 Q479.124 467.9688 479.2803 467.9688 Q480.9053 467.9688 482.21 467.1172 Q483.5146 466.2656 483.5146 464.5 Q483.5146 463.0938 482.5693 462.1719 Q481.624 461.25 480.124 461.25 Q478.624 461.25 477.6396 462.1875 Q476.6553 463.125 476.3584 464.9844 L473.8115 464.5312 Q474.2803 461.9688 475.9365 460.5625 Q477.5928 459.1562 480.0615 459.1562 Q481.7646 459.1562 483.1943 459.8828 Q484.624 460.6094 485.3818 461.875 Q486.1396 463.1406 486.1396 464.5469 Q486.1396 465.8906 485.4131 467 Q484.6865 468.1094 483.2803 468.75 Q485.1084 469.1875 486.1318 470.5234 Q487.1553 471.8594 487.1553 473.875 Q487.1553 476.5938 485.1709 478.4844 Q483.1865 480.375 480.1553 480.375 Q477.4209 480.375 475.6162 478.7422 Q473.8115 477.1094 473.5615 474.5156 Z" clip-path="url(#clipPath12)" stroke="none"/><circle r="20" clip-path="url(#clipPath13)" cx="310" cy="70" stroke="none"/><circle fill="none" r="20" clip-path="url(#clipPath13)" cx="310" cy="70" stroke="black"/><path fill="black" d="M290.9531 81 L299.4844 58.8125 L302.6406 58.8125 L311.7188 81 L308.375 81 L305.7812 74.2812 L296.5156 74.2812 L294.0781 81 L290.9531 81 ZM297.3594 71.8906 L304.875 71.8906 L302.5625 65.7344 Q301.5 62.9375 300.9844 61.1406 Q300.5625 63.2812 299.7969 65.375 L297.3594 71.8906 ZM321.6924 81 L321.6924 75.6875 L312.0674 75.6875 L312.0674 73.1875 L322.1924 58.8125 L324.4268 58.8125 L324.4268 73.1875 L327.4268 73.1875 L327.4268 75.6875 L324.4268 75.6875 L324.4268 81 L321.6924 81 ZM321.6924 73.1875 L321.6924 63.1875 L314.7549 73.1875 L321.6924 73.1875 Z" clip-path="url(#clipPath14)" stroke="none"/><circle fill="rgb(144,238,144)" r="20" clip-path="url(#clipPath15)" cx="390" cy="470" stroke="none"/><circle fill="none" r="20" clip-path="url(#clipPath15)" cx="390" cy="470" stroke="black"/><path fill="black" d="M375.125 480 L375.125 459.2344 L382.9062 459.2344 Q385.2969 459.2344 386.7344 459.8672 Q388.1719 460.5 388.9844 461.8125 Q389.7969 463.125 389.7969 464.5469 Q389.7969 465.875 389.0703 467.0547 Q388.3438 468.2344 386.8906 468.9531 Q388.7812 469.5 389.7891 470.8359 Q390.7969 472.1719 390.7969 473.9844 Q390.7969 475.4375 390.1797 476.6953 Q389.5625 477.9531 388.6562 478.6328 Q387.75 479.3125 386.3828 479.6562 Q385.0156 480 383.0469 480 L375.125 480 ZM377.875 467.9688 L382.3594 467.9688 Q384.1875 467.9688 384.9844 467.7188 Q386.0312 467.4062 386.5625 466.6875 Q387.0938 465.9688 387.0938 464.875 Q387.0938 463.8438 386.5938 463.0547 Q386.0938 462.2656 385.1719 461.9766 Q384.25 461.6875 382.0156 461.6875 L377.875 461.6875 L377.875 467.9688 ZM377.875 477.5469 L383.0469 477.5469 Q384.375 477.5469 384.9062 477.4531 Q385.8594 477.2812 386.4922 476.8828 Q387.125 476.4844 387.5391 475.7266 Q387.9531 474.9688 387.9531 473.9844 Q387.9531 472.8281 387.3594 471.9688 Q386.7656 471.1094 385.7109 470.7578 Q384.6562 470.4062 382.6719 470.4062 L377.875 470.4062 L377.875 477.5469 ZM401.7178 480 L401.7178 475.0312 L392.7178 475.0312 L392.7178 472.6875 L402.1865 459.2344 L404.2646 459.2344 L404.2646 472.6875 L407.0771 472.6875 L407.0771 475.0312 L404.2646 475.0312 L404.2646 480 L401.7178 480 ZM401.7178 472.6875 L401.7178 463.3281 L395.2178 472.6875 L401.7178 472.6875 Z" clip-path="url(#clipPath16)" stroke="none"/><circle r="20" clip-path="url(#clipPath17)" cx="310" cy="150" stroke="none"/><circle fill="none" r="20" clip-path="url(#clipPath17)" cx="310" cy="150" stroke="black"/><path fill="black" d="M290.9531 161 L299.4844 138.8125 L302.6406 138.8125 L311.7188 161 L308.375 161 L305.7812 154.2812 L296.5156 154.2812 L294.0781 161 L290.9531 161 ZM297.3594 151.8906 L304.875 151.8906 L302.5625 145.7344 Q301.5 142.9375 300.9844 141.1406 Q300.5625 143.2812 299.7969 145.375 L297.3594 151.8906 ZM312.958 155.1875 L315.8174 154.9375 Q316.1455 157.0312 317.3018 158.0859 Q318.458 159.1406 320.0986 159.1406 Q322.0674 159.1406 323.4268 157.6562 Q324.7861 156.1719 324.7861 153.7188 Q324.7861 151.3906 323.4736 150.0391 Q322.1611 148.6875 320.0518 148.6875 Q318.7236 148.6875 317.6689 149.2891 Q316.6143 149.8906 316.0049 150.8438 L313.4424 150.5156 L315.5986 139.1094 L326.6299 139.1094 L326.6299 141.7188 L317.7705 141.7188 L316.583 147.6719 Q318.583 146.2812 320.7705 146.2812 Q323.6768 146.2812 325.6768 148.2969 Q327.6768 150.3125 327.6768 153.4844 Q327.6768 156.4844 325.9268 158.6875 Q323.7861 161.375 320.0986 161.375 Q317.0674 161.375 315.1533 159.6797 Q313.2393 157.9844 312.958 155.1875 Z" clip-path="url(#clipPath18)" stroke="none"/><circle fill="rgb(144,238,144)" r="20" clip-path="url(#clipPath19)" cx="310" cy="470" stroke="none"/><circle fill="none" r="20" clip-path="url(#clipPath19)" cx="310" cy="470" stroke="black"/><path fill="black" d="M295.125 480 L295.125 459.2344 L302.9062 459.2344 Q305.2969 459.2344 306.7344 459.8672 Q308.1719 460.5 308.9844 461.8125 Q309.7969 463.125 309.7969 464.5469 Q309.7969 465.875 309.0703 467.0547 Q308.3438 468.2344 306.8906 468.9531 Q308.7812 469.5 309.7891 470.8359 Q310.7969 472.1719 310.7969 473.9844 Q310.7969 475.4375 310.1797 476.6953 Q309.5625 477.9531 308.6562 478.6328 Q307.75 479.3125 306.3828 479.6562 Q305.0156 480 303.0469 480 L295.125 480 ZM297.875 467.9688 L302.3594 467.9688 Q304.1875 467.9688 304.9844 467.7188 Q306.0312 467.4062 306.5625 466.6875 Q307.0938 465.9688 307.0938 464.875 Q307.0938 463.8438 306.5938 463.0547 Q306.0938 462.2656 305.1719 461.9766 Q304.25 461.6875 302.0156 461.6875 L297.875 461.6875 L297.875 467.9688 ZM297.875 477.5469 L303.0469 477.5469 Q304.375 477.5469 304.9062 477.4531 Q305.8594 477.2812 306.4922 476.8828 Q307.125 476.4844 307.5391 475.7266 Q307.9531 474.9688 307.9531 473.9844 Q307.9531 472.8281 307.3594 471.9688 Q306.7656 471.1094 305.7109 470.7578 Q304.6562 470.4062 302.6719 470.4062 L297.875 470.4062 L297.875 477.5469 ZM313.5459 474.5625 L316.2178 474.3281 Q316.5146 476.2969 317.6006 477.2812 Q318.6865 478.2656 320.2178 478.2656 Q322.0615 478.2656 323.335 476.875 Q324.6084 475.4844 324.6084 473.1875 Q324.6084 471.0156 323.3818 469.75 Q322.1553 468.4844 320.1709 468.4844 Q318.9365 468.4844 317.9443 469.0469 Q316.9521 469.6094 316.3896 470.5 L313.999 470.1875 L316.0146 459.5312 L326.3271 459.5312 L326.3271 461.9531 L318.0459 461.9531 L316.9365 467.5312 Q318.7959 466.2344 320.8584 466.2344 Q323.5771 466.2344 325.4443 468.1172 Q327.3115 470 327.3115 472.9688 Q327.3115 475.7812 325.6709 477.8281 Q323.6709 480.3594 320.2178 480.3594 Q317.3896 480.3594 315.5928 478.7734 Q313.7959 477.1875 313.5459 474.5625 Z" clip-path="url(#clipPath20)" stroke="none"/><circle r="20" clip-path="url(#clipPath21)" cx="390" cy="150" stroke="none"/><circle fill="none" r="20" clip-path="url(#clipPath21)" cx="390" cy="150" stroke="black"/><path fill="black" d="M370.9531 161 L379.4844 138.8125 L382.6406 138.8125 L391.7188 161 L388.375 161 L385.7812 154.2812 L376.5156 154.2812 L374.0781 161 L370.9531 161 ZM377.3594 151.8906 L384.875 151.8906 L382.5625 145.7344 Q381.5 142.9375 380.9844 141.1406 Q380.5625 143.2812 379.7969 145.375 L377.3594 151.8906 ZM407.0986 144.25 L404.3955 144.4531 Q404.0361 142.8438 403.3643 142.125 Q402.2549 140.9531 400.6455 140.9531 Q399.333 140.9531 398.3486 141.6875 Q397.0674 142.625 396.3252 144.4219 Q395.583 146.2188 395.5518 149.5625 Q396.5361 148.0625 397.958 147.3359 Q399.3799 146.6094 400.9424 146.6094 Q403.6611 146.6094 405.5752 148.6094 Q407.4893 150.6094 407.4893 153.7969 Q407.4893 155.8906 406.5908 157.6797 Q405.6924 159.4688 404.1221 160.4219 Q402.5518 161.375 400.5518 161.375 Q397.1455 161.375 394.9971 158.875 Q392.8486 156.375 392.8486 150.6094 Q392.8486 144.1875 395.2236 141.2656 Q397.2861 138.7188 400.8018 138.7188 Q403.4268 138.7188 405.0986 140.1875 Q406.7705 141.6562 407.0986 144.25 ZM395.9736 153.8125 Q395.9736 155.2188 396.5752 156.5078 Q397.1768 157.7969 398.2471 158.4688 Q399.3174 159.1406 400.5049 159.1406 Q402.2236 159.1406 403.4658 157.75 Q404.708 156.3594 404.708 153.9688 Q404.708 151.6562 403.4814 150.3359 Q402.2549 149.0156 400.3955 149.0156 Q398.5518 149.0156 397.2627 150.3359 Q395.9736 151.6562 395.9736 153.8125 Z" clip-path="url(#clipPath22)" stroke="none"/><circle fill="rgb(144,238,144)" r="20" clip-path="url(#clipPath23)" cx="230" cy="470" stroke="none"/><circle fill="none" r="20" clip-path="url(#clipPath23)" cx="230" cy="470" stroke="black"/><path fill="black" d="M215.125 480 L215.125 459.2344 L222.9062 459.2344 Q225.2969 459.2344 226.7344 459.8672 Q228.1719 460.5 228.9844 461.8125 Q229.7969 463.125 229.7969 464.5469 Q229.7969 465.875 229.0703 467.0547 Q228.3438 468.2344 226.8906 468.9531 Q228.7812 469.5 229.7891 470.8359 Q230.7969 472.1719 230.7969 473.9844 Q230.7969 475.4375 230.1797 476.6953 Q229.5625 477.9531 228.6562 478.6328 Q227.75 479.3125 226.3828 479.6562 Q225.0156 480 223.0469 480 L215.125 480 ZM217.875 467.9688 L222.3594 467.9688 Q224.1875 467.9688 224.9844 467.7188 Q226.0312 467.4062 226.5625 466.6875 Q227.0938 465.9688 227.0938 464.875 Q227.0938 463.8438 226.5938 463.0547 Q226.0938 462.2656 225.1719 461.9766 Q224.25 461.6875 222.0156 461.6875 L217.875 461.6875 L217.875 467.9688 ZM217.875 477.5469 L223.0469 477.5469 Q224.375 477.5469 224.9062 477.4531 Q225.8594 477.2812 226.4922 476.8828 Q227.125 476.4844 227.5391 475.7266 Q227.9531 474.9688 227.9531 473.9844 Q227.9531 472.8281 227.3594 471.9688 Q226.7656 471.1094 225.7109 470.7578 Q224.6562 470.4062 222.6719 470.4062 L217.875 470.4062 L217.875 477.5469 ZM246.7646 464.3281 L244.2334 464.5156 Q243.9053 463.0156 243.2803 462.3438 Q242.2334 461.25 240.7334 461.25 Q239.5146 461.25 238.5928 461.9375 Q237.3896 462.8125 236.6943 464.4922 Q235.999 466.1719 235.9678 469.2969 Q236.8896 467.8906 238.2178 467.2109 Q239.5459 466.5312 241.0146 466.5312 Q243.5615 466.5312 245.3506 468.4062 Q247.1396 470.2812 247.1396 473.2656 Q247.1396 475.2188 246.2959 476.8906 Q245.4521 478.5625 243.9834 479.4609 Q242.5146 480.3594 240.6396 480.3594 Q237.4521 480.3594 235.4443 478.0156 Q233.4365 475.6719 233.4365 470.2812 Q233.4365 464.2656 235.6553 461.5312 Q237.5928 459.1562 240.874 459.1562 Q243.3271 459.1562 244.8975 460.5312 Q246.4678 461.9062 246.7646 464.3281 ZM236.3584 473.2812 Q236.3584 474.5938 236.9209 475.7969 Q237.4834 477 238.4912 477.6328 Q239.499 478.2656 240.5928 478.2656 Q242.2178 478.2656 243.374 476.9609 Q244.5303 475.6562 244.5303 473.4219 Q244.5303 471.2656 243.3818 470.0234 Q242.2334 468.7812 240.499 468.7812 Q238.7646 468.7812 237.5615 470.0234 Q236.3584 471.2656 236.3584 473.2812 Z" clip-path="url(#clipPath24)" stroke="none"/><circle r="20" clip-path="url(#clipPath25)" cx="470" cy="150" stroke="none"/><circle fill="none" r="20" clip-path="url(#clipPath25)" cx="470" cy="150" stroke="black"/><path fill="black" d="M450.9531 161 L459.4844 138.8125 L462.6406 138.8125 L471.7188 161 L468.375 161 L465.7812 154.2812 L456.5156 154.2812 L454.0781 161 L450.9531 161 ZM457.3594 151.8906 L464.875 151.8906 L462.5625 145.7344 Q461.5 142.9375 460.9844 141.1406 Q460.5625 143.2812 459.7969 145.375 L457.3594 151.8906 ZM473.1455 141.7188 L473.1455 139.0938 L487.5049 139.0938 L487.5049 141.2188 Q485.3955 143.4688 483.3096 147.2109 Q481.2236 150.9531 480.0986 154.9062 Q479.2705 157.6875 479.0518 161 L476.2549 161 Q476.2861 158.375 477.2705 154.6719 Q478.2549 150.9688 480.0986 147.5234 Q481.9424 144.0781 484.0205 141.7188 L473.1455 141.7188 Z" clip-path="url(#clipPath26)" stroke="none"/><circle fill="rgb(144,238,144)" r="20" clip-path="url(#clipPath27)" cx="150" cy="470" stroke="none"/><circle fill="none" r="20" clip-path="url(#clipPath27)" cx="150" cy="470" stroke="black"/><path fill="black" d="M135.125 480 L135.125 459.2344 L142.9062 459.2344 Q145.2969 459.2344 146.7344 459.8672 Q148.1719 460.5 148.9844 461.8125 Q149.7969 463.125 149.7969 464.5469 Q149.7969 465.875 149.0703 467.0547 Q148.3438 468.2344 146.8906 468.9531 Q148.7812 469.5 149.7891 470.8359 Q150.7969 472.1719 150.7969 473.9844 Q150.7969 475.4375 150.1797 476.6953 Q149.5625 477.9531 148.6562 478.6328 Q147.75 479.3125 146.3828 479.6562 Q145.0156 480 143.0469 480 L135.125 480 ZM137.875 467.9688 L142.3594 467.9688 Q144.1875 467.9688 144.9844 467.7188 Q146.0312 467.4062 146.5625 466.6875 Q147.0938 465.9688 147.0938 464.875 Q147.0938 463.8438 146.5938 463.0547 Q146.0938 462.2656 145.1719 461.9766 Q144.25 461.6875 142.0156 461.6875 L137.875 461.6875 L137.875 467.9688 ZM137.875 477.5469 L143.0469 477.5469 Q144.375 477.5469 144.9062 477.4531 Q145.8594 477.2812 146.4922 476.8828 Q147.125 476.4844 147.5391 475.7266 Q147.9531 474.9688 147.9531 473.9844 Q147.9531 472.8281 147.3594 471.9688 Q146.7656 471.1094 145.7109 470.7578 Q144.6562 470.4062 142.6719 470.4062 L137.875 470.4062 L137.875 477.5469 ZM153.7178 461.9531 L153.7178 459.5156 L167.1553 459.5156 L167.1553 461.5 Q165.1709 463.6094 163.2256 467.1016 Q161.2803 470.5938 160.2178 474.2969 Q159.4521 476.9062 159.2334 480 L156.624 480 Q156.6553 477.5469 157.5771 474.0781 Q158.499 470.6094 160.2178 467.3906 Q161.9365 464.1719 163.8896 461.9531 L153.7178 461.9531 Z" clip-path="url(#clipPath28)" stroke="none"/><circle r="20" clip-path="url(#clipPath29)" cx="550" cy="150" stroke="none"/><circle fill="none" r="20" clip-path="url(#clipPath29)" cx="550" cy="150" stroke="black"/><path fill="black" d="M530.9531 161 L539.4844 138.8125 L542.6406 138.8125 L551.7188 161 L548.375 161 L545.7812 154.2812 L536.5156 154.2812 L534.0781 161 L530.9531 161 ZM537.3594 151.8906 L544.875 151.8906 L542.5625 145.7344 Q541.5 142.9375 540.9844 141.1406 Q540.5625 143.2812 539.7969 145.375 L537.3594 151.8906 ZM557.1611 148.9688 Q555.458 148.3438 554.6455 147.1953 Q553.833 146.0469 553.833 144.4375 Q553.833 142.0156 555.5674 140.3672 Q557.3018 138.7188 560.1924 138.7188 Q563.0986 138.7188 564.8721 140.4062 Q566.6455 142.0938 566.6455 144.5156 Q566.6455 146.0625 565.833 147.2031 Q565.0205 148.3438 563.3799 148.9688 Q565.4268 149.625 566.4893 151.1094 Q567.5518 152.5938 567.5518 154.6562 Q567.5518 157.5 565.5439 159.4375 Q563.5361 161.375 560.2393 161.375 Q556.958 161.375 554.9424 159.4297 Q552.9268 157.4844 552.9268 154.5781 Q552.9268 152.4219 554.0283 150.9609 Q555.1299 149.5 557.1611 148.9688 ZM556.6143 144.3438 Q556.6143 145.9219 557.6299 146.9219 Q558.6455 147.9219 560.2549 147.9219 Q561.833 147.9219 562.8408 146.9297 Q563.8486 145.9375 563.8486 144.5 Q563.8486 143 562.8096 141.9766 Q561.7705 140.9531 560.2236 140.9531 Q558.6768 140.9531 557.6455 141.9531 Q556.6143 142.9531 556.6143 144.3438 ZM555.7393 154.5938 Q555.7393 155.7656 556.2861 156.8516 Q556.833 157.9375 557.9268 158.5391 Q559.0205 159.1406 560.2705 159.1406 Q562.2236 159.1406 563.4971 157.8828 Q564.7705 156.625 564.7705 154.6875 Q564.7705 152.7188 563.458 151.4297 Q562.1455 150.1406 560.1768 150.1406 Q558.2549 150.1406 556.9971 151.4141 Q555.7393 152.6875 555.7393 154.5938 Z" clip-path="url(#clipPath30)" stroke="none"/><circle fill="rgb(144,238,144)" r="20" clip-path="url(#clipPath31)" cx="70" cy="470" stroke="none"/><circle fill="none" r="20" clip-path="url(#clipPath31)" cx="70" cy="470" stroke="black"/><path fill="black" d="M55.125 480 L55.125 459.2344 L62.9062 459.2344 Q65.2969 459.2344 66.7344 459.8672 Q68.1719 460.5 68.9844 461.8125 Q69.7969 463.125 69.7969 464.5469 Q69.7969 465.875 69.0703 467.0547 Q68.3438 468.2344 66.8906 468.9531 Q68.7812 469.5 69.7891 470.8359 Q70.7969 472.1719 70.7969 473.9844 Q70.7969 475.4375 70.1797 476.6953 Q69.5625 477.9531 68.6562 478.6328 Q67.75 479.3125 66.3828 479.6562 Q65.0156 480 63.0469 480 L55.125 480 ZM57.875 467.9688 L62.3594 467.9688 Q64.1875 467.9688 64.9844 467.7188 Q66.0312 467.4062 66.5625 466.6875 Q67.0938 465.9688 67.0938 464.875 Q67.0938 463.8438 66.5938 463.0547 Q66.0938 462.2656 65.1719 461.9766 Q64.25 461.6875 62.0156 461.6875 L57.875 461.6875 L57.875 467.9688 ZM57.875 477.5469 L63.0469 477.5469 Q64.375 477.5469 64.9062 477.4531 Q65.8594 477.2812 66.4922 476.8828 Q67.125 476.4844 67.5391 475.7266 Q67.9531 474.9688 67.9531 473.9844 Q67.9531 472.8281 67.3594 471.9688 Q66.7656 471.1094 65.7109 470.7578 Q64.6562 470.4062 62.6719 470.4062 L57.875 470.4062 L57.875 477.5469 ZM77.4678 468.75 Q75.8896 468.1562 75.124 467.0859 Q74.3584 466.0156 74.3584 464.5156 Q74.3584 462.25 75.9834 460.7031 Q77.6084 459.1562 80.3115 459.1562 Q83.0303 459.1562 84.6865 460.7344 Q86.3428 462.3125 86.3428 464.5781 Q86.3428 466.0312 85.585 467.0938 Q84.8271 468.1562 83.2959 468.75 Q85.2021 469.3594 86.2021 470.75 Q87.2021 472.1406 87.2021 474.0625 Q87.2021 476.7344 85.3193 478.5469 Q83.4365 480.3594 80.3584 480.3594 Q77.2803 480.3594 75.3975 478.5391 Q73.5146 476.7188 73.5146 474 Q73.5146 471.9688 74.5459 470.6016 Q75.5771 469.2344 77.4678 468.75 ZM76.9521 464.4219 Q76.9521 465.8906 77.9053 466.8281 Q78.8584 467.7656 80.374 467.7656 Q81.8428 467.7656 82.7881 466.8359 Q83.7334 465.9062 83.7334 464.5625 Q83.7334 463.1562 82.7568 462.2031 Q81.7803 461.25 80.3428 461.25 Q78.8896 461.25 77.9209 462.1875 Q76.9521 463.125 76.9521 464.4219 ZM76.1396 474.0156 Q76.1396 475.0938 76.6553 476.1172 Q77.1709 477.1406 78.1943 477.7031 Q79.2178 478.2656 80.3896 478.2656 Q82.2178 478.2656 83.4053 477.0859 Q84.5928 475.9062 84.5928 474.0938 Q84.5928 472.25 83.3662 471.0469 Q82.1396 469.8438 80.2959 469.8438 Q78.499 469.8438 77.3193 471.0312 Q76.1396 472.2188 76.1396 474.0156 Z" clip-path="url(#clipPath32)" stroke="none"/><circle r="20" clip-path="url(#clipPath33)" cx="550" cy="230" stroke="none"/><circle fill="none" r="20" clip-path="url(#clipPath33)" cx="550" cy="230" stroke="black"/><path fill="black" d="M530.9531 241 L539.4844 218.8125 L542.6406 218.8125 L551.7188 241 L548.375 241 L545.7812 234.2812 L536.5156 234.2812 L534.0781 241 L530.9531 241 ZM537.3594 231.8906 L544.875 231.8906 L542.5625 225.7344 Q541.5 222.9375 540.9844 221.1406 Q540.5625 223.2812 539.7969 225.375 L537.3594 231.8906 ZM553.3799 235.875 L555.9893 235.625 Q556.3174 237.4688 557.2627 238.3047 Q558.208 239.1406 559.6768 239.1406 Q560.9268 239.1406 561.8721 238.5625 Q562.8174 237.9844 563.4268 237.0234 Q564.0361 236.0625 564.4424 234.4297 Q564.8486 232.7969 564.8486 231.0938 Q564.8486 230.9219 564.833 230.5625 Q564.0205 231.8594 562.5986 232.6719 Q561.1768 233.4844 559.5361 233.4844 Q556.7705 233.4844 554.8643 231.4844 Q552.958 229.4844 552.958 226.2188 Q552.958 222.8281 554.9502 220.7734 Q556.9424 218.7188 559.9424 218.7188 Q562.0986 218.7188 563.8955 219.8828 Q565.6924 221.0469 566.6221 223.2031 Q567.5518 225.3594 567.5518 229.4531 Q567.5518 233.7031 566.6299 236.2266 Q565.708 238.75 563.8877 240.0625 Q562.0674 241.375 559.6143 241.375 Q557.0049 241.375 555.3564 239.9297 Q553.708 238.4844 553.3799 235.875 ZM564.5205 226.0781 Q564.5205 223.7344 563.2783 222.3516 Q562.0361 220.9688 560.2705 220.9688 Q558.458 220.9688 557.1143 222.4531 Q555.7705 223.9375 555.7705 226.2969 Q555.7705 228.4219 557.0439 229.7422 Q558.3174 231.0625 560.1924 231.0625 Q562.0986 231.0625 563.3096 229.7422 Q564.5205 228.4219 564.5205 226.0781 Z" clip-path="url(#clipPath34)" stroke="none"/><circle fill="rgb(144,238,144)" r="20" clip-path="url(#clipPath35)" cx="70" cy="390" stroke="none"/><circle fill="none" r="20" clip-path="url(#clipPath35)" cx="70" cy="390" stroke="black"/><path fill="black" d="M55.125 400 L55.125 379.2344 L62.9062 379.2344 Q65.2969 379.2344 66.7344 379.8672 Q68.1719 380.5 68.9844 381.8125 Q69.7969 383.125 69.7969 384.5469 Q69.7969 385.875 69.0703 387.0547 Q68.3438 388.2344 66.8906 388.9531 Q68.7812 389.5 69.7891 390.8359 Q70.7969 392.1719 70.7969 393.9844 Q70.7969 395.4375 70.1797 396.6953 Q69.5625 397.9531 68.6562 398.6328 Q67.75 399.3125 66.3828 399.6562 Q65.0156 400 63.0469 400 L55.125 400 ZM57.875 387.9688 L62.3594 387.9688 Q64.1875 387.9688 64.9844 387.7188 Q66.0312 387.4062 66.5625 386.6875 Q67.0938 385.9688 67.0938 384.875 Q67.0938 383.8438 66.5938 383.0547 Q66.0938 382.2656 65.1719 381.9766 Q64.25 381.6875 62.0156 381.6875 L57.875 381.6875 L57.875 387.9688 ZM57.875 397.5469 L63.0469 397.5469 Q64.375 397.5469 64.9062 397.4531 Q65.8594 397.2812 66.4922 396.8828 Q67.125 396.4844 67.5391 395.7266 Q67.9531 394.9688 67.9531 393.9844 Q67.9531 392.8281 67.3594 391.9688 Q66.7656 391.1094 65.7109 390.7578 Q64.6562 390.4062 62.6719 390.4062 L57.875 390.4062 L57.875 397.5469 ZM73.9365 395.2031 L76.374 394.9688 Q76.6865 396.7031 77.5693 397.4844 Q78.4521 398.2656 79.8271 398.2656 Q80.999 398.2656 81.8818 397.7266 Q82.7646 397.1875 83.335 396.2891 Q83.9053 395.3906 84.2803 393.8594 Q84.6553 392.3281 84.6553 390.7344 Q84.6553 390.5625 84.6553 390.2344 Q83.8896 391.4531 82.5615 392.2109 Q81.2334 392.9688 79.6865 392.9688 Q77.1084 392.9688 75.3271 391.0938 Q73.5459 389.2188 73.5459 386.1719 Q73.5459 383 75.4053 381.0781 Q77.2646 379.1562 80.0771 379.1562 Q82.0928 379.1562 83.7725 380.25 Q85.4521 381.3438 86.3271 383.3594 Q87.2021 385.375 87.2021 389.2031 Q87.2021 393.1719 86.335 395.5312 Q85.4678 397.8906 83.7646 399.125 Q82.0615 400.3594 79.7646 400.3594 Q77.3271 400.3594 75.7803 399.0078 Q74.2334 397.6562 73.9365 395.2031 ZM84.3584 386.0312 Q84.3584 383.8438 83.1943 382.5547 Q82.0303 381.2656 80.3896 381.2656 Q78.6865 381.2656 77.4287 382.6562 Q76.1709 384.0469 76.1709 386.25 Q76.1709 388.2344 77.3662 389.4688 Q78.5615 390.7031 80.3115 390.7031 Q82.0928 390.7031 83.2256 389.4688 Q84.3584 388.2344 84.3584 386.0312 Z" clip-path="url(#clipPath36)" stroke="none"/><circle r="20" clip-path="url(#clipPath37)" cx="550" cy="310" stroke="none"/><circle fill="none" r="20" clip-path="url(#clipPath37)" cx="550" cy="310" stroke="black"/><path fill="black" d="M532.9688 317 L538.4688 302.6875 L540.5156 302.6875 L546.375 317 L544.2188 317 L542.5469 312.6562 L536.5625 312.6562 L534.9844 317 L532.9688 317 ZM537.1094 311.125 L541.9531 311.125 L540.4688 307.1562 Q539.7812 305.3438 539.4531 304.1875 Q539.1719 305.5625 538.6719 306.9219 L537.1094 311.125 ZM553.793 317 L552.0273 317 L552.0273 305.7969 Q551.4023 306.4062 550.3711 307.0078 Q549.3398 307.6094 548.5117 307.9219 L548.5117 306.2188 Q549.9961 305.5312 551.0977 304.5391 Q552.1992 303.5469 552.6523 302.625 L553.793 302.625 L553.793 317 ZM558.291 309.9375 Q558.291 307.4062 558.8145 305.8516 Q559.3379 304.2969 560.3691 303.4609 Q561.4004 302.625 562.9629 302.625 Q564.1191 302.625 564.9863 303.0859 Q565.8535 303.5469 566.416 304.4219 Q566.9785 305.2969 567.3066 306.5547 Q567.6348 307.8125 567.6348 309.9375 Q567.6348 312.4531 567.1113 314 Q566.5879 315.5469 565.5645 316.3984 Q564.541 317.25 562.9629 317.25 Q560.8848 317.25 559.7129 315.7656 Q558.291 313.9688 558.291 309.9375 ZM560.1035 309.9375 Q560.1035 313.4688 560.9238 314.6328 Q561.7441 315.7969 562.9629 315.7969 Q564.166 315.7969 564.9941 314.625 Q565.8223 313.4531 565.8223 309.9375 Q565.8223 306.4062 564.9941 305.2422 Q564.166 304.0781 562.9473 304.0781 Q561.7285 304.0781 561.0098 305.1094 Q560.1035 306.4062 560.1035 309.9375 Z" clip-path="url(#clipPath38)" stroke="none"/><circle fill="rgb(144,238,144)" r="20" clip-path="url(#clipPath39)" cx="70" cy="310" stroke="none"/><circle fill="none" r="20" clip-path="url(#clipPath39)" cx="70" cy="310" stroke="black"/><path fill="black" d="M54.4688 317 L54.4688 302.6875 L59.8438 302.6875 Q61.4844 302.6875 62.4688 303.1172 Q63.4531 303.5469 64.0156 304.4531 Q64.5781 305.3594 64.5781 306.3438 Q64.5781 307.2656 64.0859 308.0781 Q63.5938 308.8906 62.5781 309.375 Q63.875 309.7656 64.5781 310.6797 Q65.2812 311.5938 65.2812 312.8438 Q65.2812 313.8594 64.8516 314.7188 Q64.4219 315.5781 63.7969 316.0469 Q63.1719 316.5156 62.2344 316.7578 Q61.2969 317 59.9219 317 L54.4688 317 ZM56.3594 308.7031 L59.4531 308.7031 Q60.7188 308.7031 61.2656 308.5312 Q61.9844 308.3125 62.3516 307.8203 Q62.7188 307.3281 62.7188 306.5625 Q62.7188 305.8594 62.375 305.3125 Q62.0312 304.7656 61.3984 304.5703 Q60.7656 304.375 59.2188 304.375 L56.3594 304.375 L56.3594 308.7031 ZM56.3594 315.3125 L59.9219 315.3125 Q60.8438 315.3125 61.2188 315.2344 Q61.875 315.125 62.3125 314.8516 Q62.75 314.5781 63.0312 314.0547 Q63.3125 313.5312 63.3125 312.8438 Q63.3125 312.0469 62.9062 311.4531 Q62.5 310.8594 61.7656 310.625 Q61.0312 310.3906 59.6719 310.3906 L56.3594 310.3906 L56.3594 315.3125 ZM73.793 317 L72.0273 317 L72.0273 305.7969 Q71.4023 306.4062 70.3711 307.0078 Q69.3398 307.6094 68.5117 307.9219 L68.5117 306.2188 Q69.9961 305.5312 71.0977 304.5391 Q72.1992 303.5469 72.6523 302.625 L73.793 302.625 L73.793 317 ZM78.291 309.9375 Q78.291 307.4062 78.8145 305.8516 Q79.3379 304.2969 80.3691 303.4609 Q81.4004 302.625 82.9629 302.625 Q84.1191 302.625 84.9863 303.0859 Q85.8535 303.5469 86.416 304.4219 Q86.9785 305.2969 87.3066 306.5547 Q87.6348 307.8125 87.6348 309.9375 Q87.6348 312.4531 87.1113 314 Q86.5879 315.5469 85.5645 316.3984 Q84.541 317.25 82.9629 317.25 Q80.8848 317.25 79.7129 315.7656 Q78.291 313.9688 78.291 309.9375 ZM80.1035 309.9375 Q80.1035 313.4688 80.9238 314.6328 Q81.7441 315.7969 82.9629 315.7969 Q84.166 315.7969 84.9941 314.625 Q85.8223 313.4531 85.8223 309.9375 Q85.8223 306.4062 84.9941 305.2422 Q84.166 304.0781 82.9473 304.0781 Q81.7285 304.0781 81.0098 305.1094 Q80.1035 306.4062 80.1035 309.9375 Z" clip-path="url(#clipPath40)" stroke="none"/><circle r="20" clip-path="url(#clipPath41)" cx="550" cy="390" stroke="none"/><circle fill="none" r="20" clip-path="url(#clipPath41)" cx="550" cy="390" stroke="black"/><path fill="black" d="M532.9688 397 L538.4688 382.6875 L540.5156 382.6875 L546.375 397 L544.2188 397 L542.5469 392.6562 L536.5625 392.6562 L534.9844 397 L532.9688 397 ZM537.1094 391.125 L541.9531 391.125 L540.4688 387.1562 Q539.7812 385.3438 539.4531 384.1875 Q539.1719 385.5625 538.6719 386.9219 L537.1094 391.125 ZM553.793 397 L552.0273 397 L552.0273 385.7969 Q551.4023 386.4062 550.3711 387.0078 Q549.3398 387.6094 548.5117 387.9219 L548.5117 386.2188 Q549.9961 385.5312 551.0977 384.5391 Q552.1992 383.5469 552.6523 382.625 L553.793 382.625 L553.793 397 ZM564.916 397 L563.1504 397 L563.1504 385.7969 Q562.5254 386.4062 561.4941 387.0078 Q560.4629 387.6094 559.6348 387.9219 L559.6348 386.2188 Q561.1191 385.5312 562.2207 384.5391 Q563.3223 383.5469 563.7754 382.625 L564.916 382.625 L564.916 397 Z" clip-path="url(#clipPath42)" stroke="none"/><circle fill="rgb(144,238,144)" r="20" clip-path="url(#clipPath43)" cx="70" cy="230" stroke="none"/><circle fill="none" r="20" clip-path="url(#clipPath43)" cx="70" cy="230" stroke="black"/><path fill="black" d="M54.4688 237 L54.4688 222.6875 L59.8438 222.6875 Q61.4844 222.6875 62.4688 223.1172 Q63.4531 223.5469 64.0156 224.4531 Q64.5781 225.3594 64.5781 226.3438 Q64.5781 227.2656 64.0859 228.0781 Q63.5938 228.8906 62.5781 229.375 Q63.875 229.7656 64.5781 230.6797 Q65.2812 231.5938 65.2812 232.8438 Q65.2812 233.8594 64.8516 234.7188 Q64.4219 235.5781 63.7969 236.0469 Q63.1719 236.5156 62.2344 236.7578 Q61.2969 237 59.9219 237 L54.4688 237 ZM56.3594 228.7031 L59.4531 228.7031 Q60.7188 228.7031 61.2656 228.5312 Q61.9844 228.3125 62.3516 227.8203 Q62.7188 227.3281 62.7188 226.5625 Q62.7188 225.8594 62.375 225.3125 Q62.0312 224.7656 61.3984 224.5703 Q60.7656 224.375 59.2188 224.375 L56.3594 224.375 L56.3594 228.7031 ZM56.3594 235.3125 L59.9219 235.3125 Q60.8438 235.3125 61.2188 235.2344 Q61.875 235.125 62.3125 234.8516 Q62.75 234.5781 63.0312 234.0547 Q63.3125 233.5312 63.3125 232.8438 Q63.3125 232.0469 62.9062 231.4531 Q62.5 230.8594 61.7656 230.625 Q61.0312 230.3906 59.6719 230.3906 L56.3594 230.3906 L56.3594 235.3125 ZM73.793 237 L72.0273 237 L72.0273 225.7969 Q71.4023 226.4062 70.3711 227.0078 Q69.3398 227.6094 68.5117 227.9219 L68.5117 226.2188 Q69.9961 225.5312 71.0977 224.5391 Q72.1992 223.5469 72.6523 222.625 L73.793 222.625 L73.793 237 ZM84.916 237 L83.1504 237 L83.1504 225.7969 Q82.5254 226.4062 81.4941 227.0078 Q80.4629 227.6094 79.6348 227.9219 L79.6348 226.2188 Q81.1191 225.5312 82.2207 224.5391 Q83.3223 223.5469 83.7754 222.625 L84.916 222.625 L84.916 237 Z" clip-path="url(#clipPath44)" stroke="none"/><circle r="20" clip-path="url(#clipPath45)" cx="550" cy="470" stroke="none"/><circle fill="none" r="20" clip-path="url(#clipPath45)" cx="550" cy="470" stroke="black"/><path fill="black" d="M532.9688 477 L538.4688 462.6875 L540.5156 462.6875 L546.375 477 L544.2188 477 L542.5469 472.6562 L536.5625 472.6562 L534.9844 477 L532.9688 477 ZM537.1094 471.125 L541.9531 471.125 L540.4688 467.1562 Q539.7812 465.3438 539.4531 464.1875 Q539.1719 465.5625 538.6719 466.9219 L537.1094 471.125 ZM553.793 477 L552.0273 477 L552.0273 465.7969 Q551.4023 466.4062 550.3711 467.0078 Q549.3398 467.6094 548.5117 467.9219 L548.5117 466.2188 Q549.9961 465.5312 551.0977 464.5391 Q552.1992 463.5469 552.6523 462.625 L553.793 462.625 L553.793 477 ZM567.5254 475.3125 L567.5254 477 L558.0723 477 Q558.0566 476.3594 558.2754 475.7812 Q558.6348 474.8125 559.4316 473.875 Q560.2285 472.9375 561.7285 471.7031 Q564.0723 469.7969 564.8926 468.6797 Q565.7129 467.5625 565.7129 466.5625 Q565.7129 465.5156 564.9629 464.7969 Q564.2129 464.0781 563.0098 464.0781 Q561.7441 464.0781 560.9785 464.8438 Q560.2129 465.6094 560.2129 466.9531 L558.4004 466.7656 Q558.5879 464.75 559.7988 463.6875 Q561.0098 462.625 563.0566 462.625 Q565.1035 462.625 566.3066 463.7656 Q567.5098 464.9062 567.5098 466.5938 Q567.5098 467.4531 567.1582 468.2891 Q566.8066 469.125 565.9941 470.0391 Q565.1816 470.9531 563.291 472.5625 Q561.6973 473.8906 561.252 474.3594 Q560.8066 474.8281 560.5098 475.3125 L567.5254 475.3125 Z" clip-path="url(#clipPath46)" stroke="none"/><circle fill="rgb(144,238,144)" r="20" clip-path="url(#clipPath47)" cx="70" cy="150" stroke="none"/><circle fill="none" r="20" clip-path="url(#clipPath47)" cx="70" cy="150" stroke="black"/><path fill="black" d="M54.4688 157 L54.4688 142.6875 L59.8438 142.6875 Q61.4844 142.6875 62.4688 143.1172 Q63.4531 143.5469 64.0156 144.4531 Q64.5781 145.3594 64.5781 146.3438 Q64.5781 147.2656 64.0859 148.0781 Q63.5938 148.8906 62.5781 149.375 Q63.875 149.7656 64.5781 150.6797 Q65.2812 151.5938 65.2812 152.8438 Q65.2812 153.8594 64.8516 154.7188 Q64.4219 155.5781 63.7969 156.0469 Q63.1719 156.5156 62.2344 156.7578 Q61.2969 157 59.9219 157 L54.4688 157 ZM56.3594 148.7031 L59.4531 148.7031 Q60.7188 148.7031 61.2656 148.5312 Q61.9844 148.3125 62.3516 147.8203 Q62.7188 147.3281 62.7188 146.5625 Q62.7188 145.8594 62.375 145.3125 Q62.0312 144.7656 61.3984 144.5703 Q60.7656 144.375 59.2188 144.375 L56.3594 144.375 L56.3594 148.7031 ZM56.3594 155.3125 L59.9219 155.3125 Q60.8438 155.3125 61.2188 155.2344 Q61.875 155.125 62.3125 154.8516 Q62.75 154.5781 63.0312 154.0547 Q63.3125 153.5312 63.3125 152.8438 Q63.3125 152.0469 62.9062 151.4531 Q62.5 150.8594 61.7656 150.625 Q61.0312 150.3906 59.6719 150.3906 L56.3594 150.3906 L56.3594 155.3125 ZM73.793 157 L72.0273 157 L72.0273 145.7969 Q71.4023 146.4062 70.3711 147.0078 Q69.3398 147.6094 68.5117 147.9219 L68.5117 146.2188 Q69.9961 145.5312 71.0977 144.5391 Q72.1992 143.5469 72.6523 142.625 L73.793 142.625 L73.793 157 ZM87.5254 155.3125 L87.5254 157 L78.0723 157 Q78.0566 156.3594 78.2754 155.7812 Q78.6348 154.8125 79.4316 153.875 Q80.2285 152.9375 81.7285 151.7031 Q84.0723 149.7969 84.8926 148.6797 Q85.7129 147.5625 85.7129 146.5625 Q85.7129 145.5156 84.9629 144.7969 Q84.2129 144.0781 83.0098 144.0781 Q81.7441 144.0781 80.9785 144.8438 Q80.2129 145.6094 80.2129 146.9531 L78.4004 146.7656 Q78.5879 144.75 79.7988 143.6875 Q81.0098 142.625 83.0566 142.625 Q85.1035 142.625 86.3066 143.7656 Q87.5098 144.9062 87.5098 146.5938 Q87.5098 147.4531 87.1582 148.2891 Q86.8066 149.125 85.9941 150.0391 Q85.1816 150.9531 83.291 152.5625 Q81.6973 153.8906 81.252 154.3594 Q80.8066 154.8281 80.5098 155.3125 L87.5254 155.3125 Z" clip-path="url(#clipPath48)" stroke="none"/><circle r="20" clip-path="url(#clipPath49)" cx="566" cy="566" stroke="none"/><circle fill="none" r="20" clip-path="url(#clipPath49)" cx="566" cy="566" stroke="black"/><path fill="black" d="M548.9688 573 L554.4688 558.6875 L556.5156 558.6875 L562.375 573 L560.2188 573 L558.5469 568.6562 L552.5625 568.6562 L550.9844 573 L548.9688 573 ZM553.1094 567.125 L557.9531 567.125 L556.4688 563.1562 Q555.7812 561.3438 555.4531 560.1875 Q555.1719 561.5625 554.6719 562.9219 L553.1094 567.125 ZM569.793 573 L568.0273 573 L568.0273 561.7969 Q567.4023 562.4062 566.3711 563.0078 Q565.3398 563.6094 564.5117 563.9219 L564.5117 562.2188 Q565.9961 561.5312 567.0977 560.5391 Q568.1992 559.5469 568.6523 558.625 L569.793 558.625 L569.793 573 ZM574.3066 569.2188 L576.0566 568.9844 Q576.3691 570.4844 577.0957 571.1406 Q577.8223 571.7969 578.8691 571.7969 Q580.1035 571.7969 580.9551 570.9375 Q581.8066 570.0781 581.8066 568.8125 Q581.8066 567.5938 581.0176 566.8125 Q580.2285 566.0312 579.0098 566.0312 Q578.5098 566.0312 577.7754 566.2188 L577.9629 564.6719 Q578.1348 564.7031 578.2441 564.7031 Q579.3691 564.7031 580.2676 564.1172 Q581.166 563.5312 581.166 562.3125 Q581.166 561.3438 580.5098 560.7031 Q579.8535 560.0625 578.8223 560.0625 Q577.8066 560.0625 577.1191 560.7109 Q576.4316 561.3594 576.2441 562.6406 L574.4785 562.3281 Q574.8066 560.5625 575.9473 559.5938 Q577.0879 558.625 578.791 558.625 Q579.9629 558.625 580.9473 559.125 Q581.9316 559.625 582.4551 560.5 Q582.9785 561.375 582.9785 562.3438 Q582.9785 563.2656 582.4785 564.0312 Q581.9785 564.7969 581.0098 565.25 Q582.2754 565.5312 582.9785 566.4609 Q583.6816 567.3906 583.6816 568.7656 Q583.6816 570.6406 582.3145 571.9453 Q580.9473 573.25 578.8535 573.25 Q576.9629 573.25 575.7207 572.125 Q574.4785 571 574.3066 569.2188 Z" clip-path="url(#clipPath50)" stroke="none"/><circle fill="rgb(144,238,144)" r="20" clip-path="url(#clipPath51)" cx="86" cy="86" stroke="none"/><circle fill="none" r="20" clip-path="url(#clipPath51)" cx="86" cy="86" stroke="black"/><path fill="black" d="M70.4688 93 L70.4688 78.6875 L75.8438 78.6875 Q77.4844 78.6875 78.4688 79.1172 Q79.4531 79.5469 80.0156 80.4531 Q80.5781 81.3594 80.5781 82.3438 Q80.5781 83.2656 80.0859 84.0781 Q79.5938 84.8906 78.5781 85.375 Q79.875 85.7656 80.5781 86.6797 Q81.2812 87.5938 81.2812 88.8438 Q81.2812 89.8594 80.8516 90.7188 Q80.4219 91.5781 79.7969 92.0469 Q79.1719 92.5156 78.2344 92.7578 Q77.2969 93 75.9219 93 L70.4688 93 ZM72.3594 84.7031 L75.4531 84.7031 Q76.7188 84.7031 77.2656 84.5312 Q77.9844 84.3125 78.3516 83.8203 Q78.7188 83.3281 78.7188 82.5625 Q78.7188 81.8594 78.375 81.3125 Q78.0312 80.7656 77.3984 80.5703 Q76.7656 80.375 75.2188 80.375 L72.3594 80.375 L72.3594 84.7031 ZM72.3594 91.3125 L75.9219 91.3125 Q76.8438 91.3125 77.2188 91.2344 Q77.875 91.125 78.3125 90.8516 Q78.75 90.5781 79.0312 90.0547 Q79.3125 89.5312 79.3125 88.8438 Q79.3125 88.0469 78.9062 87.4531 Q78.5 86.8594 77.7656 86.625 Q77.0312 86.3906 75.6719 86.3906 L72.3594 86.3906 L72.3594 91.3125 ZM89.793 93 L88.0273 93 L88.0273 81.7969 Q87.4023 82.4062 86.3711 83.0078 Q85.3398 83.6094 84.5117 83.9219 L84.5117 82.2188 Q85.9961 81.5312 87.0977 80.5391 Q88.1992 79.5469 88.6523 78.625 L89.793 78.625 L89.793 93 ZM94.3066 89.2188 L96.0566 88.9844 Q96.3691 90.4844 97.0957 91.1406 Q97.8223 91.7969 98.8691 91.7969 Q100.1035 91.7969 100.9551 90.9375 Q101.8066 90.0781 101.8066 88.8125 Q101.8066 87.5938 101.0176 86.8125 Q100.2285 86.0312 99.0098 86.0312 Q98.5098 86.0312 97.7754 86.2188 L97.9629 84.6719 Q98.1348 84.7031 98.2441 84.7031 Q99.3691 84.7031 100.2676 84.1172 Q101.166 83.5312 101.166 82.3125 Q101.166 81.3438 100.5098 80.7031 Q99.8535 80.0625 98.8223 80.0625 Q97.8066 80.0625 97.1191 80.7109 Q96.4316 81.3594 96.2441 82.6406 L94.4785 82.3281 Q94.8066 80.5625 95.9473 79.5938 Q97.0879 78.625 98.791 78.625 Q99.9629 78.625 100.9473 79.125 Q101.9316 79.625 102.4551 80.5 Q102.9785 81.375 102.9785 82.3438 Q102.9785 83.2656 102.4785 84.0312 Q101.9785 84.7969 101.0098 85.25 Q102.2754 85.5312 102.9785 86.4609 Q103.6816 87.3906 103.6816 88.7656 Q103.6816 90.6406 102.3145 91.9453 Q100.9473 93.25 98.8535 93.25 Q96.9629 93.25 95.7207 92.125 Q94.4785 91 94.3066 89.2188 Z" clip-path="url(#clipPath52)" stroke="none"/></g></g></svg>