<?xml version="1.0" encoding="UTF-8"?><svg xmlns="http://www.w3.org/2000/svg" xmlns:xlink="http://www.w3.org/1999/xlink" stroke-dasharray="none" shape-rendering="auto" font-family="'Dialog'" width="591" text-rendering="auto" fill-opacity="1" contentScriptType="text/ecmascript" color-interpolation="auto" color-rendering="auto" preserveAspectRatio="xMidYMid meet" font-size="12px" fill="black" stroke="black" image-rendering="auto" stroke-miterlimit="10" zoomAndPan="magnify" version="1.0" stroke-linecap="square" stroke-linejoin="miter" contentStyleType="text/css" font-style="normal" height="591" stroke-width="1" stroke-dashoffset="0" font-weight="normal" stroke-opacity="1"><!--Generated by the Batik Graphics2D SVG Generator--><defs id="genericDefs"/><g><defs id="defs1"><clipPath clipPathUnits="userSpaceOnUse" id="clipPath1"><path d="M37 37 L71 37 L71 71 L37 71 L37 37 Z"/></clipPath><clipPath clipPathUnits="userSpaceOnUse" id="clipPath2"><path d="M70 54 C70 62.8366 62.8366 70 54 70 C45.1634 70 38 62.8366 38 54 C38 45.1634 45.1634 38 54 38 C62.8366 38 70 45.1634 70 54 Z"/></clipPath><clipPath clipPathUnits="userSpaceOnUse" id="clipPath3"><path d="M517 517 L551 517 L551 551 L517 551 L517 517 Z"/></clipPath><clipPath clipPathUnits="userSpaceOnUse" id="clipPath4"><path d="M550 534 C550 542.8365 542.8365 550 534 550 C525.1635 550 518 542.8365 518 534 C518 525.1635 525.1635 518 534 518 C542.8365 518 550 525.1635 550 534 Z"/></clipPath><clipPath clipPathUnits="userSpaceOnUse" id="clipPath5"><path d="M517 37 L551 37 L551 71 L517 71 L517 37 Z"/></clipPath><clipPath clipPathUnits="userSpaceOnUse" id="clipPath6"><path d="M550 54 C550 62.8366 542.8365 70 534 70 C525.1635 70 518 62.8366 518 54 C518 45.1634 525.1635 38 534 38 C542.8365 38 550 45.1634 550 54 Z"/></clipPath><clipPath clipPathUnits="userSpaceOnUse" id="clipPath7"><path d="M37 517 L71 517 L71 551 L37 551 L37 517 Z"/></clipPath><clipPath clipPathUnits="userSpaceOnUse" id="clipPath8"><path d="M70 534 C70 542.8365 62.8366 550 54 550 C45.1634 550 38 542.8365 38 534 C38 525.1635 45.1634 518 54 518 C62.8366 518 70 525.1635 70 534 Z"/></clipPath><clipPath clipPathUnits="userSpaceOnUse" id="clipPath9"><path d="M117 117 L151 117 L151 151 L117 151 L117 117 Z"/></clipPath><clipPath clipPathUnits="userSpaceOnUse" id="clipPath10"><path d="M150 134 C150 142.8366 142.8366 150 134 150 C125.1634 150 118 142.8366 118 134 C118 125.1634 125.1634 118 134 118 C142.8366 118 150 125.1634 150 134 Z"/></clipPath><clipPath clipPathUnits="userSpaceOnUse" id="clipPath11"><path d="M437 437 L471 437 L471 471 L437 471 L437 437 Z"/></clipPath><clipPath clipPathUnits="userSpaceOnUse" id="clipPath12"><path d="M470 454 C470 462.8365 462.8365 470 454 470 C445.1635 470 438 462.8365 438 454 C438 445.1635 445.1635 438 454 438 C462.8365 438 470 445.1635 470 454 Z"/></clipPath><clipPath clipPathUnits="userSpaceOnUse" id="clipPath13"><path d="M433 113 L467 113 L467 147 L433 147 L433 113 Z"/></clipPath><clipPath clipPathUnits="userSpaceOnUse" id="clipPath14"><path d="M466 130 C466 138.8366 458.8365 146 450 146 C441.1635 146 434 138.8366 434 130 C434 121.1634 441.1635 114 450 114 C458.8365 114 466 121.1634 466 130 Z"/></clipPath><clipPath clipPathUnits="userSpaceOnUse" id="clipPath15"><path d="M117 437 L151 437 L151 471 L117 471 L117 437 Z"/></clipPath><clipPath clipPathUnits="userSpaceOnUse" id="clipPath16"><path d="M150 454 C150 462.8365 142.8366 470 134 470 C125.1634 470 118 462.8365 118 454 C118 445.1635 125.1634 438 134 438 C142.8366 438 150 445.1635 150 454 Z"/></clipPath><clipPath clipPathUnits="userSpaceOnUse" id="clipPath17"><path d="M213 213 L247 213 L247 247 L213 247 L213 213 Z"/></clipPath><clipPath clipPathUnits="userSpaceOnUse" id="clipPath18"><path d="M246 230 C246 238.8366 238.8366 246 230 246 C221.1634 246 214 238.8366 214 230 C214 221.1634 221.1634 214 230 214 C238.8366 214 246 221.1634 246 230 Z"/></clipPath><clipPath clipPathUnits="userSpaceOnUse" id="clipPath19"><path d="M357 357 L391 357 L391 391 L357 391 L357 357 Z"/></clipPath><clipPath clipPathUnits="userSpaceOnUse" id="clipPath20"><path d="M390 374 C390 382.8365 382.8365 390 374 390 C365.1635 390 358 382.8365 358 374 C358 365.1635 365.1635 358 374 358 C382.8365 358 390 365.1635 390 374 Z"/></clipPath><clipPath clipPathUnits="userSpaceOnUse" id="clipPath21"><path d="M473 113 L507 113 L507 147 L473 147 L473 113 Z"/></clipPath><clipPath clipPathUnits="userSpaceOnUse" id="clipPath22"><path d="M506 130 C506 138.8366 498.8365 146 490 146 C481.1635 146 474 138.8366 474 130 C474 121.1634 481.1635 114 490 114 C498.8365 114 506 121.1634 506 130 Z"/></clipPath><clipPath clipPathUnits="userSpaceOnUse" id="clipPath23"><path d="M197 357 L231 357 L231 391 L197 391 L197 357 Z"/></clipPath><clipPath clipPathUnits="userSpaceOnUse" id="clipPath24"><path d="M230 374 C230 382.8365 222.8366 390 214 390 C205.1634 390 198 382.8365 198 374 C198 365.1635 205.1634 358 214 358 C222.8366 358 230 365.1635 230 374 Z"/></clipPath><clipPath clipPathUnits="userSpaceOnUse" id="clipPath25"><path d="M277 277 L311 277 L311 311 L277 311 L277 277 Z"/></clipPath><clipPath clipPathUnits="userSpaceOnUse" id="clipPath26"><path d="M310 294 C310 302.8365 302.8365 310 294 310 C285.1635 310 278 302.8365 278 294 C278 285.1635 285.1635 278 294 278 C302.8365 278 310 285.1635 310 294 Z"/></clipPath><clipPath clipPathUnits="userSpaceOnUse" id="clipPath27"><path d="M293 373 L327 373 L327 407 L293 407 L293 373 Z"/></clipPath><clipPath clipPathUnits="userSpaceOnUse" id="clipPath28"><path d="M326 390 C326 398.8365 318.8365 406 310 406 C301.1635 406 294 398.8365 294 390 C294 381.1635 301.1635 374 310 374 C318.8365 374 326 381.1635 326 390 Z"/></clipPath><clipPath clipPathUnits="userSpaceOnUse" id="clipPath29"><path d="M357 197 L391 197 L391 231 L357 231 L357 197 Z"/></clipPath><clipPath clipPathUnits="userSpaceOnUse" id="clipPath30"><path d="M390 214 C390 222.8366 382.8365 230 374 230 C365.1635 230 358 222.8366 358 214 C358 205.1634 365.1635 198 374 198 C382.8365 198 390 205.1634 390 214 Z"/></clipPath><clipPath clipPathUnits="userSpaceOnUse" id="clipPath31"><path d="M229 389 L263 389 L263 423 L229 423 L229 389 Z"/></clipPath><clipPath clipPathUnits="userSpaceOnUse" id="clipPath32"><path d="M262 406 C262 414.8365 254.8366 422 246 422 C237.1634 422 230 414.8365 230 406 C230 397.1635 237.1634 390 246 390 C254.8366 390 262 397.1635 262 406 Z"/></clipPath><clipPath clipPathUnits="userSpaceOnUse" id="clipPath33"><path d="M389 389 L423 389 L423 423 L389 423 L389 389 Z"/></clipPath><clipPath clipPathUnits="userSpaceOnUse" id="clipPath34"><path d="M422 406 C422 414.8365 414.8365 422 406 422 C397.1635 422 390 414.8365 390 406 C390 397.1635 397.1635 390 406 390 C414.8365 390 422 397.1635 422 406 Z"/></clipPath><clipPath clipPathUnits="userSpaceOnUse" id="clipPath35"><path d="M197 277 L231 277 L231 311 L197 311 L197 277 Z"/></clipPath><clipPath clipPathUnits="userSpaceOnUse" id="clipPath36"><path d="M230 294 C230 302.8365 222.8366 310 214 310 C205.1634 310 198 302.8365 198 294 C198 285.1635 205.1634 278 214 278 C222.8366 278 230 285.1635 230 294 Z"/></clipPath><clipPath clipPathUnits="userSpaceOnUse" id="clipPath37"><path d="M293 213 L327 213 L327 247 L293 247 L293 213 Z"/></clipPath><clipPath clipPathUnits="userSpaceOnUse" id="clipPath38"><path d="M326 230 C326 238.8366 318.8365 246 310 246 C301.1635 246 294 238.8366 294 230 C294 221.1634 301.1635 214 310 214 C318.8365 214 326 221.1634 326 230 Z"/></clipPath><clipPath clipPathUnits="userSpaceOnUse" id="clipPath39"><path d="M309 309 L343 309 L343 343 L309 343 L309 309 Z"/></clipPath><clipPath clipPathUnits="userSpaceOnUse" id="clipPath40"><path d="M342 326 C342 334.8365 334.8365 342 326 342 C317.1635 342 310 334.8365 310 326 C310 317.1635 317.1635 310 326 310 C334.8365 310 342 317.1635 342 326 Z"/></clipPath><clipPath clipPathUnits="userSpaceOnUse" id="clipPath41"><path d="M469 469 L503 469 L503 503 L469 503 L469 469 Z"/></clipPath><clipPath clipPathUnits="userSpaceOnUse" id="clipPath42"><path d="M502 486 C502 494.8365 494.8365 502 486 502 C477.1635 502 470 494.8365 470 486 C470 477.1635 477.1635 470 486 470 C494.8365 470 502 477.1635 502 486 Z"/></clipPath><clipPath clipPathUnits="userSpaceOnUse" id="clipPath43"><path d="M133 213 L167 213 L167 247 L133 247 L133 213 Z"/></clipPath><clipPath clipPathUnits="userSpaceOnUse" id="clipPath44"><path d="M166 230 C166 238.8366 158.8366 246 150 246 C141.1634 246 134 238.8366 134 230 C134 221.1634 141.1634 214 150 214 C158.8366 214 166 221.1634 166 230 Z"/></clipPath><clipPath clipPathUnits="userSpaceOnUse" id="clipPath45"><path d="M229 309 L263 309 L263 343 L229 343 L229 309 Z"/></clipPath><clipPath clipPathUnits="userSpaceOnUse" id="clipPath46"><path d="M262 326 C262 334.8365 254.8366 342 246 342 C237.1634 342 230 334.8365 230 326 C230 317.1635 237.1634 310 246 310 C254.8366 310 262 317.1635 262 326 Z"/></clipPath><clipPath clipPathUnits="userSpaceOnUse" id="clipPath47"><path d="M389 229 L423 229 L423 263 L389 263 L389 229 Z"/></clipPath><clipPath clipPathUnits="userSpaceOnUse" id="clipPath48"><path d="M422 246 C422 254.8366 414.8365 262 406 262 C397.1635 262 390 254.8366 390 246 C390 237.1634 397.1635 230 406 230 C414.8365 230 422 237.1634 422 246 Z"/></clipPath><clipPath clipPathUnits="userSpaceOnUse" id="clipPath49"><path d="M549 549 L583 549 L583 583 L549 583 L549 549 Z"/></clipPath><clipPath clipPathUnits="userSpaceOnUse" id="clipPath50"><path d="M582 566 C582 574.8365 574.8365 582 566 582 C557.1635 582 550 574.8365 550 566 C550 557.1635 557.1635 550 566 550 C574.8365 550 582 557.1635 582 566 Z"/></clipPath><clipPath clipPathUnits="userSpaceOnUse" id="clipPath51"><path d="M149 149 L183 149 L183 183 L149 183 L149 149 Z"/></clipPath><clipPath clipPathUnits="userSpaceOnUse" id="clipPath52"><path d="M182 166 C182 174.8366 174.8366 182 166 182 C157.1634 182 150 174.8366 150 166 C150 157.1634 157.1634 150 166 150 C174.8366 150 182 157.1634 182 166 Z"/></clipPath><clipPath clipPathUnits="userSpaceOnUse" id="clipPath53"><path d="M133 373 L167 373 L167 407 L133 407 L133 373 Z"/></clipPath><clipPath clipPathUnits="userSpaceOnUse" id="clipPath54"><path d="M166 390 C166 398.8365 158.8366 406 150 406 C141.1634 406 134 398.8365 134 390 C134 381.1635 141.1634 374 150 374 C158.8366 374 166 381.1635 166 390 Z"/></clipPath><clipPath clipPathUnits="userSpaceOnUse" id="clipPath55"><path d="M433 153 L467 153 L467 187 L433 187 L433 153 Z"/></clipPath><clipPath clipPathUnits="userSpaceOnUse" id="clipPath56"><path d="M466 170 C466 178.8366 458.8365 186 450 186 C441.1635 186 434 178.8366 434 170 C434 161.1634 441.1635 154 450 154 C458.8365 154 466 161.1634 466 170 Z"/></clipPath><clipPath clipPathUnits="userSpaceOnUse" id="clipPath57"><path d="M69 69 L103 69 L103 103 L69 103 L69 69 Z"/></clipPath><clipPath clipPathUnits="userSpaceOnUse" id="clipPath58"><path d="M102 86 C102 94.8366 94.8366 102 86 102 C77.1634 102 70 94.8366 70 86 C70 77.1634 77.1634 70 86 70 C94.8366 70 102 77.1634 102 86 Z"/></clipPath><clipPath clipPathUnits="userSpaceOnUse" id="clipPath59"><path d="M149 469 L183 469 L183 503 L149 503 L149 469 Z"/></clipPath><clipPath clipPathUnits="userSpaceOnUse" id="clipPath60"><path d="M182 486 C182 494.8365 174.8366 502 166 502 C157.1634 502 150 494.8365 150 486 C150 477.1635 157.1634 470 166 470 C174.8366 470 182 477.1635 182 486 Z"/></clipPath><clipPath clipPathUnits="userSpaceOnUse" id="clipPath61"><path d="M549 69 L583 69 L583 103 L549 103 L549 69 Z"/></clipPath><clipPath clipPathUnits="userSpaceOnUse" id="clipPath62"><path d="M582 86 C582 94.8366 574.8365 102 566 102 C557.1635 102 550 94.8366 550 86 C550 77.1634 557.1635 70 566 70 C574.8365 70 582 77.1634 582 86 Z"/></clipPath><clipPath clipPathUnits="userSpaceOnUse" id="clipPath63"><path d="M69 549 L103 549 L103 583 L69 583 L69 549 Z"/></clipPath><clipPath clipPathUnits="userSpaceOnUse" id="clipPath64"><path d="M102 566 C102 574.8365 94.8366 582 86 582 C77.1634 582 70 574.8365 70 566 C70 557.1635 77.1634 550 86 550 C94.8366 550 102 557.1635 102 566 Z"/></clipPath></defs><g><line y2="30" fill="none" x1="30" x2="590" y1="30"/><line y2="110" fill="none" x1="30" x2="590" y1="110"/><line y2="190" fill="none" x1="30" x2="590" y1="190"/><line y2="270" fill="none" x1="30" x2="590" y1="270"/><line y2="350" fill="none" x1="30" x2="590" y1="350"/><line y2="430" fill="none" x1="30" x2="590" y1="430"/><line y2="510" fill="none" x1="30" x2="590" y1="510"/><line y2="590" fill="none" x1="30" x2="590" y1="590"/><line y2="590" fill="none" x1="30" x2="30" y1="30"/><line y2="590" fill="none" x1="110" x2="110" y1="30"/><line y2="590" fill="none" x1="190" x2="190" y1="30"/><line y2="590" fill="none" x1="270" x2="270" y1="30"/><line y2="590" fill="none" x1="350" x2="350" y1="30"/><line y2="590" fill="none" x1="430" x2="430" y1="30"/><line y2="590" fill="none" x1="510" x2="510" y1="30"/><line y2="590" fill="none" x1="590" x2="590" y1="30"/><path d="M17.9375 79 L15.8281 79 L15.8281 65.5625 Q15.0781 66.2812 13.8359 67.0078 Q12.5938 67.7344 11.6094 68.0938 L11.6094 66.0625 Q13.3906 65.2344 14.7109 64.0469 Q16.0312 62.8594 16.5781 61.75 L17.9375 61.75 L17.9375 79 Z" stroke="none"/><path d="M21.0781 156.9688 L21.0781 159 L9.7344 159 Q9.7031 158.2344 9.9688 157.5312 Q10.4062 156.375 11.3594 155.25 Q12.3125 154.125 14.125 152.6406 Q16.9219 150.3438 17.9062 149.0078 Q18.8906 147.6719 18.8906 146.4688 Q18.8906 145.2188 17.9922 144.3594 Q17.0938 143.5 15.6562 143.5 Q14.1406 143.5 13.2266 144.4141 Q12.3125 145.3281 12.2969 146.9375 L10.125 146.7188 Q10.3438 144.2969 11.7969 143.0234 Q13.25 141.75 15.7031 141.75 Q18.1719 141.75 19.6172 143.1172 Q21.0625 144.4844 21.0625 146.5156 Q21.0625 147.5469 20.6406 148.5469 Q20.2188 149.5469 19.2422 150.6484 Q18.2656 151.75 15.9844 153.6719 Q14.0938 155.2656 13.5547 155.8281 Q13.0156 156.3906 12.6562 156.9688 L21.0781 156.9688 Z" stroke="none"/><path d="M10.0156 234.4688 L12.125 234.1875 Q12.4844 235.9688 13.3594 236.7656 Q14.2344 237.5625 15.4844 237.5625 Q16.9688 237.5625 17.9922 236.5312 Q19.0156 235.5 19.0156 233.9688 Q19.0156 232.5156 18.0703 231.5703 Q17.125 230.625 15.6562 230.625 Q15.0625 230.625 14.1719 230.8594 L14.4062 229.0156 Q14.6094 229.0312 14.75 229.0312 Q16.0938 229.0312 17.1719 228.3281 Q18.25 227.625 18.25 226.1719 Q18.25 225 17.4609 224.2422 Q16.6719 223.4844 15.4375 223.4844 Q14.2031 223.4844 13.3828 224.2578 Q12.5625 225.0312 12.3281 226.5781 L10.2188 226.2031 Q10.6094 224.0781 11.9766 222.9141 Q13.3438 221.75 15.3906 221.75 Q16.7969 221.75 17.9766 222.3516 Q19.1562 222.9531 19.7891 224 Q20.4219 225.0469 20.4219 226.2188 Q20.4219 227.3281 19.8203 228.2422 Q19.2188 229.1562 18.0469 229.6875 Q19.5781 230.0469 20.4219 231.1562 Q21.2656 232.2656 21.2656 233.9219 Q21.2656 236.1719 19.625 237.7422 Q17.9844 239.3125 15.4688 239.3125 Q13.2031 239.3125 11.7109 237.9609 Q10.2188 236.6094 10.0156 234.4688 Z" stroke="none"/><path d="M16.7656 319 L16.7656 314.8906 L9.3125 314.8906 L9.3125 312.9531 L17.1406 301.8125 L18.875 301.8125 L18.875 312.9531 L21.1875 312.9531 L21.1875 314.8906 L18.875 314.8906 L18.875 319 L16.7656 319 ZM16.7656 312.9531 L16.7656 305.2031 L11.375 312.9531 L16.7656 312.9531 Z" stroke="none"/><path d="M10 394.5 L12.2188 394.3125 Q12.4531 395.9219 13.3516 396.7422 Q14.25 397.5625 15.5156 397.5625 Q17.0469 397.5625 18.1016 396.4141 Q19.1562 395.2656 19.1562 393.3594 Q19.1562 391.5625 18.1406 390.5156 Q17.125 389.4688 15.4844 389.4688 Q14.4688 389.4688 13.6484 389.9297 Q12.8281 390.3906 12.3594 391.1406 L10.375 390.875 L12.0312 382.0469 L20.5781 382.0469 L20.5781 384.0625 L13.7188 384.0625 L12.7969 388.6875 Q14.3438 387.6094 16.0469 387.6094 Q18.2969 387.6094 19.8438 389.1641 Q21.3906 390.7188 21.3906 393.1719 Q21.3906 395.5 20.0312 397.2031 Q18.375 399.2969 15.5156 399.2969 Q13.1719 399.2969 11.6875 397.9844 Q10.2031 396.6719 10 394.5 Z" stroke="none"/><path d="M20.9375 466.0312 L18.8438 466.1875 Q18.5625 464.9531 18.0469 464.3906 Q17.1875 463.4844 15.9375 463.4844 Q14.9375 463.4844 14.1719 464.0469 Q13.1719 464.7656 12.6016 466.1641 Q12.0312 467.5625 12 470.1406 Q12.7656 468.9844 13.8672 468.4219 Q14.9688 467.8594 16.1719 467.8594 Q18.2812 467.8594 19.7656 469.4062 Q21.25 470.9531 21.25 473.4219 Q21.25 475.0312 20.5547 476.4219 Q19.8594 477.8125 18.6406 478.5547 Q17.4219 479.2969 15.875 479.2969 Q13.2344 479.2969 11.5703 477.3516 Q9.9062 475.4062 9.9062 470.9531 Q9.9062 465.9844 11.75 463.7188 Q13.3438 461.75 16.0625 461.75 Q18.0938 461.75 19.3906 462.8828 Q20.6875 464.0156 20.9375 466.0312 ZM12.3281 473.4375 Q12.3281 474.5156 12.7891 475.5156 Q13.25 476.5156 14.0859 477.0391 Q14.9219 477.5625 15.8281 477.5625 Q17.1719 477.5625 18.1328 476.4844 Q19.0938 475.4062 19.0938 473.5469 Q19.0938 471.7656 18.1406 470.7422 Q17.1875 469.7188 15.75 469.7188 Q14.3281 469.7188 13.3281 470.7422 Q12.3281 471.7656 12.3281 473.4375 Z" stroke="none"/><path d="M10.1406 544.0625 L10.1406 542.0469 L21.2656 542.0469 L21.2656 543.6875 Q19.625 545.4219 18.0078 548.3203 Q16.3906 551.2188 15.5156 554.2812 Q14.8906 556.4375 14.7031 559 L12.5469 559 Q12.5781 556.9688 13.3359 554.1016 Q14.0938 551.2344 15.5234 548.5625 Q16.9531 545.8906 18.5469 544.0625 L10.1406 544.0625 Z" stroke="none"/><path d="M72.9375 24 L70.8281 24 L70.8281 10.5625 Q70.0781 11.2812 68.8359 12.0078 Q67.5938 12.7344 66.6094 13.0938 L66.6094 11.0625 Q68.3906 10.2344 69.7109 9.0469 Q71.0312 7.8594 71.5781 6.75 L72.9375 6.75 L72.9375 24 Z" stroke="none"/><path d="M156.0781 21.9688 L156.0781 24 L144.7344 24 Q144.7031 23.2344 144.9688 22.5312 Q145.4062 21.375 146.3594 20.25 Q147.3125 19.125 149.125 17.6406 Q151.9219 15.3438 152.9062 14.0078 Q153.8906 12.6719 153.8906 11.4688 Q153.8906 10.2188 152.9922 9.3594 Q152.0938 8.5 150.6562 8.5 Q149.1406 8.5 148.2266 9.4141 Q147.3125 10.3281 147.2969 11.9375 L145.125 11.7188 Q145.3438 9.2969 146.7969 8.0234 Q148.25 6.75 150.7031 6.75 Q153.1719 6.75 154.6172 8.1172 Q156.0625 9.4844 156.0625 11.5156 Q156.0625 12.5469 155.6406 13.5469 Q155.2188 14.5469 154.2422 15.6484 Q153.2656 16.75 150.9844 18.6719 Q149.0938 20.2656 148.5547 20.8281 Q148.0156 21.3906 147.6562 21.9688 L156.0781 21.9688 Z" stroke="none"/><path d="M225.0156 19.4688 L227.125 19.1875 Q227.4844 20.9688 228.3594 21.7656 Q229.2344 22.5625 230.4844 22.5625 Q231.9688 22.5625 232.9922 21.5312 Q234.0156 20.5 234.0156 18.9688 Q234.0156 17.5156 233.0703 16.5703 Q232.125 15.625 230.6562 15.625 Q230.0625 15.625 229.1719 15.8594 L229.4062 14.0156 Q229.6094 14.0312 229.75 14.0312 Q231.0938 14.0312 232.1719 13.3281 Q233.25 12.625 233.25 11.1719 Q233.25 10 232.4609 9.2422 Q231.6719 8.4844 230.4375 8.4844 Q229.2031 8.4844 228.3828 9.2578 Q227.5625 10.0312 227.3281 11.5781 L225.2188 11.2031 Q225.6094 9.0781 226.9766 7.9141 Q228.3438 6.75 230.3906 6.75 Q231.7969 6.75 232.9766 7.3516 Q234.1562 7.9531 234.7891 9 Q235.4219 10.0469 235.4219 11.2188 Q235.4219 12.3281 234.8203 13.2422 Q234.2188 14.1562 233.0469 14.6875 Q234.5781 15.0469 235.4219 16.1562 Q236.2656 17.2656 236.2656 18.9219 Q236.2656 21.1719 234.625 22.7422 Q232.9844 24.3125 230.4688 24.3125 Q228.2031 24.3125 226.7109 22.9609 Q225.2188 21.6094 225.0156 19.4688 Z" stroke="none"/><path d="M311.7656 24 L311.7656 19.8906 L304.3125 19.8906 L304.3125 17.9531 L312.1406 6.8125 L313.875 6.8125 L313.875 17.9531 L316.1875 17.9531 L316.1875 19.8906 L313.875 19.8906 L313.875 24 L311.7656 24 ZM311.7656 17.9531 L311.7656 10.2031 L306.375 17.9531 L311.7656 17.9531 Z" stroke="none"/><path d="M385 19.5 L387.2188 19.3125 Q387.4531 20.9219 388.3516 21.7422 Q389.25 22.5625 390.5156 22.5625 Q392.0469 22.5625 393.1016 21.4141 Q394.1562 20.2656 394.1562 18.3594 Q394.1562 16.5625 393.1406 15.5156 Q392.125 14.4688 390.4844 14.4688 Q389.4688 14.4688 388.6484 14.9297 Q387.8281 15.3906 387.3594 16.1406 L385.375 15.875 L387.0312 7.0469 L395.5781 7.0469 L395.5781 9.0625 L388.7188 9.0625 L387.7969 13.6875 Q389.3438 12.6094 391.0469 12.6094 Q393.2969 12.6094 394.8438 14.1641 Q396.3906 15.7188 396.3906 18.1719 Q396.3906 20.5 395.0312 22.2031 Q393.375 24.2969 390.5156 24.2969 Q388.1719 24.2969 386.6875 22.9844 Q385.2031 21.6719 385 19.5 Z" stroke="none"/><path d="M475.9375 11.0312 L473.8438 11.1875 Q473.5625 9.9531 473.0469 9.3906 Q472.1875 8.4844 470.9375 8.4844 Q469.9375 8.4844 469.1719 9.0469 Q468.1719 9.7656 467.6016 11.1641 Q467.0312 12.5625 467 15.1406 Q467.7656 13.9844 468.8672 13.4219 Q469.9688 12.8594 471.1719 12.8594 Q473.2812 12.8594 474.7656 14.4062 Q476.25 15.9531 476.25 18.4219 Q476.25 20.0312 475.5547 21.4219 Q474.8594 22.8125 473.6406 23.5547 Q472.4219 24.2969 470.875 24.2969 Q468.2344 24.2969 466.5703 22.3516 Q464.9062 20.4062 464.9062 15.9531 Q464.9062 10.9844 466.75 8.7188 Q468.3438 6.75 471.0625 6.75 Q473.0938 6.75 474.3906 7.8828 Q475.6875 9.0156 475.9375 11.0312 ZM467.3281 18.4375 Q467.3281 19.5156 467.7891 20.5156 Q468.25 21.5156 469.0859 22.0391 Q469.9219 22.5625 470.8281 22.5625 Q472.1719 22.5625 473.1328 21.4844 Q474.0938 20.4062 474.0938 18.5469 Q474.0938 16.7656 473.1406 15.7422 Q472.1875 14.7188 470.75 14.7188 Q469.3281 14.7188 468.3281 15.7422 Q467.3281 16.7656 467.3281 18.4375 Z" stroke="none"/><path d="M545.1406 9.0625 L545.1406 7.0469 L556.2656 7.0469 L556.2656 8.6875 Q554.625 10.4219 553.0078 13.3203 Q551.3906 16.2188 550.5156 19.2812 Q549.8906 21.4375 549.7031 24 L547.5469 24 Q547.5781 21.9688 548.3359 19.1016 Q549.0938 16.2344 550.5234 13.5625 Q551.9531 10.8906 553.5469 9.0625 L545.1406 9.0625 Z" stroke="none"/></g><g fill="rgb(30,144,255)" font-size="24px" font-family="'Arial'" stroke="rgb(30,144,255)"><circle r="16" clip-path="url(#clipPath1)" cx="54" cy="54" stroke="none"/><circle fill="none" r="16" clip-path="url(#clipPath1)" cx="54" cy="54" stroke="black"/><path fill="black" d="M38.9688 63 L45.8438 45.1094 L48.3906 45.1094 L55.7188 63 L53.0156 63 L50.9219 57.5781 L43.4375 57.5781 L41.4844 63 L38.9688 63 ZM44.125 55.6562 L50.1875 55.6562 L48.3281 50.6875 Q47.4688 48.4375 47.0625 46.9844 Q46.7188 48.7031 46.0938 50.4062 L44.125 55.6562 ZM64.9873 63 L62.7842 63 L62.7842 49 Q62.0029 49.75 60.7139 50.5078 Q59.4248 51.2656 58.3936 51.6406 L58.3936 49.5156 Q60.2373 48.6562 61.6201 47.4219 Q63.0029 46.1875 63.5654 45.0312 L64.9873 45.0312 L64.9873 63 Z" clip-path="url(#clipPath2)" stroke="none"/><circle fill="rgb(144,238,144)" r="16" clip-path="url(#clipPath3)" cx="534" cy="534" stroke="none"/><circle fill="none" r="16" clip-path="url(#clipPath3)" cx="534" cy="534" stroke="black"/><path fill="black" d="M521.6875 542 L521.6875 525.5312 L527.8594 525.5312 Q529.75 525.5312 530.8906 526.0312 Q532.0312 526.5312 532.6719 527.5703 Q533.3125 528.6094 533.3125 529.75 Q533.3125 530.7969 532.7422 531.7344 Q532.1719 532.6719 531.0156 533.2344 Q532.5156 533.6719 533.3125 534.7344 Q534.1094 535.7969 534.1094 537.2344 Q534.1094 538.3906 533.625 539.3828 Q533.1406 540.375 532.4219 540.9141 Q531.7031 541.4531 530.6172 541.7266 Q529.5312 542 527.9688 542 L521.6875 542 ZM523.8594 532.4531 L527.4219 532.4531 Q528.875 532.4531 529.5 532.2656 Q530.3281 532.0156 530.75 531.4453 Q531.1719 530.875 531.1719 530 Q531.1719 529.1875 530.7812 528.5625 Q530.3906 527.9375 529.6562 527.7109 Q528.9219 527.4844 527.1562 527.4844 L523.8594 527.4844 L523.8594 532.4531 ZM523.8594 540.0625 L527.9688 540.0625 Q529.0156 540.0625 529.4375 539.9844 Q530.2031 539.8438 530.7031 539.5312 Q531.2031 539.2188 531.5312 538.6172 Q531.8594 538.0156 531.8594 537.2344 Q531.8594 536.3125 531.3906 535.6328 Q530.9219 534.9531 530.0859 534.6719 Q529.25 534.3906 527.6719 534.3906 L523.8594 534.3906 L523.8594 540.0625 ZM543.9033 542 L541.8877 542 L541.8877 529.125 Q541.1533 529.8125 539.9736 530.5078 Q538.7939 531.2031 537.8408 531.5625 L537.8408 529.5938 Q539.5439 528.7969 540.8096 527.6641 Q542.0752 526.5312 542.6064 525.4688 L543.9033 525.4688 L543.9033 542 Z" clip-path="url(#clipPath4)" stroke="none"/><circle fill="rgb(250,128,114)" r="16" clip-path="url(#clipPath5)" cx="534" cy="54" stroke="none"/><circle fill="none" r="16" clip-path="url(#clipPath5)" cx="534" cy="54" stroke="black"/><path fill="black" d="M532.5156 56.2344 L534.7031 56.7812 Q534.0156 59.4688 532.2344 60.875 Q530.4531 62.2812 527.8906 62.2812 Q525.2188 62.2812 523.5547 61.1953 Q521.8906 60.1094 521.0156 58.0547 Q520.1406 56 520.1406 53.6406 Q520.1406 51.0781 521.125 49.1641 Q522.1094 47.25 523.9219 46.25 Q525.7344 45.25 527.9219 45.25 Q530.3906 45.25 532.0703 46.5078 Q533.75 47.7656 534.4219 50.0469 L532.2812 50.5625 Q531.7031 48.7656 530.6094 47.9453 Q529.5156 47.125 527.875 47.125 Q525.9688 47.125 524.6953 48.0312 Q523.4219 48.9375 522.9062 50.4688 Q522.3906 52 522.3906 53.6406 Q522.3906 55.7344 523 57.2969 Q523.6094 58.8594 524.9062 59.6406 Q526.2031 60.4219 527.7031 60.4219 Q529.5312 60.4219 530.8047 59.3672 Q532.0781 58.3125 532.5156 56.2344 ZM544.1724 62 L542.1567 62 L542.1567 49.125 Q541.4224 49.8125 540.2427 50.5078 Q539.063 51.2031 538.1099 51.5625 L538.1099 49.5938 Q539.813 48.7969 541.0786 47.6641 Q542.3442 46.5312 542.8755 45.4688 L544.1724 45.4688 L544.1724 62 Z" clip-path="url(#clipPath6)" stroke="none"/><circle fill="rgb(165,42,42)" r="16" clip-path="url(#clipPath7)" cx="54" cy="534" stroke="none"/><circle fill="none" r="16" clip-path="url(#clipPath7)" cx="54" cy="534" stroke="black"/><path fill="black" d="M40.7812 542 L40.7812 525.5312 L46.4531 525.5312 Q48.3594 525.5312 49.375 525.7656 Q50.7969 526.0938 51.7969 526.9531 Q53.0938 528.0469 53.7422 529.7656 Q54.3906 531.4844 54.3906 533.6719 Q54.3906 535.5469 53.9531 537 Q53.5156 538.4531 52.8281 539.3984 Q52.1406 540.3438 51.3281 540.8906 Q50.5156 541.4375 49.3594 541.7188 Q48.2031 542 46.7188 542 L40.7812 542 ZM42.9531 540.0625 L46.4688 540.0625 Q48.0938 540.0625 49.0234 539.7578 Q49.9531 539.4531 50.5 538.9062 Q51.2812 538.125 51.7109 536.8203 Q52.1406 535.5156 52.1406 533.6406 Q52.1406 531.0625 51.2891 529.6719 Q50.4375 528.2812 49.2344 527.8125 Q48.3594 527.4844 46.4062 527.4844 L42.9531 527.4844 L42.9531 540.0625 ZM64.1724 542 L62.1567 542 L62.1567 529.125 Q61.4224 529.8125 60.2427 530.5078 Q59.063 531.2031 58.1099 531.5625 L58.1099 529.5938 Q59.813 528.7969 61.0786 527.6641 Q62.3442 526.5312 62.8755 525.4688 L64.1724 525.4688 L64.1724 542 Z" clip-path="url(#clipPath8)" stroke="none"/><circle r="16" clip-path="url(#clipPath9)" cx="134" cy="134" stroke="none"/><circle fill="none" r="16" clip-path="url(#clipPath9)" cx="134" cy="134" stroke="black"/><path fill="black" d="M118.9688 143 L125.8438 125.1094 L128.3906 125.1094 L135.7188 143 L133.0156 143 L130.9219 137.5781 L123.4375 137.5781 L121.4844 143 L118.9688 143 ZM124.125 135.6562 L130.1875 135.6562 L128.3281 130.6875 Q127.4688 128.4375 127.0625 126.9844 Q126.7188 128.7031 126.0938 130.4062 L124.125 135.6562 ZM148.2529 140.8906 L148.2529 143 L136.4248 143 Q136.4092 142.2031 136.6904 141.4688 Q137.1436 140.2656 138.1357 139.0938 Q139.1279 137.9219 141.0029 136.3906 Q143.9248 133.9844 144.9482 132.5938 Q145.9717 131.2031 145.9717 129.9531 Q145.9717 128.6406 145.042 127.7422 Q144.1123 126.8438 142.6123 126.8438 Q141.0186 126.8438 140.0654 127.7969 Q139.1123 128.75 139.1123 130.4375 L136.8467 130.2031 Q137.0811 127.6875 138.5967 126.3594 Q140.1123 125.0312 142.6592 125.0312 Q145.2373 125.0312 146.7373 126.4609 Q148.2373 127.8906 148.2373 130 Q148.2373 131.0781 147.7998 132.1172 Q147.3623 133.1562 146.3389 134.2969 Q145.3154 135.4375 142.9561 137.4531 Q140.9717 139.1094 140.4092 139.7031 Q139.8467 140.2969 139.4873 140.8906 L148.2529 140.8906 Z" clip-path="url(#clipPath10)" stroke="none"/><circle fill="rgb(144,238,144)" r="16" clip-path="url(#clipPath11)" cx="454" cy="454" stroke="none"/><circle fill="none" r="16" clip-path="url(#clipPath11)" cx="454" cy="454" stroke="black"/><path fill="black" d="M441.6875 462 L441.6875 445.5312 L447.8594 445.5312 Q449.75 445.5312 450.8906 446.0312 Q452.0312 446.5312 452.6719 447.5703 Q453.3125 448.6094 453.3125 449.75 Q453.3125 450.7969 452.7422 451.7344 Q452.1719 452.6719 451.0156 453.2344 Q452.5156 453.6719 453.3125 454.7344 Q454.1094 455.7969 454.1094 457.2344 Q454.1094 458.3906 453.625 459.3828 Q453.1406 460.375 452.4219 460.9141 Q451.7031 461.4531 450.6172 461.7266 Q449.5312 462 447.9688 462 L441.6875 462 ZM443.8594 452.4531 L447.4219 452.4531 Q448.875 452.4531 449.5 452.2656 Q450.3281 452.0156 450.75 451.4453 Q451.1719 450.875 451.1719 450 Q451.1719 449.1875 450.7812 448.5625 Q450.3906 447.9375 449.6562 447.7109 Q448.9219 447.4844 447.1562 447.4844 L443.8594 447.4844 L443.8594 452.4531 ZM443.8594 460.0625 L447.9688 460.0625 Q449.0156 460.0625 449.4375 459.9844 Q450.2031 459.8438 450.7031 459.5312 Q451.2031 459.2188 451.5312 458.6172 Q451.8594 458.0156 451.8594 457.2344 Q451.8594 456.3125 451.3906 455.6328 Q450.9219 454.9531 450.0859 454.6719 Q449.25 454.3906 447.6719 454.3906 L443.8594 454.3906 L443.8594 460.0625 ZM466.9189 460.0625 L466.9189 462 L456.0439 462 Q456.0127 461.2656 456.2783 460.5938 Q456.6846 459.4844 457.5986 458.4062 Q458.5127 457.3281 460.2471 455.9062 Q462.9346 453.7188 463.8799 452.4297 Q464.8252 451.1406 464.8252 450 Q464.8252 448.7969 463.9658 447.9688 Q463.1064 447.1406 461.7158 447.1406 Q460.2627 447.1406 459.3877 448.0156 Q458.5127 448.8906 458.4971 450.4375 L456.4189 450.2344 Q456.6377 447.9062 458.0283 446.6875 Q459.4189 445.4688 461.7627 445.4688 Q464.1377 445.4688 465.5205 446.7812 Q466.9033 448.0938 466.9033 450.0469 Q466.9033 451.0312 466.4971 451.9844 Q466.0908 452.9375 465.1533 453.9922 Q464.2158 455.0469 462.0283 456.8906 Q460.2158 458.4219 459.7002 458.9609 Q459.1846 459.5 458.8408 460.0625 L466.9189 460.0625 Z" clip-path="url(#clipPath12)" stroke="none"/><circle fill="rgb(250,128,114)" r="16" clip-path="url(#clipPath13)" cx="450" cy="130" stroke="none"/><circle fill="none" r="16" clip-path="url(#clipPath13)" cx="450" cy="130" stroke="black"/><path fill="black" d="M448.5156 132.2344 L450.7031 132.7812 Q450.0156 135.4688 448.2344 136.875 Q446.4531 138.2812 443.8906 138.2812 Q441.2188 138.2812 439.5547 137.1953 Q437.8906 136.1094 437.0156 134.0547 Q436.1406 132 436.1406 129.6406 Q436.1406 127.0781 437.125 125.1641 Q438.1094 123.25 439.9219 122.25 Q441.7344 121.25 443.9219 121.25 Q446.3906 121.25 448.0703 122.5078 Q449.75 123.7656 450.4219 126.0469 L448.2812 126.5625 Q447.7031 124.7656 446.6094 123.9453 Q445.5156 123.125 443.875 123.125 Q441.9688 123.125 440.6953 124.0312 Q439.4219 124.9375 438.9062 126.4688 Q438.3906 128 438.3906 129.6406 Q438.3906 131.7344 439 133.2969 Q439.6094 134.8594 440.9062 135.6406 Q442.2031 136.4219 443.7031 136.4219 Q445.5312 136.4219 446.8047 135.3672 Q448.0781 134.3125 448.5156 132.2344 ZM463.188 136.0625 L463.188 138 L452.313 138 Q452.2817 137.2656 452.5474 136.5938 Q452.9536 135.4844 453.8677 134.4062 Q454.7817 133.3281 456.5161 131.9062 Q459.2036 129.7188 460.1489 128.4297 Q461.0942 127.1406 461.0942 126 Q461.0942 124.7969 460.2349 123.9688 Q459.3755 123.1406 457.9849 123.1406 Q456.5317 123.1406 455.6567 124.0156 Q454.7817 124.8906 454.7661 126.4375 L452.688 126.2344 Q452.9067 123.9062 454.2974 122.6875 Q455.688 121.4688 458.0317 121.4688 Q460.4067 121.4688 461.7896 122.7812 Q463.1724 124.0938 463.1724 126.0469 Q463.1724 127.0312 462.7661 127.9844 Q462.3599 128.9375 461.4224 129.9922 Q460.4849 131.0469 458.2974 132.8906 Q456.4849 134.4219 455.9692 134.9609 Q455.4536 135.5 455.1099 136.0625 L463.188 136.0625 Z" clip-path="url(#clipPath14)" stroke="none"/><circle fill="rgb(165,42,42)" r="16" clip-path="url(#clipPath15)" cx="134" cy="454" stroke="none"/><circle fill="none" r="16" clip-path="url(#clipPath15)" cx="134" cy="454" stroke="black"/><path fill="black" d="M120.7812 462 L120.7812 445.5312 L126.4531 445.5312 Q128.3594 445.5312 129.375 445.7656 Q130.7969 446.0938 131.7969 446.9531 Q133.0938 448.0469 133.7422 449.7656 Q134.3906 451.4844 134.3906 453.6719 Q134.3906 455.5469 133.9531 457 Q133.5156 458.4531 132.8281 459.3984 Q132.1406 460.3438 131.3281 460.8906 Q130.5156 461.4375 129.3594 461.7188 Q128.2031 462 126.7188 462 L120.7812 462 ZM122.9531 460.0625 L126.4688 460.0625 Q128.0938 460.0625 129.0234 459.7578 Q129.9531 459.4531 130.5 458.9062 Q131.2812 458.125 131.7109 456.8203 Q132.1406 455.5156 132.1406 453.6406 Q132.1406 451.0625 131.2891 449.6719 Q130.4375 448.2812 129.2344 447.8125 Q128.3594 447.4844 126.4062 447.4844 L122.9531 447.4844 L122.9531 460.0625 ZM147.188 460.0625 L147.188 462 L136.313 462 Q136.2817 461.2656 136.5474 460.5938 Q136.9536 459.4844 137.8677 458.4062 Q138.7817 457.3281 140.5161 455.9062 Q143.2036 453.7188 144.1489 452.4297 Q145.0942 451.1406 145.0942 450 Q145.0942 448.7969 144.2349 447.9688 Q143.3755 447.1406 141.9849 447.1406 Q140.5317 447.1406 139.6567 448.0156 Q138.7817 448.8906 138.7661 450.4375 L136.688 450.2344 Q136.9067 447.9062 138.2974 446.6875 Q139.688 445.4688 142.0317 445.4688 Q144.4067 445.4688 145.7896 446.7812 Q147.1724 448.0938 147.1724 450.0469 Q147.1724 451.0312 146.7661 451.9844 Q146.3599 452.9375 145.4224 453.9922 Q144.4849 455.0469 142.2974 456.8906 Q140.4849 458.4219 139.9692 458.9609 Q139.4536 459.5 139.1099 460.0625 L147.188 460.0625 Z" clip-path="url(#clipPath16)" stroke="none"/><circle r="16" clip-path="url(#clipPath17)" cx="230" cy="230" stroke="none"/><circle fill="none" r="16" clip-path="url(#clipPath17)" cx="230" cy="230" stroke="black"/><path fill="black" d="M214.9688 239 L221.8438 221.1094 L224.3906 221.1094 L231.7188 239 L229.0156 239 L226.9219 233.5781 L219.4375 233.5781 L217.4844 239 L214.9688 239 ZM220.125 231.6562 L226.1875 231.6562 L224.3281 226.6875 Q223.4688 224.4375 223.0625 222.9844 Q222.7188 224.7031 222.0938 226.4062 L220.125 231.6562 ZM232.7217 234.2812 L234.9248 233.9844 Q235.2998 235.8438 236.2061 236.6719 Q237.1123 237.5 238.4248 237.5 Q239.9717 237.5 241.042 236.4219 Q242.1123 235.3438 242.1123 233.7656 Q242.1123 232.25 241.1201 231.2656 Q240.1279 230.2812 238.6123 230.2812 Q237.9873 230.2812 237.0654 230.5312 L237.2998 228.5938 Q237.5186 228.625 237.6592 228.625 Q239.0654 228.625 240.1826 227.8906 Q241.2998 227.1562 241.2998 225.6406 Q241.2998 224.4219 240.4873 223.6328 Q239.6748 222.8438 238.3779 222.8438 Q237.0967 222.8438 236.2451 223.6484 Q235.3936 224.4531 235.1436 226.0625 L232.9404 225.6719 Q233.3467 223.4531 234.7764 222.2422 Q236.2061 221.0312 238.3311 221.0312 Q239.7998 221.0312 241.0264 221.6562 Q242.2529 222.2812 242.9092 223.375 Q243.5654 224.4688 243.5654 225.6875 Q243.5654 226.8438 242.9404 227.7969 Q242.3154 228.75 241.0967 229.3125 Q242.6904 229.6719 243.5654 230.8281 Q244.4404 231.9844 244.4404 233.7188 Q244.4404 236.0625 242.7295 237.6875 Q241.0186 239.3125 238.4092 239.3125 Q236.0498 239.3125 234.4951 237.9141 Q232.9404 236.5156 232.7217 234.2812 Z" clip-path="url(#clipPath18)" stroke="none"/><circle fill="rgb(144,238,144)" r="16" clip-path="url(#clipPath19)" cx="374" cy="374" stroke="none"/><circle fill="none" r="16" clip-path="url(#clipPath19)" cx="374" cy="374" stroke="black"/><path fill="black" d="M361.6875 382 L361.6875 365.5312 L367.8594 365.5312 Q369.75 365.5312 370.8906 366.0312 Q372.0312 366.5312 372.6719 367.5703 Q373.3125 368.6094 373.3125 369.75 Q373.3125 370.7969 372.7422 371.7344 Q372.1719 372.6719 371.0156 373.2344 Q372.5156 373.6719 373.3125 374.7344 Q374.1094 375.7969 374.1094 377.2344 Q374.1094 378.3906 373.625 379.3828 Q373.1406 380.375 372.4219 380.9141 Q371.7031 381.4531 370.6172 381.7266 Q369.5312 382 367.9688 382 L361.6875 382 ZM363.8594 372.4531 L367.4219 372.4531 Q368.875 372.4531 369.5 372.2656 Q370.3281 372.0156 370.75 371.4453 Q371.1719 370.875 371.1719 370 Q371.1719 369.1875 370.7812 368.5625 Q370.3906 367.9375 369.6562 367.7109 Q368.9219 367.4844 367.1562 367.4844 L363.8594 367.4844 L363.8594 372.4531 ZM363.8594 380.0625 L367.9688 380.0625 Q369.0156 380.0625 369.4375 379.9844 Q370.2031 379.8438 370.7031 379.5312 Q371.2031 379.2188 371.5312 378.6172 Q371.8594 378.0156 371.8594 377.2344 Q371.8594 376.3125 371.3906 375.6328 Q370.9219 374.9531 370.0859 374.6719 Q369.25 374.3906 367.6719 374.3906 L363.8594 374.3906 L363.8594 380.0625 ZM376.3096 377.6562 L378.3252 377.3906 Q378.6689 379.1094 379.5127 379.8672 Q380.3564 380.625 381.5439 380.625 Q382.9814 380.625 383.9658 379.6328 Q384.9502 378.6406 384.9502 377.1875 Q384.9502 375.7969 384.0361 374.8906 Q383.1221 373.9844 381.7158 373.9844 Q381.1533 373.9844 380.2939 374.2031 L380.5127 372.4375 Q380.7158 372.4531 380.8408 372.4531 Q382.1377 372.4531 383.1689 371.7812 Q384.2002 371.1094 384.2002 369.7031 Q384.2002 368.5938 383.4502 367.8594 Q382.7002 367.125 381.5127 367.125 Q380.3252 367.125 379.5439 367.8672 Q378.7627 368.6094 378.5283 370.0938 L376.5127 369.7344 Q376.8721 367.7031 378.1924 366.5859 Q379.5127 365.4688 381.4658 365.4688 Q382.8096 365.4688 383.9424 366.0469 Q385.0752 366.625 385.6768 367.625 Q386.2783 368.625 386.2783 369.75 Q386.2783 370.8125 385.708 371.6875 Q385.1377 372.5625 384.0127 373.0781 Q385.4658 373.4219 386.2783 374.4844 Q387.0908 375.5469 387.0908 377.1406 Q387.0908 379.2969 385.5205 380.7969 Q383.9502 382.2969 381.5439 382.2969 Q379.3721 382.2969 377.9424 381 Q376.5127 379.7031 376.3096 377.6562 Z" clip-path="url(#clipPath20)" stroke="none"/><circle fill="rgb(250,128,114)" r="16" clip-path="url(#clipPath21)" cx="490" cy="130" stroke="none"/><circle fill="none" r="16" clip-path="url(#clipPath21)" cx="490" cy="130" stroke="black"/><path fill="black" d="M488.5156 132.2344 L490.7031 132.7812 Q490.0156 135.4688 488.2344 136.875 Q486.4531 138.2812 483.8906 138.2812 Q481.2188 138.2812 479.5547 137.1953 Q477.8906 136.1094 477.0156 134.0547 Q476.1406 132 476.1406 129.6406 Q476.1406 127.0781 477.125 125.1641 Q478.1094 123.25 479.9219 122.25 Q481.7344 121.25 483.9219 121.25 Q486.3906 121.25 488.0703 122.5078 Q489.75 123.7656 490.4219 126.0469 L488.2812 126.5625 Q487.7031 124.7656 486.6094 123.9453 Q485.5156 123.125 483.875 123.125 Q481.9688 123.125 480.6953 124.0312 Q479.4219 124.9375 478.9062 126.4688 Q478.3906 128 478.3906 129.6406 Q478.3906 131.7344 479 133.2969 Q479.6094 134.8594 480.9062 135.6406 Q482.2031 136.4219 483.7031 136.4219 Q485.5312 136.4219 486.8047 135.3672 Q488.0781 134.3125 488.5156 132.2344 ZM492.5786 133.6562 L494.5942 133.3906 Q494.938 135.1094 495.7817 135.8672 Q496.6255 136.625 497.813 136.625 Q499.2505 136.625 500.2349 135.6328 Q501.2192 134.6406 501.2192 133.1875 Q501.2192 131.7969 500.3052 130.8906 Q499.3911 129.9844 497.9849 129.9844 Q497.4224 129.9844 496.563 130.2031 L496.7817 128.4375 Q496.9849 128.4531 497.1099 128.4531 Q498.4067 128.4531 499.438 127.7812 Q500.4692 127.1094 500.4692 125.7031 Q500.4692 124.5938 499.7192 123.8594 Q498.9692 123.125 497.7817 123.125 Q496.5942 123.125 495.813 123.8672 Q495.0317 124.6094 494.7974 126.0938 L492.7817 125.7344 Q493.1411 123.7031 494.4614 122.5859 Q495.7817 121.4688 497.7349 121.4688 Q499.0786 121.4688 500.2114 122.0469 Q501.3442 122.625 501.9458 123.625 Q502.5474 124.625 502.5474 125.75 Q502.5474 126.8125 501.9771 127.6875 Q501.4067 128.5625 500.2817 129.0781 Q501.7349 129.4219 502.5474 130.4844 Q503.3599 131.5469 503.3599 133.1406 Q503.3599 135.2969 501.7896 136.7969 Q500.2192 138.2969 497.813 138.2969 Q495.6411 138.2969 494.2114 137 Q492.7817 135.7031 492.5786 133.6562 Z" clip-path="url(#clipPath22)" stroke="none"/><circle fill="rgb(165,42,42)" r="16" clip-path="url(#clipPath23)" cx="214" cy="374" stroke="none"/><circle fill="none" r="16" clip-path="url(#clipPath23)" cx="214" cy="374" stroke="black"/><path fill="black" d="M200.7812 382 L200.7812 365.5312 L206.4531 365.5312 Q208.3594 365.5312 209.375 365.7656 Q210.7969 366.0938 211.7969 366.9531 Q213.0938 368.0469 213.7422 369.7656 Q214.3906 371.4844 214.3906 373.6719 Q214.3906 375.5469 213.9531 377 Q213.5156 378.4531 212.8281 379.3984 Q212.1406 380.3438 211.3281 380.8906 Q210.5156 381.4375 209.3594 381.7188 Q208.2031 382 206.7188 382 L200.7812 382 ZM202.9531 380.0625 L206.4688 380.0625 Q208.0938 380.0625 209.0234 379.7578 Q209.9531 379.4531 210.5 378.9062 Q211.2812 378.125 211.7109 376.8203 Q212.1406 375.5156 212.1406 373.6406 Q212.1406 371.0625 211.2891 369.6719 Q210.4375 368.2812 209.2344 367.8125 Q208.3594 367.4844 206.4062 367.4844 L202.9531 367.4844 L202.9531 380.0625 ZM216.5786 377.6562 L218.5942 377.3906 Q218.938 379.1094 219.7817 379.8672 Q220.6255 380.625 221.813 380.625 Q223.2505 380.625 224.2349 379.6328 Q225.2192 378.6406 225.2192 377.1875 Q225.2192 375.7969 224.3052 374.8906 Q223.3911 373.9844 221.9849 373.9844 Q221.4224 373.9844 220.563 374.2031 L220.7817 372.4375 Q220.9849 372.4531 221.1099 372.4531 Q222.4067 372.4531 223.438 371.7812 Q224.4692 371.1094 224.4692 369.7031 Q224.4692 368.5938 223.7192 367.8594 Q222.9692 367.125 221.7817 367.125 Q220.5942 367.125 219.813 367.8672 Q219.0317 368.6094 218.7974 370.0938 L216.7817 369.7344 Q217.1411 367.7031 218.4614 366.5859 Q219.7817 365.4688 221.7349 365.4688 Q223.0786 365.4688 224.2114 366.0469 Q225.3442 366.625 225.9458 367.625 Q226.5474 368.625 226.5474 369.75 Q226.5474 370.8125 225.9771 371.6875 Q225.4067 372.5625 224.2817 373.0781 Q225.7349 373.4219 226.5474 374.4844 Q227.3599 375.5469 227.3599 377.1406 Q227.3599 379.2969 225.7896 380.7969 Q224.2192 382.2969 221.813 382.2969 Q219.6411 382.2969 218.2114 381 Q216.7817 379.7031 216.5786 377.6562 Z" clip-path="url(#clipPath24)" stroke="none"/><circle r="16" clip-path="url(#clipPath25)" cx="294" cy="294" stroke="none"/><circle fill="none" r="16" clip-path="url(#clipPath25)" cx="294" cy="294" stroke="black"/><path fill="black" d="M278.9688 303 L285.8438 285.1094 L288.3906 285.1094 L295.7188 303 L293.0156 303 L290.9219 297.5781 L283.4375 297.5781 L281.4844 303 L278.9688 303 ZM284.125 295.6562 L290.1875 295.6562 L288.3281 290.6875 Q287.4688 288.4375 287.0625 286.9844 Q286.7188 288.7031 286.0938 290.4062 L284.125 295.6562 ZM303.7529 303 L303.7529 298.7188 L295.9873 298.7188 L295.9873 296.7031 L304.1592 285.1094 L305.9561 285.1094 L305.9561 296.7031 L308.3779 296.7031 L308.3779 298.7188 L305.9561 298.7188 L305.9561 303 L303.7529 303 ZM303.7529 296.7031 L303.7529 288.625 L298.1592 296.7031 L303.7529 296.7031 Z" clip-path="url(#clipPath26)" stroke="none"/><circle fill="rgb(144,238,144)" r="16" clip-path="url(#clipPath27)" cx="310" cy="390" stroke="none"/><circle fill="none" r="16" clip-path="url(#clipPath27)" cx="310" cy="390" stroke="black"/><path fill="black" d="M297.6875 398 L297.6875 381.5312 L303.8594 381.5312 Q305.75 381.5312 306.8906 382.0312 Q308.0312 382.5312 308.6719 383.5703 Q309.3125 384.6094 309.3125 385.75 Q309.3125 386.7969 308.7422 387.7344 Q308.1719 388.6719 307.0156 389.2344 Q308.5156 389.6719 309.3125 390.7344 Q310.1094 391.7969 310.1094 393.2344 Q310.1094 394.3906 309.625 395.3828 Q309.1406 396.375 308.4219 396.9141 Q307.7031 397.4531 306.6172 397.7266 Q305.5312 398 303.9688 398 L297.6875 398 ZM299.8594 388.4531 L303.4219 388.4531 Q304.875 388.4531 305.5 388.2656 Q306.3281 388.0156 306.75 387.4453 Q307.1719 386.875 307.1719 386 Q307.1719 385.1875 306.7812 384.5625 Q306.3906 383.9375 305.6562 383.7109 Q304.9219 383.4844 303.1562 383.4844 L299.8594 383.4844 L299.8594 388.4531 ZM299.8594 396.0625 L303.9688 396.0625 Q305.0156 396.0625 305.4375 395.9844 Q306.2031 395.8438 306.7031 395.5312 Q307.2031 395.2188 307.5312 394.6172 Q307.8594 394.0156 307.8594 393.2344 Q307.8594 392.3125 307.3906 391.6328 Q306.9219 390.9531 306.0859 390.6719 Q305.25 390.3906 303.6719 390.3906 L299.8594 390.3906 L299.8594 396.0625 ZM318.7783 398 L318.7783 394.0625 L311.6377 394.0625 L311.6377 392.2031 L319.1533 381.5312 L320.7939 381.5312 L320.7939 392.2031 L323.0283 392.2031 L323.0283 394.0625 L320.7939 394.0625 L320.7939 398 L318.7783 398 ZM318.7783 392.2031 L318.7783 384.7812 L313.6221 392.2031 L318.7783 392.2031 Z" clip-path="url(#clipPath28)" stroke="none"/><circle fill="rgb(250,128,114)" r="16" clip-path="url(#clipPath29)" cx="374" cy="214" stroke="none"/><circle fill="none" r="16" clip-path="url(#clipPath29)" cx="374" cy="214" stroke="black"/><path fill="black" d="M372.5156 216.2344 L374.7031 216.7812 Q374.0156 219.4688 372.2344 220.875 Q370.4531 222.2812 367.8906 222.2812 Q365.2188 222.2812 363.5547 221.1953 Q361.8906 220.1094 361.0156 218.0547 Q360.1406 216 360.1406 213.6406 Q360.1406 211.0781 361.125 209.1641 Q362.1094 207.25 363.9219 206.25 Q365.7344 205.25 367.9219 205.25 Q370.3906 205.25 372.0703 206.5078 Q373.75 207.7656 374.4219 210.0469 L372.2812 210.5625 Q371.7031 208.7656 370.6094 207.9453 Q369.5156 207.125 367.875 207.125 Q365.9688 207.125 364.6953 208.0312 Q363.4219 208.9375 362.9062 210.4688 Q362.3906 212 362.3906 213.6406 Q362.3906 215.7344 363 217.2969 Q363.6094 218.8594 364.9062 219.6406 Q366.2031 220.4219 367.7031 220.4219 Q369.5312 220.4219 370.8047 219.3672 Q372.0781 218.3125 372.5156 216.2344 ZM383.0474 222 L383.0474 218.0625 L375.9067 218.0625 L375.9067 216.2031 L383.4224 205.5312 L385.063 205.5312 L385.063 216.2031 L387.2974 216.2031 L387.2974 218.0625 L385.063 218.0625 L385.063 222 L383.0474 222 ZM383.0474 216.2031 L383.0474 208.7812 L377.8911 216.2031 L383.0474 216.2031 Z" clip-path="url(#clipPath30)" stroke="none"/><circle fill="rgb(165,42,42)" r="16" clip-path="url(#clipPath31)" cx="246" cy="406" stroke="none"/><circle fill="none" r="16" clip-path="url(#clipPath31)" cx="246" cy="406" stroke="black"/><path fill="black" d="M232.7812 414 L232.7812 397.5312 L238.4531 397.5312 Q240.3594 397.5312 241.375 397.7656 Q242.7969 398.0938 243.7969 398.9531 Q245.0938 400.0469 245.7422 401.7656 Q246.3906 403.4844 246.3906 405.6719 Q246.3906 407.5469 245.9531 409 Q245.5156 410.4531 244.8281 411.3984 Q244.1406 412.3438 243.3281 412.8906 Q242.5156 413.4375 241.3594 413.7188 Q240.2031 414 238.7188 414 L232.7812 414 ZM234.9531 412.0625 L238.4688 412.0625 Q240.0938 412.0625 241.0234 411.7578 Q241.9531 411.4531 242.5 410.9062 Q243.2812 410.125 243.7109 408.8203 Q244.1406 407.5156 244.1406 405.6406 Q244.1406 403.0625 243.2891 401.6719 Q242.4375 400.2812 241.2344 399.8125 Q240.3594 399.4844 238.4062 399.4844 L234.9531 399.4844 L234.9531 412.0625 ZM255.0474 414 L255.0474 410.0625 L247.9067 410.0625 L247.9067 408.2031 L255.4224 397.5312 L257.063 397.5312 L257.063 408.2031 L259.2974 408.2031 L259.2974 410.0625 L257.063 410.0625 L257.063 414 L255.0474 414 ZM255.0474 408.2031 L255.0474 400.7812 L249.8911 408.2031 L255.0474 408.2031 Z" clip-path="url(#clipPath32)" stroke="none"/><circle r="16" clip-path="url(#clipPath33)" cx="406" cy="406" stroke="none"/><circle fill="none" r="16" clip-path="url(#clipPath33)" cx="406" cy="406" stroke="black"/><path fill="black" d="M390.9688 415 L397.8438 397.1094 L400.3906 397.1094 L407.7188 415 L405.0156 415 L402.9219 409.5781 L395.4375 409.5781 L393.4844 415 L390.9688 415 ZM396.125 407.6562 L402.1875 407.6562 L400.3281 402.6875 Q399.4688 400.4375 399.0625 398.9844 Q398.7188 400.7031 398.0938 402.4062 L396.125 407.6562 ZM408.7061 410.3125 L411.0186 410.1094 Q411.2686 411.7969 412.2061 412.6484 Q413.1436 413.5 414.4561 413.5 Q416.0498 413.5 417.1514 412.3047 Q418.2529 411.1094 418.2529 409.125 Q418.2529 407.25 417.1904 406.1641 Q416.1279 405.0781 414.4248 405.0781 Q413.3623 405.0781 412.5107 405.5625 Q411.6592 406.0469 411.1592 406.8125 L409.0967 406.5469 L410.8311 397.3438 L419.7373 397.3438 L419.7373 399.4531 L412.5967 399.4531 L411.6279 404.25 Q413.2373 403.1406 415.0186 403.1406 Q417.3623 403.1406 418.9717 404.7578 Q420.5811 406.375 420.5811 408.9375 Q420.5811 411.3594 419.1592 413.125 Q417.4404 415.3125 414.4561 415.3125 Q412.0186 415.3125 410.4717 413.9453 Q408.9248 412.5781 408.7061 410.3125 Z" clip-path="url(#clipPath34)" stroke="none"/><circle fill="rgb(144,238,144)" r="16" clip-path="url(#clipPath35)" cx="214" cy="294" stroke="none"/><circle fill="none" r="16" clip-path="url(#clipPath35)" cx="214" cy="294" stroke="black"/><path fill="black" d="M201.6875 302 L201.6875 285.5312 L207.8594 285.5312 Q209.75 285.5312 210.8906 286.0312 Q212.0312 286.5312 212.6719 287.5703 Q213.3125 288.6094 213.3125 289.75 Q213.3125 290.7969 212.7422 291.7344 Q212.1719 292.6719 211.0156 293.2344 Q212.5156 293.6719 213.3125 294.7344 Q214.1094 295.7969 214.1094 297.2344 Q214.1094 298.3906 213.625 299.3828 Q213.1406 300.375 212.4219 300.9141 Q211.7031 301.4531 210.6172 301.7266 Q209.5312 302 207.9688 302 L201.6875 302 ZM203.8594 292.4531 L207.4219 292.4531 Q208.875 292.4531 209.5 292.2656 Q210.3281 292.0156 210.75 291.4453 Q211.1719 290.875 211.1719 290 Q211.1719 289.1875 210.7812 288.5625 Q210.3906 287.9375 209.6562 287.7109 Q208.9219 287.4844 207.1562 287.4844 L203.8594 287.4844 L203.8594 292.4531 ZM203.8594 300.0625 L207.9688 300.0625 Q209.0156 300.0625 209.4375 299.9844 Q210.2031 299.8438 210.7031 299.5312 Q211.2031 299.2188 211.5312 298.6172 Q211.8594 298.0156 211.8594 297.2344 Q211.8594 296.3125 211.3906 295.6328 Q210.9219 294.9531 210.0859 294.6719 Q209.25 294.3906 207.6719 294.3906 L203.8594 294.3906 L203.8594 300.0625 ZM216.2939 297.6875 L218.4189 297.5 Q218.6533 299.0625 219.5127 299.8438 Q220.3721 300.625 221.5908 300.625 Q223.0439 300.625 224.0518 299.5234 Q225.0596 298.4219 225.0596 296.5938 Q225.0596 294.875 224.0908 293.875 Q223.1221 292.875 221.5439 292.875 Q220.5752 292.875 219.7861 293.3125 Q218.9971 293.75 218.5596 294.4688 L216.6533 294.2188 L218.2471 285.7656 L226.4346 285.7656 L226.4346 287.6875 L219.8721 287.6875 L218.9814 292.1094 Q220.4658 291.0781 222.0908 291.0781 Q224.2471 291.0781 225.7314 292.5781 Q227.2158 294.0781 227.2158 296.4219 Q227.2158 298.6562 225.9033 300.2812 Q224.3252 302.2812 221.5908 302.2812 Q219.3408 302.2812 217.9189 301.0234 Q216.4971 299.7656 216.2939 297.6875 Z" clip-path="url(#clipPath36)" stroke="none"/><circle fill="rgb(250,128,114)" r="16" clip-path="url(#clipPath37)" cx="310" cy="230" stroke="none"/><circle fill="none" r="16" clip-path="url(#clipPath37)" cx="310" cy="230" stroke="black"/><path fill="black" d="M308.5156 232.2344 L310.7031 232.7812 Q310.0156 235.4688 308.2344 236.875 Q306.4531 238.2812 303.8906 238.2812 Q301.2188 238.2812 299.5547 237.1953 Q297.8906 236.1094 297.0156 234.0547 Q296.1406 232 296.1406 229.6406 Q296.1406 227.0781 297.125 225.1641 Q298.1094 223.25 299.9219 222.25 Q301.7344 221.25 303.9219 221.25 Q306.3906 221.25 308.0703 222.5078 Q309.75 223.7656 310.4219 226.0469 L308.2812 226.5625 Q307.7031 224.7656 306.6094 223.9453 Q305.5156 223.125 303.875 223.125 Q301.9688 223.125 300.6953 224.0312 Q299.4219 224.9375 298.9062 226.4688 Q298.3906 228 298.3906 229.6406 Q298.3906 231.7344 299 233.2969 Q299.6094 234.8594 300.9062 235.6406 Q302.2031 236.4219 303.7031 236.4219 Q305.5312 236.4219 306.8047 235.3672 Q308.0781 234.3125 308.5156 232.2344 ZM312.563 233.6875 L314.688 233.5 Q314.9224 235.0625 315.7817 235.8438 Q316.6411 236.625 317.8599 236.625 Q319.313 236.625 320.3208 235.5234 Q321.3286 234.4219 321.3286 232.5938 Q321.3286 230.875 320.3599 229.875 Q319.3911 228.875 317.813 228.875 Q316.8442 228.875 316.0552 229.3125 Q315.2661 229.75 314.8286 230.4688 L312.9224 230.2188 L314.5161 221.7656 L322.7036 221.7656 L322.7036 223.6875 L316.1411 223.6875 L315.2505 228.1094 Q316.7349 227.0781 318.3599 227.0781 Q320.5161 227.0781 322.0005 228.5781 Q323.4849 230.0781 323.4849 232.4219 Q323.4849 234.6562 322.1724 236.2812 Q320.5942 238.2812 317.8599 238.2812 Q315.6099 238.2812 314.188 237.0234 Q312.7661 235.7656 312.563 233.6875 Z" clip-path="url(#clipPath38)" stroke="none"/><circle fill="rgb(165,42,42)" r="16" clip-path="url(#clipPath39)" cx="326" cy="326" stroke="none"/><circle fill="none" r="16" clip-path="url(#clipPath39)" cx="326" cy="326" stroke="black"/><path fill="black" d="M312.7812 334 L312.7812 317.5312 L318.4531 317.5312 Q320.3594 317.5312 321.375 317.7656 Q322.7969 318.0938 323.7969 318.9531 Q325.0938 320.0469 325.7422 321.7656 Q326.3906 323.4844 326.3906 325.6719 Q326.3906 327.5469 325.9531 329 Q325.5156 330.4531 324.8281 331.3984 Q324.1406 332.3438 323.3281 332.8906 Q322.5156 333.4375 321.3594 333.7188 Q320.2031 334 318.7188 334 L312.7812 334 ZM314.9531 332.0625 L318.4688 332.0625 Q320.0938 332.0625 321.0234 331.7578 Q321.9531 331.4531 322.5 330.9062 Q323.2812 330.125 323.7109 328.8203 Q324.1406 327.5156 324.1406 325.6406 Q324.1406 323.0625 323.2891 321.6719 Q322.4375 320.2812 321.2344 319.8125 Q320.3594 319.4844 318.4062 319.4844 L314.9531 319.4844 L314.9531 332.0625 ZM328.563 329.6875 L330.688 329.5 Q330.9224 331.0625 331.7817 331.8438 Q332.6411 332.625 333.8599 332.625 Q335.313 332.625 336.3208 331.5234 Q337.3286 330.4219 337.3286 328.5938 Q337.3286 326.875 336.3599 325.875 Q335.3911 324.875 333.813 324.875 Q332.8442 324.875 332.0552 325.3125 Q331.2661 325.75 330.8286 326.4688 L328.9224 326.2188 L330.5161 317.7656 L338.7036 317.7656 L338.7036 319.6875 L332.1411 319.6875 L331.2505 324.1094 Q332.7349 323.0781 334.3599 323.0781 Q336.5161 323.0781 338.0005 324.5781 Q339.4849 326.0781 339.4849 328.4219 Q339.4849 330.6562 338.1724 332.2812 Q336.5942 334.2812 333.8599 334.2812 Q331.6099 334.2812 330.188 333.0234 Q328.7661 331.7656 328.563 329.6875 Z" clip-path="url(#clipPath40)" stroke="none"/><circle r="16" clip-path="url(#clipPath41)" cx="486" cy="486" stroke="none"/><circle fill="none" r="16" clip-path="url(#clipPath41)" cx="486" cy="486" stroke="black"/><path fill="black" d="M470.9688 495 L477.8438 477.1094 L480.3906 477.1094 L487.7188 495 L485.0156 495 L482.9219 489.5781 L475.4375 489.5781 L473.4844 495 L470.9688 495 ZM476.125 487.6562 L482.1875 487.6562 L480.3281 482.6875 Q479.4688 480.4375 479.0625 478.9844 Q478.7188 480.7031 478.0938 482.4062 L476.125 487.6562 ZM500.1123 481.4844 L497.9248 481.6562 Q497.6436 480.3594 497.0967 479.7812 Q496.2061 478.8438 494.9092 478.8438 Q493.8467 478.8438 493.0654 479.4219 Q492.0186 480.1875 491.4248 481.6328 Q490.8311 483.0781 490.7998 485.7656 Q491.5967 484.5625 492.7451 483.9766 Q493.8936 483.3906 495.1436 483.3906 Q497.3467 483.3906 498.8857 485.0078 Q500.4248 486.625 500.4248 489.1875 Q500.4248 490.875 499.6982 492.3203 Q498.9717 493.7656 497.7061 494.5391 Q496.4404 495.3125 494.8311 495.3125 Q492.0811 495.3125 490.3467 493.2891 Q488.6123 491.2656 488.6123 486.625 Q488.6123 481.4375 490.5342 479.0781 Q492.2061 477.0312 495.0342 477.0312 Q497.1436 477.0312 498.4951 478.2188 Q499.8467 479.4062 500.1123 481.4844 ZM491.1436 489.2031 Q491.1436 490.3438 491.6279 491.375 Q492.1123 492.4062 492.9795 492.9531 Q493.8467 493.5 494.7842 493.5 Q496.1904 493.5 497.1904 492.375 Q498.1904 491.25 498.1904 489.3281 Q498.1904 487.4688 497.1982 486.3984 Q496.2061 485.3281 494.7061 485.3281 Q493.2217 485.3281 492.1826 486.3984 Q491.1436 487.4688 491.1436 489.2031 Z" clip-path="url(#clipPath42)" stroke="none"/><circle fill="rgb(144,238,144)" r="16" clip-path="url(#clipPath43)" cx="150" cy="230" stroke="none"/><circle fill="none" r="16" clip-path="url(#clipPath43)" cx="150" cy="230" stroke="black"/><path fill="black" d="M137.6875 238 L137.6875 221.5312 L143.8594 221.5312 Q145.75 221.5312 146.8906 222.0312 Q148.0312 222.5312 148.6719 223.5703 Q149.3125 224.6094 149.3125 225.75 Q149.3125 226.7969 148.7422 227.7344 Q148.1719 228.6719 147.0156 229.2344 Q148.5156 229.6719 149.3125 230.7344 Q150.1094 231.7969 150.1094 233.2344 Q150.1094 234.3906 149.625 235.3828 Q149.1406 236.375 148.4219 236.9141 Q147.7031 237.4531 146.6172 237.7266 Q145.5312 238 143.9688 238 L137.6875 238 ZM139.8594 228.4531 L143.4219 228.4531 Q144.875 228.4531 145.5 228.2656 Q146.3281 228.0156 146.75 227.4453 Q147.1719 226.875 147.1719 226 Q147.1719 225.1875 146.7812 224.5625 Q146.3906 223.9375 145.6562 223.7109 Q144.9219 223.4844 143.1562 223.4844 L139.8594 223.4844 L139.8594 228.4531 ZM139.8594 236.0625 L143.9688 236.0625 Q145.0156 236.0625 145.4375 235.9844 Q146.2031 235.8438 146.7031 235.5312 Q147.2031 235.2188 147.5312 234.6172 Q147.8594 234.0156 147.8594 233.2344 Q147.8594 232.3125 147.3906 231.6328 Q146.9219 230.9531 146.0859 230.6719 Q145.25 230.3906 143.6719 230.3906 L139.8594 230.3906 L139.8594 236.0625 ZM162.7783 225.5625 L160.7783 225.7188 Q160.5127 224.5312 160.0127 224 Q159.1846 223.125 157.9971 223.125 Q157.0283 223.125 156.2939 223.6719 Q155.3408 224.3594 154.7861 225.6953 Q154.2314 227.0312 154.2158 229.5156 Q154.9502 228.3906 156.0049 227.8516 Q157.0596 227.3125 158.2158 227.3125 Q160.2314 227.3125 161.6533 228.8047 Q163.0752 230.2969 163.0752 232.6562 Q163.0752 234.2031 162.4111 235.5312 Q161.7471 236.8594 160.5752 237.5703 Q159.4033 238.2812 157.9189 238.2812 Q155.3877 238.2812 153.7939 236.4219 Q152.2002 234.5625 152.2002 230.2969 Q152.2002 225.5156 153.9658 223.3594 Q155.5127 221.4688 158.1064 221.4688 Q160.0596 221.4688 161.3018 222.5547 Q162.5439 223.6406 162.7783 225.5625 ZM154.5283 232.6719 Q154.5283 233.7031 154.9736 234.6641 Q155.4189 235.625 156.2158 236.125 Q157.0127 236.625 157.8877 236.625 Q159.1689 236.625 160.0908 235.5859 Q161.0127 234.5469 161.0127 232.7812 Q161.0127 231.0781 160.0986 230.0938 Q159.1846 229.1094 157.8096 229.1094 Q156.4346 229.1094 155.4814 230.0938 Q154.5283 231.0781 154.5283 232.6719 Z" clip-path="url(#clipPath44)" stroke="none"/><circle fill="rgb(250,128,114)" r="16" clip-path="url(#clipPath45)" cx="246" cy="326" stroke="none"/><circle fill="none" r="16" clip-path="url(#clipPath45)" cx="246" cy="326" stroke="black"/><path fill="black" d="M244.5156 328.2344 L246.7031 328.7812 Q246.0156 331.4688 244.2344 332.875 Q242.4531 334.2812 239.8906 334.2812 Q237.2188 334.2812 235.5547 333.1953 Q233.8906 332.1094 233.0156 330.0547 Q232.1406 328 232.1406 325.6406 Q232.1406 323.0781 233.125 321.1641 Q234.1094 319.25 235.9219 318.25 Q237.7344 317.25 239.9219 317.25 Q242.3906 317.25 244.0703 318.5078 Q245.75 319.7656 246.4219 322.0469 L244.2812 322.5625 Q243.7031 320.7656 242.6094 319.9453 Q241.5156 319.125 239.875 319.125 Q237.9688 319.125 236.6953 320.0312 Q235.4219 320.9375 234.9062 322.4688 Q234.3906 324 234.3906 325.6406 Q234.3906 327.7344 235 329.2969 Q235.6094 330.8594 236.9062 331.6406 Q238.2031 332.4219 239.7031 332.4219 Q241.5312 332.4219 242.8047 331.3672 Q244.0781 330.3125 244.5156 328.2344 ZM259.0474 321.5625 L257.0474 321.7188 Q256.7817 320.5312 256.2817 320 Q255.4536 319.125 254.2661 319.125 Q253.2974 319.125 252.563 319.6719 Q251.6099 320.3594 251.0552 321.6953 Q250.5005 323.0312 250.4849 325.5156 Q251.2192 324.3906 252.2739 323.8516 Q253.3286 323.3125 254.4849 323.3125 Q256.5005 323.3125 257.9224 324.8047 Q259.3442 326.2969 259.3442 328.6562 Q259.3442 330.2031 258.6802 331.5312 Q258.0161 332.8594 256.8442 333.5703 Q255.6724 334.2812 254.188 334.2812 Q251.6567 334.2812 250.063 332.4219 Q248.4692 330.5625 248.4692 326.2969 Q248.4692 321.5156 250.2349 319.3594 Q251.7817 317.4688 254.3755 317.4688 Q256.3286 317.4688 257.5708 318.5547 Q258.813 319.6406 259.0474 321.5625 ZM250.7974 328.6719 Q250.7974 329.7031 251.2427 330.6641 Q251.688 331.625 252.4849 332.125 Q253.2817 332.625 254.1567 332.625 Q255.438 332.625 256.3599 331.5859 Q257.2817 330.5469 257.2817 328.7812 Q257.2817 327.0781 256.3677 326.0938 Q255.4536 325.1094 254.0786 325.1094 Q252.7036 325.1094 251.7505 326.0938 Q250.7974 327.0781 250.7974 328.6719 Z" clip-path="url(#clipPath46)" stroke="none"/><circle fill="rgb(165,42,42)" r="16" clip-path="url(#clipPath47)" cx="406" cy="246" stroke="none"/><circle fill="none" r="16" clip-path="url(#clipPath47)" cx="406" cy="246" stroke="black"/><path fill="black" d="M392.7812 254 L392.7812 237.5312 L398.4531 237.5312 Q400.3594 237.5312 401.375 237.7656 Q402.7969 238.0938 403.7969 238.9531 Q405.0938 240.0469 405.7422 241.7656 Q406.3906 243.4844 406.3906 245.6719 Q406.3906 247.5469 405.9531 249 Q405.5156 250.4531 404.8281 251.3984 Q404.1406 252.3438 403.3281 252.8906 Q402.5156 253.4375 401.3594 253.7188 Q400.2031 254 398.7188 254 L392.7812 254 ZM394.9531 252.0625 L398.4688 252.0625 Q400.0938 252.0625 401.0234 251.7578 Q401.9531 251.4531 402.5 250.9062 Q403.2812 250.125 403.7109 248.8203 Q404.1406 247.5156 404.1406 245.6406 Q404.1406 243.0625 403.2891 241.6719 Q402.4375 240.2812 401.2344 239.8125 Q400.3594 239.4844 398.4062 239.4844 L394.9531 239.4844 L394.9531 252.0625 ZM419.0474 241.5625 L417.0474 241.7188 Q416.7817 240.5312 416.2817 240 Q415.4536 239.125 414.2661 239.125 Q413.2974 239.125 412.563 239.6719 Q411.6099 240.3594 411.0552 241.6953 Q410.5005 243.0312 410.4849 245.5156 Q411.2192 244.3906 412.2739 243.8516 Q413.3286 243.3125 414.4849 243.3125 Q416.5005 243.3125 417.9224 244.8047 Q419.3442 246.2969 419.3442 248.6562 Q419.3442 250.2031 418.6802 251.5312 Q418.0161 252.8594 416.8442 253.5703 Q415.6724 254.2812 414.188 254.2812 Q411.6567 254.2812 410.063 252.4219 Q408.4692 250.5625 408.4692 246.2969 Q408.4692 241.5156 410.2349 239.3594 Q411.7817 237.4688 414.3755 237.4688 Q416.3286 237.4688 417.5708 238.5547 Q418.813 239.6406 419.0474 241.5625 ZM410.7974 248.6719 Q410.7974 249.7031 411.2427 250.6641 Q411.688 251.625 412.4849 252.125 Q413.2817 252.625 414.1567 252.625 Q415.438 252.625 416.3599 251.5859 Q417.2817 250.5469 417.2817 248.7812 Q417.2817 247.0781 416.3677 246.0938 Q415.4536 245.1094 414.0786 245.1094 Q412.7036 245.1094 411.7505 246.0938 Q410.7974 247.0781 410.7974 248.6719 Z" clip-path="url(#clipPath48)" stroke="none"/><circle r="16" clip-path="url(#clipPath49)" cx="566" cy="566" stroke="none"/><circle fill="none" r="16" clip-path="url(#clipPath49)" cx="566" cy="566" stroke="black"/><path fill="black" d="M550.9688 575 L557.8438 557.1094 L560.3906 557.1094 L567.7188 575 L565.0156 575 L562.9219 569.5781 L555.4375 569.5781 L553.4844 575 L550.9688 575 ZM556.125 567.6562 L562.1875 567.6562 L560.3281 562.6875 Q559.4688 560.4375 559.0625 558.9844 Q558.7188 560.7031 558.0938 562.4062 L556.125 567.6562 ZM568.8623 559.4531 L568.8623 557.3438 L580.4404 557.3438 L580.4404 559.0469 Q578.7373 560.8594 577.0576 563.875 Q575.3779 566.8906 574.4561 570.0781 Q573.7998 572.3281 573.6123 575 L571.3623 575 Q571.3936 572.8906 572.1904 569.8984 Q572.9873 566.9062 574.4717 564.1328 Q575.9561 561.3594 577.6279 559.4531 L568.8623 559.4531 Z" clip-path="url(#clipPath50)" stroke="none"/><circle fill="rgb(144,238,144)" r="16" clip-path="url(#clipPath51)" cx="166" cy="166" stroke="none"/><circle fill="none" r="16" clip-path="url(#clipPath51)" cx="166" cy="166" stroke="black"/><path fill="black" d="M153.6875 174 L153.6875 157.5312 L159.8594 157.5312 Q161.75 157.5312 162.8906 158.0312 Q164.0312 158.5312 164.6719 159.5703 Q165.3125 160.6094 165.3125 161.75 Q165.3125 162.7969 164.7422 163.7344 Q164.1719 164.6719 163.0156 165.2344 Q164.5156 165.6719 165.3125 166.7344 Q166.1094 167.7969 166.1094 169.2344 Q166.1094 170.3906 165.625 171.3828 Q165.1406 172.375 164.4219 172.9141 Q163.7031 173.4531 162.6172 173.7266 Q161.5312 174 159.9688 174 L153.6875 174 ZM155.8594 164.4531 L159.4219 164.4531 Q160.875 164.4531 161.5 164.2656 Q162.3281 164.0156 162.75 163.4453 Q163.1719 162.875 163.1719 162 Q163.1719 161.1875 162.7812 160.5625 Q162.3906 159.9375 161.6562 159.7109 Q160.9219 159.4844 159.1562 159.4844 L155.8594 159.4844 L155.8594 164.4531 ZM155.8594 172.0625 L159.9688 172.0625 Q161.0156 172.0625 161.4375 171.9844 Q162.2031 171.8438 162.7031 171.5312 Q163.2031 171.2188 163.5312 170.6172 Q163.8594 170.0156 163.8594 169.2344 Q163.8594 168.3125 163.3906 167.6328 Q162.9219 166.9531 162.0859 166.6719 Q161.25 166.3906 159.6719 166.3906 L155.8594 166.3906 L155.8594 172.0625 ZM168.4346 159.6875 L168.4346 157.75 L179.0908 157.75 L179.0908 159.3281 Q177.5127 161 175.9736 163.7734 Q174.4346 166.5469 173.5908 169.4688 Q172.9814 171.5469 172.8096 174 L170.7314 174 Q170.7627 172.0625 171.4971 169.3047 Q172.2314 166.5469 173.5908 163.9922 Q174.9502 161.4375 176.4971 159.6875 L168.4346 159.6875 Z" clip-path="url(#clipPath52)" stroke="none"/><circle fill="rgb(250,128,114)" r="16" clip-path="url(#clipPath53)" cx="150" cy="390" stroke="none"/><circle fill="none" r="16" clip-path="url(#clipPath53)" cx="150" cy="390" stroke="black"/><path fill="black" d="M148.5156 392.2344 L150.7031 392.7812 Q150.0156 395.4688 148.2344 396.875 Q146.4531 398.2812 143.8906 398.2812 Q141.2188 398.2812 139.5547 397.1953 Q137.8906 396.1094 137.0156 394.0547 Q136.1406 392 136.1406 389.6406 Q136.1406 387.0781 137.125 385.1641 Q138.1094 383.25 139.9219 382.25 Q141.7344 381.25 143.9219 381.25 Q146.3906 381.25 148.0703 382.5078 Q149.75 383.7656 150.4219 386.0469 L148.2812 386.5625 Q147.7031 384.7656 146.6094 383.9453 Q145.5156 383.125 143.875 383.125 Q141.9688 383.125 140.6953 384.0312 Q139.4219 384.9375 138.9062 386.4688 Q138.3906 388 138.3906 389.6406 Q138.3906 391.7344 139 393.2969 Q139.6094 394.8594 140.9062 395.6406 Q142.2031 396.4219 143.7031 396.4219 Q145.5312 396.4219 146.8047 395.3672 Q148.0781 394.3125 148.5156 392.2344 ZM152.7036 383.6875 L152.7036 381.75 L163.3599 381.75 L163.3599 383.3281 Q161.7817 385 160.2427 387.7734 Q158.7036 390.5469 157.8599 393.4688 Q157.2505 395.5469 157.0786 398 L155.0005 398 Q155.0317 396.0625 155.7661 393.3047 Q156.5005 390.5469 157.8599 387.9922 Q159.2192 385.4375 160.7661 383.6875 L152.7036 383.6875 Z" clip-path="url(#clipPath54)" stroke="none"/><circle fill="rgb(165,42,42)" r="16" clip-path="url(#clipPath55)" cx="450" cy="170" stroke="none"/><circle fill="none" r="16" clip-path="url(#clipPath55)" cx="450" cy="170" stroke="black"/><path fill="black" d="M436.7812 178 L436.7812 161.5312 L442.4531 161.5312 Q444.3594 161.5312 445.375 161.7656 Q446.7969 162.0938 447.7969 162.9531 Q449.0938 164.0469 449.7422 165.7656 Q450.3906 167.4844 450.3906 169.6719 Q450.3906 171.5469 449.9531 173 Q449.5156 174.4531 448.8281 175.3984 Q448.1406 176.3438 447.3281 176.8906 Q446.5156 177.4375 445.3594 177.7188 Q444.2031 178 442.7188 178 L436.7812 178 ZM438.9531 176.0625 L442.4688 176.0625 Q444.0938 176.0625 445.0234 175.7578 Q445.9531 175.4531 446.5 174.9062 Q447.2812 174.125 447.7109 172.8203 Q448.1406 171.5156 448.1406 169.6406 Q448.1406 167.0625 447.2891 165.6719 Q446.4375 164.2812 445.2344 163.8125 Q444.3594 163.4844 442.4062 163.4844 L438.9531 163.4844 L438.9531 176.0625 ZM452.7036 163.6875 L452.7036 161.75 L463.3599 161.75 L463.3599 163.3281 Q461.7817 165 460.2427 167.7734 Q458.7036 170.5469 457.8599 173.4688 Q457.2505 175.5469 457.0786 178 L455.0005 178 Q455.0317 176.0625 455.7661 173.3047 Q456.5005 170.5469 457.8599 167.9922 Q459.2192 165.4375 460.7661 163.6875 L452.7036 163.6875 Z" clip-path="url(#clipPath56)" stroke="none"/><circle fill="rgb(144,238,144)" r="16" clip-path="url(#clipPath57)" cx="86" cy="86" stroke="none"/><circle fill="none" r="16" clip-path="url(#clipPath57)" cx="86" cy="86" stroke="black"/><path fill="black" d="M73.6875 94 L73.6875 77.5312 L79.8594 77.5312 Q81.75 77.5312 82.8906 78.0312 Q84.0312 78.5312 84.6719 79.5703 Q85.3125 80.6094 85.3125 81.75 Q85.3125 82.7969 84.7422 83.7344 Q84.1719 84.6719 83.0156 85.2344 Q84.5156 85.6719 85.3125 86.7344 Q86.1094 87.7969 86.1094 89.2344 Q86.1094 90.3906 85.625 91.3828 Q85.1406 92.375 84.4219 92.9141 Q83.7031 93.4531 82.6172 93.7266 Q81.5312 94 79.9688 94 L73.6875 94 ZM75.8594 84.4531 L79.4219 84.4531 Q80.875 84.4531 81.5 84.2656 Q82.3281 84.0156 82.75 83.4453 Q83.1719 82.875 83.1719 82 Q83.1719 81.1875 82.7812 80.5625 Q82.3906 79.9375 81.6562 79.7109 Q80.9219 79.4844 79.1562 79.4844 L75.8594 79.4844 L75.8594 84.4531 ZM75.8594 92.0625 L79.9688 92.0625 Q81.0156 92.0625 81.4375 91.9844 Q82.2031 91.8438 82.7031 91.5312 Q83.2031 91.2188 83.5312 90.6172 Q83.8594 90.0156 83.8594 89.2344 Q83.8594 88.3125 83.3906 87.6328 Q82.9219 86.9531 82.0859 86.6719 Q81.25 86.3906 79.6719 86.3906 L75.8594 86.3906 L75.8594 92.0625 ZM91.4033 85.0781 Q90.1533 84.6094 89.5439 83.7578 Q88.9346 82.9062 88.9346 81.7188 Q88.9346 79.9219 90.2236 78.6953 Q91.5127 77.4688 93.6689 77.4688 Q95.8252 77.4688 97.1377 78.7188 Q98.4502 79.9688 98.4502 81.7656 Q98.4502 82.9219 97.8486 83.7656 Q97.2471 84.6094 96.0283 85.0781 Q97.5439 85.5625 98.333 86.6641 Q99.1221 87.7656 99.1221 89.2969 Q99.1221 91.4062 97.6299 92.8438 Q96.1377 94.2812 93.7002 94.2812 Q91.2627 94.2812 89.7705 92.8359 Q88.2783 91.3906 88.2783 89.2344 Q88.2783 87.625 89.0908 86.5469 Q89.9033 85.4688 91.4033 85.0781 ZM90.9971 81.6406 Q90.9971 82.8125 91.7549 83.5547 Q92.5127 84.2969 93.7158 84.2969 Q94.8721 84.2969 95.6221 83.5625 Q96.3721 82.8281 96.3721 81.7656 Q96.3721 80.6406 95.5986 79.8828 Q94.8252 79.125 93.6846 79.125 Q92.5283 79.125 91.7627 79.8672 Q90.9971 80.6094 90.9971 81.6406 ZM90.3564 89.25 Q90.3564 90.1094 90.7627 90.9219 Q91.1689 91.7344 91.9814 92.1797 Q92.7939 92.625 93.7158 92.625 Q95.1689 92.625 96.1143 91.6875 Q97.0596 90.75 97.0596 89.3125 Q97.0596 87.8594 96.083 86.9062 Q95.1064 85.9531 93.6533 85.9531 Q92.2314 85.9531 91.2939 86.8906 Q90.3564 87.8281 90.3564 89.25 Z" clip-path="url(#clipPath58)" stroke="none"/><circle fill="rgb(250,128,114)" r="16" clip-path="url(#clipPath59)" cx="166" cy="486" stroke="none"/><circle fill="none" r="16" clip-path="url(#clipPath59)" cx="166" cy="486" stroke="black"/><path fill="black" d="M164.5156 488.2344 L166.7031 488.7812 Q166.0156 491.4688 164.2344 492.875 Q162.4531 494.2812 159.8906 494.2812 Q157.2188 494.2812 155.5547 493.1953 Q153.8906 492.1094 153.0156 490.0547 Q152.1406 488 152.1406 485.6406 Q152.1406 483.0781 153.125 481.1641 Q154.1094 479.25 155.9219 478.25 Q157.7344 477.25 159.9219 477.25 Q162.3906 477.25 164.0703 478.5078 Q165.75 479.7656 166.4219 482.0469 L164.2812 482.5625 Q163.7031 480.7656 162.6094 479.9453 Q161.5156 479.125 159.875 479.125 Q157.9688 479.125 156.6953 480.0312 Q155.4219 480.9375 154.9062 482.4688 Q154.3906 484 154.3906 485.6406 Q154.3906 487.7344 155 489.2969 Q155.6094 490.8594 156.9062 491.6406 Q158.2031 492.4219 159.7031 492.4219 Q161.5312 492.4219 162.8047 491.3672 Q164.0781 490.3125 164.5156 488.2344 ZM171.6724 485.0781 Q170.4224 484.6094 169.813 483.7578 Q169.2036 482.9062 169.2036 481.7188 Q169.2036 479.9219 170.4927 478.6953 Q171.7817 477.4688 173.938 477.4688 Q176.0942 477.4688 177.4067 478.7188 Q178.7192 479.9688 178.7192 481.7656 Q178.7192 482.9219 178.1177 483.7656 Q177.5161 484.6094 176.2974 485.0781 Q177.813 485.5625 178.6021 486.6641 Q179.3911 487.7656 179.3911 489.2969 Q179.3911 491.4062 177.8989 492.8438 Q176.4067 494.2812 173.9692 494.2812 Q171.5317 494.2812 170.0396 492.8359 Q168.5474 491.3906 168.5474 489.2344 Q168.5474 487.625 169.3599 486.5469 Q170.1724 485.4688 171.6724 485.0781 ZM171.2661 481.6406 Q171.2661 482.8125 172.0239 483.5547 Q172.7817 484.2969 173.9849 484.2969 Q175.1411 484.2969 175.8911 483.5625 Q176.6411 482.8281 176.6411 481.7656 Q176.6411 480.6406 175.8677 479.8828 Q175.0942 479.125 173.9536 479.125 Q172.7974 479.125 172.0317 479.8672 Q171.2661 480.6094 171.2661 481.6406 ZM170.6255 489.25 Q170.6255 490.1094 171.0317 490.9219 Q171.438 491.7344 172.2505 492.1797 Q173.063 492.625 173.9849 492.625 Q175.438 492.625 176.3833 491.6875 Q177.3286 490.75 177.3286 489.3125 Q177.3286 487.8594 176.3521 486.9062 Q175.3755 485.9531 173.9224 485.9531 Q172.5005 485.9531 171.563 486.8906 Q170.6255 487.8281 170.6255 489.25 Z" clip-path="url(#clipPath60)" stroke="none"/><circle fill="rgb(165,42,42)" r="16" clip-path="url(#clipPath61)" cx="566" cy="86" stroke="none"/><circle fill="none" r="16" clip-path="url(#clipPath61)" cx="566" cy="86" stroke="black"/><path fill="black" d="M552.7812 94 L552.7812 77.5312 L558.4531 77.5312 Q560.3594 77.5312 561.375 77.7656 Q562.7969 78.0938 563.7969 78.9531 Q565.0938 80.0469 565.7422 81.7656 Q566.3906 83.4844 566.3906 85.6719 Q566.3906 87.5469 565.9531 89 Q565.5156 90.4531 564.8281 91.3984 Q564.1406 92.3438 563.3281 92.8906 Q562.5156 93.4375 561.3594 93.7188 Q560.2031 94 558.7188 94 L552.7812 94 ZM554.9531 92.0625 L558.4688 92.0625 Q560.0938 92.0625 561.0234 91.7578 Q561.9531 91.4531 562.5 90.9062 Q563.2812 90.125 563.7109 88.8203 Q564.1406 87.5156 564.1406 85.6406 Q564.1406 83.0625 563.2891 81.6719 Q562.4375 80.2812 561.2344 79.8125 Q560.3594 79.4844 558.4062 79.4844 L554.9531 79.4844 L554.9531 92.0625 ZM571.6724 85.0781 Q570.4224 84.6094 569.813 83.7578 Q569.2036 82.9062 569.2036 81.7188 Q569.2036 79.9219 570.4927 78.6953 Q571.7817 77.4688 573.938 77.4688 Q576.0942 77.4688 577.4067 78.7188 Q578.7192 79.9688 578.7192 81.7656 Q578.7192 82.9219 578.1177 83.7656 Q577.5161 84.6094 576.2974 85.0781 Q577.813 85.5625 578.6021 86.6641 Q579.3911 87.7656 579.3911 89.2969 Q579.3911 91.4062 577.8989 92.8438 Q576.4067 94.2812 573.9692 94.2812 Q571.5317 94.2812 570.0396 92.8359 Q568.5474 91.3906 568.5474 89.2344 Q568.5474 87.625 569.3599 86.5469 Q570.1724 85.4688 571.6724 85.0781 ZM571.2661 81.6406 Q571.2661 82.8125 572.0239 83.5547 Q572.7817 84.2969 573.9849 84.2969 Q575.1411 84.2969 575.8911 83.5625 Q576.6411 82.8281 576.6411 81.7656 Q576.6411 80.6406 575.8677 79.8828 Q575.0942 79.125 573.9536 79.125 Q572.7974 79.125 572.0317 79.8672 Q571.2661 80.6094 571.2661 81.6406 ZM570.6255 89.25 Q570.6255 90.1094 571.0317 90.9219 Q571.438 91.7344 572.2505 92.1797 Q573.063 92.625 573.9849 92.625 Q575.438 92.625 576.3833 91.6875 Q577.3286 90.75 577.3286 89.3125 Q577.3286 87.8594 576.3521 86.9062 Q575.3755 85.9531 573.9224 85.9531 Q572.5005 85.9531 571.563 86.8906 Q570.6255 87.8281 570.6255 89.25 Z" clip-path="url(#clipPath62)" stroke="none"/><circle fill="rgb(250,128,114)" r="16" clip-path="url(#clipPath63)" cx="86" cy="566" stroke="none"/><circle fill="none" r="16" clip-path="url(#clipPath63)" cx="86" cy="566" stroke="black"/><path fill="black" d="M84.5156 568.2344 L86.7031 568.7812 Q86.0156 571.4688 84.2344 572.875 Q82.4531 574.2812 79.8906 574.2812 Q77.2188 574.2812 75.5547 573.1953 Q73.8906 572.1094 73.0156 570.0547 Q72.1406 568 72.1406 565.6406 Q72.1406 563.0781 73.125 561.1641 Q74.1094 559.25 75.9219 558.25 Q77.7344 557.25 79.9219 557.25 Q82.3906 557.25 84.0703 558.5078 Q85.75 559.7656 86.4219 562.0469 L84.2812 562.5625 Q83.7031 560.7656 82.6094 559.9453 Q81.5156 559.125 79.875 559.125 Q77.9688 559.125 76.6953 560.0312 Q75.4219 560.9375 74.9062 562.4688 Q74.3906 564 74.3906 565.6406 Q74.3906 567.7344 75 569.2969 Q75.6094 570.8594 76.9062 571.6406 Q78.2031 572.4219 79.7031 572.4219 Q81.5312 572.4219 82.8047 571.3672 Q84.0781 570.3125 84.5156 568.2344 ZM88.8755 570.1875 L90.813 570.0156 Q91.063 571.3906 91.7583 572.0078 Q92.4536 572.625 93.5474 572.625 Q94.4692 572.625 95.1724 572.1953 Q95.8755 571.7656 96.3286 571.0547 Q96.7817 570.3438 97.0786 569.125 Q97.3755 567.9062 97.3755 566.6562 Q97.3755 566.5156 97.3755 566.25 Q96.7661 567.2188 95.7114 567.8203 Q94.6567 568.4219 93.438 568.4219 Q91.3911 568.4219 89.9771 566.9375 Q88.563 565.4531 88.563 563.0312 Q88.563 560.5156 90.0396 558.9922 Q91.5161 557.4688 93.7349 557.4688 Q95.3442 557.4688 96.6802 558.3359 Q98.0161 559.2031 98.7036 560.8047 Q99.3911 562.4062 99.3911 565.4375 Q99.3911 568.5938 98.7036 570.4609 Q98.0161 572.3281 96.6646 573.3047 Q95.313 574.2812 93.5005 574.2812 Q91.563 574.2812 90.3364 573.2109 Q89.1099 572.1406 88.8755 570.1875 ZM97.1411 562.9219 Q97.1411 561.1875 96.2192 560.1641 Q95.2974 559.1406 93.9849 559.1406 Q92.6411 559.1406 91.6411 560.2422 Q90.6411 561.3438 90.6411 563.0938 Q90.6411 564.6719 91.5942 565.6484 Q92.5474 566.625 93.938 566.625 Q95.3442 566.625 96.2427 565.6484 Q97.1411 564.6719 97.1411 562.9219 Z" clip-path="url(#clipPath64)" stroke="none"/></g></g></svg>