<?xml version="1.0" encoding="UTF-8"?><svg xmlns="http://www.w3.org/2000/svg" xmlns:xlink="http://www.w3.org/1999/xlink" stroke-dasharray="none" shape-rendering="auto" font-family="'Dialog'" width="591" text-rendering="auto" fill-opacity="1" contentScriptType="text/ecmascript" color-interpolation="auto" color-rendering="auto" preserveAspectRatio="xMidYMid meet" font-size="12px" fill="black" stroke="black" image-rendering="auto" stroke-miterlimit="10" zoomAndPan="magnify" version="1.0" stroke-linecap="square" stroke-linejoin="miter" contentStyleType="text/css" font-style="normal" height="591" stroke-width="1" stroke-dashoffset="0" font-weight="normal" stroke-opacity="1"><!--Generated by the Batik Graphics2D SVG Generator--><defs id="genericDefs"/><g><defs id="defs1"><clipPath clipPathUnits="userSpaceOnUse" id="clipPath1"><path d="M37 37 L71 37 L71 71 L37 71 L37 37 Z"/></clipPath><clipPath clipPathUnits="userSpaceOnUse" id="clipPath2"><path d="M70 54 C70 62.8366 62.8366 70 54 70 C45.1634 70 38 62.8366 38 54 C38 45.1634 45.1634 38 54 38 C62.8366 38 70 45.1634 70 54 Z"/></clipPath><clipPath clipPathUnits="userSpaceOnUse" id="clipPath3"><path d="M517 517 L551 517 L551 551 L517 551 L517 517 Z"/></clipPath><clipPath clipPathUnits="userSpaceOnUse" id="clipPath4"><path d="M550 534 C550 542.8365 542.8365 550 534 550 C525.1635 550 518 542.8365 518 534 C518 525.1635 525.1635 518 534 518 C542.8365 518 550 525.1635 550 534 Z"/></clipPath><clipPath clipPathUnits="userSpaceOnUse" id="clipPath5"><path d="M133 53 L167 53 L167 87 L133 87 L133 53 Z"/></clipPath><clipPath clipPathUnits="userSpaceOnUse" id="clipPath6"><path d="M166 70 C166 78.8366 158.8366 86 150 86 C141.1634 86 134 78.8366 134 70 C134 61.1634 141.1634 54 150 54 C158.8366 54 166 61.1634 166 70 Z"/></clipPath><clipPath clipPathUnits="userSpaceOnUse" id="clipPath7"><path d="M453 533 L487 533 L487 567 L453 567 L453 533 Z"/></clipPath><clipPath clipPathUnits="userSpaceOnUse" id="clipPath8"><path d="M486 550 C486 558.8365 478.8365 566 470 566 C461.1635 566 454 558.8365 454 550 C454 541.1635 461.1635 534 470 534 C478.8365 534 486 541.1635 486 550 Z"/></clipPath><clipPath clipPathUnits="userSpaceOnUse" id="clipPath9"><path d="M213 53 L247 53 L247 87 L213 87 L213 53 Z"/></clipPath><clipPath clipPathUnits="userSpaceOnUse" id="clipPath10"><path d="M246 70 C246 78.8366 238.8366 86 230 86 C221.1634 86 214 78.8366 214 70 C214 61.1634 221.1634 54 230 54 C238.8366 54 246 61.1634 246 70 Z"/></clipPath><clipPath clipPathUnits="userSpaceOnUse" id="clipPath11"><path d="M453 453 L487 453 L487 487 L453 487 L453 453 Z"/></clipPath><clipPath clipPathUnits="userSpaceOnUse" id="clipPath12"><path d="M486 470 C486 478.8365 478.8365 486 470 486 C461.1635 486 454 478.8365 454 470 C454 461.1635 461.1635 454 470 454 C478.8365 454 486 461.1635 486 470 Z"/></clipPath><clipPath clipPathUnits="userSpaceOnUse" id="clipPath13"><path d="M293 53 L327 53 L327 87 L293 87 L293 53 Z"/></clipPath><clipPath clipPathUnits="userSpaceOnUse" id="clipPath14"><path d="M326 70 C326 78.8366 318.8365 86 310 86 C301.1635 86 294 78.8366 294 70 C294 61.1634 301.1635 54 310 54 C318.8365 54 326 61.1634 326 70 Z"/></clipPath><clipPath clipPathUnits="userSpaceOnUse" id="clipPath15"><path d="M373 453 L407 453 L407 487 L373 487 L373 453 Z"/></clipPath><clipPath clipPathUnits="userSpaceOnUse" id="clipPath16"><path d="M406 470 C406 478.8365 398.8365 486 390 486 C381.1635 486 374 478.8365 374 470 C374 461.1635 381.1635 454 390 454 C398.8365 454 406 461.1635 406 470 Z"/></clipPath><clipPath clipPathUnits="userSpaceOnUse" id="clipPath17"><path d="M293 133 L327 133 L327 167 L293 167 L293 133 Z"/></clipPath><clipPath clipPathUnits="userSpaceOnUse" id="clipPath18"><path d="M326 150 C326 158.8366 318.8365 166 310 166 C301.1635 166 294 158.8366 294 150 C294 141.1634 301.1635 134 310 134 C318.8365 134 326 141.1634 326 150 Z"/></clipPath><clipPath clipPathUnits="userSpaceOnUse" id="clipPath19"><path d="M293 453 L327 453 L327 487 L293 487 L293 453 Z"/></clipPath><clipPath clipPathUnits="userSpaceOnUse" id="clipPath20"><path d="M326 470 C326 478.8365 318.8365 486 310 486 C301.1635 486 294 478.8365 294 470 C294 461.1635 301.1635 454 310 454 C318.8365 454 326 461.1635 326 470 Z"/></clipPath><clipPath clipPathUnits="userSpaceOnUse" id="clipPath21"><path d="M373 133 L407 133 L407 167 L373 167 L373 133 Z"/></clipPath><clipPath clipPathUnits="userSpaceOnUse" id="clipPath22"><path d="M406 150 C406 158.8366 398.8365 166 390 166 C381.1635 166 374 158.8366 374 150 C374 141.1634 381.1635 134 390 134 C398.8365 134 406 141.1634 406 150 Z"/></clipPath><clipPath clipPathUnits="userSpaceOnUse" id="clipPath23"><path d="M213 453 L247 453 L247 487 L213 487 L213 453 Z"/></clipPath><clipPath clipPathUnits="userSpaceOnUse" id="clipPath24"><path d="M246 470 C246 478.8365 238.8366 486 230 486 C221.1634 486 214 478.8365 214 470 C214 461.1635 221.1634 454 230 454 C238.8366 454 246 461.1635 246 470 Z"/></clipPath><clipPath clipPathUnits="userSpaceOnUse" id="clipPath25"><path d="M453 133 L487 133 L487 167 L453 167 L453 133 Z"/></clipPath><clipPath clipPathUnits="userSpaceOnUse" id="clipPath26"><path d="M486 150 C486 158.8366 478.8365 166 470 166 C461.1635 166 454 158.8366 454 150 C454 141.1634 461.1635 134 470 134 C478.8365 134 486 141.1634 486 150 Z"/></clipPath><clipPath clipPathUnits="userSpaceOnUse" id="clipPath27"><path d="M133 453 L167 453 L167 487 L133 487 L133 453 Z"/></clipPath><clipPath clipPathUnits="userSpaceOnUse" id="clipPath28"><path d="M166 470 C166 478.8365 158.8366 486 150 486 C141.1634 486 134 478.8365 134 470 C134 461.1635 141.1634 454 150 454 C158.8366 454 166 461.1635 166 470 Z"/></clipPath><clipPath clipPathUnits="userSpaceOnUse" id="clipPath29"><path d="M533 133 L567 133 L567 167 L533 167 L533 133 Z"/></clipPath><clipPath clipPathUnits="userSpaceOnUse" id="clipPath30"><path d="M566 150 C566 158.8366 558.8365 166 550 166 C541.1635 166 534 158.8366 534 150 C534 141.1634 541.1635 134 550 134 C558.8365 134 566 141.1634 566 150 Z"/></clipPath><clipPath clipPathUnits="userSpaceOnUse" id="clipPath31"><path d="M53 453 L87 453 L87 487 L53 487 L53 453 Z"/></clipPath><clipPath clipPathUnits="userSpaceOnUse" id="clipPath32"><path d="M86 470 C86 478.8365 78.8366 486 70 486 C61.1634 486 54 478.8365 54 470 C54 461.1635 61.1634 454 70 454 C78.8366 454 86 461.1635 86 470 Z"/></clipPath><clipPath clipPathUnits="userSpaceOnUse" id="clipPath33"><path d="M533 213 L567 213 L567 247 L533 247 L533 213 Z"/></clipPath><clipPath clipPathUnits="userSpaceOnUse" id="clipPath34"><path d="M566 230 C566 238.8366 558.8365 246 550 246 C541.1635 246 534 238.8366 534 230 C534 221.1634 541.1635 214 550 214 C558.8365 214 566 221.1634 566 230 Z"/></clipPath><clipPath clipPathUnits="userSpaceOnUse" id="clipPath35"><path d="M53 373 L87 373 L87 407 L53 407 L53 373 Z"/></clipPath><clipPath clipPathUnits="userSpaceOnUse" id="clipPath36"><path d="M86 390 C86 398.8365 78.8366 406 70 406 C61.1634 406 54 398.8365 54 390 C54 381.1635 61.1634 374 70 374 C78.8366 374 86 381.1635 86 390 Z"/></clipPath><clipPath clipPathUnits="userSpaceOnUse" id="clipPath37"><path d="M533 293 L567 293 L567 327 L533 327 L533 293 Z"/></clipPath><clipPath clipPathUnits="userSpaceOnUse" id="clipPath38"><path d="M566 310 C566 318.8365 558.8365 326 550 326 C541.1635 326 534 318.8365 534 310 C534 301.1635 541.1635 294 550 294 C558.8365 294 566 301.1635 566 310 Z"/></clipPath><clipPath clipPathUnits="userSpaceOnUse" id="clipPath39"><path d="M53 293 L87 293 L87 327 L53 327 L53 293 Z"/></clipPath><clipPath clipPathUnits="userSpaceOnUse" id="clipPath40"><path d="M86 310 C86 318.8365 78.8366 326 70 326 C61.1634 326 54 318.8365 54 310 C54 301.1635 61.1634 294 70 294 C78.8366 294 86 301.1635 86 310 Z"/></clipPath><clipPath clipPathUnits="userSpaceOnUse" id="clipPath41"><path d="M533 373 L567 373 L567 407 L533 407 L533 373 Z"/></clipPath><clipPath clipPathUnits="userSpaceOnUse" id="clipPath42"><path d="M566 390 C566 398.8365 558.8365 406 550 406 C541.1635 406 534 398.8365 534 390 C534 381.1635 541.1635 374 550 374 C558.8365 374 566 381.1635 566 390 Z"/></clipPath><clipPath clipPathUnits="userSpaceOnUse" id="clipPath43"><path d="M53 213 L87 213 L87 247 L53 247 L53 213 Z"/></clipPath><clipPath clipPathUnits="userSpaceOnUse" id="clipPath44"><path d="M86 230 C86 238.8366 78.8366 246 70 246 C61.1634 246 54 238.8366 54 230 C54 221.1634 61.1634 214 70 214 C78.8366 214 86 221.1634 86 230 Z"/></clipPath><clipPath clipPathUnits="userSpaceOnUse" id="clipPath45"><path d="M533 453 L567 453 L567 487 L533 487 L533 453 Z"/></clipPath><clipPath clipPathUnits="userSpaceOnUse" id="clipPath46"><path d="M566 470 C566 478.8365 558.8365 486 550 486 C541.1635 486 534 478.8365 534 470 C534 461.1635 541.1635 454 550 454 C558.8365 454 566 461.1635 566 470 Z"/></clipPath><clipPath clipPathUnits="userSpaceOnUse" id="clipPath47"><path d="M53 133 L87 133 L87 167 L53 167 L53 133 Z"/></clipPath><clipPath clipPathUnits="userSpaceOnUse" id="clipPath48"><path d="M86 150 C86 158.8366 78.8366 166 70 166 C61.1634 166 54 158.8366 54 150 C54 141.1634 61.1634 134 70 134 C78.8366 134 86 141.1634 86 150 Z"/></clipPath><clipPath clipPathUnits="userSpaceOnUse" id="clipPath49"><path d="M549 549 L583 549 L583 583 L549 583 L549 549 Z"/></clipPath><clipPath clipPathUnits="userSpaceOnUse" id="clipPath50"><path d="M582 566 C582 574.8365 574.8365 582 566 582 C557.1635 582 550 574.8365 550 566 C550 557.1635 557.1635 550 566 550 C574.8365 550 582 557.1635 582 566 Z"/></clipPath><clipPath clipPathUnits="userSpaceOnUse" id="clipPath51"><path d="M69 69 L103 69 L103 103 L69 103 L69 69 Z"/></clipPath><clipPath clipPathUnits="userSpaceOnUse" id="clipPath52"><path d="M102 86 C102 94.8366 94.8366 102 86 102 C77.1634 102 70 94.8366 70 86 C70 77.1634 77.1634 70 86 70 C94.8366 70 102 77.1634 102 86 Z"/></clipPath></defs><g><line y2="30" fill="none" x1="30" x2="590" y1="30"/><line y2="110" fill="none" x1="30" x2="590" y1="110"/><line y2="190" fill="none" x1="30" x2="590" y1="190"/><line y2="270" fill="none" x1="30" x2="590" y1="270"/><line y2="350" fill="none" x1="30" x2="590" y1="350"/><line y2="430" fill="none" x1="30" x2="590" y1="430"/><line y2="510" fill="none" x1="30" x2="590" y1="510"/><line y2="590" fill="none" x1="30" x2="590" y1="590"/><line y2="590" fill="none" x1="30" x2="30" y1="30"/><line y2="590" fill="none" x1="110" x2="110" y1="30"/><line y2="590" fill="none" x1="190" x2="190" y1="30"/><line y2="590" fill="none" x1="270" x2="270" y1="30"/><line y2="590" fill="none" x1="350" x2="350" y1="30"/><line y2="590" fill="none" x1="430" x2="430" y1="30"/><line y2="590" fill="none" x1="510" x2="510" y1="30"/><line y2="590" fill="none" x1="590" x2="590" y1="30"/><path d="M17.9375 79 L15.8281 79 L15.8281 65.5625 Q15.0781 66.2812 13.8359 67.0078 Q12.5938 67.7344 11.6094 68.0938 L11.6094 66.0625 Q13.3906 65.2344 14.7109 64.0469 Q16.0312 62.8594 16.5781 61.75 L17.9375 61.75 L17.9375 79 Z" stroke="none"/><path d="M21.0781 156.9688 L21.0781 159 L9.7344 159 Q9.7031 158.2344 9.9688 157.5312 Q10.4062 156.375 11.3594 155.25 Q12.3125 154.125 14.125 152.6406 Q16.9219 150.3438 17.9062 149.0078 Q18.8906 147.6719 18.8906 146.4688 Q18.8906 145.2188 17.9922 144.3594 Q17.0938 143.5 15.6562 143.5 Q14.1406 143.5 13.2266 144.4141 Q12.3125 145.3281 12.2969 146.9375 L10.125 146.7188 Q10.3438 144.2969 11.7969 143.0234 Q13.25 141.75 15.7031 141.75 Q18.1719 141.75 19.6172 143.1172 Q21.0625 144.4844 21.0625 146.5156 Q21.0625 147.5469 20.6406 148.5469 Q20.2188 149.5469 19.2422 150.6484 Q18.2656 151.75 15.9844 153.6719 Q14.0938 155.2656 13.5547 155.8281 Q13.0156 156.3906 12.6562 156.9688 L21.0781 156.9688 Z" stroke="none"/><path d="M10.0156 234.4688 L12.125 234.1875 Q12.4844 235.9688 13.3594 236.7656 Q14.2344 237.5625 15.4844 237.5625 Q16.9688 237.5625 17.9922 236.5312 Q19.0156 235.5 19.0156 233.9688 Q19.0156 232.5156 18.0703 231.5703 Q17.125 230.625 15.6562 230.625 Q15.0625 230.625 14.1719 230.8594 L14.4062 229.0156 Q14.6094 229.0312 14.75 229.0312 Q16.0938 229.0312 17.1719 228.3281 Q18.25 227.625 18.25 226.1719 Q18.25 225 17.4609 224.2422 Q16.6719 223.4844 15.4375 223.4844 Q14.2031 223.4844 13.3828 224.2578 Q12.5625 225.0312 12.3281 226.5781 L10.2188 226.2031 Q10.6094 224.0781 11.9766 222.9141 Q13.3438 221.75 15.3906 221.75 Q16.7969 221.75 17.9766 222.3516 Q19.1562 222.9531 19.7891 224 Q20.4219 225.0469 20.4219 226.2188 Q20.4219 227.3281 19.8203 228.2422 Q19.2188 229.1562 18.0469 229.6875 Q19.5781 230.0469 20.4219 231.1562 Q21.2656 232.2656 21.2656 233.9219 Q21.2656 236.1719 19.625 237.7422 Q17.9844 239.3125 15.4688 239.3125 Q13.2031 239.3125 11.7109 237.9609 Q10.2188 236.6094 10.0156 234.4688 Z" stroke="none"/><path d="M16.7656 319 L16.7656 314.8906 L9.3125 314.8906 L9.3125 312.9531 L17.1406 301.8125 L18.875 301.8125 L18.875 312.9531 L21.1875 312.9531 L21.1875 314.8906 L18.875 314.8906 L18.875 319 L16.7656 319 ZM16.7656 312.9531 L16.7656 305.2031 L11.375 312.9531 L16.7656 312.9531 Z" stroke="none"/><path d="M10 394.5 L12.2188 394.3125 Q12.4531 395.9219 13.3516 396.7422 Q14.25 397.5625 15.5156 397.5625 Q17.0469 397.5625 18.1016 396.4141 Q19.1562 395.2656 19.1562 393.3594 Q19.1562 391.5625 18.1406 390.5156 Q17.125 389.4688 15.4844 389.4688 Q14.4688 389.4688 13.6484 389.9297 Q12.8281 390.3906 12.3594 391.1406 L10.375 390.875 L12.0312 382.0469 L20.5781 382.0469 L20.5781 384.0625 L13.7188 384.0625 L12.7969 388.6875 Q14.3438 387.6094 16.0469 387.6094 Q18.2969 387.6094 19.8438 389.1641 Q21.3906 390.7188 21.3906 393.1719 Q21.3906 395.5 20.0312 397.2031 Q18.375 399.2969 15.5156 399.2969 Q13.1719 399.2969 11.6875 397.9844 Q10.2031 396.6719 10 394.5 Z" stroke="none"/><path d="M20.9375 466.0312 L18.8438 466.1875 Q18.5625 464.9531 18.0469 464.3906 Q17.1875 463.4844 15.9375 463.4844 Q14.9375 463.4844 14.1719 464.0469 Q13.1719 464.7656 12.6016 466.1641 Q12.0312 467.5625 12 470.1406 Q12.7656 468.9844 13.8672 468.4219 Q14.9688 467.8594 16.1719 467.8594 Q18.2812 467.8594 19.7656 469.4062 Q21.25 470.9531 21.25 473.4219 Q21.25 475.0312 20.5547 476.4219 Q19.8594 477.8125 18.6406 478.5547 Q17.4219 479.2969 15.875 479.2969 Q13.2344 479.2969 11.5703 477.3516 Q9.9062 475.4062 9.9062 470.9531 Q9.9062 465.9844 11.75 463.7188 Q13.3438 461.75 16.0625 461.75 Q18.0938 461.75 19.3906 462.8828 Q20.6875 464.0156 20.9375 466.0312 ZM12.3281 473.4375 Q12.3281 474.5156 12.7891 475.5156 Q13.25 476.5156 14.0859 477.0391 Q14.9219 477.5625 15.8281 477.5625 Q17.1719 477.5625 18.1328 476.4844 Q19.0938 475.4062 19.0938 473.5469 Q19.0938 471.7656 18.1406 470.7422 Q17.1875 469.7188 15.75 469.7188 Q14.3281 469.7188 13.3281 470.7422 Q12.3281 471.7656 12.3281 473.4375 Z" stroke="none"/><path d="M10.1406 544.0625 L10.1406 542.0469 L21.2656 542.0469 L21.2656 543.6875 Q19.625 545.4219 18.0078 548.3203 Q16.3906 551.2188 15.5156 554.2812 Q14.8906 556.4375 14.7031 559 L12.5469 559 Q12.5781 556.9688 13.3359 554.1016 Q14.0938 551.2344 15.5234 548.5625 Q16.9531 545.8906 18.5469 544.0625 L10.1406 544.0625 Z" stroke="none"/><path d="M72.9375 24 L70.8281 24 L70.8281 10.5625 Q70.0781 11.2812 68.8359 12.0078 Q67.5938 12.7344 66.6094 13.0938 L66.6094 11.0625 Q68.3906 10.2344 69.7109 9.0469 Q71.0312 7.8594 71.5781 6.75 L72.9375 6.75 L72.9375 24 Z" stroke="none"/><path d="M156.0781 21.9688 L156.0781 24 L144.7344 24 Q144.7031 23.2344 144.9688 22.5312 Q145.4062 21.375 146.3594 20.25 Q147.3125 19.125 149.125 17.6406 Q151.9219 15.3438 152.9062 14.0078 Q153.8906 12.6719 153.8906 11.4688 Q153.8906 10.2188 152.9922 9.3594 Q152.0938 8.5 150.6562 8.5 Q149.1406 8.5 148.2266 9.4141 Q147.3125 10.3281 147.2969 11.9375 L145.125 11.7188 Q145.3438 9.2969 146.7969 8.0234 Q148.25 6.75 150.7031 6.75 Q153.1719 6.75 154.6172 8.1172 Q156.0625 9.4844 156.0625 11.5156 Q156.0625 12.5469 155.6406 13.5469 Q155.2188 14.5469 154.2422 15.6484 Q153.2656 16.75 150.9844 18.6719 Q149.0938 20.2656 148.5547 20.8281 Q148.0156 21.3906 147.6562 21.9688 L156.0781 21.9688 Z" stroke="none"/><path d="M225.0156 19.4688 L227.125 19.1875 Q227.4844 20.9688 228.3594 21.7656 Q229.2344 22.5625 230.4844 22.5625 Q231.9688 22.5625 232.9922 21.5312 Q234.0156 20.5 234.0156 18.9688 Q234.0156 17.5156 233.0703 16.5703 Q232.125 15.625 230.6562 15.625 Q230.0625 15.625 229.1719 15.8594 L229.4062 14.0156 Q229.6094 14.0312 229.75 14.0312 Q231.0938 14.0312 232.1719 13.3281 Q233.25 12.625 233.25 11.1719 Q233.25 10 232.4609 9.2422 Q231.6719 8.4844 230.4375 8.4844 Q229.2031 8.4844 228.3828 9.2578 Q227.5625 10.0312 227.3281 11.5781 L225.2188 11.2031 Q225.6094 9.0781 226.9766 7.9141 Q228.3438 6.75 230.3906 6.75 Q231.7969 6.75 232.9766 7.3516 Q234.1562 7.9531 234.7891 9 Q235.4219 10.0469 235.4219 11.2188 Q235.4219 12.3281 234.8203 13.2422 Q234.2188 14.1562 233.0469 14.6875 Q234.5781 15.0469 235.4219 16.1562 Q236.2656 17.2656 236.2656 18.9219 Q236.2656 21.1719 234.625 22.7422 Q232.9844 24.3125 230.4688 24.3125 Q228.2031 24.3125 226.7109 22.9609 Q225.2188 21.6094 225.0156 19.4688 Z" stroke="none"/><path d="M311.7656 24 L311.7656 19.8906 L304.3125 19.8906 L304.3125 17.9531 L312.1406 6.8125 L313.875 6.8125 L313.875 17.9531 L316.1875 17.9531 L316.1875 19.8906 L313.875 19.8906 L313.875 24 L311.7656 24 ZM311.7656 17.9531 L311.7656 10.2031 L306.375 17.9531 L311.7656 17.9531 Z" stroke="none"/><path d="M385 19.5 L387.2188 19.3125 Q387.4531 20.9219 388.3516 21.7422 Q389.25 22.5625 390.5156 22.5625 Q392.0469 22.5625 393.1016 21.4141 Q394.1562 20.2656 394.1562 18.3594 Q394.1562 16.5625 393.1406 15.5156 Q392.125 14.4688 390.4844 14.4688 Q389.4688 14.4688 388.6484 14.9297 Q387.8281 15.3906 387.3594 16.1406 L385.375 15.875 L387.0312 7.0469 L395.5781 7.0469 L395.5781 9.0625 L388.7188 9.0625 L387.7969 13.6875 Q389.3438 12.6094 391.0469 12.6094 Q393.2969 12.6094 394.8438 14.1641 Q396.3906 15.7188 396.3906 18.1719 Q396.3906 20.5 395.0312 22.2031 Q393.375 24.2969 390.5156 24.2969 Q388.1719 24.2969 386.6875 22.9844 Q385.2031 21.6719 385 19.5 Z" stroke="none"/><path d="M475.9375 11.0312 L473.8438 11.1875 Q473.5625 9.9531 473.0469 9.3906 Q472.1875 8.4844 470.9375 8.4844 Q469.9375 8.4844 469.1719 9.0469 Q468.1719 9.7656 467.6016 11.1641 Q467.0312 12.5625 467 15.1406 Q467.7656 13.9844 468.8672 13.4219 Q469.9688 12.8594 471.1719 12.8594 Q473.2812 12.8594 474.7656 14.4062 Q476.25 15.9531 476.25 18.4219 Q476.25 20.0312 475.5547 21.4219 Q474.8594 22.8125 473.6406 23.5547 Q472.4219 24.2969 470.875 24.2969 Q468.2344 24.2969 466.5703 22.3516 Q464.9062 20.4062 464.9062 15.9531 Q464.9062 10.9844 466.75 8.7188 Q468.3438 6.75 471.0625 6.75 Q473.0938 6.75 474.3906 7.8828 Q475.6875 9.0156 475.9375 11.0312 ZM467.3281 18.4375 Q467.3281 19.5156 467.7891 20.5156 Q468.25 21.5156 469.0859 22.0391 Q469.9219 22.5625 470.8281 22.5625 Q472.1719 22.5625 473.1328 21.4844 Q474.0938 20.4062 474.0938 18.5469 Q474.0938 16.7656 473.1406 15.7422 Q472.1875 14.7188 470.75 14.7188 Q469.3281 14.7188 468.3281 15.7422 Q467.3281 16.7656 467.3281 18.4375 Z" stroke="none"/><path d="M545.1406 9.0625 L545.1406 7.0469 L556.2656 7.0469 L556.2656 8.6875 Q554.625 10.4219 553.0078 13.3203 Q551.3906 16.2188 550.5156 19.2812 Q549.8906 21.4375 549.7031 24 L547.5469 24 Q547.5781 21.9688 548.3359 19.1016 Q549.0938 16.2344 550.5234 13.5625 Q551.9531 10.8906 553.5469 9.0625 L545.1406 9.0625 Z" stroke="none"/></g><g fill="rgb(30,144,255)" font-size="24px" font-family="'Arial'" stroke="rgb(30,144,255)"><circle r="16" clip-path="url(#clipPath1)" cx="54" cy="54" stroke="none"/><circle fill="none" r="16" clip-path="url(#clipPath1)" cx="54" cy="54" stroke="black"/><path fill="black" d="M38.9688 63 L45.8438 45.1094 L48.3906 45.1094 L55.7188 63 L53.0156 63 L50.9219 57.5781 L43.4375 57.5781 L41.4844 63 L38.9688 63 ZM44.125 55.6562 L50.1875 55.6562 L48.3281 50.6875 Q47.4688 48.4375 47.0625 46.9844 Q46.7188 48.7031 46.0938 50.4062 L44.125 55.6562 ZM64.9873 63 L62.7842 63 L62.7842 49 Q62.0029 49.75 60.7139 50.5078 Q59.4248 51.2656 58.3936 51.6406 L58.3936 49.5156 Q60.2373 48.6562 61.6201 47.4219 Q63.0029 46.1875 63.5654 45.0312 L64.9873 45.0312 L64.9873 63 Z" clip-path="url(#clipPath2)" stroke="none"/><circle fill="rgb(144,238,144)" r="16" clip-path="url(#clipPath3)" cx="534" cy="534" stroke="none"/><circle fill="none" r="16" clip-path="url(#clipPath3)" cx="534" cy="534" stroke="black"/><path fill="black" d="M521.6875 542 L521.6875 525.5312 L527.8594 525.5312 Q529.75 525.5312 530.8906 526.0312 Q532.0312 526.5312 532.6719 527.5703 Q533.3125 528.6094 533.3125 529.75 Q533.3125 530.7969 532.7422 531.7344 Q532.1719 532.6719 531.0156 533.2344 Q532.5156 533.6719 533.3125 534.7344 Q534.1094 535.7969 534.1094 537.2344 Q534.1094 538.3906 533.625 539.3828 Q533.1406 540.375 532.4219 540.9141 Q531.7031 541.4531 530.6172 541.7266 Q529.5312 542 527.9688 542 L521.6875 542 ZM523.8594 532.4531 L527.4219 532.4531 Q528.875 532.4531 529.5 532.2656 Q530.3281 532.0156 530.75 531.4453 Q531.1719 530.875 531.1719 530 Q531.1719 529.1875 530.7812 528.5625 Q530.3906 527.9375 529.6562 527.7109 Q528.9219 527.4844 527.1562 527.4844 L523.8594 527.4844 L523.8594 532.4531 ZM523.8594 540.0625 L527.9688 540.0625 Q529.0156 540.0625 529.4375 539.9844 Q530.2031 539.8438 530.7031 539.5312 Q531.2031 539.2188 531.5312 538.6172 Q531.8594 538.0156 531.8594 537.2344 Q531.8594 536.3125 531.3906 535.6328 Q530.9219 534.9531 530.0859 534.6719 Q529.25 534.3906 527.6719 534.3906 L523.8594 534.3906 L523.8594 540.0625 ZM543.9033 542 L541.8877 542 L541.8877 529.125 Q541.1533 529.8125 539.9736 530.5078 Q538.7939 531.2031 537.8408 531.5625 L537.8408 529.5938 Q539.5439 528.7969 540.8096 527.6641 Q542.0752 526.5312 542.6064 525.4688 L543.9033 525.4688 L543.9033 542 Z" clip-path="url(#clipPath4)" stroke="none"/><circle r="16" clip-path="url(#clipPath5)" cx="150" cy="70" stroke="none"/><circle fill="none" r="16" clip-path="url(#clipPath5)" cx="150" cy="70" stroke="black"/><path fill="black" d="M134.9688 79 L141.8438 61.1094 L144.3906 61.1094 L151.7188 79 L149.0156 79 L146.9219 73.5781 L139.4375 73.5781 L137.4844 79 L134.9688 79 ZM140.125 71.6562 L146.1875 71.6562 L144.3281 66.6875 Q143.4688 64.4375 143.0625 62.9844 Q142.7188 64.7031 142.0938 66.4062 L140.125 71.6562 ZM164.2529 76.8906 L164.2529 79 L152.4248 79 Q152.4092 78.2031 152.6904 77.4688 Q153.1436 76.2656 154.1357 75.0938 Q155.1279 73.9219 157.0029 72.3906 Q159.9248 69.9844 160.9482 68.5938 Q161.9717 67.2031 161.9717 65.9531 Q161.9717 64.6406 161.042 63.7422 Q160.1123 62.8438 158.6123 62.8438 Q157.0186 62.8438 156.0654 63.7969 Q155.1123 64.75 155.1123 66.4375 L152.8467 66.2031 Q153.0811 63.6875 154.5967 62.3594 Q156.1123 61.0312 158.6592 61.0312 Q161.2373 61.0312 162.7373 62.4609 Q164.2373 63.8906 164.2373 66 Q164.2373 67.0781 163.7998 68.1172 Q163.3623 69.1562 162.3389 70.2969 Q161.3154 71.4375 158.9561 73.4531 Q156.9717 75.1094 156.4092 75.7031 Q155.8467 76.2969 155.4873 76.8906 L164.2529 76.8906 Z" clip-path="url(#clipPath6)" stroke="none"/><circle fill="rgb(144,238,144)" r="16" clip-path="url(#clipPath7)" cx="470" cy="550" stroke="none"/><circle fill="none" r="16" clip-path="url(#clipPath7)" cx="470" cy="550" stroke="black"/><path fill="black" d="M457.6875 558 L457.6875 541.5312 L463.8594 541.5312 Q465.75 541.5312 466.8906 542.0312 Q468.0312 542.5312 468.6719 543.5703 Q469.3125 544.6094 469.3125 545.75 Q469.3125 546.7969 468.7422 547.7344 Q468.1719 548.6719 467.0156 549.2344 Q468.5156 549.6719 469.3125 550.7344 Q470.1094 551.7969 470.1094 553.2344 Q470.1094 554.3906 469.625 555.3828 Q469.1406 556.375 468.4219 556.9141 Q467.7031 557.4531 466.6172 557.7266 Q465.5312 558 463.9688 558 L457.6875 558 ZM459.8594 548.4531 L463.4219 548.4531 Q464.875 548.4531 465.5 548.2656 Q466.3281 548.0156 466.75 547.4453 Q467.1719 546.875 467.1719 546 Q467.1719 545.1875 466.7812 544.5625 Q466.3906 543.9375 465.6562 543.7109 Q464.9219 543.4844 463.1562 543.4844 L459.8594 543.4844 L459.8594 548.4531 ZM459.8594 556.0625 L463.9688 556.0625 Q465.0156 556.0625 465.4375 555.9844 Q466.2031 555.8438 466.7031 555.5312 Q467.2031 555.2188 467.5312 554.6172 Q467.8594 554.0156 467.8594 553.2344 Q467.8594 552.3125 467.3906 551.6328 Q466.9219 550.9531 466.0859 550.6719 Q465.25 550.3906 463.6719 550.3906 L459.8594 550.3906 L459.8594 556.0625 ZM482.9189 556.0625 L482.9189 558 L472.0439 558 Q472.0127 557.2656 472.2783 556.5938 Q472.6846 555.4844 473.5986 554.4062 Q474.5127 553.3281 476.2471 551.9062 Q478.9346 549.7188 479.8799 548.4297 Q480.8252 547.1406 480.8252 546 Q480.8252 544.7969 479.9658 543.9688 Q479.1064 543.1406 477.7158 543.1406 Q476.2627 543.1406 475.3877 544.0156 Q474.5127 544.8906 474.4971 546.4375 L472.4189 546.2344 Q472.6377 543.9062 474.0283 542.6875 Q475.4189 541.4688 477.7627 541.4688 Q480.1377 541.4688 481.5205 542.7812 Q482.9033 544.0938 482.9033 546.0469 Q482.9033 547.0312 482.4971 547.9844 Q482.0908 548.9375 481.1533 549.9922 Q480.2158 551.0469 478.0283 552.8906 Q476.2158 554.4219 475.7002 554.9609 Q475.1846 555.5 474.8408 556.0625 L482.9189 556.0625 Z" clip-path="url(#clipPath8)" stroke="none"/><circle r="16" clip-path="url(#clipPath9)" cx="230" cy="70" stroke="none"/><circle fill="none" r="16" clip-path="url(#clipPath9)" cx="230" cy="70" stroke="black"/><path fill="black" d="M214.9688 79 L221.8438 61.1094 L224.3906 61.1094 L231.7188 79 L229.0156 79 L226.9219 73.5781 L219.4375 73.5781 L217.4844 79 L214.9688 79 ZM220.125 71.6562 L226.1875 71.6562 L224.3281 66.6875 Q223.4688 64.4375 223.0625 62.9844 Q222.7188 64.7031 222.0938 66.4062 L220.125 71.6562 ZM232.7217 74.2812 L234.9248 73.9844 Q235.2998 75.8438 236.2061 76.6719 Q237.1123 77.5 238.4248 77.5 Q239.9717 77.5 241.042 76.4219 Q242.1123 75.3438 242.1123 73.7656 Q242.1123 72.25 241.1201 71.2656 Q240.1279 70.2812 238.6123 70.2812 Q237.9873 70.2812 237.0654 70.5312 L237.2998 68.5938 Q237.5186 68.625 237.6592 68.625 Q239.0654 68.625 240.1826 67.8906 Q241.2998 67.1562 241.2998 65.6406 Q241.2998 64.4219 240.4873 63.6328 Q239.6748 62.8438 238.3779 62.8438 Q237.0967 62.8438 236.2451 63.6484 Q235.3936 64.4531 235.1436 66.0625 L232.9404 65.6719 Q233.3467 63.4531 234.7764 62.2422 Q236.2061 61.0312 238.3311 61.0312 Q239.7998 61.0312 241.0264 61.6562 Q242.2529 62.2812 242.9092 63.375 Q243.5654 64.4688 243.5654 65.6875 Q243.5654 66.8438 242.9404 67.7969 Q242.3154 68.75 241.0967 69.3125 Q242.6904 69.6719 243.5654 70.8281 Q244.4404 71.9844 244.4404 73.7188 Q244.4404 76.0625 242.7295 77.6875 Q241.0186 79.3125 238.4092 79.3125 Q236.0498 79.3125 234.4951 77.9141 Q232.9404 76.5156 232.7217 74.2812 Z" clip-path="url(#clipPath10)" stroke="none"/><circle fill="rgb(144,238,144)" r="16" clip-path="url(#clipPath11)" cx="470" cy="470" stroke="none"/><circle fill="none" r="16" clip-path="url(#clipPath11)" cx="470" cy="470" stroke="black"/><path fill="black" d="M457.6875 478 L457.6875 461.5312 L463.8594 461.5312 Q465.75 461.5312 466.8906 462.0312 Q468.0312 462.5312 468.6719 463.5703 Q469.3125 464.6094 469.3125 465.75 Q469.3125 466.7969 468.7422 467.7344 Q468.1719 468.6719 467.0156 469.2344 Q468.5156 469.6719 469.3125 470.7344 Q470.1094 471.7969 470.1094 473.2344 Q470.1094 474.3906 469.625 475.3828 Q469.1406 476.375 468.4219 476.9141 Q467.7031 477.4531 466.6172 477.7266 Q465.5312 478 463.9688 478 L457.6875 478 ZM459.8594 468.4531 L463.4219 468.4531 Q464.875 468.4531 465.5 468.2656 Q466.3281 468.0156 466.75 467.4453 Q467.1719 466.875 467.1719 466 Q467.1719 465.1875 466.7812 464.5625 Q466.3906 463.9375 465.6562 463.7109 Q464.9219 463.4844 463.1562 463.4844 L459.8594 463.4844 L459.8594 468.4531 ZM459.8594 476.0625 L463.9688 476.0625 Q465.0156 476.0625 465.4375 475.9844 Q466.2031 475.8438 466.7031 475.5312 Q467.2031 475.2188 467.5312 474.6172 Q467.8594 474.0156 467.8594 473.2344 Q467.8594 472.3125 467.3906 471.6328 Q466.9219 470.9531 466.0859 470.6719 Q465.25 470.3906 463.6719 470.3906 L459.8594 470.3906 L459.8594 476.0625 ZM472.3096 473.6562 L474.3252 473.3906 Q474.6689 475.1094 475.5127 475.8672 Q476.3564 476.625 477.5439 476.625 Q478.9814 476.625 479.9658 475.6328 Q480.9502 474.6406 480.9502 473.1875 Q480.9502 471.7969 480.0361 470.8906 Q479.1221 469.9844 477.7158 469.9844 Q477.1533 469.9844 476.2939 470.2031 L476.5127 468.4375 Q476.7158 468.4531 476.8408 468.4531 Q478.1377 468.4531 479.1689 467.7812 Q480.2002 467.1094 480.2002 465.7031 Q480.2002 464.5938 479.4502 463.8594 Q478.7002 463.125 477.5127 463.125 Q476.3252 463.125 475.5439 463.8672 Q474.7627 464.6094 474.5283 466.0938 L472.5127 465.7344 Q472.8721 463.7031 474.1924 462.5859 Q475.5127 461.4688 477.4658 461.4688 Q478.8096 461.4688 479.9424 462.0469 Q481.0752 462.625 481.6768 463.625 Q482.2783 464.625 482.2783 465.75 Q482.2783 466.8125 481.708 467.6875 Q481.1377 468.5625 480.0127 469.0781 Q481.4658 469.4219 482.2783 470.4844 Q483.0908 471.5469 483.0908 473.1406 Q483.0908 475.2969 481.5205 476.7969 Q479.9502 478.2969 477.5439 478.2969 Q475.3721 478.2969 473.9424 477 Q472.5127 475.7031 472.3096 473.6562 Z" clip-path="url(#clipPath12)" stroke="none"/><circle r="16" clip-path="url(#clipPath13)" cx="310" cy="70" stroke="none"/><circle fill="none" r="16" clip-path="url(#clipPath13)" cx="310" cy="70" stroke="black"/><path fill="black" d="M294.9688 79 L301.8438 61.1094 L304.3906 61.1094 L311.7188 79 L309.0156 79 L306.9219 73.5781 L299.4375 73.5781 L297.4844 79 L294.9688 79 ZM300.125 71.6562 L306.1875 71.6562 L304.3281 66.6875 Q303.4688 64.4375 303.0625 62.9844 Q302.7188 64.7031 302.0938 66.4062 L300.125 71.6562 ZM319.7529 79 L319.7529 74.7188 L311.9873 74.7188 L311.9873 72.7031 L320.1592 61.1094 L321.9561 61.1094 L321.9561 72.7031 L324.3779 72.7031 L324.3779 74.7188 L321.9561 74.7188 L321.9561 79 L319.7529 79 ZM319.7529 72.7031 L319.7529 64.625 L314.1592 72.7031 L319.7529 72.7031 Z" clip-path="url(#clipPath14)" stroke="none"/><circle fill="rgb(144,238,144)" r="16" clip-path="url(#clipPath15)" cx="390" cy="470" stroke="none"/><circle fill="none" r="16" clip-path="url(#clipPath15)" cx="390" cy="470" stroke="black"/><path fill="black" d="M377.6875 478 L377.6875 461.5312 L383.8594 461.5312 Q385.75 461.5312 386.8906 462.0312 Q388.0312 462.5312 388.6719 463.5703 Q389.3125 464.6094 389.3125 465.75 Q389.3125 466.7969 388.7422 467.7344 Q388.1719 468.6719 387.0156 469.2344 Q388.5156 469.6719 389.3125 470.7344 Q390.1094 471.7969 390.1094 473.2344 Q390.1094 474.3906 389.625 475.3828 Q389.1406 476.375 388.4219 476.9141 Q387.7031 477.4531 386.6172 477.7266 Q385.5312 478 383.9688 478 L377.6875 478 ZM379.8594 468.4531 L383.4219 468.4531 Q384.875 468.4531 385.5 468.2656 Q386.3281 468.0156 386.75 467.4453 Q387.1719 466.875 387.1719 466 Q387.1719 465.1875 386.7812 464.5625 Q386.3906 463.9375 385.6562 463.7109 Q384.9219 463.4844 383.1562 463.4844 L379.8594 463.4844 L379.8594 468.4531 ZM379.8594 476.0625 L383.9688 476.0625 Q385.0156 476.0625 385.4375 475.9844 Q386.2031 475.8438 386.7031 475.5312 Q387.2031 475.2188 387.5312 474.6172 Q387.8594 474.0156 387.8594 473.2344 Q387.8594 472.3125 387.3906 471.6328 Q386.9219 470.9531 386.0859 470.6719 Q385.25 470.3906 383.6719 470.3906 L379.8594 470.3906 L379.8594 476.0625 ZM398.7783 478 L398.7783 474.0625 L391.6377 474.0625 L391.6377 472.2031 L399.1533 461.5312 L400.7939 461.5312 L400.7939 472.2031 L403.0283 472.2031 L403.0283 474.0625 L400.7939 474.0625 L400.7939 478 L398.7783 478 ZM398.7783 472.2031 L398.7783 464.7812 L393.6221 472.2031 L398.7783 472.2031 Z" clip-path="url(#clipPath16)" stroke="none"/><circle r="16" clip-path="url(#clipPath17)" cx="310" cy="150" stroke="none"/><circle fill="none" r="16" clip-path="url(#clipPath17)" cx="310" cy="150" stroke="black"/><path fill="black" d="M294.9688 159 L301.8438 141.1094 L304.3906 141.1094 L311.7188 159 L309.0156 159 L306.9219 153.5781 L299.4375 153.5781 L297.4844 159 L294.9688 159 ZM300.125 151.6562 L306.1875 151.6562 L304.3281 146.6875 Q303.4688 144.4375 303.0625 142.9844 Q302.7188 144.7031 302.0938 146.4062 L300.125 151.6562 ZM312.7061 154.3125 L315.0186 154.1094 Q315.2686 155.7969 316.2061 156.6484 Q317.1436 157.5 318.4561 157.5 Q320.0498 157.5 321.1514 156.3047 Q322.2529 155.1094 322.2529 153.125 Q322.2529 151.25 321.1904 150.1641 Q320.1279 149.0781 318.4248 149.0781 Q317.3623 149.0781 316.5107 149.5625 Q315.6592 150.0469 315.1592 150.8125 L313.0967 150.5469 L314.8311 141.3438 L323.7373 141.3438 L323.7373 143.4531 L316.5967 143.4531 L315.6279 148.25 Q317.2373 147.1406 319.0186 147.1406 Q321.3623 147.1406 322.9717 148.7578 Q324.5811 150.375 324.5811 152.9375 Q324.5811 155.3594 323.1592 157.125 Q321.4404 159.3125 318.4561 159.3125 Q316.0186 159.3125 314.4717 157.9453 Q312.9248 156.5781 312.7061 154.3125 Z" clip-path="url(#clipPath18)" stroke="none"/><circle fill="rgb(144,238,144)" r="16" clip-path="url(#clipPath19)" cx="310" cy="470" stroke="none"/><circle fill="none" r="16" clip-path="url(#clipPath19)" cx="310" cy="470" stroke="black"/><path fill="black" d="M297.6875 478 L297.6875 461.5312 L303.8594 461.5312 Q305.75 461.5312 306.8906 462.0312 Q308.0312 462.5312 308.6719 463.5703 Q309.3125 464.6094 309.3125 465.75 Q309.3125 466.7969 308.7422 467.7344 Q308.1719 468.6719 307.0156 469.2344 Q308.5156 469.6719 309.3125 470.7344 Q310.1094 471.7969 310.1094 473.2344 Q310.1094 474.3906 309.625 475.3828 Q309.1406 476.375 308.4219 476.9141 Q307.7031 477.4531 306.6172 477.7266 Q305.5312 478 303.9688 478 L297.6875 478 ZM299.8594 468.4531 L303.4219 468.4531 Q304.875 468.4531 305.5 468.2656 Q306.3281 468.0156 306.75 467.4453 Q307.1719 466.875 307.1719 466 Q307.1719 465.1875 306.7812 464.5625 Q306.3906 463.9375 305.6562 463.7109 Q304.9219 463.4844 303.1562 463.4844 L299.8594 463.4844 L299.8594 468.4531 ZM299.8594 476.0625 L303.9688 476.0625 Q305.0156 476.0625 305.4375 475.9844 Q306.2031 475.8438 306.7031 475.5312 Q307.2031 475.2188 307.5312 474.6172 Q307.8594 474.0156 307.8594 473.2344 Q307.8594 472.3125 307.3906 471.6328 Q306.9219 470.9531 306.0859 470.6719 Q305.25 470.3906 303.6719 470.3906 L299.8594 470.3906 L299.8594 476.0625 ZM312.2939 473.6875 L314.4189 473.5 Q314.6533 475.0625 315.5127 475.8438 Q316.3721 476.625 317.5908 476.625 Q319.0439 476.625 320.0518 475.5234 Q321.0596 474.4219 321.0596 472.5938 Q321.0596 470.875 320.0908 469.875 Q319.1221 468.875 317.5439 468.875 Q316.5752 468.875 315.7861 469.3125 Q314.9971 469.75 314.5596 470.4688 L312.6533 470.2188 L314.2471 461.7656 L322.4346 461.7656 L322.4346 463.6875 L315.8721 463.6875 L314.9814 468.1094 Q316.4658 467.0781 318.0908 467.0781 Q320.2471 467.0781 321.7314 468.5781 Q323.2158 470.0781 323.2158 472.4219 Q323.2158 474.6562 321.9033 476.2812 Q320.3252 478.2812 317.5908 478.2812 Q315.3408 478.2812 313.9189 477.0234 Q312.4971 475.7656 312.2939 473.6875 Z" clip-path="url(#clipPath20)" stroke="none"/><circle r="16" clip-path="url(#clipPath21)" cx="390" cy="150" stroke="none"/><circle fill="none" r="16" clip-path="url(#clipPath21)" cx="390" cy="150" stroke="black"/><path fill="black" d="M374.9688 159 L381.8438 141.1094 L384.3906 141.1094 L391.7188 159 L389.0156 159 L386.9219 153.5781 L379.4375 153.5781 L377.4844 159 L374.9688 159 ZM380.125 151.6562 L386.1875 151.6562 L384.3281 146.6875 Q383.4688 144.4375 383.0625 142.9844 Q382.7188 144.7031 382.0938 146.4062 L380.125 151.6562 ZM404.1123 145.4844 L401.9248 145.6562 Q401.6436 144.3594 401.0967 143.7812 Q400.2061 142.8438 398.9092 142.8438 Q397.8467 142.8438 397.0654 143.4219 Q396.0186 144.1875 395.4248 145.6328 Q394.8311 147.0781 394.7998 149.7656 Q395.5967 148.5625 396.7451 147.9766 Q397.8936 147.3906 399.1436 147.3906 Q401.3467 147.3906 402.8857 149.0078 Q404.4248 150.625 404.4248 153.1875 Q404.4248 154.875 403.6982 156.3203 Q402.9717 157.7656 401.7061 158.5391 Q400.4404 159.3125 398.8311 159.3125 Q396.0811 159.3125 394.3467 157.2891 Q392.6123 155.2656 392.6123 150.625 Q392.6123 145.4375 394.5342 143.0781 Q396.2061 141.0312 399.0342 141.0312 Q401.1436 141.0312 402.4951 142.2188 Q403.8467 143.4062 404.1123 145.4844 ZM395.1436 153.2031 Q395.1436 154.3438 395.6279 155.375 Q396.1123 156.4062 396.9795 156.9531 Q397.8467 157.5 398.7842 157.5 Q400.1904 157.5 401.1904 156.375 Q402.1904 155.25 402.1904 153.3281 Q402.1904 151.4688 401.1982 150.3984 Q400.2061 149.3281 398.7061 149.3281 Q397.2217 149.3281 396.1826 150.3984 Q395.1436 151.4688 395.1436 153.2031 Z" clip-path="url(#clipPath22)" stroke="none"/><circle fill="rgb(144,238,144)" r="16" clip-path="url(#clipPath23)" cx="230" cy="470" stroke="none"/><circle fill="none" r="16" clip-path="url(#clipPath23)" cx="230" cy="470" stroke="black"/><path fill="black" d="M217.6875 478 L217.6875 461.5312 L223.8594 461.5312 Q225.75 461.5312 226.8906 462.0312 Q228.0312 462.5312 228.6719 463.5703 Q229.3125 464.6094 229.3125 465.75 Q229.3125 466.7969 228.7422 467.7344 Q228.1719 468.6719 227.0156 469.2344 Q228.5156 469.6719 229.3125 470.7344 Q230.1094 471.7969 230.1094 473.2344 Q230.1094 474.3906 229.625 475.3828 Q229.1406 476.375 228.4219 476.9141 Q227.7031 477.4531 226.6172 477.7266 Q225.5312 478 223.9688 478 L217.6875 478 ZM219.8594 468.4531 L223.4219 468.4531 Q224.875 468.4531 225.5 468.2656 Q226.3281 468.0156 226.75 467.4453 Q227.1719 466.875 227.1719 466 Q227.1719 465.1875 226.7812 464.5625 Q226.3906 463.9375 225.6562 463.7109 Q224.9219 463.4844 223.1562 463.4844 L219.8594 463.4844 L219.8594 468.4531 ZM219.8594 476.0625 L223.9688 476.0625 Q225.0156 476.0625 225.4375 475.9844 Q226.2031 475.8438 226.7031 475.5312 Q227.2031 475.2188 227.5312 474.6172 Q227.8594 474.0156 227.8594 473.2344 Q227.8594 472.3125 227.3906 471.6328 Q226.9219 470.9531 226.0859 470.6719 Q225.25 470.3906 223.6719 470.3906 L219.8594 470.3906 L219.8594 476.0625 ZM242.7783 465.5625 L240.7783 465.7188 Q240.5127 464.5312 240.0127 464 Q239.1846 463.125 237.9971 463.125 Q237.0283 463.125 236.2939 463.6719 Q235.3408 464.3594 234.7861 465.6953 Q234.2314 467.0312 234.2158 469.5156 Q234.9502 468.3906 236.0049 467.8516 Q237.0596 467.3125 238.2158 467.3125 Q240.2314 467.3125 241.6533 468.8047 Q243.0752 470.2969 243.0752 472.6562 Q243.0752 474.2031 242.4111 475.5312 Q241.7471 476.8594 240.5752 477.5703 Q239.4033 478.2812 237.9189 478.2812 Q235.3877 478.2812 233.7939 476.4219 Q232.2002 474.5625 232.2002 470.2969 Q232.2002 465.5156 233.9658 463.3594 Q235.5127 461.4688 238.1064 461.4688 Q240.0596 461.4688 241.3018 462.5547 Q242.5439 463.6406 242.7783 465.5625 ZM234.5283 472.6719 Q234.5283 473.7031 234.9736 474.6641 Q235.4189 475.625 236.2158 476.125 Q237.0127 476.625 237.8877 476.625 Q239.1689 476.625 240.0908 475.5859 Q241.0127 474.5469 241.0127 472.7812 Q241.0127 471.0781 240.0986 470.0938 Q239.1846 469.1094 237.8096 469.1094 Q236.4346 469.1094 235.4814 470.0938 Q234.5283 471.0781 234.5283 472.6719 Z" clip-path="url(#clipPath24)" stroke="none"/><circle r="16" clip-path="url(#clipPath25)" cx="470" cy="150" stroke="none"/><circle fill="none" r="16" clip-path="url(#clipPath25)" cx="470" cy="150" stroke="black"/><path fill="black" d="M454.9688 159 L461.8438 141.1094 L464.3906 141.1094 L471.7188 159 L469.0156 159 L466.9219 153.5781 L459.4375 153.5781 L457.4844 159 L454.9688 159 ZM460.125 151.6562 L466.1875 151.6562 L464.3281 146.6875 Q463.4688 144.4375 463.0625 142.9844 Q462.7188 144.7031 462.0938 146.4062 L460.125 151.6562 ZM472.8623 143.4531 L472.8623 141.3438 L484.4404 141.3438 L484.4404 143.0469 Q482.7373 144.8594 481.0576 147.875 Q479.3779 150.8906 478.4561 154.0781 Q477.7998 156.3281 477.6123 159 L475.3623 159 Q475.3936 156.8906 476.1904 153.8984 Q476.9873 150.9062 478.4717 148.1328 Q479.9561 145.3594 481.6279 143.4531 L472.8623 143.4531 Z" clip-path="url(#clipPath26)" stroke="none"/><circle fill="rgb(144,238,144)" r="16" clip-path="url(#clipPath27)" cx="150" cy="470" stroke="none"/><circle fill="none" r="16" clip-path="url(#clipPath27)" cx="150" cy="470" stroke="black"/><path fill="black" d="M137.6875 478 L137.6875 461.5312 L143.8594 461.5312 Q145.75 461.5312 146.8906 462.0312 Q148.0312 462.5312 148.6719 463.5703 Q149.3125 464.6094 149.3125 465.75 Q149.3125 466.7969 148.7422 467.7344 Q148.1719 468.6719 147.0156 469.2344 Q148.5156 469.6719 149.3125 470.7344 Q150.1094 471.7969 150.1094 473.2344 Q150.1094 474.3906 149.625 475.3828 Q149.1406 476.375 148.4219 476.9141 Q147.7031 477.4531 146.6172 477.7266 Q145.5312 478 143.9688 478 L137.6875 478 ZM139.8594 468.4531 L143.4219 468.4531 Q144.875 468.4531 145.5 468.2656 Q146.3281 468.0156 146.75 467.4453 Q147.1719 466.875 147.1719 466 Q147.1719 465.1875 146.7812 464.5625 Q146.3906 463.9375 145.6562 463.7109 Q144.9219 463.4844 143.1562 463.4844 L139.8594 463.4844 L139.8594 468.4531 ZM139.8594 476.0625 L143.9688 476.0625 Q145.0156 476.0625 145.4375 475.9844 Q146.2031 475.8438 146.7031 475.5312 Q147.2031 475.2188 147.5312 474.6172 Q147.8594 474.0156 147.8594 473.2344 Q147.8594 472.3125 147.3906 471.6328 Q146.9219 470.9531 146.0859 470.6719 Q145.25 470.3906 143.6719 470.3906 L139.8594 470.3906 L139.8594 476.0625 ZM152.4346 463.6875 L152.4346 461.75 L163.0908 461.75 L163.0908 463.3281 Q161.5127 465 159.9736 467.7734 Q158.4346 470.5469 157.5908 473.4688 Q156.9814 475.5469 156.8096 478 L154.7314 478 Q154.7627 476.0625 155.4971 473.3047 Q156.2314 470.5469 157.5908 467.9922 Q158.9502 465.4375 160.4971 463.6875 L152.4346 463.6875 Z" clip-path="url(#clipPath28)" stroke="none"/><circle r="16" clip-path="url(#clipPath29)" cx="550" cy="150" stroke="none"/><circle fill="none" r="16" clip-path="url(#clipPath29)" cx="550" cy="150" stroke="black"/><path fill="black" d="M534.9688 159 L541.8438 141.1094 L544.3906 141.1094 L551.7188 159 L549.0156 159 L546.9219 153.5781 L539.4375 153.5781 L537.4844 159 L534.9688 159 ZM540.125 151.6562 L546.1875 151.6562 L544.3281 146.6875 Q543.4688 144.4375 543.0625 142.9844 Q542.7188 144.7031 542.0938 146.4062 L540.125 151.6562 ZM556.0967 149.2969 Q554.7217 148.7969 554.0654 147.8672 Q553.4092 146.9375 553.4092 145.6406 Q553.4092 143.6875 554.8154 142.3594 Q556.2217 141.0312 558.5498 141.0312 Q560.8936 141.0312 562.3232 142.3906 Q563.7529 143.75 563.7529 145.7031 Q563.7529 146.9531 563.0967 147.875 Q562.4404 148.7969 561.1123 149.2969 Q562.7529 149.8281 563.6201 151.0234 Q564.4873 152.2188 564.4873 153.8906 Q564.4873 156.1875 562.8623 157.75 Q561.2373 159.3125 558.5811 159.3125 Q555.9404 159.3125 554.3154 157.7422 Q552.6904 156.1719 552.6904 153.8281 Q552.6904 152.0781 553.5732 150.8984 Q554.4561 149.7188 556.0967 149.2969 ZM555.6592 145.5781 Q555.6592 146.8438 556.4717 147.6484 Q557.2842 148.4531 558.5967 148.4531 Q559.8623 148.4531 560.6748 147.6562 Q561.4873 146.8594 561.4873 145.6875 Q561.4873 144.4844 560.6514 143.6641 Q559.8154 142.8438 558.5654 142.8438 Q557.3154 142.8438 556.4873 143.6484 Q555.6592 144.4531 555.6592 145.5781 ZM554.9404 153.8438 Q554.9404 154.7812 555.3857 155.6562 Q555.8311 156.5312 556.7139 157.0156 Q557.5967 157.5 558.6123 157.5 Q560.1904 157.5 561.2139 156.4844 Q562.2373 155.4688 562.2373 153.9062 Q562.2373 152.3281 561.1826 151.2891 Q560.1279 150.25 558.5342 150.25 Q556.9873 150.25 555.9639 151.2734 Q554.9404 152.2969 554.9404 153.8438 Z" clip-path="url(#clipPath30)" stroke="none"/><circle fill="rgb(144,238,144)" r="16" clip-path="url(#clipPath31)" cx="70" cy="470" stroke="none"/><circle fill="none" r="16" clip-path="url(#clipPath31)" cx="70" cy="470" stroke="black"/><path fill="black" d="M57.6875 478 L57.6875 461.5312 L63.8594 461.5312 Q65.75 461.5312 66.8906 462.0312 Q68.0312 462.5312 68.6719 463.5703 Q69.3125 464.6094 69.3125 465.75 Q69.3125 466.7969 68.7422 467.7344 Q68.1719 468.6719 67.0156 469.2344 Q68.5156 469.6719 69.3125 470.7344 Q70.1094 471.7969 70.1094 473.2344 Q70.1094 474.3906 69.625 475.3828 Q69.1406 476.375 68.4219 476.9141 Q67.7031 477.4531 66.6172 477.7266 Q65.5312 478 63.9688 478 L57.6875 478 ZM59.8594 468.4531 L63.4219 468.4531 Q64.875 468.4531 65.5 468.2656 Q66.3281 468.0156 66.75 467.4453 Q67.1719 466.875 67.1719 466 Q67.1719 465.1875 66.7812 464.5625 Q66.3906 463.9375 65.6562 463.7109 Q64.9219 463.4844 63.1562 463.4844 L59.8594 463.4844 L59.8594 468.4531 ZM59.8594 476.0625 L63.9688 476.0625 Q65.0156 476.0625 65.4375 475.9844 Q66.2031 475.8438 66.7031 475.5312 Q67.2031 475.2188 67.5312 474.6172 Q67.8594 474.0156 67.8594 473.2344 Q67.8594 472.3125 67.3906 471.6328 Q66.9219 470.9531 66.0859 470.6719 Q65.25 470.3906 63.6719 470.3906 L59.8594 470.3906 L59.8594 476.0625 ZM75.4033 469.0781 Q74.1533 468.6094 73.5439 467.7578 Q72.9346 466.9062 72.9346 465.7188 Q72.9346 463.9219 74.2236 462.6953 Q75.5127 461.4688 77.6689 461.4688 Q79.8252 461.4688 81.1377 462.7188 Q82.4502 463.9688 82.4502 465.7656 Q82.4502 466.9219 81.8486 467.7656 Q81.2471 468.6094 80.0283 469.0781 Q81.5439 469.5625 82.333 470.6641 Q83.1221 471.7656 83.1221 473.2969 Q83.1221 475.4062 81.6299 476.8438 Q80.1377 478.2812 77.7002 478.2812 Q75.2627 478.2812 73.7705 476.8359 Q72.2783 475.3906 72.2783 473.2344 Q72.2783 471.625 73.0908 470.5469 Q73.9033 469.4688 75.4033 469.0781 ZM74.9971 465.6406 Q74.9971 466.8125 75.7549 467.5547 Q76.5127 468.2969 77.7158 468.2969 Q78.8721 468.2969 79.6221 467.5625 Q80.3721 466.8281 80.3721 465.7656 Q80.3721 464.6406 79.5986 463.8828 Q78.8252 463.125 77.6846 463.125 Q76.5283 463.125 75.7627 463.8672 Q74.9971 464.6094 74.9971 465.6406 ZM74.3564 473.25 Q74.3564 474.1094 74.7627 474.9219 Q75.1689 475.7344 75.9814 476.1797 Q76.7939 476.625 77.7158 476.625 Q79.1689 476.625 80.1143 475.6875 Q81.0596 474.75 81.0596 473.3125 Q81.0596 471.8594 80.083 470.9062 Q79.1064 469.9531 77.6533 469.9531 Q76.2314 469.9531 75.2939 470.8906 Q74.3564 471.8281 74.3564 473.25 Z" clip-path="url(#clipPath32)" stroke="none"/><circle r="16" clip-path="url(#clipPath33)" cx="550" cy="230" stroke="none"/><circle fill="none" r="16" clip-path="url(#clipPath33)" cx="550" cy="230" stroke="black"/><path fill="black" d="M534.9688 239 L541.8438 221.1094 L544.3906 221.1094 L551.7188 239 L549.0156 239 L546.9219 233.5781 L539.4375 233.5781 L537.4844 239 L534.9688 239 ZM540.125 231.6562 L546.1875 231.6562 L544.3281 226.6875 Q543.4688 224.4375 543.0625 222.9844 Q542.7188 224.7031 542.0938 226.4062 L540.125 231.6562 ZM553.0498 234.8594 L555.1592 234.6719 Q555.4248 236.1562 556.1826 236.8281 Q556.9404 237.5 558.1279 237.5 Q559.1279 237.5 559.8936 237.0391 Q560.6592 236.5781 561.1514 235.7969 Q561.6436 235.0156 561.9717 233.7031 Q562.2998 232.3906 562.2998 231.0156 Q562.2998 230.875 562.2842 230.5781 Q561.6279 231.625 560.4873 232.2812 Q559.3467 232.9375 558.0029 232.9375 Q555.7842 232.9375 554.2451 231.3203 Q552.7061 229.7031 552.7061 227.0781 Q552.7061 224.3438 554.3154 222.6875 Q555.9248 221.0312 558.3467 221.0312 Q560.0811 221.0312 561.5264 221.9688 Q562.9717 222.9062 563.7295 224.6484 Q564.4873 226.3906 564.4873 229.6875 Q564.4873 233.1094 563.7373 235.1484 Q562.9873 237.1875 561.5186 238.25 Q560.0498 239.3125 558.0654 239.3125 Q555.9717 239.3125 554.6436 238.1406 Q553.3154 236.9688 553.0498 234.8594 ZM562.0342 226.9688 Q562.0342 225.0781 561.0264 223.9609 Q560.0186 222.8438 558.6123 222.8438 Q557.1436 222.8438 556.0576 224.0469 Q554.9717 225.25 554.9717 227.1406 Q554.9717 228.8594 556.0029 229.9219 Q557.0342 230.9844 558.5498 230.9844 Q560.0811 230.9844 561.0576 229.9219 Q562.0342 228.8594 562.0342 226.9688 Z" clip-path="url(#clipPath34)" stroke="none"/><circle fill="rgb(144,238,144)" r="16" clip-path="url(#clipPath35)" cx="70" cy="390" stroke="none"/><circle fill="none" r="16" clip-path="url(#clipPath35)" cx="70" cy="390" stroke="black"/><path fill="black" d="M57.6875 398 L57.6875 381.5312 L63.8594 381.5312 Q65.75 381.5312 66.8906 382.0312 Q68.0312 382.5312 68.6719 383.5703 Q69.3125 384.6094 69.3125 385.75 Q69.3125 386.7969 68.7422 387.7344 Q68.1719 388.6719 67.0156 389.2344 Q68.5156 389.6719 69.3125 390.7344 Q70.1094 391.7969 70.1094 393.2344 Q70.1094 394.3906 69.625 395.3828 Q69.1406 396.375 68.4219 396.9141 Q67.7031 397.4531 66.6172 397.7266 Q65.5312 398 63.9688 398 L57.6875 398 ZM59.8594 388.4531 L63.4219 388.4531 Q64.875 388.4531 65.5 388.2656 Q66.3281 388.0156 66.75 387.4453 Q67.1719 386.875 67.1719 386 Q67.1719 385.1875 66.7812 384.5625 Q66.3906 383.9375 65.6562 383.7109 Q64.9219 383.4844 63.1562 383.4844 L59.8594 383.4844 L59.8594 388.4531 ZM59.8594 396.0625 L63.9688 396.0625 Q65.0156 396.0625 65.4375 395.9844 Q66.2031 395.8438 66.7031 395.5312 Q67.2031 395.2188 67.5312 394.6172 Q67.8594 394.0156 67.8594 393.2344 Q67.8594 392.3125 67.3906 391.6328 Q66.9219 390.9531 66.0859 390.6719 Q65.25 390.3906 63.6719 390.3906 L59.8594 390.3906 L59.8594 396.0625 ZM72.6064 394.1875 L74.5439 394.0156 Q74.7939 395.3906 75.4893 396.0078 Q76.1846 396.625 77.2783 396.625 Q78.2002 396.625 78.9033 396.1953 Q79.6064 395.7656 80.0596 395.0547 Q80.5127 394.3438 80.8096 393.125 Q81.1064 391.9062 81.1064 390.6562 Q81.1064 390.5156 81.1064 390.25 Q80.4971 391.2188 79.4424 391.8203 Q78.3877 392.4219 77.1689 392.4219 Q75.1221 392.4219 73.708 390.9375 Q72.2939 389.4531 72.2939 387.0312 Q72.2939 384.5156 73.7705 382.9922 Q75.2471 381.4688 77.4658 381.4688 Q79.0752 381.4688 80.4111 382.3359 Q81.7471 383.2031 82.4346 384.8047 Q83.1221 386.4062 83.1221 389.4375 Q83.1221 392.5938 82.4346 394.4609 Q81.7471 396.3281 80.3955 397.3047 Q79.0439 398.2812 77.2314 398.2812 Q75.2939 398.2812 74.0674 397.2109 Q72.8408 396.1406 72.6064 394.1875 ZM80.8721 386.9219 Q80.8721 385.1875 79.9502 384.1641 Q79.0283 383.1406 77.7158 383.1406 Q76.3721 383.1406 75.3721 384.2422 Q74.3721 385.3438 74.3721 387.0938 Q74.3721 388.6719 75.3252 389.6484 Q76.2783 390.625 77.6689 390.625 Q79.0752 390.625 79.9736 389.6484 Q80.8721 388.6719 80.8721 386.9219 Z" clip-path="url(#clipPath36)" stroke="none"/><circle r="16" clip-path="url(#clipPath37)" cx="550" cy="310" stroke="none"/><circle fill="none" r="16" clip-path="url(#clipPath37)" cx="550" cy="310" stroke="black"/><path fill="black" d="M535.9688 316 L540.375 304.5469 L542.0156 304.5469 L546.7031 316 L544.9688 316 L543.6406 312.5312 L538.8438 312.5312 L537.5938 316 L535.9688 316 ZM539.2812 311.2969 L543.1719 311.2969 L541.9688 308.125 Q541.4219 306.6719 541.1562 305.75 Q540.9375 306.8438 540.5469 307.9375 L539.2812 311.2969 ZM552.6406 316 L551.2344 316 L551.2344 307.0312 Q550.7188 307.5156 549.8984 308 Q549.0781 308.4844 548.4219 308.7344 L548.4219 307.375 Q549.5938 306.8125 550.4766 306.0234 Q551.3594 305.2344 551.7344 304.5 L552.6406 304.5 L552.6406 316 ZM556.2422 310.3438 Q556.2422 308.3125 556.6562 307.0781 Q557.0703 305.8438 557.8984 305.1719 Q558.7266 304.5 559.9766 304.5 Q560.8984 304.5 561.5938 304.8672 Q562.2891 305.2344 562.7422 305.9375 Q563.1953 306.6406 563.4531 307.6406 Q563.7109 308.6406 563.7109 310.3438 Q563.7109 312.3594 563.2969 313.6016 Q562.8828 314.8438 562.0547 315.5234 Q561.2266 316.2031 559.9766 316.2031 Q558.3203 316.2031 557.3672 315 Q556.2422 313.5781 556.2422 310.3438 ZM557.6797 310.3438 Q557.6797 313.1719 558.3438 314.1016 Q559.0078 315.0312 559.9766 315.0312 Q560.9453 315.0312 561.6016 314.0938 Q562.2578 313.1562 562.2578 310.3438 Q562.2578 307.5156 561.6016 306.5859 Q560.9453 305.6562 559.9609 305.6562 Q558.9922 305.6562 558.4141 306.4844 Q557.6797 307.5312 557.6797 310.3438 Z" clip-path="url(#clipPath38)" stroke="none"/><circle fill="rgb(144,238,144)" r="16" clip-path="url(#clipPath39)" cx="70" cy="310" stroke="none"/><circle fill="none" r="16" clip-path="url(#clipPath39)" cx="70" cy="310" stroke="black"/><path fill="black" d="M57.1719 316 L57.1719 304.5469 L61.4688 304.5469 Q62.7812 304.5469 63.5781 304.8906 Q64.375 305.2344 64.8203 305.9609 Q65.2656 306.6875 65.2656 307.4688 Q65.2656 308.2031 64.8672 308.8516 Q64.4688 309.5 63.6719 309.9062 Q64.7031 310.2031 65.2656 310.9375 Q65.8281 311.6719 65.8281 312.6719 Q65.8281 313.4844 65.4844 314.1719 Q65.1406 314.8594 64.6406 315.2344 Q64.1406 315.6094 63.3906 315.8047 Q62.6406 316 61.5469 316 L57.1719 316 ZM58.6875 309.3594 L61.1719 309.3594 Q62.1719 309.3594 62.6094 309.2188 Q63.1875 309.0469 63.4844 308.6484 Q63.7812 308.25 63.7812 307.6562 Q63.7812 307.0781 63.5078 306.6484 Q63.2344 306.2188 62.7266 306.0547 Q62.2188 305.8906 60.9844 305.8906 L58.6875 305.8906 L58.6875 309.3594 ZM58.6875 314.6406 L61.5469 314.6406 Q62.2812 314.6406 62.5781 314.5938 Q63.0938 314.5 63.4453 314.2812 Q63.7969 314.0625 64.0234 313.6406 Q64.25 313.2188 64.25 312.6719 Q64.25 312.0312 63.9219 311.5625 Q63.5938 311.0938 63.0156 310.8984 Q62.4375 310.7031 61.3438 310.7031 L58.6875 310.7031 L58.6875 314.6406 ZM72.6406 316 L71.2344 316 L71.2344 307.0312 Q70.7188 307.5156 69.8984 308 Q69.0781 308.4844 68.4219 308.7344 L68.4219 307.375 Q69.5938 306.8125 70.4766 306.0234 Q71.3594 305.2344 71.7344 304.5 L72.6406 304.5 L72.6406 316 ZM76.2422 310.3438 Q76.2422 308.3125 76.6562 307.0781 Q77.0703 305.8438 77.8984 305.1719 Q78.7266 304.5 79.9766 304.5 Q80.8984 304.5 81.5938 304.8672 Q82.2891 305.2344 82.7422 305.9375 Q83.1953 306.6406 83.4531 307.6406 Q83.7109 308.6406 83.7109 310.3438 Q83.7109 312.3594 83.2969 313.6016 Q82.8828 314.8438 82.0547 315.5234 Q81.2266 316.2031 79.9766 316.2031 Q78.3203 316.2031 77.3672 315 Q76.2422 313.5781 76.2422 310.3438 ZM77.6797 310.3438 Q77.6797 313.1719 78.3438 314.1016 Q79.0078 315.0312 79.9766 315.0312 Q80.9453 315.0312 81.6016 314.0938 Q82.2578 313.1562 82.2578 310.3438 Q82.2578 307.5156 81.6016 306.5859 Q80.9453 305.6562 79.9609 305.6562 Q78.9922 305.6562 78.4141 306.4844 Q77.6797 307.5312 77.6797 310.3438 Z" clip-path="url(#clipPath40)" stroke="none"/><circle r="16" clip-path="url(#clipPath41)" cx="550" cy="390" stroke="none"/><circle fill="none" r="16" clip-path="url(#clipPath41)" cx="550" cy="390" stroke="black"/><path fill="black" d="M535.9688 396 L540.375 384.5469 L542.0156 384.5469 L546.7031 396 L544.9688 396 L543.6406 392.5312 L538.8438 392.5312 L537.5938 396 L535.9688 396 ZM539.2812 391.2969 L543.1719 391.2969 L541.9688 388.125 Q541.4219 386.6719 541.1562 385.75 Q540.9375 386.8438 540.5469 387.9375 L539.2812 391.2969 ZM552.6406 396 L551.2344 396 L551.2344 387.0312 Q550.7188 387.5156 549.8984 388 Q549.0781 388.4844 548.4219 388.7344 L548.4219 387.375 Q549.5938 386.8125 550.4766 386.0234 Q551.3594 385.2344 551.7344 384.5 L552.6406 384.5 L552.6406 396 ZM561.5391 396 L560.1328 396 L560.1328 387.0312 Q559.6172 387.5156 558.7969 388 Q557.9766 388.4844 557.3203 388.7344 L557.3203 387.375 Q558.4922 386.8125 559.375 386.0234 Q560.2578 385.2344 560.6328 384.5 L561.5391 384.5 L561.5391 396 Z" clip-path="url(#clipPath42)" stroke="none"/><circle fill="rgb(144,238,144)" r="16" clip-path="url(#clipPath43)" cx="70" cy="230" stroke="none"/><circle fill="none" r="16" clip-path="url(#clipPath43)" cx="70" cy="230" stroke="black"/><path fill="black" d="M57.1719 236 L57.1719 224.5469 L61.4688 224.5469 Q62.7812 224.5469 63.5781 224.8906 Q64.375 225.2344 64.8203 225.9609 Q65.2656 226.6875 65.2656 227.4688 Q65.2656 228.2031 64.8672 228.8516 Q64.4688 229.5 63.6719 229.9062 Q64.7031 230.2031 65.2656 230.9375 Q65.8281 231.6719 65.8281 232.6719 Q65.8281 233.4844 65.4844 234.1719 Q65.1406 234.8594 64.6406 235.2344 Q64.1406 235.6094 63.3906 235.8047 Q62.6406 236 61.5469 236 L57.1719 236 ZM58.6875 229.3594 L61.1719 229.3594 Q62.1719 229.3594 62.6094 229.2188 Q63.1875 229.0469 63.4844 228.6484 Q63.7812 228.25 63.7812 227.6562 Q63.7812 227.0781 63.5078 226.6484 Q63.2344 226.2188 62.7266 226.0547 Q62.2188 225.8906 60.9844 225.8906 L58.6875 225.8906 L58.6875 229.3594 ZM58.6875 234.6406 L61.5469 234.6406 Q62.2812 234.6406 62.5781 234.5938 Q63.0938 234.5 63.4453 234.2812 Q63.7969 234.0625 64.0234 233.6406 Q64.25 233.2188 64.25 232.6719 Q64.25 232.0312 63.9219 231.5625 Q63.5938 231.0938 63.0156 230.8984 Q62.4375 230.7031 61.3438 230.7031 L58.6875 230.7031 L58.6875 234.6406 ZM72.6406 236 L71.2344 236 L71.2344 227.0312 Q70.7188 227.5156 69.8984 228 Q69.0781 228.4844 68.4219 228.7344 L68.4219 227.375 Q69.5938 226.8125 70.4766 226.0234 Q71.3594 225.2344 71.7344 224.5 L72.6406 224.5 L72.6406 236 ZM81.5391 236 L80.1328 236 L80.1328 227.0312 Q79.6172 227.5156 78.7969 228 Q77.9766 228.4844 77.3203 228.7344 L77.3203 227.375 Q78.4922 226.8125 79.375 226.0234 Q80.2578 225.2344 80.6328 224.5 L81.5391 224.5 L81.5391 236 Z" clip-path="url(#clipPath44)" stroke="none"/><circle r="16" clip-path="url(#clipPath45)" cx="550" cy="470" stroke="none"/><circle fill="none" r="16" clip-path="url(#clipPath45)" cx="550" cy="470" stroke="black"/><path fill="black" d="M535.9688 476 L540.375 464.5469 L542.0156 464.5469 L546.7031 476 L544.9688 476 L543.6406 472.5312 L538.8438 472.5312 L537.5938 476 L535.9688 476 ZM539.2812 471.2969 L543.1719 471.2969 L541.9688 468.125 Q541.4219 466.6719 541.1562 465.75 Q540.9375 466.8438 540.5469 467.9375 L539.2812 471.2969 ZM552.6406 476 L551.2344 476 L551.2344 467.0312 Q550.7188 467.5156 549.8984 468 Q549.0781 468.4844 548.4219 468.7344 L548.4219 467.375 Q549.5938 466.8125 550.4766 466.0234 Q551.3594 465.2344 551.7344 464.5 L552.6406 464.5 L552.6406 476 ZM563.6328 474.6406 L563.6328 476 L556.0547 476 Q556.0391 475.4844 556.2266 475.0156 Q556.5078 474.25 557.1484 473.5 Q557.7891 472.75 558.9922 471.7656 Q560.8516 470.2344 561.5078 469.3359 Q562.1641 468.4375 562.1641 467.6406 Q562.1641 466.8125 561.5703 466.2344 Q560.9766 465.6562 560.0078 465.6562 Q558.9922 465.6562 558.3828 466.2656 Q557.7734 466.875 557.7734 467.9531 L556.3203 467.8125 Q556.4766 466.1875 557.4453 465.3438 Q558.4141 464.5 560.0391 464.5 Q561.6953 464.5 562.6562 465.4141 Q563.6172 466.3281 563.6172 467.6719 Q563.6172 468.3594 563.3359 469.0234 Q563.0547 469.6875 562.3984 470.4219 Q561.7422 471.1562 560.2266 472.4375 Q558.9609 473.5 558.6016 473.8828 Q558.2422 474.2656 558.0078 474.6406 L563.6328 474.6406 Z" clip-path="url(#clipPath46)" stroke="none"/><circle fill="rgb(144,238,144)" r="16" clip-path="url(#clipPath47)" cx="70" cy="150" stroke="none"/><circle fill="none" r="16" clip-path="url(#clipPath47)" cx="70" cy="150" stroke="black"/><path fill="black" d="M57.1719 156 L57.1719 144.5469 L61.4688 144.5469 Q62.7812 144.5469 63.5781 144.8906 Q64.375 145.2344 64.8203 145.9609 Q65.2656 146.6875 65.2656 147.4688 Q65.2656 148.2031 64.8672 148.8516 Q64.4688 149.5 63.6719 149.9062 Q64.7031 150.2031 65.2656 150.9375 Q65.8281 151.6719 65.8281 152.6719 Q65.8281 153.4844 65.4844 154.1719 Q65.1406 154.8594 64.6406 155.2344 Q64.1406 155.6094 63.3906 155.8047 Q62.6406 156 61.5469 156 L57.1719 156 ZM58.6875 149.3594 L61.1719 149.3594 Q62.1719 149.3594 62.6094 149.2188 Q63.1875 149.0469 63.4844 148.6484 Q63.7812 148.25 63.7812 147.6562 Q63.7812 147.0781 63.5078 146.6484 Q63.2344 146.2188 62.7266 146.0547 Q62.2188 145.8906 60.9844 145.8906 L58.6875 145.8906 L58.6875 149.3594 ZM58.6875 154.6406 L61.5469 154.6406 Q62.2812 154.6406 62.5781 154.5938 Q63.0938 154.5 63.4453 154.2812 Q63.7969 154.0625 64.0234 153.6406 Q64.25 153.2188 64.25 152.6719 Q64.25 152.0312 63.9219 151.5625 Q63.5938 151.0938 63.0156 150.8984 Q62.4375 150.7031 61.3438 150.7031 L58.6875 150.7031 L58.6875 154.6406 ZM72.6406 156 L71.2344 156 L71.2344 147.0312 Q70.7188 147.5156 69.8984 148 Q69.0781 148.4844 68.4219 148.7344 L68.4219 147.375 Q69.5938 146.8125 70.4766 146.0234 Q71.3594 145.2344 71.7344 144.5 L72.6406 144.5 L72.6406 156 ZM83.6328 154.6406 L83.6328 156 L76.0547 156 Q76.0391 155.4844 76.2266 155.0156 Q76.5078 154.25 77.1484 153.5 Q77.7891 152.75 78.9922 151.7656 Q80.8516 150.2344 81.5078 149.3359 Q82.1641 148.4375 82.1641 147.6406 Q82.1641 146.8125 81.5703 146.2344 Q80.9766 145.6562 80.0078 145.6562 Q78.9922 145.6562 78.3828 146.2656 Q77.7734 146.875 77.7734 147.9531 L76.3203 147.8125 Q76.4766 146.1875 77.4453 145.3438 Q78.4141 144.5 80.0391 144.5 Q81.6953 144.5 82.6562 145.4141 Q83.6172 146.3281 83.6172 147.6719 Q83.6172 148.3594 83.3359 149.0234 Q83.0547 149.6875 82.3984 150.4219 Q81.7422 151.1562 80.2266 152.4375 Q78.9609 153.5 78.6016 153.8828 Q78.2422 154.2656 78.0078 154.6406 L83.6328 154.6406 Z" clip-path="url(#clipPath48)" stroke="none"/><circle r="16" clip-path="url(#clipPath49)" cx="566" cy="566" stroke="none"/><circle fill="none" r="16" clip-path="url(#clipPath49)" cx="566" cy="566" stroke="black"/><path fill="black" d="M551.9688 572 L556.375 560.5469 L558.0156 560.5469 L562.7031 572 L560.9688 572 L559.6406 568.5312 L554.8438 568.5312 L553.5938 572 L551.9688 572 ZM555.2812 567.2969 L559.1719 567.2969 L557.9688 564.125 Q557.4219 562.6719 557.1562 561.75 Q556.9375 562.8438 556.5469 563.9375 L555.2812 567.2969 ZM568.6406 572 L567.2344 572 L567.2344 563.0312 Q566.7188 563.5156 565.8984 564 Q565.0781 564.4844 564.4219 564.7344 L564.4219 563.375 Q565.5938 562.8125 566.4766 562.0234 Q567.3594 561.2344 567.7344 560.5 L568.6406 560.5 L568.6406 572 ZM572.2422 568.9688 L573.6484 568.7812 Q573.8984 569.9844 574.4766 570.5078 Q575.0547 571.0312 575.8984 571.0312 Q576.8828 571.0312 577.5703 570.3438 Q578.2578 569.6562 578.2578 568.6406 Q578.2578 567.6719 577.625 567.0469 Q576.9922 566.4219 576.0078 566.4219 Q575.6172 566.4219 575.0234 566.5781 L575.1797 565.3438 Q575.3203 565.3594 575.3984 565.3594 Q576.3047 565.3594 577.0234 564.8906 Q577.7422 564.4219 577.7422 563.4375 Q577.7422 562.6719 577.2188 562.1641 Q576.6953 561.6562 575.8672 561.6562 Q575.0391 561.6562 574.4922 562.1719 Q573.9453 562.6875 573.7891 563.7188 L572.3828 563.4688 Q572.6484 562.0469 573.5625 561.2734 Q574.4766 560.5 575.8359 560.5 Q576.7734 560.5 577.5625 560.8984 Q578.3516 561.2969 578.7656 561.9922 Q579.1797 562.6875 579.1797 563.4688 Q579.1797 564.2188 578.7812 564.8281 Q578.3828 565.4375 577.6016 565.7969 Q578.6172 566.0312 579.1797 566.7656 Q579.7422 567.5 579.7422 568.6094 Q579.7422 570.1094 578.6484 571.1562 Q577.5547 572.2031 575.8828 572.2031 Q574.3828 572.2031 573.3828 571.3047 Q572.3828 570.4062 572.2422 568.9688 Z" clip-path="url(#clipPath50)" stroke="none"/><circle fill="rgb(144,238,144)" r="16" clip-path="url(#clipPath51)" cx="86" cy="86" stroke="none"/><circle fill="none" r="16" clip-path="url(#clipPath51)" cx="86" cy="86" stroke="black"/><path fill="black" d="M73.1719 92 L73.1719 80.5469 L77.4688 80.5469 Q78.7812 80.5469 79.5781 80.8906 Q80.375 81.2344 80.8203 81.9609 Q81.2656 82.6875 81.2656 83.4688 Q81.2656 84.2031 80.8672 84.8516 Q80.4688 85.5 79.6719 85.9062 Q80.7031 86.2031 81.2656 86.9375 Q81.8281 87.6719 81.8281 88.6719 Q81.8281 89.4844 81.4844 90.1719 Q81.1406 90.8594 80.6406 91.2344 Q80.1406 91.6094 79.3906 91.8047 Q78.6406 92 77.5469 92 L73.1719 92 ZM74.6875 85.3594 L77.1719 85.3594 Q78.1719 85.3594 78.6094 85.2188 Q79.1875 85.0469 79.4844 84.6484 Q79.7812 84.25 79.7812 83.6562 Q79.7812 83.0781 79.5078 82.6484 Q79.2344 82.2188 78.7266 82.0547 Q78.2188 81.8906 76.9844 81.8906 L74.6875 81.8906 L74.6875 85.3594 ZM74.6875 90.6406 L77.5469 90.6406 Q78.2812 90.6406 78.5781 90.5938 Q79.0938 90.5 79.4453 90.2812 Q79.7969 90.0625 80.0234 89.6406 Q80.25 89.2188 80.25 88.6719 Q80.25 88.0312 79.9219 87.5625 Q79.5938 87.0938 79.0156 86.8984 Q78.4375 86.7031 77.3438 86.7031 L74.6875 86.7031 L74.6875 90.6406 ZM88.6406 92 L87.2344 92 L87.2344 83.0312 Q86.7188 83.5156 85.8984 84 Q85.0781 84.4844 84.4219 84.7344 L84.4219 83.375 Q85.5938 82.8125 86.4766 82.0234 Q87.3594 81.2344 87.7344 80.5 L88.6406 80.5 L88.6406 92 ZM92.2422 88.9688 L93.6484 88.7812 Q93.8984 89.9844 94.4766 90.5078 Q95.0547 91.0312 95.8984 91.0312 Q96.8828 91.0312 97.5703 90.3438 Q98.2578 89.6562 98.2578 88.6406 Q98.2578 87.6719 97.625 87.0469 Q96.9922 86.4219 96.0078 86.4219 Q95.6172 86.4219 95.0234 86.5781 L95.1797 85.3438 Q95.3203 85.3594 95.3984 85.3594 Q96.3047 85.3594 97.0234 84.8906 Q97.7422 84.4219 97.7422 83.4375 Q97.7422 82.6719 97.2188 82.1641 Q96.6953 81.6562 95.8672 81.6562 Q95.0391 81.6562 94.4922 82.1719 Q93.9453 82.6875 93.7891 83.7188 L92.3828 83.4688 Q92.6484 82.0469 93.5625 81.2734 Q94.4766 80.5 95.8359 80.5 Q96.7734 80.5 97.5625 80.8984 Q98.3516 81.2969 98.7656 81.9922 Q99.1797 82.6875 99.1797 83.4688 Q99.1797 84.2188 98.7812 84.8281 Q98.3828 85.4375 97.6016 85.7969 Q98.6172 86.0312 99.1797 86.7656 Q99.7422 87.5 99.7422 88.6094 Q99.7422 90.1094 98.6484 91.1562 Q97.5547 92.2031 95.8828 92.2031 Q94.3828 92.2031 93.3828 91.3047 Q92.3828 90.4062 92.2422 88.9688 Z" clip-path="url(#clipPath52)" stroke="none"/></g></g></svg>