<?xml version="1.0" encoding="UTF-8"?><svg xmlns="http://www.w3.org/2000/svg" xmlns:xlink="http://www.w3.org/1999/xlink" stroke-dasharray="none" shape-rendering="auto" font-family="'Dialog'" width="561" text-rendering="auto" fill-opacity="1" contentScriptType="text/ecmascript" color-interpolation="auto" color-rendering="auto" preserveAspectRatio="xMidYMid meet" font-size="12px" fill="black" stroke="black" image-rendering="auto" stroke-miterlimit="10" zoomAndPan="magnify" version="1.0" stroke-linecap="square" stroke-linejoin="miter" contentStyleType="text/css" font-style="normal" height="561" stroke-width="1" stroke-dashoffset="0" font-weight="normal" stroke-opacity="1"><!--Generated by the Batik Graphics2D SVG Generator--><defs id="genericDefs"/><g><g><line y2="0" fill="none" x1="0" x2="560" y1="0"/><line y2="80" fill="none" x1="0" x2="560" y1="80"/><line y2="160" fill="none" x1="0" x2="560" y1="160"/><line y2="240" fill="none" x1="0" x2="560" y1="240"/><line y2="320" fill="none" x1="0" x2="560" y1="320"/><line y2="400" fill="none" x1="0" x2="560" y1="400"/><line y2="480" fill="none" x1="0" x2="560" y1="480"/><line y2="560" fill="none" x1="0" x2="560" y1="560"/><line y2="560" fill="none" x1="0" x2="0" y1="0"/><line y2="560" fill="none" x1="80" x2="80" y1="0"/><line y2="560" fill="none" x1="160" x2="160" y1="0"/><line y2="560" fill="none" x1="240" x2="240" y1="0"/><line y2="560" fill="none" x1="320" x2="320" y1="0"/><line y2="560" fill="none" x1="400" x2="400" y1="0"/><line y2="560" fill="none" x1="480" x2="480" y1="0"/><line y2="560" fill="none" x1="560" x2="560" y1="0"/><circle fill="rgb(30,144,255)" r="16" cx="20" cy="20" stroke="none"/><circle fill="none" r="16" cx="20" cy="20"/><text x="5" xml:space="preserve" font-size="25px" y="29" font-family="'Arial'" stroke="none">A1</text></g><g fill="rgb(144,238,144)" font-size="25px" font-family="'Arial'" stroke="rgb(144,238,144)"><circle r="16" cx="500" cy="500" stroke="none"/><circle fill="none" r="16" cx="500" cy="500" stroke="black"/><text fill="black" x="486" xml:space="preserve" font-size="23px" y="508" stroke="none">B1</text><circle fill="rgb(250,128,114)" r="20" cx="504" cy="24" stroke="none"/><circle fill="none" r="20" cx="504" cy="24" stroke="black"/><text fill="black" x="486" xml:space="preserve" font-size="29px" y="34" stroke="none">C1</text><circle fill="rgb(165,42,42)" r="20" cx="24" cy="504" stroke="none"/><circle fill="none" r="20" cx="24" cy="504" stroke="black"/><text fill="black" x="6" xml:space="preserve" font-size="29px" y="514" stroke="none">D1</text><circle fill="rgb(30,144,255)" r="20" cx="104" cy="24" stroke="none"/><circle fill="none" r="20" cx="104" cy="24" stroke="black"/><text fill="black" x="85" xml:space="preserve" font-size="31px" y="35" stroke="none">A2</text><circle r="20" cx="424" cy="504" stroke="none"/><circle fill="none" r="20" cx="424" cy="504" stroke="black"/><text fill="black" x="407" xml:space="preserve" font-size="29px" y="514" stroke="none">B2</text><circle fill="rgb(250,128,114)" r="24" cx="440" cy="40" stroke="none"/><circle fill="none" r="24" cx="440" cy="40" stroke="black"/><text fill="black" x="419" xml:space="preserve" font-size="33px" y="52" stroke="none">C2</text><circle fill="rgb(165,42,42)" r="24" cx="120" cy="520" stroke="none"/><circle fill="none" r="24" cx="120" cy="520" stroke="black"/><text fill="black" x="99" xml:space="preserve" font-size="33px" y="532" stroke="none">D2</text><circle fill="rgb(30,144,255)" r="20" cx="184" cy="24" stroke="none"/><circle fill="none" r="20" cx="184" cy="24" stroke="black"/><text fill="black" x="165" xml:space="preserve" font-size="31px" y="35" stroke="none">A3</text><circle r="20" cx="344" cy="504" stroke="none"/><circle fill="none" r="20" cx="344" cy="504" stroke="black"/><text fill="black" x="327" xml:space="preserve" font-size="29px" y="514" stroke="none">B3</text><circle fill="rgb(250,128,114)" r="24" cx="360" cy="40" stroke="none"/><circle fill="none" r="24" cx="360" cy="40" stroke="black"/><text fill="black" x="339" xml:space="preserve" font-size="33px" y="52" stroke="none">C3</text><circle fill="rgb(165,42,42)" r="24" cx="200" cy="520" stroke="none"/><circle fill="none" r="24" cx="200" cy="520" stroke="black"/><text fill="black" x="179" xml:space="preserve" font-size="33px" y="532" stroke="none">D3</text><circle fill="rgb(30,144,255)" r="24" cx="200" cy="120" stroke="none"/><circle fill="none" r="24" cx="200" cy="120" stroke="black"/><text fill="black" x="179" xml:space="preserve" font-size="36px" y="133" stroke="none">A4</text><circle r="24" cx="360" cy="440" stroke="none"/><circle fill="none" r="24" cx="360" cy="440" stroke="black"/><text fill="black" x="338" xml:space="preserve" font-size="36px" y="453" stroke="none">B4</text><circle fill="rgb(250,128,114)" r="24" cx="280" cy="40" stroke="none"/><circle fill="none" r="24" cx="280" cy="40" stroke="black"/><text fill="black" x="259" xml:space="preserve" font-size="33px" y="52" stroke="none">C4</text><circle fill="rgb(165,42,42)" r="24" cx="280" cy="520" stroke="none"/><circle fill="none" r="24" cx="280" cy="520" stroke="black"/><text fill="black" x="259" xml:space="preserve" font-size="33px" y="532" stroke="none">D4</text><circle fill="rgb(30,144,255)" r="24" cx="280" cy="120" stroke="none"/><circle fill="none" r="24" cx="280" cy="120" stroke="black"/><text fill="black" x="259" xml:space="preserve" font-size="36px" y="133" stroke="none">A5</text><circle r="24" cx="280" cy="440" stroke="none"/><circle fill="none" r="24" cx="280" cy="440" stroke="black"/><text fill="black" x="258" xml:space="preserve" font-size="36px" y="453" stroke="none">B5</text><circle fill="rgb(250,128,114)" r="20" cx="216" cy="56" stroke="none"/><circle fill="none" r="20" cx="216" cy="56" stroke="black"/><text fill="black" x="198" xml:space="preserve" font-size="29px" y="66" stroke="none">C5</text><circle fill="rgb(165,42,42)" r="20" cx="376" cy="536" stroke="none"/><circle fill="none" r="20" cx="376" cy="536" stroke="black"/><text fill="black" x="358" xml:space="preserve" font-size="29px" y="546" stroke="none">D5</text><circle fill="rgb(30,144,255)" r="24" cx="360" cy="120" stroke="none"/><circle fill="none" r="24" cx="360" cy="120" stroke="black"/><text fill="black" x="339" xml:space="preserve" font-size="36px" y="133" stroke="none">A6</text><circle r="24" cx="200" cy="440" stroke="none"/><circle fill="none" r="24" cx="200" cy="440" stroke="black"/><text fill="black" x="178" xml:space="preserve" font-size="36px" y="453" stroke="none">B6</text><circle fill="rgb(250,128,114)" r="20" cx="136" cy="56" stroke="none"/><circle fill="none" r="20" cx="136" cy="56" stroke="black"/><text fill="black" x="118" xml:space="preserve" font-size="29px" y="66" stroke="none">C6</text><circle fill="rgb(165,42,42)" r="20" cx="456" cy="536" stroke="none"/><circle fill="none" r="20" cx="456" cy="536" stroke="black"/><text fill="black" x="438" xml:space="preserve" font-size="29px" y="546" stroke="none">D6</text><circle fill="rgb(30,144,255)" r="24" cx="440" cy="120" stroke="none"/><circle fill="none" r="24" cx="440" cy="120" stroke="black"/><text fill="black" x="419" xml:space="preserve" font-size="36px" y="133" stroke="none">A7</text><circle r="24" cx="120" cy="440" stroke="none"/><circle fill="none" r="24" cx="120" cy="440" stroke="black"/><text fill="black" x="98" xml:space="preserve" font-size="36px" y="453" stroke="none">B7</text><circle fill="rgb(250,128,114)" r="16" cx="60" cy="20" stroke="none"/><circle fill="none" r="16" cx="60" cy="20" stroke="black"/><text fill="black" x="45" xml:space="preserve" font-size="23px" y="28" stroke="none">C7</text><circle fill="rgb(165,42,42)" r="16" cx="540" cy="500" stroke="none"/><circle fill="none" r="16" cx="540" cy="500" stroke="black"/><text fill="black" x="525" xml:space="preserve" font-size="23px" y="508" stroke="none">D7</text><circle fill="rgb(30,144,255)" r="24" cx="440" cy="200" stroke="none"/><circle fill="none" r="24" cx="440" cy="200" stroke="black"/><text fill="black" x="419" xml:space="preserve" font-size="36px" y="213" stroke="none">A8</text><circle r="24" cx="120" cy="360" stroke="none"/><circle fill="none" r="24" cx="120" cy="360" stroke="black"/><text fill="black" x="98" xml:space="preserve" font-size="36px" y="373" stroke="none">B8</text><circle fill="rgb(250,128,114)" r="20" cx="24" cy="104" stroke="none"/><circle fill="none" r="20" cx="24" cy="104" stroke="black"/><text fill="black" x="6" xml:space="preserve" font-size="29px" y="114" stroke="none">C8</text><circle fill="rgb(165,42,42)" r="20" cx="504" cy="424" stroke="none"/><circle fill="none" r="20" cx="504" cy="424" stroke="black"/><text fill="black" x="486" xml:space="preserve" font-size="29px" y="434" stroke="none">D8</text><circle fill="rgb(30,144,255)" r="24" cx="440" cy="280" stroke="none"/><circle fill="none" r="24" cx="440" cy="280" stroke="black"/><text fill="black" x="419" xml:space="preserve" font-size="36px" y="293" stroke="none">A9</text><circle r="24" cx="120" cy="280" stroke="none"/><circle fill="none" r="24" cx="120" cy="280" stroke="black"/><text fill="black" x="98" xml:space="preserve" font-size="36px" y="293" stroke="none">B9</text><circle fill="rgb(250,128,114)" r="20" cx="24" cy="184" stroke="none"/><circle fill="none" r="20" cx="24" cy="184" stroke="black"/><text fill="black" x="6" xml:space="preserve" font-size="29px" y="194" stroke="none">C9</text><circle fill="rgb(165,42,42)" r="20" cx="504" cy="344" stroke="none"/><circle fill="none" r="20" cx="504" cy="344" stroke="black"/><text fill="black" x="486" xml:space="preserve" font-size="29px" y="354" stroke="none">D9</text><circle fill="rgb(30,144,255)" r="24" cx="440" cy="360" stroke="none"/><circle fill="none" r="24" cx="440" cy="360" stroke="black"/><text fill="black" x="418" xml:space="preserve" y="369" stroke="none">A10</text><circle r="24" cx="120" cy="200" stroke="none"/><circle fill="none" r="24" cx="120" cy="200" stroke="black"/><text fill="black" x="98" xml:space="preserve" y="209" stroke="none">B10</text><circle fill="rgb(250,128,114)" r="24" cx="40" cy="280" stroke="none"/><circle fill="none" r="24" cx="40" cy="280" stroke="black"/><text fill="black" x="17" xml:space="preserve" y="289" stroke="none">C10</text><circle fill="rgb(165,42,42)" r="24" cx="520" cy="280" stroke="none"/><circle fill="none" r="24" cx="520" cy="280" stroke="black"/><text fill="black" x="497" xml:space="preserve" y="289" stroke="none">D10</text><circle fill="rgb(30,144,255)" r="20" cx="536" cy="376" stroke="none"/><circle fill="none" r="20" cx="536" cy="376" stroke="black"/><text fill="black" x="519" xml:space="preserve" font-size="20px" y="383" stroke="none">A11</text><circle r="20" cx="56" cy="216" stroke="none"/><circle fill="none" r="20" cx="56" cy="216" stroke="black"/><text fill="black" x="39" xml:space="preserve" font-size="20px" y="223" stroke="none">B11</text><circle fill="rgb(250,128,114)" r="24" cx="40" cy="360" stroke="none"/><circle fill="none" r="24" cx="40" cy="360" stroke="black"/><text fill="black" x="17" xml:space="preserve" y="369" stroke="none">C11</text><circle fill="rgb(165,42,42)" r="24" cx="520" cy="200" stroke="none"/><circle fill="none" r="24" cx="520" cy="200" stroke="black"/><text fill="black" x="497" xml:space="preserve" y="209" stroke="none">D11</text><circle fill="rgb(30,144,255)" r="20" cx="536" cy="456" stroke="none"/><circle fill="none" r="20" cx="536" cy="456" stroke="black"/><text fill="black" x="519" xml:space="preserve" font-size="20px" y="463" stroke="none">A12</text><circle r="20" cx="56" cy="136" stroke="none"/><circle fill="none" r="20" cx="56" cy="136" stroke="black"/><text fill="black" x="39" xml:space="preserve" font-size="20px" y="143" stroke="none">B12</text><circle fill="rgb(250,128,114)" r="24" cx="40" cy="440" stroke="none"/><circle fill="none" r="24" cx="40" cy="440" stroke="black"/><text fill="black" x="17" xml:space="preserve" y="449" stroke="none">C12</text><circle fill="rgb(165,42,42)" r="24" cx="520" cy="120" stroke="none"/><circle fill="none" r="24" cx="520" cy="120" stroke="black"/><text fill="black" x="497" xml:space="preserve" y="129" stroke="none">D12</text><circle fill="rgb(30,144,255)" r="16" cx="500" cy="540" stroke="none"/><circle fill="none" r="16" cx="500" cy="540" stroke="black"/><text fill="black" x="486" xml:space="preserve" font-size="16px" y="546" stroke="none">A13</text><circle r="16" cx="20" cy="60" stroke="none"/><circle fill="none" r="16" cx="20" cy="60" stroke="black"/><text fill="black" x="6" xml:space="preserve" font-size="16px" y="66" stroke="none">B13</text><circle fill="rgb(250,128,114)" r="20" cx="56" cy="536" stroke="none"/><circle fill="none" r="20" cx="56" cy="536" stroke="black"/><text fill="black" x="38" xml:space="preserve" font-size="20px" y="543" stroke="none">C13</text><circle fill="rgb(165,42,42)" r="20" cx="536" cy="56" stroke="none"/><circle fill="none" r="20" cx="536" cy="56" stroke="black"/><text fill="black" x="518" xml:space="preserve" font-size="20px" y="63" stroke="none">D13</text></g></g></svg>