<?xml version="1.0" encoding="UTF-8"?><svg xmlns="http://www.w3.org/2000/svg" xmlns:xlink="http://www.w3.org/1999/xlink" stroke-dasharray="none" shape-rendering="auto" font-family="'Dialog'" width="241" text-rendering="auto" fill-opacity="1" contentScriptType="text/ecmascript" color-interpolation="auto" color-rendering="auto" preserveAspectRatio="xMidYMid meet" font-size="12px" fill="black" stroke="black" image-rendering="auto" stroke-miterlimit="10" zoomAndPan="magnify" version="1.0" stroke-linecap="square" stroke-linejoin="miter" contentStyleType="text/css" font-style="normal" height="561" stroke-width="1" stroke-dashoffset="0" font-weight="normal" stroke-opacity="1"><!--Generated by the Batik Graphics2D SVG Generator--><defs id="genericDefs"/><g><defs id="defs1"><clipPath clipPathUnits="userSpaceOnUse" id="clipPath1"><path d="M81 1 L159 1 L159 79 L81 79 L81 1 Z"/></clipPath><clipPath clipPathUnits="userSpaceOnUse" id="clipPath2"><path d="M81 81 L159 81 L159 159 L81 159 L81 81 Z"/></clipPath><clipPath clipPathUnits="userSpaceOnUse" id="clipPath3"><path d="M81 161 L159 161 L159 239 L81 239 L81 161 Z"/></clipPath><clipPath clipPathUnits="userSpaceOnUse" id="clipPath4"><path d="M81 321 L159 321 L159 399 L81 399 L81 321 Z"/></clipPath><clipPath clipPathUnits="userSpaceOnUse" id="clipPath5"><path d="M81 401 L159 401 L159 479 L81 479 L81 401 Z"/></clipPath><clipPath clipPathUnits="userSpaceOnUse" id="clipPath6"><path d="M81 481 L159 481 L159 559 L81 559 L81 481 Z"/></clipPath><clipPath clipPathUnits="userSpaceOnUse" id="clipPath7"><path d="M3 3 L45 3 L45 45 L3 45 L3 3 Z"/></clipPath><clipPath clipPathUnits="userSpaceOnUse" id="clipPath8"><path d="M44 24 C44 35.0457 35.0457 44 24 44 C12.9543 44 4 35.0457 4 24 C4 12.9543 12.9543 4 24 4 C35.0457 4 44 12.9543 44 24 Z"/></clipPath><clipPath clipPathUnits="userSpaceOnUse" id="clipPath9"><path d="M159.1333 485.8 L187.5333 485.8 L187.5333 514.2 L159.1333 514.2 L159.1333 485.8 Z"/></clipPath><clipPath clipPathUnits="userSpaceOnUse" id="clipPath10"><path d="M186.5333 500 C186.5333 507.2902 180.6235 513.2 173.3333 513.2 C166.0432 513.2 160.1333 507.2902 160.1333 500 C160.1333 492.7098 166.0432 486.8 173.3333 486.8 C180.6235 486.8 186.5333 492.7098 186.5333 500 Z"/></clipPath><clipPath clipPathUnits="userSpaceOnUse" id="clipPath11"><path d="M159.1333 5.8 L187.5333 5.8 L187.5333 34.2 L159.1333 34.2 L159.1333 5.8 Z"/></clipPath><clipPath clipPathUnits="userSpaceOnUse" id="clipPath12"><path d="M186.5333 20 C186.5333 27.2902 180.6235 33.2 173.3333 33.2 C166.0432 33.2 160.1333 27.2902 160.1333 20 C160.1333 12.7098 166.0432 6.8 173.3333 6.8 C180.6235 6.8 186.5333 12.7098 186.5333 20 Z"/></clipPath><clipPath clipPathUnits="userSpaceOnUse" id="clipPath13"><path d="M3 483 L45 483 L45 525 L3 525 L3 483 Z"/></clipPath><clipPath clipPathUnits="userSpaceOnUse" id="clipPath14"><path d="M44 504 C44 515.0457 35.0457 524 24 524 C12.9543 524 4 515.0457 4 504 C4 492.9543 12.9543 484 24 484 C35.0457 484 44 492.9543 44 504 Z"/></clipPath><clipPath clipPathUnits="userSpaceOnUse" id="clipPath15"><path d="M3 83 L45 83 L45 125 L3 125 L3 83 Z"/></clipPath><clipPath clipPathUnits="userSpaceOnUse" id="clipPath16"><path d="M44 104 C44 115.0457 35.0457 124 24 124 C12.9543 124 4 115.0457 4 104 C4 92.9543 12.9543 84 24 84 C35.0457 84 44 92.9543 44 104 Z"/></clipPath><clipPath clipPathUnits="userSpaceOnUse" id="clipPath17"><path d="M161 401 L199 401 L199 439 L161 439 L161 401 Z"/></clipPath><clipPath clipPathUnits="userSpaceOnUse" id="clipPath18"><path d="M198 420 C198 429.9411 189.9411 438 180 438 C170.0589 438 162 429.9411 162 420 C162 410.0589 170.0589 402 180 402 C189.9411 402 198 410.0589 198 420 Z"/></clipPath><clipPath clipPathUnits="userSpaceOnUse" id="clipPath19"><path d="M185.8 5.8 L214.2 5.8 L214.2 34.2 L185.8 34.2 L185.8 5.8 Z"/></clipPath><clipPath clipPathUnits="userSpaceOnUse" id="clipPath20"><path d="M213.2 20 C213.2 27.2902 207.2902 33.2 200 33.2 C192.7098 33.2 186.8 27.2902 186.8 20 C186.8 12.7098 192.7098 6.8 200 6.8 C207.2902 6.8 213.2 12.7098 213.2 20 Z"/></clipPath><clipPath clipPathUnits="userSpaceOnUse" id="clipPath21"><path d="M3 403 L45 403 L45 445 L3 445 L3 403 Z"/></clipPath><clipPath clipPathUnits="userSpaceOnUse" id="clipPath22"><path d="M44 424 C44 435.0457 35.0457 444 24 444 C12.9543 444 4 435.0457 4 424 C4 412.9543 12.9543 404 24 404 C35.0457 404 44 412.9543 44 424 Z"/></clipPath><clipPath clipPathUnits="userSpaceOnUse" id="clipPath23"><path d="M1 161 L39 161 L39 199 L1 199 L1 161 Z"/></clipPath><clipPath clipPathUnits="userSpaceOnUse" id="clipPath24"><path d="M38 180 C38 189.9411 29.9411 198 20 198 C10.0589 198 2 189.9411 2 180 C2 170.0589 10.0589 162 20 162 C29.9411 162 38 170.0589 38 180 Z"/></clipPath><clipPath clipPathUnits="userSpaceOnUse" id="clipPath25"><path d="M161 321 L199 321 L199 359 L161 359 L161 321 Z"/></clipPath><clipPath clipPathUnits="userSpaceOnUse" id="clipPath26"><path d="M198 340 C198 349.9411 189.9411 358 180 358 C170.0589 358 162 349.9411 162 340 C162 330.0589 170.0589 322 180 322 C189.9411 322 198 330.0589 198 340 Z"/></clipPath><clipPath clipPathUnits="userSpaceOnUse" id="clipPath27"><path d="M212.4667 5.8 L240.8667 5.8 L240.8667 34.2 L212.4667 34.2 L212.4667 5.8 Z"/></clipPath><clipPath clipPathUnits="userSpaceOnUse" id="clipPath28"><path d="M239.8667 20 C239.8667 27.2902 233.9568 33.2 226.6667 33.2 C219.3765 33.2 213.4667 27.2902 213.4667 20 C213.4667 12.7098 219.3765 6.8 226.6667 6.8 C233.9568 6.8 239.8667 12.7098 239.8667 20 Z"/></clipPath><clipPath clipPathUnits="userSpaceOnUse" id="clipPath29"><path d="M1 321 L39 321 L39 359 L1 359 L1 321 Z"/></clipPath><clipPath clipPathUnits="userSpaceOnUse" id="clipPath30"><path d="M38 340 C38 349.9411 29.9411 358 20 358 C10.0589 358 2 349.9411 2 340 C2 330.0589 10.0589 322 20 322 C29.9411 322 38 330.0589 38 340 Z"/></clipPath><clipPath clipPathUnits="userSpaceOnUse" id="clipPath31"><path d="M1 241 L39 241 L39 279 L1 279 L1 241 Z"/></clipPath><clipPath clipPathUnits="userSpaceOnUse" id="clipPath32"><path d="M38 260 C38 269.9411 29.9411 278 20 278 C10.0589 278 2 269.9411 2 260 C2 250.0589 10.0589 242 20 242 C29.9411 242 38 250.0589 38 260 Z"/></clipPath><clipPath clipPathUnits="userSpaceOnUse" id="clipPath33"><path d="M159.1333 239.1333 L187.5333 239.1333 L187.5333 267.5333 L159.1333 267.5333 L159.1333 239.1333 Z"/></clipPath><clipPath clipPathUnits="userSpaceOnUse" id="clipPath34"><path d="M186.5333 253.3333 C186.5333 260.6235 180.6235 266.5333 173.3333 266.5333 C166.0432 266.5333 160.1333 260.6235 160.1333 253.3333 C160.1333 246.0432 166.0432 240.1333 173.3333 240.1333 C180.6235 240.1333 186.5333 246.0432 186.5333 253.3333 Z"/></clipPath><clipPath clipPathUnits="userSpaceOnUse" id="clipPath35"><path d="M159.1333 45.8 L187.5333 45.8 L187.5333 74.2 L159.1333 74.2 L159.1333 45.8 Z"/></clipPath><clipPath clipPathUnits="userSpaceOnUse" id="clipPath36"><path d="M186.5333 60 C186.5333 67.2902 180.6235 73.2 173.3333 73.2 C166.0432 73.2 160.1333 67.2902 160.1333 60 C160.1333 52.7098 166.0432 46.8 173.3333 46.8 C180.6235 46.8 186.5333 52.7098 186.5333 60 Z"/></clipPath><clipPath clipPathUnits="userSpaceOnUse" id="clipPath37"><path d="M41 321 L79 321 L79 359 L41 359 L41 321 Z"/></clipPath><clipPath clipPathUnits="userSpaceOnUse" id="clipPath38"><path d="M78 340 C78 349.9411 69.9411 358 60 358 C50.0589 358 42 349.9411 42 340 C42 330.0589 50.0589 322 60 322 C69.9411 322 78 330.0589 78 340 Z"/></clipPath><clipPath clipPathUnits="userSpaceOnUse" id="clipPath39"><path d="M81 241 L119 241 L119 279 L81 279 L81 241 Z"/></clipPath><clipPath clipPathUnits="userSpaceOnUse" id="clipPath40"><path d="M118 260 C118 269.9411 109.9411 278 100 278 C90.0589 278 82 269.9411 82 260 C82 250.0589 90.0589 242 100 242 C109.9411 242 118 250.0589 118 260 Z"/></clipPath><clipPath clipPathUnits="userSpaceOnUse" id="clipPath41"><path d="M159.1333 165.8 L187.5333 165.8 L187.5333 194.2 L159.1333 194.2 L159.1333 165.8 Z"/></clipPath><clipPath clipPathUnits="userSpaceOnUse" id="clipPath42"><path d="M186.5333 180 C186.5333 187.2902 180.6235 193.2 173.3333 193.2 C166.0432 193.2 160.1333 187.2902 160.1333 180 C160.1333 172.7098 166.0432 166.8 173.3333 166.8 C180.6235 166.8 186.5333 172.7098 186.5333 180 Z"/></clipPath><clipPath clipPathUnits="userSpaceOnUse" id="clipPath43"><path d="M185.8 45.8 L214.2 45.8 L214.2 74.2 L185.8 74.2 L185.8 45.8 Z"/></clipPath><clipPath clipPathUnits="userSpaceOnUse" id="clipPath44"><path d="M213.2 60 C213.2 67.2902 207.2902 73.2 200 73.2 C192.7098 73.2 186.8 67.2902 186.8 60 C186.8 52.7098 192.7098 46.8 200 46.8 C207.2902 46.8 213.2 52.7098 213.2 60 Z"/></clipPath><clipPath clipPathUnits="userSpaceOnUse" id="clipPath45"><path d="M41 241 L79 241 L79 279 L41 279 L41 241 Z"/></clipPath><clipPath clipPathUnits="userSpaceOnUse" id="clipPath46"><path d="M78 260 C78 269.9411 69.9411 278 60 278 C50.0589 278 42 269.9411 42 260 C42 250.0589 50.0589 242 60 242 C69.9411 242 78 250.0589 78 260 Z"/></clipPath><clipPath clipPathUnits="userSpaceOnUse" id="clipPath47"><path d="M185.8 239.1333 L214.2 239.1333 L214.2 267.5333 L185.8 267.5333 L185.8 239.1333 Z"/></clipPath><clipPath clipPathUnits="userSpaceOnUse" id="clipPath48"><path d="M213.2 253.3333 C213.2 260.6235 207.2902 266.5333 200 266.5333 C192.7098 266.5333 186.8 260.6235 186.8 253.3333 C186.8 246.0432 192.7098 240.1333 200 240.1333 C207.2902 240.1333 213.2 246.0432 213.2 253.3333 Z"/></clipPath><clipPath clipPathUnits="userSpaceOnUse" id="clipPath49"><path d="M185.8 165.8 L214.2 165.8 L214.2 194.2 L185.8 194.2 L185.8 165.8 Z"/></clipPath><clipPath clipPathUnits="userSpaceOnUse" id="clipPath50"><path d="M213.2 180 C213.2 187.2902 207.2902 193.2 200 193.2 C192.7098 193.2 186.8 187.2902 186.8 180 C186.8 172.7098 192.7098 166.8 200 166.8 C207.2902 166.8 213.2 172.7098 213.2 180 Z"/></clipPath><clipPath clipPathUnits="userSpaceOnUse" id="clipPath51"><path d="M161 81 L199 81 L199 119 L161 119 L161 81 Z"/></clipPath><clipPath clipPathUnits="userSpaceOnUse" id="clipPath52"><path d="M198 100 C198 109.9411 189.9411 118 180 118 C170.0589 118 162 109.9411 162 100 C162 90.0589 170.0589 82 180 82 C189.9411 82 198 90.0589 198 100 Z"/></clipPath><clipPath clipPathUnits="userSpaceOnUse" id="clipPath53"><path d="M121 241 L159 241 L159 279 L121 279 L121 241 Z"/></clipPath><clipPath clipPathUnits="userSpaceOnUse" id="clipPath54"><path d="M158 260 C158 269.9411 149.9411 278 140 278 C130.0589 278 122 269.9411 122 260 C122 250.0589 130.0589 242 140 242 C149.9411 242 158 250.0589 158 260 Z"/></clipPath><clipPath clipPathUnits="userSpaceOnUse" id="clipPath55"><path d="M201 321 L239 321 L239 359 L201 359 L201 321 Z"/></clipPath><clipPath clipPathUnits="userSpaceOnUse" id="clipPath56"><path d="M238 340 C238 349.9411 229.9411 358 220 358 C210.0589 358 202 349.9411 202 340 C202 330.0589 210.0589 322 220 322 C229.9411 322 238 330.0589 238 340 Z"/></clipPath><clipPath clipPathUnits="userSpaceOnUse" id="clipPath57"><path d="M212.4667 165.8 L240.8667 165.8 L240.8667 194.2 L212.4667 194.2 L212.4667 165.8 Z"/></clipPath><clipPath clipPathUnits="userSpaceOnUse" id="clipPath58"><path d="M239.8667 180 C239.8667 187.2902 233.9568 193.2 226.6667 193.2 C219.3765 193.2 213.4667 187.2902 213.4667 180 C213.4667 172.7098 219.3765 166.8 226.6667 166.8 C233.9568 166.8 239.8667 172.7098 239.8667 180 Z"/></clipPath><clipPath clipPathUnits="userSpaceOnUse" id="clipPath59"><path d="M201 81 L239 81 L239 119 L201 119 L201 81 Z"/></clipPath><clipPath clipPathUnits="userSpaceOnUse" id="clipPath60"><path d="M238 100 C238 109.9411 229.9411 118 220 118 C210.0589 118 202 109.9411 202 100 C202 90.0589 210.0589 82 220 82 C229.9411 82 238 90.0589 238 100 Z"/></clipPath><clipPath clipPathUnits="userSpaceOnUse" id="clipPath61"><path d="M212.4667 239.1333 L240.8667 239.1333 L240.8667 267.5333 L212.4667 267.5333 L212.4667 239.1333 Z"/></clipPath><clipPath clipPathUnits="userSpaceOnUse" id="clipPath62"><path d="M239.8667 253.3333 C239.8667 260.6235 233.9568 266.5333 226.6667 266.5333 C219.3765 266.5333 213.4667 260.6235 213.4667 253.3333 C213.4667 246.0432 219.3765 240.1333 226.6667 240.1333 C233.9568 240.1333 239.8667 246.0432 239.8667 253.3333 Z"/></clipPath><clipPath clipPathUnits="userSpaceOnUse" id="clipPath63"><path d="M201 401 L239 401 L239 439 L201 439 L201 401 Z"/></clipPath><clipPath clipPathUnits="userSpaceOnUse" id="clipPath64"><path d="M238 420 C238 429.9411 229.9411 438 220 438 C210.0589 438 202 429.9411 202 420 C202 410.0589 210.0589 402 220 402 C229.9411 402 238 410.0589 238 420 Z"/></clipPath><clipPath clipPathUnits="userSpaceOnUse" id="clipPath65"><path d="M159.1333 265.8 L187.5333 265.8 L187.5333 294.2 L159.1333 294.2 L159.1333 265.8 Z"/></clipPath><clipPath clipPathUnits="userSpaceOnUse" id="clipPath66"><path d="M186.5333 280 C186.5333 287.2902 180.6235 293.2 173.3333 293.2 C166.0432 293.2 160.1333 287.2902 160.1333 280 C160.1333 272.7098 166.0432 266.8 173.3333 266.8 C180.6235 266.8 186.5333 272.7098 186.5333 280 Z"/></clipPath><clipPath clipPathUnits="userSpaceOnUse" id="clipPath67"><path d="M159.1333 205.8 L187.5333 205.8 L187.5333 234.2 L159.1333 234.2 L159.1333 205.8 Z"/></clipPath><clipPath clipPathUnits="userSpaceOnUse" id="clipPath68"><path d="M186.5333 220 C186.5333 227.2902 180.6235 233.2 173.3333 233.2 C166.0432 233.2 160.1333 227.2902 160.1333 220 C160.1333 212.7098 166.0432 206.8 173.3333 206.8 C180.6235 206.8 186.5333 212.7098 186.5333 220 Z"/></clipPath><clipPath clipPathUnits="userSpaceOnUse" id="clipPath69"><path d="M161 361 L199 361 L199 399 L161 399 L161 361 Z"/></clipPath><clipPath clipPathUnits="userSpaceOnUse" id="clipPath70"><path d="M198 380 C198 389.9411 189.9411 398 180 398 C170.0589 398 162 389.9411 162 380 C162 370.0589 170.0589 362 180 362 C189.9411 362 198 370.0589 198 380 Z"/></clipPath><clipPath clipPathUnits="userSpaceOnUse" id="clipPath71"><path d="M161 441 L199 441 L199 479 L161 479 L161 441 Z"/></clipPath><clipPath clipPathUnits="userSpaceOnUse" id="clipPath72"><path d="M198 460 C198 469.9411 189.9411 478 180 478 C170.0589 478 162 469.9411 162 460 C162 450.0589 170.0589 442 180 442 C189.9411 442 198 450.0589 198 460 Z"/></clipPath><clipPath clipPathUnits="userSpaceOnUse" id="clipPath73"><path d="M81 281 L119 281 L119 319 L81 319 L81 281 Z"/></clipPath><clipPath clipPathUnits="userSpaceOnUse" id="clipPath74"><path d="M118 300 C118 309.9411 109.9411 318 100 318 C90.0589 318 82 309.9411 82 300 C82 290.0589 90.0589 282 100 282 C109.9411 282 118 290.0589 118 300 Z"/></clipPath><clipPath clipPathUnits="userSpaceOnUse" id="clipPath75"><path d="M185.8 265.8 L214.2 265.8 L214.2 294.2 L185.8 294.2 L185.8 265.8 Z"/></clipPath><clipPath clipPathUnits="userSpaceOnUse" id="clipPath76"><path d="M213.2 280 C213.2 287.2902 207.2902 293.2 200 293.2 C192.7098 293.2 186.8 287.2902 186.8 280 C186.8 272.7098 192.7098 266.8 200 266.8 C207.2902 266.8 213.2 272.7098 213.2 280 Z"/></clipPath><clipPath clipPathUnits="userSpaceOnUse" id="clipPath77"><path d="M201 361 L239 361 L239 399 L201 399 L201 361 Z"/></clipPath><clipPath clipPathUnits="userSpaceOnUse" id="clipPath78"><path d="M238 380 C238 389.9411 229.9411 398 220 398 C210.0589 398 202 389.9411 202 380 C202 370.0589 210.0589 362 220 362 C229.9411 362 238 370.0589 238 380 Z"/></clipPath><clipPath clipPathUnits="userSpaceOnUse" id="clipPath79"><path d="M185.8 485.8 L214.2 485.8 L214.2 514.2 L185.8 514.2 L185.8 485.8 Z"/></clipPath><clipPath clipPathUnits="userSpaceOnUse" id="clipPath80"><path d="M213.2 500 C213.2 507.2902 207.2902 513.2 200 513.2 C192.7098 513.2 186.8 507.2902 186.8 500 C186.8 492.7098 192.7098 486.8 200 486.8 C207.2902 486.8 213.2 492.7098 213.2 500 Z"/></clipPath><clipPath clipPathUnits="userSpaceOnUse" id="clipPath81"><path d="M1 281 L39 281 L39 319 L1 319 L1 281 Z"/></clipPath><clipPath clipPathUnits="userSpaceOnUse" id="clipPath82"><path d="M38 300 C38 309.9411 29.9411 318 20 318 C10.0589 318 2 309.9411 2 300 C2 290.0589 10.0589 282 20 282 C29.9411 282 38 290.0589 38 300 Z"/></clipPath><clipPath clipPathUnits="userSpaceOnUse" id="clipPath83"><path d="M121 281 L159 281 L159 319 L121 319 L121 281 Z"/></clipPath><clipPath clipPathUnits="userSpaceOnUse" id="clipPath84"><path d="M158 300 C158 309.9411 149.9411 318 140 318 C130.0589 318 122 309.9411 122 300 C122 290.0589 130.0589 282 140 282 C149.9411 282 158 290.0589 158 300 Z"/></clipPath><clipPath clipPathUnits="userSpaceOnUse" id="clipPath85"><path d="M212.4667 265.8 L240.8667 265.8 L240.8667 294.2 L212.4667 294.2 L212.4667 265.8 Z"/></clipPath><clipPath clipPathUnits="userSpaceOnUse" id="clipPath86"><path d="M239.8667 280 C239.8667 287.2902 233.9568 293.2 226.6667 293.2 C219.3765 293.2 213.4667 287.2902 213.4667 280 C213.4667 272.7098 219.3765 266.8 226.6667 266.8 C233.9568 266.8 239.8667 272.7098 239.8667 280 Z"/></clipPath><clipPath clipPathUnits="userSpaceOnUse" id="clipPath87"><path d="M212.4667 485.8 L240.8667 485.8 L240.8667 514.2 L212.4667 514.2 L212.4667 485.8 Z"/></clipPath><clipPath clipPathUnits="userSpaceOnUse" id="clipPath88"><path d="M239.8667 500 C239.8667 507.2902 233.9568 513.2 226.6667 513.2 C219.3765 513.2 213.4667 507.2902 213.4667 500 C213.4667 492.7098 219.3765 486.8 226.6667 486.8 C233.9568 486.8 239.8667 492.7098 239.8667 500 Z"/></clipPath><clipPath clipPathUnits="userSpaceOnUse" id="clipPath89"><path d="M41 161 L79 161 L79 199 L41 199 L41 161 Z"/></clipPath><clipPath clipPathUnits="userSpaceOnUse" id="clipPath90"><path d="M78 180 C78 189.9411 69.9411 198 60 198 C50.0589 198 42 189.9411 42 180 C42 170.0589 50.0589 162 60 162 C69.9411 162 78 170.0589 78 180 Z"/></clipPath><clipPath clipPathUnits="userSpaceOnUse" id="clipPath91"><path d="M41 281 L79 281 L79 319 L41 319 L41 281 Z"/></clipPath><clipPath clipPathUnits="userSpaceOnUse" id="clipPath92"><path d="M78 300 C78 309.9411 69.9411 318 60 318 C50.0589 318 42 309.9411 42 300 C42 290.0589 50.0589 282 60 282 C69.9411 282 78 290.0589 78 300 Z"/></clipPath><clipPath clipPathUnits="userSpaceOnUse" id="clipPath93"><path d="M159.1333 292.4667 L187.5333 292.4667 L187.5333 320.8667 L159.1333 320.8667 L159.1333 292.4667 Z"/></clipPath><clipPath clipPathUnits="userSpaceOnUse" id="clipPath94"><path d="M186.5333 306.6667 C186.5333 313.9568 180.6235 319.8667 173.3333 319.8667 C166.0432 319.8667 160.1333 313.9568 160.1333 306.6667 C160.1333 299.3765 166.0432 293.4667 173.3333 293.4667 C180.6235 293.4667 186.5333 299.3765 186.5333 306.6667 Z"/></clipPath><clipPath clipPathUnits="userSpaceOnUse" id="clipPath95"><path d="M159.1333 525.8 L187.5333 525.8 L187.5333 554.2 L159.1333 554.2 L159.1333 525.8 Z"/></clipPath><clipPath clipPathUnits="userSpaceOnUse" id="clipPath96"><path d="M186.5333 540 C186.5333 547.2902 180.6235 553.2 173.3333 553.2 C166.0432 553.2 160.1333 547.2902 160.1333 540 C160.1333 532.7098 166.0432 526.8 173.3333 526.8 C180.6235 526.8 186.5333 532.7098 186.5333 540 Z"/></clipPath><clipPath clipPathUnits="userSpaceOnUse" id="clipPath97"><path d="M1 201 L39 201 L39 239 L1 239 L1 201 Z"/></clipPath><clipPath clipPathUnits="userSpaceOnUse" id="clipPath98"><path d="M38 220 C38 229.9411 29.9411 238 20 238 C10.0589 238 2 229.9411 2 220 C2 210.0589 10.0589 202 20 202 C29.9411 202 38 210.0589 38 220 Z"/></clipPath><clipPath clipPathUnits="userSpaceOnUse" id="clipPath99"><path d="M1 361 L39 361 L39 399 L1 399 L1 361 Z"/></clipPath><clipPath clipPathUnits="userSpaceOnUse" id="clipPath100"><path d="M38 380 C38 389.9411 29.9411 398 20 398 C10.0589 398 2 389.9411 2 380 C2 370.0589 10.0589 362 20 362 C29.9411 362 38 370.0589 38 380 Z"/></clipPath><clipPath clipPathUnits="userSpaceOnUse" id="clipPath101"><path d="M185.8 205.8 L214.2 205.8 L214.2 234.2 L185.8 234.2 L185.8 205.8 Z"/></clipPath><clipPath clipPathUnits="userSpaceOnUse" id="clipPath102"><path d="M213.2 220 C213.2 227.2902 207.2902 233.2 200 233.2 C192.7098 233.2 186.8 227.2902 186.8 220 C186.8 212.7098 192.7098 206.8 200 206.8 C207.2902 206.8 213.2 212.7098 213.2 220 Z"/></clipPath><clipPath clipPathUnits="userSpaceOnUse" id="clipPath103"><path d="M185.8 525.8 L214.2 525.8 L214.2 554.2 L185.8 554.2 L185.8 525.8 Z"/></clipPath><clipPath clipPathUnits="userSpaceOnUse" id="clipPath104"><path d="M213.2 540 C213.2 547.2902 207.2902 553.2 200 553.2 C192.7098 553.2 186.8 547.2902 186.8 540 C186.8 532.7098 192.7098 526.8 200 526.8 C207.2902 526.8 213.2 532.7098 213.2 540 Z"/></clipPath><clipPath clipPathUnits="userSpaceOnUse" id="clipPath105"><path d="M35 115 L77 115 L77 157 L35 157 L35 115 Z"/></clipPath><clipPath clipPathUnits="userSpaceOnUse" id="clipPath106"><path d="M76 136 C76 147.0457 67.0457 156 56 156 C44.9543 156 36 147.0457 36 136 C36 124.9543 44.9543 116 56 116 C67.0457 116 76 124.9543 76 136 Z"/></clipPath><clipPath clipPathUnits="userSpaceOnUse" id="clipPath107"><path d="M35 435 L77 435 L77 477 L35 477 L35 435 Z"/></clipPath><clipPath clipPathUnits="userSpaceOnUse" id="clipPath108"><path d="M76 456 C76 467.0457 67.0457 476 56 476 C44.9543 476 36 467.0457 36 456 C36 444.9543 44.9543 436 56 436 C67.0457 436 76 444.9543 76 456 Z"/></clipPath><clipPath clipPathUnits="userSpaceOnUse" id="clipPath109"><path d="M161 121 L199 121 L199 159 L161 159 L161 121 Z"/></clipPath><clipPath clipPathUnits="userSpaceOnUse" id="clipPath110"><path d="M198 140 C198 149.9411 189.9411 158 180 158 C170.0589 158 162 149.9411 162 140 C162 130.0589 170.0589 122 180 122 C189.9411 122 198 130.0589 198 140 Z"/></clipPath><clipPath clipPathUnits="userSpaceOnUse" id="clipPath111"><path d="M212.4667 525.8 L240.8667 525.8 L240.8667 554.2 L212.4667 554.2 L212.4667 525.8 Z"/></clipPath><clipPath clipPathUnits="userSpaceOnUse" id="clipPath112"><path d="M239.8667 540 C239.8667 547.2902 233.9568 553.2 226.6667 553.2 C219.3765 553.2 213.4667 547.2902 213.4667 540 C213.4667 532.7098 219.3765 526.8 226.6667 526.8 C233.9568 526.8 239.8667 532.7098 239.8667 540 Z"/></clipPath><clipPath clipPathUnits="userSpaceOnUse" id="clipPath113"><path d="M35 35 L77 35 L77 77 L35 77 L35 35 Z"/></clipPath><clipPath clipPathUnits="userSpaceOnUse" id="clipPath114"><path d="M76 56 C76 67.0457 67.0457 76 56 76 C44.9543 76 36 67.0457 36 56 C36 44.9543 44.9543 36 56 36 C67.0457 36 76 44.9543 76 56 Z"/></clipPath><clipPath clipPathUnits="userSpaceOnUse" id="clipPath115"><path d="M35 515 L77 515 L77 557 L35 557 L35 515 Z"/></clipPath><clipPath clipPathUnits="userSpaceOnUse" id="clipPath116"><path d="M76 536 C76 547.0457 67.0457 556 56 556 C44.9543 556 36 547.0457 36 536 C36 524.9543 44.9543 516 56 516 C67.0457 516 76 524.9543 76 536 Z"/></clipPath><clipPath clipPathUnits="userSpaceOnUse" id="clipPath117"><path d="M212.4667 45.8 L240.8667 45.8 L240.8667 74.2 L212.4667 74.2 L212.4667 45.8 Z"/></clipPath><clipPath clipPathUnits="userSpaceOnUse" id="clipPath118"><path d="M239.8667 60 C239.8667 67.2902 233.9568 73.2 226.6667 73.2 C219.3765 73.2 213.4667 67.2902 213.4667 60 C213.4667 52.7098 219.3765 46.8 226.6667 46.8 C233.9568 46.8 239.8667 52.7098 239.8667 60 Z"/></clipPath></defs><g><line y2="0" fill="none" x1="0" x2="240" y1="0"/><line y2="80" fill="none" x1="0" x2="240" y1="80"/><line y2="160" fill="none" x1="0" x2="240" y1="160"/><line y2="240" fill="none" x1="0" x2="240" y1="240"/><line y2="320" fill="none" x1="0" x2="240" y1="320"/><line y2="400" fill="none" x1="0" x2="240" y1="400"/><line y2="480" fill="none" x1="0" x2="240" y1="480"/><line y2="560" fill="none" x1="0" x2="240" y1="560"/><line y2="560" fill="none" x1="0" x2="0" y1="0"/><line y2="560" fill="none" x1="80" x2="80" y1="0"/><line y2="560" fill="none" x1="160" x2="160" y1="0"/><line y2="560" fill="none" x1="240" x2="240" y1="0"/><rect x="81" y="1" clip-path="url(#clipPath1)" fill="gray" width="78" height="78" stroke="none"/><rect x="81" y="81" clip-path="url(#clipPath2)" fill="gray" width="78" height="78" stroke="none"/><rect x="81" y="161" clip-path="url(#clipPath3)" fill="gray" width="78" height="78" stroke="none"/><rect x="81" y="321" clip-path="url(#clipPath4)" fill="gray" width="78" height="78" stroke="none"/><rect x="81" y="401" clip-path="url(#clipPath5)" fill="gray" width="78" height="78" stroke="none"/><rect x="81" y="481" clip-path="url(#clipPath6)" fill="gray" width="78" height="78" stroke="none"/><circle fill="rgb(30,144,255)" r="20" clip-path="url(#clipPath7)" cx="24" cy="24" stroke="none"/><circle fill="none" r="20" clip-path="url(#clipPath7)" cx="24" cy="24"/><text x="5" font-size="31px" y="35" clip-path="url(#clipPath8)" font-family="'Arial'" stroke="none" xml:space="preserve">A1</text></g><g fill="rgb(144,238,144)" font-size="31px" font-family="'Arial'" stroke="rgb(144,238,144)"><circle r="13.2" clip-path="url(#clipPath9)" cx="173.3333" cy="500" stroke="none"/><circle fill="none" r="13.2" clip-path="url(#clipPath9)" cx="173.3333" cy="500" stroke="black"/><text x="162.3333" font-size="18px" y="506" clip-path="url(#clipPath10)" fill="black" stroke="none" xml:space="preserve">B1</text><circle fill="rgb(250,128,114)" r="13.2" clip-path="url(#clipPath11)" cx="173.3333" cy="20" stroke="none"/><circle fill="none" r="13.2" clip-path="url(#clipPath11)" cx="173.3333" cy="20" stroke="black"/><text x="162.3333" font-size="18px" y="26" clip-path="url(#clipPath12)" fill="black" stroke="none" xml:space="preserve">C1</text><circle fill="rgb(165,42,42)" r="20" clip-path="url(#clipPath13)" cx="24" cy="504" stroke="none"/><circle fill="none" r="20" clip-path="url(#clipPath13)" cx="24" cy="504" stroke="black"/><text x="6" font-size="29px" y="514" clip-path="url(#clipPath14)" fill="black" stroke="none" xml:space="preserve">D1</text><circle fill="rgb(30,144,255)" r="20" clip-path="url(#clipPath15)" cx="24" cy="104" stroke="none"/><circle fill="none" r="20" clip-path="url(#clipPath15)" cx="24" cy="104" stroke="black"/><text fill="black" x="5" xml:space="preserve" y="115" clip-path="url(#clipPath16)" stroke="none">A2</text><circle r="18" clip-path="url(#clipPath17)" cx="180" cy="420" stroke="none"/><circle fill="none" r="18" clip-path="url(#clipPath17)" cx="180" cy="420" stroke="black"/><text x="164" font-size="27px" y="429" clip-path="url(#clipPath18)" fill="black" stroke="none" xml:space="preserve">B2</text><circle fill="rgb(250,128,114)" r="13.2" clip-path="url(#clipPath19)" cx="200" cy="20" stroke="none"/><circle fill="none" r="13.2" clip-path="url(#clipPath19)" cx="200" cy="20" stroke="black"/><text x="189" font-size="18px" y="26" clip-path="url(#clipPath20)" fill="black" stroke="none" xml:space="preserve">C2</text><circle fill="rgb(165,42,42)" r="20" clip-path="url(#clipPath21)" cx="24" cy="424" stroke="none"/><circle fill="none" r="20" clip-path="url(#clipPath21)" cx="24" cy="424" stroke="black"/><text x="6" font-size="29px" y="434" clip-path="url(#clipPath22)" fill="black" stroke="none" xml:space="preserve">D2</text><circle fill="rgb(30,144,255)" r="18" clip-path="url(#clipPath23)" cx="20" cy="180" stroke="none"/><circle fill="none" r="18" clip-path="url(#clipPath23)" cx="20" cy="180" stroke="black"/><text x="4" font-size="27px" y="189" clip-path="url(#clipPath24)" fill="black" stroke="none" xml:space="preserve">A3</text><circle r="18" clip-path="url(#clipPath25)" cx="180" cy="340" stroke="none"/><circle fill="none" r="18" clip-path="url(#clipPath25)" cx="180" cy="340" stroke="black"/><text x="164" font-size="27px" y="349" clip-path="url(#clipPath26)" fill="black" stroke="none" xml:space="preserve">B3</text><circle fill="rgb(250,128,114)" r="13.2" clip-path="url(#clipPath27)" cx="226.6667" cy="20" stroke="none"/><circle fill="none" r="13.2" clip-path="url(#clipPath27)" cx="226.6667" cy="20" stroke="black"/><text x="215.6667" font-size="18px" y="26" clip-path="url(#clipPath28)" fill="black" stroke="none" xml:space="preserve">C3</text><circle fill="rgb(165,42,42)" r="18" clip-path="url(#clipPath29)" cx="20" cy="340" stroke="none"/><circle fill="none" r="18" clip-path="url(#clipPath29)" cx="20" cy="340" stroke="black"/><text x="4" font-size="25px" y="349" clip-path="url(#clipPath30)" fill="black" stroke="none" xml:space="preserve">D3</text><circle fill="rgb(30,144,255)" r="18" clip-path="url(#clipPath31)" cx="20" cy="260" stroke="none"/><circle fill="none" r="18" clip-path="url(#clipPath31)" cx="20" cy="260" stroke="black"/><text x="4" font-size="27px" y="269" clip-path="url(#clipPath32)" fill="black" stroke="none" xml:space="preserve">A4</text><circle r="13.2" clip-path="url(#clipPath33)" cx="173.3333" cy="253.3333" stroke="none"/><circle fill="none" r="13.2" clip-path="url(#clipPath33)" cx="173.3333" cy="253.3333" stroke="black"/><text x="162.3333" font-size="18px" y="259.3333" clip-path="url(#clipPath34)" fill="black" stroke="none" xml:space="preserve">B4</text><circle fill="rgb(250,128,114)" r="13.2" clip-path="url(#clipPath35)" cx="173.3333" cy="60" stroke="none"/><circle fill="none" r="13.2" clip-path="url(#clipPath35)" cx="173.3333" cy="60" stroke="black"/><text x="162.3333" font-size="18px" y="66" clip-path="url(#clipPath36)" fill="black" stroke="none" xml:space="preserve">C4</text><circle fill="rgb(165,42,42)" r="18" clip-path="url(#clipPath37)" cx="60" cy="340" stroke="none"/><circle fill="none" r="18" clip-path="url(#clipPath37)" cx="60" cy="340" stroke="black"/><text x="44" font-size="25px" y="349" clip-path="url(#clipPath38)" fill="black" stroke="none" xml:space="preserve">D4</text><circle fill="rgb(30,144,255)" r="18" clip-path="url(#clipPath39)" cx="100" cy="260" stroke="none"/><circle fill="none" r="18" clip-path="url(#clipPath39)" cx="100" cy="260" stroke="black"/><text x="84" font-size="27px" y="269" clip-path="url(#clipPath40)" fill="black" stroke="none" xml:space="preserve">A5</text><circle r="13.2" clip-path="url(#clipPath41)" cx="173.3333" cy="180" stroke="none"/><circle fill="none" r="13.2" clip-path="url(#clipPath41)" cx="173.3333" cy="180" stroke="black"/><text x="162.3333" font-size="18px" y="186" clip-path="url(#clipPath42)" fill="black" stroke="none" xml:space="preserve">B5</text><circle fill="rgb(250,128,114)" r="13.2" clip-path="url(#clipPath43)" cx="200" cy="60" stroke="none"/><circle fill="none" r="13.2" clip-path="url(#clipPath43)" cx="200" cy="60" stroke="black"/><text x="189" font-size="18px" y="66" clip-path="url(#clipPath44)" fill="black" stroke="none" xml:space="preserve">C5</text><circle fill="rgb(165,42,42)" r="18" clip-path="url(#clipPath45)" cx="60" cy="260" stroke="none"/><circle fill="none" r="18" clip-path="url(#clipPath45)" cx="60" cy="260" stroke="black"/><text x="44" font-size="25px" y="269" clip-path="url(#clipPath46)" fill="black" stroke="none" xml:space="preserve">D5</text><circle fill="rgb(30,144,255)" r="13.2" clip-path="url(#clipPath47)" cx="200" cy="253.3333" stroke="none"/><circle fill="none" r="13.2" clip-path="url(#clipPath47)" cx="200" cy="253.3333" stroke="black"/><text x="190" font-size="18px" y="259.3333" clip-path="url(#clipPath48)" fill="black" stroke="none" xml:space="preserve">A6</text><circle r="13.2" clip-path="url(#clipPath49)" cx="200" cy="180" stroke="none"/><circle fill="none" r="13.2" clip-path="url(#clipPath49)" cx="200" cy="180" stroke="black"/><text x="189" font-size="18px" y="186" clip-path="url(#clipPath50)" fill="black" stroke="none" xml:space="preserve">B6</text><circle fill="rgb(250,128,114)" r="18" clip-path="url(#clipPath51)" cx="180" cy="100" stroke="none"/><circle fill="none" r="18" clip-path="url(#clipPath51)" cx="180" cy="100" stroke="black"/><text x="164" font-size="25px" y="109" clip-path="url(#clipPath52)" fill="black" stroke="none" xml:space="preserve">C6</text><circle fill="rgb(165,42,42)" r="18" clip-path="url(#clipPath53)" cx="140" cy="260" stroke="none"/><circle fill="none" r="18" clip-path="url(#clipPath53)" cx="140" cy="260" stroke="black"/><text x="124" font-size="25px" y="269" clip-path="url(#clipPath54)" fill="black" stroke="none" xml:space="preserve">D6</text><circle fill="rgb(30,144,255)" r="18" clip-path="url(#clipPath55)" cx="220" cy="340" stroke="none"/><circle fill="none" r="18" clip-path="url(#clipPath55)" cx="220" cy="340" stroke="black"/><text x="204" font-size="27px" y="349" clip-path="url(#clipPath56)" fill="black" stroke="none" xml:space="preserve">A7</text><circle r="13.2" clip-path="url(#clipPath57)" cx="226.6667" cy="180" stroke="none"/><circle fill="none" r="13.2" clip-path="url(#clipPath57)" cx="226.6667" cy="180" stroke="black"/><text x="215.6667" font-size="18px" y="186" clip-path="url(#clipPath58)" fill="black" stroke="none" xml:space="preserve">B7</text><circle fill="rgb(250,128,114)" r="18" clip-path="url(#clipPath59)" cx="220" cy="100" stroke="none"/><circle fill="none" r="18" clip-path="url(#clipPath59)" cx="220" cy="100" stroke="black"/><text x="204" font-size="25px" y="109" clip-path="url(#clipPath60)" fill="black" stroke="none" xml:space="preserve">C7</text><circle fill="rgb(165,42,42)" r="13.2" clip-path="url(#clipPath61)" cx="226.6667" cy="253.3333" stroke="none"/><circle fill="none" r="13.2" clip-path="url(#clipPath61)" cx="226.6667" cy="253.3333" stroke="black"/><text x="215.6667" font-size="18px" y="259.3333" clip-path="url(#clipPath62)" fill="black" stroke="none" xml:space="preserve">D7</text><circle fill="rgb(30,144,255)" r="18" clip-path="url(#clipPath63)" cx="220" cy="420" stroke="none"/><circle fill="none" r="18" clip-path="url(#clipPath63)" cx="220" cy="420" stroke="black"/><text x="204" font-size="27px" y="429" clip-path="url(#clipPath64)" fill="black" stroke="none" xml:space="preserve">A8</text><circle r="13.2" clip-path="url(#clipPath65)" cx="173.3333" cy="280" stroke="none"/><circle fill="none" r="13.2" clip-path="url(#clipPath65)" cx="173.3333" cy="280" stroke="black"/><text x="162.3333" font-size="18px" y="286" clip-path="url(#clipPath66)" fill="black" stroke="none" xml:space="preserve">B8</text><circle fill="rgb(250,128,114)" r="13.2" clip-path="url(#clipPath67)" cx="173.3333" cy="220" stroke="none"/><circle fill="none" r="13.2" clip-path="url(#clipPath67)" cx="173.3333" cy="220" stroke="black"/><text x="162.3333" font-size="18px" y="226" clip-path="url(#clipPath68)" fill="black" stroke="none" xml:space="preserve">C8</text><circle fill="rgb(165,42,42)" r="18" clip-path="url(#clipPath69)" cx="180" cy="380" stroke="none"/><circle fill="none" r="18" clip-path="url(#clipPath69)" cx="180" cy="380" stroke="black"/><text x="164" font-size="25px" y="389" clip-path="url(#clipPath70)" fill="black" stroke="none" xml:space="preserve">D8</text><circle fill="rgb(30,144,255)" r="18" clip-path="url(#clipPath71)" cx="180" cy="460" stroke="none"/><circle fill="none" r="18" clip-path="url(#clipPath71)" cx="180" cy="460" stroke="black"/><text x="164" font-size="27px" y="469" clip-path="url(#clipPath72)" fill="black" stroke="none" xml:space="preserve">A9</text><circle r="18" clip-path="url(#clipPath73)" cx="100" cy="300" stroke="none"/><circle fill="none" r="18" clip-path="url(#clipPath73)" cx="100" cy="300" stroke="black"/><text x="84" font-size="27px" y="309" clip-path="url(#clipPath74)" fill="black" stroke="none" xml:space="preserve">B9</text><circle fill="rgb(250,128,114)" r="13.2" clip-path="url(#clipPath75)" cx="200" cy="280" stroke="none"/><circle fill="none" r="13.2" clip-path="url(#clipPath75)" cx="200" cy="280" stroke="black"/><text x="189" font-size="18px" y="286" clip-path="url(#clipPath76)" fill="black" stroke="none" xml:space="preserve">C9</text><circle fill="rgb(165,42,42)" r="18" clip-path="url(#clipPath77)" cx="220" cy="380" stroke="none"/><circle fill="none" r="18" clip-path="url(#clipPath77)" cx="220" cy="380" stroke="black"/><text x="204" font-size="25px" y="389" clip-path="url(#clipPath78)" fill="black" stroke="none" xml:space="preserve">D9</text><circle fill="rgb(30,144,255)" r="13.2" clip-path="url(#clipPath79)" cx="200" cy="500" stroke="none"/><circle fill="none" r="13.2" clip-path="url(#clipPath79)" cx="200" cy="500" stroke="black"/><text x="189" font-size="13px" y="505" clip-path="url(#clipPath80)" fill="black" stroke="none" xml:space="preserve">A10</text><circle r="18" clip-path="url(#clipPath81)" cx="20" cy="300" stroke="none"/><circle fill="none" r="18" clip-path="url(#clipPath81)" cx="20" cy="300" stroke="black"/><text x="4" font-size="18px" y="306" clip-path="url(#clipPath82)" fill="black" stroke="none" xml:space="preserve">B10</text><circle fill="rgb(250,128,114)" r="18" clip-path="url(#clipPath83)" cx="140" cy="300" stroke="none"/><circle fill="none" r="18" clip-path="url(#clipPath83)" cx="140" cy="300" stroke="black"/><text x="124" font-size="18px" y="306" clip-path="url(#clipPath84)" fill="black" stroke="none" xml:space="preserve">C10</text><circle fill="rgb(165,42,42)" r="13.2" clip-path="url(#clipPath85)" cx="226.6667" cy="280" stroke="none"/><circle fill="none" r="13.2" clip-path="url(#clipPath85)" cx="226.6667" cy="280" stroke="black"/><text x="215.6667" font-size="13px" y="285" clip-path="url(#clipPath86)" fill="black" stroke="none" xml:space="preserve">D10</text><circle fill="rgb(30,144,255)" r="13.2" clip-path="url(#clipPath87)" cx="226.6667" cy="500" stroke="none"/><circle fill="none" r="13.2" clip-path="url(#clipPath87)" cx="226.6667" cy="500" stroke="black"/><text x="215.6667" font-size="13px" y="505" clip-path="url(#clipPath88)" fill="black" stroke="none" xml:space="preserve">A11</text><circle r="18" clip-path="url(#clipPath89)" cx="60" cy="180" stroke="none"/><circle fill="none" r="18" clip-path="url(#clipPath89)" cx="60" cy="180" stroke="black"/><text x="44" font-size="18px" y="186" clip-path="url(#clipPath90)" fill="black" stroke="none" xml:space="preserve">B11</text><circle fill="rgb(250,128,114)" r="18" clip-path="url(#clipPath91)" cx="60" cy="300" stroke="none"/><circle fill="none" r="18" clip-path="url(#clipPath91)" cx="60" cy="300" stroke="black"/><text x="44" font-size="18px" y="306" clip-path="url(#clipPath92)" fill="black" stroke="none" xml:space="preserve">C11</text><circle fill="rgb(165,42,42)" r="13.2" clip-path="url(#clipPath93)" cx="173.3333" cy="306.6667" stroke="none"/><circle fill="none" r="13.2" clip-path="url(#clipPath93)" cx="173.3333" cy="306.6667" stroke="black"/><text x="162.3333" font-size="13px" y="311.6667" clip-path="url(#clipPath94)" fill="black" stroke="none" xml:space="preserve">D11</text><circle fill="rgb(30,144,255)" r="13.2" clip-path="url(#clipPath95)" cx="173.3333" cy="540" stroke="none"/><circle fill="none" r="13.2" clip-path="url(#clipPath95)" cx="173.3333" cy="540" stroke="black"/><text x="162.3333" font-size="13px" y="545" clip-path="url(#clipPath96)" fill="black" stroke="none" xml:space="preserve">A12</text><circle r="18" clip-path="url(#clipPath97)" cx="20" cy="220" stroke="none"/><circle fill="none" r="18" clip-path="url(#clipPath97)" cx="20" cy="220" stroke="black"/><text x="4" font-size="18px" y="226" clip-path="url(#clipPath98)" fill="black" stroke="none" xml:space="preserve">B12</text><circle fill="rgb(250,128,114)" r="18" clip-path="url(#clipPath99)" cx="20" cy="380" stroke="none"/><circle fill="none" r="18" clip-path="url(#clipPath99)" cx="20" cy="380" stroke="black"/><text x="4" font-size="18px" y="386" clip-path="url(#clipPath100)" fill="black" stroke="none" xml:space="preserve">C12</text><circle fill="rgb(165,42,42)" r="13.2" clip-path="url(#clipPath101)" cx="200" cy="220" stroke="none"/><circle fill="none" r="13.2" clip-path="url(#clipPath101)" cx="200" cy="220" stroke="black"/><text x="189" font-size="13px" y="225" clip-path="url(#clipPath102)" fill="black" stroke="none" xml:space="preserve">D12</text><circle fill="rgb(30,144,255)" r="13.2" clip-path="url(#clipPath103)" cx="200" cy="540" stroke="none"/><circle fill="none" r="13.2" clip-path="url(#clipPath103)" cx="200" cy="540" stroke="black"/><text x="189" font-size="13px" y="545" clip-path="url(#clipPath104)" fill="black" stroke="none" xml:space="preserve">A13</text><circle r="20" clip-path="url(#clipPath105)" cx="56" cy="136" stroke="none"/><circle fill="none" r="20" clip-path="url(#clipPath105)" cx="56" cy="136" stroke="black"/><text x="39" font-size="20px" y="143" clip-path="url(#clipPath106)" fill="black" stroke="none" xml:space="preserve">B13</text><circle fill="rgb(250,128,114)" r="20" clip-path="url(#clipPath107)" cx="56" cy="456" stroke="none"/><circle fill="none" r="20" clip-path="url(#clipPath107)" cx="56" cy="456" stroke="black"/><text x="38" font-size="20px" y="463" clip-path="url(#clipPath108)" fill="black" stroke="none" xml:space="preserve">C13</text><circle fill="rgb(165,42,42)" r="18" clip-path="url(#clipPath109)" cx="180" cy="140" stroke="none"/><circle fill="none" r="18" clip-path="url(#clipPath109)" cx="180" cy="140" stroke="black"/><text x="164" font-size="18px" y="146" clip-path="url(#clipPath110)" fill="black" stroke="none" xml:space="preserve">D13</text><circle fill="rgb(30,144,255)" r="13.2" clip-path="url(#clipPath111)" cx="226.6667" cy="540" stroke="none"/><circle fill="none" r="13.2" clip-path="url(#clipPath111)" cx="226.6667" cy="540" stroke="black"/><text x="215.6667" font-size="13px" y="545" clip-path="url(#clipPath112)" fill="black" stroke="none" xml:space="preserve">A14</text><circle r="20" clip-path="url(#clipPath113)" cx="56" cy="56" stroke="none"/><circle fill="none" r="20" clip-path="url(#clipPath113)" cx="56" cy="56" stroke="black"/><text x="39" font-size="20px" y="63" clip-path="url(#clipPath114)" fill="black" stroke="none" xml:space="preserve">B14</text><circle fill="rgb(250,128,114)" r="20" clip-path="url(#clipPath115)" cx="56" cy="536" stroke="none"/><circle fill="none" r="20" clip-path="url(#clipPath115)" cx="56" cy="536" stroke="black"/><text x="38" font-size="20px" y="543" clip-path="url(#clipPath116)" fill="black" stroke="none" xml:space="preserve">C14</text><circle fill="rgb(165,42,42)" r="13.2" clip-path="url(#clipPath117)" cx="226.6667" cy="60" stroke="none"/><circle fill="none" r="13.2" clip-path="url(#clipPath117)" cx="226.6667" cy="60" stroke="black"/><text x="215.6667" font-size="13px" y="65" clip-path="url(#clipPath118)" fill="black" stroke="none" xml:space="preserve">D14</text></g></g></svg>