<?xml version="1.0" encoding="UTF-8"?><svg xmlns="http://www.w3.org/2000/svg" xmlns:xlink="http://www.w3.org/1999/xlink" stroke-dasharray="none" shape-rendering="auto" font-family="'Dialog'" width="591" text-rendering="auto" fill-opacity="1" contentScriptType="text/ecmascript" color-interpolation="auto" color-rendering="auto" preserveAspectRatio="xMidYMid meet" font-size="12px" fill="black" stroke="black" image-rendering="auto" stroke-miterlimit="10" zoomAndPan="magnify" version="1.0" stroke-linecap="square" stroke-linejoin="miter" contentStyleType="text/css" font-style="normal" height="591" stroke-width="1" stroke-dashoffset="0" font-weight="normal" stroke-opacity="1"><!--Generated by the Batik Graphics2D SVG Generator--><defs id="genericDefs"/><g><defs id="defs1"><clipPath clipPathUnits="userSpaceOnUse" id="clipPath1"><path d="M37 37 L71 37 L71 71 L37 71 L37 37 Z"/></clipPath><clipPath clipPathUnits="userSpaceOnUse" id="clipPath2"><path d="M70 54 C70 62.8366 62.8366 70 54 70 C45.1634 70 38 62.8366 38 54 C38 45.1634 45.1634 38 54 38 C62.8366 38 70 45.1634 70 54 Z"/></clipPath><clipPath clipPathUnits="userSpaceOnUse" id="clipPath3"><path d="M517 517 L551 517 L551 551 L517 551 L517 517 Z"/></clipPath><clipPath clipPathUnits="userSpaceOnUse" id="clipPath4"><path d="M550 534 C550 542.8365 542.8365 550 534 550 C525.1635 550 518 542.8365 518 534 C518 525.1635 525.1635 518 534 518 C542.8365 518 550 525.1635 550 534 Z"/></clipPath><clipPath clipPathUnits="userSpaceOnUse" id="clipPath5"><path d="M517 37 L551 37 L551 71 L517 71 L517 37 Z"/></clipPath><clipPath clipPathUnits="userSpaceOnUse" id="clipPath6"><path d="M550 54 C550 62.8366 542.8365 70 534 70 C525.1635 70 518 62.8366 518 54 C518 45.1634 525.1635 38 534 38 C542.8365 38 550 45.1634 550 54 Z"/></clipPath><clipPath clipPathUnits="userSpaceOnUse" id="clipPath7"><path d="M37 517 L71 517 L71 551 L37 551 L37 517 Z"/></clipPath><clipPath clipPathUnits="userSpaceOnUse" id="clipPath8"><path d="M70 534 C70 542.8365 62.8366 550 54 550 C45.1634 550 38 542.8365 38 534 C38 525.1635 45.1634 518 54 518 C62.8366 518 70 525.1635 70 534 Z"/></clipPath><clipPath clipPathUnits="userSpaceOnUse" id="clipPath9"><path d="M37 277 L71 277 L71 311 L37 311 L37 277 Z"/></clipPath><clipPath clipPathUnits="userSpaceOnUse" id="clipPath10"><path d="M70 294 C70 302.8365 62.8366 310 54 310 C45.1634 310 38 302.8365 38 294 C38 285.1635 45.1634 278 54 278 C62.8366 278 70 285.1635 70 294 Z"/></clipPath><clipPath clipPathUnits="userSpaceOnUse" id="clipPath11"><path d="M517 277 L551 277 L551 311 L517 311 L517 277 Z"/></clipPath><clipPath clipPathUnits="userSpaceOnUse" id="clipPath12"><path d="M550 294 C550 302.8365 542.8365 310 534 310 C525.1635 310 518 302.8365 518 294 C518 285.1635 525.1635 278 534 278 C542.8365 278 550 285.1635 550 294 Z"/></clipPath><clipPath clipPathUnits="userSpaceOnUse" id="clipPath13"><path d="M293 53 L327 53 L327 87 L293 87 L293 53 Z"/></clipPath><clipPath clipPathUnits="userSpaceOnUse" id="clipPath14"><path d="M326 70 C326 78.8366 318.8365 86 310 86 C301.1635 86 294 78.8366 294 70 C294 61.1634 301.1635 54 310 54 C318.8365 54 326 61.1634 326 70 Z"/></clipPath><clipPath clipPathUnits="userSpaceOnUse" id="clipPath15"><path d="M549 549 L583 549 L583 583 L549 583 L549 549 Z"/></clipPath><clipPath clipPathUnits="userSpaceOnUse" id="clipPath16"><path d="M582 566 C582 574.8365 574.8365 582 566 582 C557.1635 582 550 574.8365 550 566 C550 557.1635 557.1635 550 566 550 C574.8365 550 582 557.1635 582 566 Z"/></clipPath><clipPath clipPathUnits="userSpaceOnUse" id="clipPath17"><path d="M69 69 L103 69 L103 103 L69 103 L69 69 Z"/></clipPath><clipPath clipPathUnits="userSpaceOnUse" id="clipPath18"><path d="M102 86 C102 94.8366 94.8366 102 86 102 C77.1634 102 70 94.8366 70 86 C70 77.1634 77.1634 70 86 70 C94.8366 70 102 77.1634 102 86 Z"/></clipPath><clipPath clipPathUnits="userSpaceOnUse" id="clipPath19"><path d="M69 549 L103 549 L103 583 L69 583 L69 549 Z"/></clipPath><clipPath clipPathUnits="userSpaceOnUse" id="clipPath20"><path d="M102 566 C102 574.8365 94.8366 582 86 582 C77.1634 582 70 574.8365 70 566 C70 557.1635 77.1634 550 86 550 C94.8366 550 102 557.1635 102 566 Z"/></clipPath><clipPath clipPathUnits="userSpaceOnUse" id="clipPath21"><path d="M549 69 L583 69 L583 103 L549 103 L549 69 Z"/></clipPath><clipPath clipPathUnits="userSpaceOnUse" id="clipPath22"><path d="M582 86 C582 94.8366 574.8365 102 566 102 C557.1635 102 550 94.8366 550 86 C550 77.1634 557.1635 70 566 70 C574.8365 70 582 77.1634 582 86 Z"/></clipPath><clipPath clipPathUnits="userSpaceOnUse" id="clipPath23"><path d="M549 309 L583 309 L583 343 L549 343 L549 309 Z"/></clipPath><clipPath clipPathUnits="userSpaceOnUse" id="clipPath24"><path d="M582 326 C582 334.8365 574.8365 342 566 342 C557.1635 342 550 334.8365 550 326 C550 317.1635 557.1635 310 566 310 C574.8365 310 582 317.1635 582 326 Z"/></clipPath><clipPath clipPathUnits="userSpaceOnUse" id="clipPath25"><path d="M69 309 L103 309 L103 343 L69 343 L69 309 Z"/></clipPath><clipPath clipPathUnits="userSpaceOnUse" id="clipPath26"><path d="M102 326 C102 334.8365 94.8366 342 86 342 C77.1634 342 70 334.8365 70 326 C70 317.1635 77.1634 310 86 310 C94.8366 310 102 317.1635 102 326 Z"/></clipPath><clipPath clipPathUnits="userSpaceOnUse" id="clipPath27"><path d="M293 533 L327 533 L327 567 L293 567 L293 533 Z"/></clipPath><clipPath clipPathUnits="userSpaceOnUse" id="clipPath28"><path d="M326 550 C326 558.8365 318.8365 566 310 566 C301.1635 566 294 558.8365 294 550 C294 541.1635 301.1635 534 310 534 C318.8365 534 326 541.1635 326 550 Z"/></clipPath></defs><g><line y2="30" fill="none" x1="30" x2="590" y1="30"/><line y2="110" fill="none" x1="30" x2="590" y1="110"/><line y2="190" fill="none" x1="30" x2="590" y1="190"/><line y2="270" fill="none" x1="30" x2="590" y1="270"/><line y2="350" fill="none" x1="30" x2="590" y1="350"/><line y2="430" fill="none" x1="30" x2="590" y1="430"/><line y2="510" fill="none" x1="30" x2="590" y1="510"/><line y2="590" fill="none" x1="30" x2="590" y1="590"/><line y2="590" fill="none" x1="30" x2="30" y1="30"/><line y2="590" fill="none" x1="110" x2="110" y1="30"/><line y2="590" fill="none" x1="190" x2="190" y1="30"/><line y2="590" fill="none" x1="270" x2="270" y1="30"/><line y2="590" fill="none" x1="350" x2="350" y1="30"/><line y2="590" fill="none" x1="430" x2="430" y1="30"/><line y2="590" fill="none" x1="510" x2="510" y1="30"/><line y2="590" fill="none" x1="590" x2="590" y1="30"/><path d="M17.9375 79 L15.8281 79 L15.8281 65.5625 Q15.0781 66.2812 13.8359 67.0078 Q12.5938 67.7344 11.6094 68.0938 L11.6094 66.0625 Q13.3906 65.2344 14.7109 64.0469 Q16.0312 62.8594 16.5781 61.75 L17.9375 61.75 L17.9375 79 Z" stroke="none"/><path d="M21.0781 156.9688 L21.0781 159 L9.7344 159 Q9.7031 158.2344 9.9688 157.5312 Q10.4062 156.375 11.3594 155.25 Q12.3125 154.125 14.125 152.6406 Q16.9219 150.3438 17.9062 149.0078 Q18.8906 147.6719 18.8906 146.4688 Q18.8906 145.2188 17.9922 144.3594 Q17.0938 143.5 15.6562 143.5 Q14.1406 143.5 13.2266 144.4141 Q12.3125 145.3281 12.2969 146.9375 L10.125 146.7188 Q10.3438 144.2969 11.7969 143.0234 Q13.25 141.75 15.7031 141.75 Q18.1719 141.75 19.6172 143.1172 Q21.0625 144.4844 21.0625 146.5156 Q21.0625 147.5469 20.6406 148.5469 Q20.2188 149.5469 19.2422 150.6484 Q18.2656 151.75 15.9844 153.6719 Q14.0938 155.2656 13.5547 155.8281 Q13.0156 156.3906 12.6562 156.9688 L21.0781 156.9688 Z" stroke="none"/><path d="M10.0156 234.4688 L12.125 234.1875 Q12.4844 235.9688 13.3594 236.7656 Q14.2344 237.5625 15.4844 237.5625 Q16.9688 237.5625 17.9922 236.5312 Q19.0156 235.5 19.0156 233.9688 Q19.0156 232.5156 18.0703 231.5703 Q17.125 230.625 15.6562 230.625 Q15.0625 230.625 14.1719 230.8594 L14.4062 229.0156 Q14.6094 229.0312 14.75 229.0312 Q16.0938 229.0312 17.1719 228.3281 Q18.25 227.625 18.25 226.1719 Q18.25 225 17.4609 224.2422 Q16.6719 223.4844 15.4375 223.4844 Q14.2031 223.4844 13.3828 224.2578 Q12.5625 225.0312 12.3281 226.5781 L10.2188 226.2031 Q10.6094 224.0781 11.9766 222.9141 Q13.3438 221.75 15.3906 221.75 Q16.7969 221.75 17.9766 222.3516 Q19.1562 222.9531 19.7891 224 Q20.4219 225.0469 20.4219 226.2188 Q20.4219 227.3281 19.8203 228.2422 Q19.2188 229.1562 18.0469 229.6875 Q19.5781 230.0469 20.4219 231.1562 Q21.2656 232.2656 21.2656 233.9219 Q21.2656 236.1719 19.625 237.7422 Q17.9844 239.3125 15.4688 239.3125 Q13.2031 239.3125 11.7109 237.9609 Q10.2188 236.6094 10.0156 234.4688 Z" stroke="none"/><path d="M16.7656 319 L16.7656 314.8906 L9.3125 314.8906 L9.3125 312.9531 L17.1406 301.8125 L18.875 301.8125 L18.875 312.9531 L21.1875 312.9531 L21.1875 314.8906 L18.875 314.8906 L18.875 319 L16.7656 319 ZM16.7656 312.9531 L16.7656 305.2031 L11.375 312.9531 L16.7656 312.9531 Z" stroke="none"/><path d="M10 394.5 L12.2188 394.3125 Q12.4531 395.9219 13.3516 396.7422 Q14.25 397.5625 15.5156 397.5625 Q17.0469 397.5625 18.1016 396.4141 Q19.1562 395.2656 19.1562 393.3594 Q19.1562 391.5625 18.1406 390.5156 Q17.125 389.4688 15.4844 389.4688 Q14.4688 389.4688 13.6484 389.9297 Q12.8281 390.3906 12.3594 391.1406 L10.375 390.875 L12.0312 382.0469 L20.5781 382.0469 L20.5781 384.0625 L13.7188 384.0625 L12.7969 388.6875 Q14.3438 387.6094 16.0469 387.6094 Q18.2969 387.6094 19.8438 389.1641 Q21.3906 390.7188 21.3906 393.1719 Q21.3906 395.5 20.0312 397.2031 Q18.375 399.2969 15.5156 399.2969 Q13.1719 399.2969 11.6875 397.9844 Q10.2031 396.6719 10 394.5 Z" stroke="none"/><path d="M20.9375 466.0312 L18.8438 466.1875 Q18.5625 464.9531 18.0469 464.3906 Q17.1875 463.4844 15.9375 463.4844 Q14.9375 463.4844 14.1719 464.0469 Q13.1719 464.7656 12.6016 466.1641 Q12.0312 467.5625 12 470.1406 Q12.7656 468.9844 13.8672 468.4219 Q14.9688 467.8594 16.1719 467.8594 Q18.2812 467.8594 19.7656 469.4062 Q21.25 470.9531 21.25 473.4219 Q21.25 475.0312 20.5547 476.4219 Q19.8594 477.8125 18.6406 478.5547 Q17.4219 479.2969 15.875 479.2969 Q13.2344 479.2969 11.5703 477.3516 Q9.9062 475.4062 9.9062 470.9531 Q9.9062 465.9844 11.75 463.7188 Q13.3438 461.75 16.0625 461.75 Q18.0938 461.75 19.3906 462.8828 Q20.6875 464.0156 20.9375 466.0312 ZM12.3281 473.4375 Q12.3281 474.5156 12.7891 475.5156 Q13.25 476.5156 14.0859 477.0391 Q14.9219 477.5625 15.8281 477.5625 Q17.1719 477.5625 18.1328 476.4844 Q19.0938 475.4062 19.0938 473.5469 Q19.0938 471.7656 18.1406 470.7422 Q17.1875 469.7188 15.75 469.7188 Q14.3281 469.7188 13.3281 470.7422 Q12.3281 471.7656 12.3281 473.4375 Z" stroke="none"/><path d="M10.1406 544.0625 L10.1406 542.0469 L21.2656 542.0469 L21.2656 543.6875 Q19.625 545.4219 18.0078 548.3203 Q16.3906 551.2188 15.5156 554.2812 Q14.8906 556.4375 14.7031 559 L12.5469 559 Q12.5781 556.9688 13.3359 554.1016 Q14.0938 551.2344 15.5234 548.5625 Q16.9531 545.8906 18.5469 544.0625 L10.1406 544.0625 Z" stroke="none"/><path d="M72.9375 24 L70.8281 24 L70.8281 10.5625 Q70.0781 11.2812 68.8359 12.0078 Q67.5938 12.7344 66.6094 13.0938 L66.6094 11.0625 Q68.3906 10.2344 69.7109 9.0469 Q71.0312 7.8594 71.5781 6.75 L72.9375 6.75 L72.9375 24 Z" stroke="none"/><path d="M156.0781 21.9688 L156.0781 24 L144.7344 24 Q144.7031 23.2344 144.9688 22.5312 Q145.4062 21.375 146.3594 20.25 Q147.3125 19.125 149.125 17.6406 Q151.9219 15.3438 152.9062 14.0078 Q153.8906 12.6719 153.8906 11.4688 Q153.8906 10.2188 152.9922 9.3594 Q152.0938 8.5 150.6562 8.5 Q149.1406 8.5 148.2266 9.4141 Q147.3125 10.3281 147.2969 11.9375 L145.125 11.7188 Q145.3438 9.2969 146.7969 8.0234 Q148.25 6.75 150.7031 6.75 Q153.1719 6.75 154.6172 8.1172 Q156.0625 9.4844 156.0625 11.5156 Q156.0625 12.5469 155.6406 13.5469 Q155.2188 14.5469 154.2422 15.6484 Q153.2656 16.75 150.9844 18.6719 Q149.0938 20.2656 148.5547 20.8281 Q148.0156 21.3906 147.6562 21.9688 L156.0781 21.9688 Z" stroke="none"/><path d="M225.0156 19.4688 L227.125 19.1875 Q227.4844 20.9688 228.3594 21.7656 Q229.2344 22.5625 230.4844 22.5625 Q231.9688 22.5625 232.9922 21.5312 Q234.0156 20.5 234.0156 18.9688 Q234.0156 17.5156 233.0703 16.5703 Q232.125 15.625 230.6562 15.625 Q230.0625 15.625 229.1719 15.8594 L229.4062 14.0156 Q229.6094 14.0312 229.75 14.0312 Q231.0938 14.0312 232.1719 13.3281 Q233.25 12.625 233.25 11.1719 Q233.25 10 232.4609 9.2422 Q231.6719 8.4844 230.4375 8.4844 Q229.2031 8.4844 228.3828 9.2578 Q227.5625 10.0312 227.3281 11.5781 L225.2188 11.2031 Q225.6094 9.0781 226.9766 7.9141 Q228.3438 6.75 230.3906 6.75 Q231.7969 6.75 232.9766 7.3516 Q234.1562 7.9531 234.7891 9 Q235.4219 10.0469 235.4219 11.2188 Q235.4219 12.3281 234.8203 13.2422 Q234.2188 14.1562 233.0469 14.6875 Q234.5781 15.0469 235.4219 16.1562 Q236.2656 17.2656 236.2656 18.9219 Q236.2656 21.1719 234.625 22.7422 Q232.9844 24.3125 230.4688 24.3125 Q228.2031 24.3125 226.7109 22.9609 Q225.2188 21.6094 225.0156 19.4688 Z" stroke="none"/><path d="M311.7656 24 L311.7656 19.8906 L304.3125 19.8906 L304.3125 17.9531 L312.1406 6.8125 L313.875 6.8125 L313.875 17.9531 L316.1875 17.9531 L316.1875 19.8906 L313.875 19.8906 L313.875 24 L311.7656 24 ZM311.7656 17.9531 L311.7656 10.2031 L306.375 17.9531 L311.7656 17.9531 Z" stroke="none"/><path d="M385 19.5 L387.2188 19.3125 Q387.4531 20.9219 388.3516 21.7422 Q389.25 22.5625 390.5156 22.5625 Q392.0469 22.5625 393.1016 21.4141 Q394.1562 20.2656 394.1562 18.3594 Q394.1562 16.5625 393.1406 15.5156 Q392.125 14.4688 390.4844 14.4688 Q389.4688 14.4688 388.6484 14.9297 Q387.8281 15.3906 387.3594 16.1406 L385.375 15.875 L387.0312 7.0469 L395.5781 7.0469 L395.5781 9.0625 L388.7188 9.0625 L387.7969 13.6875 Q389.3438 12.6094 391.0469 12.6094 Q393.2969 12.6094 394.8438 14.1641 Q396.3906 15.7188 396.3906 18.1719 Q396.3906 20.5 395.0312 22.2031 Q393.375 24.2969 390.5156 24.2969 Q388.1719 24.2969 386.6875 22.9844 Q385.2031 21.6719 385 19.5 Z" stroke="none"/><path d="M475.9375 11.0312 L473.8438 11.1875 Q473.5625 9.9531 473.0469 9.3906 Q472.1875 8.4844 470.9375 8.4844 Q469.9375 8.4844 469.1719 9.0469 Q468.1719 9.7656 467.6016 11.1641 Q467.0312 12.5625 467 15.1406 Q467.7656 13.9844 468.8672 13.4219 Q469.9688 12.8594 471.1719 12.8594 Q473.2812 12.8594 474.7656 14.4062 Q476.25 15.9531 476.25 18.4219 Q476.25 20.0312 475.5547 21.4219 Q474.8594 22.8125 473.6406 23.5547 Q472.4219 24.2969 470.875 24.2969 Q468.2344 24.2969 466.5703 22.3516 Q464.9062 20.4062 464.9062 15.9531 Q464.9062 10.9844 466.75 8.7188 Q468.3438 6.75 471.0625 6.75 Q473.0938 6.75 474.3906 7.8828 Q475.6875 9.0156 475.9375 11.0312 ZM467.3281 18.4375 Q467.3281 19.5156 467.7891 20.5156 Q468.25 21.5156 469.0859 22.0391 Q469.9219 22.5625 470.8281 22.5625 Q472.1719 22.5625 473.1328 21.4844 Q474.0938 20.4062 474.0938 18.5469 Q474.0938 16.7656 473.1406 15.7422 Q472.1875 14.7188 470.75 14.7188 Q469.3281 14.7188 468.3281 15.7422 Q467.3281 16.7656 467.3281 18.4375 Z" stroke="none"/><path d="M545.1406 9.0625 L545.1406 7.0469 L556.2656 7.0469 L556.2656 8.6875 Q554.625 10.4219 553.0078 13.3203 Q551.3906 16.2188 550.5156 19.2812 Q549.8906 21.4375 549.7031 24 L547.5469 24 Q547.5781 21.9688 548.3359 19.1016 Q549.0938 16.2344 550.5234 13.5625 Q551.9531 10.8906 553.5469 9.0625 L545.1406 9.0625 Z" stroke="none"/></g><g fill="rgb(30,144,255)" font-size="24px" font-family="'Arial'" stroke="rgb(30,144,255)"><circle r="16" clip-path="url(#clipPath1)" cx="54" cy="54" stroke="none"/><circle fill="none" r="16" clip-path="url(#clipPath1)" cx="54" cy="54" stroke="black"/><path fill="black" d="M38.9688 63 L45.8438 45.1094 L48.3906 45.1094 L55.7188 63 L53.0156 63 L50.9219 57.5781 L43.4375 57.5781 L41.4844 63 L38.9688 63 ZM44.125 55.6562 L50.1875 55.6562 L48.3281 50.6875 Q47.4688 48.4375 47.0625 46.9844 Q46.7188 48.7031 46.0938 50.4062 L44.125 55.6562 ZM64.9873 63 L62.7842 63 L62.7842 49 Q62.0029 49.75 60.7139 50.5078 Q59.4248 51.2656 58.3936 51.6406 L58.3936 49.5156 Q60.2373 48.6562 61.6201 47.4219 Q63.0029 46.1875 63.5654 45.0312 L64.9873 45.0312 L64.9873 63 Z" clip-path="url(#clipPath2)" stroke="none"/><circle fill="rgb(144,238,144)" r="16" clip-path="url(#clipPath3)" cx="534" cy="534" stroke="none"/><circle fill="none" r="16" clip-path="url(#clipPath3)" cx="534" cy="534" stroke="black"/><path fill="black" d="M521.6875 542 L521.6875 525.5312 L527.8594 525.5312 Q529.75 525.5312 530.8906 526.0312 Q532.0312 526.5312 532.6719 527.5703 Q533.3125 528.6094 533.3125 529.75 Q533.3125 530.7969 532.7422 531.7344 Q532.1719 532.6719 531.0156 533.2344 Q532.5156 533.6719 533.3125 534.7344 Q534.1094 535.7969 534.1094 537.2344 Q534.1094 538.3906 533.625 539.3828 Q533.1406 540.375 532.4219 540.9141 Q531.7031 541.4531 530.6172 541.7266 Q529.5312 542 527.9688 542 L521.6875 542 ZM523.8594 532.4531 L527.4219 532.4531 Q528.875 532.4531 529.5 532.2656 Q530.3281 532.0156 530.75 531.4453 Q531.1719 530.875 531.1719 530 Q531.1719 529.1875 530.7812 528.5625 Q530.3906 527.9375 529.6562 527.7109 Q528.9219 527.4844 527.1562 527.4844 L523.8594 527.4844 L523.8594 532.4531 ZM523.8594 540.0625 L527.9688 540.0625 Q529.0156 540.0625 529.4375 539.9844 Q530.2031 539.8438 530.7031 539.5312 Q531.2031 539.2188 531.5312 538.6172 Q531.8594 538.0156 531.8594 537.2344 Q531.8594 536.3125 531.3906 535.6328 Q530.9219 534.9531 530.0859 534.6719 Q529.25 534.3906 527.6719 534.3906 L523.8594 534.3906 L523.8594 540.0625 ZM543.9033 542 L541.8877 542 L541.8877 529.125 Q541.1533 529.8125 539.9736 530.5078 Q538.7939 531.2031 537.8408 531.5625 L537.8408 529.5938 Q539.5439 528.7969 540.8096 527.6641 Q542.0752 526.5312 542.6064 525.4688 L543.9033 525.4688 L543.9033 542 Z" clip-path="url(#clipPath4)" stroke="none"/><circle fill="rgb(250,128,114)" r="16" clip-path="url(#clipPath5)" cx="534" cy="54" stroke="none"/><circle fill="none" r="16" clip-path="url(#clipPath5)" cx="534" cy="54" stroke="black"/><path fill="black" d="M532.5156 56.2344 L534.7031 56.7812 Q534.0156 59.4688 532.2344 60.875 Q530.4531 62.2812 527.8906 62.2812 Q525.2188 62.2812 523.5547 61.1953 Q521.8906 60.1094 521.0156 58.0547 Q520.1406 56 520.1406 53.6406 Q520.1406 51.0781 521.125 49.1641 Q522.1094 47.25 523.9219 46.25 Q525.7344 45.25 527.9219 45.25 Q530.3906 45.25 532.0703 46.5078 Q533.75 47.7656 534.4219 50.0469 L532.2812 50.5625 Q531.7031 48.7656 530.6094 47.9453 Q529.5156 47.125 527.875 47.125 Q525.9688 47.125 524.6953 48.0312 Q523.4219 48.9375 522.9062 50.4688 Q522.3906 52 522.3906 53.6406 Q522.3906 55.7344 523 57.2969 Q523.6094 58.8594 524.9062 59.6406 Q526.2031 60.4219 527.7031 60.4219 Q529.5312 60.4219 530.8047 59.3672 Q532.0781 58.3125 532.5156 56.2344 ZM544.1724 62 L542.1567 62 L542.1567 49.125 Q541.4224 49.8125 540.2427 50.5078 Q539.063 51.2031 538.1099 51.5625 L538.1099 49.5938 Q539.813 48.7969 541.0786 47.6641 Q542.3442 46.5312 542.8755 45.4688 L544.1724 45.4688 L544.1724 62 Z" clip-path="url(#clipPath6)" stroke="none"/><circle fill="rgb(238,130,238)" r="16" clip-path="url(#clipPath7)" cx="54" cy="534" stroke="none"/><circle fill="none" r="16" clip-path="url(#clipPath7)" cx="54" cy="534" stroke="black"/><path fill="black" d="M40.7812 542 L40.7812 525.5312 L46.4531 525.5312 Q48.3594 525.5312 49.375 525.7656 Q50.7969 526.0938 51.7969 526.9531 Q53.0938 528.0469 53.7422 529.7656 Q54.3906 531.4844 54.3906 533.6719 Q54.3906 535.5469 53.9531 537 Q53.5156 538.4531 52.8281 539.3984 Q52.1406 540.3438 51.3281 540.8906 Q50.5156 541.4375 49.3594 541.7188 Q48.2031 542 46.7188 542 L40.7812 542 ZM42.9531 540.0625 L46.4688 540.0625 Q48.0938 540.0625 49.0234 539.7578 Q49.9531 539.4531 50.5 538.9062 Q51.2812 538.125 51.7109 536.8203 Q52.1406 535.5156 52.1406 533.6406 Q52.1406 531.0625 51.2891 529.6719 Q50.4375 528.2812 49.2344 527.8125 Q48.3594 527.4844 46.4062 527.4844 L42.9531 527.4844 L42.9531 540.0625 ZM64.1724 542 L62.1567 542 L62.1567 529.125 Q61.4224 529.8125 60.2427 530.5078 Q59.063 531.2031 58.1099 531.5625 L58.1099 529.5938 Q59.813 528.7969 61.0786 527.6641 Q62.3442 526.5312 62.8755 525.4688 L64.1724 525.4688 L64.1724 542 Z" clip-path="url(#clipPath8)" stroke="none"/><circle fill="yellow" r="16" clip-path="url(#clipPath9)" cx="54" cy="294" stroke="none"/><circle fill="none" r="16" clip-path="url(#clipPath9)" cx="54" cy="294" stroke="black"/><path fill="black" d="M41.8125 302 L41.8125 285.5312 L53.7188 285.5312 L53.7188 287.4844 L44 287.4844 L44 292.5156 L53.1094 292.5156 L53.1094 294.4531 L44 294.4531 L44 300.0625 L54.1094 300.0625 L54.1094 302 L41.8125 302 ZM63.9033 302 L61.8877 302 L61.8877 289.125 Q61.1533 289.8125 59.9736 290.5078 Q58.7939 291.2031 57.8408 291.5625 L57.8408 289.5938 Q59.5439 288.7969 60.8096 287.6641 Q62.0752 286.5312 62.6064 285.4688 L63.9033 285.4688 L63.9033 302 Z" clip-path="url(#clipPath10)" stroke="none"/><circle fill="rgb(255,165,0)" r="16" clip-path="url(#clipPath11)" cx="534" cy="294" stroke="none"/><circle fill="none" r="16" clip-path="url(#clipPath11)" cx="534" cy="294" stroke="black"/><path fill="black" d="M522.0469 303 L522.0469 285.1094 L534.125 285.1094 L534.125 287.2188 L524.4219 287.2188 L524.4219 292.7656 L532.8125 292.7656 L532.8125 294.875 L524.4219 294.875 L524.4219 303 L522.0469 303 ZM544.5835 303 L542.3804 303 L542.3804 289 Q541.5991 289.75 540.3101 290.5078 Q539.021 291.2656 537.9897 291.6406 L537.9897 289.5156 Q539.8335 288.6562 541.2163 287.4219 Q542.5991 286.1875 543.1616 285.0312 L544.5835 285.0312 L544.5835 303 Z" clip-path="url(#clipPath12)" stroke="none"/><circle fill="rgb(173,255,47)" r="16" clip-path="url(#clipPath13)" cx="310" cy="70" stroke="none"/><circle fill="none" r="16" clip-path="url(#clipPath13)" cx="310" cy="70" stroke="black"/><path fill="black" d="M304.6562 72.1094 L304.6562 70.3438 L311.0156 70.3281 L311.0156 75.9062 Q309.5625 77.0781 308 77.6641 Q306.4375 78.25 304.7969 78.25 Q302.5781 78.25 300.7734 77.3047 Q298.9688 76.3594 298.0469 74.5625 Q297.125 72.7656 297.125 70.5625 Q297.125 68.3594 298.0391 66.4609 Q298.9531 64.5625 300.6797 63.6406 Q302.4062 62.7188 304.6406 62.7188 Q306.2812 62.7188 307.5938 63.2422 Q308.9062 63.7656 309.6562 64.7109 Q310.4062 65.6562 310.7969 67.1719 L309 67.6562 Q308.6562 66.5156 308.1562 65.8594 Q307.6562 65.2031 306.7266 64.8047 Q305.7969 64.4062 304.6562 64.4062 Q303.2969 64.4062 302.2969 64.8281 Q301.2969 65.25 300.6875 65.9219 Q300.0781 66.5938 299.75 67.4062 Q299.1719 68.7969 299.1719 70.4375 Q299.1719 72.4375 299.8594 73.7969 Q300.5469 75.1562 301.875 75.8125 Q303.2031 76.4688 304.6875 76.4688 Q305.9844 76.4688 307.2109 75.9688 Q308.4375 75.4688 309.0781 74.9062 L309.0781 72.1094 L304.6562 72.1094 ZM320.1626 78 L318.3188 78 L318.3188 66.2344 Q317.647 66.875 316.561 67.5078 Q315.4751 68.1406 314.6157 68.4688 L314.6157 66.6719 Q316.1626 65.9531 317.3267 64.9141 Q318.4907 63.875 318.9751 62.9062 L320.1626 62.9062 L320.1626 78 Z" clip-path="url(#clipPath14)" stroke="none"/><circle r="16" clip-path="url(#clipPath15)" cx="566" cy="566" stroke="none"/><circle fill="none" r="16" clip-path="url(#clipPath15)" cx="566" cy="566" stroke="black"/><path fill="black" d="M550.9688 575 L557.8438 557.1094 L560.3906 557.1094 L567.7188 575 L565.0156 575 L562.9219 569.5781 L555.4375 569.5781 L553.4844 575 L550.9688 575 ZM556.125 567.6562 L562.1875 567.6562 L560.3281 562.6875 Q559.4688 560.4375 559.0625 558.9844 Q558.7188 560.7031 558.0938 562.4062 L556.125 567.6562 ZM580.2529 572.8906 L580.2529 575 L568.4248 575 Q568.4092 574.2031 568.6904 573.4688 Q569.1436 572.2656 570.1357 571.0938 Q571.1279 569.9219 573.0029 568.3906 Q575.9248 565.9844 576.9482 564.5938 Q577.9717 563.2031 577.9717 561.9531 Q577.9717 560.6406 577.042 559.7422 Q576.1123 558.8438 574.6123 558.8438 Q573.0186 558.8438 572.0654 559.7969 Q571.1123 560.75 571.1123 562.4375 L568.8467 562.2031 Q569.0811 559.6875 570.5967 558.3594 Q572.1123 557.0312 574.6592 557.0312 Q577.2373 557.0312 578.7373 558.4609 Q580.2373 559.8906 580.2373 562 Q580.2373 563.0781 579.7998 564.1172 Q579.3623 565.1562 578.3389 566.2969 Q577.3154 567.4375 574.9561 569.4531 Q572.9717 571.1094 572.4092 571.7031 Q571.8467 572.2969 571.4873 572.8906 L580.2529 572.8906 Z" clip-path="url(#clipPath16)" stroke="none"/><circle fill="rgb(144,238,144)" r="16" clip-path="url(#clipPath17)" cx="86" cy="86" stroke="none"/><circle fill="none" r="16" clip-path="url(#clipPath17)" cx="86" cy="86" stroke="black"/><path fill="black" d="M73.6875 94 L73.6875 77.5312 L79.8594 77.5312 Q81.75 77.5312 82.8906 78.0312 Q84.0312 78.5312 84.6719 79.5703 Q85.3125 80.6094 85.3125 81.75 Q85.3125 82.7969 84.7422 83.7344 Q84.1719 84.6719 83.0156 85.2344 Q84.5156 85.6719 85.3125 86.7344 Q86.1094 87.7969 86.1094 89.2344 Q86.1094 90.3906 85.625 91.3828 Q85.1406 92.375 84.4219 92.9141 Q83.7031 93.4531 82.6172 93.7266 Q81.5312 94 79.9688 94 L73.6875 94 ZM75.8594 84.4531 L79.4219 84.4531 Q80.875 84.4531 81.5 84.2656 Q82.3281 84.0156 82.75 83.4453 Q83.1719 82.875 83.1719 82 Q83.1719 81.1875 82.7812 80.5625 Q82.3906 79.9375 81.6562 79.7109 Q80.9219 79.4844 79.1562 79.4844 L75.8594 79.4844 L75.8594 84.4531 ZM75.8594 92.0625 L79.9688 92.0625 Q81.0156 92.0625 81.4375 91.9844 Q82.2031 91.8438 82.7031 91.5312 Q83.2031 91.2188 83.5312 90.6172 Q83.8594 90.0156 83.8594 89.2344 Q83.8594 88.3125 83.3906 87.6328 Q82.9219 86.9531 82.0859 86.6719 Q81.25 86.3906 79.6719 86.3906 L75.8594 86.3906 L75.8594 92.0625 ZM98.9189 92.0625 L98.9189 94 L88.0439 94 Q88.0127 93.2656 88.2783 92.5938 Q88.6846 91.4844 89.5986 90.4062 Q90.5127 89.3281 92.2471 87.9062 Q94.9346 85.7188 95.8799 84.4297 Q96.8252 83.1406 96.8252 82 Q96.8252 80.7969 95.9658 79.9688 Q95.1064 79.1406 93.7158 79.1406 Q92.2627 79.1406 91.3877 80.0156 Q90.5127 80.8906 90.4971 82.4375 L88.4189 82.2344 Q88.6377 79.9062 90.0283 78.6875 Q91.4189 77.4688 93.7627 77.4688 Q96.1377 77.4688 97.5205 78.7812 Q98.9033 80.0938 98.9033 82.0469 Q98.9033 83.0312 98.4971 83.9844 Q98.0908 84.9375 97.1533 85.9922 Q96.2158 87.0469 94.0283 88.8906 Q92.2158 90.4219 91.7002 90.9609 Q91.1846 91.5 90.8408 92.0625 L98.9189 92.0625 Z" clip-path="url(#clipPath18)" stroke="none"/><circle fill="rgb(250,128,114)" r="16" clip-path="url(#clipPath19)" cx="86" cy="566" stroke="none"/><circle fill="none" r="16" clip-path="url(#clipPath19)" cx="86" cy="566" stroke="black"/><path fill="black" d="M84.5156 568.2344 L86.7031 568.7812 Q86.0156 571.4688 84.2344 572.875 Q82.4531 574.2812 79.8906 574.2812 Q77.2188 574.2812 75.5547 573.1953 Q73.8906 572.1094 73.0156 570.0547 Q72.1406 568 72.1406 565.6406 Q72.1406 563.0781 73.125 561.1641 Q74.1094 559.25 75.9219 558.25 Q77.7344 557.25 79.9219 557.25 Q82.3906 557.25 84.0703 558.5078 Q85.75 559.7656 86.4219 562.0469 L84.2812 562.5625 Q83.7031 560.7656 82.6094 559.9453 Q81.5156 559.125 79.875 559.125 Q77.9688 559.125 76.6953 560.0312 Q75.4219 560.9375 74.9062 562.4688 Q74.3906 564 74.3906 565.6406 Q74.3906 567.7344 75 569.2969 Q75.6094 570.8594 76.9062 571.6406 Q78.2031 572.4219 79.7031 572.4219 Q81.5312 572.4219 82.8047 571.3672 Q84.0781 570.3125 84.5156 568.2344 ZM99.188 572.0625 L99.188 574 L88.313 574 Q88.2817 573.2656 88.5474 572.5938 Q88.9536 571.4844 89.8677 570.4062 Q90.7817 569.3281 92.5161 567.9062 Q95.2036 565.7188 96.1489 564.4297 Q97.0942 563.1406 97.0942 562 Q97.0942 560.7969 96.2349 559.9688 Q95.3755 559.1406 93.9849 559.1406 Q92.5317 559.1406 91.6567 560.0156 Q90.7817 560.8906 90.7661 562.4375 L88.688 562.2344 Q88.9067 559.9062 90.2974 558.6875 Q91.688 557.4688 94.0317 557.4688 Q96.4067 557.4688 97.7896 558.7812 Q99.1724 560.0938 99.1724 562.0469 Q99.1724 563.0312 98.7661 563.9844 Q98.3599 564.9375 97.4224 565.9922 Q96.4849 567.0469 94.2974 568.8906 Q92.4849 570.4219 91.9692 570.9609 Q91.4536 571.5 91.1099 572.0625 L99.188 572.0625 Z" clip-path="url(#clipPath20)" stroke="none"/><circle fill="rgb(238,130,238)" r="16" clip-path="url(#clipPath21)" cx="566" cy="86" stroke="none"/><circle fill="none" r="16" clip-path="url(#clipPath21)" cx="566" cy="86" stroke="black"/><path fill="black" d="M552.7812 94 L552.7812 77.5312 L558.4531 77.5312 Q560.3594 77.5312 561.375 77.7656 Q562.7969 78.0938 563.7969 78.9531 Q565.0938 80.0469 565.7422 81.7656 Q566.3906 83.4844 566.3906 85.6719 Q566.3906 87.5469 565.9531 89 Q565.5156 90.4531 564.8281 91.3984 Q564.1406 92.3438 563.3281 92.8906 Q562.5156 93.4375 561.3594 93.7188 Q560.2031 94 558.7188 94 L552.7812 94 ZM554.9531 92.0625 L558.4688 92.0625 Q560.0938 92.0625 561.0234 91.7578 Q561.9531 91.4531 562.5 90.9062 Q563.2812 90.125 563.7109 88.8203 Q564.1406 87.5156 564.1406 85.6406 Q564.1406 83.0625 563.2891 81.6719 Q562.4375 80.2812 561.2344 79.8125 Q560.3594 79.4844 558.4062 79.4844 L554.9531 79.4844 L554.9531 92.0625 ZM579.188 92.0625 L579.188 94 L568.313 94 Q568.2817 93.2656 568.5474 92.5938 Q568.9536 91.4844 569.8677 90.4062 Q570.7817 89.3281 572.5161 87.9062 Q575.2036 85.7188 576.1489 84.4297 Q577.0942 83.1406 577.0942 82 Q577.0942 80.7969 576.2349 79.9688 Q575.3755 79.1406 573.9849 79.1406 Q572.5317 79.1406 571.6567 80.0156 Q570.7817 80.8906 570.7661 82.4375 L568.688 82.2344 Q568.9067 79.9062 570.2974 78.6875 Q571.688 77.4688 574.0317 77.4688 Q576.4067 77.4688 577.7896 78.7812 Q579.1724 80.0938 579.1724 82.0469 Q579.1724 83.0312 578.7661 83.9844 Q578.3599 84.9375 577.4224 85.9922 Q576.4849 87.0469 574.2974 88.8906 Q572.4849 90.4219 571.9692 90.9609 Q571.4536 91.5 571.1099 92.0625 L579.188 92.0625 Z" clip-path="url(#clipPath22)" stroke="none"/><circle fill="yellow" r="16" clip-path="url(#clipPath23)" cx="566" cy="326" stroke="none"/><circle fill="none" r="16" clip-path="url(#clipPath23)" cx="566" cy="326" stroke="black"/><path fill="black" d="M553.8125 334 L553.8125 317.5312 L565.7188 317.5312 L565.7188 319.4844 L556 319.4844 L556 324.5156 L565.1094 324.5156 L565.1094 326.4531 L556 326.4531 L556 332.0625 L566.1094 332.0625 L566.1094 334 L553.8125 334 ZM578.9189 332.0625 L578.9189 334 L568.0439 334 Q568.0127 333.2656 568.2783 332.5938 Q568.6846 331.4844 569.5986 330.4062 Q570.5127 329.3281 572.2471 327.9062 Q574.9346 325.7188 575.8799 324.4297 Q576.8252 323.1406 576.8252 322 Q576.8252 320.7969 575.9658 319.9688 Q575.1064 319.1406 573.7158 319.1406 Q572.2627 319.1406 571.3877 320.0156 Q570.5127 320.8906 570.4971 322.4375 L568.4189 322.2344 Q568.6377 319.9062 570.0283 318.6875 Q571.4189 317.4688 573.7627 317.4688 Q576.1377 317.4688 577.5205 318.7812 Q578.9033 320.0938 578.9033 322.0469 Q578.9033 323.0312 578.4971 323.9844 Q578.0908 324.9375 577.1533 325.9922 Q576.2158 327.0469 574.0283 328.8906 Q572.2158 330.4219 571.7002 330.9609 Q571.1846 331.5 570.8408 332.0625 L578.9189 332.0625 Z" clip-path="url(#clipPath24)" stroke="none"/><circle fill="rgb(255,165,0)" r="16" clip-path="url(#clipPath25)" cx="86" cy="326" stroke="none"/><circle fill="none" r="16" clip-path="url(#clipPath25)" cx="86" cy="326" stroke="black"/><path fill="black" d="M74.0469 335 L74.0469 317.1094 L86.125 317.1094 L86.125 319.2188 L76.4219 319.2188 L76.4219 324.7656 L84.8125 324.7656 L84.8125 326.875 L76.4219 326.875 L76.4219 335 L74.0469 335 ZM99.8491 332.8906 L99.8491 335 L88.021 335 Q88.0054 334.2031 88.2866 333.4688 Q88.7397 332.2656 89.7319 331.0938 Q90.7241 329.9219 92.5991 328.3906 Q95.521 325.9844 96.5444 324.5938 Q97.5679 323.2031 97.5679 321.9531 Q97.5679 320.6406 96.6382 319.7422 Q95.7085 318.8438 94.2085 318.8438 Q92.6147 318.8438 91.6616 319.7969 Q90.7085 320.75 90.7085 322.4375 L88.4429 322.2031 Q88.6772 319.6875 90.1929 318.3594 Q91.7085 317.0312 94.2554 317.0312 Q96.8335 317.0312 98.3335 318.4609 Q99.8335 319.8906 99.8335 322 Q99.8335 323.0781 99.396 324.1172 Q98.9585 325.1562 97.9351 326.2969 Q96.9116 327.4375 94.5522 329.4531 Q92.5679 331.1094 92.0054 331.7031 Q91.4429 332.2969 91.0835 332.8906 L99.8491 332.8906 Z" clip-path="url(#clipPath26)" stroke="none"/><circle fill="rgb(173,255,47)" r="16" clip-path="url(#clipPath27)" cx="310" cy="550" stroke="none"/><circle fill="none" r="16" clip-path="url(#clipPath27)" cx="310" cy="550" stroke="black"/><path fill="black" d="M304.6562 552.1094 L304.6562 550.3438 L311.0156 550.3281 L311.0156 555.9062 Q309.5625 557.0781 308 557.6641 Q306.4375 558.25 304.7969 558.25 Q302.5781 558.25 300.7734 557.3047 Q298.9688 556.3594 298.0469 554.5625 Q297.125 552.7656 297.125 550.5625 Q297.125 548.3594 298.0391 546.4609 Q298.9531 544.5625 300.6797 543.6406 Q302.4062 542.7188 304.6406 542.7188 Q306.2812 542.7188 307.5938 543.2422 Q308.9062 543.7656 309.6562 544.7109 Q310.4062 545.6562 310.7969 547.1719 L309 547.6562 Q308.6562 546.5156 308.1562 545.8594 Q307.6562 545.2031 306.7266 544.8047 Q305.7969 544.4062 304.6562 544.4062 Q303.2969 544.4062 302.2969 544.8281 Q301.2969 545.25 300.6875 545.9219 Q300.0781 546.5938 299.75 547.4062 Q299.1719 548.7969 299.1719 550.4375 Q299.1719 552.4375 299.8594 553.7969 Q300.5469 555.1562 301.875 555.8125 Q303.2031 556.4688 304.6875 556.4688 Q305.9844 556.4688 307.2109 555.9688 Q308.4375 555.4688 309.0781 554.9062 L309.0781 552.1094 L304.6562 552.1094 ZM322.9126 556.2188 L322.9126 558 L312.9751 558 Q312.9438 557.3281 313.1782 556.7188 Q313.5688 555.7031 314.4048 554.7188 Q315.2407 553.7344 316.8188 552.4375 Q319.272 550.4375 320.1313 549.2578 Q320.9907 548.0781 320.9907 547.0312 Q320.9907 545.9375 320.2017 545.1875 Q319.4126 544.4375 318.1626 544.4375 Q316.8188 544.4375 316.022 545.2344 Q315.2251 546.0312 315.2095 547.4531 L313.3188 547.25 Q313.5063 545.125 314.7798 544.0156 Q316.0532 542.9062 318.1938 542.9062 Q320.3657 542.9062 321.6235 544.1094 Q322.8813 545.3125 322.8813 547.0781 Q322.8813 547.9844 322.5142 548.8516 Q322.147 549.7188 321.2876 550.6875 Q320.4282 551.6562 318.4438 553.3281 Q316.7876 554.7344 316.311 555.2266 Q315.8345 555.7188 315.5376 556.2188 L322.9126 556.2188 Z" clip-path="url(#clipPath28)" stroke="none"/></g></g></svg>