<?xml version="1.0" encoding="UTF-8"?><svg xmlns="http://www.w3.org/2000/svg" xmlns:xlink="http://www.w3.org/1999/xlink" stroke-dasharray="none" shape-rendering="auto" font-family="'Dialog'" width="591" text-rendering="auto" fill-opacity="1" contentScriptType="text/ecmascript" color-interpolation="auto" color-rendering="auto" preserveAspectRatio="xMidYMid meet" font-size="12px" fill="black" stroke="black" image-rendering="auto" stroke-miterlimit="10" zoomAndPan="magnify" version="1.0" stroke-linecap="square" stroke-linejoin="miter" contentStyleType="text/css" font-style="normal" height="591" stroke-width="1" stroke-dashoffset="0" font-weight="normal" stroke-opacity="1"><!--Generated by the Batik Graphics2D SVG Generator--><defs id="genericDefs"/><g><defs id="defs1"><clipPath clipPathUnits="userSpaceOnUse" id="clipPath1"><path d="M33 33 L75 33 L75 75 L33 75 L33 33 Z"/></clipPath><clipPath clipPathUnits="userSpaceOnUse" id="clipPath2"><path d="M74 54 C74 65.0457 65.0457 74 54 74 C42.9543 74 34 65.0457 34 54 C34 42.9543 42.9543 34 54 34 C65.0457 34 74 42.9543 74 54 Z"/></clipPath><clipPath clipPathUnits="userSpaceOnUse" id="clipPath3"><path d="M513 513 L555 513 L555 555 L513 555 L513 513 Z"/></clipPath><clipPath clipPathUnits="userSpaceOnUse" id="clipPath4"><path d="M554 534 C554 545.0457 545.0457 554 534 554 C522.9543 554 514 545.0457 514 534 C514 522.9543 522.9543 514 534 514 C545.0457 514 554 522.9543 554 534 Z"/></clipPath><clipPath clipPathUnits="userSpaceOnUse" id="clipPath5"><path d="M513 33 L555 33 L555 75 L513 75 L513 33 Z"/></clipPath><clipPath clipPathUnits="userSpaceOnUse" id="clipPath6"><path d="M554 54 C554 65.0457 545.0457 74 534 74 C522.9543 74 514 65.0457 514 54 C514 42.9543 522.9543 34 534 34 C545.0457 34 554 42.9543 554 54 Z"/></clipPath><clipPath clipPathUnits="userSpaceOnUse" id="clipPath7"><path d="M33 513 L75 513 L75 555 L33 555 L33 513 Z"/></clipPath><clipPath clipPathUnits="userSpaceOnUse" id="clipPath8"><path d="M74 534 C74 545.0457 65.0457 554 54 554 C42.9543 554 34 545.0457 34 534 C34 522.9543 42.9543 514 54 514 C65.0457 514 74 522.9543 74 534 Z"/></clipPath><clipPath clipPathUnits="userSpaceOnUse" id="clipPath9"><path d="M33 273 L75 273 L75 315 L33 315 L33 273 Z"/></clipPath><clipPath clipPathUnits="userSpaceOnUse" id="clipPath10"><path d="M74 294 C74 305.0457 65.0457 314 54 314 C42.9543 314 34 305.0457 34 294 C34 282.9543 42.9543 274 54 274 C65.0457 274 74 282.9543 74 294 Z"/></clipPath><clipPath clipPathUnits="userSpaceOnUse" id="clipPath11"><path d="M513 273 L555 273 L555 315 L513 315 L513 273 Z"/></clipPath><clipPath clipPathUnits="userSpaceOnUse" id="clipPath12"><path d="M554 294 C554 305.0457 545.0457 314 534 314 C522.9543 314 514 305.0457 514 294 C514 282.9543 522.9543 274 534 274 C545.0457 274 554 282.9543 554 294 Z"/></clipPath><clipPath clipPathUnits="userSpaceOnUse" id="clipPath13"><path d="M289 49 L331 49 L331 91 L289 91 L289 49 Z"/></clipPath><clipPath clipPathUnits="userSpaceOnUse" id="clipPath14"><path d="M330 70 C330 81.0457 321.0457 90 310 90 C298.9543 90 290 81.0457 290 70 C290 58.9543 298.9543 50 310 50 C321.0457 50 330 58.9543 330 70 Z"/></clipPath><clipPath clipPathUnits="userSpaceOnUse" id="clipPath15"><path d="M545 545 L587 545 L587 587 L545 587 L545 545 Z"/></clipPath><clipPath clipPathUnits="userSpaceOnUse" id="clipPath16"><path d="M586 566 C586 577.0457 577.0457 586 566 586 C554.9543 586 546 577.0457 546 566 C546 554.9543 554.9543 546 566 546 C577.0457 546 586 554.9543 586 566 Z"/></clipPath><clipPath clipPathUnits="userSpaceOnUse" id="clipPath17"><path d="M65 65 L107 65 L107 107 L65 107 L65 65 Z"/></clipPath><clipPath clipPathUnits="userSpaceOnUse" id="clipPath18"><path d="M106 86 C106 97.0457 97.0457 106 86 106 C74.9543 106 66 97.0457 66 86 C66 74.9543 74.9543 66 86 66 C97.0457 66 106 74.9543 106 86 Z"/></clipPath><clipPath clipPathUnits="userSpaceOnUse" id="clipPath19"><path d="M65 545 L107 545 L107 587 L65 587 L65 545 Z"/></clipPath><clipPath clipPathUnits="userSpaceOnUse" id="clipPath20"><path d="M106 566 C106 577.0457 97.0457 586 86 586 C74.9543 586 66 577.0457 66 566 C66 554.9543 74.9543 546 86 546 C97.0457 546 106 554.9543 106 566 Z"/></clipPath><clipPath clipPathUnits="userSpaceOnUse" id="clipPath21"><path d="M545 65 L587 65 L587 107 L545 107 L545 65 Z"/></clipPath><clipPath clipPathUnits="userSpaceOnUse" id="clipPath22"><path d="M586 86 C586 97.0457 577.0457 106 566 106 C554.9543 106 546 97.0457 546 86 C546 74.9543 554.9543 66 566 66 C577.0457 66 586 74.9543 586 86 Z"/></clipPath><clipPath clipPathUnits="userSpaceOnUse" id="clipPath23"><path d="M545 305 L587 305 L587 347 L545 347 L545 305 Z"/></clipPath><clipPath clipPathUnits="userSpaceOnUse" id="clipPath24"><path d="M586 326 C586 337.0457 577.0457 346 566 346 C554.9543 346 546 337.0457 546 326 C546 314.9543 554.9543 306 566 306 C577.0457 306 586 314.9543 586 326 Z"/></clipPath><clipPath clipPathUnits="userSpaceOnUse" id="clipPath25"><path d="M65 305 L107 305 L107 347 L65 347 L65 305 Z"/></clipPath><clipPath clipPathUnits="userSpaceOnUse" id="clipPath26"><path d="M106 326 C106 337.0457 97.0457 346 86 346 C74.9543 346 66 337.0457 66 326 C66 314.9543 74.9543 306 86 306 C97.0457 306 106 314.9543 106 326 Z"/></clipPath><clipPath clipPathUnits="userSpaceOnUse" id="clipPath27"><path d="M289 529 L331 529 L331 571 L289 571 L289 529 Z"/></clipPath><clipPath clipPathUnits="userSpaceOnUse" id="clipPath28"><path d="M330 550 C330 561.0457 321.0457 570 310 570 C298.9543 570 290 561.0457 290 550 C290 538.9543 298.9543 530 310 530 C321.0457 530 330 538.9543 330 550 Z"/></clipPath></defs><g><line y2="30" fill="none" x1="30" x2="590" y1="30"/><line y2="110" fill="none" x1="30" x2="590" y1="110"/><line y2="190" fill="none" x1="30" x2="590" y1="190"/><line y2="270" fill="none" x1="30" x2="590" y1="270"/><line y2="350" fill="none" x1="30" x2="590" y1="350"/><line y2="430" fill="none" x1="30" x2="590" y1="430"/><line y2="510" fill="none" x1="30" x2="590" y1="510"/><line y2="590" fill="none" x1="30" x2="590" y1="590"/><line y2="590" fill="none" x1="30" x2="30" y1="30"/><line y2="590" fill="none" x1="110" x2="110" y1="30"/><line y2="590" fill="none" x1="190" x2="190" y1="30"/><line y2="590" fill="none" x1="270" x2="270" y1="30"/><line y2="590" fill="none" x1="350" x2="350" y1="30"/><line y2="590" fill="none" x1="430" x2="430" y1="30"/><line y2="590" fill="none" x1="510" x2="510" y1="30"/><line y2="590" fill="none" x1="590" x2="590" y1="30"/><path d="M17.9375 79 L15.8281 79 L15.8281 65.5625 Q15.0781 66.2812 13.8359 67.0078 Q12.5938 67.7344 11.6094 68.0938 L11.6094 66.0625 Q13.3906 65.2344 14.7109 64.0469 Q16.0312 62.8594 16.5781 61.75 L17.9375 61.75 L17.9375 79 Z" stroke="none"/><path d="M21.0781 156.9688 L21.0781 159 L9.7344 159 Q9.7031 158.2344 9.9688 157.5312 Q10.4062 156.375 11.3594 155.25 Q12.3125 154.125 14.125 152.6406 Q16.9219 150.3438 17.9062 149.0078 Q18.8906 147.6719 18.8906 146.4688 Q18.8906 145.2188 17.9922 144.3594 Q17.0938 143.5 15.6562 143.5 Q14.1406 143.5 13.2266 144.4141 Q12.3125 145.3281 12.2969 146.9375 L10.125 146.7188 Q10.3438 144.2969 11.7969 143.0234 Q13.25 141.75 15.7031 141.75 Q18.1719 141.75 19.6172 143.1172 Q21.0625 144.4844 21.0625 146.5156 Q21.0625 147.5469 20.6406 148.5469 Q20.2188 149.5469 19.2422 150.6484 Q18.2656 151.75 15.9844 153.6719 Q14.0938 155.2656 13.5547 155.8281 Q13.0156 156.3906 12.6562 156.9688 L21.0781 156.9688 Z" stroke="none"/><path d="M10.0156 234.4688 L12.125 234.1875 Q12.4844 235.9688 13.3594 236.7656 Q14.2344 237.5625 15.4844 237.5625 Q16.9688 237.5625 17.9922 236.5312 Q19.0156 235.5 19.0156 233.9688 Q19.0156 232.5156 18.0703 231.5703 Q17.125 230.625 15.6562 230.625 Q15.0625 230.625 14.1719 230.8594 L14.4062 229.0156 Q14.6094 229.0312 14.75 229.0312 Q16.0938 229.0312 17.1719 228.3281 Q18.25 227.625 18.25 226.1719 Q18.25 225 17.4609 224.2422 Q16.6719 223.4844 15.4375 223.4844 Q14.2031 223.4844 13.3828 224.2578 Q12.5625 225.0312 12.3281 226.5781 L10.2188 226.2031 Q10.6094 224.0781 11.9766 222.9141 Q13.3438 221.75 15.3906 221.75 Q16.7969 221.75 17.9766 222.3516 Q19.1562 222.9531 19.7891 224 Q20.4219 225.0469 20.4219 226.2188 Q20.4219 227.3281 19.8203 228.2422 Q19.2188 229.1562 18.0469 229.6875 Q19.5781 230.0469 20.4219 231.1562 Q21.2656 232.2656 21.2656 233.9219 Q21.2656 236.1719 19.625 237.7422 Q17.9844 239.3125 15.4688 239.3125 Q13.2031 239.3125 11.7109 237.9609 Q10.2188 236.6094 10.0156 234.4688 Z" stroke="none"/><path d="M16.7656 319 L16.7656 314.8906 L9.3125 314.8906 L9.3125 312.9531 L17.1406 301.8125 L18.875 301.8125 L18.875 312.9531 L21.1875 312.9531 L21.1875 314.8906 L18.875 314.8906 L18.875 319 L16.7656 319 ZM16.7656 312.9531 L16.7656 305.2031 L11.375 312.9531 L16.7656 312.9531 Z" stroke="none"/><path d="M10 394.5 L12.2188 394.3125 Q12.4531 395.9219 13.3516 396.7422 Q14.25 397.5625 15.5156 397.5625 Q17.0469 397.5625 18.1016 396.4141 Q19.1562 395.2656 19.1562 393.3594 Q19.1562 391.5625 18.1406 390.5156 Q17.125 389.4688 15.4844 389.4688 Q14.4688 389.4688 13.6484 389.9297 Q12.8281 390.3906 12.3594 391.1406 L10.375 390.875 L12.0312 382.0469 L20.5781 382.0469 L20.5781 384.0625 L13.7188 384.0625 L12.7969 388.6875 Q14.3438 387.6094 16.0469 387.6094 Q18.2969 387.6094 19.8438 389.1641 Q21.3906 390.7188 21.3906 393.1719 Q21.3906 395.5 20.0312 397.2031 Q18.375 399.2969 15.5156 399.2969 Q13.1719 399.2969 11.6875 397.9844 Q10.2031 396.6719 10 394.5 Z" stroke="none"/><path d="M20.9375 466.0312 L18.8438 466.1875 Q18.5625 464.9531 18.0469 464.3906 Q17.1875 463.4844 15.9375 463.4844 Q14.9375 463.4844 14.1719 464.0469 Q13.1719 464.7656 12.6016 466.1641 Q12.0312 467.5625 12 470.1406 Q12.7656 468.9844 13.8672 468.4219 Q14.9688 467.8594 16.1719 467.8594 Q18.2812 467.8594 19.7656 469.4062 Q21.25 470.9531 21.25 473.4219 Q21.25 475.0312 20.5547 476.4219 Q19.8594 477.8125 18.6406 478.5547 Q17.4219 479.2969 15.875 479.2969 Q13.2344 479.2969 11.5703 477.3516 Q9.9062 475.4062 9.9062 470.9531 Q9.9062 465.9844 11.75 463.7188 Q13.3438 461.75 16.0625 461.75 Q18.0938 461.75 19.3906 462.8828 Q20.6875 464.0156 20.9375 466.0312 ZM12.3281 473.4375 Q12.3281 474.5156 12.7891 475.5156 Q13.25 476.5156 14.0859 477.0391 Q14.9219 477.5625 15.8281 477.5625 Q17.1719 477.5625 18.1328 476.4844 Q19.0938 475.4062 19.0938 473.5469 Q19.0938 471.7656 18.1406 470.7422 Q17.1875 469.7188 15.75 469.7188 Q14.3281 469.7188 13.3281 470.7422 Q12.3281 471.7656 12.3281 473.4375 Z" stroke="none"/><path d="M10.1406 544.0625 L10.1406 542.0469 L21.2656 542.0469 L21.2656 543.6875 Q19.625 545.4219 18.0078 548.3203 Q16.3906 551.2188 15.5156 554.2812 Q14.8906 556.4375 14.7031 559 L12.5469 559 Q12.5781 556.9688 13.3359 554.1016 Q14.0938 551.2344 15.5234 548.5625 Q16.9531 545.8906 18.5469 544.0625 L10.1406 544.0625 Z" stroke="none"/><path d="M72.9375 24 L70.8281 24 L70.8281 10.5625 Q70.0781 11.2812 68.8359 12.0078 Q67.5938 12.7344 66.6094 13.0938 L66.6094 11.0625 Q68.3906 10.2344 69.7109 9.0469 Q71.0312 7.8594 71.5781 6.75 L72.9375 6.75 L72.9375 24 Z" stroke="none"/><path d="M156.0781 21.9688 L156.0781 24 L144.7344 24 Q144.7031 23.2344 144.9688 22.5312 Q145.4062 21.375 146.3594 20.25 Q147.3125 19.125 149.125 17.6406 Q151.9219 15.3438 152.9062 14.0078 Q153.8906 12.6719 153.8906 11.4688 Q153.8906 10.2188 152.9922 9.3594 Q152.0938 8.5 150.6562 8.5 Q149.1406 8.5 148.2266 9.4141 Q147.3125 10.3281 147.2969 11.9375 L145.125 11.7188 Q145.3438 9.2969 146.7969 8.0234 Q148.25 6.75 150.7031 6.75 Q153.1719 6.75 154.6172 8.1172 Q156.0625 9.4844 156.0625 11.5156 Q156.0625 12.5469 155.6406 13.5469 Q155.2188 14.5469 154.2422 15.6484 Q153.2656 16.75 150.9844 18.6719 Q149.0938 20.2656 148.5547 20.8281 Q148.0156 21.3906 147.6562 21.9688 L156.0781 21.9688 Z" stroke="none"/><path d="M225.0156 19.4688 L227.125 19.1875 Q227.4844 20.9688 228.3594 21.7656 Q229.2344 22.5625 230.4844 22.5625 Q231.9688 22.5625 232.9922 21.5312 Q234.0156 20.5 234.0156 18.9688 Q234.0156 17.5156 233.0703 16.5703 Q232.125 15.625 230.6562 15.625 Q230.0625 15.625 229.1719 15.8594 L229.4062 14.0156 Q229.6094 14.0312 229.75 14.0312 Q231.0938 14.0312 232.1719 13.3281 Q233.25 12.625 233.25 11.1719 Q233.25 10 232.4609 9.2422 Q231.6719 8.4844 230.4375 8.4844 Q229.2031 8.4844 228.3828 9.2578 Q227.5625 10.0312 227.3281 11.5781 L225.2188 11.2031 Q225.6094 9.0781 226.9766 7.9141 Q228.3438 6.75 230.3906 6.75 Q231.7969 6.75 232.9766 7.3516 Q234.1562 7.9531 234.7891 9 Q235.4219 10.0469 235.4219 11.2188 Q235.4219 12.3281 234.8203 13.2422 Q234.2188 14.1562 233.0469 14.6875 Q234.5781 15.0469 235.4219 16.1562 Q236.2656 17.2656 236.2656 18.9219 Q236.2656 21.1719 234.625 22.7422 Q232.9844 24.3125 230.4688 24.3125 Q228.2031 24.3125 226.7109 22.9609 Q225.2188 21.6094 225.0156 19.4688 Z" stroke="none"/><path d="M311.7656 24 L311.7656 19.8906 L304.3125 19.8906 L304.3125 17.9531 L312.1406 6.8125 L313.875 6.8125 L313.875 17.9531 L316.1875 17.9531 L316.1875 19.8906 L313.875 19.8906 L313.875 24 L311.7656 24 ZM311.7656 17.9531 L311.7656 10.2031 L306.375 17.9531 L311.7656 17.9531 Z" stroke="none"/><path d="M385 19.5 L387.2188 19.3125 Q387.4531 20.9219 388.3516 21.7422 Q389.25 22.5625 390.5156 22.5625 Q392.0469 22.5625 393.1016 21.4141 Q394.1562 20.2656 394.1562 18.3594 Q394.1562 16.5625 393.1406 15.5156 Q392.125 14.4688 390.4844 14.4688 Q389.4688 14.4688 388.6484 14.9297 Q387.8281 15.3906 387.3594 16.1406 L385.375 15.875 L387.0312 7.0469 L395.5781 7.0469 L395.5781 9.0625 L388.7188 9.0625 L387.7969 13.6875 Q389.3438 12.6094 391.0469 12.6094 Q393.2969 12.6094 394.8438 14.1641 Q396.3906 15.7188 396.3906 18.1719 Q396.3906 20.5 395.0312 22.2031 Q393.375 24.2969 390.5156 24.2969 Q388.1719 24.2969 386.6875 22.9844 Q385.2031 21.6719 385 19.5 Z" stroke="none"/><path d="M475.9375 11.0312 L473.8438 11.1875 Q473.5625 9.9531 473.0469 9.3906 Q472.1875 8.4844 470.9375 8.4844 Q469.9375 8.4844 469.1719 9.0469 Q468.1719 9.7656 467.6016 11.1641 Q467.0312 12.5625 467 15.1406 Q467.7656 13.9844 468.8672 13.4219 Q469.9688 12.8594 471.1719 12.8594 Q473.2812 12.8594 474.7656 14.4062 Q476.25 15.9531 476.25 18.4219 Q476.25 20.0312 475.5547 21.4219 Q474.8594 22.8125 473.6406 23.5547 Q472.4219 24.2969 470.875 24.2969 Q468.2344 24.2969 466.5703 22.3516 Q464.9062 20.4062 464.9062 15.9531 Q464.9062 10.9844 466.75 8.7188 Q468.3438 6.75 471.0625 6.75 Q473.0938 6.75 474.3906 7.8828 Q475.6875 9.0156 475.9375 11.0312 ZM467.3281 18.4375 Q467.3281 19.5156 467.7891 20.5156 Q468.25 21.5156 469.0859 22.0391 Q469.9219 22.5625 470.8281 22.5625 Q472.1719 22.5625 473.1328 21.4844 Q474.0938 20.4062 474.0938 18.5469 Q474.0938 16.7656 473.1406 15.7422 Q472.1875 14.7188 470.75 14.7188 Q469.3281 14.7188 468.3281 15.7422 Q467.3281 16.7656 467.3281 18.4375 Z" stroke="none"/><path d="M545.1406 9.0625 L545.1406 7.0469 L556.2656 7.0469 L556.2656 8.6875 Q554.625 10.4219 553.0078 13.3203 Q551.3906 16.2188 550.5156 19.2812 Q549.8906 21.4375 549.7031 24 L547.5469 24 Q547.5781 21.9688 548.3359 19.1016 Q549.0938 16.2344 550.5234 13.5625 Q551.9531 10.8906 553.5469 9.0625 L545.1406 9.0625 Z" stroke="none"/></g><g fill="rgb(30,144,255)" font-size="24px" font-family="'Arial'" stroke="rgb(30,144,255)"><circle r="20" clip-path="url(#clipPath1)" cx="54" cy="54" stroke="none"/><circle fill="none" r="20" clip-path="url(#clipPath1)" cx="54" cy="54" stroke="black"/><path fill="black" d="M34.9531 65 L43.4844 42.8125 L46.6406 42.8125 L55.7188 65 L52.375 65 L49.7812 58.2812 L40.5156 58.2812 L38.0781 65 L34.9531 65 ZM41.3594 55.8906 L48.875 55.8906 L46.5625 49.7344 Q45.5 46.9375 44.9844 45.1406 Q44.5625 47.2812 43.7969 49.375 L41.3594 55.8906 ZM67.2236 65 L64.5049 65 L64.5049 47.6406 Q63.5205 48.5781 61.9189 49.5156 Q60.3174 50.4531 59.0518 50.9219 L59.0518 48.2812 Q61.333 47.2188 63.0439 45.6875 Q64.7549 44.1562 65.4736 42.7188 L67.2236 42.7188 L67.2236 65 Z" clip-path="url(#clipPath2)" stroke="none"/><circle fill="rgb(144,238,144)" r="20" clip-path="url(#clipPath3)" cx="534" cy="534" stroke="none"/><circle fill="none" r="20" clip-path="url(#clipPath3)" cx="534" cy="534" stroke="black"/><path fill="black" d="M519.125 544 L519.125 523.2344 L526.9062 523.2344 Q529.2969 523.2344 530.7344 523.8672 Q532.1719 524.5 532.9844 525.8125 Q533.7969 527.125 533.7969 528.5469 Q533.7969 529.875 533.0703 531.0547 Q532.3438 532.2344 530.8906 532.9531 Q532.7812 533.5 533.7891 534.8359 Q534.7969 536.1719 534.7969 537.9844 Q534.7969 539.4375 534.1797 540.6953 Q533.5625 541.9531 532.6562 542.6328 Q531.75 543.3125 530.3828 543.6562 Q529.0156 544 527.0469 544 L519.125 544 ZM521.875 531.9688 L526.3594 531.9688 Q528.1875 531.9688 528.9844 531.7188 Q530.0312 531.4062 530.5625 530.6875 Q531.0938 529.9688 531.0938 528.875 Q531.0938 527.8438 530.5938 527.0547 Q530.0938 526.2656 529.1719 525.9766 Q528.25 525.6875 526.0156 525.6875 L521.875 525.6875 L521.875 531.9688 ZM521.875 541.5469 L527.0469 541.5469 Q528.375 541.5469 528.9062 541.4531 Q529.8594 541.2812 530.4922 540.8828 Q531.125 540.4844 531.5391 539.7266 Q531.9531 538.9688 531.9531 537.9844 Q531.9531 536.8281 531.3594 535.9688 Q530.7656 535.1094 529.7109 534.7578 Q528.6562 534.4062 526.6719 534.4062 L521.875 534.4062 L521.875 541.5469 ZM547.1396 544 L544.5928 544 L544.5928 527.7656 Q543.6709 528.6406 542.1787 529.5156 Q540.6865 530.3906 539.499 530.8281 L539.499 528.3594 Q541.6396 527.3594 543.2412 525.9297 Q544.8428 524.5 545.499 523.1562 L547.1396 523.1562 L547.1396 544 Z" clip-path="url(#clipPath4)" stroke="none"/><circle fill="rgb(250,128,114)" r="20" clip-path="url(#clipPath5)" cx="534" cy="54" stroke="none"/><circle fill="none" r="20" clip-path="url(#clipPath5)" cx="534" cy="54" stroke="black"/><path fill="black" d="M533.0469 56.7188 L535.7969 57.4219 Q534.9375 60.7969 532.6875 62.5781 Q530.4375 64.3594 527.2031 64.3594 Q523.8438 64.3594 521.7422 62.9922 Q519.6406 61.625 518.5391 59.0312 Q517.4375 56.4375 517.4375 53.4688 Q517.4375 50.2188 518.6797 47.8047 Q519.9219 45.3906 522.2109 44.1406 Q524.5 42.8906 527.25 42.8906 Q530.3594 42.8906 532.4844 44.4766 Q534.6094 46.0625 535.4375 48.9375 L532.7344 49.5781 Q532.0156 47.3125 530.6406 46.2734 Q529.2656 45.2344 527.1875 45.2344 Q524.7969 45.2344 523.1875 46.3828 Q521.5781 47.5312 520.9297 49.4609 Q520.2812 51.3906 520.2812 53.4531 Q520.2812 56.0938 521.0469 58.0703 Q521.8125 60.0469 523.4453 61.0234 Q525.0781 62 526.9688 62 Q529.2812 62 530.8828 60.6719 Q532.4844 59.3438 533.0469 56.7188 ZM547.7397 64 L545.1929 64 L545.1929 47.7656 Q544.271 48.6406 542.7788 49.5156 Q541.2866 50.3906 540.0991 50.8281 L540.0991 48.3594 Q542.2397 47.3594 543.8413 45.9297 Q545.4429 44.5 546.0991 43.1562 L547.7397 43.1562 L547.7397 64 Z" clip-path="url(#clipPath6)" stroke="none"/><circle fill="rgb(165,42,42)" r="20" clip-path="url(#clipPath7)" cx="54" cy="534" stroke="none"/><circle fill="none" r="20" clip-path="url(#clipPath7)" cx="54" cy="534" stroke="black"/><path fill="black" d="M38.2344 544 L38.2344 523.2344 L45.3906 523.2344 Q47.8125 523.2344 49.0781 523.5312 Q50.875 523.9531 52.125 525.0312 Q53.7656 526.4062 54.5859 528.5703 Q55.4062 530.7344 55.4062 533.5 Q55.4062 535.875 54.8516 537.7031 Q54.2969 539.5312 53.4297 540.7266 Q52.5625 541.9219 51.5391 542.6094 Q50.5156 543.2969 49.0625 543.6484 Q47.6094 544 45.7344 544 L38.2344 544 ZM40.9844 541.5469 L45.4219 541.5469 Q47.4688 541.5469 48.6406 541.1641 Q49.8125 540.7812 50.5 540.0938 Q51.4844 539.1094 52.0234 537.4609 Q52.5625 535.8125 52.5625 533.4688 Q52.5625 530.2031 51.4922 528.4531 Q50.4219 526.7031 48.9062 526.1094 Q47.7969 525.6875 45.3438 525.6875 L40.9844 525.6875 L40.9844 541.5469 ZM67.7397 544 L65.1929 544 L65.1929 527.7656 Q64.271 528.6406 62.7788 529.5156 Q61.2866 530.3906 60.0991 530.8281 L60.0991 528.3594 Q62.2397 527.3594 63.8413 525.9297 Q65.4429 524.5 66.0991 523.1562 L67.7397 523.1562 L67.7397 544 Z" clip-path="url(#clipPath8)" stroke="none"/><circle fill="yellow" r="20" clip-path="url(#clipPath9)" cx="54" cy="294" stroke="none"/><circle fill="none" r="20" clip-path="url(#clipPath9)" cx="54" cy="294" stroke="black"/><path fill="black" d="M39.2969 304 L39.2969 283.2344 L54.2969 283.2344 L54.2969 285.6875 L42.0469 285.6875 L42.0469 292.0469 L53.5312 292.0469 L53.5312 294.4844 L42.0469 294.4844 L42.0469 301.5469 L54.7812 301.5469 L54.7812 304 L39.2969 304 ZM67.1396 304 L64.5928 304 L64.5928 287.7656 Q63.6709 288.6406 62.1787 289.5156 Q60.6865 290.3906 59.499 290.8281 L59.499 288.3594 Q61.6396 287.3594 63.2412 285.9297 Q64.8428 284.5 65.499 283.1562 L67.1396 283.1562 L67.1396 304 Z" clip-path="url(#clipPath10)" stroke="none"/><circle fill="rgb(238,130,238)" r="20" clip-path="url(#clipPath11)" cx="534" cy="294" stroke="none"/><circle fill="none" r="20" clip-path="url(#clipPath11)" cx="534" cy="294" stroke="black"/><path fill="black" d="M518.5469 305 L518.5469 282.8125 L533.5156 282.8125 L533.5156 285.4219 L521.4844 285.4219 L521.4844 292.2969 L531.8906 292.2969 L531.8906 294.9219 L521.4844 294.9219 L521.4844 305 L518.5469 305 ZM546.4829 305 L543.7642 305 L543.7642 287.6406 Q542.7798 288.5781 541.1782 289.5156 Q539.5767 290.4531 538.311 290.9219 L538.311 288.2812 Q540.5923 287.2188 542.3032 285.6875 Q544.0142 284.1562 544.7329 282.7188 L546.4829 282.7188 L546.4829 305 Z" clip-path="url(#clipPath12)" stroke="none"/><circle fill="rgb(255,165,0)" r="20" clip-path="url(#clipPath13)" cx="310" cy="70" stroke="none"/><circle fill="none" r="20" clip-path="url(#clipPath13)" cx="310" cy="70" stroke="black"/><path fill="black" d="M303.125 71.4219 L303.125 69.1562 L311.3125 69.1406 L311.3125 76.3125 Q309.4219 77.8125 307.4219 78.5703 Q305.4219 79.3281 303.3125 79.3281 Q300.4688 79.3281 298.1406 78.1094 Q295.8125 76.8906 294.625 74.5859 Q293.4375 72.2812 293.4375 69.4219 Q293.4375 66.6094 294.6172 64.1641 Q295.7969 61.7188 298.0156 60.5312 Q300.2344 59.3438 303.1094 59.3438 Q305.2031 59.3438 306.8984 60.0234 Q308.5938 60.7031 309.5547 61.9141 Q310.5156 63.125 311.0312 65.0781 L308.7188 65.7031 Q308.2812 64.2344 307.6328 63.3906 Q306.9844 62.5469 305.7891 62.0391 Q304.5938 61.5312 303.125 61.5312 Q301.375 61.5312 300.0938 62.0625 Q298.8125 62.5938 298.0312 63.4688 Q297.25 64.3438 296.8125 65.375 Q296.0781 67.1719 296.0781 69.2656 Q296.0781 71.8594 296.9688 73.5938 Q297.8594 75.3281 299.5547 76.1719 Q301.25 77.0156 303.1719 77.0156 Q304.8281 77.0156 306.4062 76.3828 Q307.9844 75.75 308.8125 75.0156 L308.8125 71.4219 L303.125 71.4219 ZM323.064 79 L320.689 79 L320.689 63.875 Q319.8296 64.7031 318.439 65.5156 Q317.0483 66.3281 315.939 66.7344 L315.939 64.4375 Q317.939 63.5156 319.4233 62.1797 Q320.9077 60.8438 321.5327 59.5938 L323.064 59.5938 L323.064 79 Z" clip-path="url(#clipPath14)" stroke="none"/><circle r="20" clip-path="url(#clipPath15)" cx="566" cy="566" stroke="none"/><circle fill="none" r="20" clip-path="url(#clipPath15)" cx="566" cy="566" stroke="black"/><path fill="black" d="M546.9531 577 L555.4844 554.8125 L558.6406 554.8125 L567.7188 577 L564.375 577 L561.7812 570.2812 L552.5156 570.2812 L550.0781 577 L546.9531 577 ZM553.3594 567.8906 L560.875 567.8906 L558.5625 561.7344 Q557.5 558.9375 556.9844 557.1406 Q556.5625 559.2812 555.7969 561.375 L553.3594 567.8906 ZM583.2861 574.375 L583.2861 577 L568.6143 577 Q568.583 576.0156 568.9268 575.1094 Q569.4893 573.6094 570.7236 572.1562 Q571.958 570.7031 574.2861 568.7969 Q577.9111 565.8281 579.1846 564.0938 Q580.458 562.3594 580.458 560.8125 Q580.458 559.2031 579.2939 558.0859 Q578.1299 556.9688 576.2705 556.9688 Q574.3018 556.9688 573.1221 558.1484 Q571.9424 559.3281 571.9268 561.4219 L569.1299 561.1406 Q569.4111 558 571.2939 556.3594 Q573.1768 554.7188 576.333 554.7188 Q579.5361 554.7188 581.3955 556.4922 Q583.2549 558.2656 583.2549 560.875 Q583.2549 562.2188 582.708 563.5 Q582.1611 564.7812 580.8955 566.2031 Q579.6299 567.625 576.6924 570.1094 Q574.2393 572.1719 573.5439 572.9062 Q572.8486 573.6406 572.3955 574.375 L583.2861 574.375 Z" clip-path="url(#clipPath16)" stroke="none"/><circle fill="rgb(144,238,144)" r="20" clip-path="url(#clipPath17)" cx="86" cy="86" stroke="none"/><circle fill="none" r="20" clip-path="url(#clipPath17)" cx="86" cy="86" stroke="black"/><path fill="black" d="M71.125 96 L71.125 75.2344 L78.9062 75.2344 Q81.2969 75.2344 82.7344 75.8672 Q84.1719 76.5 84.9844 77.8125 Q85.7969 79.125 85.7969 80.5469 Q85.7969 81.875 85.0703 83.0547 Q84.3438 84.2344 82.8906 84.9531 Q84.7812 85.5 85.7891 86.8359 Q86.7969 88.1719 86.7969 89.9844 Q86.7969 91.4375 86.1797 92.6953 Q85.5625 93.9531 84.6562 94.6328 Q83.75 95.3125 82.3828 95.6562 Q81.0156 96 79.0469 96 L71.125 96 ZM73.875 83.9688 L78.3594 83.9688 Q80.1875 83.9688 80.9844 83.7188 Q82.0312 83.4062 82.5625 82.6875 Q83.0938 81.9688 83.0938 80.875 Q83.0938 79.8438 82.5938 79.0547 Q82.0938 78.2656 81.1719 77.9766 Q80.25 77.6875 78.0156 77.6875 L73.875 77.6875 L73.875 83.9688 ZM73.875 93.5469 L79.0469 93.5469 Q80.375 93.5469 80.9062 93.4531 Q81.8594 93.2812 82.4922 92.8828 Q83.125 92.4844 83.5391 91.7266 Q83.9531 90.9688 83.9531 89.9844 Q83.9531 88.8281 83.3594 87.9688 Q82.7656 87.1094 81.7109 86.7578 Q80.6562 86.4062 78.6719 86.4062 L73.875 86.4062 L73.875 93.5469 ZM102.9365 93.5469 L102.9365 96 L89.2178 96 Q89.1865 95.0781 89.5146 94.2344 Q90.0459 92.8281 91.1943 91.4688 Q92.3428 90.1094 94.5303 88.3281 Q97.9209 85.5469 99.1084 83.9297 Q100.2959 82.3125 100.2959 80.8594 Q100.2959 79.3438 99.21 78.3047 Q98.124 77.2656 96.3896 77.2656 Q94.5459 77.2656 93.4443 78.3672 Q92.3428 79.4688 92.3271 81.4219 L89.7021 81.1562 Q89.9678 78.2344 91.7256 76.6953 Q93.4834 75.1562 96.4365 75.1562 Q99.4365 75.1562 101.1787 76.8125 Q102.9209 78.4688 102.9209 80.9219 Q102.9209 82.1719 102.4053 83.375 Q101.8896 84.5781 100.71 85.9062 Q99.5303 87.2344 96.7803 89.5625 Q94.4834 91.4844 93.835 92.1719 Q93.1865 92.8594 92.7646 93.5469 L102.9365 93.5469 Z" clip-path="url(#clipPath18)" stroke="none"/><circle fill="rgb(250,128,114)" r="20" clip-path="url(#clipPath19)" cx="86" cy="566" stroke="none"/><circle fill="none" r="20" clip-path="url(#clipPath19)" cx="86" cy="566" stroke="black"/><path fill="black" d="M85.0469 568.7188 L87.7969 569.4219 Q86.9375 572.7969 84.6875 574.5781 Q82.4375 576.3594 79.2031 576.3594 Q75.8438 576.3594 73.7422 574.9922 Q71.6406 573.625 70.5391 571.0312 Q69.4375 568.4375 69.4375 565.4688 Q69.4375 562.2188 70.6797 559.8047 Q71.9219 557.3906 74.2109 556.1406 Q76.5 554.8906 79.25 554.8906 Q82.3594 554.8906 84.4844 556.4766 Q86.6094 558.0625 87.4375 560.9375 L84.7344 561.5781 Q84.0156 559.3125 82.6406 558.2734 Q81.2656 557.2344 79.1875 557.2344 Q76.7969 557.2344 75.1875 558.3828 Q73.5781 559.5312 72.9297 561.4609 Q72.2812 563.3906 72.2812 565.4531 Q72.2812 568.0938 73.0469 570.0703 Q73.8125 572.0469 75.4453 573.0234 Q77.0781 574 78.9688 574 Q81.2812 574 82.8828 572.6719 Q84.4844 571.3438 85.0469 568.7188 ZM103.5366 573.5469 L103.5366 576 L89.8179 576 Q89.7866 575.0781 90.1147 574.2344 Q90.646 572.8281 91.7944 571.4688 Q92.9429 570.1094 95.1304 568.3281 Q98.521 565.5469 99.7085 563.9297 Q100.896 562.3125 100.896 560.8594 Q100.896 559.3438 99.8101 558.3047 Q98.7241 557.2656 96.9897 557.2656 Q95.146 557.2656 94.0444 558.3672 Q92.9429 559.4688 92.9272 561.4219 L90.3022 561.1562 Q90.5679 558.2344 92.3257 556.6953 Q94.0835 555.1562 97.0366 555.1562 Q100.0366 555.1562 101.7788 556.8125 Q103.521 558.4688 103.521 560.9219 Q103.521 562.1719 103.0054 563.375 Q102.4897 564.5781 101.3101 565.9062 Q100.1304 567.2344 97.3804 569.5625 Q95.0835 571.4844 94.4351 572.1719 Q93.7866 572.8594 93.3647 573.5469 L103.5366 573.5469 Z" clip-path="url(#clipPath20)" stroke="none"/><circle fill="rgb(165,42,42)" r="20" clip-path="url(#clipPath21)" cx="566" cy="86" stroke="none"/><circle fill="none" r="20" clip-path="url(#clipPath21)" cx="566" cy="86" stroke="black"/><path fill="black" d="M550.2344 96 L550.2344 75.2344 L557.3906 75.2344 Q559.8125 75.2344 561.0781 75.5312 Q562.875 75.9531 564.125 77.0312 Q565.7656 78.4062 566.5859 80.5703 Q567.4062 82.7344 567.4062 85.5 Q567.4062 87.875 566.8516 89.7031 Q566.2969 91.5312 565.4297 92.7266 Q564.5625 93.9219 563.5391 94.6094 Q562.5156 95.2969 561.0625 95.6484 Q559.6094 96 557.7344 96 L550.2344 96 ZM552.9844 93.5469 L557.4219 93.5469 Q559.4688 93.5469 560.6406 93.1641 Q561.8125 92.7812 562.5 92.0938 Q563.4844 91.1094 564.0234 89.4609 Q564.5625 87.8125 564.5625 85.4688 Q564.5625 82.2031 563.4922 80.4531 Q562.4219 78.7031 560.9062 78.1094 Q559.7969 77.6875 557.3438 77.6875 L552.9844 77.6875 L552.9844 93.5469 ZM583.5366 93.5469 L583.5366 96 L569.8179 96 Q569.7866 95.0781 570.1147 94.2344 Q570.646 92.8281 571.7944 91.4688 Q572.9429 90.1094 575.1304 88.3281 Q578.521 85.5469 579.7085 83.9297 Q580.896 82.3125 580.896 80.8594 Q580.896 79.3438 579.8101 78.3047 Q578.7241 77.2656 576.9897 77.2656 Q575.146 77.2656 574.0444 78.3672 Q572.9429 79.4688 572.9272 81.4219 L570.3022 81.1562 Q570.5679 78.2344 572.3257 76.6953 Q574.0835 75.1562 577.0366 75.1562 Q580.0366 75.1562 581.7788 76.8125 Q583.521 78.4688 583.521 80.9219 Q583.521 82.1719 583.0054 83.375 Q582.4897 84.5781 581.3101 85.9062 Q580.1304 87.2344 577.3804 89.5625 Q575.0835 91.4844 574.4351 92.1719 Q573.7866 92.8594 573.3647 93.5469 L583.5366 93.5469 Z" clip-path="url(#clipPath22)" stroke="none"/><circle fill="yellow" r="20" clip-path="url(#clipPath23)" cx="566" cy="326" stroke="none"/><circle fill="none" r="20" clip-path="url(#clipPath23)" cx="566" cy="326" stroke="black"/><path fill="black" d="M551.2969 336 L551.2969 315.2344 L566.2969 315.2344 L566.2969 317.6875 L554.0469 317.6875 L554.0469 324.0469 L565.5312 324.0469 L565.5312 326.4844 L554.0469 326.4844 L554.0469 333.5469 L566.7812 333.5469 L566.7812 336 L551.2969 336 ZM582.9365 333.5469 L582.9365 336 L569.2178 336 Q569.1865 335.0781 569.5146 334.2344 Q570.0459 332.8281 571.1943 331.4688 Q572.3428 330.1094 574.5303 328.3281 Q577.9209 325.5469 579.1084 323.9297 Q580.2959 322.3125 580.2959 320.8594 Q580.2959 319.3438 579.21 318.3047 Q578.124 317.2656 576.3896 317.2656 Q574.5459 317.2656 573.4443 318.3672 Q572.3428 319.4688 572.3271 321.4219 L569.7021 321.1562 Q569.9678 318.2344 571.7256 316.6953 Q573.4834 315.1562 576.4365 315.1562 Q579.4365 315.1562 581.1787 316.8125 Q582.9209 318.4688 582.9209 320.9219 Q582.9209 322.1719 582.4053 323.375 Q581.8896 324.5781 580.71 325.9062 Q579.5303 327.2344 576.7803 329.5625 Q574.4834 331.4844 573.835 332.1719 Q573.1865 332.8594 572.7646 333.5469 L582.9365 333.5469 Z" clip-path="url(#clipPath24)" stroke="none"/><circle fill="rgb(238,130,238)" r="20" clip-path="url(#clipPath25)" cx="86" cy="326" stroke="none"/><circle fill="none" r="20" clip-path="url(#clipPath25)" cx="86" cy="326" stroke="black"/><path fill="black" d="M70.5469 337 L70.5469 314.8125 L85.5156 314.8125 L85.5156 317.4219 L73.4844 317.4219 L73.4844 324.2969 L83.8906 324.2969 L83.8906 326.9219 L73.4844 326.9219 L73.4844 337 L70.5469 337 ZM102.5454 334.375 L102.5454 337 L87.8735 337 Q87.8423 336.0156 88.186 335.1094 Q88.7485 333.6094 89.9829 332.1562 Q91.2173 330.7031 93.5454 328.7969 Q97.1704 325.8281 98.4438 324.0938 Q99.7173 322.3594 99.7173 320.8125 Q99.7173 319.2031 98.5532 318.0859 Q97.3892 316.9688 95.5298 316.9688 Q93.561 316.9688 92.3813 318.1484 Q91.2017 319.3281 91.186 321.4219 L88.3892 321.1406 Q88.6704 318 90.5532 316.3594 Q92.436 314.7188 95.5923 314.7188 Q98.7954 314.7188 100.6548 316.4922 Q102.5142 318.2656 102.5142 320.875 Q102.5142 322.2188 101.9673 323.5 Q101.4204 324.7812 100.1548 326.2031 Q98.8892 327.625 95.9517 330.1094 Q93.4985 332.1719 92.8032 332.9062 Q92.1079 333.6406 91.6548 334.375 L102.5454 334.375 Z" clip-path="url(#clipPath26)" stroke="none"/><circle fill="rgb(255,165,0)" r="20" clip-path="url(#clipPath27)" cx="310" cy="550" stroke="none"/><circle fill="none" r="20" clip-path="url(#clipPath27)" cx="310" cy="550" stroke="black"/><path fill="black" d="M303.125 551.4219 L303.125 549.1562 L311.3125 549.1406 L311.3125 556.3125 Q309.4219 557.8125 307.4219 558.5703 Q305.4219 559.3281 303.3125 559.3281 Q300.4688 559.3281 298.1406 558.1094 Q295.8125 556.8906 294.625 554.5859 Q293.4375 552.2812 293.4375 549.4219 Q293.4375 546.6094 294.6172 544.1641 Q295.7969 541.7188 298.0156 540.5312 Q300.2344 539.3438 303.1094 539.3438 Q305.2031 539.3438 306.8984 540.0234 Q308.5938 540.7031 309.5547 541.9141 Q310.5156 543.125 311.0312 545.0781 L308.7188 545.7031 Q308.2812 544.2344 307.6328 543.3906 Q306.9844 542.5469 305.7891 542.0391 Q304.5938 541.5312 303.125 541.5312 Q301.375 541.5312 300.0938 542.0625 Q298.8125 542.5938 298.0312 543.4688 Q297.25 544.3438 296.8125 545.375 Q296.0781 547.1719 296.0781 549.2656 Q296.0781 551.8594 296.9688 553.5938 Q297.8594 555.3281 299.5547 556.1719 Q301.25 557.0156 303.1719 557.0156 Q304.8281 557.0156 306.4062 556.3828 Q307.9844 555.75 308.8125 555.0156 L308.8125 551.4219 L303.125 551.4219 ZM326.5952 556.7188 L326.5952 559 L313.814 559 Q313.7983 558.1406 314.0952 557.3594 Q314.5796 556.0469 315.6577 554.7812 Q316.7358 553.5156 318.7671 551.8594 Q321.9077 549.2656 323.0171 547.7578 Q324.1265 546.25 324.1265 544.9062 Q324.1265 543.5 323.1187 542.5312 Q322.1108 541.5625 320.4858 541.5625 Q318.7827 541.5625 317.7515 542.5859 Q316.7202 543.6094 316.7046 545.4375 L314.2671 545.1875 Q314.5171 542.4531 316.1499 541.0234 Q317.7827 539.5938 320.5483 539.5938 Q323.3296 539.5938 324.9468 541.1328 Q326.564 542.6719 326.564 544.9531 Q326.564 546.125 326.0874 547.2422 Q325.6108 548.3594 324.5171 549.6016 Q323.4233 550.8438 320.8608 553 Q318.7202 554.7969 318.1187 555.4375 Q317.5171 556.0781 317.1108 556.7188 L326.5952 556.7188 Z" clip-path="url(#clipPath28)" stroke="none"/></g></g></svg>