<?xml version="1.0" encoding="UTF-8"?><svg xmlns="http://www.w3.org/2000/svg" xmlns:xlink="http://www.w3.org/1999/xlink" stroke-dasharray="none" shape-rendering="auto" font-family="'Dialog'" width="751" text-rendering="auto" fill-opacity="1" contentScriptType="text/ecmascript" color-interpolation="auto" color-rendering="auto" preserveAspectRatio="xMidYMid meet" font-size="12px" fill="black" stroke="black" image-rendering="auto" stroke-miterlimit="10" zoomAndPan="magnify" version="1.0" stroke-linecap="square" stroke-linejoin="miter" contentStyleType="text/css" font-style="normal" height="431" stroke-width="1" stroke-dashoffset="0" font-weight="normal" stroke-opacity="1"><!--Generated by the Batik Graphics2D SVG Generator--><defs id="genericDefs"/><g><defs id="defs1"><clipPath clipPathUnits="userSpaceOnUse" id="clipPath1"><path d="M110 190 L190 190 L190 270 L110 270 L110 190 Z"/></clipPath><clipPath clipPathUnits="userSpaceOnUse" id="clipPath2"><path d="M30 110 L110 110 L110 190 L30 190 L30 110 Z"/></clipPath><clipPath clipPathUnits="userSpaceOnUse" id="clipPath3"><path d="M110 110 L190 110 L190 190 L110 190 L110 110 Z"/></clipPath><clipPath clipPathUnits="userSpaceOnUse" id="clipPath4"><path d="M190 190 L270 190 L270 270 L190 270 L190 190 Z"/></clipPath><clipPath clipPathUnits="userSpaceOnUse" id="clipPath5"><path d="M110 30 L190 30 L190 110 L110 110 L110 30 Z"/></clipPath><clipPath clipPathUnits="userSpaceOnUse" id="clipPath6"><path d="M190 110 L270 110 L270 190 L190 190 L190 110 Z"/></clipPath><clipPath clipPathUnits="userSpaceOnUse" id="clipPath7"><path d="M270 190 L350 190 L350 270 L270 270 L270 190 Z"/></clipPath><clipPath clipPathUnits="userSpaceOnUse" id="clipPath8"><path d="M270 110 L350 110 L350 190 L270 190 L270 110 Z"/></clipPath><clipPath clipPathUnits="userSpaceOnUse" id="clipPath9"><path d="M190 30 L270 30 L270 110 L190 110 L190 30 Z"/></clipPath><clipPath clipPathUnits="userSpaceOnUse" id="clipPath10"><path d="M270 30 L350 30 L350 110 L270 110 L270 30 Z"/></clipPath><clipPath clipPathUnits="userSpaceOnUse" id="clipPath11"><path d="M350 110 L430 110 L430 190 L350 190 L350 110 Z"/></clipPath><clipPath clipPathUnits="userSpaceOnUse" id="clipPath12"><path d="M350 350 L430 350 L430 430 L350 430 L350 350 Z"/></clipPath><clipPath clipPathUnits="userSpaceOnUse" id="clipPath13"><path d="M270 270 L350 270 L350 350 L270 350 L270 270 Z"/></clipPath><clipPath clipPathUnits="userSpaceOnUse" id="clipPath14"><path d="M350 270 L430 270 L430 350 L350 350 L350 270 Z"/></clipPath><clipPath clipPathUnits="userSpaceOnUse" id="clipPath15"><path d="M350 190 L430 190 L430 270 L350 270 L350 190 Z"/></clipPath><clipPath clipPathUnits="userSpaceOnUse" id="clipPath16"><path d="M430 270 L510 270 L510 350 L430 350 L430 270 Z"/></clipPath><clipPath clipPathUnits="userSpaceOnUse" id="clipPath17"><path d="M430 110 L510 110 L510 190 L430 190 L430 110 Z"/></clipPath><clipPath clipPathUnits="userSpaceOnUse" id="clipPath18"><path d="M350 30 L430 30 L430 110 L350 110 L350 30 Z"/></clipPath><clipPath clipPathUnits="userSpaceOnUse" id="clipPath19"><path d="M430 190 L510 190 L510 270 L430 270 L430 190 Z"/></clipPath><clipPath clipPathUnits="userSpaceOnUse" id="clipPath20"><path d="M510 190 L590 190 L590 270 L510 270 L510 190 Z"/></clipPath><clipPath clipPathUnits="userSpaceOnUse" id="clipPath21"><path d="M430 30 L510 30 L510 110 L430 110 L430 30 Z"/></clipPath><clipPath clipPathUnits="userSpaceOnUse" id="clipPath22"><path d="M590 190 L670 190 L670 270 L590 270 L590 190 Z"/></clipPath><clipPath clipPathUnits="userSpaceOnUse" id="clipPath23"><path d="M510 110 L590 110 L590 190 L510 190 L510 110 Z"/></clipPath><clipPath clipPathUnits="userSpaceOnUse" id="clipPath24"><path d="M510 30 L590 30 L590 110 L510 110 L510 30 Z"/></clipPath><clipPath clipPathUnits="userSpaceOnUse" id="clipPath25"><path d="M590 110 L670 110 L670 190 L590 190 L590 110 Z"/></clipPath><clipPath clipPathUnits="userSpaceOnUse" id="clipPath26"><path d="M670 110 L750 110 L750 190 L670 190 L670 110 Z"/></clipPath><clipPath clipPathUnits="userSpaceOnUse" id="clipPath27"><path d="M590 30 L670 30 L670 110 L590 110 L590 30 Z"/></clipPath><clipPath clipPathUnits="userSpaceOnUse" id="clipPath28"><path d="M190 270 L270 270 L270 350 L190 350 L190 270 Z"/></clipPath><clipPath clipPathUnits="userSpaceOnUse" id="clipPath29"><path d="M270 350 L350 350 L350 430 L270 430 L270 350 Z"/></clipPath><clipPath clipPathUnits="userSpaceOnUse" id="clipPath30"><path d="M110 350 L190 350 L190 430 L110 430 L110 350 Z"/></clipPath><clipPath clipPathUnits="userSpaceOnUse" id="clipPath31"><path d="M30 270 L110 270 L110 350 L30 350 L30 270 Z"/></clipPath><clipPath clipPathUnits="userSpaceOnUse" id="clipPath32"><path d="M110 270 L190 270 L190 350 L110 350 L110 270 Z"/></clipPath><clipPath clipPathUnits="userSpaceOnUse" id="clipPath33"><path d="M190 350 L270 350 L270 430 L190 430 L190 350 Z"/></clipPath><clipPath clipPathUnits="userSpaceOnUse" id="clipPath34"><path d="M430 350 L510 350 L510 430 L430 430 L430 350 Z"/></clipPath><clipPath clipPathUnits="userSpaceOnUse" id="clipPath35"><path d="M510 350 L590 350 L590 430 L510 430 L510 350 Z"/></clipPath><clipPath clipPathUnits="userSpaceOnUse" id="clipPath36"><path d="M590 350 L670 350 L670 430 L590 430 L590 350 Z"/></clipPath><clipPath clipPathUnits="userSpaceOnUse" id="clipPath37"><path d="M510 270 L590 270 L590 350 L510 350 L510 270 Z"/></clipPath><clipPath clipPathUnits="userSpaceOnUse" id="clipPath38"><path d="M590 270 L670 270 L670 350 L590 350 L590 270 Z"/></clipPath><clipPath clipPathUnits="userSpaceOnUse" id="clipPath39"><path d="M670 270 L750 270 L750 350 L670 350 L670 270 Z"/></clipPath><clipPath clipPathUnits="userSpaceOnUse" id="clipPath40"><path d="M129 129 L171 129 L171 171 L129 171 L129 129 Z"/></clipPath><clipPath clipPathUnits="userSpaceOnUse" id="clipPath41"><path d="M170 150 C170 161.0457 161.0457 170 150 170 C138.9543 170 130 161.0457 130 150 C130 138.9543 138.9543 130 150 130 C161.0457 130 170 138.9543 170 150 Z"/></clipPath><clipPath clipPathUnits="userSpaceOnUse" id="clipPath42"><path d="M609 289 L651 289 L651 331 L609 331 L609 289 Z"/></clipPath><clipPath clipPathUnits="userSpaceOnUse" id="clipPath43"><path d="M650 310 C650 321.0457 641.0457 330 630 330 C618.9543 330 610 321.0457 610 310 C610 298.9543 618.9543 290 630 290 C641.0457 290 650 298.9543 650 310 Z"/></clipPath><clipPath clipPathUnits="userSpaceOnUse" id="clipPath44"><path d="M209 129 L251 129 L251 171 L209 171 L209 129 Z"/></clipPath><clipPath clipPathUnits="userSpaceOnUse" id="clipPath45"><path d="M250 150 C250 161.0457 241.0457 170 230 170 C218.9543 170 210 161.0457 210 150 C210 138.9543 218.9543 130 230 130 C241.0457 130 250 138.9543 250 150 Z"/></clipPath><clipPath clipPathUnits="userSpaceOnUse" id="clipPath46"><path d="M529 289 L571 289 L571 331 L529 331 L529 289 Z"/></clipPath><clipPath clipPathUnits="userSpaceOnUse" id="clipPath47"><path d="M570 310 C570 321.0457 561.0457 330 550 330 C538.9543 330 530 321.0457 530 310 C530 298.9543 538.9543 290 550 290 C561.0457 290 570 298.9543 570 310 Z"/></clipPath><clipPath clipPathUnits="userSpaceOnUse" id="clipPath48"><path d="M289 129 L331 129 L331 171 L289 171 L289 129 Z"/></clipPath><clipPath clipPathUnits="userSpaceOnUse" id="clipPath49"><path d="M330 150 C330 161.0457 321.0457 170 310 170 C298.9543 170 290 161.0457 290 150 C290 138.9543 298.9543 130 310 130 C321.0457 130 330 138.9543 330 150 Z"/></clipPath><clipPath clipPathUnits="userSpaceOnUse" id="clipPath50"><path d="M449 289 L491 289 L491 331 L449 331 L449 289 Z"/></clipPath><clipPath clipPathUnits="userSpaceOnUse" id="clipPath51"><path d="M490 310 C490 321.0457 481.0457 330 470 330 C458.9543 330 450 321.0457 450 310 C450 298.9543 458.9543 290 470 290 C481.0457 290 490 298.9543 490 310 Z"/></clipPath><clipPath clipPathUnits="userSpaceOnUse" id="clipPath52"><path d="M369 129 L411 129 L411 171 L369 171 L369 129 Z"/></clipPath><clipPath clipPathUnits="userSpaceOnUse" id="clipPath53"><path d="M410 150 C410 161.0457 401.0457 170 390 170 C378.9543 170 370 161.0457 370 150 C370 138.9543 378.9543 130 390 130 C401.0457 130 410 138.9543 410 150 Z"/></clipPath><clipPath clipPathUnits="userSpaceOnUse" id="clipPath54"><path d="M369 289 L411 289 L411 331 L369 331 L369 289 Z"/></clipPath><clipPath clipPathUnits="userSpaceOnUse" id="clipPath55"><path d="M410 310 C410 321.0457 401.0457 330 390 330 C378.9543 330 370 321.0457 370 310 C370 298.9543 378.9543 290 390 290 C401.0457 290 410 298.9543 410 310 Z"/></clipPath><clipPath clipPathUnits="userSpaceOnUse" id="clipPath56"><path d="M449 129 L491 129 L491 171 L449 171 L449 129 Z"/></clipPath><clipPath clipPathUnits="userSpaceOnUse" id="clipPath57"><path d="M490 150 C490 161.0457 481.0457 170 470 170 C458.9543 170 450 161.0457 450 150 C450 138.9543 458.9543 130 470 130 C481.0457 130 490 138.9543 490 150 Z"/></clipPath><clipPath clipPathUnits="userSpaceOnUse" id="clipPath58"><path d="M289 289 L331 289 L331 331 L289 331 L289 289 Z"/></clipPath><clipPath clipPathUnits="userSpaceOnUse" id="clipPath59"><path d="M330 310 C330 321.0457 321.0457 330 310 330 C298.9543 330 290 321.0457 290 310 C290 298.9543 298.9543 290 310 290 C321.0457 290 330 298.9543 330 310 Z"/></clipPath><clipPath clipPathUnits="userSpaceOnUse" id="clipPath60"><path d="M529 129 L571 129 L571 171 L529 171 L529 129 Z"/></clipPath><clipPath clipPathUnits="userSpaceOnUse" id="clipPath61"><path d="M570 150 C570 161.0457 561.0457 170 550 170 C538.9543 170 530 161.0457 530 150 C530 138.9543 538.9543 130 550 130 C561.0457 130 570 138.9543 570 150 Z"/></clipPath><clipPath clipPathUnits="userSpaceOnUse" id="clipPath62"><path d="M209 289 L251 289 L251 331 L209 331 L209 289 Z"/></clipPath><clipPath clipPathUnits="userSpaceOnUse" id="clipPath63"><path d="M250 310 C250 321.0457 241.0457 330 230 330 C218.9543 330 210 321.0457 210 310 C210 298.9543 218.9543 290 230 290 C241.0457 290 250 298.9543 250 310 Z"/></clipPath><clipPath clipPathUnits="userSpaceOnUse" id="clipPath64"><path d="M609 129 L651 129 L651 171 L609 171 L609 129 Z"/></clipPath><clipPath clipPathUnits="userSpaceOnUse" id="clipPath65"><path d="M650 150 C650 161.0457 641.0457 170 630 170 C618.9543 170 610 161.0457 610 150 C610 138.9543 618.9543 130 630 130 C641.0457 130 650 138.9543 650 150 Z"/></clipPath><clipPath clipPathUnits="userSpaceOnUse" id="clipPath66"><path d="M129 289 L171 289 L171 331 L129 331 L129 289 Z"/></clipPath><clipPath clipPathUnits="userSpaceOnUse" id="clipPath67"><path d="M170 310 C170 321.0457 161.0457 330 150 330 C138.9543 330 130 321.0457 130 310 C130 298.9543 138.9543 290 150 290 C161.0457 290 170 298.9543 170 310 Z"/></clipPath></defs><g><line y2="30" fill="none" x1="30" x2="750" y1="30"/><line y2="110" fill="none" x1="30" x2="750" y1="110"/><line y2="190" fill="none" x1="30" x2="750" y1="190"/><line y2="270" fill="none" x1="30" x2="750" y1="270"/><line y2="350" fill="none" x1="30" x2="750" y1="350"/><line y2="430" fill="none" x1="30" x2="750" y1="430"/><line y2="430" fill="none" x1="30" x2="30" y1="30"/><line y2="430" fill="none" x1="110" x2="110" y1="30"/><line y2="430" fill="none" x1="190" x2="190" y1="30"/><line y2="430" fill="none" x1="270" x2="270" y1="30"/><line y2="430" fill="none" x1="350" x2="350" y1="30"/><line y2="430" fill="none" x1="430" x2="430" y1="30"/><line y2="430" fill="none" x1="510" x2="510" y1="30"/><line y2="430" fill="none" x1="590" x2="590" y1="30"/><line y2="430" fill="none" x1="670" x2="670" y1="30"/><line y2="430" fill="none" x1="750" x2="750" y1="30"/><path d="M17.9375 79 L15.8281 79 L15.8281 65.5625 Q15.0781 66.2812 13.8359 67.0078 Q12.5938 67.7344 11.6094 68.0938 L11.6094 66.0625 Q13.3906 65.2344 14.7109 64.0469 Q16.0312 62.8594 16.5781 61.75 L17.9375 61.75 L17.9375 79 Z" stroke="none"/><path d="M21.0781 156.9688 L21.0781 159 L9.7344 159 Q9.7031 158.2344 9.9688 157.5312 Q10.4062 156.375 11.3594 155.25 Q12.3125 154.125 14.125 152.6406 Q16.9219 150.3438 17.9062 149.0078 Q18.8906 147.6719 18.8906 146.4688 Q18.8906 145.2188 17.9922 144.3594 Q17.0938 143.5 15.6562 143.5 Q14.1406 143.5 13.2266 144.4141 Q12.3125 145.3281 12.2969 146.9375 L10.125 146.7188 Q10.3438 144.2969 11.7969 143.0234 Q13.25 141.75 15.7031 141.75 Q18.1719 141.75 19.6172 143.1172 Q21.0625 144.4844 21.0625 146.5156 Q21.0625 147.5469 20.6406 148.5469 Q20.2188 149.5469 19.2422 150.6484 Q18.2656 151.75 15.9844 153.6719 Q14.0938 155.2656 13.5547 155.8281 Q13.0156 156.3906 12.6562 156.9688 L21.0781 156.9688 Z" stroke="none"/><path d="M10.0156 234.4688 L12.125 234.1875 Q12.4844 235.9688 13.3594 236.7656 Q14.2344 237.5625 15.4844 237.5625 Q16.9688 237.5625 17.9922 236.5312 Q19.0156 235.5 19.0156 233.9688 Q19.0156 232.5156 18.0703 231.5703 Q17.125 230.625 15.6562 230.625 Q15.0625 230.625 14.1719 230.8594 L14.4062 229.0156 Q14.6094 229.0312 14.75 229.0312 Q16.0938 229.0312 17.1719 228.3281 Q18.25 227.625 18.25 226.1719 Q18.25 225 17.4609 224.2422 Q16.6719 223.4844 15.4375 223.4844 Q14.2031 223.4844 13.3828 224.2578 Q12.5625 225.0312 12.3281 226.5781 L10.2188 226.2031 Q10.6094 224.0781 11.9766 222.9141 Q13.3438 221.75 15.3906 221.75 Q16.7969 221.75 17.9766 222.3516 Q19.1562 222.9531 19.7891 224 Q20.4219 225.0469 20.4219 226.2188 Q20.4219 227.3281 19.8203 228.2422 Q19.2188 229.1562 18.0469 229.6875 Q19.5781 230.0469 20.4219 231.1562 Q21.2656 232.2656 21.2656 233.9219 Q21.2656 236.1719 19.625 237.7422 Q17.9844 239.3125 15.4688 239.3125 Q13.2031 239.3125 11.7109 237.9609 Q10.2188 236.6094 10.0156 234.4688 Z" stroke="none"/><path d="M16.7656 319 L16.7656 314.8906 L9.3125 314.8906 L9.3125 312.9531 L17.1406 301.8125 L18.875 301.8125 L18.875 312.9531 L21.1875 312.9531 L21.1875 314.8906 L18.875 314.8906 L18.875 319 L16.7656 319 ZM16.7656 312.9531 L16.7656 305.2031 L11.375 312.9531 L16.7656 312.9531 Z" stroke="none"/><path d="M10 394.5 L12.2188 394.3125 Q12.4531 395.9219 13.3516 396.7422 Q14.25 397.5625 15.5156 397.5625 Q17.0469 397.5625 18.1016 396.4141 Q19.1562 395.2656 19.1562 393.3594 Q19.1562 391.5625 18.1406 390.5156 Q17.125 389.4688 15.4844 389.4688 Q14.4688 389.4688 13.6484 389.9297 Q12.8281 390.3906 12.3594 391.1406 L10.375 390.875 L12.0312 382.0469 L20.5781 382.0469 L20.5781 384.0625 L13.7188 384.0625 L12.7969 388.6875 Q14.3438 387.6094 16.0469 387.6094 Q18.2969 387.6094 19.8438 389.1641 Q21.3906 390.7188 21.3906 393.1719 Q21.3906 395.5 20.0312 397.2031 Q18.375 399.2969 15.5156 399.2969 Q13.1719 399.2969 11.6875 397.9844 Q10.2031 396.6719 10 394.5 Z" stroke="none"/><path d="M72.9375 24 L70.8281 24 L70.8281 10.5625 Q70.0781 11.2812 68.8359 12.0078 Q67.5938 12.7344 66.6094 13.0938 L66.6094 11.0625 Q68.3906 10.2344 69.7109 9.0469 Q71.0312 7.8594 71.5781 6.75 L72.9375 6.75 L72.9375 24 Z" stroke="none"/><path d="M156.0781 21.9688 L156.0781 24 L144.7344 24 Q144.7031 23.2344 144.9688 22.5312 Q145.4062 21.375 146.3594 20.25 Q147.3125 19.125 149.125 17.6406 Q151.9219 15.3438 152.9062 14.0078 Q153.8906 12.6719 153.8906 11.4688 Q153.8906 10.2188 152.9922 9.3594 Q152.0938 8.5 150.6562 8.5 Q149.1406 8.5 148.2266 9.4141 Q147.3125 10.3281 147.2969 11.9375 L145.125 11.7188 Q145.3438 9.2969 146.7969 8.0234 Q148.25 6.75 150.7031 6.75 Q153.1719 6.75 154.6172 8.1172 Q156.0625 9.4844 156.0625 11.5156 Q156.0625 12.5469 155.6406 13.5469 Q155.2188 14.5469 154.2422 15.6484 Q153.2656 16.75 150.9844 18.6719 Q149.0938 20.2656 148.5547 20.8281 Q148.0156 21.3906 147.6562 21.9688 L156.0781 21.9688 Z" stroke="none"/><path d="M225.0156 19.4688 L227.125 19.1875 Q227.4844 20.9688 228.3594 21.7656 Q229.2344 22.5625 230.4844 22.5625 Q231.9688 22.5625 232.9922 21.5312 Q234.0156 20.5 234.0156 18.9688 Q234.0156 17.5156 233.0703 16.5703 Q232.125 15.625 230.6562 15.625 Q230.0625 15.625 229.1719 15.8594 L229.4062 14.0156 Q229.6094 14.0312 229.75 14.0312 Q231.0938 14.0312 232.1719 13.3281 Q233.25 12.625 233.25 11.1719 Q233.25 10 232.4609 9.2422 Q231.6719 8.4844 230.4375 8.4844 Q229.2031 8.4844 228.3828 9.2578 Q227.5625 10.0312 227.3281 11.5781 L225.2188 11.2031 Q225.6094 9.0781 226.9766 7.9141 Q228.3438 6.75 230.3906 6.75 Q231.7969 6.75 232.9766 7.3516 Q234.1562 7.9531 234.7891 9 Q235.4219 10.0469 235.4219 11.2188 Q235.4219 12.3281 234.8203 13.2422 Q234.2188 14.1562 233.0469 14.6875 Q234.5781 15.0469 235.4219 16.1562 Q236.2656 17.2656 236.2656 18.9219 Q236.2656 21.1719 234.625 22.7422 Q232.9844 24.3125 230.4688 24.3125 Q228.2031 24.3125 226.7109 22.9609 Q225.2188 21.6094 225.0156 19.4688 Z" stroke="none"/><path d="M311.7656 24 L311.7656 19.8906 L304.3125 19.8906 L304.3125 17.9531 L312.1406 6.8125 L313.875 6.8125 L313.875 17.9531 L316.1875 17.9531 L316.1875 19.8906 L313.875 19.8906 L313.875 24 L311.7656 24 ZM311.7656 17.9531 L311.7656 10.2031 L306.375 17.9531 L311.7656 17.9531 Z" stroke="none"/><path d="M385 19.5 L387.2188 19.3125 Q387.4531 20.9219 388.3516 21.7422 Q389.25 22.5625 390.5156 22.5625 Q392.0469 22.5625 393.1016 21.4141 Q394.1562 20.2656 394.1562 18.3594 Q394.1562 16.5625 393.1406 15.5156 Q392.125 14.4688 390.4844 14.4688 Q389.4688 14.4688 388.6484 14.9297 Q387.8281 15.3906 387.3594 16.1406 L385.375 15.875 L387.0312 7.0469 L395.5781 7.0469 L395.5781 9.0625 L388.7188 9.0625 L387.7969 13.6875 Q389.3438 12.6094 391.0469 12.6094 Q393.2969 12.6094 394.8438 14.1641 Q396.3906 15.7188 396.3906 18.1719 Q396.3906 20.5 395.0312 22.2031 Q393.375 24.2969 390.5156 24.2969 Q388.1719 24.2969 386.6875 22.9844 Q385.2031 21.6719 385 19.5 Z" stroke="none"/><path d="M475.9375 11.0312 L473.8438 11.1875 Q473.5625 9.9531 473.0469 9.3906 Q472.1875 8.4844 470.9375 8.4844 Q469.9375 8.4844 469.1719 9.0469 Q468.1719 9.7656 467.6016 11.1641 Q467.0312 12.5625 467 15.1406 Q467.7656 13.9844 468.8672 13.4219 Q469.9688 12.8594 471.1719 12.8594 Q473.2812 12.8594 474.7656 14.4062 Q476.25 15.9531 476.25 18.4219 Q476.25 20.0312 475.5547 21.4219 Q474.8594 22.8125 473.6406 23.5547 Q472.4219 24.2969 470.875 24.2969 Q468.2344 24.2969 466.5703 22.3516 Q464.9062 20.4062 464.9062 15.9531 Q464.9062 10.9844 466.75 8.7188 Q468.3438 6.75 471.0625 6.75 Q473.0938 6.75 474.3906 7.8828 Q475.6875 9.0156 475.9375 11.0312 ZM467.3281 18.4375 Q467.3281 19.5156 467.7891 20.5156 Q468.25 21.5156 469.0859 22.0391 Q469.9219 22.5625 470.8281 22.5625 Q472.1719 22.5625 473.1328 21.4844 Q474.0938 20.4062 474.0938 18.5469 Q474.0938 16.7656 473.1406 15.7422 Q472.1875 14.7188 470.75 14.7188 Q469.3281 14.7188 468.3281 15.7422 Q467.3281 16.7656 467.3281 18.4375 Z" stroke="none"/><path d="M545.1406 9.0625 L545.1406 7.0469 L556.2656 7.0469 L556.2656 8.6875 Q554.625 10.4219 553.0078 13.3203 Q551.3906 16.2188 550.5156 19.2812 Q549.8906 21.4375 549.7031 24 L547.5469 24 Q547.5781 21.9688 548.3359 19.1016 Q549.0938 16.2344 550.5234 13.5625 Q551.9531 10.8906 553.5469 9.0625 L545.1406 9.0625 Z" stroke="none"/><path d="M628.25 14.6875 Q626.9375 14.2031 626.3047 13.3125 Q625.6719 12.4219 625.6719 11.1719 Q625.6719 9.2969 627.0156 8.0234 Q628.3594 6.75 630.5938 6.75 Q632.8438 6.75 634.2188 8.0547 Q635.5938 9.3594 635.5938 11.2344 Q635.5938 12.4375 634.9688 13.3203 Q634.3438 14.2031 633.0625 14.6875 Q634.6406 15.2031 635.4688 16.3516 Q636.2969 17.5 636.2969 19.0938 Q636.2969 21.2969 634.7344 22.7969 Q633.1719 24.2969 630.6406 24.2969 Q628.0938 24.2969 626.5312 22.7891 Q624.9688 21.2812 624.9688 19.0312 Q624.9688 17.3594 625.8203 16.2266 Q626.6719 15.0938 628.25 14.6875 ZM627.8281 11.1094 Q627.8281 12.3281 628.6094 13.1016 Q629.3906 13.875 630.6406 13.875 Q631.8594 13.875 632.6406 13.1094 Q633.4219 12.3438 633.4219 11.2188 Q633.4219 10.0625 632.6172 9.2734 Q631.8125 8.4844 630.625 8.4844 Q629.4219 8.4844 628.625 9.2578 Q627.8281 10.0312 627.8281 11.1094 ZM627.1406 19.0469 Q627.1406 19.9375 627.5703 20.7812 Q628 21.625 628.8438 22.0938 Q629.6875 22.5625 630.6562 22.5625 Q632.1719 22.5625 633.1562 21.5859 Q634.1406 20.6094 634.1406 19.1094 Q634.1406 17.5938 633.125 16.5938 Q632.1094 15.5938 630.5938 15.5938 Q629.0938 15.5938 628.1172 16.5781 Q627.1406 17.5625 627.1406 19.0469 Z" stroke="none"/><path d="M705.3125 20.0312 L707.3438 19.8438 Q707.5938 21.2656 708.3203 21.9141 Q709.0469 22.5625 710.1875 22.5625 Q711.1562 22.5625 711.8906 22.1172 Q712.625 21.6719 713.0938 20.9219 Q713.5625 20.1719 713.8828 18.9062 Q714.2031 17.6406 714.2031 16.3281 Q714.2031 16.1875 714.1875 15.9062 Q713.5469 16.9219 712.4531 17.5469 Q711.3594 18.1719 710.0781 18.1719 Q707.9531 18.1719 706.4766 16.625 Q705 15.0781 705 12.5469 Q705 9.9375 706.5391 8.3438 Q708.0781 6.75 710.4062 6.75 Q712.0781 6.75 713.4688 7.6484 Q714.8594 8.5469 715.5781 10.2188 Q716.2969 11.8906 716.2969 15.0625 Q716.2969 18.3438 715.5781 20.2969 Q714.8594 22.25 713.4531 23.2734 Q712.0469 24.2969 710.1406 24.2969 Q708.125 24.2969 706.8516 23.1719 Q705.5781 22.0469 705.3125 20.0312 ZM713.9531 12.4375 Q713.9531 10.625 712.9844 9.5625 Q712.0156 8.5 710.6562 8.5 Q709.25 8.5 708.2109 9.6484 Q707.1719 10.7969 707.1719 12.625 Q707.1719 14.2656 708.1562 15.2891 Q709.1406 16.3125 710.5938 16.3125 Q712.0625 16.3125 713.0078 15.2891 Q713.9531 14.2656 713.9531 12.4375 Z" stroke="none"/></g><g fill="gray" font-size="24px" stroke-dasharray="10" font-family="'Arial'" stroke-linecap="butt" stroke="gray"><line y2="190" fill="none" x1="110" clip-path="url(#clipPath1)" x2="130" y1="210"/><line y2="190" fill="none" x1="110" clip-path="url(#clipPath1)" x2="150" y1="230"/><line y2="190" fill="none" x1="110" clip-path="url(#clipPath1)" x2="170" y1="250"/><line y2="190" fill="none" x1="110" clip-path="url(#clipPath1)" x2="190" y1="270"/><line y2="210" fill="none" x1="130" clip-path="url(#clipPath1)" x2="190" y1="270"/><line y2="230" fill="none" x1="150" clip-path="url(#clipPath1)" x2="190" y1="270"/><line y2="250" fill="none" x1="170" clip-path="url(#clipPath1)" x2="190" y1="270"/><line y2="270" fill="none" x1="190" clip-path="url(#clipPath1)" x2="190" y1="270"/><line y2="110" fill="none" x1="30" clip-path="url(#clipPath2)" x2="50" y1="130"/><line y2="110" fill="none" x1="30" clip-path="url(#clipPath2)" x2="70" y1="150"/><line y2="110" fill="none" x1="30" clip-path="url(#clipPath2)" x2="90" y1="170"/><line y2="110" fill="none" x1="30" clip-path="url(#clipPath2)" x2="110" y1="190"/><line y2="130" fill="none" x1="50" clip-path="url(#clipPath2)" x2="110" y1="190"/><line y2="150" fill="none" x1="70" clip-path="url(#clipPath2)" x2="110" y1="190"/><line y2="170" fill="none" x1="90" clip-path="url(#clipPath2)" x2="110" y1="190"/><line y2="190" fill="none" x1="110" clip-path="url(#clipPath2)" x2="110" y1="190"/><line y2="110" fill="none" x1="110" clip-path="url(#clipPath3)" x2="130" y1="130"/><line y2="110" fill="none" x1="110" clip-path="url(#clipPath3)" x2="150" y1="150"/><line y2="110" fill="none" x1="110" clip-path="url(#clipPath3)" x2="170" y1="170"/><line y2="110" fill="none" x1="110" clip-path="url(#clipPath3)" x2="190" y1="190"/><line y2="130" fill="none" x1="130" clip-path="url(#clipPath3)" x2="190" y1="190"/><line y2="150" fill="none" x1="150" clip-path="url(#clipPath3)" x2="190" y1="190"/><line y2="170" fill="none" x1="170" clip-path="url(#clipPath3)" x2="190" y1="190"/><line y2="190" fill="none" x1="190" clip-path="url(#clipPath3)" x2="190" y1="190"/><line y2="190" fill="none" x1="190" clip-path="url(#clipPath4)" x2="210" y1="210"/><line y2="190" fill="none" x1="190" clip-path="url(#clipPath4)" x2="230" y1="230"/><line y2="190" fill="none" x1="190" clip-path="url(#clipPath4)" x2="250" y1="250"/><line y2="190" fill="none" x1="190" clip-path="url(#clipPath4)" x2="270" y1="270"/><line y2="210" fill="none" x1="210" clip-path="url(#clipPath4)" x2="270" y1="270"/><line y2="230" fill="none" x1="230" clip-path="url(#clipPath4)" x2="270" y1="270"/><line y2="250" fill="none" x1="250" clip-path="url(#clipPath4)" x2="270" y1="270"/><line y2="270" fill="none" x1="270" clip-path="url(#clipPath4)" x2="270" y1="270"/><line y2="30" fill="none" x1="110" clip-path="url(#clipPath5)" x2="130" y1="50"/><line y2="30" fill="none" x1="110" clip-path="url(#clipPath5)" x2="150" y1="70"/><line y2="30" fill="none" x1="110" clip-path="url(#clipPath5)" x2="170" y1="90"/><line y2="30" fill="none" x1="110" clip-path="url(#clipPath5)" x2="190" y1="110"/><line y2="50" fill="none" x1="130" clip-path="url(#clipPath5)" x2="190" y1="110"/><line y2="70" fill="none" x1="150" clip-path="url(#clipPath5)" x2="190" y1="110"/><line y2="90" fill="none" x1="170" clip-path="url(#clipPath5)" x2="190" y1="110"/><line y2="110" fill="none" x1="190" clip-path="url(#clipPath5)" x2="190" y1="110"/><line y2="110" fill="none" x1="190" clip-path="url(#clipPath6)" x2="210" y1="130"/><line y2="110" fill="none" x1="190" clip-path="url(#clipPath6)" x2="230" y1="150"/><line y2="110" fill="none" x1="190" clip-path="url(#clipPath6)" x2="250" y1="170"/><line y2="110" fill="none" x1="190" clip-path="url(#clipPath6)" x2="270" y1="190"/><line y2="130" fill="none" x1="210" clip-path="url(#clipPath6)" x2="270" y1="190"/><line y2="150" fill="none" x1="230" clip-path="url(#clipPath6)" x2="270" y1="190"/><line y2="170" fill="none" x1="250" clip-path="url(#clipPath6)" x2="270" y1="190"/><line y2="190" fill="none" x1="270" clip-path="url(#clipPath6)" x2="270" y1="190"/><line y2="190" fill="none" x1="270" clip-path="url(#clipPath7)" x2="290" y1="210"/><line y2="190" fill="none" x1="270" clip-path="url(#clipPath7)" x2="310" y1="230"/><line y2="190" fill="none" x1="270" clip-path="url(#clipPath7)" x2="330" y1="250"/><line y2="190" fill="none" x1="270" clip-path="url(#clipPath7)" x2="350" y1="270"/><line y2="210" fill="none" x1="290" clip-path="url(#clipPath7)" x2="350" y1="270"/><line y2="230" fill="none" x1="310" clip-path="url(#clipPath7)" x2="350" y1="270"/><line y2="250" fill="none" x1="330" clip-path="url(#clipPath7)" x2="350" y1="270"/><line y2="270" fill="none" x1="350" clip-path="url(#clipPath7)" x2="350" y1="270"/><line y2="110" fill="none" x1="270" clip-path="url(#clipPath8)" x2="290" y1="130"/><line y2="110" fill="none" x1="270" clip-path="url(#clipPath8)" x2="310" y1="150"/><line y2="110" fill="none" x1="270" clip-path="url(#clipPath8)" x2="330" y1="170"/><line y2="110" fill="none" x1="270" clip-path="url(#clipPath8)" x2="350" y1="190"/><line y2="130" fill="none" x1="290" clip-path="url(#clipPath8)" x2="350" y1="190"/><line y2="150" fill="none" x1="310" clip-path="url(#clipPath8)" x2="350" y1="190"/><line y2="170" fill="none" x1="330" clip-path="url(#clipPath8)" x2="350" y1="190"/><line y2="190" fill="none" x1="350" clip-path="url(#clipPath8)" x2="350" y1="190"/><line y2="30" fill="none" x1="190" clip-path="url(#clipPath9)" x2="210" y1="50"/><line y2="30" fill="none" x1="190" clip-path="url(#clipPath9)" x2="230" y1="70"/><line y2="30" fill="none" x1="190" clip-path="url(#clipPath9)" x2="250" y1="90"/><line y2="30" fill="none" x1="190" clip-path="url(#clipPath9)" x2="270" y1="110"/><line y2="50" fill="none" x1="210" clip-path="url(#clipPath9)" x2="270" y1="110"/><line y2="70" fill="none" x1="230" clip-path="url(#clipPath9)" x2="270" y1="110"/><line y2="90" fill="none" x1="250" clip-path="url(#clipPath9)" x2="270" y1="110"/><line y2="110" fill="none" x1="270" clip-path="url(#clipPath9)" x2="270" y1="110"/><line y2="30" fill="none" x1="270" clip-path="url(#clipPath10)" x2="290" y1="50"/><line y2="30" fill="none" x1="270" clip-path="url(#clipPath10)" x2="310" y1="70"/><line y2="30" fill="none" x1="270" clip-path="url(#clipPath10)" x2="330" y1="90"/><line y2="30" fill="none" x1="270" clip-path="url(#clipPath10)" x2="350" y1="110"/><line y2="50" fill="none" x1="290" clip-path="url(#clipPath10)" x2="350" y1="110"/><line y2="70" fill="none" x1="310" clip-path="url(#clipPath10)" x2="350" y1="110"/><line y2="90" fill="none" x1="330" clip-path="url(#clipPath10)" x2="350" y1="110"/><line y2="110" fill="none" x1="350" clip-path="url(#clipPath10)" x2="350" y1="110"/><line y2="110" fill="none" x1="350" clip-path="url(#clipPath11)" x2="370" y1="130"/><line y2="110" fill="none" x1="350" clip-path="url(#clipPath11)" x2="390" y1="150"/><line y2="110" fill="none" x1="350" clip-path="url(#clipPath11)" x2="410" y1="170"/><line y2="110" fill="none" x1="350" clip-path="url(#clipPath11)" x2="430" y1="190"/><line y2="130" fill="none" x1="370" clip-path="url(#clipPath11)" x2="430" y1="190"/><line y2="150" fill="none" x1="390" clip-path="url(#clipPath11)" x2="430" y1="190"/><line y2="170" fill="none" x1="410" clip-path="url(#clipPath11)" x2="430" y1="190"/><line y2="190" fill="none" x1="430" clip-path="url(#clipPath11)" x2="430" y1="190"/></g><g font-size="24px" stroke-linecap="butt" fill="rgb(4,0,255)" font-family="'Arial'" stroke-dasharray="5" stroke="rgb(4,0,255)" stroke-miterlimit="5"><line y2="430" fill="none" x1="350" clip-path="url(#clipPath12)" x2="410" y1="370"/><line y2="430" fill="none" x1="350" clip-path="url(#clipPath12)" x2="390" y1="390"/><line y2="430" fill="none" x1="350" clip-path="url(#clipPath12)" x2="370" y1="410"/><line y2="430" fill="none" x1="350" clip-path="url(#clipPath12)" x2="350" y1="430"/><line y2="430" fill="none" x1="350" clip-path="url(#clipPath12)" x2="430" y1="350"/><line y2="410" fill="none" x1="370" clip-path="url(#clipPath12)" x2="430" y1="350"/><line y2="390" fill="none" x1="390" clip-path="url(#clipPath12)" x2="430" y1="350"/><line y2="370" fill="none" x1="410" clip-path="url(#clipPath12)" x2="430" y1="350"/><line y2="350" fill="none" x1="430" clip-path="url(#clipPath12)" x2="430" y1="350"/><line y2="350" fill="none" x1="270" clip-path="url(#clipPath13)" x2="330" y1="290"/><line y2="350" fill="none" x1="270" clip-path="url(#clipPath13)" x2="310" y1="310"/><line y2="350" fill="none" x1="270" clip-path="url(#clipPath13)" x2="290" y1="330"/><line y2="350" fill="none" x1="270" clip-path="url(#clipPath13)" x2="270" y1="350"/><line y2="350" fill="none" x1="270" clip-path="url(#clipPath13)" x2="350" y1="270"/><line y2="330" fill="none" x1="290" clip-path="url(#clipPath13)" x2="350" y1="270"/><line y2="310" fill="none" x1="310" clip-path="url(#clipPath13)" x2="350" y1="270"/><line y2="290" fill="none" x1="330" clip-path="url(#clipPath13)" x2="350" y1="270"/><line y2="270" fill="none" x1="350" clip-path="url(#clipPath13)" x2="350" y1="270"/><line y2="350" fill="none" x1="350" clip-path="url(#clipPath14)" x2="410" y1="290"/><line y2="350" fill="none" x1="350" clip-path="url(#clipPath14)" x2="390" y1="310"/><line y2="350" fill="none" x1="350" clip-path="url(#clipPath14)" x2="370" y1="330"/><line y2="350" fill="none" x1="350" clip-path="url(#clipPath14)" x2="350" y1="350"/><line y2="350" fill="none" x1="350" clip-path="url(#clipPath14)" x2="430" y1="270"/><line y2="330" fill="none" x1="370" clip-path="url(#clipPath14)" x2="430" y1="270"/><line y2="310" fill="none" x1="390" clip-path="url(#clipPath14)" x2="430" y1="270"/><line y2="290" fill="none" x1="410" clip-path="url(#clipPath14)" x2="430" y1="270"/><line y2="270" fill="none" x1="430" clip-path="url(#clipPath14)" x2="430" y1="270"/><line y2="270" fill="none" x1="350" clip-path="url(#clipPath15)" x2="410" y1="210"/><line y2="270" fill="none" x1="350" clip-path="url(#clipPath15)" x2="390" y1="230"/><line y2="270" fill="none" x1="350" clip-path="url(#clipPath15)" x2="370" y1="250"/><line y2="270" fill="none" x1="350" clip-path="url(#clipPath15)" x2="350" y1="270"/><line y2="270" fill="none" x1="350" clip-path="url(#clipPath15)" x2="430" y1="190"/><line y2="250" fill="none" x1="370" clip-path="url(#clipPath15)" x2="430" y1="190"/><line y2="230" fill="none" x1="390" clip-path="url(#clipPath15)" x2="430" y1="190"/><line y2="210" fill="none" x1="410" clip-path="url(#clipPath15)" x2="430" y1="190"/><line y2="190" fill="none" x1="430" clip-path="url(#clipPath15)" x2="430" y1="190"/><line y2="350" fill="none" x1="430" clip-path="url(#clipPath16)" x2="490" y1="290"/><line y2="350" fill="none" x1="430" clip-path="url(#clipPath16)" x2="470" y1="310"/><line y2="350" fill="none" x1="430" clip-path="url(#clipPath16)" x2="450" y1="330"/><line y2="350" fill="none" x1="430" clip-path="url(#clipPath16)" x2="430" y1="350"/><line y2="350" fill="none" x1="430" clip-path="url(#clipPath16)" x2="510" y1="270"/><line y2="330" fill="none" x1="450" clip-path="url(#clipPath16)" x2="510" y1="270"/><line y2="310" fill="none" x1="470" clip-path="url(#clipPath16)" x2="510" y1="270"/><line y2="290" fill="none" x1="490" clip-path="url(#clipPath16)" x2="510" y1="270"/><line y2="270" fill="none" x1="510" clip-path="url(#clipPath16)" x2="510" y1="270"/><line y2="190" fill="none" x1="270" clip-path="url(#clipPath8)" x2="330" y1="130"/><line y2="190" fill="none" x1="270" clip-path="url(#clipPath8)" x2="310" y1="150"/><line y2="190" fill="none" x1="270" clip-path="url(#clipPath8)" x2="290" y1="170"/><line y2="190" fill="none" x1="270" clip-path="url(#clipPath8)" x2="270" y1="190"/><line y2="190" fill="none" x1="270" clip-path="url(#clipPath8)" x2="350" y1="110"/><line y2="170" fill="none" x1="290" clip-path="url(#clipPath8)" x2="350" y1="110"/><line y2="150" fill="none" x1="310" clip-path="url(#clipPath8)" x2="350" y1="110"/><line y2="130" fill="none" x1="330" clip-path="url(#clipPath8)" x2="350" y1="110"/><line y2="110" fill="none" x1="350" clip-path="url(#clipPath8)" x2="350" y1="110"/><line y2="190" fill="none" x1="350" clip-path="url(#clipPath11)" x2="410" y1="130"/><line y2="190" fill="none" x1="350" clip-path="url(#clipPath11)" x2="390" y1="150"/><line y2="190" fill="none" x1="350" clip-path="url(#clipPath11)" x2="370" y1="170"/><line y2="190" fill="none" x1="350" clip-path="url(#clipPath11)" x2="350" y1="190"/><line y2="190" fill="none" x1="350" clip-path="url(#clipPath11)" x2="430" y1="110"/><line y2="170" fill="none" x1="370" clip-path="url(#clipPath11)" x2="430" y1="110"/><line y2="150" fill="none" x1="390" clip-path="url(#clipPath11)" x2="430" y1="110"/><line y2="130" fill="none" x1="410" clip-path="url(#clipPath11)" x2="430" y1="110"/><line y2="110" fill="none" x1="430" clip-path="url(#clipPath11)" x2="430" y1="110"/><line y2="190" fill="none" x1="430" clip-path="url(#clipPath17)" x2="490" y1="130"/><line y2="190" fill="none" x1="430" clip-path="url(#clipPath17)" x2="470" y1="150"/><line y2="190" fill="none" x1="430" clip-path="url(#clipPath17)" x2="450" y1="170"/><line y2="190" fill="none" x1="430" clip-path="url(#clipPath17)" x2="430" y1="190"/><line y2="190" fill="none" x1="430" clip-path="url(#clipPath17)" x2="510" y1="110"/><line y2="170" fill="none" x1="450" clip-path="url(#clipPath17)" x2="510" y1="110"/><line y2="150" fill="none" x1="470" clip-path="url(#clipPath17)" x2="510" y1="110"/><line y2="130" fill="none" x1="490" clip-path="url(#clipPath17)" x2="510" y1="110"/><line y2="110" fill="none" x1="510" clip-path="url(#clipPath17)" x2="510" y1="110"/><line y2="110" fill="none" x1="350" clip-path="url(#clipPath18)" x2="410" y1="50"/><line y2="110" fill="none" x1="350" clip-path="url(#clipPath18)" x2="390" y1="70"/><line y2="110" fill="none" x1="350" clip-path="url(#clipPath18)" x2="370" y1="90"/><line y2="110" fill="none" x1="350" clip-path="url(#clipPath18)" x2="350" y1="110"/><line y2="110" fill="none" x1="350" clip-path="url(#clipPath18)" x2="430" y1="30"/><line y2="90" fill="none" x1="370" clip-path="url(#clipPath18)" x2="430" y1="30"/><line y2="70" fill="none" x1="390" clip-path="url(#clipPath18)" x2="430" y1="30"/><line y2="50" fill="none" x1="410" clip-path="url(#clipPath18)" x2="430" y1="30"/><line y2="30" fill="none" x1="430" clip-path="url(#clipPath18)" x2="430" y1="30"/></g><g fill="rgb(255,169,0)" font-size="24px" font-family="'Arial'" stroke="rgb(255,169,0)"><line y2="270" fill="none" x1="443.3333" clip-path="url(#clipPath19)" x2="443.3333" y1="190"/><line y2="270" fill="none" x1="456.6667" clip-path="url(#clipPath19)" x2="456.6667" y1="190"/><line y2="270" fill="none" x1="470" clip-path="url(#clipPath19)" x2="470" y1="190"/><line y2="270" fill="none" x1="483.3333" clip-path="url(#clipPath19)" x2="483.3333" y1="190"/><line y2="270" fill="none" x1="496.6667" clip-path="url(#clipPath19)" x2="496.6667" y1="190"/><line y2="190" fill="none" x1="363.3333" clip-path="url(#clipPath11)" x2="363.3333" y1="110"/><line y2="190" fill="none" x1="376.6667" clip-path="url(#clipPath11)" x2="376.6667" y1="110"/><line y2="190" fill="none" x1="390" clip-path="url(#clipPath11)" x2="390" y1="110"/><line y2="190" fill="none" x1="403.3333" clip-path="url(#clipPath11)" x2="403.3333" y1="110"/><line y2="190" fill="none" x1="416.6667" clip-path="url(#clipPath11)" x2="416.6667" y1="110"/><line y2="270" fill="none" x1="523.3333" clip-path="url(#clipPath20)" x2="523.3333" y1="190"/><line y2="270" fill="none" x1="536.6667" clip-path="url(#clipPath20)" x2="536.6667" y1="190"/><line y2="270" fill="none" x1="550" clip-path="url(#clipPath20)" x2="550" y1="190"/><line y2="270" fill="none" x1="563.3333" clip-path="url(#clipPath20)" x2="563.3333" y1="190"/><line y2="270" fill="none" x1="576.6667" clip-path="url(#clipPath20)" x2="576.6667" y1="190"/><line y2="190" fill="none" x1="443.3333" clip-path="url(#clipPath17)" x2="443.3333" y1="110"/><line y2="190" fill="none" x1="456.6667" clip-path="url(#clipPath17)" x2="456.6667" y1="110"/><line y2="190" fill="none" x1="470" clip-path="url(#clipPath17)" x2="470" y1="110"/><line y2="190" fill="none" x1="483.3333" clip-path="url(#clipPath17)" x2="483.3333" y1="110"/><line y2="190" fill="none" x1="496.6667" clip-path="url(#clipPath17)" x2="496.6667" y1="110"/><line y2="110" fill="none" x1="443.3333" clip-path="url(#clipPath21)" x2="443.3333" y1="30"/><line y2="110" fill="none" x1="456.6667" clip-path="url(#clipPath21)" x2="456.6667" y1="30"/><line y2="110" fill="none" x1="470" clip-path="url(#clipPath21)" x2="470" y1="30"/><line y2="110" fill="none" x1="483.3333" clip-path="url(#clipPath21)" x2="483.3333" y1="30"/><line y2="110" fill="none" x1="496.6667" clip-path="url(#clipPath21)" x2="496.6667" y1="30"/><line y2="270" fill="none" x1="603.3333" clip-path="url(#clipPath22)" x2="603.3333" y1="190"/><line y2="270" fill="none" x1="616.6667" clip-path="url(#clipPath22)" x2="616.6667" y1="190"/><line y2="270" fill="none" x1="630" clip-path="url(#clipPath22)" x2="630" y1="190"/><line y2="270" fill="none" x1="643.3333" clip-path="url(#clipPath22)" x2="643.3333" y1="190"/><line y2="270" fill="none" x1="656.6667" clip-path="url(#clipPath22)" x2="656.6667" y1="190"/><line y2="190" fill="none" x1="523.3333" clip-path="url(#clipPath23)" x2="523.3333" y1="110"/><line y2="190" fill="none" x1="536.6667" clip-path="url(#clipPath23)" x2="536.6667" y1="110"/><line y2="190" fill="none" x1="550" clip-path="url(#clipPath23)" x2="550" y1="110"/><line y2="190" fill="none" x1="563.3333" clip-path="url(#clipPath23)" x2="563.3333" y1="110"/><line y2="190" fill="none" x1="576.6667" clip-path="url(#clipPath23)" x2="576.6667" y1="110"/><line y2="110" fill="none" x1="523.3333" clip-path="url(#clipPath24)" x2="523.3333" y1="30"/><line y2="110" fill="none" x1="536.6667" clip-path="url(#clipPath24)" x2="536.6667" y1="30"/><line y2="110" fill="none" x1="550" clip-path="url(#clipPath24)" x2="550" y1="30"/><line y2="110" fill="none" x1="563.3333" clip-path="url(#clipPath24)" x2="563.3333" y1="30"/><line y2="110" fill="none" x1="576.6667" clip-path="url(#clipPath24)" x2="576.6667" y1="30"/><line y2="190" fill="none" x1="603.3333" clip-path="url(#clipPath25)" x2="603.3333" y1="110"/><line y2="190" fill="none" x1="616.6667" clip-path="url(#clipPath25)" x2="616.6667" y1="110"/><line y2="190" fill="none" x1="630" clip-path="url(#clipPath25)" x2="630" y1="110"/><line y2="190" fill="none" x1="643.3333" clip-path="url(#clipPath25)" x2="643.3333" y1="110"/><line y2="190" fill="none" x1="656.6667" clip-path="url(#clipPath25)" x2="656.6667" y1="110"/><line y2="190" fill="none" x1="683.3333" clip-path="url(#clipPath26)" x2="683.3333" y1="110"/><line y2="190" fill="none" x1="696.6667" clip-path="url(#clipPath26)" x2="696.6667" y1="110"/><line y2="190" fill="none" x1="710" clip-path="url(#clipPath26)" x2="710" y1="110"/><line y2="190" fill="none" x1="723.3333" clip-path="url(#clipPath26)" x2="723.3333" y1="110"/><line y2="190" fill="none" x1="736.6667" clip-path="url(#clipPath26)" x2="736.6667" y1="110"/><line y2="110" fill="none" x1="603.3333" clip-path="url(#clipPath27)" x2="603.3333" y1="30"/><line y2="110" fill="none" x1="616.6667" clip-path="url(#clipPath27)" x2="616.6667" y1="30"/><line y2="110" fill="none" x1="630" clip-path="url(#clipPath27)" x2="630" y1="30"/><line y2="110" fill="none" x1="643.3333" clip-path="url(#clipPath27)" x2="643.3333" y1="30"/><line y2="110" fill="none" x1="656.6667" clip-path="url(#clipPath27)" x2="656.6667" y1="30"/><line clip-path="url(#clipPath28)" fill="none" x1="190" x2="270" y1="283.3333" y2="283.3333" stroke="rgb(255,4,0)"/><line clip-path="url(#clipPath28)" fill="none" x1="190" x2="270" y1="296.6667" y2="296.6667" stroke="rgb(255,4,0)"/><line clip-path="url(#clipPath28)" fill="none" x1="190" x2="270" y1="310" y2="310" stroke="rgb(255,4,0)"/><line clip-path="url(#clipPath28)" fill="none" x1="190" x2="270" y1="323.3333" y2="323.3333" stroke="rgb(255,4,0)"/><line clip-path="url(#clipPath28)" fill="none" x1="190" x2="270" y1="336.6667" y2="336.6667" stroke="rgb(255,4,0)"/><line clip-path="url(#clipPath1)" fill="none" x1="110" x2="190" y1="203.3333" y2="203.3333" stroke="rgb(255,4,0)"/><line clip-path="url(#clipPath1)" fill="none" x1="110" x2="190" y1="216.6667" y2="216.6667" stroke="rgb(255,4,0)"/><line clip-path="url(#clipPath1)" fill="none" x1="110" x2="190" y1="230" y2="230" stroke="rgb(255,4,0)"/><line clip-path="url(#clipPath1)" fill="none" x1="110" x2="190" y1="243.3333" y2="243.3333" stroke="rgb(255,4,0)"/><line clip-path="url(#clipPath1)" fill="none" x1="110" x2="190" y1="256.6667" y2="256.6667" stroke="rgb(255,4,0)"/><line clip-path="url(#clipPath29)" fill="none" x1="270" x2="350" y1="363.3333" y2="363.3333" stroke="rgb(255,4,0)"/><line clip-path="url(#clipPath29)" fill="none" x1="270" x2="350" y1="376.6667" y2="376.6667" stroke="rgb(255,4,0)"/><line clip-path="url(#clipPath29)" fill="none" x1="270" x2="350" y1="390" y2="390" stroke="rgb(255,4,0)"/><line clip-path="url(#clipPath29)" fill="none" x1="270" x2="350" y1="403.3333" y2="403.3333" stroke="rgb(255,4,0)"/><line clip-path="url(#clipPath29)" fill="none" x1="270" x2="350" y1="416.6667" y2="416.6667" stroke="rgb(255,4,0)"/><line clip-path="url(#clipPath13)" fill="none" x1="270" x2="350" y1="283.3333" y2="283.3333" stroke="rgb(255,4,0)"/><line clip-path="url(#clipPath13)" fill="none" x1="270" x2="350" y1="296.6667" y2="296.6667" stroke="rgb(255,4,0)"/><line clip-path="url(#clipPath13)" fill="none" x1="270" x2="350" y1="310" y2="310" stroke="rgb(255,4,0)"/><line clip-path="url(#clipPath13)" fill="none" x1="270" x2="350" y1="323.3333" y2="323.3333" stroke="rgb(255,4,0)"/><line clip-path="url(#clipPath13)" fill="none" x1="270" x2="350" y1="336.6667" y2="336.6667" stroke="rgb(255,4,0)"/><line clip-path="url(#clipPath4)" fill="none" x1="190" x2="270" y1="203.3333" y2="203.3333" stroke="rgb(255,4,0)"/><line clip-path="url(#clipPath4)" fill="none" x1="190" x2="270" y1="216.6667" y2="216.6667" stroke="rgb(255,4,0)"/><line clip-path="url(#clipPath4)" fill="none" x1="190" x2="270" y1="230" y2="230" stroke="rgb(255,4,0)"/><line clip-path="url(#clipPath4)" fill="none" x1="190" x2="270" y1="243.3333" y2="243.3333" stroke="rgb(255,4,0)"/><line clip-path="url(#clipPath4)" fill="none" x1="190" x2="270" y1="256.6667" y2="256.6667" stroke="rgb(255,4,0)"/><line clip-path="url(#clipPath14)" fill="none" x1="350" x2="430" y1="283.3333" y2="283.3333" stroke="rgb(255,4,0)"/><line clip-path="url(#clipPath14)" fill="none" x1="350" x2="430" y1="296.6667" y2="296.6667" stroke="rgb(255,4,0)"/><line clip-path="url(#clipPath14)" fill="none" x1="350" x2="430" y1="310" y2="310" stroke="rgb(255,4,0)"/><line clip-path="url(#clipPath14)" fill="none" x1="350" x2="430" y1="323.3333" y2="323.3333" stroke="rgb(255,4,0)"/><line clip-path="url(#clipPath14)" fill="none" x1="350" x2="430" y1="336.6667" y2="336.6667" stroke="rgb(255,4,0)"/><line clip-path="url(#clipPath7)" fill="none" x1="270" x2="350" y1="203.3333" y2="203.3333" stroke="rgb(255,4,0)"/><line clip-path="url(#clipPath7)" fill="none" x1="270" x2="350" y1="216.6667" y2="216.6667" stroke="rgb(255,4,0)"/><line clip-path="url(#clipPath7)" fill="none" x1="270" x2="350" y1="230" y2="230" stroke="rgb(255,4,0)"/><line clip-path="url(#clipPath7)" fill="none" x1="270" x2="350" y1="243.3333" y2="243.3333" stroke="rgb(255,4,0)"/><line clip-path="url(#clipPath7)" fill="none" x1="270" x2="350" y1="256.6667" y2="256.6667" stroke="rgb(255,4,0)"/><line clip-path="url(#clipPath30)" fill="none" x1="110" x2="190" y1="363.3333" y2="363.3333" stroke="rgb(255,4,0)"/><line clip-path="url(#clipPath30)" fill="none" x1="110" x2="190" y1="376.6667" y2="376.6667" stroke="rgb(255,4,0)"/><line clip-path="url(#clipPath30)" fill="none" x1="110" x2="190" y1="390" y2="390" stroke="rgb(255,4,0)"/><line clip-path="url(#clipPath30)" fill="none" x1="110" x2="190" y1="403.3333" y2="403.3333" stroke="rgb(255,4,0)"/><line clip-path="url(#clipPath30)" fill="none" x1="110" x2="190" y1="416.6667" y2="416.6667" stroke="rgb(255,4,0)"/><line clip-path="url(#clipPath31)" fill="none" x1="30" x2="110" y1="283.3333" y2="283.3333" stroke="rgb(255,4,0)"/><line clip-path="url(#clipPath31)" fill="none" x1="30" x2="110" y1="296.6667" y2="296.6667" stroke="rgb(255,4,0)"/><line clip-path="url(#clipPath31)" fill="none" x1="30" x2="110" y1="310" y2="310" stroke="rgb(255,4,0)"/><line clip-path="url(#clipPath31)" fill="none" x1="30" x2="110" y1="323.3333" y2="323.3333" stroke="rgb(255,4,0)"/><line clip-path="url(#clipPath31)" fill="none" x1="30" x2="110" y1="336.6667" y2="336.6667" stroke="rgb(255,4,0)"/><line clip-path="url(#clipPath32)" fill="none" x1="110" x2="190" y1="283.3333" y2="283.3333" stroke="rgb(255,4,0)"/><line clip-path="url(#clipPath32)" fill="none" x1="110" x2="190" y1="296.6667" y2="296.6667" stroke="rgb(255,4,0)"/><line clip-path="url(#clipPath32)" fill="none" x1="110" x2="190" y1="310" y2="310" stroke="rgb(255,4,0)"/><line clip-path="url(#clipPath32)" fill="none" x1="110" x2="190" y1="323.3333" y2="323.3333" stroke="rgb(255,4,0)"/><line clip-path="url(#clipPath32)" fill="none" x1="110" x2="190" y1="336.6667" y2="336.6667" stroke="rgb(255,4,0)"/><line clip-path="url(#clipPath33)" fill="none" x1="190" x2="270" y1="363.3333" y2="363.3333" stroke="rgb(255,4,0)"/><line clip-path="url(#clipPath33)" fill="none" x1="190" x2="270" y1="376.6667" y2="376.6667" stroke="rgb(255,4,0)"/><line clip-path="url(#clipPath33)" fill="none" x1="190" x2="270" y1="390" y2="390" stroke="rgb(255,4,0)"/><line clip-path="url(#clipPath33)" fill="none" x1="190" x2="270" y1="403.3333" y2="403.3333" stroke="rgb(255,4,0)"/><line clip-path="url(#clipPath33)" fill="none" x1="190" x2="270" y1="416.6667" y2="416.6667" stroke="rgb(255,4,0)"/></g><g fill="rgb(238,130,236)" font-size="24px" stroke-dasharray="10" font-family="'Arial'" stroke-linecap="butt" stroke="rgb(238,130,236)"><line y2="270" fill="none" x1="350" clip-path="url(#clipPath14)" x2="370" y1="290"/><line y2="270" fill="none" x1="350" clip-path="url(#clipPath14)" x2="390" y1="310"/><line y2="270" fill="none" x1="350" clip-path="url(#clipPath14)" x2="410" y1="330"/><line y2="270" fill="none" x1="350" clip-path="url(#clipPath14)" x2="430" y1="350"/><line y2="290" fill="none" x1="370" clip-path="url(#clipPath14)" x2="430" y1="350"/><line y2="310" fill="none" x1="390" clip-path="url(#clipPath14)" x2="430" y1="350"/><line y2="330" fill="none" x1="410" clip-path="url(#clipPath14)" x2="430" y1="350"/><line y2="350" fill="none" x1="430" clip-path="url(#clipPath14)" x2="430" y1="350"/><line y2="350" fill="none" x1="430" clip-path="url(#clipPath34)" x2="450" y1="370"/><line y2="350" fill="none" x1="430" clip-path="url(#clipPath34)" x2="470" y1="390"/><line y2="350" fill="none" x1="430" clip-path="url(#clipPath34)" x2="490" y1="410"/><line y2="350" fill="none" x1="430" clip-path="url(#clipPath34)" x2="510" y1="430"/><line y2="370" fill="none" x1="450" clip-path="url(#clipPath34)" x2="510" y1="430"/><line y2="390" fill="none" x1="470" clip-path="url(#clipPath34)" x2="510" y1="430"/><line y2="410" fill="none" x1="490" clip-path="url(#clipPath34)" x2="510" y1="430"/><line y2="430" fill="none" x1="510" clip-path="url(#clipPath34)" x2="510" y1="430"/><line y2="270" fill="none" x1="430" clip-path="url(#clipPath16)" x2="450" y1="290"/><line y2="270" fill="none" x1="430" clip-path="url(#clipPath16)" x2="470" y1="310"/><line y2="270" fill="none" x1="430" clip-path="url(#clipPath16)" x2="490" y1="330"/><line y2="270" fill="none" x1="430" clip-path="url(#clipPath16)" x2="510" y1="350"/><line y2="290" fill="none" x1="450" clip-path="url(#clipPath16)" x2="510" y1="350"/><line y2="310" fill="none" x1="470" clip-path="url(#clipPath16)" x2="510" y1="350"/><line y2="330" fill="none" x1="490" clip-path="url(#clipPath16)" x2="510" y1="350"/><line y2="350" fill="none" x1="510" clip-path="url(#clipPath16)" x2="510" y1="350"/><line y2="350" fill="none" x1="510" clip-path="url(#clipPath35)" x2="530" y1="370"/><line y2="350" fill="none" x1="510" clip-path="url(#clipPath35)" x2="550" y1="390"/><line y2="350" fill="none" x1="510" clip-path="url(#clipPath35)" x2="570" y1="410"/><line y2="350" fill="none" x1="510" clip-path="url(#clipPath35)" x2="590" y1="430"/><line y2="370" fill="none" x1="530" clip-path="url(#clipPath35)" x2="590" y1="430"/><line y2="390" fill="none" x1="550" clip-path="url(#clipPath35)" x2="590" y1="430"/><line y2="410" fill="none" x1="570" clip-path="url(#clipPath35)" x2="590" y1="430"/><line y2="430" fill="none" x1="590" clip-path="url(#clipPath35)" x2="590" y1="430"/><line y2="190" fill="none" x1="430" clip-path="url(#clipPath19)" x2="450" y1="210"/><line y2="190" fill="none" x1="430" clip-path="url(#clipPath19)" x2="470" y1="230"/><line y2="190" fill="none" x1="430" clip-path="url(#clipPath19)" x2="490" y1="250"/><line y2="190" fill="none" x1="430" clip-path="url(#clipPath19)" x2="510" y1="270"/><line y2="210" fill="none" x1="450" clip-path="url(#clipPath19)" x2="510" y1="270"/><line y2="230" fill="none" x1="470" clip-path="url(#clipPath19)" x2="510" y1="270"/><line y2="250" fill="none" x1="490" clip-path="url(#clipPath19)" x2="510" y1="270"/><line y2="270" fill="none" x1="510" clip-path="url(#clipPath19)" x2="510" y1="270"/><line y2="350" fill="none" x1="590" clip-path="url(#clipPath36)" x2="610" y1="370"/><line y2="350" fill="none" x1="590" clip-path="url(#clipPath36)" x2="630" y1="390"/><line y2="350" fill="none" x1="590" clip-path="url(#clipPath36)" x2="650" y1="410"/><line y2="350" fill="none" x1="590" clip-path="url(#clipPath36)" x2="670" y1="430"/><line y2="370" fill="none" x1="610" clip-path="url(#clipPath36)" x2="670" y1="430"/><line y2="390" fill="none" x1="630" clip-path="url(#clipPath36)" x2="670" y1="430"/><line y2="410" fill="none" x1="650" clip-path="url(#clipPath36)" x2="670" y1="430"/><line y2="430" fill="none" x1="670" clip-path="url(#clipPath36)" x2="670" y1="430"/><line y2="270" fill="none" x1="510" clip-path="url(#clipPath37)" x2="530" y1="290"/><line y2="270" fill="none" x1="510" clip-path="url(#clipPath37)" x2="550" y1="310"/><line y2="270" fill="none" x1="510" clip-path="url(#clipPath37)" x2="570" y1="330"/><line y2="270" fill="none" x1="510" clip-path="url(#clipPath37)" x2="590" y1="350"/><line y2="290" fill="none" x1="530" clip-path="url(#clipPath37)" x2="590" y1="350"/><line y2="310" fill="none" x1="550" clip-path="url(#clipPath37)" x2="590" y1="350"/><line y2="330" fill="none" x1="570" clip-path="url(#clipPath37)" x2="590" y1="350"/><line y2="350" fill="none" x1="590" clip-path="url(#clipPath37)" x2="590" y1="350"/><line y2="190" fill="none" x1="510" clip-path="url(#clipPath20)" x2="530" y1="210"/><line y2="190" fill="none" x1="510" clip-path="url(#clipPath20)" x2="550" y1="230"/><line y2="190" fill="none" x1="510" clip-path="url(#clipPath20)" x2="570" y1="250"/><line y2="190" fill="none" x1="510" clip-path="url(#clipPath20)" x2="590" y1="270"/><line y2="210" fill="none" x1="530" clip-path="url(#clipPath20)" x2="590" y1="270"/><line y2="230" fill="none" x1="550" clip-path="url(#clipPath20)" x2="590" y1="270"/><line y2="250" fill="none" x1="570" clip-path="url(#clipPath20)" x2="590" y1="270"/><line y2="270" fill="none" x1="590" clip-path="url(#clipPath20)" x2="590" y1="270"/><line y2="270" fill="none" x1="590" clip-path="url(#clipPath38)" x2="610" y1="290"/><line y2="270" fill="none" x1="590" clip-path="url(#clipPath38)" x2="630" y1="310"/><line y2="270" fill="none" x1="590" clip-path="url(#clipPath38)" x2="650" y1="330"/><line y2="270" fill="none" x1="590" clip-path="url(#clipPath38)" x2="670" y1="350"/><line y2="290" fill="none" x1="610" clip-path="url(#clipPath38)" x2="670" y1="350"/><line y2="310" fill="none" x1="630" clip-path="url(#clipPath38)" x2="670" y1="350"/><line y2="330" fill="none" x1="650" clip-path="url(#clipPath38)" x2="670" y1="350"/><line y2="350" fill="none" x1="670" clip-path="url(#clipPath38)" x2="670" y1="350"/><line y2="190" fill="none" x1="590" clip-path="url(#clipPath22)" x2="610" y1="210"/><line y2="190" fill="none" x1="590" clip-path="url(#clipPath22)" x2="630" y1="230"/><line y2="190" fill="none" x1="590" clip-path="url(#clipPath22)" x2="650" y1="250"/><line y2="190" fill="none" x1="590" clip-path="url(#clipPath22)" x2="670" y1="270"/><line y2="210" fill="none" x1="610" clip-path="url(#clipPath22)" x2="670" y1="270"/><line y2="230" fill="none" x1="630" clip-path="url(#clipPath22)" x2="670" y1="270"/><line y2="250" fill="none" x1="650" clip-path="url(#clipPath22)" x2="670" y1="270"/><line y2="270" fill="none" x1="670" clip-path="url(#clipPath22)" x2="670" y1="270"/><line y2="270" fill="none" x1="670" clip-path="url(#clipPath39)" x2="690" y1="290"/><line y2="270" fill="none" x1="670" clip-path="url(#clipPath39)" x2="710" y1="310"/><line y2="270" fill="none" x1="670" clip-path="url(#clipPath39)" x2="730" y1="330"/><line y2="270" fill="none" x1="670" clip-path="url(#clipPath39)" x2="750" y1="350"/><line y2="290" fill="none" x1="690" clip-path="url(#clipPath39)" x2="750" y1="350"/><line y2="310" fill="none" x1="710" clip-path="url(#clipPath39)" x2="750" y1="350"/><line y2="330" fill="none" x1="730" clip-path="url(#clipPath39)" x2="750" y1="350"/><line y2="350" fill="none" x1="750" clip-path="url(#clipPath39)" x2="750" y1="350"/></g><g fill="rgb(30,144,255)" font-size="24px" font-family="'Arial'" stroke="rgb(30,144,255)"><circle r="20" clip-path="url(#clipPath40)" cx="150" cy="150" stroke="none"/><circle fill="none" r="20" clip-path="url(#clipPath40)" cx="150" cy="150" stroke="black"/><path fill="black" d="M130.9531 161 L139.4844 138.8125 L142.6406 138.8125 L151.7188 161 L148.375 161 L145.7812 154.2812 L136.5156 154.2812 L134.0781 161 L130.9531 161 ZM137.3594 151.8906 L144.875 151.8906 L142.5625 145.7344 Q141.5 142.9375 140.9844 141.1406 Q140.5625 143.2812 139.7969 145.375 L137.3594 151.8906 ZM163.2236 161 L160.5049 161 L160.5049 143.6406 Q159.5205 144.5781 157.9189 145.5156 Q156.3174 146.4531 155.0518 146.9219 L155.0518 144.2812 Q157.333 143.2188 159.0439 141.6875 Q160.7549 140.1562 161.4736 138.7188 L163.2236 138.7188 L163.2236 161 Z" clip-path="url(#clipPath41)" stroke="none"/><circle fill="rgb(144,238,144)" r="20" clip-path="url(#clipPath42)" cx="630" cy="310" stroke="none"/><circle fill="none" r="20" clip-path="url(#clipPath42)" cx="630" cy="310" stroke="black"/><path fill="black" d="M615.125 320 L615.125 299.2344 L622.9062 299.2344 Q625.2969 299.2344 626.7344 299.8672 Q628.1719 300.5 628.9844 301.8125 Q629.7969 303.125 629.7969 304.5469 Q629.7969 305.875 629.0703 307.0547 Q628.3438 308.2344 626.8906 308.9531 Q628.7812 309.5 629.7891 310.8359 Q630.7969 312.1719 630.7969 313.9844 Q630.7969 315.4375 630.1797 316.6953 Q629.5625 317.9531 628.6562 318.6328 Q627.75 319.3125 626.3828 319.6562 Q625.0156 320 623.0469 320 L615.125 320 ZM617.875 307.9688 L622.3594 307.9688 Q624.1875 307.9688 624.9844 307.7188 Q626.0312 307.4062 626.5625 306.6875 Q627.0938 305.9688 627.0938 304.875 Q627.0938 303.8438 626.5938 303.0547 Q626.0938 302.2656 625.1719 301.9766 Q624.25 301.6875 622.0156 301.6875 L617.875 301.6875 L617.875 307.9688 ZM617.875 317.5469 L623.0469 317.5469 Q624.375 317.5469 624.9062 317.4531 Q625.8594 317.2812 626.4922 316.8828 Q627.125 316.4844 627.5391 315.7266 Q627.9531 314.9688 627.9531 313.9844 Q627.9531 312.8281 627.3594 311.9688 Q626.7656 311.1094 625.7109 310.7578 Q624.6562 310.4062 622.6719 310.4062 L617.875 310.4062 L617.875 317.5469 ZM643.1396 320 L640.5928 320 L640.5928 303.7656 Q639.6709 304.6406 638.1787 305.5156 Q636.6865 306.3906 635.499 306.8281 L635.499 304.3594 Q637.6396 303.3594 639.2412 301.9297 Q640.8428 300.5 641.499 299.1562 L643.1396 299.1562 L643.1396 320 Z" clip-path="url(#clipPath43)" stroke="none"/><circle r="20" clip-path="url(#clipPath44)" cx="230" cy="150" stroke="none"/><circle fill="none" r="20" clip-path="url(#clipPath44)" cx="230" cy="150" stroke="black"/><path fill="black" d="M210.9531 161 L219.4844 138.8125 L222.6406 138.8125 L231.7188 161 L228.375 161 L225.7812 154.2812 L216.5156 154.2812 L214.0781 161 L210.9531 161 ZM217.3594 151.8906 L224.875 151.8906 L222.5625 145.7344 Q221.5 142.9375 220.9844 141.1406 Q220.5625 143.2812 219.7969 145.375 L217.3594 151.8906 ZM247.2861 158.375 L247.2861 161 L232.6143 161 Q232.583 160.0156 232.9268 159.1094 Q233.4893 157.6094 234.7236 156.1562 Q235.958 154.7031 238.2861 152.7969 Q241.9111 149.8281 243.1846 148.0938 Q244.458 146.3594 244.458 144.8125 Q244.458 143.2031 243.2939 142.0859 Q242.1299 140.9688 240.2705 140.9688 Q238.3018 140.9688 237.1221 142.1484 Q235.9424 143.3281 235.9268 145.4219 L233.1299 145.1406 Q233.4111 142 235.2939 140.3594 Q237.1768 138.7188 240.333 138.7188 Q243.5361 138.7188 245.3955 140.4922 Q247.2549 142.2656 247.2549 144.875 Q247.2549 146.2188 246.708 147.5 Q246.1611 148.7812 244.8955 150.2031 Q243.6299 151.625 240.6924 154.1094 Q238.2393 156.1719 237.5439 156.9062 Q236.8486 157.6406 236.3955 158.375 L247.2861 158.375 Z" clip-path="url(#clipPath45)" stroke="none"/><circle fill="rgb(144,238,144)" r="20" clip-path="url(#clipPath46)" cx="550" cy="310" stroke="none"/><circle fill="none" r="20" clip-path="url(#clipPath46)" cx="550" cy="310" stroke="black"/><path fill="black" d="M535.125 320 L535.125 299.2344 L542.9062 299.2344 Q545.2969 299.2344 546.7344 299.8672 Q548.1719 300.5 548.9844 301.8125 Q549.7969 303.125 549.7969 304.5469 Q549.7969 305.875 549.0703 307.0547 Q548.3438 308.2344 546.8906 308.9531 Q548.7812 309.5 549.7891 310.8359 Q550.7969 312.1719 550.7969 313.9844 Q550.7969 315.4375 550.1797 316.6953 Q549.5625 317.9531 548.6562 318.6328 Q547.75 319.3125 546.3828 319.6562 Q545.0156 320 543.0469 320 L535.125 320 ZM537.875 307.9688 L542.3594 307.9688 Q544.1875 307.9688 544.9844 307.7188 Q546.0312 307.4062 546.5625 306.6875 Q547.0938 305.9688 547.0938 304.875 Q547.0938 303.8438 546.5938 303.0547 Q546.0938 302.2656 545.1719 301.9766 Q544.25 301.6875 542.0156 301.6875 L537.875 301.6875 L537.875 307.9688 ZM537.875 317.5469 L543.0469 317.5469 Q544.375 317.5469 544.9062 317.4531 Q545.8594 317.2812 546.4922 316.8828 Q547.125 316.4844 547.5391 315.7266 Q547.9531 314.9688 547.9531 313.9844 Q547.9531 312.8281 547.3594 311.9688 Q546.7656 311.1094 545.7109 310.7578 Q544.6562 310.4062 542.6719 310.4062 L537.875 310.4062 L537.875 317.5469 ZM566.9365 317.5469 L566.9365 320 L553.2178 320 Q553.1865 319.0781 553.5146 318.2344 Q554.0459 316.8281 555.1943 315.4688 Q556.3428 314.1094 558.5303 312.3281 Q561.9209 309.5469 563.1084 307.9297 Q564.2959 306.3125 564.2959 304.8594 Q564.2959 303.3438 563.21 302.3047 Q562.124 301.2656 560.3896 301.2656 Q558.5459 301.2656 557.4443 302.3672 Q556.3428 303.4688 556.3271 305.4219 L553.7021 305.1562 Q553.9678 302.2344 555.7256 300.6953 Q557.4834 299.1562 560.4365 299.1562 Q563.4365 299.1562 565.1787 300.8125 Q566.9209 302.4688 566.9209 304.9219 Q566.9209 306.1719 566.4053 307.375 Q565.8896 308.5781 564.71 309.9062 Q563.5303 311.2344 560.7803 313.5625 Q558.4834 315.4844 557.835 316.1719 Q557.1865 316.8594 556.7646 317.5469 L566.9365 317.5469 Z" clip-path="url(#clipPath47)" stroke="none"/><circle r="20" clip-path="url(#clipPath48)" cx="310" cy="150" stroke="none"/><circle fill="none" r="20" clip-path="url(#clipPath48)" cx="310" cy="150" stroke="black"/><path fill="black" d="M290.9531 161 L299.4844 138.8125 L302.6406 138.8125 L311.7188 161 L308.375 161 L305.7812 154.2812 L296.5156 154.2812 L294.0781 161 L290.9531 161 ZM297.3594 151.8906 L304.875 151.8906 L302.5625 145.7344 Q301.5 142.9375 300.9844 141.1406 Q300.5625 143.2812 299.7969 145.375 L297.3594 151.8906 ZM312.9736 155.1406 L315.708 154.7812 Q316.1768 157.0938 317.3018 158.1172 Q318.4268 159.1406 320.0518 159.1406 Q321.9736 159.1406 323.2939 157.8047 Q324.6143 156.4688 324.6143 154.5 Q324.6143 152.625 323.3877 151.4062 Q322.1611 150.1875 320.2705 150.1875 Q319.5049 150.1875 318.3486 150.5 L318.6611 148.1094 Q318.9268 148.1406 319.0986 148.1406 Q320.833 148.1406 322.2236 147.2266 Q323.6143 146.3125 323.6143 144.4219 Q323.6143 142.9219 322.6064 141.9375 Q321.5986 140.9531 319.9893 140.9531 Q318.3955 140.9531 317.3408 141.9531 Q316.2861 142.9531 315.9736 144.9531 L313.2549 144.4688 Q313.7549 141.7344 315.5205 140.2266 Q317.2861 138.7188 319.9268 138.7188 Q321.7393 138.7188 323.2705 139.5 Q324.8018 140.2812 325.6143 141.625 Q326.4268 142.9688 326.4268 144.4844 Q326.4268 145.9219 325.6533 147.1016 Q324.8799 148.2812 323.3643 148.9844 Q325.333 149.4375 326.4189 150.8672 Q327.5049 152.2969 327.5049 154.4531 Q327.5049 157.3594 325.3877 159.375 Q323.2705 161.3906 320.0361 161.3906 Q317.1143 161.3906 315.1846 159.6484 Q313.2549 157.9062 312.9736 155.1406 Z" clip-path="url(#clipPath49)" stroke="none"/><circle fill="rgb(144,238,144)" r="20" clip-path="url(#clipPath50)" cx="470" cy="310" stroke="none"/><circle fill="none" r="20" clip-path="url(#clipPath50)" cx="470" cy="310" stroke="black"/><path fill="black" d="M455.125 320 L455.125 299.2344 L462.9062 299.2344 Q465.2969 299.2344 466.7344 299.8672 Q468.1719 300.5 468.9844 301.8125 Q469.7969 303.125 469.7969 304.5469 Q469.7969 305.875 469.0703 307.0547 Q468.3438 308.2344 466.8906 308.9531 Q468.7812 309.5 469.7891 310.8359 Q470.7969 312.1719 470.7969 313.9844 Q470.7969 315.4375 470.1797 316.6953 Q469.5625 317.9531 468.6562 318.6328 Q467.75 319.3125 466.3828 319.6562 Q465.0156 320 463.0469 320 L455.125 320 ZM457.875 307.9688 L462.3594 307.9688 Q464.1875 307.9688 464.9844 307.7188 Q466.0312 307.4062 466.5625 306.6875 Q467.0938 305.9688 467.0938 304.875 Q467.0938 303.8438 466.5938 303.0547 Q466.0938 302.2656 465.1719 301.9766 Q464.25 301.6875 462.0156 301.6875 L457.875 301.6875 L457.875 307.9688 ZM457.875 317.5469 L463.0469 317.5469 Q464.375 317.5469 464.9062 317.4531 Q465.8594 317.2812 466.4922 316.8828 Q467.125 316.4844 467.5391 315.7266 Q467.9531 314.9688 467.9531 313.9844 Q467.9531 312.8281 467.3594 311.9688 Q466.7656 311.1094 465.7109 310.7578 Q464.6562 310.4062 462.6719 310.4062 L457.875 310.4062 L457.875 317.5469 ZM473.5615 314.5156 L476.1084 314.1875 Q476.5459 316.3438 477.6006 317.3047 Q478.6553 318.2656 480.1709 318.2656 Q481.9678 318.2656 483.21 317.0156 Q484.4521 315.7656 484.4521 313.9219 Q484.4521 312.1719 483.3037 311.0312 Q482.1553 309.8906 480.3896 309.8906 Q479.6709 309.8906 478.5928 310.1719 L478.874 307.9375 Q479.124 307.9688 479.2803 307.9688 Q480.9053 307.9688 482.21 307.1172 Q483.5146 306.2656 483.5146 304.5 Q483.5146 303.0938 482.5693 302.1719 Q481.624 301.25 480.124 301.25 Q478.624 301.25 477.6396 302.1875 Q476.6553 303.125 476.3584 304.9844 L473.8115 304.5312 Q474.2803 301.9688 475.9365 300.5625 Q477.5928 299.1562 480.0615 299.1562 Q481.7646 299.1562 483.1943 299.8828 Q484.624 300.6094 485.3818 301.875 Q486.1396 303.1406 486.1396 304.5469 Q486.1396 305.8906 485.4131 307 Q484.6865 308.1094 483.2803 308.75 Q485.1084 309.1875 486.1318 310.5234 Q487.1553 311.8594 487.1553 313.875 Q487.1553 316.5938 485.1709 318.4844 Q483.1865 320.375 480.1553 320.375 Q477.4209 320.375 475.6162 318.7422 Q473.8115 317.1094 473.5615 314.5156 Z" clip-path="url(#clipPath51)" stroke="none"/><circle r="20" clip-path="url(#clipPath52)" cx="390" cy="150" stroke="none"/><circle fill="none" r="20" clip-path="url(#clipPath52)" cx="390" cy="150" stroke="black"/><path fill="black" d="M370.9531 161 L379.4844 138.8125 L382.6406 138.8125 L391.7188 161 L388.375 161 L385.7812 154.2812 L376.5156 154.2812 L374.0781 161 L370.9531 161 ZM377.3594 151.8906 L384.875 151.8906 L382.5625 145.7344 Q381.5 142.9375 380.9844 141.1406 Q380.5625 143.2812 379.7969 145.375 L377.3594 151.8906 ZM401.6924 161 L401.6924 155.6875 L392.0674 155.6875 L392.0674 153.1875 L402.1924 138.8125 L404.4268 138.8125 L404.4268 153.1875 L407.4268 153.1875 L407.4268 155.6875 L404.4268 155.6875 L404.4268 161 L401.6924 161 ZM401.6924 153.1875 L401.6924 143.1875 L394.7549 153.1875 L401.6924 153.1875 Z" clip-path="url(#clipPath53)" stroke="none"/><circle fill="rgb(144,238,144)" r="20" clip-path="url(#clipPath54)" cx="390" cy="310" stroke="none"/><circle fill="none" r="20" clip-path="url(#clipPath54)" cx="390" cy="310" stroke="black"/><path fill="black" d="M375.125 320 L375.125 299.2344 L382.9062 299.2344 Q385.2969 299.2344 386.7344 299.8672 Q388.1719 300.5 388.9844 301.8125 Q389.7969 303.125 389.7969 304.5469 Q389.7969 305.875 389.0703 307.0547 Q388.3438 308.2344 386.8906 308.9531 Q388.7812 309.5 389.7891 310.8359 Q390.7969 312.1719 390.7969 313.9844 Q390.7969 315.4375 390.1797 316.6953 Q389.5625 317.9531 388.6562 318.6328 Q387.75 319.3125 386.3828 319.6562 Q385.0156 320 383.0469 320 L375.125 320 ZM377.875 307.9688 L382.3594 307.9688 Q384.1875 307.9688 384.9844 307.7188 Q386.0312 307.4062 386.5625 306.6875 Q387.0938 305.9688 387.0938 304.875 Q387.0938 303.8438 386.5938 303.0547 Q386.0938 302.2656 385.1719 301.9766 Q384.25 301.6875 382.0156 301.6875 L377.875 301.6875 L377.875 307.9688 ZM377.875 317.5469 L383.0469 317.5469 Q384.375 317.5469 384.9062 317.4531 Q385.8594 317.2812 386.4922 316.8828 Q387.125 316.4844 387.5391 315.7266 Q387.9531 314.9688 387.9531 313.9844 Q387.9531 312.8281 387.3594 311.9688 Q386.7656 311.1094 385.7109 310.7578 Q384.6562 310.4062 382.6719 310.4062 L377.875 310.4062 L377.875 317.5469 ZM401.7178 320 L401.7178 315.0312 L392.7178 315.0312 L392.7178 312.6875 L402.1865 299.2344 L404.2646 299.2344 L404.2646 312.6875 L407.0771 312.6875 L407.0771 315.0312 L404.2646 315.0312 L404.2646 320 L401.7178 320 ZM401.7178 312.6875 L401.7178 303.3281 L395.2178 312.6875 L401.7178 312.6875 Z" clip-path="url(#clipPath55)" stroke="none"/><circle r="20" clip-path="url(#clipPath56)" cx="470" cy="150" stroke="none"/><circle fill="none" r="20" clip-path="url(#clipPath56)" cx="470" cy="150" stroke="black"/><path fill="black" d="M450.9531 161 L459.4844 138.8125 L462.6406 138.8125 L471.7188 161 L468.375 161 L465.7812 154.2812 L456.5156 154.2812 L454.0781 161 L450.9531 161 ZM457.3594 151.8906 L464.875 151.8906 L462.5625 145.7344 Q461.5 142.9375 460.9844 141.1406 Q460.5625 143.2812 459.7969 145.375 L457.3594 151.8906 ZM472.958 155.1875 L475.8174 154.9375 Q476.1455 157.0312 477.3018 158.0859 Q478.458 159.1406 480.0986 159.1406 Q482.0674 159.1406 483.4268 157.6562 Q484.7861 156.1719 484.7861 153.7188 Q484.7861 151.3906 483.4736 150.0391 Q482.1611 148.6875 480.0518 148.6875 Q478.7236 148.6875 477.6689 149.2891 Q476.6143 149.8906 476.0049 150.8438 L473.4424 150.5156 L475.5986 139.1094 L486.6299 139.1094 L486.6299 141.7188 L477.7705 141.7188 L476.583 147.6719 Q478.583 146.2812 480.7705 146.2812 Q483.6768 146.2812 485.6768 148.2969 Q487.6768 150.3125 487.6768 153.4844 Q487.6768 156.4844 485.9268 158.6875 Q483.7861 161.375 480.0986 161.375 Q477.0674 161.375 475.1533 159.6797 Q473.2393 157.9844 472.958 155.1875 Z" clip-path="url(#clipPath57)" stroke="none"/><circle fill="rgb(144,238,144)" r="20" clip-path="url(#clipPath58)" cx="310" cy="310" stroke="none"/><circle fill="none" r="20" clip-path="url(#clipPath58)" cx="310" cy="310" stroke="black"/><path fill="black" d="M295.125 320 L295.125 299.2344 L302.9062 299.2344 Q305.2969 299.2344 306.7344 299.8672 Q308.1719 300.5 308.9844 301.8125 Q309.7969 303.125 309.7969 304.5469 Q309.7969 305.875 309.0703 307.0547 Q308.3438 308.2344 306.8906 308.9531 Q308.7812 309.5 309.7891 310.8359 Q310.7969 312.1719 310.7969 313.9844 Q310.7969 315.4375 310.1797 316.6953 Q309.5625 317.9531 308.6562 318.6328 Q307.75 319.3125 306.3828 319.6562 Q305.0156 320 303.0469 320 L295.125 320 ZM297.875 307.9688 L302.3594 307.9688 Q304.1875 307.9688 304.9844 307.7188 Q306.0312 307.4062 306.5625 306.6875 Q307.0938 305.9688 307.0938 304.875 Q307.0938 303.8438 306.5938 303.0547 Q306.0938 302.2656 305.1719 301.9766 Q304.25 301.6875 302.0156 301.6875 L297.875 301.6875 L297.875 307.9688 ZM297.875 317.5469 L303.0469 317.5469 Q304.375 317.5469 304.9062 317.4531 Q305.8594 317.2812 306.4922 316.8828 Q307.125 316.4844 307.5391 315.7266 Q307.9531 314.9688 307.9531 313.9844 Q307.9531 312.8281 307.3594 311.9688 Q306.7656 311.1094 305.7109 310.7578 Q304.6562 310.4062 302.6719 310.4062 L297.875 310.4062 L297.875 317.5469 ZM313.5459 314.5625 L316.2178 314.3281 Q316.5146 316.2969 317.6006 317.2812 Q318.6865 318.2656 320.2178 318.2656 Q322.0615 318.2656 323.335 316.875 Q324.6084 315.4844 324.6084 313.1875 Q324.6084 311.0156 323.3818 309.75 Q322.1553 308.4844 320.1709 308.4844 Q318.9365 308.4844 317.9443 309.0469 Q316.9521 309.6094 316.3896 310.5 L313.999 310.1875 L316.0146 299.5312 L326.3271 299.5312 L326.3271 301.9531 L318.0459 301.9531 L316.9365 307.5312 Q318.7959 306.2344 320.8584 306.2344 Q323.5771 306.2344 325.4443 308.1172 Q327.3115 310 327.3115 312.9688 Q327.3115 315.7812 325.6709 317.8281 Q323.6709 320.3594 320.2178 320.3594 Q317.3896 320.3594 315.5928 318.7734 Q313.7959 317.1875 313.5459 314.5625 Z" clip-path="url(#clipPath59)" stroke="none"/><circle r="20" clip-path="url(#clipPath60)" cx="550" cy="150" stroke="none"/><circle fill="none" r="20" clip-path="url(#clipPath60)" cx="550" cy="150" stroke="black"/><path fill="black" d="M530.9531 161 L539.4844 138.8125 L542.6406 138.8125 L551.7188 161 L548.375 161 L545.7812 154.2812 L536.5156 154.2812 L534.0781 161 L530.9531 161 ZM537.3594 151.8906 L544.875 151.8906 L542.5625 145.7344 Q541.5 142.9375 540.9844 141.1406 Q540.5625 143.2812 539.7969 145.375 L537.3594 151.8906 ZM567.0986 144.25 L564.3955 144.4531 Q564.0361 142.8438 563.3643 142.125 Q562.2549 140.9531 560.6455 140.9531 Q559.333 140.9531 558.3486 141.6875 Q557.0674 142.625 556.3252 144.4219 Q555.583 146.2188 555.5518 149.5625 Q556.5361 148.0625 557.958 147.3359 Q559.3799 146.6094 560.9424 146.6094 Q563.6611 146.6094 565.5752 148.6094 Q567.4893 150.6094 567.4893 153.7969 Q567.4893 155.8906 566.5908 157.6797 Q565.6924 159.4688 564.1221 160.4219 Q562.5518 161.375 560.5518 161.375 Q557.1455 161.375 554.9971 158.875 Q552.8486 156.375 552.8486 150.6094 Q552.8486 144.1875 555.2236 141.2656 Q557.2861 138.7188 560.8018 138.7188 Q563.4268 138.7188 565.0986 140.1875 Q566.7705 141.6562 567.0986 144.25 ZM555.9736 153.8125 Q555.9736 155.2188 556.5752 156.5078 Q557.1768 157.7969 558.2471 158.4688 Q559.3174 159.1406 560.5049 159.1406 Q562.2236 159.1406 563.4658 157.75 Q564.708 156.3594 564.708 153.9688 Q564.708 151.6562 563.4814 150.3359 Q562.2549 149.0156 560.3955 149.0156 Q558.5518 149.0156 557.2627 150.3359 Q555.9736 151.6562 555.9736 153.8125 Z" clip-path="url(#clipPath61)" stroke="none"/><circle fill="rgb(144,238,144)" r="20" clip-path="url(#clipPath62)" cx="230" cy="310" stroke="none"/><circle fill="none" r="20" clip-path="url(#clipPath62)" cx="230" cy="310" stroke="black"/><path fill="black" d="M215.125 320 L215.125 299.2344 L222.9062 299.2344 Q225.2969 299.2344 226.7344 299.8672 Q228.1719 300.5 228.9844 301.8125 Q229.7969 303.125 229.7969 304.5469 Q229.7969 305.875 229.0703 307.0547 Q228.3438 308.2344 226.8906 308.9531 Q228.7812 309.5 229.7891 310.8359 Q230.7969 312.1719 230.7969 313.9844 Q230.7969 315.4375 230.1797 316.6953 Q229.5625 317.9531 228.6562 318.6328 Q227.75 319.3125 226.3828 319.6562 Q225.0156 320 223.0469 320 L215.125 320 ZM217.875 307.9688 L222.3594 307.9688 Q224.1875 307.9688 224.9844 307.7188 Q226.0312 307.4062 226.5625 306.6875 Q227.0938 305.9688 227.0938 304.875 Q227.0938 303.8438 226.5938 303.0547 Q226.0938 302.2656 225.1719 301.9766 Q224.25 301.6875 222.0156 301.6875 L217.875 301.6875 L217.875 307.9688 ZM217.875 317.5469 L223.0469 317.5469 Q224.375 317.5469 224.9062 317.4531 Q225.8594 317.2812 226.4922 316.8828 Q227.125 316.4844 227.5391 315.7266 Q227.9531 314.9688 227.9531 313.9844 Q227.9531 312.8281 227.3594 311.9688 Q226.7656 311.1094 225.7109 310.7578 Q224.6562 310.4062 222.6719 310.4062 L217.875 310.4062 L217.875 317.5469 ZM246.7646 304.3281 L244.2334 304.5156 Q243.9053 303.0156 243.2803 302.3438 Q242.2334 301.25 240.7334 301.25 Q239.5146 301.25 238.5928 301.9375 Q237.3896 302.8125 236.6943 304.4922 Q235.999 306.1719 235.9678 309.2969 Q236.8896 307.8906 238.2178 307.2109 Q239.5459 306.5312 241.0146 306.5312 Q243.5615 306.5312 245.3506 308.4062 Q247.1396 310.2812 247.1396 313.2656 Q247.1396 315.2188 246.2959 316.8906 Q245.4521 318.5625 243.9834 319.4609 Q242.5146 320.3594 240.6396 320.3594 Q237.4521 320.3594 235.4443 318.0156 Q233.4365 315.6719 233.4365 310.2812 Q233.4365 304.2656 235.6553 301.5312 Q237.5928 299.1562 240.874 299.1562 Q243.3271 299.1562 244.8975 300.5312 Q246.4678 301.9062 246.7646 304.3281 ZM236.3584 313.2812 Q236.3584 314.5938 236.9209 315.7969 Q237.4834 317 238.4912 317.6328 Q239.499 318.2656 240.5928 318.2656 Q242.2178 318.2656 243.374 316.9609 Q244.5303 315.6562 244.5303 313.4219 Q244.5303 311.2656 243.3818 310.0234 Q242.2334 308.7812 240.499 308.7812 Q238.7646 308.7812 237.5615 310.0234 Q236.3584 311.2656 236.3584 313.2812 Z" clip-path="url(#clipPath63)" stroke="none"/><circle r="20" clip-path="url(#clipPath64)" cx="630" cy="150" stroke="none"/><circle fill="none" r="20" clip-path="url(#clipPath64)" cx="630" cy="150" stroke="black"/><path fill="black" d="M610.9531 161 L619.4844 138.8125 L622.6406 138.8125 L631.7188 161 L628.375 161 L625.7812 154.2812 L616.5156 154.2812 L614.0781 161 L610.9531 161 ZM617.3594 151.8906 L624.875 151.8906 L622.5625 145.7344 Q621.5 142.9375 620.9844 141.1406 Q620.5625 143.2812 619.7969 145.375 L617.3594 151.8906 ZM633.1455 141.7188 L633.1455 139.0938 L647.5049 139.0938 L647.5049 141.2188 Q645.3955 143.4688 643.3096 147.2109 Q641.2236 150.9531 640.0986 154.9062 Q639.2705 157.6875 639.0518 161 L636.2549 161 Q636.2861 158.375 637.2705 154.6719 Q638.2549 150.9688 640.0986 147.5234 Q641.9424 144.0781 644.0205 141.7188 L633.1455 141.7188 Z" clip-path="url(#clipPath65)" stroke="none"/><circle fill="rgb(144,238,144)" r="20" clip-path="url(#clipPath66)" cx="150" cy="310" stroke="none"/><circle fill="none" r="20" clip-path="url(#clipPath66)" cx="150" cy="310" stroke="black"/><path fill="black" d="M135.125 320 L135.125 299.2344 L142.9062 299.2344 Q145.2969 299.2344 146.7344 299.8672 Q148.1719 300.5 148.9844 301.8125 Q149.7969 303.125 149.7969 304.5469 Q149.7969 305.875 149.0703 307.0547 Q148.3438 308.2344 146.8906 308.9531 Q148.7812 309.5 149.7891 310.8359 Q150.7969 312.1719 150.7969 313.9844 Q150.7969 315.4375 150.1797 316.6953 Q149.5625 317.9531 148.6562 318.6328 Q147.75 319.3125 146.3828 319.6562 Q145.0156 320 143.0469 320 L135.125 320 ZM137.875 307.9688 L142.3594 307.9688 Q144.1875 307.9688 144.9844 307.7188 Q146.0312 307.4062 146.5625 306.6875 Q147.0938 305.9688 147.0938 304.875 Q147.0938 303.8438 146.5938 303.0547 Q146.0938 302.2656 145.1719 301.9766 Q144.25 301.6875 142.0156 301.6875 L137.875 301.6875 L137.875 307.9688 ZM137.875 317.5469 L143.0469 317.5469 Q144.375 317.5469 144.9062 317.4531 Q145.8594 317.2812 146.4922 316.8828 Q147.125 316.4844 147.5391 315.7266 Q147.9531 314.9688 147.9531 313.9844 Q147.9531 312.8281 147.3594 311.9688 Q146.7656 311.1094 145.7109 310.7578 Q144.6562 310.4062 142.6719 310.4062 L137.875 310.4062 L137.875 317.5469 ZM153.7178 301.9531 L153.7178 299.5156 L167.1553 299.5156 L167.1553 301.5 Q165.1709 303.6094 163.2256 307.1016 Q161.2803 310.5938 160.2178 314.2969 Q159.4521 316.9062 159.2334 320 L156.624 320 Q156.6553 317.5469 157.5771 314.0781 Q158.499 310.6094 160.2178 307.3906 Q161.9365 304.1719 163.8896 301.9531 L153.7178 301.9531 Z" clip-path="url(#clipPath67)" stroke="none"/></g></g></svg>