<?xml version="1.0" encoding="UTF-8" standalone="no"?>
<svg
   xmlns:dc="http://purl.org/dc/elements/1.1/"
   xmlns:cc="http://creativecommons.org/ns#"
   xmlns:rdf="http://www.w3.org/1999/02/22-rdf-syntax-ns#"
   xmlns:svg="http://www.w3.org/2000/svg"
   xmlns="http://www.w3.org/2000/svg"
   xmlns:sodipodi="http://sodipodi.sourceforge.net/DTD/sodipodi-0.dtd"
   xmlns:inkscape="http://www.inkscape.org/namespaces/inkscape"
   stroke-dasharray="none"
   shape-rendering="auto"
   font-family="'Dialog'"
   width="591"
   text-rendering="auto"
   fill-opacity="1"
   contentScriptType="text/ecmascript"
   color-interpolation="auto"
   color-rendering="auto"
   preserveAspectRatio="xMidYMid meet"
   font-size="12px"
   fill="black"
   stroke="black"
   image-rendering="auto"
   stroke-miterlimit="10"
   zoomAndPan="magnify"
   version="1.0"
   stroke-linecap="square"
   stroke-linejoin="miter"
   contentStyleType="text/css"
   font-style="normal"
   height="591"
   stroke-width="1"
   stroke-dashoffset="0"
   font-weight="normal"
   stroke-opacity="1"
   id="svg166"
   sodipodi:docname="SNAPSHOT041.svg"
   inkscape:version="0.92.2 (5c3e80d, 2017-08-06)">
  <metadata
     id="metadata170">
    <rdf:RDF>
      <cc:Work
         rdf:about="">
        <dc:format>image/svg+xml</dc:format>
        <dc:type
           rdf:resource="http://purl.org/dc/dcmitype/StillImage" />
      </cc:Work>
    </rdf:RDF>
  </metadata>
  <sodipodi:namedview
     pagecolor="#ffffff"
     bordercolor="#666666"
     borderopacity="1"
     objecttolerance="10"
     gridtolerance="10"
     guidetolerance="10"
     inkscape:pageopacity="0"
     inkscape:pageshadow="2"
     inkscape:window-width="1807"
     inkscape:window-height="1051"
     id="namedview168"
     showgrid="false"
     inkscape:zoom="0.9983453"
     inkscape:cx="387.20809"
     inkscape:cy="187.922"
     inkscape:window-x="104"
     inkscape:window-y="-9"
     inkscape:window-maximized="1"
     inkscape:current-layer="g162" />
  <!--Generated by the Batik Graphics2D SVG Generator-->
  <defs
     id="genericDefs" />
  <g
     id="g164">
    <defs
       id="defs1">
      <clipPath
         clipPathUnits="userSpaceOnUse"
         id="clipPath1">
        <path
           d="M 37,37 H 71 V 71 H 37 Z"
           id="path3"
           inkscape:connector-curvature="0" />
      </clipPath>
      <clipPath
         clipPathUnits="userSpaceOnUse"
         id="clipPath2">
        <path
           d="m 70,54 c 0,8.8366 -7.1634,16 -16,16 -8.8366,0 -16,-7.1634 -16,-16 0,-8.8366 7.1634,-16 16,-16 8.8366,0 16,7.1634 16,16 z"
           id="path6"
           inkscape:connector-curvature="0" />
      </clipPath>
      <clipPath
         clipPathUnits="userSpaceOnUse"
         id="clipPath3">
        <path
           d="m 517,517 h 34 v 34 h -34 z"
           id="path9"
           inkscape:connector-curvature="0" />
      </clipPath>
      <clipPath
         clipPathUnits="userSpaceOnUse"
         id="clipPath4">
        <path
           d="m 550,534 c 0,8.8365 -7.1635,16 -16,16 -8.8365,0 -16,-7.1635 -16,-16 0,-8.8365 7.1635,-16 16,-16 8.8365,0 16,7.1635 16,16 z"
           id="path12"
           inkscape:connector-curvature="0" />
      </clipPath>
      <clipPath
         clipPathUnits="userSpaceOnUse"
         id="clipPath5">
        <path
           d="m 517,37 h 34 v 34 h -34 z"
           id="path15"
           inkscape:connector-curvature="0" />
      </clipPath>
      <clipPath
         clipPathUnits="userSpaceOnUse"
         id="clipPath6">
        <path
           d="m 550,54 c 0,8.8366 -7.1635,16 -16,16 -8.8365,0 -16,-7.1634 -16,-16 0,-8.8366 7.1635,-16 16,-16 8.8365,0 16,7.1634 16,16 z"
           id="path18"
           inkscape:connector-curvature="0" />
      </clipPath>
      <clipPath
         clipPathUnits="userSpaceOnUse"
         id="clipPath7">
        <path
           d="m 37,517 h 34 v 34 H 37 Z"
           id="path21"
           inkscape:connector-curvature="0" />
      </clipPath>
      <clipPath
         clipPathUnits="userSpaceOnUse"
         id="clipPath8">
        <path
           d="m 70,534 c 0,8.8365 -7.1634,16 -16,16 -8.8366,0 -16,-7.1635 -16,-16 0,-8.8365 7.1634,-16 16,-16 8.8366,0 16,7.1635 16,16 z"
           id="path24"
           inkscape:connector-curvature="0" />
      </clipPath>
      <clipPath
         clipPathUnits="userSpaceOnUse"
         id="clipPath9">
        <path
           d="m 549,549 h 34 v 34 h -34 z"
           id="path27"
           inkscape:connector-curvature="0" />
      </clipPath>
      <clipPath
         clipPathUnits="userSpaceOnUse"
         id="clipPath10">
        <path
           d="m 582,566 c 0,8.8365 -7.1635,16 -16,16 -8.8365,0 -16,-7.1635 -16,-16 0,-8.8365 7.1635,-16 16,-16 8.8365,0 16,7.1635 16,16 z"
           id="path30"
           inkscape:connector-curvature="0" />
      </clipPath>
      <clipPath
         clipPathUnits="userSpaceOnUse"
         id="clipPath11">
        <path
           d="m 69,69 h 34 v 34 H 69 Z"
           id="path33"
           inkscape:connector-curvature="0" />
      </clipPath>
      <clipPath
         clipPathUnits="userSpaceOnUse"
         id="clipPath12">
        <path
           d="m 102,86 c 0,8.8366 -7.1634,16 -16,16 -8.8366,0 -16,-7.1634 -16,-16 0,-8.8366 7.1634,-16 16,-16 8.8366,0 16,7.1634 16,16 z"
           id="path36"
           inkscape:connector-curvature="0" />
      </clipPath>
      <clipPath
         clipPathUnits="userSpaceOnUse"
         id="clipPath13">
        <path
           d="m 69,549 h 34 v 34 H 69 Z"
           id="path39"
           inkscape:connector-curvature="0" />
      </clipPath>
      <clipPath
         clipPathUnits="userSpaceOnUse"
         id="clipPath14">
        <path
           d="m 102,566 c 0,8.8365 -7.1634,16 -16,16 -8.8366,0 -16,-7.1635 -16,-16 0,-8.8365 7.1634,-16 16,-16 8.8366,0 16,7.1635 16,16 z"
           id="path42"
           inkscape:connector-curvature="0" />
      </clipPath>
      <clipPath
         clipPathUnits="userSpaceOnUse"
         id="clipPath15">
        <path
           d="m 549,69 h 34 v 34 h -34 z"
           id="path45"
           inkscape:connector-curvature="0" />
      </clipPath>
      <clipPath
         clipPathUnits="userSpaceOnUse"
         id="clipPath16">
        <path
           d="m 582,86 c 0,8.8366 -7.1635,16 -16,16 -8.8365,0 -16,-7.1634 -16,-16 0,-8.8366 7.1635,-16 16,-16 8.8365,0 16,7.1634 16,16 z"
           id="path48"
           inkscape:connector-curvature="0" />
      </clipPath>
    </defs>
    <g
       id="g112"
       style="stroke-width:1.5">
      <line
         y2="30"
         x1="30"
         x2="590"
         y1="30"
         id="line52"
         style="fill:none" />
      <line
         y2="110"
         x1="30"
         x2="590"
         y1="110"
         id="line54"
         style="fill:none" />
      <line
         y2="190"
         x1="30"
         x2="590"
         y1="190"
         id="line56"
         style="fill:none" />
      <line
         y2="270"
         x1="30"
         x2="590"
         y1="270"
         id="line58"
         style="fill:none" />
      <line
         y2="350"
         x1="30"
         x2="590"
         y1="350"
         id="line60"
         style="fill:none" />
      <line
         y2="430"
         x1="30"
         x2="590"
         y1="430"
         id="line62"
         style="fill:none" />
      <line
         y2="510"
         x1="30"
         x2="590"
         y1="510"
         id="line64"
         style="fill:none" />
      <line
         y2="590"
         x1="30"
         x2="590"
         y1="590"
         id="line66"
         style="fill:none" />
      <line
         y2="590"
         x1="30"
         x2="30"
         y1="30"
         id="line68"
         style="fill:none" />
      <line
         y2="590"
         x1="110"
         x2="110"
         y1="30"
         id="line70"
         style="fill:none" />
      <line
         y2="590"
         x1="190"
         x2="190"
         y1="30"
         id="line72"
         style="fill:none" />
      <line
         y2="590"
         x1="270"
         x2="270"
         y1="30"
         id="line74"
         style="fill:none" />
      <line
         y2="590"
         x1="350"
         x2="350"
         y1="30"
         id="line76"
         style="fill:none" />
      <line
         y2="590"
         x1="430"
         x2="430"
         y1="30"
         id="line78"
         style="fill:none" />
      <line
         y2="590"
         x1="510"
         x2="510"
         y1="30"
         id="line80"
         style="fill:none" />
      <line
         y2="590"
         x1="590"
         x2="590"
         y1="30"
         id="line82"
         style="fill:none" />
      <path
         d="M 17.9375,79 H 15.8281 V 65.5625 q -0.75,0.7187 -1.9922,1.4453 -1.2421,0.7266 -2.2265,1.086 v -2.0313 q 1.7812,-0.8281 3.1015,-2.0156 1.3203,-1.1875 1.8672,-2.2969 h 1.3594 z"
         id="path84"
         inkscape:connector-curvature="0"
         style="stroke:none" />
      <path
         d="M 21.0781,156.9688 V 159 H 9.7344 q -0.0313,-0.7656 0.2344,-1.4688 0.4374,-1.1562 1.3906,-2.2812 0.9531,-1.125 2.7656,-2.6094 2.7969,-2.2968 3.7812,-3.6328 0.9844,-1.3359 0.9844,-2.539 0,-1.25 -0.8984,-2.1094 -0.8984,-0.8594 -2.336,-0.8594 -1.5156,0 -2.4296,0.9141 -0.9141,0.914 -0.9297,2.5234 l -2.1719,-0.2187 q 0.2188,-2.4219 1.6719,-3.6954 1.4531,-1.2734 3.9062,-1.2734 2.4688,0 3.9141,1.3672 1.4453,1.3672 1.4453,3.3984 0,1.0313 -0.4219,2.0313 -0.4218,1 -1.3984,2.1015 -0.9766,1.1016 -3.2578,3.0235 -1.8906,1.5937 -2.4297,2.1562 -0.5391,0.5625 -0.8985,1.1407 z"
         id="path86"
         inkscape:connector-curvature="0"
         style="stroke:none" />
      <path
         d="m 10.0156,234.4688 2.1094,-0.2813 q 0.3594,1.7813 1.2344,2.5781 0.875,0.7969 2.125,0.7969 1.4844,0 2.5078,-1.0313 1.0234,-1.0312 1.0234,-2.5624 0,-1.4532 -0.9453,-2.3985 -0.9453,-0.9453 -2.4141,-0.9453 -0.5937,0 -1.4843,0.2344 l 0.2343,-1.8438 q 0.2032,0.0156 0.3438,0.0156 1.3438,0 2.4219,-0.7031 1.0781,-0.7031 1.0781,-2.1562 0,-1.1719 -0.7891,-1.9297 -0.789,-0.7578 -2.0234,-0.7578 -1.2344,0 -2.0547,0.7734 -0.8203,0.7734 -1.0547,2.3203 l -2.1093,-0.375 q 0.3906,-2.125 1.7578,-3.289 1.3672,-1.1641 3.414,-1.1641 1.4063,0 2.586,0.6016 1.1796,0.6015 1.8125,1.6484 0.6328,1.0469 0.6328,2.2188 0,1.1093 -0.6016,2.0234 -0.6015,0.914 -1.7734,1.4453 1.5312,0.3594 2.375,1.4687 0.8437,1.1094 0.8437,2.7657 0,2.25 -1.6406,3.8203 -1.6406,1.5703 -4.1562,1.5703 -2.2657,0 -3.7579,-1.3516 -1.4921,-1.3515 -1.6953,-3.4921 z"
         id="path88"
         inkscape:connector-curvature="0"
         style="stroke:none" />
      <path
         d="m 16.7656,319 v -4.1094 H 9.3125 v -1.9375 l 7.8281,-11.1406 h 1.7344 v 11.1406 h 2.3125 v 1.9375 H 18.875 V 319 Z m 0,-6.0469 v -7.75 l -5.3906,7.75 z"
         id="path90"
         inkscape:connector-curvature="0"
         style="stroke:none" />
      <path
         d="m 10,394.5 2.2188,-0.1875 q 0.2343,1.6094 1.1328,2.4297 0.8984,0.8203 2.164,0.8203 1.5313,0 2.586,-1.1484 1.0546,-1.1485 1.0546,-3.0547 0,-1.7969 -1.0156,-2.8438 -1.0156,-1.0468 -2.6562,-1.0468 -1.0156,0 -1.836,0.4609 -0.8203,0.4609 -1.289,1.2109 l -1.9844,-0.2656 1.6562,-8.8281 h 8.5469 v 2.0156 h -6.8593 l -0.9219,4.625 q 1.5469,-1.0781 3.25,-1.0781 2.25,0 3.7969,1.5547 1.5468,1.5547 1.5468,4.0078 0,2.3281 -1.3594,4.0312 -1.6562,2.0938 -4.5156,2.0938 -2.3437,0 -3.8281,-1.3125 Q 10.2031,396.6719 10,394.5 Z"
         id="path92"
         inkscape:connector-curvature="0"
         style="stroke:none" />
      <path
         d="m 20.9375,466.0312 -2.0937,0.1563 q -0.2813,-1.2344 -0.7969,-1.7969 -0.8594,-0.9062 -2.1094,-0.9062 -1,0 -1.7656,0.5625 -1,0.7187 -1.5703,2.1172 -0.5704,1.3984 -0.6016,3.9765 0.7656,-1.1562 1.8672,-1.7187 1.1016,-0.5625 2.3047,-0.5625 2.1093,0 3.5937,1.5468 1.4844,1.5469 1.4844,4.0157 0,1.6093 -0.6953,3 -0.6953,1.3906 -1.9141,2.1328 -1.2187,0.7422 -2.7656,0.7422 -2.6406,0 -4.3047,-1.9453 -1.6641,-1.9454 -1.6641,-6.3985 0,-4.9687 1.8438,-7.2343 1.5938,-1.9688 4.3125,-1.9688 2.0313,0 3.3281,1.1328 1.2969,1.1328 1.5469,3.1484 z m -8.6094,7.4063 q 0,1.0781 0.461,2.0781 0.4609,1 1.2968,1.5235 0.836,0.5234 1.7422,0.5234 1.3438,0 2.3047,-1.0781 0.961,-1.0782 0.961,-2.9375 0,-1.7813 -0.9532,-2.8047 -0.9531,-1.0234 -2.3906,-1.0234 -1.4219,0 -2.4219,1.0234 -1,1.0234 -1,2.6953 z"
         id="path94"
         inkscape:connector-curvature="0"
         style="stroke:none" />
      <path
         d="m 10.1406,544.0625 v -2.0156 h 11.125 v 1.6406 q -1.6406,1.7344 -3.2578,4.6328 -1.6172,2.8985 -2.4922,5.9609 -0.625,2.1563 -0.8125,4.7188 h -2.1562 q 0.0312,-2.0312 0.789,-4.8984 0.7579,-2.8672 2.1875,-5.5391 1.4297,-2.6719 3.0235,-4.5 z"
         id="path96"
         inkscape:connector-curvature="0"
         style="stroke:none" />
      <path
         d="M 72.9375,24 H 70.8281 V 10.5625 q -0.75,0.7187 -1.9922,1.4453 -1.2421,0.7266 -2.2265,1.086 V 11.0625 Q 68.3906,10.2344 69.7109,9.0469 71.0312,7.8594 71.5781,6.75 h 1.3594 z"
         id="path98"
         inkscape:connector-curvature="0"
         style="stroke:none" />
      <path
         d="M 156.0781,21.9688 V 24 h -11.3437 q -0.0313,-0.7656 0.2344,-1.4688 0.4374,-1.1562 1.3906,-2.2812 0.9531,-1.125 2.7656,-2.6094 2.7969,-2.2968 3.7812,-3.6328 0.9844,-1.3359 0.9844,-2.539 0,-1.25 -0.8984,-2.1094 Q 152.0938,8.5 150.6562,8.5 q -1.5156,0 -2.4296,0.9141 -0.9141,0.914 -0.9297,2.5234 l -2.1719,-0.2187 q 0.2188,-2.4219 1.6719,-3.6954 1.4531,-1.2734 3.9062,-1.2734 2.4688,0 3.9141,1.3672 1.4453,1.3672 1.4453,3.3984 0,1.0313 -0.4219,2.0313 -0.4218,1 -1.3984,2.1015 -0.9766,1.1016 -3.2578,3.0235 -1.8906,1.5937 -2.4297,2.1562 -0.5391,0.5625 -0.8985,1.1407 z"
         id="path100"
         inkscape:connector-curvature="0"
         style="stroke:none" />
      <path
         d="m 225.0156,19.4688 2.1094,-0.2813 q 0.3594,1.7813 1.2344,2.5781 0.875,0.7969 2.125,0.7969 1.4844,0 2.5078,-1.0313 1.0234,-1.0312 1.0234,-2.5624 0,-1.4532 -0.9453,-2.3985 -0.9453,-0.9453 -2.4141,-0.9453 -0.5937,0 -1.4843,0.2344 l 0.2343,-1.8438 q 0.2032,0.0156 0.3438,0.0156 1.3438,0 2.4219,-0.7031 1.0781,-0.7031 1.0781,-2.1562 0,-1.1719 -0.7891,-1.9297 -0.789,-0.7578 -2.0234,-0.7578 -1.2344,0 -2.0547,0.7734 -0.8203,0.7734 -1.0547,2.3203 l -2.1093,-0.375 q 0.3906,-2.125 1.7578,-3.289 1.3672,-1.1641 3.414,-1.1641 1.4063,0 2.586,0.6016 1.1796,0.6015 1.8125,1.6484 0.6328,1.0469 0.6328,2.2188 0,1.1093 -0.6016,2.0234 -0.6015,0.914 -1.7734,1.4453 1.5312,0.3594 2.375,1.4687 0.8437,1.1094 0.8437,2.7657 0,2.25 -1.6406,3.8203 -1.6406,1.5703 -4.1562,1.5703 -2.2657,0 -3.7579,-1.3516 -1.4921,-1.3515 -1.6953,-3.4921 z"
         id="path102"
         inkscape:connector-curvature="0"
         style="stroke:none" />
      <path
         d="m 311.7656,24 v -4.1094 h -7.4531 v -1.9375 l 7.8281,-11.1406 h 1.7344 v 11.1406 h 2.3125 v 1.9375 H 313.875 V 24 Z m 0,-6.0469 v -7.75 l -5.3906,7.75 z"
         id="path104"
         inkscape:connector-curvature="0"
         style="stroke:none" />
      <path
         d="m 385,19.5 2.2188,-0.1875 q 0.2343,1.6094 1.1328,2.4297 0.8984,0.8203 2.164,0.8203 1.5313,0 2.586,-1.1484 1.0546,-1.1485 1.0546,-3.0547 0,-1.7969 -1.0156,-2.8438 -1.0156,-1.0468 -2.6562,-1.0468 -1.0156,0 -1.836,0.4609 -0.8203,0.4609 -1.289,1.2109 l -1.9844,-0.2656 1.6562,-8.8281 h 8.5469 v 2.0156 h -6.8593 l -0.9219,4.625 q 1.5469,-1.0781 3.25,-1.0781 2.25,0 3.7969,1.5547 1.5468,1.5547 1.5468,4.0078 0,2.3281 -1.3594,4.0312 -1.6562,2.0938 -4.5156,2.0938 -2.3437,0 -3.8281,-1.3125 Q 385.2031,21.6719 385,19.5 Z"
         id="path106"
         inkscape:connector-curvature="0"
         style="stroke:none" />
      <path
         d="m 475.9375,11.0312 -2.0937,0.1563 q -0.2813,-1.2344 -0.7969,-1.7969 -0.8594,-0.9062 -2.1094,-0.9062 -1,0 -1.7656,0.5625 -1,0.7187 -1.5703,2.1172 -0.5704,1.3984 -0.6016,3.9765 0.7656,-1.1562 1.8672,-1.7187 1.1016,-0.5625 2.3047,-0.5625 2.1093,0 3.5937,1.5468 1.4844,1.5469 1.4844,4.0157 0,1.6093 -0.6953,3 -0.6953,1.3906 -1.9141,2.1328 -1.2187,0.7422 -2.7656,0.7422 -2.6406,0 -4.3047,-1.9453 -1.6641,-1.9454 -1.6641,-6.3985 0,-4.9687 1.8438,-7.2343 1.5938,-1.9688 4.3125,-1.9688 2.0313,0 3.3281,1.1328 1.2969,1.1328 1.5469,3.1484 z m -8.6094,7.4063 q 0,1.0781 0.461,2.0781 0.4609,1 1.2968,1.5235 0.836,0.5234 1.7422,0.5234 1.3438,0 2.3047,-1.0781 0.961,-1.0782 0.961,-2.9375 0,-1.7813 -0.9532,-2.8047 -0.9531,-1.0234 -2.3906,-1.0234 -1.4219,0 -2.4219,1.0234 -1,1.0234 -1,2.6953 z"
         id="path108"
         inkscape:connector-curvature="0"
         style="stroke:none" />
      <path
         d="M 545.1406,9.0625 V 7.0469 h 11.125 v 1.6406 q -1.6406,1.7344 -3.2578,4.6328 -1.6172,2.8985 -2.4922,5.9609 -0.625,2.1563 -0.8125,4.7188 h -2.1562 q 0.0312,-2.0312 0.789,-4.8984 0.7579,-2.8672 2.1875,-5.5391 1.4297,-2.6719 3.0235,-4.5 z"
         id="path110"
         inkscape:connector-curvature="0"
         style="stroke:none" />
    </g>
    <g
       font-size="24px"
       id="g162"
       style="font-size:24px;font-family:Arial;fill:#1e90ff;stroke:#1e90ff"
       transform="translate(15.024862,14.023204)">
      <g
         id="g3879"
         transform="matrix(1.242826,0,0,1.242826,-13.112607,-13.112607)">
        <circle
           style="stroke:none"
           id="circle114"
           cy="54"
           cx="54"
           clip-path="url(#clipPath1)"
           r="16" />
        <circle
           style="fill:none;stroke:#000000"
           id="circle116"
           cy="54"
           cx="54"
           clip-path="url(#clipPath1)"
           r="16" />
        <path
           style="fill:#000000;stroke:none"
           inkscape:connector-curvature="0"
           id="path118"
           clip-path="url(#clipPath2)"
           d="m 38.9688,63 6.875,-17.8906 h 2.5468 L 55.7188,63 H 53.0156 L 50.9219,57.5781 H 43.4375 L 41.4844,63 Z m 5.1562,-7.3438 h 6.0625 l -1.8594,-4.9687 q -0.8593,-2.25 -1.2656,-3.7031 -0.3437,1.7187 -0.9687,3.4218 z M 64.9873,63 H 62.7842 V 49 q -0.7813,0.75 -2.0703,1.5078 -1.2891,0.7578 -2.3203,1.1328 v -2.125 q 1.8437,-0.8594 3.2265,-2.0937 1.3828,-1.2344 1.9453,-2.3907 h 1.4219 z" />
      </g>
      <g
         id="g3874"
         transform="matrix(1.242826,0,0,1.242826,-129.66911,-129.66911)">
        <circle
           style="fill:#90ee90;stroke:none"
           id="circle120"
           cy="534"
           cx="534"
           clip-path="url(#clipPath3)"
           r="16" />
        <circle
           style="fill:none;stroke:#000000"
           id="circle122"
           cy="534"
           cx="534"
           clip-path="url(#clipPath3)"
           r="16" />
        <path
           style="fill:#000000;stroke:none"
           inkscape:connector-curvature="0"
           id="path124"
           clip-path="url(#clipPath4)"
           d="m 521.6875,542 v -16.4688 h 6.1719 q 1.8906,0 3.0312,0.5 1.1406,0.5 1.7813,1.5391 0.6406,1.0391 0.6406,2.1797 0,1.0469 -0.5703,1.9844 -0.5703,0.9375 -1.7266,1.5 1.5,0.4375 2.2969,1.5 0.7969,1.0625 0.7969,2.5 0,1.1562 -0.4844,2.1484 -0.4844,0.9922 -1.2031,1.5313 -0.7188,0.539 -1.8047,0.8125 Q 529.5312,542 527.9688,542 Z m 2.1719,-9.5469 h 3.5625 q 1.4531,0 2.0781,-0.1875 0.8281,-0.25 1.25,-0.8203 0.4219,-0.5703 0.4219,-1.4453 0,-0.8125 -0.3907,-1.4375 -0.3906,-0.625 -1.125,-0.8516 -0.7343,-0.2265 -2.5,-0.2265 h -3.2968 z m 0,7.6094 h 4.1094 q 1.0468,0 1.4687,-0.0781 0.7656,-0.1406 1.2656,-0.4532 0.5,-0.3124 0.8281,-0.914 0.3282,-0.6016 0.3282,-1.3828 0,-0.9219 -0.4688,-1.6016 -0.4687,-0.6797 -1.3047,-0.9609 -0.8359,-0.2813 -2.414,-0.2813 h -3.8125 z M 543.9033,542 h -2.0156 v -12.875 q -0.7344,0.6875 -1.9141,1.3828 -1.1797,0.6953 -2.1328,1.0547 v -1.9687 q 1.7031,-0.7969 2.9688,-1.9297 1.2656,-1.1329 1.7968,-2.1953 h 1.2969 z" />
      </g>
      <g
         id="g3869"
         transform="matrix(1.242826,0,0,1.242826,-129.66911,-13.112607)">
        <circle
           style="fill:#fa8072;stroke:none"
           id="circle126"
           cy="54"
           cx="534"
           clip-path="url(#clipPath5)"
           r="16" />
        <circle
           style="fill:none;stroke:#000000"
           id="circle128"
           cy="54"
           cx="534"
           clip-path="url(#clipPath5)"
           r="16" />
        <path
           style="fill:#000000;stroke:none"
           inkscape:connector-curvature="0"
           id="path130"
           clip-path="url(#clipPath6)"
           d="m 532.5156,56.2344 2.1875,0.5468 q -0.6875,2.6876 -2.4687,4.0938 -1.7813,1.4062 -4.3438,1.4062 -2.6718,0 -4.3359,-1.0859 -1.6641,-1.0859 -2.5391,-3.1406 -0.875,-2.0547 -0.875,-4.4141 0,-2.5625 0.9844,-4.4765 0.9844,-1.9141 2.7969,-2.9141 1.8125,-1 4,-1 2.4687,0 4.1484,1.2578 1.6797,1.2578 2.3516,3.5391 l -2.1407,0.5156 q -0.5781,-1.7969 -1.6718,-2.6172 -1.0938,-0.8203 -2.7344,-0.8203 -1.9062,0 -3.1797,0.9062 -1.2734,0.9063 -1.7891,2.4376 -0.5156,1.5312 -0.5156,3.1718 0,2.0938 0.6094,3.6563 0.6094,1.5625 1.9062,2.3437 1.2969,0.7813 2.7969,0.7813 1.8281,0 3.1016,-1.0547 1.2734,-1.0547 1.7109,-3.1328 z M 544.1724,62 h -2.0157 V 49.125 q -0.7343,0.6875 -1.914,1.3828 -1.1797,0.6953 -2.1328,1.0547 v -1.9687 q 1.7031,-0.7969 2.9687,-1.9297 1.2656,-1.1329 1.7969,-2.1953 h 1.2969 z" />
      </g>
      <g
         id="g3864"
         transform="matrix(1.242826,0,0,1.242826,-13.112607,-129.66911)">
        <circle
           style="fill:#ee82ee;stroke:none"
           id="circle132"
           cy="534"
           cx="54"
           clip-path="url(#clipPath7)"
           r="16" />
        <circle
           style="fill:none;stroke:#000000"
           id="circle134"
           cy="534"
           cx="54"
           clip-path="url(#clipPath7)"
           r="16" />
        <path
           style="fill:#000000;stroke:none"
           inkscape:connector-curvature="0"
           id="path136"
           clip-path="url(#clipPath8)"
           d="m 40.7812,542 v -16.4688 h 5.6719 q 1.9063,0 2.9219,0.2344 1.4219,0.3282 2.4219,1.1875 1.2969,1.0938 1.9453,2.8125 0.6484,1.7188 0.6484,3.9063 0,1.875 -0.4375,3.3281 -0.4375,1.4531 -1.125,2.3984 -0.6875,0.9454 -1.5,1.4922 -0.8125,0.5469 -1.9687,0.8282 Q 48.2031,542 46.7188,542 Z m 2.1719,-1.9375 h 3.5157 q 1.625,0 2.5546,-0.3047 0.9297,-0.3047 1.4766,-0.8516 0.7812,-0.7812 1.2109,-2.0859 0.4297,-1.3047 0.4297,-3.1797 0,-2.5781 -0.8515,-3.9687 -0.8516,-1.3907 -2.0547,-1.8594 -0.875,-0.3281 -2.8282,-0.3281 H 42.9531 Z M 64.1724,542 h -2.0157 v -12.875 q -0.7343,0.6875 -1.914,1.3828 -1.1797,0.6953 -2.1328,1.0547 v -1.9687 q 1.7031,-0.7969 2.9687,-1.9297 1.2656,-1.1329 1.7969,-2.1953 h 1.2969 z" />
      </g>
    </g>
  </g>
</svg>
