<?xml version="1.0" encoding="UTF-8"?><svg xmlns="http://www.w3.org/2000/svg" xmlns:xlink="http://www.w3.org/1999/xlink" stroke-dasharray="none" shape-rendering="auto" font-family="'Dialog'" width="591" text-rendering="auto" fill-opacity="1" contentScriptType="text/ecmascript" color-interpolation="auto" color-rendering="auto" preserveAspectRatio="xMidYMid meet" font-size="12px" fill="black" stroke="black" image-rendering="auto" stroke-miterlimit="10" zoomAndPan="magnify" version="1.0" stroke-linecap="square" stroke-linejoin="miter" contentStyleType="text/css" font-style="normal" height="591" stroke-width="1" stroke-dashoffset="0" font-weight="normal" stroke-opacity="1"><!--Generated by the Batik Graphics2D SVG Generator--><defs id="genericDefs"/><g><defs id="defs1"><clipPath clipPathUnits="userSpaceOnUse" id="clipPath1"><path d="M37 37 L71 37 L71 71 L37 71 L37 37 Z"/></clipPath><clipPath clipPathUnits="userSpaceOnUse" id="clipPath2"><path d="M70 54 C70 62.8366 62.8366 70 54 70 C45.1634 70 38 62.8366 38 54 C38 45.1634 45.1634 38 54 38 C62.8366 38 70 45.1634 70 54 Z"/></clipPath><clipPath clipPathUnits="userSpaceOnUse" id="clipPath3"><path d="M517 517 L551 517 L551 551 L517 551 L517 517 Z"/></clipPath><clipPath clipPathUnits="userSpaceOnUse" id="clipPath4"><path d="M550 534 C550 542.8365 542.8365 550 534 550 C525.1635 550 518 542.8365 518 534 C518 525.1635 525.1635 518 534 518 C542.8365 518 550 525.1635 550 534 Z"/></clipPath><clipPath clipPathUnits="userSpaceOnUse" id="clipPath5"><path d="M517 37 L551 37 L551 71 L517 71 L517 37 Z"/></clipPath><clipPath clipPathUnits="userSpaceOnUse" id="clipPath6"><path d="M550 54 C550 62.8366 542.8365 70 534 70 C525.1635 70 518 62.8366 518 54 C518 45.1634 525.1635 38 534 38 C542.8365 38 550 45.1634 550 54 Z"/></clipPath><clipPath clipPathUnits="userSpaceOnUse" id="clipPath7"><path d="M37 517 L71 517 L71 551 L37 551 L37 517 Z"/></clipPath><clipPath clipPathUnits="userSpaceOnUse" id="clipPath8"><path d="M70 534 C70 542.8365 62.8366 550 54 550 C45.1634 550 38 542.8365 38 534 C38 525.1635 45.1634 518 54 518 C62.8366 518 70 525.1635 70 534 Z"/></clipPath><clipPath clipPathUnits="userSpaceOnUse" id="clipPath9"><path d="M133 133 L167 133 L167 167 L133 167 L133 133 Z"/></clipPath><clipPath clipPathUnits="userSpaceOnUse" id="clipPath10"><path d="M166 150 C166 158.8366 158.8366 166 150 166 C141.1634 166 134 158.8366 134 150 C134 141.1634 141.1634 134 150 134 C158.8366 134 166 141.1634 166 150 Z"/></clipPath><clipPath clipPathUnits="userSpaceOnUse" id="clipPath11"><path d="M437 437 L471 437 L471 471 L437 471 L437 437 Z"/></clipPath><clipPath clipPathUnits="userSpaceOnUse" id="clipPath12"><path d="M470 454 C470 462.8365 462.8365 470 454 470 C445.1635 470 438 462.8365 438 454 C438 445.1635 445.1635 438 454 438 C462.8365 438 470 445.1635 470 454 Z"/></clipPath><clipPath clipPathUnits="userSpaceOnUse" id="clipPath13"><path d="M453 133 L487 133 L487 167 L453 167 L453 133 Z"/></clipPath><clipPath clipPathUnits="userSpaceOnUse" id="clipPath14"><path d="M486 150 C486 158.8366 478.8365 166 470 166 C461.1635 166 454 158.8366 454 150 C454 141.1634 461.1635 134 470 134 C478.8365 134 486 141.1634 486 150 Z"/></clipPath><clipPath clipPathUnits="userSpaceOnUse" id="clipPath15"><path d="M117 437 L151 437 L151 471 L117 471 L117 437 Z"/></clipPath><clipPath clipPathUnits="userSpaceOnUse" id="clipPath16"><path d="M150 454 C150 462.8365 142.8366 470 134 470 C125.1634 470 118 462.8365 118 454 C118 445.1635 125.1634 438 134 438 C142.8366 438 150 445.1635 150 454 Z"/></clipPath><clipPath clipPathUnits="userSpaceOnUse" id="clipPath17"><path d="M213 213 L247 213 L247 247 L213 247 L213 213 Z"/></clipPath><clipPath clipPathUnits="userSpaceOnUse" id="clipPath18"><path d="M246 230 C246 238.8366 238.8366 246 230 246 C221.1634 246 214 238.8366 214 230 C214 221.1634 221.1634 214 230 214 C238.8366 214 246 221.1634 246 230 Z"/></clipPath><clipPath clipPathUnits="userSpaceOnUse" id="clipPath19"><path d="M357 357 L391 357 L391 391 L357 391 L357 357 Z"/></clipPath><clipPath clipPathUnits="userSpaceOnUse" id="clipPath20"><path d="M390 374 C390 382.8365 382.8365 390 374 390 C365.1635 390 358 382.8365 358 374 C358 365.1635 365.1635 358 374 358 C382.8365 358 390 365.1635 390 374 Z"/></clipPath><clipPath clipPathUnits="userSpaceOnUse" id="clipPath21"><path d="M373 213 L407 213 L407 247 L373 247 L373 213 Z"/></clipPath><clipPath clipPathUnits="userSpaceOnUse" id="clipPath22"><path d="M406 230 C406 238.8366 398.8365 246 390 246 C381.1635 246 374 238.8366 374 230 C374 221.1634 381.1635 214 390 214 C398.8365 214 406 221.1634 406 230 Z"/></clipPath><clipPath clipPathUnits="userSpaceOnUse" id="clipPath23"><path d="M197 357 L231 357 L231 391 L197 391 L197 357 Z"/></clipPath><clipPath clipPathUnits="userSpaceOnUse" id="clipPath24"><path d="M230 374 C230 382.8365 222.8366 390 214 390 C205.1634 390 198 382.8365 198 374 C198 365.1635 205.1634 358 214 358 C222.8366 358 230 365.1635 230 374 Z"/></clipPath><clipPath clipPathUnits="userSpaceOnUse" id="clipPath25"><path d="M277 197 L311 197 L311 231 L277 231 L277 197 Z"/></clipPath><clipPath clipPathUnits="userSpaceOnUse" id="clipPath26"><path d="M310 214 C310 222.8366 302.8365 230 294 230 C285.1635 230 278 222.8366 278 214 C278 205.1634 285.1635 198 294 198 C302.8365 198 310 205.1634 310 214 Z"/></clipPath><clipPath clipPathUnits="userSpaceOnUse" id="clipPath27"><path d="M357 277 L391 277 L391 311 L357 311 L357 277 Z"/></clipPath><clipPath clipPathUnits="userSpaceOnUse" id="clipPath28"><path d="M390 294 C390 302.8365 382.8365 310 374 310 C365.1635 310 358 302.8365 358 294 C358 285.1635 365.1635 278 374 278 C382.8365 278 390 285.1635 390 294 Z"/></clipPath><clipPath clipPathUnits="userSpaceOnUse" id="clipPath29"><path d="M277 277 L311 277 L311 311 L277 311 L277 277 Z"/></clipPath><clipPath clipPathUnits="userSpaceOnUse" id="clipPath30"><path d="M310 294 C310 302.8365 302.8365 310 294 310 C285.1635 310 278 302.8365 278 294 C278 285.1635 285.1635 278 294 278 C302.8365 278 310 285.1635 310 294 Z"/></clipPath><clipPath clipPathUnits="userSpaceOnUse" id="clipPath31"><path d="M293 373 L327 373 L327 407 L293 407 L293 373 Z"/></clipPath><clipPath clipPathUnits="userSpaceOnUse" id="clipPath32"><path d="M326 390 C326 398.8365 318.8365 406 310 406 C301.1635 406 294 398.8365 294 390 C294 381.1635 301.1635 374 310 374 C318.8365 374 326 381.1635 326 390 Z"/></clipPath><clipPath clipPathUnits="userSpaceOnUse" id="clipPath33"><path d="M309 309 L343 309 L343 343 L309 343 L309 309 Z"/></clipPath><clipPath clipPathUnits="userSpaceOnUse" id="clipPath34"><path d="M342 326 C342 334.8365 334.8365 342 326 342 C317.1635 342 310 334.8365 310 326 C310 317.1635 317.1635 310 326 310 C334.8365 310 342 317.1635 342 326 Z"/></clipPath><clipPath clipPathUnits="userSpaceOnUse" id="clipPath35"><path d="M309 229 L343 229 L343 263 L309 263 L309 229 Z"/></clipPath><clipPath clipPathUnits="userSpaceOnUse" id="clipPath36"><path d="M342 246 C342 254.8366 334.8365 262 326 262 C317.1635 262 310 254.8366 310 246 C310 237.1634 317.1635 230 326 230 C334.8365 230 342 237.1634 342 246 Z"/></clipPath><clipPath clipPathUnits="userSpaceOnUse" id="clipPath37"><path d="M229 389 L263 389 L263 423 L229 423 L229 389 Z"/></clipPath><clipPath clipPathUnits="userSpaceOnUse" id="clipPath38"><path d="M262 406 C262 414.8365 254.8366 422 246 422 C237.1634 422 230 414.8365 230 406 C230 397.1635 237.1634 390 246 390 C254.8366 390 262 397.1635 262 406 Z"/></clipPath><clipPath clipPathUnits="userSpaceOnUse" id="clipPath39"><path d="M389 309 L423 309 L423 343 L389 343 L389 309 Z"/></clipPath><clipPath clipPathUnits="userSpaceOnUse" id="clipPath40"><path d="M422 326 C422 334.8365 414.8365 342 406 342 C397.1635 342 390 334.8365 390 326 C390 317.1635 397.1635 310 406 310 C414.8365 310 422 317.1635 422 326 Z"/></clipPath><clipPath clipPathUnits="userSpaceOnUse" id="clipPath41"><path d="M389 389 L423 389 L423 423 L389 423 L389 389 Z"/></clipPath><clipPath clipPathUnits="userSpaceOnUse" id="clipPath42"><path d="M422 406 C422 414.8365 414.8365 422 406 422 C397.1635 422 390 414.8365 390 406 C390 397.1635 397.1635 390 406 390 C414.8365 390 422 397.1635 422 406 Z"/></clipPath><clipPath clipPathUnits="userSpaceOnUse" id="clipPath43"><path d="M213 133 L247 133 L247 167 L213 167 L213 133 Z"/></clipPath><clipPath clipPathUnits="userSpaceOnUse" id="clipPath44"><path d="M246 150 C246 158.8366 238.8366 166 230 166 C221.1634 166 214 158.8366 214 150 C214 141.1634 221.1634 134 230 134 C238.8366 134 246 141.1634 246 150 Z"/></clipPath><clipPath clipPathUnits="userSpaceOnUse" id="clipPath45"><path d="M149 469 L183 469 L183 503 L149 503 L149 469 Z"/></clipPath><clipPath clipPathUnits="userSpaceOnUse" id="clipPath46"><path d="M182 486 C182 494.8365 174.8366 502 166 502 C157.1634 502 150 494.8365 150 486 C150 477.1635 157.1634 470 166 470 C174.8366 470 182 477.1635 182 486 Z"/></clipPath><clipPath clipPathUnits="userSpaceOnUse" id="clipPath47"><path d="M453 213 L487 213 L487 247 L453 247 L453 213 Z"/></clipPath><clipPath clipPathUnits="userSpaceOnUse" id="clipPath48"><path d="M486 230 C486 238.8366 478.8365 246 470 246 C461.1635 246 454 238.8366 454 230 C454 221.1634 461.1635 214 470 214 C478.8365 214 486 221.1634 486 230 Z"/></clipPath><clipPath clipPathUnits="userSpaceOnUse" id="clipPath49"><path d="M469 469 L503 469 L503 503 L469 503 L469 469 Z"/></clipPath><clipPath clipPathUnits="userSpaceOnUse" id="clipPath50"><path d="M502 486 C502 494.8365 494.8365 502 486 502 C477.1635 502 470 494.8365 470 486 C470 477.1635 477.1635 470 486 470 C494.8365 470 502 477.1635 502 486 Z"/></clipPath><clipPath clipPathUnits="userSpaceOnUse" id="clipPath51"><path d="M133 53 L167 53 L167 87 L133 87 L133 53 Z"/></clipPath><clipPath clipPathUnits="userSpaceOnUse" id="clipPath52"><path d="M166 70 C166 78.8366 158.8366 86 150 86 C141.1634 86 134 78.8366 134 70 C134 61.1634 141.1634 54 150 54 C158.8366 54 166 61.1634 166 70 Z"/></clipPath><clipPath clipPathUnits="userSpaceOnUse" id="clipPath53"><path d="M69 549 L103 549 L103 583 L69 583 L69 549 Z"/></clipPath><clipPath clipPathUnits="userSpaceOnUse" id="clipPath54"><path d="M102 566 C102 574.8365 94.8366 582 86 582 C77.1634 582 70 574.8365 70 566 C70 557.1635 77.1634 550 86 550 C94.8366 550 102 557.1635 102 566 Z"/></clipPath><clipPath clipPathUnits="userSpaceOnUse" id="clipPath55"><path d="M533 133 L567 133 L567 167 L533 167 L533 133 Z"/></clipPath><clipPath clipPathUnits="userSpaceOnUse" id="clipPath56"><path d="M566 150 C566 158.8366 558.8365 166 550 166 C541.1635 166 534 158.8366 534 150 C534 141.1634 541.1635 134 550 134 C558.8365 134 566 141.1634 566 150 Z"/></clipPath><clipPath clipPathUnits="userSpaceOnUse" id="clipPath57"><path d="M549 549 L583 549 L583 583 L549 583 L549 549 Z"/></clipPath><clipPath clipPathUnits="userSpaceOnUse" id="clipPath58"><path d="M582 566 C582 574.8365 574.8365 582 566 582 C557.1635 582 550 574.8365 550 566 C550 557.1635 557.1635 550 566 550 C574.8365 550 582 557.1635 582 566 Z"/></clipPath><clipPath clipPathUnits="userSpaceOnUse" id="clipPath59"><path d="M69 69 L103 69 L103 103 L69 103 L69 69 Z"/></clipPath><clipPath clipPathUnits="userSpaceOnUse" id="clipPath60"><path d="M102 86 C102 94.8366 94.8366 102 86 102 C77.1634 102 70 94.8366 70 86 C70 77.1634 77.1634 70 86 70 C94.8366 70 102 77.1634 102 86 Z"/></clipPath><clipPath clipPathUnits="userSpaceOnUse" id="clipPath61"><path d="M549 69 L583 69 L583 103 L549 103 L549 69 Z"/></clipPath><clipPath clipPathUnits="userSpaceOnUse" id="clipPath62"><path d="M582 86 C582 94.8366 574.8365 102 566 102 C557.1635 102 550 94.8366 550 86 C550 77.1634 557.1635 70 566 70 C574.8365 70 582 77.1634 582 86 Z"/></clipPath></defs><g stroke-width="1.5"><line y2="30" fill="none" x1="30" x2="590" y1="30"/><line y2="110" fill="none" x1="30" x2="590" y1="110"/><line y2="190" fill="none" x1="30" x2="590" y1="190"/><line y2="270" fill="none" x1="30" x2="590" y1="270"/><line y2="350" fill="none" x1="30" x2="590" y1="350"/><line y2="430" fill="none" x1="30" x2="590" y1="430"/><line y2="510" fill="none" x1="30" x2="590" y1="510"/><line y2="590" fill="none" x1="30" x2="590" y1="590"/><line y2="590" fill="none" x1="30" x2="30" y1="30"/><line y2="590" fill="none" x1="110" x2="110" y1="30"/><line y2="590" fill="none" x1="190" x2="190" y1="30"/><line y2="590" fill="none" x1="270" x2="270" y1="30"/><line y2="590" fill="none" x1="350" x2="350" y1="30"/><line y2="590" fill="none" x1="430" x2="430" y1="30"/><line y2="590" fill="none" x1="510" x2="510" y1="30"/><line y2="590" fill="none" x1="590" x2="590" y1="30"/><path d="M17.9375 79 L15.8281 79 L15.8281 65.5625 Q15.0781 66.2812 13.8359 67.0078 Q12.5938 67.7344 11.6094 68.0938 L11.6094 66.0625 Q13.3906 65.2344 14.7109 64.0469 Q16.0312 62.8594 16.5781 61.75 L17.9375 61.75 L17.9375 79 Z" stroke="none"/><path d="M21.0781 156.9688 L21.0781 159 L9.7344 159 Q9.7031 158.2344 9.9688 157.5312 Q10.4062 156.375 11.3594 155.25 Q12.3125 154.125 14.125 152.6406 Q16.9219 150.3438 17.9062 149.0078 Q18.8906 147.6719 18.8906 146.4688 Q18.8906 145.2188 17.9922 144.3594 Q17.0938 143.5 15.6562 143.5 Q14.1406 143.5 13.2266 144.4141 Q12.3125 145.3281 12.2969 146.9375 L10.125 146.7188 Q10.3438 144.2969 11.7969 143.0234 Q13.25 141.75 15.7031 141.75 Q18.1719 141.75 19.6172 143.1172 Q21.0625 144.4844 21.0625 146.5156 Q21.0625 147.5469 20.6406 148.5469 Q20.2188 149.5469 19.2422 150.6484 Q18.2656 151.75 15.9844 153.6719 Q14.0938 155.2656 13.5547 155.8281 Q13.0156 156.3906 12.6562 156.9688 L21.0781 156.9688 Z" stroke="none"/><path d="M10.0156 234.4688 L12.125 234.1875 Q12.4844 235.9688 13.3594 236.7656 Q14.2344 237.5625 15.4844 237.5625 Q16.9688 237.5625 17.9922 236.5312 Q19.0156 235.5 19.0156 233.9688 Q19.0156 232.5156 18.0703 231.5703 Q17.125 230.625 15.6562 230.625 Q15.0625 230.625 14.1719 230.8594 L14.4062 229.0156 Q14.6094 229.0312 14.75 229.0312 Q16.0938 229.0312 17.1719 228.3281 Q18.25 227.625 18.25 226.1719 Q18.25 225 17.4609 224.2422 Q16.6719 223.4844 15.4375 223.4844 Q14.2031 223.4844 13.3828 224.2578 Q12.5625 225.0312 12.3281 226.5781 L10.2188 226.2031 Q10.6094 224.0781 11.9766 222.9141 Q13.3438 221.75 15.3906 221.75 Q16.7969 221.75 17.9766 222.3516 Q19.1562 222.9531 19.7891 224 Q20.4219 225.0469 20.4219 226.2188 Q20.4219 227.3281 19.8203 228.2422 Q19.2188 229.1562 18.0469 229.6875 Q19.5781 230.0469 20.4219 231.1562 Q21.2656 232.2656 21.2656 233.9219 Q21.2656 236.1719 19.625 237.7422 Q17.9844 239.3125 15.4688 239.3125 Q13.2031 239.3125 11.7109 237.9609 Q10.2188 236.6094 10.0156 234.4688 Z" stroke="none"/><path d="M16.7656 319 L16.7656 314.8906 L9.3125 314.8906 L9.3125 312.9531 L17.1406 301.8125 L18.875 301.8125 L18.875 312.9531 L21.1875 312.9531 L21.1875 314.8906 L18.875 314.8906 L18.875 319 L16.7656 319 ZM16.7656 312.9531 L16.7656 305.2031 L11.375 312.9531 L16.7656 312.9531 Z" stroke="none"/><path d="M10 394.5 L12.2188 394.3125 Q12.4531 395.9219 13.3516 396.7422 Q14.25 397.5625 15.5156 397.5625 Q17.0469 397.5625 18.1016 396.4141 Q19.1562 395.2656 19.1562 393.3594 Q19.1562 391.5625 18.1406 390.5156 Q17.125 389.4688 15.4844 389.4688 Q14.4688 389.4688 13.6484 389.9297 Q12.8281 390.3906 12.3594 391.1406 L10.375 390.875 L12.0312 382.0469 L20.5781 382.0469 L20.5781 384.0625 L13.7188 384.0625 L12.7969 388.6875 Q14.3438 387.6094 16.0469 387.6094 Q18.2969 387.6094 19.8438 389.1641 Q21.3906 390.7188 21.3906 393.1719 Q21.3906 395.5 20.0312 397.2031 Q18.375 399.2969 15.5156 399.2969 Q13.1719 399.2969 11.6875 397.9844 Q10.2031 396.6719 10 394.5 Z" stroke="none"/><path d="M20.9375 466.0312 L18.8438 466.1875 Q18.5625 464.9531 18.0469 464.3906 Q17.1875 463.4844 15.9375 463.4844 Q14.9375 463.4844 14.1719 464.0469 Q13.1719 464.7656 12.6016 466.1641 Q12.0312 467.5625 12 470.1406 Q12.7656 468.9844 13.8672 468.4219 Q14.9688 467.8594 16.1719 467.8594 Q18.2812 467.8594 19.7656 469.4062 Q21.25 470.9531 21.25 473.4219 Q21.25 475.0312 20.5547 476.4219 Q19.8594 477.8125 18.6406 478.5547 Q17.4219 479.2969 15.875 479.2969 Q13.2344 479.2969 11.5703 477.3516 Q9.9062 475.4062 9.9062 470.9531 Q9.9062 465.9844 11.75 463.7188 Q13.3438 461.75 16.0625 461.75 Q18.0938 461.75 19.3906 462.8828 Q20.6875 464.0156 20.9375 466.0312 ZM12.3281 473.4375 Q12.3281 474.5156 12.7891 475.5156 Q13.25 476.5156 14.0859 477.0391 Q14.9219 477.5625 15.8281 477.5625 Q17.1719 477.5625 18.1328 476.4844 Q19.0938 475.4062 19.0938 473.5469 Q19.0938 471.7656 18.1406 470.7422 Q17.1875 469.7188 15.75 469.7188 Q14.3281 469.7188 13.3281 470.7422 Q12.3281 471.7656 12.3281 473.4375 Z" stroke="none"/><path d="M10.1406 544.0625 L10.1406 542.0469 L21.2656 542.0469 L21.2656 543.6875 Q19.625 545.4219 18.0078 548.3203 Q16.3906 551.2188 15.5156 554.2812 Q14.8906 556.4375 14.7031 559 L12.5469 559 Q12.5781 556.9688 13.3359 554.1016 Q14.0938 551.2344 15.5234 548.5625 Q16.9531 545.8906 18.5469 544.0625 L10.1406 544.0625 Z" stroke="none"/><path d="M72.9375 24 L70.8281 24 L70.8281 10.5625 Q70.0781 11.2812 68.8359 12.0078 Q67.5938 12.7344 66.6094 13.0938 L66.6094 11.0625 Q68.3906 10.2344 69.7109 9.0469 Q71.0312 7.8594 71.5781 6.75 L72.9375 6.75 L72.9375 24 Z" stroke="none"/><path d="M156.0781 21.9688 L156.0781 24 L144.7344 24 Q144.7031 23.2344 144.9688 22.5312 Q145.4062 21.375 146.3594 20.25 Q147.3125 19.125 149.125 17.6406 Q151.9219 15.3438 152.9062 14.0078 Q153.8906 12.6719 153.8906 11.4688 Q153.8906 10.2188 152.9922 9.3594 Q152.0938 8.5 150.6562 8.5 Q149.1406 8.5 148.2266 9.4141 Q147.3125 10.3281 147.2969 11.9375 L145.125 11.7188 Q145.3438 9.2969 146.7969 8.0234 Q148.25 6.75 150.7031 6.75 Q153.1719 6.75 154.6172 8.1172 Q156.0625 9.4844 156.0625 11.5156 Q156.0625 12.5469 155.6406 13.5469 Q155.2188 14.5469 154.2422 15.6484 Q153.2656 16.75 150.9844 18.6719 Q149.0938 20.2656 148.5547 20.8281 Q148.0156 21.3906 147.6562 21.9688 L156.0781 21.9688 Z" stroke="none"/><path d="M225.0156 19.4688 L227.125 19.1875 Q227.4844 20.9688 228.3594 21.7656 Q229.2344 22.5625 230.4844 22.5625 Q231.9688 22.5625 232.9922 21.5312 Q234.0156 20.5 234.0156 18.9688 Q234.0156 17.5156 233.0703 16.5703 Q232.125 15.625 230.6562 15.625 Q230.0625 15.625 229.1719 15.8594 L229.4062 14.0156 Q229.6094 14.0312 229.75 14.0312 Q231.0938 14.0312 232.1719 13.3281 Q233.25 12.625 233.25 11.1719 Q233.25 10 232.4609 9.2422 Q231.6719 8.4844 230.4375 8.4844 Q229.2031 8.4844 228.3828 9.2578 Q227.5625 10.0312 227.3281 11.5781 L225.2188 11.2031 Q225.6094 9.0781 226.9766 7.9141 Q228.3438 6.75 230.3906 6.75 Q231.7969 6.75 232.9766 7.3516 Q234.1562 7.9531 234.7891 9 Q235.4219 10.0469 235.4219 11.2188 Q235.4219 12.3281 234.8203 13.2422 Q234.2188 14.1562 233.0469 14.6875 Q234.5781 15.0469 235.4219 16.1562 Q236.2656 17.2656 236.2656 18.9219 Q236.2656 21.1719 234.625 22.7422 Q232.9844 24.3125 230.4688 24.3125 Q228.2031 24.3125 226.7109 22.9609 Q225.2188 21.6094 225.0156 19.4688 Z" stroke="none"/><path d="M311.7656 24 L311.7656 19.8906 L304.3125 19.8906 L304.3125 17.9531 L312.1406 6.8125 L313.875 6.8125 L313.875 17.9531 L316.1875 17.9531 L316.1875 19.8906 L313.875 19.8906 L313.875 24 L311.7656 24 ZM311.7656 17.9531 L311.7656 10.2031 L306.375 17.9531 L311.7656 17.9531 Z" stroke="none"/><path d="M385 19.5 L387.2188 19.3125 Q387.4531 20.9219 388.3516 21.7422 Q389.25 22.5625 390.5156 22.5625 Q392.0469 22.5625 393.1016 21.4141 Q394.1562 20.2656 394.1562 18.3594 Q394.1562 16.5625 393.1406 15.5156 Q392.125 14.4688 390.4844 14.4688 Q389.4688 14.4688 388.6484 14.9297 Q387.8281 15.3906 387.3594 16.1406 L385.375 15.875 L387.0312 7.0469 L395.5781 7.0469 L395.5781 9.0625 L388.7188 9.0625 L387.7969 13.6875 Q389.3438 12.6094 391.0469 12.6094 Q393.2969 12.6094 394.8438 14.1641 Q396.3906 15.7188 396.3906 18.1719 Q396.3906 20.5 395.0312 22.2031 Q393.375 24.2969 390.5156 24.2969 Q388.1719 24.2969 386.6875 22.9844 Q385.2031 21.6719 385 19.5 Z" stroke="none"/><path d="M475.9375 11.0312 L473.8438 11.1875 Q473.5625 9.9531 473.0469 9.3906 Q472.1875 8.4844 470.9375 8.4844 Q469.9375 8.4844 469.1719 9.0469 Q468.1719 9.7656 467.6016 11.1641 Q467.0312 12.5625 467 15.1406 Q467.7656 13.9844 468.8672 13.4219 Q469.9688 12.8594 471.1719 12.8594 Q473.2812 12.8594 474.7656 14.4062 Q476.25 15.9531 476.25 18.4219 Q476.25 20.0312 475.5547 21.4219 Q474.8594 22.8125 473.6406 23.5547 Q472.4219 24.2969 470.875 24.2969 Q468.2344 24.2969 466.5703 22.3516 Q464.9062 20.4062 464.9062 15.9531 Q464.9062 10.9844 466.75 8.7188 Q468.3438 6.75 471.0625 6.75 Q473.0938 6.75 474.3906 7.8828 Q475.6875 9.0156 475.9375 11.0312 ZM467.3281 18.4375 Q467.3281 19.5156 467.7891 20.5156 Q468.25 21.5156 469.0859 22.0391 Q469.9219 22.5625 470.8281 22.5625 Q472.1719 22.5625 473.1328 21.4844 Q474.0938 20.4062 474.0938 18.5469 Q474.0938 16.7656 473.1406 15.7422 Q472.1875 14.7188 470.75 14.7188 Q469.3281 14.7188 468.3281 15.7422 Q467.3281 16.7656 467.3281 18.4375 Z" stroke="none"/><path d="M545.1406 9.0625 L545.1406 7.0469 L556.2656 7.0469 L556.2656 8.6875 Q554.625 10.4219 553.0078 13.3203 Q551.3906 16.2188 550.5156 19.2812 Q549.8906 21.4375 549.7031 24 L547.5469 24 Q547.5781 21.9688 548.3359 19.1016 Q549.0938 16.2344 550.5234 13.5625 Q551.9531 10.8906 553.5469 9.0625 L545.1406 9.0625 Z" stroke="none"/></g><g fill="rgb(30,144,255)" font-size="24px" font-family="'Arial'" stroke="rgb(30,144,255)"><circle r="16" clip-path="url(#clipPath1)" cx="54" cy="54" stroke="none"/><circle fill="none" r="16" clip-path="url(#clipPath1)" cx="54" cy="54" stroke="black"/><path fill="black" d="M38.9688 63 L45.8438 45.1094 L48.3906 45.1094 L55.7188 63 L53.0156 63 L50.9219 57.5781 L43.4375 57.5781 L41.4844 63 L38.9688 63 ZM44.125 55.6562 L50.1875 55.6562 L48.3281 50.6875 Q47.4688 48.4375 47.0625 46.9844 Q46.7188 48.7031 46.0938 50.4062 L44.125 55.6562 ZM64.9873 63 L62.7842 63 L62.7842 49 Q62.0029 49.75 60.7139 50.5078 Q59.4248 51.2656 58.3936 51.6406 L58.3936 49.5156 Q60.2373 48.6562 61.6201 47.4219 Q63.0029 46.1875 63.5654 45.0312 L64.9873 45.0312 L64.9873 63 Z" clip-path="url(#clipPath2)" stroke="none"/><circle fill="rgb(144,238,144)" r="16" clip-path="url(#clipPath3)" cx="534" cy="534" stroke="none"/><circle fill="none" r="16" clip-path="url(#clipPath3)" cx="534" cy="534" stroke="black"/><path fill="black" d="M521.6875 542 L521.6875 525.5312 L527.8594 525.5312 Q529.75 525.5312 530.8906 526.0312 Q532.0312 526.5312 532.6719 527.5703 Q533.3125 528.6094 533.3125 529.75 Q533.3125 530.7969 532.7422 531.7344 Q532.1719 532.6719 531.0156 533.2344 Q532.5156 533.6719 533.3125 534.7344 Q534.1094 535.7969 534.1094 537.2344 Q534.1094 538.3906 533.625 539.3828 Q533.1406 540.375 532.4219 540.9141 Q531.7031 541.4531 530.6172 541.7266 Q529.5312 542 527.9688 542 L521.6875 542 ZM523.8594 532.4531 L527.4219 532.4531 Q528.875 532.4531 529.5 532.2656 Q530.3281 532.0156 530.75 531.4453 Q531.1719 530.875 531.1719 530 Q531.1719 529.1875 530.7812 528.5625 Q530.3906 527.9375 529.6562 527.7109 Q528.9219 527.4844 527.1562 527.4844 L523.8594 527.4844 L523.8594 532.4531 ZM523.8594 540.0625 L527.9688 540.0625 Q529.0156 540.0625 529.4375 539.9844 Q530.2031 539.8438 530.7031 539.5312 Q531.2031 539.2188 531.5312 538.6172 Q531.8594 538.0156 531.8594 537.2344 Q531.8594 536.3125 531.3906 535.6328 Q530.9219 534.9531 530.0859 534.6719 Q529.25 534.3906 527.6719 534.3906 L523.8594 534.3906 L523.8594 540.0625 ZM543.9033 542 L541.8877 542 L541.8877 529.125 Q541.1533 529.8125 539.9736 530.5078 Q538.7939 531.2031 537.8408 531.5625 L537.8408 529.5938 Q539.5439 528.7969 540.8096 527.6641 Q542.0752 526.5312 542.6064 525.4688 L543.9033 525.4688 L543.9033 542 Z" clip-path="url(#clipPath4)" stroke="none"/><circle fill="rgb(250,128,114)" r="16" clip-path="url(#clipPath5)" cx="534" cy="54" stroke="none"/><circle fill="none" r="16" clip-path="url(#clipPath5)" cx="534" cy="54" stroke="black"/><path fill="black" d="M532.5156 56.2344 L534.7031 56.7812 Q534.0156 59.4688 532.2344 60.875 Q530.4531 62.2812 527.8906 62.2812 Q525.2188 62.2812 523.5547 61.1953 Q521.8906 60.1094 521.0156 58.0547 Q520.1406 56 520.1406 53.6406 Q520.1406 51.0781 521.125 49.1641 Q522.1094 47.25 523.9219 46.25 Q525.7344 45.25 527.9219 45.25 Q530.3906 45.25 532.0703 46.5078 Q533.75 47.7656 534.4219 50.0469 L532.2812 50.5625 Q531.7031 48.7656 530.6094 47.9453 Q529.5156 47.125 527.875 47.125 Q525.9688 47.125 524.6953 48.0312 Q523.4219 48.9375 522.9062 50.4688 Q522.3906 52 522.3906 53.6406 Q522.3906 55.7344 523 57.2969 Q523.6094 58.8594 524.9062 59.6406 Q526.2031 60.4219 527.7031 60.4219 Q529.5312 60.4219 530.8047 59.3672 Q532.0781 58.3125 532.5156 56.2344 ZM544.1724 62 L542.1567 62 L542.1567 49.125 Q541.4224 49.8125 540.2427 50.5078 Q539.063 51.2031 538.1099 51.5625 L538.1099 49.5938 Q539.813 48.7969 541.0786 47.6641 Q542.3442 46.5312 542.8755 45.4688 L544.1724 45.4688 L544.1724 62 Z" clip-path="url(#clipPath6)" stroke="none"/><circle fill="rgb(238,130,238)" r="16" clip-path="url(#clipPath7)" cx="54" cy="534" stroke="none"/><circle fill="none" r="16" clip-path="url(#clipPath7)" cx="54" cy="534" stroke="black"/><path fill="black" d="M40.7812 542 L40.7812 525.5312 L46.4531 525.5312 Q48.3594 525.5312 49.375 525.7656 Q50.7969 526.0938 51.7969 526.9531 Q53.0938 528.0469 53.7422 529.7656 Q54.3906 531.4844 54.3906 533.6719 Q54.3906 535.5469 53.9531 537 Q53.5156 538.4531 52.8281 539.3984 Q52.1406 540.3438 51.3281 540.8906 Q50.5156 541.4375 49.3594 541.7188 Q48.2031 542 46.7188 542 L40.7812 542 ZM42.9531 540.0625 L46.4688 540.0625 Q48.0938 540.0625 49.0234 539.7578 Q49.9531 539.4531 50.5 538.9062 Q51.2812 538.125 51.7109 536.8203 Q52.1406 535.5156 52.1406 533.6406 Q52.1406 531.0625 51.2891 529.6719 Q50.4375 528.2812 49.2344 527.8125 Q48.3594 527.4844 46.4062 527.4844 L42.9531 527.4844 L42.9531 540.0625 ZM64.1724 542 L62.1567 542 L62.1567 529.125 Q61.4224 529.8125 60.2427 530.5078 Q59.063 531.2031 58.1099 531.5625 L58.1099 529.5938 Q59.813 528.7969 61.0786 527.6641 Q62.3442 526.5312 62.8755 525.4688 L64.1724 525.4688 L64.1724 542 Z" clip-path="url(#clipPath8)" stroke="none"/><circle r="16" clip-path="url(#clipPath9)" cx="150" cy="150" stroke="none"/><circle fill="none" r="16" clip-path="url(#clipPath9)" cx="150" cy="150" stroke="black"/><path fill="black" d="M134.9688 159 L141.8438 141.1094 L144.3906 141.1094 L151.7188 159 L149.0156 159 L146.9219 153.5781 L139.4375 153.5781 L137.4844 159 L134.9688 159 ZM140.125 151.6562 L146.1875 151.6562 L144.3281 146.6875 Q143.4688 144.4375 143.0625 142.9844 Q142.7188 144.7031 142.0938 146.4062 L140.125 151.6562 ZM164.2529 156.8906 L164.2529 159 L152.4248 159 Q152.4092 158.2031 152.6904 157.4688 Q153.1436 156.2656 154.1357 155.0938 Q155.1279 153.9219 157.0029 152.3906 Q159.9248 149.9844 160.9482 148.5938 Q161.9717 147.2031 161.9717 145.9531 Q161.9717 144.6406 161.042 143.7422 Q160.1123 142.8438 158.6123 142.8438 Q157.0186 142.8438 156.0654 143.7969 Q155.1123 144.75 155.1123 146.4375 L152.8467 146.2031 Q153.0811 143.6875 154.5967 142.3594 Q156.1123 141.0312 158.6592 141.0312 Q161.2373 141.0312 162.7373 142.4609 Q164.2373 143.8906 164.2373 146 Q164.2373 147.0781 163.7998 148.1172 Q163.3623 149.1562 162.3389 150.2969 Q161.3154 151.4375 158.9561 153.4531 Q156.9717 155.1094 156.4092 155.7031 Q155.8467 156.2969 155.4873 156.8906 L164.2529 156.8906 Z" clip-path="url(#clipPath10)" stroke="none"/><circle fill="rgb(144,238,144)" r="16" clip-path="url(#clipPath11)" cx="454" cy="454" stroke="none"/><circle fill="none" r="16" clip-path="url(#clipPath11)" cx="454" cy="454" stroke="black"/><path fill="black" d="M441.6875 462 L441.6875 445.5312 L447.8594 445.5312 Q449.75 445.5312 450.8906 446.0312 Q452.0312 446.5312 452.6719 447.5703 Q453.3125 448.6094 453.3125 449.75 Q453.3125 450.7969 452.7422 451.7344 Q452.1719 452.6719 451.0156 453.2344 Q452.5156 453.6719 453.3125 454.7344 Q454.1094 455.7969 454.1094 457.2344 Q454.1094 458.3906 453.625 459.3828 Q453.1406 460.375 452.4219 460.9141 Q451.7031 461.4531 450.6172 461.7266 Q449.5312 462 447.9688 462 L441.6875 462 ZM443.8594 452.4531 L447.4219 452.4531 Q448.875 452.4531 449.5 452.2656 Q450.3281 452.0156 450.75 451.4453 Q451.1719 450.875 451.1719 450 Q451.1719 449.1875 450.7812 448.5625 Q450.3906 447.9375 449.6562 447.7109 Q448.9219 447.4844 447.1562 447.4844 L443.8594 447.4844 L443.8594 452.4531 ZM443.8594 460.0625 L447.9688 460.0625 Q449.0156 460.0625 449.4375 459.9844 Q450.2031 459.8438 450.7031 459.5312 Q451.2031 459.2188 451.5312 458.6172 Q451.8594 458.0156 451.8594 457.2344 Q451.8594 456.3125 451.3906 455.6328 Q450.9219 454.9531 450.0859 454.6719 Q449.25 454.3906 447.6719 454.3906 L443.8594 454.3906 L443.8594 460.0625 ZM466.9189 460.0625 L466.9189 462 L456.0439 462 Q456.0127 461.2656 456.2783 460.5938 Q456.6846 459.4844 457.5986 458.4062 Q458.5127 457.3281 460.2471 455.9062 Q462.9346 453.7188 463.8799 452.4297 Q464.8252 451.1406 464.8252 450 Q464.8252 448.7969 463.9658 447.9688 Q463.1064 447.1406 461.7158 447.1406 Q460.2627 447.1406 459.3877 448.0156 Q458.5127 448.8906 458.4971 450.4375 L456.4189 450.2344 Q456.6377 447.9062 458.0283 446.6875 Q459.4189 445.4688 461.7627 445.4688 Q464.1377 445.4688 465.5205 446.7812 Q466.9033 448.0938 466.9033 450.0469 Q466.9033 451.0312 466.4971 451.9844 Q466.0908 452.9375 465.1533 453.9922 Q464.2158 455.0469 462.0283 456.8906 Q460.2158 458.4219 459.7002 458.9609 Q459.1846 459.5 458.8408 460.0625 L466.9189 460.0625 Z" clip-path="url(#clipPath12)" stroke="none"/><circle fill="rgb(250,128,114)" r="16" clip-path="url(#clipPath13)" cx="470" cy="150" stroke="none"/><circle fill="none" r="16" clip-path="url(#clipPath13)" cx="470" cy="150" stroke="black"/><path fill="black" d="M468.5156 152.2344 L470.7031 152.7812 Q470.0156 155.4688 468.2344 156.875 Q466.4531 158.2812 463.8906 158.2812 Q461.2188 158.2812 459.5547 157.1953 Q457.8906 156.1094 457.0156 154.0547 Q456.1406 152 456.1406 149.6406 Q456.1406 147.0781 457.125 145.1641 Q458.1094 143.25 459.9219 142.25 Q461.7344 141.25 463.9219 141.25 Q466.3906 141.25 468.0703 142.5078 Q469.75 143.7656 470.4219 146.0469 L468.2812 146.5625 Q467.7031 144.7656 466.6094 143.9453 Q465.5156 143.125 463.875 143.125 Q461.9688 143.125 460.6953 144.0312 Q459.4219 144.9375 458.9062 146.4688 Q458.3906 148 458.3906 149.6406 Q458.3906 151.7344 459 153.2969 Q459.6094 154.8594 460.9062 155.6406 Q462.2031 156.4219 463.7031 156.4219 Q465.5312 156.4219 466.8047 155.3672 Q468.0781 154.3125 468.5156 152.2344 ZM483.188 156.0625 L483.188 158 L472.313 158 Q472.2817 157.2656 472.5474 156.5938 Q472.9536 155.4844 473.8677 154.4062 Q474.7817 153.3281 476.5161 151.9062 Q479.2036 149.7188 480.1489 148.4297 Q481.0942 147.1406 481.0942 146 Q481.0942 144.7969 480.2349 143.9688 Q479.3755 143.1406 477.9849 143.1406 Q476.5317 143.1406 475.6567 144.0156 Q474.7817 144.8906 474.7661 146.4375 L472.688 146.2344 Q472.9067 143.9062 474.2974 142.6875 Q475.688 141.4688 478.0317 141.4688 Q480.4067 141.4688 481.7896 142.7812 Q483.1724 144.0938 483.1724 146.0469 Q483.1724 147.0312 482.7661 147.9844 Q482.3599 148.9375 481.4224 149.9922 Q480.4849 151.0469 478.2974 152.8906 Q476.4849 154.4219 475.9692 154.9609 Q475.4536 155.5 475.1099 156.0625 L483.188 156.0625 Z" clip-path="url(#clipPath14)" stroke="none"/><circle fill="rgb(238,130,238)" r="16" clip-path="url(#clipPath15)" cx="134" cy="454" stroke="none"/><circle fill="none" r="16" clip-path="url(#clipPath15)" cx="134" cy="454" stroke="black"/><path fill="black" d="M120.7812 462 L120.7812 445.5312 L126.4531 445.5312 Q128.3594 445.5312 129.375 445.7656 Q130.7969 446.0938 131.7969 446.9531 Q133.0938 448.0469 133.7422 449.7656 Q134.3906 451.4844 134.3906 453.6719 Q134.3906 455.5469 133.9531 457 Q133.5156 458.4531 132.8281 459.3984 Q132.1406 460.3438 131.3281 460.8906 Q130.5156 461.4375 129.3594 461.7188 Q128.2031 462 126.7188 462 L120.7812 462 ZM122.9531 460.0625 L126.4688 460.0625 Q128.0938 460.0625 129.0234 459.7578 Q129.9531 459.4531 130.5 458.9062 Q131.2812 458.125 131.7109 456.8203 Q132.1406 455.5156 132.1406 453.6406 Q132.1406 451.0625 131.2891 449.6719 Q130.4375 448.2812 129.2344 447.8125 Q128.3594 447.4844 126.4062 447.4844 L122.9531 447.4844 L122.9531 460.0625 ZM147.188 460.0625 L147.188 462 L136.313 462 Q136.2817 461.2656 136.5474 460.5938 Q136.9536 459.4844 137.8677 458.4062 Q138.7817 457.3281 140.5161 455.9062 Q143.2036 453.7188 144.1489 452.4297 Q145.0942 451.1406 145.0942 450 Q145.0942 448.7969 144.2349 447.9688 Q143.3755 447.1406 141.9849 447.1406 Q140.5317 447.1406 139.6567 448.0156 Q138.7817 448.8906 138.7661 450.4375 L136.688 450.2344 Q136.9067 447.9062 138.2974 446.6875 Q139.688 445.4688 142.0317 445.4688 Q144.4067 445.4688 145.7896 446.7812 Q147.1724 448.0938 147.1724 450.0469 Q147.1724 451.0312 146.7661 451.9844 Q146.3599 452.9375 145.4224 453.9922 Q144.4849 455.0469 142.2974 456.8906 Q140.4849 458.4219 139.9692 458.9609 Q139.4536 459.5 139.1099 460.0625 L147.188 460.0625 Z" clip-path="url(#clipPath16)" stroke="none"/><circle r="16" clip-path="url(#clipPath17)" cx="230" cy="230" stroke="none"/><circle fill="none" r="16" clip-path="url(#clipPath17)" cx="230" cy="230" stroke="black"/><path fill="black" d="M214.9688 239 L221.8438 221.1094 L224.3906 221.1094 L231.7188 239 L229.0156 239 L226.9219 233.5781 L219.4375 233.5781 L217.4844 239 L214.9688 239 ZM220.125 231.6562 L226.1875 231.6562 L224.3281 226.6875 Q223.4688 224.4375 223.0625 222.9844 Q222.7188 224.7031 222.0938 226.4062 L220.125 231.6562 ZM232.7217 234.2812 L234.9248 233.9844 Q235.2998 235.8438 236.2061 236.6719 Q237.1123 237.5 238.4248 237.5 Q239.9717 237.5 241.042 236.4219 Q242.1123 235.3438 242.1123 233.7656 Q242.1123 232.25 241.1201 231.2656 Q240.1279 230.2812 238.6123 230.2812 Q237.9873 230.2812 237.0654 230.5312 L237.2998 228.5938 Q237.5186 228.625 237.6592 228.625 Q239.0654 228.625 240.1826 227.8906 Q241.2998 227.1562 241.2998 225.6406 Q241.2998 224.4219 240.4873 223.6328 Q239.6748 222.8438 238.3779 222.8438 Q237.0967 222.8438 236.2451 223.6484 Q235.3936 224.4531 235.1436 226.0625 L232.9404 225.6719 Q233.3467 223.4531 234.7764 222.2422 Q236.2061 221.0312 238.3311 221.0312 Q239.7998 221.0312 241.0264 221.6562 Q242.2529 222.2812 242.9092 223.375 Q243.5654 224.4688 243.5654 225.6875 Q243.5654 226.8438 242.9404 227.7969 Q242.3154 228.75 241.0967 229.3125 Q242.6904 229.6719 243.5654 230.8281 Q244.4404 231.9844 244.4404 233.7188 Q244.4404 236.0625 242.7295 237.6875 Q241.0186 239.3125 238.4092 239.3125 Q236.0498 239.3125 234.4951 237.9141 Q232.9404 236.5156 232.7217 234.2812 Z" clip-path="url(#clipPath18)" stroke="none"/><circle fill="rgb(144,238,144)" r="16" clip-path="url(#clipPath19)" cx="374" cy="374" stroke="none"/><circle fill="none" r="16" clip-path="url(#clipPath19)" cx="374" cy="374" stroke="black"/><path fill="black" d="M361.6875 382 L361.6875 365.5312 L367.8594 365.5312 Q369.75 365.5312 370.8906 366.0312 Q372.0312 366.5312 372.6719 367.5703 Q373.3125 368.6094 373.3125 369.75 Q373.3125 370.7969 372.7422 371.7344 Q372.1719 372.6719 371.0156 373.2344 Q372.5156 373.6719 373.3125 374.7344 Q374.1094 375.7969 374.1094 377.2344 Q374.1094 378.3906 373.625 379.3828 Q373.1406 380.375 372.4219 380.9141 Q371.7031 381.4531 370.6172 381.7266 Q369.5312 382 367.9688 382 L361.6875 382 ZM363.8594 372.4531 L367.4219 372.4531 Q368.875 372.4531 369.5 372.2656 Q370.3281 372.0156 370.75 371.4453 Q371.1719 370.875 371.1719 370 Q371.1719 369.1875 370.7812 368.5625 Q370.3906 367.9375 369.6562 367.7109 Q368.9219 367.4844 367.1562 367.4844 L363.8594 367.4844 L363.8594 372.4531 ZM363.8594 380.0625 L367.9688 380.0625 Q369.0156 380.0625 369.4375 379.9844 Q370.2031 379.8438 370.7031 379.5312 Q371.2031 379.2188 371.5312 378.6172 Q371.8594 378.0156 371.8594 377.2344 Q371.8594 376.3125 371.3906 375.6328 Q370.9219 374.9531 370.0859 374.6719 Q369.25 374.3906 367.6719 374.3906 L363.8594 374.3906 L363.8594 380.0625 ZM376.3096 377.6562 L378.3252 377.3906 Q378.6689 379.1094 379.5127 379.8672 Q380.3564 380.625 381.5439 380.625 Q382.9814 380.625 383.9658 379.6328 Q384.9502 378.6406 384.9502 377.1875 Q384.9502 375.7969 384.0361 374.8906 Q383.1221 373.9844 381.7158 373.9844 Q381.1533 373.9844 380.2939 374.2031 L380.5127 372.4375 Q380.7158 372.4531 380.8408 372.4531 Q382.1377 372.4531 383.1689 371.7812 Q384.2002 371.1094 384.2002 369.7031 Q384.2002 368.5938 383.4502 367.8594 Q382.7002 367.125 381.5127 367.125 Q380.3252 367.125 379.5439 367.8672 Q378.7627 368.6094 378.5283 370.0938 L376.5127 369.7344 Q376.8721 367.7031 378.1924 366.5859 Q379.5127 365.4688 381.4658 365.4688 Q382.8096 365.4688 383.9424 366.0469 Q385.0752 366.625 385.6768 367.625 Q386.2783 368.625 386.2783 369.75 Q386.2783 370.8125 385.708 371.6875 Q385.1377 372.5625 384.0127 373.0781 Q385.4658 373.4219 386.2783 374.4844 Q387.0908 375.5469 387.0908 377.1406 Q387.0908 379.2969 385.5205 380.7969 Q383.9502 382.2969 381.5439 382.2969 Q379.3721 382.2969 377.9424 381 Q376.5127 379.7031 376.3096 377.6562 Z" clip-path="url(#clipPath20)" stroke="none"/><circle fill="rgb(250,128,114)" r="16" clip-path="url(#clipPath21)" cx="390" cy="230" stroke="none"/><circle fill="none" r="16" clip-path="url(#clipPath21)" cx="390" cy="230" stroke="black"/><path fill="black" d="M388.5156 232.2344 L390.7031 232.7812 Q390.0156 235.4688 388.2344 236.875 Q386.4531 238.2812 383.8906 238.2812 Q381.2188 238.2812 379.5547 237.1953 Q377.8906 236.1094 377.0156 234.0547 Q376.1406 232 376.1406 229.6406 Q376.1406 227.0781 377.125 225.1641 Q378.1094 223.25 379.9219 222.25 Q381.7344 221.25 383.9219 221.25 Q386.3906 221.25 388.0703 222.5078 Q389.75 223.7656 390.4219 226.0469 L388.2812 226.5625 Q387.7031 224.7656 386.6094 223.9453 Q385.5156 223.125 383.875 223.125 Q381.9688 223.125 380.6953 224.0312 Q379.4219 224.9375 378.9062 226.4688 Q378.3906 228 378.3906 229.6406 Q378.3906 231.7344 379 233.2969 Q379.6094 234.8594 380.9062 235.6406 Q382.2031 236.4219 383.7031 236.4219 Q385.5312 236.4219 386.8047 235.3672 Q388.0781 234.3125 388.5156 232.2344 ZM392.5786 233.6562 L394.5942 233.3906 Q394.938 235.1094 395.7817 235.8672 Q396.6255 236.625 397.813 236.625 Q399.2505 236.625 400.2349 235.6328 Q401.2192 234.6406 401.2192 233.1875 Q401.2192 231.7969 400.3052 230.8906 Q399.3911 229.9844 397.9849 229.9844 Q397.4224 229.9844 396.563 230.2031 L396.7817 228.4375 Q396.9849 228.4531 397.1099 228.4531 Q398.4067 228.4531 399.438 227.7812 Q400.4692 227.1094 400.4692 225.7031 Q400.4692 224.5938 399.7192 223.8594 Q398.9692 223.125 397.7817 223.125 Q396.5942 223.125 395.813 223.8672 Q395.0317 224.6094 394.7974 226.0938 L392.7817 225.7344 Q393.1411 223.7031 394.4614 222.5859 Q395.7817 221.4688 397.7349 221.4688 Q399.0786 221.4688 400.2114 222.0469 Q401.3442 222.625 401.9458 223.625 Q402.5474 224.625 402.5474 225.75 Q402.5474 226.8125 401.9771 227.6875 Q401.4067 228.5625 400.2817 229.0781 Q401.7349 229.4219 402.5474 230.4844 Q403.3599 231.5469 403.3599 233.1406 Q403.3599 235.2969 401.7896 236.7969 Q400.2192 238.2969 397.813 238.2969 Q395.6411 238.2969 394.2114 237 Q392.7817 235.7031 392.5786 233.6562 Z" clip-path="url(#clipPath22)" stroke="none"/><circle fill="rgb(238,130,238)" r="16" clip-path="url(#clipPath23)" cx="214" cy="374" stroke="none"/><circle fill="none" r="16" clip-path="url(#clipPath23)" cx="214" cy="374" stroke="black"/><path fill="black" d="M200.7812 382 L200.7812 365.5312 L206.4531 365.5312 Q208.3594 365.5312 209.375 365.7656 Q210.7969 366.0938 211.7969 366.9531 Q213.0938 368.0469 213.7422 369.7656 Q214.3906 371.4844 214.3906 373.6719 Q214.3906 375.5469 213.9531 377 Q213.5156 378.4531 212.8281 379.3984 Q212.1406 380.3438 211.3281 380.8906 Q210.5156 381.4375 209.3594 381.7188 Q208.2031 382 206.7188 382 L200.7812 382 ZM202.9531 380.0625 L206.4688 380.0625 Q208.0938 380.0625 209.0234 379.7578 Q209.9531 379.4531 210.5 378.9062 Q211.2812 378.125 211.7109 376.8203 Q212.1406 375.5156 212.1406 373.6406 Q212.1406 371.0625 211.2891 369.6719 Q210.4375 368.2812 209.2344 367.8125 Q208.3594 367.4844 206.4062 367.4844 L202.9531 367.4844 L202.9531 380.0625 ZM216.5786 377.6562 L218.5942 377.3906 Q218.938 379.1094 219.7817 379.8672 Q220.6255 380.625 221.813 380.625 Q223.2505 380.625 224.2349 379.6328 Q225.2192 378.6406 225.2192 377.1875 Q225.2192 375.7969 224.3052 374.8906 Q223.3911 373.9844 221.9849 373.9844 Q221.4224 373.9844 220.563 374.2031 L220.7817 372.4375 Q220.9849 372.4531 221.1099 372.4531 Q222.4067 372.4531 223.438 371.7812 Q224.4692 371.1094 224.4692 369.7031 Q224.4692 368.5938 223.7192 367.8594 Q222.9692 367.125 221.7817 367.125 Q220.5942 367.125 219.813 367.8672 Q219.0317 368.6094 218.7974 370.0938 L216.7817 369.7344 Q217.1411 367.7031 218.4614 366.5859 Q219.7817 365.4688 221.7349 365.4688 Q223.0786 365.4688 224.2114 366.0469 Q225.3442 366.625 225.9458 367.625 Q226.5474 368.625 226.5474 369.75 Q226.5474 370.8125 225.9771 371.6875 Q225.4067 372.5625 224.2817 373.0781 Q225.7349 373.4219 226.5474 374.4844 Q227.3599 375.5469 227.3599 377.1406 Q227.3599 379.2969 225.7896 380.7969 Q224.2192 382.2969 221.813 382.2969 Q219.6411 382.2969 218.2114 381 Q216.7817 379.7031 216.5786 377.6562 Z" clip-path="url(#clipPath24)" stroke="none"/><circle r="16" clip-path="url(#clipPath25)" cx="294" cy="214" stroke="none"/><circle fill="none" r="16" clip-path="url(#clipPath25)" cx="294" cy="214" stroke="black"/><path fill="black" d="M278.9688 223 L285.8438 205.1094 L288.3906 205.1094 L295.7188 223 L293.0156 223 L290.9219 217.5781 L283.4375 217.5781 L281.4844 223 L278.9688 223 ZM284.125 215.6562 L290.1875 215.6562 L288.3281 210.6875 Q287.4688 208.4375 287.0625 206.9844 Q286.7188 208.7031 286.0938 210.4062 L284.125 215.6562 ZM303.7529 223 L303.7529 218.7188 L295.9873 218.7188 L295.9873 216.7031 L304.1592 205.1094 L305.9561 205.1094 L305.9561 216.7031 L308.3779 216.7031 L308.3779 218.7188 L305.9561 218.7188 L305.9561 223 L303.7529 223 ZM303.7529 216.7031 L303.7529 208.625 L298.1592 216.7031 L303.7529 216.7031 Z" clip-path="url(#clipPath26)" stroke="none"/><circle fill="rgb(144,238,144)" r="16" clip-path="url(#clipPath27)" cx="374" cy="294" stroke="none"/><circle fill="none" r="16" clip-path="url(#clipPath27)" cx="374" cy="294" stroke="black"/><path fill="black" d="M361.6875 302 L361.6875 285.5312 L367.8594 285.5312 Q369.75 285.5312 370.8906 286.0312 Q372.0312 286.5312 372.6719 287.5703 Q373.3125 288.6094 373.3125 289.75 Q373.3125 290.7969 372.7422 291.7344 Q372.1719 292.6719 371.0156 293.2344 Q372.5156 293.6719 373.3125 294.7344 Q374.1094 295.7969 374.1094 297.2344 Q374.1094 298.3906 373.625 299.3828 Q373.1406 300.375 372.4219 300.9141 Q371.7031 301.4531 370.6172 301.7266 Q369.5312 302 367.9688 302 L361.6875 302 ZM363.8594 292.4531 L367.4219 292.4531 Q368.875 292.4531 369.5 292.2656 Q370.3281 292.0156 370.75 291.4453 Q371.1719 290.875 371.1719 290 Q371.1719 289.1875 370.7812 288.5625 Q370.3906 287.9375 369.6562 287.7109 Q368.9219 287.4844 367.1562 287.4844 L363.8594 287.4844 L363.8594 292.4531 ZM363.8594 300.0625 L367.9688 300.0625 Q369.0156 300.0625 369.4375 299.9844 Q370.2031 299.8438 370.7031 299.5312 Q371.2031 299.2188 371.5312 298.6172 Q371.8594 298.0156 371.8594 297.2344 Q371.8594 296.3125 371.3906 295.6328 Q370.9219 294.9531 370.0859 294.6719 Q369.25 294.3906 367.6719 294.3906 L363.8594 294.3906 L363.8594 300.0625 ZM382.7783 302 L382.7783 298.0625 L375.6377 298.0625 L375.6377 296.2031 L383.1533 285.5312 L384.7939 285.5312 L384.7939 296.2031 L387.0283 296.2031 L387.0283 298.0625 L384.7939 298.0625 L384.7939 302 L382.7783 302 ZM382.7783 296.2031 L382.7783 288.7812 L377.6221 296.2031 L382.7783 296.2031 Z" clip-path="url(#clipPath28)" stroke="none"/><circle fill="rgb(250,128,114)" r="16" clip-path="url(#clipPath29)" cx="294" cy="294" stroke="none"/><circle fill="none" r="16" clip-path="url(#clipPath29)" cx="294" cy="294" stroke="black"/><path fill="black" d="M292.5156 296.2344 L294.7031 296.7812 Q294.0156 299.4688 292.2344 300.875 Q290.4531 302.2812 287.8906 302.2812 Q285.2188 302.2812 283.5547 301.1953 Q281.8906 300.1094 281.0156 298.0547 Q280.1406 296 280.1406 293.6406 Q280.1406 291.0781 281.125 289.1641 Q282.1094 287.25 283.9219 286.25 Q285.7344 285.25 287.9219 285.25 Q290.3906 285.25 292.0703 286.5078 Q293.75 287.7656 294.4219 290.0469 L292.2812 290.5625 Q291.7031 288.7656 290.6094 287.9453 Q289.5156 287.125 287.875 287.125 Q285.9688 287.125 284.6953 288.0312 Q283.4219 288.9375 282.9062 290.4688 Q282.3906 292 282.3906 293.6406 Q282.3906 295.7344 283 297.2969 Q283.6094 298.8594 284.9062 299.6406 Q286.2031 300.4219 287.7031 300.4219 Q289.5312 300.4219 290.8047 299.3672 Q292.0781 298.3125 292.5156 296.2344 ZM303.0474 302 L303.0474 298.0625 L295.9067 298.0625 L295.9067 296.2031 L303.4224 285.5312 L305.063 285.5312 L305.063 296.2031 L307.2974 296.2031 L307.2974 298.0625 L305.063 298.0625 L305.063 302 L303.0474 302 ZM303.0474 296.2031 L303.0474 288.7812 L297.8911 296.2031 L303.0474 296.2031 Z" clip-path="url(#clipPath30)" stroke="none"/><circle fill="rgb(238,130,238)" r="16" clip-path="url(#clipPath31)" cx="310" cy="390" stroke="none"/><circle fill="none" r="16" clip-path="url(#clipPath31)" cx="310" cy="390" stroke="black"/><path fill="black" d="M296.7812 398 L296.7812 381.5312 L302.4531 381.5312 Q304.3594 381.5312 305.375 381.7656 Q306.7969 382.0938 307.7969 382.9531 Q309.0938 384.0469 309.7422 385.7656 Q310.3906 387.4844 310.3906 389.6719 Q310.3906 391.5469 309.9531 393 Q309.5156 394.4531 308.8281 395.3984 Q308.1406 396.3438 307.3281 396.8906 Q306.5156 397.4375 305.3594 397.7188 Q304.2031 398 302.7188 398 L296.7812 398 ZM298.9531 396.0625 L302.4688 396.0625 Q304.0938 396.0625 305.0234 395.7578 Q305.9531 395.4531 306.5 394.9062 Q307.2812 394.125 307.7109 392.8203 Q308.1406 391.5156 308.1406 389.6406 Q308.1406 387.0625 307.2891 385.6719 Q306.4375 384.2812 305.2344 383.8125 Q304.3594 383.4844 302.4062 383.4844 L298.9531 383.4844 L298.9531 396.0625 ZM319.0474 398 L319.0474 394.0625 L311.9067 394.0625 L311.9067 392.2031 L319.4224 381.5312 L321.063 381.5312 L321.063 392.2031 L323.2974 392.2031 L323.2974 394.0625 L321.063 394.0625 L321.063 398 L319.0474 398 ZM319.0474 392.2031 L319.0474 384.7812 L313.8911 392.2031 L319.0474 392.2031 Z" clip-path="url(#clipPath32)" stroke="none"/><circle r="16" clip-path="url(#clipPath33)" cx="326" cy="326" stroke="none"/><circle fill="none" r="16" clip-path="url(#clipPath33)" cx="326" cy="326" stroke="black"/><path fill="black" d="M310.9688 335 L317.8438 317.1094 L320.3906 317.1094 L327.7188 335 L325.0156 335 L322.9219 329.5781 L315.4375 329.5781 L313.4844 335 L310.9688 335 ZM316.125 327.6562 L322.1875 327.6562 L320.3281 322.6875 Q319.4688 320.4375 319.0625 318.9844 Q318.7188 320.7031 318.0938 322.4062 L316.125 327.6562 ZM328.7061 330.3125 L331.0186 330.1094 Q331.2686 331.7969 332.2061 332.6484 Q333.1436 333.5 334.4561 333.5 Q336.0498 333.5 337.1514 332.3047 Q338.2529 331.1094 338.2529 329.125 Q338.2529 327.25 337.1904 326.1641 Q336.1279 325.0781 334.4248 325.0781 Q333.3623 325.0781 332.5107 325.5625 Q331.6592 326.0469 331.1592 326.8125 L329.0967 326.5469 L330.8311 317.3438 L339.7373 317.3438 L339.7373 319.4531 L332.5967 319.4531 L331.6279 324.25 Q333.2373 323.1406 335.0186 323.1406 Q337.3623 323.1406 338.9717 324.7578 Q340.5811 326.375 340.5811 328.9375 Q340.5811 331.3594 339.1592 333.125 Q337.4404 335.3125 334.4561 335.3125 Q332.0186 335.3125 330.4717 333.9453 Q328.9248 332.5781 328.7061 330.3125 Z" clip-path="url(#clipPath34)" stroke="none"/><circle fill="rgb(144,238,144)" r="16" clip-path="url(#clipPath35)" cx="326" cy="246" stroke="none"/><circle fill="none" r="16" clip-path="url(#clipPath35)" cx="326" cy="246" stroke="black"/><path fill="black" d="M313.6875 254 L313.6875 237.5312 L319.8594 237.5312 Q321.75 237.5312 322.8906 238.0312 Q324.0312 238.5312 324.6719 239.5703 Q325.3125 240.6094 325.3125 241.75 Q325.3125 242.7969 324.7422 243.7344 Q324.1719 244.6719 323.0156 245.2344 Q324.5156 245.6719 325.3125 246.7344 Q326.1094 247.7969 326.1094 249.2344 Q326.1094 250.3906 325.625 251.3828 Q325.1406 252.375 324.4219 252.9141 Q323.7031 253.4531 322.6172 253.7266 Q321.5312 254 319.9688 254 L313.6875 254 ZM315.8594 244.4531 L319.4219 244.4531 Q320.875 244.4531 321.5 244.2656 Q322.3281 244.0156 322.75 243.4453 Q323.1719 242.875 323.1719 242 Q323.1719 241.1875 322.7812 240.5625 Q322.3906 239.9375 321.6562 239.7109 Q320.9219 239.4844 319.1562 239.4844 L315.8594 239.4844 L315.8594 244.4531 ZM315.8594 252.0625 L319.9688 252.0625 Q321.0156 252.0625 321.4375 251.9844 Q322.2031 251.8438 322.7031 251.5312 Q323.2031 251.2188 323.5312 250.6172 Q323.8594 250.0156 323.8594 249.2344 Q323.8594 248.3125 323.3906 247.6328 Q322.9219 246.9531 322.0859 246.6719 Q321.25 246.3906 319.6719 246.3906 L315.8594 246.3906 L315.8594 252.0625 ZM328.2939 249.6875 L330.4189 249.5 Q330.6533 251.0625 331.5127 251.8438 Q332.3721 252.625 333.5908 252.625 Q335.0439 252.625 336.0518 251.5234 Q337.0596 250.4219 337.0596 248.5938 Q337.0596 246.875 336.0908 245.875 Q335.1221 244.875 333.5439 244.875 Q332.5752 244.875 331.7861 245.3125 Q330.9971 245.75 330.5596 246.4688 L328.6533 246.2188 L330.2471 237.7656 L338.4346 237.7656 L338.4346 239.6875 L331.8721 239.6875 L330.9814 244.1094 Q332.4658 243.0781 334.0908 243.0781 Q336.2471 243.0781 337.7314 244.5781 Q339.2158 246.0781 339.2158 248.4219 Q339.2158 250.6562 337.9033 252.2812 Q336.3252 254.2812 333.5908 254.2812 Q331.3408 254.2812 329.9189 253.0234 Q328.4971 251.7656 328.2939 249.6875 Z" clip-path="url(#clipPath36)" stroke="none"/><circle fill="rgb(250,128,114)" r="16" clip-path="url(#clipPath37)" cx="246" cy="406" stroke="none"/><circle fill="none" r="16" clip-path="url(#clipPath37)" cx="246" cy="406" stroke="black"/><path fill="black" d="M244.5156 408.2344 L246.7031 408.7812 Q246.0156 411.4688 244.2344 412.875 Q242.4531 414.2812 239.8906 414.2812 Q237.2188 414.2812 235.5547 413.1953 Q233.8906 412.1094 233.0156 410.0547 Q232.1406 408 232.1406 405.6406 Q232.1406 403.0781 233.125 401.1641 Q234.1094 399.25 235.9219 398.25 Q237.7344 397.25 239.9219 397.25 Q242.3906 397.25 244.0703 398.5078 Q245.75 399.7656 246.4219 402.0469 L244.2812 402.5625 Q243.7031 400.7656 242.6094 399.9453 Q241.5156 399.125 239.875 399.125 Q237.9688 399.125 236.6953 400.0312 Q235.4219 400.9375 234.9062 402.4688 Q234.3906 404 234.3906 405.6406 Q234.3906 407.7344 235 409.2969 Q235.6094 410.8594 236.9062 411.6406 Q238.2031 412.4219 239.7031 412.4219 Q241.5312 412.4219 242.8047 411.3672 Q244.0781 410.3125 244.5156 408.2344 ZM248.563 409.6875 L250.688 409.5 Q250.9224 411.0625 251.7817 411.8438 Q252.6411 412.625 253.8599 412.625 Q255.313 412.625 256.3208 411.5234 Q257.3286 410.4219 257.3286 408.5938 Q257.3286 406.875 256.3599 405.875 Q255.3911 404.875 253.813 404.875 Q252.8442 404.875 252.0552 405.3125 Q251.2661 405.75 250.8286 406.4688 L248.9224 406.2188 L250.5161 397.7656 L258.7036 397.7656 L258.7036 399.6875 L252.1411 399.6875 L251.2505 404.1094 Q252.7349 403.0781 254.3599 403.0781 Q256.5161 403.0781 258.0005 404.5781 Q259.4849 406.0781 259.4849 408.4219 Q259.4849 410.6562 258.1724 412.2812 Q256.5942 414.2812 253.8599 414.2812 Q251.6099 414.2812 250.188 413.0234 Q248.7661 411.7656 248.563 409.6875 Z" clip-path="url(#clipPath38)" stroke="none"/><circle fill="rgb(238,130,238)" r="16" clip-path="url(#clipPath39)" cx="406" cy="326" stroke="none"/><circle fill="none" r="16" clip-path="url(#clipPath39)" cx="406" cy="326" stroke="black"/><path fill="black" d="M392.7812 334 L392.7812 317.5312 L398.4531 317.5312 Q400.3594 317.5312 401.375 317.7656 Q402.7969 318.0938 403.7969 318.9531 Q405.0938 320.0469 405.7422 321.7656 Q406.3906 323.4844 406.3906 325.6719 Q406.3906 327.5469 405.9531 329 Q405.5156 330.4531 404.8281 331.3984 Q404.1406 332.3438 403.3281 332.8906 Q402.5156 333.4375 401.3594 333.7188 Q400.2031 334 398.7188 334 L392.7812 334 ZM394.9531 332.0625 L398.4688 332.0625 Q400.0938 332.0625 401.0234 331.7578 Q401.9531 331.4531 402.5 330.9062 Q403.2812 330.125 403.7109 328.8203 Q404.1406 327.5156 404.1406 325.6406 Q404.1406 323.0625 403.2891 321.6719 Q402.4375 320.2812 401.2344 319.8125 Q400.3594 319.4844 398.4062 319.4844 L394.9531 319.4844 L394.9531 332.0625 ZM408.563 329.6875 L410.688 329.5 Q410.9224 331.0625 411.7817 331.8438 Q412.6411 332.625 413.8599 332.625 Q415.313 332.625 416.3208 331.5234 Q417.3286 330.4219 417.3286 328.5938 Q417.3286 326.875 416.3599 325.875 Q415.3911 324.875 413.813 324.875 Q412.8442 324.875 412.0552 325.3125 Q411.2661 325.75 410.8286 326.4688 L408.9224 326.2188 L410.5161 317.7656 L418.7036 317.7656 L418.7036 319.6875 L412.1411 319.6875 L411.2505 324.1094 Q412.7349 323.0781 414.3599 323.0781 Q416.5161 323.0781 418.0005 324.5781 Q419.4849 326.0781 419.4849 328.4219 Q419.4849 330.6562 418.1724 332.2812 Q416.5942 334.2812 413.8599 334.2812 Q411.6099 334.2812 410.188 333.0234 Q408.7661 331.7656 408.563 329.6875 Z" clip-path="url(#clipPath40)" stroke="none"/><circle r="16" clip-path="url(#clipPath41)" cx="406" cy="406" stroke="none"/><circle fill="none" r="16" clip-path="url(#clipPath41)" cx="406" cy="406" stroke="black"/><path fill="black" d="M390.9688 415 L397.8438 397.1094 L400.3906 397.1094 L407.7188 415 L405.0156 415 L402.9219 409.5781 L395.4375 409.5781 L393.4844 415 L390.9688 415 ZM396.125 407.6562 L402.1875 407.6562 L400.3281 402.6875 Q399.4688 400.4375 399.0625 398.9844 Q398.7188 400.7031 398.0938 402.4062 L396.125 407.6562 ZM420.1123 401.4844 L417.9248 401.6562 Q417.6436 400.3594 417.0967 399.7812 Q416.2061 398.8438 414.9092 398.8438 Q413.8467 398.8438 413.0654 399.4219 Q412.0186 400.1875 411.4248 401.6328 Q410.8311 403.0781 410.7998 405.7656 Q411.5967 404.5625 412.7451 403.9766 Q413.8936 403.3906 415.1436 403.3906 Q417.3467 403.3906 418.8857 405.0078 Q420.4248 406.625 420.4248 409.1875 Q420.4248 410.875 419.6982 412.3203 Q418.9717 413.7656 417.7061 414.5391 Q416.4404 415.3125 414.8311 415.3125 Q412.0811 415.3125 410.3467 413.2891 Q408.6123 411.2656 408.6123 406.625 Q408.6123 401.4375 410.5342 399.0781 Q412.2061 397.0312 415.0342 397.0312 Q417.1436 397.0312 418.4951 398.2188 Q419.8467 399.4062 420.1123 401.4844 ZM411.1436 409.2031 Q411.1436 410.3438 411.6279 411.375 Q412.1123 412.4062 412.9795 412.9531 Q413.8467 413.5 414.7842 413.5 Q416.1904 413.5 417.1904 412.375 Q418.1904 411.25 418.1904 409.3281 Q418.1904 407.4688 417.1982 406.3984 Q416.2061 405.3281 414.7061 405.3281 Q413.2217 405.3281 412.1826 406.3984 Q411.1436 407.4688 411.1436 409.2031 Z" clip-path="url(#clipPath42)" stroke="none"/><circle fill="rgb(144,238,144)" r="16" clip-path="url(#clipPath43)" cx="230" cy="150" stroke="none"/><circle fill="none" r="16" clip-path="url(#clipPath43)" cx="230" cy="150" stroke="black"/><path fill="black" d="M217.6875 158 L217.6875 141.5312 L223.8594 141.5312 Q225.75 141.5312 226.8906 142.0312 Q228.0312 142.5312 228.6719 143.5703 Q229.3125 144.6094 229.3125 145.75 Q229.3125 146.7969 228.7422 147.7344 Q228.1719 148.6719 227.0156 149.2344 Q228.5156 149.6719 229.3125 150.7344 Q230.1094 151.7969 230.1094 153.2344 Q230.1094 154.3906 229.625 155.3828 Q229.1406 156.375 228.4219 156.9141 Q227.7031 157.4531 226.6172 157.7266 Q225.5312 158 223.9688 158 L217.6875 158 ZM219.8594 148.4531 L223.4219 148.4531 Q224.875 148.4531 225.5 148.2656 Q226.3281 148.0156 226.75 147.4453 Q227.1719 146.875 227.1719 146 Q227.1719 145.1875 226.7812 144.5625 Q226.3906 143.9375 225.6562 143.7109 Q224.9219 143.4844 223.1562 143.4844 L219.8594 143.4844 L219.8594 148.4531 ZM219.8594 156.0625 L223.9688 156.0625 Q225.0156 156.0625 225.4375 155.9844 Q226.2031 155.8438 226.7031 155.5312 Q227.2031 155.2188 227.5312 154.6172 Q227.8594 154.0156 227.8594 153.2344 Q227.8594 152.3125 227.3906 151.6328 Q226.9219 150.9531 226.0859 150.6719 Q225.25 150.3906 223.6719 150.3906 L219.8594 150.3906 L219.8594 156.0625 ZM242.7783 145.5625 L240.7783 145.7188 Q240.5127 144.5312 240.0127 144 Q239.1846 143.125 237.9971 143.125 Q237.0283 143.125 236.2939 143.6719 Q235.3408 144.3594 234.7861 145.6953 Q234.2314 147.0312 234.2158 149.5156 Q234.9502 148.3906 236.0049 147.8516 Q237.0596 147.3125 238.2158 147.3125 Q240.2314 147.3125 241.6533 148.8047 Q243.0752 150.2969 243.0752 152.6562 Q243.0752 154.2031 242.4111 155.5312 Q241.7471 156.8594 240.5752 157.5703 Q239.4033 158.2812 237.9189 158.2812 Q235.3877 158.2812 233.7939 156.4219 Q232.2002 154.5625 232.2002 150.2969 Q232.2002 145.5156 233.9658 143.3594 Q235.5127 141.4688 238.1064 141.4688 Q240.0596 141.4688 241.3018 142.5547 Q242.5439 143.6406 242.7783 145.5625 ZM234.5283 152.6719 Q234.5283 153.7031 234.9736 154.6641 Q235.4189 155.625 236.2158 156.125 Q237.0127 156.625 237.8877 156.625 Q239.1689 156.625 240.0908 155.5859 Q241.0127 154.5469 241.0127 152.7812 Q241.0127 151.0781 240.0986 150.0938 Q239.1846 149.1094 237.8096 149.1094 Q236.4346 149.1094 235.4814 150.0938 Q234.5283 151.0781 234.5283 152.6719 Z" clip-path="url(#clipPath44)" stroke="none"/><circle fill="rgb(250,128,114)" r="16" clip-path="url(#clipPath45)" cx="166" cy="486" stroke="none"/><circle fill="none" r="16" clip-path="url(#clipPath45)" cx="166" cy="486" stroke="black"/><path fill="black" d="M164.5156 488.2344 L166.7031 488.7812 Q166.0156 491.4688 164.2344 492.875 Q162.4531 494.2812 159.8906 494.2812 Q157.2188 494.2812 155.5547 493.1953 Q153.8906 492.1094 153.0156 490.0547 Q152.1406 488 152.1406 485.6406 Q152.1406 483.0781 153.125 481.1641 Q154.1094 479.25 155.9219 478.25 Q157.7344 477.25 159.9219 477.25 Q162.3906 477.25 164.0703 478.5078 Q165.75 479.7656 166.4219 482.0469 L164.2812 482.5625 Q163.7031 480.7656 162.6094 479.9453 Q161.5156 479.125 159.875 479.125 Q157.9688 479.125 156.6953 480.0312 Q155.4219 480.9375 154.9062 482.4688 Q154.3906 484 154.3906 485.6406 Q154.3906 487.7344 155 489.2969 Q155.6094 490.8594 156.9062 491.6406 Q158.2031 492.4219 159.7031 492.4219 Q161.5312 492.4219 162.8047 491.3672 Q164.0781 490.3125 164.5156 488.2344 ZM179.0474 481.5625 L177.0474 481.7188 Q176.7817 480.5312 176.2817 480 Q175.4536 479.125 174.2661 479.125 Q173.2974 479.125 172.563 479.6719 Q171.6099 480.3594 171.0552 481.6953 Q170.5005 483.0312 170.4849 485.5156 Q171.2192 484.3906 172.2739 483.8516 Q173.3286 483.3125 174.4849 483.3125 Q176.5005 483.3125 177.9224 484.8047 Q179.3442 486.2969 179.3442 488.6562 Q179.3442 490.2031 178.6802 491.5312 Q178.0161 492.8594 176.8442 493.5703 Q175.6724 494.2812 174.188 494.2812 Q171.6567 494.2812 170.063 492.4219 Q168.4692 490.5625 168.4692 486.2969 Q168.4692 481.5156 170.2349 479.3594 Q171.7817 477.4688 174.3755 477.4688 Q176.3286 477.4688 177.5708 478.5547 Q178.813 479.6406 179.0474 481.5625 ZM170.7974 488.6719 Q170.7974 489.7031 171.2427 490.6641 Q171.688 491.625 172.4849 492.125 Q173.2817 492.625 174.1567 492.625 Q175.438 492.625 176.3599 491.5859 Q177.2817 490.5469 177.2817 488.7812 Q177.2817 487.0781 176.3677 486.0938 Q175.4536 485.1094 174.0786 485.1094 Q172.7036 485.1094 171.7505 486.0938 Q170.7974 487.0781 170.7974 488.6719 Z" clip-path="url(#clipPath46)" stroke="none"/><circle fill="rgb(238,130,238)" r="16" clip-path="url(#clipPath47)" cx="470" cy="230" stroke="none"/><circle fill="none" r="16" clip-path="url(#clipPath47)" cx="470" cy="230" stroke="black"/><path fill="black" d="M456.7812 238 L456.7812 221.5312 L462.4531 221.5312 Q464.3594 221.5312 465.375 221.7656 Q466.7969 222.0938 467.7969 222.9531 Q469.0938 224.0469 469.7422 225.7656 Q470.3906 227.4844 470.3906 229.6719 Q470.3906 231.5469 469.9531 233 Q469.5156 234.4531 468.8281 235.3984 Q468.1406 236.3438 467.3281 236.8906 Q466.5156 237.4375 465.3594 237.7188 Q464.2031 238 462.7188 238 L456.7812 238 ZM458.9531 236.0625 L462.4688 236.0625 Q464.0938 236.0625 465.0234 235.7578 Q465.9531 235.4531 466.5 234.9062 Q467.2812 234.125 467.7109 232.8203 Q468.1406 231.5156 468.1406 229.6406 Q468.1406 227.0625 467.2891 225.6719 Q466.4375 224.2812 465.2344 223.8125 Q464.3594 223.4844 462.4062 223.4844 L458.9531 223.4844 L458.9531 236.0625 ZM483.0474 225.5625 L481.0474 225.7188 Q480.7817 224.5312 480.2817 224 Q479.4536 223.125 478.2661 223.125 Q477.2974 223.125 476.563 223.6719 Q475.6099 224.3594 475.0552 225.6953 Q474.5005 227.0312 474.4849 229.5156 Q475.2192 228.3906 476.2739 227.8516 Q477.3286 227.3125 478.4849 227.3125 Q480.5005 227.3125 481.9224 228.8047 Q483.3442 230.2969 483.3442 232.6562 Q483.3442 234.2031 482.6802 235.5312 Q482.0161 236.8594 480.8442 237.5703 Q479.6724 238.2812 478.188 238.2812 Q475.6567 238.2812 474.063 236.4219 Q472.4692 234.5625 472.4692 230.2969 Q472.4692 225.5156 474.2349 223.3594 Q475.7817 221.4688 478.3755 221.4688 Q480.3286 221.4688 481.5708 222.5547 Q482.813 223.6406 483.0474 225.5625 ZM474.7974 232.6719 Q474.7974 233.7031 475.2427 234.6641 Q475.688 235.625 476.4849 236.125 Q477.2817 236.625 478.1567 236.625 Q479.438 236.625 480.3599 235.5859 Q481.2817 234.5469 481.2817 232.7812 Q481.2817 231.0781 480.3677 230.0938 Q479.4536 229.1094 478.0786 229.1094 Q476.7036 229.1094 475.7505 230.0938 Q474.7974 231.0781 474.7974 232.6719 Z" clip-path="url(#clipPath48)" stroke="none"/><circle r="16" clip-path="url(#clipPath49)" cx="486" cy="486" stroke="none"/><circle fill="none" r="16" clip-path="url(#clipPath49)" cx="486" cy="486" stroke="black"/><path fill="black" d="M470.9688 495 L477.8438 477.1094 L480.3906 477.1094 L487.7188 495 L485.0156 495 L482.9219 489.5781 L475.4375 489.5781 L473.4844 495 L470.9688 495 ZM476.125 487.6562 L482.1875 487.6562 L480.3281 482.6875 Q479.4688 480.4375 479.0625 478.9844 Q478.7188 480.7031 478.0938 482.4062 L476.125 487.6562 ZM488.8623 479.4531 L488.8623 477.3438 L500.4404 477.3438 L500.4404 479.0469 Q498.7373 480.8594 497.0576 483.875 Q495.3779 486.8906 494.4561 490.0781 Q493.7998 492.3281 493.6123 495 L491.3623 495 Q491.3936 492.8906 492.1904 489.8984 Q492.9873 486.9062 494.4717 484.1328 Q495.9561 481.3594 497.6279 479.4531 L488.8623 479.4531 Z" clip-path="url(#clipPath50)" stroke="none"/><circle fill="rgb(144,238,144)" r="16" clip-path="url(#clipPath51)" cx="150" cy="70" stroke="none"/><circle fill="none" r="16" clip-path="url(#clipPath51)" cx="150" cy="70" stroke="black"/><path fill="black" d="M137.6875 78 L137.6875 61.5312 L143.8594 61.5312 Q145.75 61.5312 146.8906 62.0312 Q148.0312 62.5312 148.6719 63.5703 Q149.3125 64.6094 149.3125 65.75 Q149.3125 66.7969 148.7422 67.7344 Q148.1719 68.6719 147.0156 69.2344 Q148.5156 69.6719 149.3125 70.7344 Q150.1094 71.7969 150.1094 73.2344 Q150.1094 74.3906 149.625 75.3828 Q149.1406 76.375 148.4219 76.9141 Q147.7031 77.4531 146.6172 77.7266 Q145.5312 78 143.9688 78 L137.6875 78 ZM139.8594 68.4531 L143.4219 68.4531 Q144.875 68.4531 145.5 68.2656 Q146.3281 68.0156 146.75 67.4453 Q147.1719 66.875 147.1719 66 Q147.1719 65.1875 146.7812 64.5625 Q146.3906 63.9375 145.6562 63.7109 Q144.9219 63.4844 143.1562 63.4844 L139.8594 63.4844 L139.8594 68.4531 ZM139.8594 76.0625 L143.9688 76.0625 Q145.0156 76.0625 145.4375 75.9844 Q146.2031 75.8438 146.7031 75.5312 Q147.2031 75.2188 147.5312 74.6172 Q147.8594 74.0156 147.8594 73.2344 Q147.8594 72.3125 147.3906 71.6328 Q146.9219 70.9531 146.0859 70.6719 Q145.25 70.3906 143.6719 70.3906 L139.8594 70.3906 L139.8594 76.0625 ZM152.4346 63.6875 L152.4346 61.75 L163.0908 61.75 L163.0908 63.3281 Q161.5127 65 159.9736 67.7734 Q158.4346 70.5469 157.5908 73.4688 Q156.9814 75.5469 156.8096 78 L154.7314 78 Q154.7627 76.0625 155.4971 73.3047 Q156.2314 70.5469 157.5908 67.9922 Q158.9502 65.4375 160.4971 63.6875 L152.4346 63.6875 Z" clip-path="url(#clipPath52)" stroke="none"/><circle fill="rgb(250,128,114)" r="16" clip-path="url(#clipPath53)" cx="86" cy="566" stroke="none"/><circle fill="none" r="16" clip-path="url(#clipPath53)" cx="86" cy="566" stroke="black"/><path fill="black" d="M84.5156 568.2344 L86.7031 568.7812 Q86.0156 571.4688 84.2344 572.875 Q82.4531 574.2812 79.8906 574.2812 Q77.2188 574.2812 75.5547 573.1953 Q73.8906 572.1094 73.0156 570.0547 Q72.1406 568 72.1406 565.6406 Q72.1406 563.0781 73.125 561.1641 Q74.1094 559.25 75.9219 558.25 Q77.7344 557.25 79.9219 557.25 Q82.3906 557.25 84.0703 558.5078 Q85.75 559.7656 86.4219 562.0469 L84.2812 562.5625 Q83.7031 560.7656 82.6094 559.9453 Q81.5156 559.125 79.875 559.125 Q77.9688 559.125 76.6953 560.0312 Q75.4219 560.9375 74.9062 562.4688 Q74.3906 564 74.3906 565.6406 Q74.3906 567.7344 75 569.2969 Q75.6094 570.8594 76.9062 571.6406 Q78.2031 572.4219 79.7031 572.4219 Q81.5312 572.4219 82.8047 571.3672 Q84.0781 570.3125 84.5156 568.2344 ZM88.7036 559.6875 L88.7036 557.75 L99.3599 557.75 L99.3599 559.3281 Q97.7817 561 96.2427 563.7734 Q94.7036 566.5469 93.8599 569.4688 Q93.2505 571.5469 93.0786 574 L91.0005 574 Q91.0317 572.0625 91.7661 569.3047 Q92.5005 566.5469 93.8599 563.9922 Q95.2192 561.4375 96.7661 559.6875 L88.7036 559.6875 Z" clip-path="url(#clipPath54)" stroke="none"/><circle fill="rgb(238,130,238)" r="16" clip-path="url(#clipPath55)" cx="550" cy="150" stroke="none"/><circle fill="none" r="16" clip-path="url(#clipPath55)" cx="550" cy="150" stroke="black"/><path fill="black" d="M536.7812 158 L536.7812 141.5312 L542.4531 141.5312 Q544.3594 141.5312 545.375 141.7656 Q546.7969 142.0938 547.7969 142.9531 Q549.0938 144.0469 549.7422 145.7656 Q550.3906 147.4844 550.3906 149.6719 Q550.3906 151.5469 549.9531 153 Q549.5156 154.4531 548.8281 155.3984 Q548.1406 156.3438 547.3281 156.8906 Q546.5156 157.4375 545.3594 157.7188 Q544.2031 158 542.7188 158 L536.7812 158 ZM538.9531 156.0625 L542.4688 156.0625 Q544.0938 156.0625 545.0234 155.7578 Q545.9531 155.4531 546.5 154.9062 Q547.2812 154.125 547.7109 152.8203 Q548.1406 151.5156 548.1406 149.6406 Q548.1406 147.0625 547.2891 145.6719 Q546.4375 144.2812 545.2344 143.8125 Q544.3594 143.4844 542.4062 143.4844 L538.9531 143.4844 L538.9531 156.0625 ZM552.7036 143.6875 L552.7036 141.75 L563.3599 141.75 L563.3599 143.3281 Q561.7817 145 560.2427 147.7734 Q558.7036 150.5469 557.8599 153.4688 Q557.2505 155.5469 557.0786 158 L555.0005 158 Q555.0317 156.0625 555.7661 153.3047 Q556.5005 150.5469 557.8599 147.9922 Q559.2192 145.4375 560.7661 143.6875 L552.7036 143.6875 Z" clip-path="url(#clipPath56)" stroke="none"/><circle r="16" clip-path="url(#clipPath57)" cx="566" cy="566" stroke="none"/><circle fill="none" r="16" clip-path="url(#clipPath57)" cx="566" cy="566" stroke="black"/><path fill="black" d="M550.9688 575 L557.8438 557.1094 L560.3906 557.1094 L567.7188 575 L565.0156 575 L562.9219 569.5781 L555.4375 569.5781 L553.4844 575 L550.9688 575 ZM556.125 567.6562 L562.1875 567.6562 L560.3281 562.6875 Q559.4688 560.4375 559.0625 558.9844 Q558.7188 560.7031 558.0938 562.4062 L556.125 567.6562 ZM572.0967 565.2969 Q570.7217 564.7969 570.0654 563.8672 Q569.4092 562.9375 569.4092 561.6406 Q569.4092 559.6875 570.8154 558.3594 Q572.2217 557.0312 574.5498 557.0312 Q576.8936 557.0312 578.3232 558.3906 Q579.7529 559.75 579.7529 561.7031 Q579.7529 562.9531 579.0967 563.875 Q578.4404 564.7969 577.1123 565.2969 Q578.7529 565.8281 579.6201 567.0234 Q580.4873 568.2188 580.4873 569.8906 Q580.4873 572.1875 578.8623 573.75 Q577.2373 575.3125 574.5811 575.3125 Q571.9404 575.3125 570.3154 573.7422 Q568.6904 572.1719 568.6904 569.8281 Q568.6904 568.0781 569.5732 566.8984 Q570.4561 565.7188 572.0967 565.2969 ZM571.6592 561.5781 Q571.6592 562.8438 572.4717 563.6484 Q573.2842 564.4531 574.5967 564.4531 Q575.8623 564.4531 576.6748 563.6562 Q577.4873 562.8594 577.4873 561.6875 Q577.4873 560.4844 576.6514 559.6641 Q575.8154 558.8438 574.5654 558.8438 Q573.3154 558.8438 572.4873 559.6484 Q571.6592 560.4531 571.6592 561.5781 ZM570.9404 569.8438 Q570.9404 570.7812 571.3857 571.6562 Q571.8311 572.5312 572.7139 573.0156 Q573.5967 573.5 574.6123 573.5 Q576.1904 573.5 577.2139 572.4844 Q578.2373 571.4688 578.2373 569.9062 Q578.2373 568.3281 577.1826 567.2891 Q576.1279 566.25 574.5342 566.25 Q572.9873 566.25 571.9639 567.2734 Q570.9404 568.2969 570.9404 569.8438 Z" clip-path="url(#clipPath58)" stroke="none"/><circle fill="rgb(144,238,144)" r="16" clip-path="url(#clipPath59)" cx="86" cy="86" stroke="none"/><circle fill="none" r="16" clip-path="url(#clipPath59)" cx="86" cy="86" stroke="black"/><path fill="black" d="M73.6875 94 L73.6875 77.5312 L79.8594 77.5312 Q81.75 77.5312 82.8906 78.0312 Q84.0312 78.5312 84.6719 79.5703 Q85.3125 80.6094 85.3125 81.75 Q85.3125 82.7969 84.7422 83.7344 Q84.1719 84.6719 83.0156 85.2344 Q84.5156 85.6719 85.3125 86.7344 Q86.1094 87.7969 86.1094 89.2344 Q86.1094 90.3906 85.625 91.3828 Q85.1406 92.375 84.4219 92.9141 Q83.7031 93.4531 82.6172 93.7266 Q81.5312 94 79.9688 94 L73.6875 94 ZM75.8594 84.4531 L79.4219 84.4531 Q80.875 84.4531 81.5 84.2656 Q82.3281 84.0156 82.75 83.4453 Q83.1719 82.875 83.1719 82 Q83.1719 81.1875 82.7812 80.5625 Q82.3906 79.9375 81.6562 79.7109 Q80.9219 79.4844 79.1562 79.4844 L75.8594 79.4844 L75.8594 84.4531 ZM75.8594 92.0625 L79.9688 92.0625 Q81.0156 92.0625 81.4375 91.9844 Q82.2031 91.8438 82.7031 91.5312 Q83.2031 91.2188 83.5312 90.6172 Q83.8594 90.0156 83.8594 89.2344 Q83.8594 88.3125 83.3906 87.6328 Q82.9219 86.9531 82.0859 86.6719 Q81.25 86.3906 79.6719 86.3906 L75.8594 86.3906 L75.8594 92.0625 ZM91.4033 85.0781 Q90.1533 84.6094 89.5439 83.7578 Q88.9346 82.9062 88.9346 81.7188 Q88.9346 79.9219 90.2236 78.6953 Q91.5127 77.4688 93.6689 77.4688 Q95.8252 77.4688 97.1377 78.7188 Q98.4502 79.9688 98.4502 81.7656 Q98.4502 82.9219 97.8486 83.7656 Q97.2471 84.6094 96.0283 85.0781 Q97.5439 85.5625 98.333 86.6641 Q99.1221 87.7656 99.1221 89.2969 Q99.1221 91.4062 97.6299 92.8438 Q96.1377 94.2812 93.7002 94.2812 Q91.2627 94.2812 89.7705 92.8359 Q88.2783 91.3906 88.2783 89.2344 Q88.2783 87.625 89.0908 86.5469 Q89.9033 85.4688 91.4033 85.0781 ZM90.9971 81.6406 Q90.9971 82.8125 91.7549 83.5547 Q92.5127 84.2969 93.7158 84.2969 Q94.8721 84.2969 95.6221 83.5625 Q96.3721 82.8281 96.3721 81.7656 Q96.3721 80.6406 95.5986 79.8828 Q94.8252 79.125 93.6846 79.125 Q92.5283 79.125 91.7627 79.8672 Q90.9971 80.6094 90.9971 81.6406 ZM90.3564 89.25 Q90.3564 90.1094 90.7627 90.9219 Q91.1689 91.7344 91.9814 92.1797 Q92.7939 92.625 93.7158 92.625 Q95.1689 92.625 96.1143 91.6875 Q97.0596 90.75 97.0596 89.3125 Q97.0596 87.8594 96.083 86.9062 Q95.1064 85.9531 93.6533 85.9531 Q92.2314 85.9531 91.2939 86.8906 Q90.3564 87.8281 90.3564 89.25 Z" clip-path="url(#clipPath60)" stroke="none"/><circle fill="rgb(238,130,238)" r="16" clip-path="url(#clipPath61)" cx="566" cy="86" stroke="none"/><circle fill="none" r="16" clip-path="url(#clipPath61)" cx="566" cy="86" stroke="black"/><path fill="black" d="M552.7812 94 L552.7812 77.5312 L558.4531 77.5312 Q560.3594 77.5312 561.375 77.7656 Q562.7969 78.0938 563.7969 78.9531 Q565.0938 80.0469 565.7422 81.7656 Q566.3906 83.4844 566.3906 85.6719 Q566.3906 87.5469 565.9531 89 Q565.5156 90.4531 564.8281 91.3984 Q564.1406 92.3438 563.3281 92.8906 Q562.5156 93.4375 561.3594 93.7188 Q560.2031 94 558.7188 94 L552.7812 94 ZM554.9531 92.0625 L558.4688 92.0625 Q560.0938 92.0625 561.0234 91.7578 Q561.9531 91.4531 562.5 90.9062 Q563.2812 90.125 563.7109 88.8203 Q564.1406 87.5156 564.1406 85.6406 Q564.1406 83.0625 563.2891 81.6719 Q562.4375 80.2812 561.2344 79.8125 Q560.3594 79.4844 558.4062 79.4844 L554.9531 79.4844 L554.9531 92.0625 ZM571.6724 85.0781 Q570.4224 84.6094 569.813 83.7578 Q569.2036 82.9062 569.2036 81.7188 Q569.2036 79.9219 570.4927 78.6953 Q571.7817 77.4688 573.938 77.4688 Q576.0942 77.4688 577.4067 78.7188 Q578.7192 79.9688 578.7192 81.7656 Q578.7192 82.9219 578.1177 83.7656 Q577.5161 84.6094 576.2974 85.0781 Q577.813 85.5625 578.6021 86.6641 Q579.3911 87.7656 579.3911 89.2969 Q579.3911 91.4062 577.8989 92.8438 Q576.4067 94.2812 573.9692 94.2812 Q571.5317 94.2812 570.0396 92.8359 Q568.5474 91.3906 568.5474 89.2344 Q568.5474 87.625 569.3599 86.5469 Q570.1724 85.4688 571.6724 85.0781 ZM571.2661 81.6406 Q571.2661 82.8125 572.0239 83.5547 Q572.7817 84.2969 573.9849 84.2969 Q575.1411 84.2969 575.8911 83.5625 Q576.6411 82.8281 576.6411 81.7656 Q576.6411 80.6406 575.8677 79.8828 Q575.0942 79.125 573.9536 79.125 Q572.7974 79.125 572.0317 79.8672 Q571.2661 80.6094 571.2661 81.6406 ZM570.6255 89.25 Q570.6255 90.1094 571.0317 90.9219 Q571.438 91.7344 572.2505 92.1797 Q573.063 92.625 573.9849 92.625 Q575.438 92.625 576.3833 91.6875 Q577.3286 90.75 577.3286 89.3125 Q577.3286 87.8594 576.3521 86.9062 Q575.3755 85.9531 573.9224 85.9531 Q572.5005 85.9531 571.563 86.8906 Q570.6255 87.8281 570.6255 89.25 Z" clip-path="url(#clipPath62)" stroke="none"/></g></g></svg>